<svg width="2525" height="331" viewBox="0 0 2525 331" fill="none" xmlns="http://www.w3.org/2000/svg">
<g clip-path="url(#clip0_1_17616)">
<mask id="mask0_1_17616" style="mask-type:luminance" maskUnits="userSpaceOnUse" x="-18" y="-11" width="2560" height="354">
<path d="M-18 -10.4854H2542V342.015H-18V-10.4854Z" fill="white"/>
</mask>
<g mask="url(#mask0_1_17616)">
<path d="M795.521 163.562H886.603C920.76 163.562 936.1 140.788 936.1 108.119C936.1 76.4404 918.777 53.1778 886.603 53.1778H795.521V163.562ZM740.575 325.428V4.66443H889.572C955.897 4.66443 992.039 43.2738 992.039 108.119C992.039 173.459 955.897 212.072 889.079 212.072H795.521V325.428H740.575Z" fill="#221E1F"/>
<path d="M1081.62 90.7907V245.239C1081.62 267.023 1090.53 278.404 1111.82 278.404H1181.12V90.7907H1234.58V325.435H1101.42C1053.41 325.435 1027.66 300.679 1027.66 247.712V90.7907H1081.62Z" fill="#221E1F"/>
<path d="M1281.1 325.434V171.482C1281.1 125.942 1310.8 90.7903 1363.27 90.7903H1428.61L1405.35 137.328H1369.71C1347.92 137.328 1334.56 151.185 1334.56 172.964V325.434H1281.1Z" fill="#221E1F"/>
<path d="M1544.93 284.838C1589.98 284.838 1613.24 255.632 1613.24 208.112C1613.24 160.594 1589.98 131.878 1544.93 131.878C1499.89 131.878 1476.62 160.594 1476.62 208.112C1476.62 255.632 1499.89 284.838 1544.93 284.838ZM1544.93 84.3577C1622.64 84.3577 1666.71 134.852 1666.71 208.112C1666.71 281.376 1622.64 331.867 1544.93 331.867C1467.21 331.867 1423.15 281.376 1423.15 208.112C1423.15 134.852 1467.21 84.3577 1544.93 84.3577Z" fill="#221E1F"/>
<path d="M1747.88 325.434V53.6676H1638.98L1663.23 4.66095H1918.66L1894.41 53.6676H1803.32V325.434H1747.88Z" fill="#221E1F"/>
<path d="M2066.17 186.827C2063.2 150.197 2043.39 129.901 2006.27 129.901C1971.13 129.901 1946.87 154.653 1945.88 186.827H2066.17ZM2001.81 325.434C1930.53 325.434 1891.43 271.975 1891.43 205.145C1891.43 139.798 1932.51 84.3578 2006.27 84.3578C2080.02 84.3578 2121.11 133.863 2121.11 207.121V231.378H1946.87C1950.83 261.578 1974.59 280.385 2003.3 280.385H2106.26L2083.49 325.434H2001.81Z" fill="#221E1F"/>
<path d="M2260.69 325.434C2194.86 325.434 2145.35 284.348 2145.35 208.612C2145.35 132.869 2195.35 90.7903 2260.69 90.7903H2340.89L2317.62 137.328H2266.14C2223.57 137.328 2200.8 166.533 2200.8 208.612C2200.8 250.684 2223.57 278.904 2266.14 278.904H2341.87L2318.61 325.434H2260.69Z" fill="#221E1F"/>
<path d="M74.0248 4.87708H-0.0831909V325.626H227.437V263.156H74.0248V4.87708Z" fill="#6C6E70"/>
<path d="M390.574 203.38H450.896V259.501C439.854 263.763 418.048 268.008 397.431 268.008C330.822 268.008 308.578 234.064 308.578 165.352C308.578 99.8175 329.654 60.9415 396.4 60.9415C433.355 60.9415 454.722 72.5588 472.131 94.8615L518.159 52.5562C490.171 12.3322 440.75 0.0788269 394.895 0.0788269C291.072 0.0788269 236.576 56.8588 236.576 164.781C236.576 272.167 285.739 330.512 394.26 330.512C444.019 330.512 492.667 317.844 519.115 299.209V143.788H390.574V203.38Z" fill="#6C6E70"/>
<path d="M2366.06 4.6638H2429.34V17.3891H2405.78V84.8678H2389.73V17.3891H2366.06V4.6638Z" fill="#221E1F"/>
<path d="M2438.63 4.6638H2467.05L2482 72.3718H2482.88L2497.26 4.6638H2524.92V84.8678H2508.89V17.1665H2507.78L2492.5 84.8678H2471.27L2455.77 17.1665H2454.79V84.8678H2438.63V4.6638Z" fill="#221E1F"/>
</g>
</g>
<defs>
<clipPath id="clip0_1_17616">
<rect width="2525" height="331" fill="white"/>
</clipPath>
</defs>
</svg>
