<svg width="575" height="99" viewBox="0 0 575 99" fill="none" xmlns="http://www.w3.org/2000/svg">
<g clip-path="url(#clip0_1_18077)">
<mask id="mask0_1_18077" style="mask-type:luminance" maskUnits="userSpaceOnUse" x="-372" y="-288" width="1123" height="794">
<path d="M-372 -288H750.52V505.707H-372V-288Z" fill="white"/>
</mask>
<g mask="url(#mask0_1_18077)">
<path d="M434.807 18.2893H441.124V60.0146H434.807V18.2893ZM428.511 24.3667H420.252C420.385 30.8787 421.232 35.7933 422.792 39.1147C424.217 42.1413 426.305 43.948 429.06 44.528V51.248C426.207 50.8627 423.767 49.816 421.747 48.108C419.689 46.3653 418.096 44.012 416.969 41.048C415.841 43.948 414.164 46.3027 411.944 48.108C409.855 49.7827 407.533 50.828 404.979 51.248V44.5774C407.732 43.964 409.821 42.1413 411.248 39.1147C412.805 35.7613 413.669 30.8453 413.833 24.3667H405.527V18.2893H428.511V24.3667Z" fill="#0B5095"/>
<path d="M479.301 20.8602V18.2936H485.615V46.6016H479.301V36.6416H473.729V30.6296H479.301V26.8709H473.729V20.8602H479.301ZM456.351 24.4576C455.193 25.5829 454.614 26.9696 454.614 28.6096C454.614 30.2229 455.193 31.5762 456.351 32.6696C457.479 33.7309 458.803 34.2629 460.327 34.2629C461.75 34.2629 463.026 33.7309 464.154 32.6696C465.314 31.5416 465.893 30.1896 465.893 28.6096C465.893 26.9696 465.314 25.5829 464.154 24.4576C463.026 23.3962 461.75 22.8629 460.327 22.8629C458.803 22.8629 457.479 23.3962 456.351 24.4576ZM468.558 19.8216C471.077 22.1376 472.338 25.0709 472.338 28.6096C472.338 32.0882 471.077 34.9869 468.558 37.3029C466.203 39.4949 463.453 40.5896 460.302 40.5896C457.118 40.5896 454.333 39.4949 451.946 37.3029C449.427 34.9869 448.169 32.0882 448.169 28.6096C448.169 25.0709 449.427 22.1376 451.946 19.8216C454.333 17.6336 457.118 16.5376 460.302 16.5376C463.453 16.5376 466.203 17.6336 468.558 19.8216Z" fill="#0B5095"/>
<path d="M558.893 39.5144V51.3584H574.812V57.4331H536.768V51.3584H552.641V39.5144H558.893ZM559.279 18.1024C559.279 22.9371 560.521 26.6278 563.011 29.1744C565.297 31.4611 568.633 32.8638 573.011 33.3798V39.8571C569.295 39.5344 565.912 38.5704 562.863 36.9584C559.513 35.2184 557.161 32.9624 555.804 30.1891C554.415 32.9944 552.029 35.2824 548.649 37.0544C545.631 38.6024 542.263 39.5344 538.549 39.8571V33.3798C542.893 32.8638 546.228 31.4478 548.552 29.1264C551.104 26.5784 552.381 22.9038 552.381 18.1024H559.279Z" fill="#0B5095"/>
<path d="M392.438 18.2878C394.238 18.2878 395.688 19.7105 395.688 21.4571V33.4478H397.526V39.5225H358.919V33.4478H389.371V24.3665H360.212V18.2891L392.438 18.2878Z" fill="#0B5095"/>
<path d="M392.419 43.2171C394.217 43.2171 395.685 44.6384 395.685 46.3851L395.687 59.6411H389.371V49.2958H360.213V43.2184L392.419 43.2171Z" fill="#0B5095"/>
<path d="M452.224 56.2813L452.229 44.3253H458.545V53.368H485.909V59.4426H455.475C453.677 59.4426 452.224 58.0293 452.224 56.2813Z" fill="#0B5095"/>
<path d="M530.068 21.4572V36.8932H531.91V42.9678H515.18V59.8398H508.862V42.9678H493.289V36.8932H523.753V24.3665H494.596V18.2905L526.794 18.2878C528.592 18.2878 530.068 19.7105 530.068 21.4572Z" fill="#0B5095"/>
<path d="M187.266 11.799L191.927 11.787C192.834 11.787 193.688 11.8616 194.474 12.0123C195.263 12.1643 195.915 12.4403 196.44 12.8496C196.963 13.255 197.396 13.787 197.716 14.4536C198.055 15.1363 198.31 15.999 198.486 17.0496C198.772 18.6536 198.474 19.9736 197.583 20.9963C196.687 22.031 195.071 22.5496 192.732 22.5656C192.43 22.5656 192.034 22.5336 191.542 22.4763C191.047 22.4136 190.683 22.3563 190.419 22.3096L195.287 34.291C197.023 34.5376 198.143 34.663 198.622 34.6936C199.102 34.7256 199.638 34.731 200.222 34.7256C205.484 34.7003 209.498 32.9336 212.2 29.5043C214.804 26.1963 215.4 21.8523 214.096 16.6003C213.52 14.3163 212.776 12.3243 211.867 10.655C210.968 9.00829 209.962 7.59229 208.854 6.39762C207.08 4.52428 205.075 3.16029 202.812 2.28562C201.052 1.61229 199.279 1.27362 197.479 1.27362L171.662 1.27895L173.315 43.375C175.244 43.375 177.176 43.375 179.126 43.391C183.112 43.4256 187.062 43.503 191.003 43.6096L190.871 42.4603L187.266 11.799Z" fill="#0B5095"/>
<path d="M148.565 26.8667C148.153 31.756 146.462 35.932 143.448 39.3267C141.941 41.0134 140.208 42.3374 138.272 43.304C136.308 44.2787 134.236 44.7747 132.085 44.7934C127.586 44.8307 124.306 42.984 122.288 39.3667C120.333 35.864 119.908 31.7054 120.936 26.992C121.964 22.2507 124.01 18.508 127.044 15.692C129.981 12.944 133.317 11.5987 137.102 11.5854C140.874 11.5854 143.797 12.928 145.893 15.6734C148.057 18.508 148.969 22.2027 148.565 26.8667ZM163.84 40.6214C165.513 36.4174 166.325 31.756 166.325 26.696C166.325 21.9374 165.588 17.892 164.128 14.5094C162.732 11.228 160.773 8.5547 158.261 6.42003C155.8 4.34136 152.942 2.8107 149.665 1.83336C146.425 0.853363 142.813 0.365364 138.801 0.365364C135.008 0.365364 131.352 0.837364 127.833 1.76403C124.268 2.72003 121.014 4.09603 118.052 5.95736C114.666 8.14669 111.693 10.9214 109.14 14.3267C106.498 17.856 104.424 22.0467 102.924 26.9787C101.368 32.104 100.764 36.8014 101.16 41.0014C101.393 43.4067 101.926 45.6427 102.758 47.7107C121.534 45.352 141.617 43.8934 162.532 43.492C163.002 42.56 163.442 41.6054 163.84 40.6214Z" fill="#0B5095"/>
<path d="M295.268 56.3295C303.955 58.3695 312.143 60.6335 319.726 63.0962L280.062 1.26953H265.016L295.268 56.3295Z" fill="#0B5095"/>
<path d="M233.504 11.7046L240.409 11.6939C242.376 11.6886 244.081 12.0499 245.536 12.7819C247.004 13.5099 248.175 14.8806 249.048 16.9179C249.544 18.0672 249.749 19.0632 249.627 19.8792C249.513 20.7046 249.143 21.4139 248.513 22.0246C247.404 22.9259 245.755 23.3819 243.575 23.3846C242.585 23.3912 241.409 23.3032 240.049 23.1179L258.183 49.3712C259.593 49.5699 260.971 49.7766 262.279 49.9806C268.523 50.9366 274.579 52.0046 280.472 53.1499L268.416 38.8259L261.032 29.8979C263.719 28.3366 265.279 26.3126 265.755 23.8219C266.215 21.4072 265.668 18.7099 264.181 15.7606C261.453 10.4099 258.021 6.65524 253.86 4.32457C250.153 2.27657 245.813 1.27391 240.76 1.27391H215.203L227.729 45.7432C234.12 46.3246 240.396 47.0006 246.533 47.7739L233.504 11.7046Z" fill="#0B5095"/>
<path d="M71.4245 52.7097C71.7485 52.6497 72.0912 52.5897 72.4179 52.5271C74.4299 52.1511 76.4485 51.7751 78.4952 51.4204C83.5819 50.515 88.7485 49.6484 94.0805 48.8764L88.8925 25.291L113.887 1.29372H95.9952L70.1792 25.5377L71.4245 52.7097Z" fill="#0B5095"/>
<path d="M27.9837 63.7522L29.4517 63.2349L29.4637 63.2562C36.897 60.8029 44.9384 58.5709 53.4224 56.5389L80.9544 1.29353L64.8277 1.30553L27.9837 63.7522Z" fill="#0B5095"/>
</g>
<path d="M222.736 52.5319C228.181 53.4319 231.768 55.3052 231.721 56.4972C231.617 58.5265 212.581 62.1412 174.971 62.1412C140.345 62.1412 118.249 58.8185 118.249 56.5265H116.679C116.679 61.6639 151.543 63.5332 174.971 63.5332C198.279 63.5332 233.041 61.6705 233.291 56.5572C233.409 54.0319 228.216 52.0292 223.021 51.1692L222.736 52.5319Z" fill="url(#paint0_linear_1_18077)"/>
<path d="M63.488 64.3292C63.488 73.9425 120.923 79.1292 174.971 79.1292C229.028 79.1292 286.471 73.9425 286.471 64.3292C286.471 60.2999 276.492 56.8598 256.829 54.1252L256.588 55.4932C282.852 59.1558 284.896 63.1785 284.896 64.3292C284.896 70.7985 240.723 77.7425 174.971 77.7425C109.228 77.7425 65.0546 70.7985 65.0546 64.3292C65.0546 61.7079 73.8107 57.8478 98.3813 54.8358L98.1666 53.4692C82.34 55.4092 63.488 58.8585 63.488 64.3292Z" fill="url(#paint1_linear_1_18077)"/>
<path d="M322.571 70.6318C328.891 72.8372 332.229 75.1612 332.229 77.3545C332.229 87.0865 269.045 97.5065 174.971 97.5065C80.9067 97.5065 17.724 87.0865 17.724 77.3545C17.724 75.1612 21.064 72.8372 27.396 70.6318L26.8173 69.3345C19.636 71.8492 16.1493 74.4625 16.1493 77.3545C16.1493 90.8345 96.9027 98.8892 174.971 98.8892C253.044 98.8892 333.805 90.8345 333.805 77.3545C333.805 74.4625 330.316 71.8492 323.145 69.3345L322.571 70.6318Z" fill="url(#paint2_linear_1_18077)"/>
<path d="M178.987 53.4732L176.741 53.6865C115.611 59.5145 55.5093 76.4958 23.632 96.9265C23.632 96.9265 23.5133 98.3678 28.968 95.3012L30.684 94.3678C63.5573 75.7212 119.76 60.5118 176.907 55.0665L179.156 54.8478C194.807 53.3518 202.668 52.6038 215.295 52.6478C223.424 52.6651 231.247 53.2812 238.816 53.8785L252.567 54.8318L252.664 53.4451L238.949 52.4932C231.348 51.9052 223.493 51.2785 215.295 51.2585C214.977 51.2572 214.661 51.2571 214.349 51.2571C202.183 51.2571 194.303 52.0078 178.987 53.4732Z" fill="url(#paint3_linear_1_18077)"/>
<path d="M78.284 106.409C78.284 106.409 78.4026 107.711 81.8493 104.481L83.6666 102.763C104.033 81.9653 136.979 65.0906 175.197 56.0333L174.789 54.6946C133.537 64.4679 98.3613 83.32 78.284 106.409Z" fill="url(#paint4_linear_1_18077)"/>
<path d="M174.532 54.7811C154.42 65.7211 141.977 91.3878 136.361 105.672C134.283 111.129 135.245 110.752 135.245 110.752C135.855 110.729 137.875 106.029 137.875 106.029C147.183 82.3064 160.988 63.7691 175.351 55.9651C182.364 52.1611 190.227 50.2638 198.751 50.3211L198.756 48.9318C198.633 48.9318 198.511 48.9318 198.389 48.9318C189.713 48.9318 181.684 50.9038 174.532 54.7811Z" fill="url(#paint5_linear_1_18077)"/>
<path d="M168.203 49.8052C168.399 49.9198 186.275 61.0292 194.204 106.612L194.387 107.611C195.224 111.724 195.796 111.326 195.796 111.326C196.385 111.053 195.769 106.409 195.769 106.409C187.736 60.1158 169.856 49.1105 169.084 48.6612L168.203 49.8052Z" fill="url(#paint6_linear_1_18077)"/>
<path d="M148.719 50.4198C148.987 50.4438 175.701 53.9332 207.017 67.0212C228.383 75.9505 244.817 86.9665 259.367 102.228C259.367 102.228 260.196 103.171 261.919 104.789C264.995 107.705 265.796 107.094 265.796 107.094C249.796 88.6198 231.875 75.8758 207.695 65.7692C176.145 52.5838 149.216 49.0772 148.945 49.0505L148.719 50.4198Z" fill="url(#paint7_linear_1_18077)"/>
<path d="M118.489 51.0743L118.517 52.4597C126.948 52.313 142.268 53.1303 149.968 53.7423C247.736 61.3503 295.655 79.205 319.073 94.2303L321.247 95.577C324.791 97.941 325.787 97.109 325.787 97.109C304.643 81.2876 256.996 60.677 150.101 52.357C142.981 51.801 129.353 51.057 120.615 51.057C119.868 51.057 119.157 51.0623 118.489 51.0743Z" fill="url(#paint8_linear_1_18077)"/>
<path d="M116.597 55.2745C116.213 56.2358 116.792 56.8892 116.856 56.9612L118.093 56.1105C118.075 56.0798 117.979 55.9412 118.097 55.6985C118.34 55.1612 119.635 53.7972 126.399 52.4932L126.06 51.1385C120.355 52.2412 117.257 53.5958 116.597 55.2745Z" fill="url(#paint9_linear_1_18077)"/>
<path d="M7.7573 77.2079C6.1973 77.9653 1.50666 80.2533 0.771993 80.7426C0.14266 81.1719 0.0239767 81.1373 0.00531006 81.4653C0.0599767 81.7519 0.73996 81.7866 5.23863 79.8173L9.79864 77.8026C46.1653 60.4946 108.416 49.8826 174.984 49.8826H175.855V48.5039C175.563 48.5039 175.277 48.4986 174.984 48.4986C107.385 48.4986 44.1653 59.4173 7.7573 77.2079Z" fill="url(#paint10_linear_1_18077)"/>
<path d="M175.855 49.8825C232.608 49.9679 286.072 57.7412 323.003 70.7866C310.579 67.3092 292.769 63.4372 268.491 60.6012L258.14 59.3612C233.849 56.4386 217.796 54.4959 175.073 54.5905C128.117 54.6866 91.136 56.1439 65.1667 58.8972L65.356 60.2799C91.2627 57.5252 128.179 56.0799 175.077 55.9799C217.696 55.8919 233.707 57.8239 257.933 60.7399L268.289 61.9759C306.753 66.4679 328.891 73.5466 338.909 77.5052C339.005 77.5479 346.755 80.5986 346.755 80.5986C348.825 81.4399 349.219 81.0359 349.281 80.8812C349.281 80.8812 349.348 80.8292 349.085 80.6666C348.536 80.3639 346.193 79.1119 344.62 78.4172C308.784 60.0012 244.697 48.5972 175.855 48.5039V49.8825Z" fill="url(#paint11_linear_1_18077)"/>
</g>
<defs>
<linearGradient id="paint0_linear_1_18077" x1="174.986" y1="98.842" x2="174.986" y2="53.5788" gradientUnits="userSpaceOnUse">
<stop stop-color="white"/>
<stop offset="0.218896" stop-color="white"/>
<stop offset="1" stop-color="#009FCD"/>
</linearGradient>
<linearGradient id="paint1_linear_1_18077" x1="174.98" y1="98.8393" x2="174.98" y2="53.5799" gradientUnits="userSpaceOnUse">
<stop stop-color="white"/>
<stop offset="0.218896" stop-color="white"/>
<stop offset="1" stop-color="#009FCD"/>
</linearGradient>
<linearGradient id="paint2_linear_1_18077" x1="174.977" y1="98.8387" x2="174.977" y2="53.5777" gradientUnits="userSpaceOnUse">
<stop stop-color="white"/>
<stop offset="0.218896" stop-color="white"/>
<stop offset="1" stop-color="#009FCD"/>
</linearGradient>
<linearGradient id="paint3_linear_1_18077" x1="138.148" y1="98.8387" x2="138.148" y2="53.5755" gradientUnits="userSpaceOnUse">
<stop stop-color="white"/>
<stop offset="0.218896" stop-color="white"/>
<stop offset="1" stop-color="#009FCD"/>
</linearGradient>
<linearGradient id="paint4_linear_1_18077" x1="126.741" y1="98.8511" x2="126.741" y2="53.5835" gradientUnits="userSpaceOnUse">
<stop stop-color="white"/>
<stop offset="0.218896" stop-color="white"/>
<stop offset="1" stop-color="#009FCD"/>
</linearGradient>
<linearGradient id="paint5_linear_1_18077" x1="166.89" y1="98.8431" x2="166.89" y2="53.5812" gradientUnits="userSpaceOnUse">
<stop stop-color="white"/>
<stop offset="0.218896" stop-color="white"/>
<stop offset="1" stop-color="#009FCD"/>
</linearGradient>
<linearGradient id="paint6_linear_1_18077" x1="182.127" y1="98.8452" x2="182.127" y2="53.5749" gradientUnits="userSpaceOnUse">
<stop stop-color="white"/>
<stop offset="0.218896" stop-color="white"/>
<stop offset="1" stop-color="#009FCD"/>
</linearGradient>
<linearGradient id="paint7_linear_1_18077" x1="207.258" y1="98.8862" x2="207.258" y2="53.5816" gradientUnits="userSpaceOnUse">
<stop stop-color="white"/>
<stop offset="0.218896" stop-color="white"/>
<stop offset="1" stop-color="#009FCD"/>
</linearGradient>
<linearGradient id="paint8_linear_1_18077" x1="222.138" y1="98.8632" x2="222.138" y2="53.566" gradientUnits="userSpaceOnUse">
<stop stop-color="white"/>
<stop offset="0.218896" stop-color="white"/>
<stop offset="1" stop-color="#009FCD"/>
</linearGradient>
<linearGradient id="paint9_linear_1_18077" x1="121.433" y1="98.8394" x2="121.433" y2="53.5789" gradientUnits="userSpaceOnUse">
<stop stop-color="white"/>
<stop offset="0.218896" stop-color="white"/>
<stop offset="1" stop-color="#009FCD"/>
</linearGradient>
<linearGradient id="paint10_linear_1_18077" x1="87.9303" y1="99.0237" x2="87.9303" y2="53.5967" gradientUnits="userSpaceOnUse">
<stop stop-color="white"/>
<stop offset="0.218896" stop-color="white"/>
<stop offset="1" stop-color="#009FCD"/>
</linearGradient>
<linearGradient id="paint11_linear_1_18077" x1="207.228" y1="98.842" x2="207.228" y2="53.5783" gradientUnits="userSpaceOnUse">
<stop stop-color="white"/>
<stop offset="0.218896" stop-color="white"/>
<stop offset="1" stop-color="#009FCD"/>
</linearGradient>
<clipPath id="clip0_1_18077">
<rect width="575" height="99" fill="white"/>
</clipPath>
</defs>
</svg>
