<svg width="1302" height="825" viewBox="0 0 1302 825" fill="none" xmlns="http://www.w3.org/2000/svg">
<g clip-path="url(#clip0_1_18922)">
<path d="M-83 -59H1382.33V981H-83V-59Z" fill="white"/>
<path d="M447.013 133.347C515.187 89.0934 583.24 44.6401 651.467 0.440063C719.6 44.8667 787.813 89.1867 856 133.52C855.987 158.413 855.987 183.307 856 208.2C897.733 181.587 939.333 154.747 980.413 127.147C982.32 125.88 984.413 124.907 986.573 124.093C989.04 129.36 988.4 135.293 988.893 140.933C989.627 161.707 987.653 183.24 978.44 202.16C972.44 214.64 962.827 225.267 951.053 232.547C951.413 254.627 944.173 277.72 927.96 293.253C917.507 303.44 903.733 309.493 889.587 312.427C883.293 327.987 871.813 342.133 855.88 348.4C852.533 370.667 843.76 391.68 834.867 412.213C822.067 440.12 806.973 467.387 786.64 490.56C770.32 508.253 751.96 524.027 732.307 537.907C716.413 549.707 698.507 558.493 682.96 570.8C671.547 579.667 660.84 589.52 651.387 600.48C636.053 583.053 618.08 567.92 598.16 555.987C571.453 539.987 546.28 521.213 524.28 499.147C508.08 483.227 495.32 464.2 484.16 444.52C472.507 423.733 462.613 401.933 454.813 379.413C451.333 369.307 448.32 358.987 446.787 348.387C430.947 342.04 419.333 327.96 413.107 312.373C395.68 308.987 378.88 300.16 368.067 285.787C356.52 270.693 351.44 251.36 351.64 232.533C334.64 222.12 322.827 204.547 318.027 185.333C313.16 166.587 312.813 146.893 314.773 127.72C314.747 124.707 318.2 123.76 320.2 125.773C362.093 153.867 404.467 181.24 446.987 208.4C447.04 183.387 446.973 158.36 447.013 133.347Z" fill="#0A154B"/>
<path d="M455.987 138.48C521.107 96.1068 586.253 53.7735 651.36 11.3602C716.453 53.7335 781.573 96.0668 846.68 138.427C846.667 163.68 846.667 188.947 846.68 214.2C842.107 217.08 837.56 219.96 833.013 222.84C832.987 197.734 833.013 172.627 833 147.52C772.467 108.134 711.907 68.7602 651.36 29.3736C590.787 68.7469 530.253 108.187 469.667 147.547C469.667 172.64 469.68 197.747 469.667 222.854C465.107 219.934 460.547 217.027 455.973 214.107C456.013 188.907 456.013 163.693 455.987 138.48Z" fill="#FDCC17"/>
<path d="M584.32 96.0267C589.547 96.2534 594.973 95.28 600.08 96.7333C607.107 99.12 607.6 109.84 601.867 113.88C598.8 116.307 594.6 115.48 590.987 115.76C591 119.507 590.987 123.253 591 127C588.773 127 586.547 127 584.333 127C584.32 116.667 584.347 106.347 584.32 96.0267Z" fill="white"/>
<path d="M616.173 96.4535C620.987 94.8135 627.133 95.2134 630.747 99.1734C634.347 102.747 635.027 108.133 634.84 112.96C634.6 117.88 632.853 123.267 628.413 125.947C622.013 129.68 612.333 127.52 609.587 120.173C606.253 112.267 607.413 100.267 616.173 96.4535Z" fill="#FFFFFE"/>
<path d="M639.333 96.0001C641.547 96.0001 643.773 96.0001 646 96.0001C646.013 104.547 646 113.107 646 121.667C649.64 121.667 653.28 121.667 656.933 121.613C656.587 123.413 656.253 125.2 655.933 127C650.4 127 644.867 127.013 639.333 126.987C639.347 116.667 639.32 106.333 639.333 96.0001Z" fill="white"/>
<path d="M660.307 96.04C662.64 96.0134 664.973 96 667.32 95.9733C667.347 106.32 667.333 116.653 667.333 127C664.987 127 662.653 127 660.333 127C660.32 116.68 660.36 106.36 660.307 96.04Z" fill="#FFFFFE"/>
<path d="M677.68 97.6402C682.32 94.1068 688.72 94.9602 693.627 97.4802C692.653 99.0268 691.707 100.587 690.747 102.133C687.467 100.627 682.84 99.5069 680.48 103.12C677.867 108.28 677.853 115.053 680.653 120.147C683.333 123.72 688.04 122.294 691.453 120.774C692.413 122.174 693.4 123.573 694.387 124.987C689.387 127.96 682.693 128.934 677.627 125.614C668.88 119.294 669.187 104.027 677.68 97.6402Z" fill="#FEFFFE"/>
<path d="M696.653 95.9999C702.667 95.9866 708.693 95.9999 714.72 95.9866C714.413 97.7733 714.12 99.56 713.84 101.36C710.333 101.333 706.827 101.333 703.333 101.333C703.32 103.547 703.333 105.773 703.347 108C706.227 108 709.107 107.987 712 107.987C711.987 109.88 711.987 111.773 712 113.653C709.107 113.667 706.227 113.667 703.333 113.68C703.333 116.227 703.333 118.773 703.347 121.333C707.227 121.333 711.107 121.333 714.987 121.32C714.987 123.2 714.987 125.093 715.013 127C708.893 127.013 702.773 127 696.667 127C696.653 116.667 696.68 106.333 696.653 95.9999Z" fill="#FEFFFE"/>
<path d="M591.027 101.173C593.307 101.573 596.24 100.707 597.92 102.747C598.867 104.533 598.987 106.8 598.067 108.627C596.627 111.12 593.333 110 591 110.493C590.987 107.387 591 104.28 591.027 101.173Z" fill="#09154B"/>
<path d="M618.72 101.254C622.013 99.3469 626.333 101.827 626.8 105.48C627.613 110.387 627.987 115.894 625.613 120.44C622.747 124.56 615.573 122.014 615.627 117.027C615.173 111.854 614.027 104.867 618.72 101.254Z" fill="#0A154B"/>
<path d="M321.773 135.72C381.693 174.173 441.56 212.707 501.733 250.733C513.947 259.307 523.307 271.147 534.907 280.48C557.413 299.933 585.56 313.187 615.347 315.933C611.293 321.52 607.32 327.173 603.373 332.827C565.133 326.147 530.667 305.453 502.107 279.8C500.467 278.4 498.253 278.067 496.293 277.413C449.12 264.213 403.04 247.267 358.093 227.827C343.693 220.973 333.347 207.48 328.027 192.68C321.467 174.533 320.04 154.84 321.773 135.72Z" fill="#FDCC17"/>
<path d="M801.213 250.653C861.267 212.573 921.16 174.213 980.92 135.667C982.947 158.213 980.907 182.013 970.307 202.373C964.667 213.133 955.893 222.453 944.84 227.707C899.653 247.387 853.213 264.293 805.747 277.627C800.08 278.693 796.72 283.72 792.387 287C765.627 309.04 734.213 326.68 699.76 332.787L699.133 332.493C695.293 326.907 691.28 321.427 687.387 315.893C716.373 313.333 743.853 300.64 766 282C778.44 272.32 788.2 259.613 801.213 250.653Z" fill="#FDCC17"/>
<path d="M529 155.667C532.547 155.667 536.093 155.667 539.653 155.667C539.653 158.88 539.653 162.107 539.667 165.333C543.773 165.333 547.88 165.333 552 165.333C551.987 167.88 551.987 170.44 552 173C550.907 172.987 548.72 172.987 547.627 172.987C549.307 177.68 550.053 183.013 547.453 187.533C543.32 195.987 530.693 198 524.093 191.307C518.893 186.76 518.32 179.04 521.027 172.987C519.333 172.987 517.667 172.987 516 173C515.987 170.44 515.987 167.893 516 165.333C520.333 165.333 524.667 165.32 529 165.333C529 162.107 529 158.88 529 155.667Z" fill="#FFFFFE"/>
<path d="M737.627 155.72C741.307 155.68 744.987 155.667 748.667 155.667C748.653 158.333 748.653 161 748.667 163.667C752.547 163.667 756.44 163.667 760.333 163.68C760.32 166.227 760.333 168.773 760.333 171.333C756.307 171.333 752.267 171.32 748.253 171.387C749.36 178.627 755.093 184.507 762.307 185.774C760.467 187.694 758.627 189.627 756.867 191.627C751.133 189.787 746.267 186 743.067 180.934C739.867 186.094 735.04 190.147 729.093 191.68C727.467 189.734 725.773 187.827 724.12 185.907C731.333 184.56 736.867 178.56 738.067 171.387C734.04 171.32 730.013 171.333 726 171.333C726 168.773 726 166.213 726 163.667C729.893 163.667 733.787 163.667 737.68 163.667C737.653 161.013 737.653 158.36 737.627 155.72Z" fill="white"/>
<path d="M554 156.667C557 156.667 559.987 156.667 563 156.667C563 163.333 563.013 170 563 176.653C564.547 176.667 566.093 176.667 567.653 176.68C567.667 170 567.653 163.333 567.667 156.667C570.667 156.667 573.667 156.667 576.667 156.667C576.653 178.787 576.68 200.893 576.653 223C573.653 223 570.667 223 567.667 223C567.653 210.227 567.667 197.44 567.667 184.667C566.507 184.667 564.173 184.667 563 184.667C563 197.44 563 210.213 563 223C560 223 557 223 554 223C554 200.893 554 178.773 554 156.667Z" fill="white"/>
<path d="M628.667 156.667C632.107 156.667 635.547 156.667 639 156.667C638.987 159.333 639 162 639 164.667C642.107 164.667 645.213 164.653 648.333 164.667C648.32 166.987 648.32 169.32 648.333 171.653C645.213 171.667 642.107 171.667 639 171.667C638.987 173.667 638.987 175.667 639 177.667C642.107 177.667 645.213 177.653 648.333 177.667C648.32 180 648.32 182.333 648.333 184.68C645.213 184.667 642.107 184.667 639 184.653C639 187.107 638.987 189.547 639 192C635.547 192 632.107 192 628.667 192C628.653 180.227 628.667 168.44 628.667 156.667Z" fill="white"/>
<path d="M701 156.667C704.44 156.667 707.88 156.667 711.333 156.667C711.333 168.667 711.333 180.667 711.333 192.667C707.893 192.667 704.453 192.667 701.013 192.68C701 190.227 700.987 187.773 700.987 185.32C696.773 185.333 692.547 185.333 688.347 185.333C688.32 183 688.32 180.667 688.32 178.333C692.547 178.333 696.773 178.333 701 178.333C701 177.173 701 174.84 701 173.667C696.72 173.667 692.44 173.667 688.173 173.653C684.267 183.693 675.16 191.84 664.307 193.267C662.707 191.28 661.027 189.36 659.413 187.387C669.32 185.747 679.107 178.187 678.933 167.36C672.96 167.32 666.973 167.333 661 167.347C661 164.773 661 162.213 661.013 159.667C670.56 159.56 680.107 160.227 689.667 160C689.667 162.107 689.653 164.227 689.667 166.333C693.44 166.333 697.213 166.333 701 166.333C701 163.107 701 159.893 701 156.667Z" fill="white"/>
<path d="M767 192.333C767 180.44 766.987 168.547 767 156.653C770.44 156.653 773.88 156.667 777.333 156.667C777.32 161.12 777.333 165.56 777.347 170C780.213 170 783.093 170 786 170C785.987 172.547 785.987 175.107 786 177.667C783.093 177.667 780.213 177.667 777.333 177.667C777.32 182.547 777.333 187.44 777.333 192.333C773.88 192.333 770.44 192.333 767 192.333Z" fill="white"/>
<path d="M597.667 160.547C606.813 156 619.933 161.293 621.547 171.853C623.52 181.427 614.44 190.48 605 189.733C596.627 190.147 588.28 182.96 588.6 174.36C588.307 168.387 592.387 162.96 597.667 160.547Z" fill="white"/>
<path d="M602.907 166.867C608.387 164.36 613.133 171.96 611.307 176.747C610.453 179.973 607.373 183.16 603.773 182.28C597.32 180.067 596.88 169.88 602.907 166.867Z" fill="#0A154A"/>
<path d="M534.32 188.72C528.747 185.72 527.8 176.706 533.107 173.026C536.92 172.026 538.893 176.52 539.04 179.613C539.467 183.373 537.453 186.773 534.32 188.72Z" fill="#0A154B"/>
<path d="M613.4 194.613C622.32 191.333 634.147 195.587 636.813 205.24C639.613 214.027 632.387 223.2 623.707 224.507C614.907 226.547 604.2 221.093 602.76 211.707C601.347 204.307 606.44 196.933 613.4 194.613Z" fill="white"/>
<path d="M685.507 195.094C694.853 191.267 707.48 196.974 708.867 207.427C710.347 216.56 701.987 224.613 693.173 224.8C684.587 225.693 675.16 219.293 674.947 210.213C674.307 203.44 679.24 197.174 685.507 195.094Z" fill="#FFFFFE"/>
<path d="M734.987 195.667C749.107 195.667 763.213 195.667 777.333 195.667C777.333 201.107 777.32 206.547 777.333 212C766.773 212 756.213 212 745.64 211.987C745.667 213.547 745.693 215.093 745.747 216.653C756.6 216.68 767.467 216.667 778.32 216.667C778.32 218.773 778.32 220.88 778.333 223C766.333 223 754.32 223.013 742.32 223.013C739.747 222.853 735.667 223.147 735.24 219.733C734.707 215.173 735.08 210.573 735.013 206C745.68 205.987 756.347 206.013 767.027 205.987C767.013 204.907 767 202.747 766.987 201.653C756.32 201.68 745.653 201.68 735 201.667C734.987 199.667 734.987 197.667 734.987 195.667Z" fill="white"/>
<path d="M617.413 201.587C621.627 199.44 626.48 203.44 626.933 207.72C627.987 212.534 623.773 218.4 618.547 217.267C611.533 215.587 611.093 204.48 617.413 201.587Z" fill="#0A154B"/>
<path d="M688.133 202.853C690.707 200.773 694.88 201.307 696.827 204C700.813 208.467 698.2 217.48 691.653 217.387C684.84 216.76 683.067 206.693 688.133 202.853Z" fill="#0A154B"/>
<path d="M358.48 235.427C401.067 252.44 444.293 268.04 488.453 280.48C492.933 281.92 498.147 282.173 501.64 285.707C510.973 294 521.067 301.387 531.467 308.28C494.693 309.973 457.88 308.467 421.147 306.453C403.307 306.04 385.6 297.507 374.787 283.187C364.293 269.573 359.573 252.373 358.48 235.427Z" fill="#FDCC17"/>
<path d="M813.987 280.547C858.213 268.12 901.507 252.52 944.147 235.427C943.2 253.787 937.587 272.573 925.2 286.533C914.387 298.653 898.4 305.92 882.2 306.413C845.32 308.453 808.347 309.947 771.427 308.32C781.773 301.16 792.067 293.853 801.427 285.413C804.76 282.12 809.747 281.987 813.987 280.547Z" fill="#FDCC17"/>
<path d="M637.973 249.867C646.893 247.013 655.773 251.347 664.307 253.507C669.053 254.8 673.907 253.44 678.48 252.107C678.173 255.36 678.893 259.16 676.56 261.867C675.093 263.84 672.467 264.16 670.36 265.067C670.147 278.307 670.427 291.933 675.067 304.493C679.24 313.973 685.453 322.373 691.653 330.613C678.573 322.387 663.107 317.773 647.6 318.693C634.707 319.227 622.227 323.64 611.32 330.413C618.44 320.293 626.48 310.507 630.667 298.693C633.653 291.427 634.227 283.493 634.053 275.72C629.04 273.72 623.76 271.573 618.253 272.533C617.88 273.44 617.12 275.253 616.747 276.16C615.373 273.133 613.173 269.853 614.36 266.413C615.147 263.493 618.213 261.88 621.053 261.693C626.667 261.013 632.053 263.093 637.387 264.587C641.507 261.267 646.667 259.933 651.8 259.147C644.64 257.133 637.093 256.2 629.867 258.44C631.827 255 633.867 251.067 637.973 249.867Z" fill="#FDCC17"/>
<path d="M420.427 312.347C458.84 313.933 497.307 314.693 535.72 312.68C538.373 312.373 540.573 314.08 542.8 315.253C548.227 318.44 553.76 321.427 559.413 324.2C533.053 333.733 505.907 341.24 478.227 345.733C466.133 347.72 453.12 346.107 442.613 339.493C432.293 333.387 425.04 323.24 420.427 312.347Z" fill="#FDCC17"/>
<path d="M743.413 324.16C750.747 320.773 757.52 316.32 764.76 312.8C803.907 314.427 843.133 314.08 882.293 312.387C877.013 325.24 867.507 336.88 854.533 342.453C844.507 346.907 833.133 347.36 822.453 345.387C795.52 340.827 769.04 333.587 743.413 324.16Z" fill="#FDCC17"/>
<path d="M642.947 324.44C658.72 322.453 675.147 326.227 688.413 335.027C703.867 344.987 714.88 361.52 718.173 379.6C721.853 398.547 716.72 418.933 704.693 434C694.08 447.507 678.213 456.853 661.16 459.253C642.507 462.133 622.76 456.573 608.24 444.533C592.933 432.093 583.467 412.72 583.293 392.973C582.947 376.533 589 360.12 599.72 347.68C610.587 334.947 626.333 326.507 642.947 324.44Z" fill="#FDCC17"/>
<path d="M475.733 351.787C506.053 346.28 536.12 338.493 564.48 326.28C569.893 328.467 575.387 330.493 580.987 332.187C565.693 345.307 549.227 357.533 530.493 365.28C519.253 369.813 506.44 372.853 494.613 368.72C486.28 365.987 479.507 359.64 475.733 351.787Z" fill="#FDCC17"/>
<path d="M721.84 332.24C727.4 330.413 732.92 328.44 738.36 326.28C766.68 338.587 796.8 346.267 827.107 351.827C823.067 359.653 816.293 366.293 807.707 368.827C794.013 373.373 779.44 368.734 766.88 362.934C750.387 355.107 735.627 344.12 721.84 332.24Z" fill="#FDCC17"/>
<path d="M648.12 332.013C650.56 329.8 655.253 331 655.88 334.413C656.88 337.56 653.533 341.187 650.28 340.28C646.453 339.8 645.36 334.347 648.12 332.013Z" fill="#0A154B"/>
<path d="M518.147 374.133C544.4 367.8 566.16 350.827 586.56 333.96C590.88 335.16 595.24 336.24 599.627 337.24C587.987 355.6 572.653 372.707 552.427 381.613C540.813 386.68 526.427 383.92 518.147 374.133Z" fill="#FDCC17"/>
<path d="M703.173 337.24C707.507 336.213 711.84 335.147 716.147 333.973C736.587 350.747 758.253 367.76 784.48 374.16C775.56 385.067 759.133 386.813 747.147 380.16C728.507 370.773 714.067 354.76 703.173 337.24Z" fill="#FDCC17"/>
<path d="M643.04 347.293C657.173 344.707 672.453 349.093 682.733 359.213C696.867 372.347 700.773 394.893 692.013 412.067C684.093 428.947 664.893 439.427 646.4 437.16C630.693 435.68 616.227 425.293 609.88 410.853C601.68 393.333 606.24 370.853 620.853 358.133C627.093 352.613 634.827 348.773 643.04 347.293Z" fill="#0C3F93"/>
<path d="M609.253 347.867C612.627 345.773 617.213 349.36 615.987 353.187C615.587 357.227 609.267 358.04 607.387 354.627C605.84 352.453 606.787 348.933 609.253 347.867Z" fill="#0A154B"/>
<path d="M688.173 348.333C691.147 345.467 696.68 348.92 695.667 352.867C695.427 356.507 690.373 357.947 687.84 355.653C685.547 353.867 685.813 349.947 688.173 348.333Z" fill="#0A154B"/>
<path d="M456.507 351.333C460.973 351.853 465.467 352.067 469.973 352.093C476.28 374.267 484.373 395.947 494.76 416.547C505.387 437.827 517.587 458.56 533.44 476.387C555.307 499.933 581.107 519.56 608.573 536.12C624.08 545.24 638.253 556.413 651.467 568.573C661.32 559.253 671.893 550.68 683.16 543.107C690.627 538.04 698.52 533.64 706.067 528.68C729.92 513.187 752.293 495.173 771.373 474C787.827 454.813 800.28 432.587 811.173 409.88C820.16 391.307 827.08 371.827 832.827 352.027C837.307 352.093 841.787 351.853 846.24 351.28C840.213 379 828.707 405.213 815.813 430.373C803.68 453.213 789.733 475.547 770.947 493.56C754.013 510.667 734.893 525.507 714.827 538.747C705.2 545.173 694.987 550.68 685.573 557.413C673.307 566.16 661.867 576.053 651.347 586.827C636.573 571.52 619.8 558.12 601.507 547.267C576.453 532.173 552.84 514.547 532.067 493.933C512.187 474.707 497.493 450.893 484.893 426.467C472.893 402.52 462.213 377.6 456.507 351.333Z" fill="#FDCC17"/>
<path d="M649.6 353.72C660.92 351.36 673.227 355.08 681.4 363.253C690.453 372.347 694.427 386.04 692 398.613C689.987 409.213 683.56 419.16 674.267 424.787C680.747 417.973 685.68 409.307 686.133 399.733C687.293 386.68 681.373 371.72 668.56 366.573C659.587 362.573 646.987 367.067 644.6 377.107C643.04 382.733 646.733 387.773 650.627 391.387L651.52 392.307C650.56 398.2 647.253 404.533 640.853 405.707C629.56 408.12 619.333 397.227 619.72 386.293C619.653 369.853 634.253 356.72 649.6 353.72Z" fill="#DF002F"/>
<path d="M644.6 377.107C646.987 367.067 659.587 362.573 668.56 366.573C681.373 371.72 687.293 386.68 686.133 399.733C685.68 409.307 680.747 417.973 674.267 424.787C660.547 437.453 637.467 435.627 624.133 423.267C616.6 416.707 612.44 407.147 610.773 397.467C613.707 405.76 618.507 413.667 626.093 418.467C637.027 426.027 653.027 428.467 664.187 420.107C672.347 414.347 675.373 401.427 668.467 393.6C663.987 388.507 656.347 388.76 650.627 391.387C646.733 387.773 643.04 382.733 644.6 377.107Z" fill="#FDCC17"/>
<path d="M546.667 389.827C559.667 385.854 571.307 378.347 581.133 369.04C578.467 377.574 577.347 386.507 577.613 395.44C567.04 397.573 555.627 396.067 546.667 389.827Z" fill="#FDCC17"/>
<path d="M721.413 368.907C731.293 378.253 742.987 385.773 756.013 389.88C747.053 396.133 735.653 397.533 725.093 395.467C725.2 386.48 724.133 377.48 721.413 368.907Z" fill="#FDCC17"/>
<path d="M592.12 388.027C594.853 385.933 599.813 387.92 599.72 391.613C600.093 395.12 595.707 398.053 592.707 396.027C589.667 394.547 589.453 389.987 592.12 388.027Z" fill="#0A154B"/>
<path d="M704.347 388.347C706.627 386.173 711.293 387.213 712.067 390.493C713.48 394.12 709.107 398.12 705.64 396.28C702.467 395.133 701.773 390.48 704.347 388.347Z" fill="#0A154B"/>
<path d="M542.373 395.987C553.36 401.373 566 402.907 577.987 400.493C579.667 414.16 585.173 427.2 593.627 438.053C585.013 446.933 573.227 452.547 560.987 453.96C558.787 454.507 557.653 451.933 556.773 450.427C548.893 433.267 544.453 414.707 542.373 395.987Z" fill="#FDCC17"/>
<path d="M724.547 400.467C736.587 402.88 749.36 401.467 760.373 395.92C758.253 414.573 753.92 433.107 746.067 450.213C745.173 452.2 743.533 454.68 741 453.907C728.987 452.253 717.493 446.68 709 437.973C717.44 427.147 722.947 414.12 724.547 400.467Z" fill="#FDCC17"/>
<path d="M608.187 428.253C610.76 425.307 616.813 427.587 616.027 431.667C616.653 434.773 613.013 437.093 610.24 436.227C606.76 435.613 605.4 430.52 608.187 428.253Z" fill="#0A154B"/>
<path d="M688.053 427.907C692.933 423.893 698.853 431.8 694 435.507C689.173 439.373 683.147 431.56 688.053 427.907Z" fill="#0A154B"/>
<path d="M561.32 460C574.747 457.867 587.68 451.92 597.2 442.093C604.12 449.493 612.52 455.4 621.747 459.56C618.44 471.613 614.333 483.627 607.693 494.293C605.053 498.32 602.213 502.427 598.2 505.187C596.293 505.853 594.827 504.2 593.56 503.107C580.76 490.44 569.907 475.84 561.32 460Z" fill="#FDCC17"/>
<path d="M680.947 459.56C690.147 455.36 698.467 449.427 705.467 442.12C715.133 451.787 727.947 457.974 741.453 459.934C734.813 472.027 727.053 483.534 717.867 493.827C713.973 498.174 710.147 502.694 705.227 505.934C691.4 494.36 685.907 476.227 680.947 459.56Z" fill="#FDCC17"/>
<path d="M646.213 446.227C648.28 444.933 650.32 442.373 652.973 443.8C657.68 445.027 656.52 453 651.653 452.893C647.76 453.413 646.453 449.293 646.213 446.227Z" fill="#0A154B"/>
<path d="M627.84 461.947C633.36 463.573 638.987 464.76 644.707 465.507C644.04 489.56 644.8 513.747 642.027 537.693C627.6 530.813 614.453 521.52 602.267 511.253C616.16 498.28 622.293 479.587 627.84 461.947Z" fill="#FDCC17"/>
<path d="M658.387 465.4C663.973 464.68 669.507 463.547 674.893 461.853C680.467 479.52 686.533 498.267 700.48 511.24C688.267 521.427 675.267 530.907 660.747 537.56C658 513.627 658.387 489.453 658.387 465.4Z" fill="#FDCC17"/>
<path d="M169.333 677.32C176.787 677.333 184.227 677.333 191.667 677.333C191.667 684.227 191.653 691.12 191.68 698.013C200.453 698 209.227 698 218 698.013C217.987 703.12 217.987 708.227 218 713.347C214.613 713.333 211.24 713.307 207.853 713.24C210.52 718.52 212.64 724.293 212.387 730.307C212.6 742.88 204.24 754.853 192.627 759.467C184.147 762.893 174.147 762.493 166.04 758.24C155.827 753.013 148.84 741.96 148.947 730.427C148.667 724.4 150.733 718.613 153.4 713.32C149.6 713.32 145.8 713.32 142 713.333C142 708.213 142 703.107 142 698C151.107 698 160.227 698 169.333 698C169.333 691.107 169.32 684.213 169.333 677.32Z" fill="#0A154B"/>
<path d="M622.667 677.333C630.107 677.333 637.547 677.32 644.987 677.333C645 684.333 645 691.333 645 698.333C653.773 698.333 662.56 698.32 671.333 698.333C671.333 703.333 671.333 708.333 671.333 713.347C667.907 713.333 664.467 713.32 661.053 713.24C664.64 720.053 666.747 727.947 665.12 735.64C662.973 748.88 651.48 759.827 638.147 761.347C623.48 763.707 608.053 753.987 603.853 739.747C600.853 731.013 602.4 721.32 606.72 713.32C602.92 713.333 599.12 713.333 595.333 713.333C595.333 708.333 595.333 703.333 595.333 698.333C604.44 698.333 613.56 698.333 622.667 698.333C622.667 691.333 622.653 684.333 622.667 677.333Z" fill="#0A154B"/>
<path d="M1069 677.333C1076.56 677.333 1084.11 677.333 1091.67 677.333C1091.65 683 1091.67 688.667 1091.67 694.333C1100 694.32 1108.33 694.32 1116.68 694.347C1116.65 699.453 1116.65 704.56 1116.67 709.667C1108.25 709.653 1099.84 709.653 1091.44 709.68C1091.93 725.387 1105.33 740.013 1121.2 740.933C1117.21 744.88 1113.48 749.067 1109.76 753.267C1097.12 750.133 1086.92 740.973 1080.07 730.187C1073.51 741.387 1062.99 750.92 1049.83 753.093C1046.52 749.12 1043.13 745.213 1039.47 741.6C1055.13 739.867 1068.61 725.547 1068.87 709.693C1060.47 709.64 1052.07 709.667 1043.67 709.667C1043.67 704.547 1043.67 699.44 1043.67 694.333C1052.11 694.333 1060.55 694.333 1069 694.333C1069 688.667 1068.99 682.987 1069 677.333Z" fill="#0A154B"/>
<path d="M1217.33 677.333C1224.77 677.333 1232.21 677.333 1239.67 677.333C1239.67 682.987 1239.65 688.667 1239.67 694.333C1247.21 694.333 1254.77 694.333 1262.33 694.333C1262.33 699.44 1262.32 704.547 1262.33 709.667C1254.81 709.667 1247.29 709.627 1239.79 709.693C1239.95 724.413 1251.76 736.493 1264.81 741.627C1261.49 745.373 1258.33 749.267 1255.16 753.147C1243.56 749.56 1234.24 740.627 1228.61 730.04C1222 741.107 1212.59 751.707 1199.35 754.293C1196.09 749.933 1192.71 745.667 1189.09 741.613C1204.39 739.173 1215.96 724.76 1217.25 709.68C1209.28 709.64 1201.31 709.667 1193.33 709.68C1193.32 704.56 1193.33 699.44 1193.33 694.333C1201.33 694.333 1209.33 694.333 1217.33 694.333C1217.33 688.653 1217.32 683 1217.33 677.333Z" fill="#0A154B"/>
<path d="M84.6667 679.667C91.8933 679.667 99.12 679.667 106.333 679.667C106.333 689 106.347 698.333 106.333 707.667C113 707.667 119.667 707.667 126.333 707.667C126.333 713 126.333 718.333 126.333 723.667C119.667 723.667 113 723.667 106.333 723.667C106.333 734.787 106.32 745.893 106.347 757.013C99.12 757 91.8933 757 84.6667 757C84.6667 752.493 84.6533 748 84.68 743.507C75.7467 746.213 66.3467 746.227 57.0933 746.347C44.6 746.307 32.1067 746.347 19.6133 746.347C14.5867 746.227 8.92 745.893 5.05333 742.24C1.13333 738.507 0.479999 732.787 0.333332 727.68C0.319999 713.667 0.346665 699.667 0.333332 685.667C7.56 685.667 14.7867 685.653 22 685.667C21.9867 700.773 22 715.88 22 731C35.4533 731.013 48.92 730.987 62.3867 731.013C69.8933 731.067 77.4933 730.493 84.6667 728.147C84.68 711.987 84.6667 695.827 84.6667 679.667Z" fill="#0A154B"/>
<path d="M223.667 679.667C229.893 679.667 236.107 679.667 242.333 679.653C242.333 693.88 242.32 708.107 242.347 722.333C245.787 722.32 249.227 722.32 252.667 722.333C252.667 708.107 252.68 693.88 252.667 679.667C259 679.667 265.333 679.667 271.667 679.667C271.653 726.773 271.68 773.893 271.667 821C265.333 820.987 259 821 252.667 821C252.667 793.56 252.667 766.107 252.667 738.653C249.227 738.653 245.773 738.667 242.333 738.667C242.333 766.107 242.333 793.56 242.333 821C236.107 820.987 229.893 821 223.667 821C223.653 773.88 223.667 726.773 223.667 679.667Z" fill="#0A154B"/>
<path d="M397.333 679.667C404.56 679.653 411.773 679.667 419 679.667C419 726.773 419 773.893 419 821C411.773 820.987 404.547 821.013 397.333 821C397.347 773.893 397.32 726.773 397.333 679.667Z" fill="#0A154B"/>
<path d="M534 679.667C541.227 679.667 548.453 679.667 555.68 679.667C555.667 688.44 555.653 697.227 555.68 706C562.333 706 569 705.987 575.667 706C575.667 711.44 575.667 716.893 575.667 722.333C569 722.333 562.333 722.32 555.667 722.333C555.653 733.227 555.68 744.107 555.653 755C548.44 754.987 541.213 755 534 755C534.013 729.88 534 704.773 534 679.667Z" fill="#0A154B"/>
<path d="M676.667 679.667C682.893 679.653 689.107 679.653 695.333 679.667C695.333 693.893 695.333 708.107 695.333 722.333C698.76 722.32 702.213 722.32 705.667 722.333C705.68 708.107 705.667 693.893 705.667 679.667C712 679.667 718.333 679.653 724.667 679.667C724.667 726.667 724.667 773.667 724.667 820.667C718.32 820.667 711.987 820.667 705.653 820.653C705.693 793.213 705.653 765.773 705.667 738.347C702.213 738.333 698.773 738.333 695.333 738.333C695.333 765.787 695.333 793.227 695.333 820.68C689.107 820.667 682.88 820.653 676.667 820.68C676.667 773.667 676.667 726.667 676.667 679.667Z" fill="#0A154B"/>
<path d="M836.667 679.667C843.893 679.653 851.107 679.667 858.333 679.667C858.333 685.227 858.32 690.787 858.347 696.347C865.013 696.32 871.667 696.333 878.333 696.333C878.32 701.213 878.32 706.107 878.333 711C871.667 710.987 865 711 858.347 710.987C858.32 715.32 858.333 719.653 858.333 724C865 724 871.653 724 878.32 724C878.333 728.88 878.333 733.773 878.347 738.667C871.667 738.653 865 738.667 858.333 738.653C858.333 743.987 858.333 749.32 858.333 754.667C851.107 754.667 843.88 754.653 836.667 754.667C836.68 729.667 836.667 704.667 836.667 679.667Z" fill="#0A154B"/>
<path d="M989.667 679.667C996.88 679.667 1004.11 679.653 1011.35 679.68C1011.32 705 1011.33 730.333 1011.33 755.667C1004.11 755.667 996.88 755.667 989.653 755.667C989.667 750.547 989.667 745.44 989.667 740.333C980.667 740.333 971.667 740.32 962.667 740.333C962.667 735.44 962.667 730.547 962.667 725.667C971.667 725.68 980.667 725.667 989.667 725.667C989.653 722.107 989.653 718.56 989.667 715.013C980.293 715.013 970.933 714.933 961.573 715.067C956.133 731.36 943.333 744.547 928.027 752C922.64 754.68 916.693 755.987 910.72 756.48C907.547 752.507 904.28 748.613 900.827 744.88C915.2 742.64 929.227 734.973 937.147 722.507C941.16 716.24 942.2 708.64 942.08 701.347C929.6 701.307 917.133 701.333 904.667 701.333C904.667 696.213 904.667 691.107 904.667 686.013C924.787 685.733 944.893 686.467 965.013 686.333C965.013 691 965.053 695.667 964.72 700.333C973.04 700.333 981.347 700.333 989.667 700.333C989.667 693.44 989.667 686.547 989.667 679.667Z" fill="#0A154B"/>
<path d="M1131.99 679.667C1139.21 679.667 1146.44 679.667 1153.67 679.667C1153.67 688.987 1153.65 698.32 1153.67 707.667C1159.65 707.667 1165.65 707.667 1171.67 707.667C1171.67 712.987 1171.67 718.333 1171.67 723.667C1165.65 723.667 1159.65 723.653 1153.67 723.667C1153.67 734.107 1153.65 744.547 1153.67 755C1146.44 755 1139.23 754.987 1132.01 755C1131.99 729.893 1132.01 704.787 1131.99 679.667Z" fill="#0A154B"/>
<path d="M1280.67 679.667C1287.89 679.667 1295.11 679.667 1302.35 679.667C1302.32 704.773 1302.35 729.88 1302.32 755C1295.09 754.987 1287.88 755 1280.67 754.987C1280.68 744.987 1280.67 735 1280.67 725C1275.77 725 1270.88 725 1266 725C1266 719.667 1265.99 714.333 1266 709C1270.88 709 1275.77 709 1280.67 709C1280.67 699.213 1280.67 689.44 1280.67 679.667Z" fill="#0A154B"/>
<path d="M493.667 684.333C500.56 684.333 507.44 684.333 514.333 684.333C514.32 702.333 514.347 720.347 514.333 738.347C514.427 741.8 513.173 745.573 510.147 747.533C507.147 749.693 503.253 749.293 499.76 749.36C485.48 749.253 471.187 749.427 456.907 749.293C451.64 749.453 446.973 744.893 447.067 739.613C446.893 721.627 447.067 703.653 447 685.667C454 685.667 461 685.667 468 685.667C467.987 691.333 468 697 468 702.667C476.547 702.667 485.107 702.667 493.667 702.667C493.667 696.547 493.667 690.44 493.667 684.333Z" fill="#0A154B"/>
<path d="M774.947 685.907C790.48 681.014 809.28 687.32 817.36 701.787C823.947 712.92 822.253 728.107 813.507 737.627C801.48 751.88 778.08 753.787 763.52 742.387C754.267 735.454 748.987 723.414 751.053 711.92C752.987 699.494 763.08 689.36 774.947 685.907Z" fill="#0A154B"/>
<path d="M305 685.667C328.44 685.667 351.88 685.68 375.32 685.653C375.333 690.76 375.333 695.88 375.333 701C367.667 701 360 700.987 352.333 701C352.507 713.6 350.96 726.827 356.533 738.6C362.24 750.96 371.813 763.12 385.52 766.787C380.88 770.827 376.56 775.227 372.04 779.413C358.72 773.387 347.787 762.6 341.667 749.32C341.16 749.173 340.147 748.867 339.64 748.707C333.013 762.133 322.68 774.52 308.107 779.547C303.693 775.373 299.28 771.2 294.72 767.2C308.147 763.467 317.693 751.893 323.747 739.893C329.827 727.827 328.613 714.053 328.68 701.013C320.787 700.987 312.893 701 304.987 701C305 695.88 305 690.773 305 685.667Z" fill="#0A154B"/>
<path d="M781.6 700.347C790.093 696.613 798.467 704.973 799.84 712.973C802.587 723.053 794.107 737.387 782.52 734.147C768.533 728.973 767.973 706.307 781.6 700.347Z" fill="white"/>
<path d="M178.92 713.733C183.28 712.413 187.133 716.08 188.893 719.72C192.227 726.813 192.013 735.68 187.84 742.387C185.76 745.733 181.16 748.52 177.44 745.96C171.72 742.573 170.267 735.093 170.32 728.96C170.627 723.093 172.733 715.787 178.92 713.733Z" fill="white"/>
<path d="M630.6 714.373C634.413 711.987 639.16 714.547 641.2 718.067C645.693 725.6 645.56 735.933 640.453 743.133C638.293 746.48 633.36 747.987 630.027 745.453C624.973 741.693 623.52 734.933 623.64 728.973C623.867 723.52 625.627 717.333 630.6 714.373Z" fill="white"/>
<path d="M468 718.347C476.547 718.32 485.107 718.333 493.667 718.333C493.413 723.227 494.36 728.28 493.04 733.067C490.133 734.493 486.787 733.88 483.68 734.027C478.6 733.813 473.44 734.52 468.427 733.467C467.507 728.48 468.16 723.373 468 718.347Z" fill="white"/>
<path d="M504.227 759.173C521.32 754.6 542 763.12 548.36 780.213C553.12 791.933 549.04 805.987 539.547 814.107C525 827.093 500.373 826.707 486.707 812.6C478.307 804.64 475.307 791.733 479.173 780.853C482.987 769.893 493.053 761.76 504.227 759.173Z" fill="#0A154B"/>
<path d="M809.6 759.24C821.08 756.893 833.72 759.613 842.787 767.16C850.413 773.32 855.333 783.067 854.707 792.987C854.573 802.32 849.573 811.187 842.227 816.813C827.64 828.373 804.707 827.747 791.093 814.92C782.707 807.373 778.64 795.133 781.707 784.16C784.987 771.253 796.76 761.68 809.6 759.24Z" fill="#0A154B"/>
<path d="M961.667 759.16C972.587 756.813 984.547 759.093 993.52 765.867C1001.52 771.787 1006.88 781.587 1006.39 791.68C1006.44 801.667 1000.75 811.16 992.653 816.8C978.413 827.067 957 825.933 944.173 813.827C936.04 806.4 931.987 794.507 934.867 783.747C937.96 771.187 949.213 761.72 961.667 759.16Z" fill="#0A154B"/>
<path d="M1249.6 759.187C1259.27 757.133 1269.77 758.493 1278.28 763.667C1286.81 768.613 1293.24 777.507 1294.32 787.413C1295.61 797.133 1291.63 807.187 1284.44 813.76C1270.28 827.307 1245.35 827.093 1231.56 813.133C1224.08 806.013 1220.4 795.04 1222.64 784.893C1225.28 771.853 1236.81 761.827 1249.6 759.187Z" fill="#0A154B"/>
<path d="M1063 763C1093.21 763 1123.44 763 1153.67 763C1153.6 774.52 1153.79 786.04 1153.55 797.547C1130.69 797.813 1107.83 797.587 1084.96 797.667C1084.91 801.133 1084.92 804.627 1085.76 808.027C1108.95 807.96 1132.13 808.027 1155.33 808C1155.32 812.213 1155.33 816.44 1155.33 820.667C1127.45 820.627 1099.57 820.72 1071.71 820.627C1067.36 820.76 1063.53 817.293 1063.37 812.933C1062.51 803.773 1063.24 794.533 1063 785.347C1085.88 785.32 1108.77 785.347 1131.67 785.333C1131.65 782.107 1131.65 778.88 1131.67 775.667C1108.77 775.667 1085.88 775.653 1063 775.667C1063 771.44 1063 767.213 1063 763Z" fill="#0A154B"/>
<path d="M17.6533 765.347C47.2267 765.173 76.7867 765.467 106.347 765.667C106.227 780.16 106.52 794.68 106.213 809.173C106.453 815.533 100.92 821.533 94.4 821C72.5733 820.987 50.7467 821.027 28.92 820.987C22.52 821.253 17.4667 815.227 17.72 809.04C17.5733 794.48 17.7333 779.907 17.6533 765.347Z" fill="#0A154B"/>
<path d="M508.08 774.84C517.107 770.253 527.587 778.16 528.627 787.493C531.2 797.907 521.893 810.8 510.533 807.773C496.253 803.893 495.013 781.08 508.08 774.84Z" fill="white"/>
<path d="M813.347 774.653C820.693 771.947 828.893 776.693 831.64 783.707C836.173 793.16 831.573 806.613 820.973 809.373C813 811.44 805.147 805.253 803.227 797.693C800.44 789.04 804.347 777.827 813.347 774.653Z" fill="white"/>
<path d="M965.333 774.707C975.227 770.413 985.52 780.4 985.053 790.28C986.213 800.213 976.733 811.133 966.36 807.76C952.333 803.24 951.72 780.16 965.333 774.707Z" fill="white"/>
<path d="M1253.37 774.693C1262.27 770.773 1271.88 778.667 1272.93 787.573C1275.31 797.693 1266.89 810.44 1255.65 808.08C1240.59 804.733 1239.39 780.32 1253.37 774.693Z" fill="white"/>
<path d="M39.6667 779.667C54.56 779.667 69.4533 779.653 84.3467 779.68C84.32 788.667 84.36 797.667 84.32 806.667C69.44 806.667 54.56 806.667 39.68 806.667C39.6533 797.667 39.6667 788.667 39.6667 779.667Z" fill="white"/>
</g>
<defs>
<clipPath id="clip0_1_18922">
<rect width="1302" height="825" fill="white"/>
</clipPath>
</defs>
</svg>
