<svg width="999" height="255" viewBox="0 0 999 255" fill="none" xmlns="http://www.w3.org/2000/svg">
<g clip-path="url(#clip0_1_18804)">
<path d="M-0.167999 254.509H190.989L254.709 190.789L-0.167999 254.509Z" fill="url(#paint0_linear_1_18804)"/>
<path d="M-0.167999 -0.368324V63.3503L190.989 -0.368324H-0.167999Z" fill="url(#paint1_linear_1_18804)"/>
<path d="M169.749 148.311L254.709 63.3505L190.989 -0.368118L-0.167999 63.3505L169.749 148.311Z" fill="url(#paint2_linear_1_18804)"/>
<path d="M-0.167999 63.3504V254.509L254.709 190.789L-0.167999 63.3504Z" fill="url(#paint3_linear_1_18804)"/>
<mask id="mask0_1_18804" style="mask-type:luminance" maskUnits="userSpaceOnUse" x="-62" y="-53" width="1123" height="361">
<path d="M-62 -53.0002H1060.52V307.141H-62V-53.0002Z" fill="white"/>
</mask>
<g mask="url(#mask0_1_18804)">
<mask id="mask1_1_18804" style="mask-type:luminance" maskUnits="userSpaceOnUse" x="-1" y="-1" width="256" height="150">
<path d="M-0.168137 -0.368118H254.709V148.311H-0.168137V-0.368118Z" fill="white"/>
</mask>
<g mask="url(#mask1_1_18804)">
<mask id="mask2_1_18804" style="mask-type:luminance" maskUnits="userSpaceOnUse" x="-1" y="-1" width="256" height="150">
<path d="M190.989 -0.368118L-0.167999 63.3505L169.749 148.311L254.709 63.3505L190.989 -0.368118Z" fill="white"/>
</mask>
<g mask="url(#mask2_1_18804)">
<mask id="mask3_1_18804" style="mask-type:luminance" maskUnits="userSpaceOnUse" x="-43753" y="-43383" width="87381" height="87381">
<path d="M-43752.7 -43382.2H43627.3V43997.8H-43752.7V-43382.2Z" fill="url(#paint4_linear_1_18804)"/>
</mask>
<g mask="url(#mask3_1_18804)">
<path d="M190.989 -0.365189L-0.167969 63.3535L169.749 148.313L254.709 63.3535L190.989 -0.365189Z" fill="url(#paint5_linear_1_18804)"/>
</g>
</g>
</g>
</g>
<path d="M330.641 87.9239H392.953V106.396H330.641V87.9239ZM410.832 121.779V50.5452H392.953V72.3866H330.641V50.5452H312.763V111.747L322.795 121.779H410.832Z" fill="#5B5758"/>
<path d="M291.7 150.329H352.858V190.008H370.736V150.329H431.27V134.79H291.7V150.329Z" fill="#5B5758"/>
<path d="M556.544 50.5447H538.821V154.698H556.544V102.434H577.137V86.8953H556.544V50.5447Z" fill="#5B5758"/>
<path d="M479.317 141.863H461.439V179.975L471.472 190.009H559.664V174.47H479.317V141.863Z" fill="#5B5758"/>
<path d="M707.466 50.5446H689.743V111.805H636.983V84.5539H619.105V111.805H587.449V127.187H689.743V134.947H707.466V99.1566H728.059V83.6193H707.466V50.5446Z" fill="#5B5758"/>
<path d="M757.081 140.095V155.634H842.265V190.008H860.144V150.128L850.111 140.095H757.081Z" fill="#5B5758"/>
<path d="M980.951 190.008H998.673V50.5438H980.951V190.008Z" fill="#5B5758"/>
<path d="M656.394 105.239H674.116V65.7265L664.083 55.6932H596.23V71.0759H656.394V105.239Z" fill="#5B5758"/>
<mask id="mask4_1_18804" style="mask-type:luminance" maskUnits="userSpaceOnUse" x="-62" y="-53" width="1123" height="361">
<path d="M-62 -53.0002H1060.52V307.141H-62V-53.0002Z" fill="white"/>
</mask>
<g mask="url(#mask4_1_18804)">
<path d="M657.53 177.906C635.735 177.875 622.647 173.205 622.672 164.451C622.696 155.706 635.802 151.063 657.604 151.094C679.399 151.125 692.486 155.797 692.462 164.549C692.438 173.294 679.332 177.937 657.53 177.906ZM657.623 135.795C624.594 135.73 604.739 145.67 604.703 164.397C604.666 183.138 624.492 193.141 657.511 193.205C690.54 193.27 710.394 183.33 710.431 164.603C710.468 145.862 690.642 135.859 657.623 135.795Z" fill="#5B5758"/>
<path d="M757.719 91.0064C757.719 78.2144 766.735 68.8584 779.029 68.8584C791.322 68.8584 800.337 78.2144 800.337 91.0064C800.337 103.798 791.322 113.154 779.029 113.154C766.735 113.154 757.719 103.798 757.719 91.0064ZM842.421 81.9957V99.2197H817.202C817.735 96.5957 818.018 93.8517 818.018 91.0064C818.018 87.8704 817.67 84.8597 817.026 81.9957H842.421ZM810.423 114.29H842.421V135.321H860.143V50.5437H842.421V66.925H809.789C802.813 58.3184 791.907 53.0571 779.029 53.0571C756.534 53.0571 740.038 69.0877 740.038 91.0064C740.038 112.925 756.534 128.956 779.029 128.956C792.302 128.956 803.483 123.37 810.423 114.29Z" fill="#5B5758"/>
<path d="M931.827 53.4449H913.071V109.286L873.833 153.458L887.317 165.436L922.418 125.921L957.518 165.436L971.002 153.458L931.827 109.357V53.4449Z" fill="#5B5758"/>
<path d="M522.21 132.651L533.922 118.936L494.343 85.1373V53.4453H475.587V85.1373L436.01 118.936L447.721 132.651L484.966 100.845L522.21 132.651Z" fill="#5B5758"/>
<path d="M325.762 248.633L327.958 246.435V241.429L325.762 239.231H312.478V248.633H325.762ZM324.535 233.662L326.375 231.823V226.306L324.587 224.518H312.478V233.662H324.535ZM305.682 218.693H328.112L333.22 223.802V233.815L331.178 235.91L334.804 239.589V248.939L329.287 254.457H305.682V218.693Z" fill="#5B5758"/>
<path d="M340.425 248.326V218.693H347.374V245.925L349.978 248.53H359.993L362.599 245.925V218.693H369.547V248.326L363.417 254.457H346.557L340.425 248.326Z" fill="#5B5758"/>
<path d="M375.935 248.939V243.83H382.781V246.845L384.465 248.53H395.043L396.78 246.793V240.867L395.093 239.181H381.555L376.036 233.662V224.21L381.555 218.693H397.7L403.216 224.21V229.371H396.371V226.306L394.685 224.619H384.569L382.883 226.306V231.567L384.569 233.254H398.108L403.627 238.771V248.837L398.007 254.457H381.452L375.935 248.939Z" fill="#5B5758"/>
<path d="M426.669 240.815L421.917 227.225H421.815L417.217 240.815H426.669ZM418.749 218.693H425.084L438.164 254.457H431.113L428.201 246.538H415.632L412.721 254.457H405.669L418.749 218.693Z" fill="#5B5758"/>
<path d="M442.25 218.692H448.484L464.425 242.962H464.526V218.692H471.221V254.458H464.988L449.046 230.239H448.944V254.458H442.25V218.692Z" fill="#5B5758"/>
<path d="M492.78 218.692H499.219L509.846 241.787H509.947L520.626 218.692H527.064V254.458H520.371V232.692H520.268L512.043 249.45H507.751L499.576 232.692H499.474V254.458H492.78V218.692Z" fill="#5B5758"/>
<path d="M534.215 218.692H560.067V224.568H541.165V233.612H558.586V239.386H541.165V248.582H560.067V254.458H534.215V218.692Z" fill="#5B5758"/>
<path d="M573.811 224.568H563.133V218.692H591.438V224.568H580.759V254.458H573.811V224.568Z" fill="#5B5758"/>
<path d="M602.985 235.042H615.297L617.086 233.254V226.306L615.297 224.518H602.985V235.042ZM624.137 242.603V254.456H617.187V244.187L614.122 240.764H602.985V254.456H596.035V218.692H618.466L623.931 224.21V235.042L620.457 238.567L624.137 242.603Z" fill="#5B5758"/>
<path d="M651.114 248.53L653.718 245.925V227.225L651.114 224.619H640.078L637.472 227.225V245.925L640.078 248.53H651.114ZM630.523 248.581V224.567L636.399 218.693H654.792L660.668 224.567V248.581L654.792 254.457H636.399L630.523 248.581Z" fill="#5B5758"/>
<path d="M686.571 236.473L688.359 234.685V226.306L686.571 224.518H674.259V236.473H686.571ZM667.31 218.693H689.739L695.206 224.21V236.729L689.687 242.297H674.259V254.457H667.31V218.693Z" fill="#5B5758"/>
<path d="M720.904 248.53L723.508 245.925V227.225L720.904 224.619H709.868L707.263 227.225V245.925L709.868 248.53H720.904ZM700.314 248.581V224.567L706.19 218.693H724.582L730.458 224.567V248.581L724.582 254.457H706.19L700.314 248.581Z" fill="#5B5758"/>
<path d="M737.1 218.692H744.049V248.582H761.932V254.458H737.1V218.692Z" fill="#5B5758"/>
<path d="M766.529 218.692H773.477V254.457H766.529V218.692Z" fill="#5B5758"/>
<path d="M789.01 224.568H778.331V218.692H806.637V224.568H795.958V254.458H789.01V224.568Z" fill="#5B5758"/>
<path d="M824.571 240.815L819.819 227.225H819.716L815.119 240.815H824.571ZM816.651 218.693H822.985L836.065 254.457H829.015L826.103 246.538H813.533L810.623 254.457H803.571L816.651 218.693Z" fill="#5B5758"/>
<path d="M840.151 218.692H846.385L862.326 242.962H862.427V218.692H869.122V254.458H862.889L846.947 230.239H846.845V254.458H840.151V218.692Z" fill="#5B5758"/>
<path d="M890.168 248.581V224.568L896.044 218.692H913.518L919.291 224.466V229.933H912.343V227.02L909.942 224.62H899.724L897.118 227.225V245.925L899.724 248.53H909.942L912.343 246.129V243.217H919.291V248.684L913.518 254.457H896.044L890.168 248.581Z" fill="#5B5758"/>
<path d="M924.913 218.692H931.861V254.457H924.913V218.692Z" fill="#5B5758"/>
<path d="M947.392 224.568H936.714V218.692H965.019V224.568H954.34V254.458H947.392V224.568Z" fill="#5B5758"/>
<path d="M979.018 239.845L966.295 218.693H973.908L982.44 233.355H982.543L991.075 218.693H998.688L985.966 239.845V254.457H979.018V239.845Z" fill="#5B5758"/>
</g>
</g>
<defs>
<linearGradient id="paint0_linear_1_18804" x1="7.00084" y1="276.766" x2="258.431" y2="213.468" gradientUnits="userSpaceOnUse">
<stop stop-color="#008ACD"/>
<stop offset="0.25" stop-color="#008ACD"/>
<stop offset="0.8" stop-color="#6A3085"/>
<stop offset="0.849379" stop-color="#6A3085"/>
<stop offset="1" stop-color="#6A3085"/>
</linearGradient>
<linearGradient id="paint1_linear_1_18804" x1="-9.34847" y1="34.5176" x2="181.598" y2="-28.4279" gradientUnits="userSpaceOnUse">
<stop stop-color="#E60C80"/>
<stop offset="0.2" stop-color="#E60C80"/>
<stop offset="0.871386" stop-color="#6A3085"/>
<stop offset="0.9" stop-color="#6A3085"/>
<stop offset="1" stop-color="#6A3085"/>
</linearGradient>
<linearGradient id="paint2_linear_1_18804" x1="1.03584" y1="73.9709" x2="254.576" y2="73.9709" gradientUnits="userSpaceOnUse">
<stop stop-color="#ED72A8"/>
<stop offset="0.1" stop-color="#ED72A8"/>
<stop offset="0.72991" stop-color="#E60C80"/>
<stop offset="0.8" stop-color="#E60C80"/>
<stop offset="1" stop-color="#E60C80"/>
</linearGradient>
<linearGradient id="paint3_linear_1_18804" x1="-20.7358" y1="218.883" x2="148.76" y2="113.74" gradientUnits="userSpaceOnUse">
<stop stop-color="#6A3085"/>
<stop offset="0.5" stop-color="#E60C80"/>
<stop offset="0.685139" stop-color="#E60C80"/>
<stop offset="1" stop-color="#ED72A8"/>
</linearGradient>
<linearGradient id="paint4_linear_1_18804" x1="98.6071" y1="162.926" x2="118.089" y2="95.2537" gradientUnits="userSpaceOnUse">
<stop stop-color="white"/>
<stop offset="0.15" stop-color="white"/>
<stop offset="0.339565" stop-color="white"/>
<stop offset="1" stop-color="white" stop-opacity="0"/>
</linearGradient>
<linearGradient id="paint5_linear_1_18804" x1="98.6039" y1="162.932" x2="118.085" y2="95.2596" gradientUnits="userSpaceOnUse">
<stop stop-color="#8A8A89"/>
<stop offset="0.15" stop-color="#8A8A89"/>
<stop offset="0.339565" stop-color="#8A8A89"/>
<stop offset="1" stop-color="#8A8A89"/>
</linearGradient>
<clipPath id="clip0_1_18804">
<rect width="999" height="255" fill="white"/>
</clipPath>
</defs>
</svg>
