<svg width="465" height="85" viewBox="0 0 465 85" fill="none" xmlns="http://www.w3.org/2000/svg">
<g clip-path="url(#clip0_1_20166)">
<path d="M117.435 84.9146L42.5013 84.9092V-0.430786H117.435V84.9146Z" fill="url(#paint0_linear_1_20166)"/>
<mask id="mask0_1_20166" style="mask-type:luminance" maskUnits="userSpaceOnUse" x="-183" y="-519" width="794" height="1123">
<path d="M-183 -519H610.707V603.52H-183V-519Z" fill="white"/>
</mask>
<g mask="url(#mask0_1_20166)">
<path d="M66.6217 4.84375C67.4284 4.84375 68.079 4.19575 68.079 3.38775C68.079 2.59175 67.4284 1.93708 66.6217 1.93708C65.8244 1.93708 65.1764 2.59175 65.1764 3.38775C65.1764 4.19575 65.8244 4.84375 66.6217 4.84375Z" fill="white"/>
</g>
<mask id="mask1_1_20166" style="mask-type:luminance" maskUnits="userSpaceOnUse" x="-183" y="-519" width="794" height="1123">
<path d="M-183 -519H610.707V603.52H-183V-519Z" fill="white"/>
</mask>
<g mask="url(#mask1_1_20166)">
<path d="M83.7911 47.9066C83.7911 48.2559 84.0697 48.5399 84.4124 48.5346C84.7271 48.5346 85.0337 48.2559 85.0337 47.9066C85.0337 47.5599 84.7551 47.2733 84.4124 47.2733C84.0697 47.2733 83.7911 47.5599 83.7911 47.9066Z" fill="white"/>
</g>
<mask id="mask2_1_20166" style="mask-type:luminance" maskUnits="userSpaceOnUse" x="-183" y="-519" width="794" height="1123">
<path d="M-183 -519H610.707V603.52H-183V-519Z" fill="white"/>
</mask>
<g mask="url(#mask2_1_20166)">
<path d="M84.4863 60.3496C84.0876 60.3496 83.7583 60.6722 83.7583 61.0709C83.7583 61.4696 84.0876 61.7896 84.4863 61.7896C84.8756 61.7896 85.2103 61.4696 85.2103 61.0709C85.2103 60.6722 84.8756 60.3496 84.4863 60.3496Z" fill="white"/>
</g>
<mask id="mask3_1_20166" style="mask-type:luminance" maskUnits="userSpaceOnUse" x="-183" y="-519" width="794" height="1123">
<path d="M-183 -519H610.707V603.52H-183V-519Z" fill="white"/>
</mask>
<g mask="url(#mask3_1_20166)">
<path d="M71.0124 15.4437C70.4417 15.4437 69.9884 15.8931 69.9884 16.4651C69.9884 17.0384 70.4417 17.4971 71.0124 17.4971C71.5271 17.4877 72.0404 17.0384 72.0404 16.4651C72.0404 15.8931 71.5777 15.4437 71.0124 15.4437Z" fill="white"/>
</g>
<mask id="mask4_1_20166" style="mask-type:luminance" maskUnits="userSpaceOnUse" x="-183" y="-519" width="794" height="1123">
<path d="M-183 -519H610.707V603.52H-183V-519Z" fill="white"/>
</mask>
<g mask="url(#mask4_1_20166)">
<path d="M81.0567 38.6338C81.0567 38.0525 80.5873 37.5858 80.014 37.5858C79.4207 37.5858 78.962 38.0525 78.962 38.6338C78.962 39.2205 79.4207 39.6991 80.014 39.6898C80.5287 39.6698 81.0567 39.2205 81.0567 38.6338Z" fill="white"/>
</g>
<mask id="mask5_1_20166" style="mask-type:luminance" maskUnits="userSpaceOnUse" x="-183" y="-519" width="794" height="1123">
<path d="M-183 -519H610.707V603.52H-183V-519Z" fill="white"/>
</mask>
<g mask="url(#mask5_1_20166)">
<path d="M79.9903 49.4198C80.6489 49.4038 81.2969 48.8265 81.2969 48.0972C81.2969 47.3865 80.7129 46.7892 79.9903 46.7892C79.2583 46.7892 78.6849 47.3865 78.6849 48.0972C78.6849 48.8265 79.2583 49.4278 79.9903 49.4198Z" fill="white"/>
</g>
<mask id="mask6_1_20166" style="mask-type:luminance" maskUnits="userSpaceOnUse" x="-183" y="-519" width="794" height="1123">
<path d="M-183 -519H610.707V603.52H-183V-519Z" fill="white"/>
</mask>
<g mask="url(#mask6_1_20166)">
<path d="M79.5228 43.4726C79.5228 43.7686 79.7548 44.0113 80.0468 44.0006C80.3095 44.0006 80.5748 43.7686 80.5748 43.4726C80.5748 43.1846 80.3375 42.9526 80.0468 42.9526C79.7548 42.9526 79.5228 43.1846 79.5228 43.4726Z" fill="white"/>
</g>
<mask id="mask7_1_20166" style="mask-type:luminance" maskUnits="userSpaceOnUse" x="-183" y="-519" width="794" height="1123">
<path d="M-183 -519H610.707V603.52H-183V-519Z" fill="white"/>
</mask>
<g mask="url(#mask7_1_20166)">
<path d="M75.4108 42.2667C74.7721 42.2667 74.2428 42.7774 74.2428 43.416C74.2428 44.0574 74.7721 44.5787 75.4108 44.5707C75.9868 44.5627 76.5588 44.0574 76.5588 43.416C76.5588 42.7774 76.0321 42.2667 75.4108 42.2667Z" fill="white"/>
</g>
<mask id="mask8_1_20166" style="mask-type:luminance" maskUnits="userSpaceOnUse" x="-183" y="-519" width="794" height="1123">
<path d="M-183 -519H610.707V603.52H-183V-519Z" fill="white"/>
</mask>
<g mask="url(#mask8_1_20166)">
<path d="M84.9968 38.8187C84.9968 38.5547 84.7835 38.3467 84.5328 38.3467C84.2728 38.3467 84.0701 38.5547 84.0701 38.8187C84.0701 39.0721 84.2728 39.2907 84.5328 39.2827C84.7648 39.2827 84.9968 39.0721 84.9968 38.8187Z" fill="white"/>
</g>
<mask id="mask9_1_20166" style="mask-type:luminance" maskUnits="userSpaceOnUse" x="-183" y="-519" width="794" height="1123">
<path d="M-183 -519H610.707V603.52H-183V-519Z" fill="white"/>
</mask>
<g mask="url(#mask9_1_20166)">
<path d="M84.3665 26.3968C84.7839 26.3968 85.2105 26.0261 85.2105 25.5621C85.2105 25.0901 84.8305 24.7235 84.3665 24.7235C83.9025 24.7235 83.5225 25.0901 83.5225 25.5621C83.5225 26.0261 83.9025 26.4155 84.3665 26.3968Z" fill="white"/>
</g>
<mask id="mask10_1_20166" style="mask-type:luminance" maskUnits="userSpaceOnUse" x="-183" y="-519" width="794" height="1123">
<path d="M-183 -519H610.707V603.52H-183V-519Z" fill="white"/>
</mask>
<g mask="url(#mask10_1_20166)">
<path d="M84.3509 31.1626C84.9589 31.1519 85.5443 30.6293 85.5443 29.9693C85.5443 29.3119 85.0056 28.7786 84.3509 28.7786C83.6949 28.7786 83.1696 29.3119 83.1696 29.9693C83.1696 30.6293 83.6949 31.1626 84.3509 31.1626Z" fill="white"/>
</g>
<mask id="mask11_1_20166" style="mask-type:luminance" maskUnits="userSpaceOnUse" x="-183" y="-519" width="794" height="1123">
<path d="M-183 -519H610.707V603.52H-183V-519Z" fill="white"/>
</mask>
<g mask="url(#mask11_1_20166)">
<path d="M85.4225 34.2395C85.4225 33.6728 84.9585 33.2142 84.4025 33.2142C83.8385 33.2142 83.3745 33.6728 83.3745 34.2395C83.3745 34.8048 83.8385 35.2728 84.4025 35.2595C84.9132 35.2595 85.4225 34.8048 85.4225 34.2395Z" fill="white"/>
</g>
<mask id="mask12_1_20166" style="mask-type:luminance" maskUnits="userSpaceOnUse" x="-183" y="-519" width="794" height="1123">
<path d="M-183 -519H610.707V603.52H-183V-519Z" fill="white"/>
</mask>
<g mask="url(#mask12_1_20166)">
<path d="M53.0879 4.18994C53.6452 4.18994 54.1092 3.73527 54.1092 3.17927C54.1092 2.61794 53.6452 2.17394 53.0879 2.17394C52.5412 2.17394 52.0772 2.61794 52.0772 3.17927C52.0772 3.73527 52.5412 4.18994 53.0879 4.18994Z" fill="white"/>
</g>
<mask id="mask13_1_20166" style="mask-type:luminance" maskUnits="userSpaceOnUse" x="-183" y="-519" width="794" height="1123">
<path d="M-183 -519H610.707V603.52H-183V-519Z" fill="white"/>
</mask>
<g mask="url(#mask13_1_20166)">
<path d="M57.8353 4.18994C58.3113 4.18994 58.6873 3.80994 58.6873 3.34061C58.6873 2.86994 58.3113 2.50727 57.8353 2.50727C57.3793 2.50727 56.9966 2.86994 56.9966 3.34061C56.9966 3.80994 57.3793 4.18994 57.8353 4.18994Z" fill="white"/>
</g>
<mask id="mask14_1_20166" style="mask-type:luminance" maskUnits="userSpaceOnUse" x="-183" y="-519" width="794" height="1123">
<path d="M-183 -519H610.707V603.52H-183V-519Z" fill="white"/>
</mask>
<g mask="url(#mask14_1_20166)">
<path d="M71.0632 20.2418C70.5765 20.2418 70.1819 20.6245 70.1819 21.1125C70.1819 21.6032 70.5765 22.0018 71.0632 21.9925C71.5032 21.9845 71.9445 21.6032 71.9445 21.1125C71.9445 20.6245 71.5445 20.2418 71.0632 20.2418Z" fill="white"/>
</g>
<mask id="mask15_1_20166" style="mask-type:luminance" maskUnits="userSpaceOnUse" x="-183" y="-519" width="794" height="1123">
<path d="M-183 -519H610.707V603.52H-183V-519Z" fill="white"/>
</mask>
<g mask="url(#mask15_1_20166)">
<path d="M75.7077 21.9101C76.1064 21.9008 76.4957 21.5568 76.4957 21.1128C76.4957 20.6768 76.1531 20.3261 75.7077 20.3261C75.2677 20.3261 74.9157 20.6768 74.9157 21.1128C74.9157 21.5568 75.2677 21.9154 75.7077 21.9101Z" fill="white"/>
</g>
<mask id="mask16_1_20166" style="mask-type:luminance" maskUnits="userSpaceOnUse" x="-183" y="-519" width="794" height="1123">
<path d="M-183 -519H610.707V603.52H-183V-519Z" fill="white"/>
</mask>
<g mask="url(#mask16_1_20166)">
<path d="M80.1061 21.7942C80.4395 21.7835 80.7728 21.4849 80.7728 21.1129C80.7728 20.7422 80.4728 20.4449 80.1061 20.4449C79.7221 20.4449 79.4208 20.7422 79.4208 21.1129C79.4208 21.4849 79.7221 21.7942 80.1061 21.7942Z" fill="white"/>
</g>
<mask id="mask17_1_20166" style="mask-type:luminance" maskUnits="userSpaceOnUse" x="-183" y="-519" width="794" height="1123">
<path d="M-183 -519H610.707V603.52H-183V-519Z" fill="white"/>
</mask>
<g mask="url(#mask17_1_20166)">
<path d="M75.5775 8.1106C75.8508 8.1106 76.0828 7.88393 76.0828 7.60126C76.0828 7.32793 75.8508 7.09593 75.5775 7.09593C75.2948 7.09593 75.0668 7.32793 75.0668 7.60126C75.0668 7.88393 75.2948 8.1106 75.5775 8.1106Z" fill="white"/>
</g>
<mask id="mask18_1_20166" style="mask-type:luminance" maskUnits="userSpaceOnUse" x="-183" y="-519" width="794" height="1123">
<path d="M-183 -519H610.707V603.52H-183V-519Z" fill="white"/>
</mask>
<g mask="url(#mask18_1_20166)">
<path d="M75.5775 12.5466C75.8508 12.5466 76.0828 12.324 76.0828 12.0466C76.0828 11.768 75.8508 11.536 75.5775 11.536C75.2948 11.536 75.0668 11.768 75.0668 12.0466C75.0668 12.324 75.2948 12.5466 75.5775 12.5466Z" fill="white"/>
</g>
<mask id="mask19_1_20166" style="mask-type:luminance" maskUnits="userSpaceOnUse" x="-183" y="-519" width="794" height="1123">
<path d="M-183 -519H610.707V603.52H-183V-519Z" fill="white"/>
</mask>
<g mask="url(#mask19_1_20166)">
<path d="M71.0723 4.18994C71.5443 4.18994 71.9216 3.80994 71.9216 3.34061C71.9216 2.86994 71.5443 2.50727 71.0723 2.50727C70.6083 2.50727 70.2283 2.86994 70.2283 3.34061C70.2283 3.80994 70.6083 4.18994 71.0723 4.18994Z" fill="white"/>
</g>
<mask id="mask20_1_20166" style="mask-type:luminance" maskUnits="userSpaceOnUse" x="-183" y="-519" width="794" height="1123">
<path d="M-183 -519H610.707V603.52H-183V-519Z" fill="white"/>
</mask>
<g mask="url(#mask20_1_20166)">
<path d="M62.3679 4.74194C63.1145 4.74194 63.7025 4.14861 63.7025 3.40194C63.7025 2.65661 63.1145 2.05261 62.3679 2.05261C61.6265 2.05261 61.0239 2.65661 61.0239 3.40194C61.0239 4.14861 61.6265 4.74194 62.3679 4.74194Z" fill="white"/>
</g>
<mask id="mask21_1_20166" style="mask-type:luminance" maskUnits="userSpaceOnUse" x="-183" y="-519" width="794" height="1123">
<path d="M-183 -519H610.707V603.52H-183V-519Z" fill="white"/>
</mask>
<g mask="url(#mask21_1_20166)">
<path d="M84.3431 53.4041C84.9444 53.4041 85.4364 52.9094 85.4364 52.3027C85.4364 51.7134 84.9444 51.2161 84.3431 51.2161C83.7444 51.2161 83.2591 51.7134 83.2591 52.3027C83.2591 52.9094 83.7444 53.4041 84.3431 53.4041Z" fill="white"/>
</g>
<mask id="mask22_1_20166" style="mask-type:luminance" maskUnits="userSpaceOnUse" x="-183" y="-519" width="794" height="1123">
<path d="M-183 -519H610.707V603.52H-183V-519Z" fill="white"/>
</mask>
<g mask="url(#mask22_1_20166)">
<path d="M84.4121 55.5421C83.7681 55.5421 83.2588 56.0581 83.2588 56.6954C83.2588 57.3261 83.7681 57.8447 84.4121 57.8447C85.0428 57.8447 85.5615 57.3261 85.5615 56.6954C85.5615 56.0581 85.0428 55.5421 84.4121 55.5421Z" fill="white"/>
</g>
<mask id="mask23_1_20166" style="mask-type:luminance" maskUnits="userSpaceOnUse" x="-183" y="-519" width="794" height="1123">
<path d="M-183 -519H610.707V603.52H-183V-519Z" fill="white"/>
</mask>
<g mask="url(#mask23_1_20166)">
<path d="M53.1999 77.5264C52.4306 77.5264 51.8226 78.1437 51.8226 78.9064C51.8226 79.6664 52.4306 80.2891 53.1999 80.2891C53.9599 80.2891 54.5812 79.6664 54.5812 78.9064C54.5812 78.1437 53.9599 77.5264 53.1999 77.5264Z" fill="white"/>
</g>
<mask id="mask24_1_20166" style="mask-type:luminance" maskUnits="userSpaceOnUse" x="-183" y="-519" width="794" height="1123">
<path d="M-183 -519H610.707V603.52H-183V-519Z" fill="white"/>
</mask>
<g mask="url(#mask24_1_20166)">
<path d="M80.0137 59.6438C79.2857 59.6438 78.6871 60.2371 78.6871 60.9558C78.6871 61.6931 79.2857 62.2771 80.0137 62.2771C80.7417 62.2771 81.3244 61.6931 81.3244 60.9558C81.3244 60.2371 80.7417 59.6438 80.0137 59.6438Z" fill="white"/>
</g>
<mask id="mask25_1_20166" style="mask-type:luminance" maskUnits="userSpaceOnUse" x="-183" y="-519" width="794" height="1123">
<path d="M-183 -519H610.707V603.52H-183V-519Z" fill="white"/>
</mask>
<g mask="url(#mask25_1_20166)">
<path d="M71.8275 65.5863C71.8275 65.1356 71.4528 64.769 71.0128 64.769C70.5621 64.769 70.1915 65.1356 70.1915 65.5863C70.1915 66.045 70.5621 66.4116 71.0128 66.4116C71.4528 66.4116 71.8275 66.045 71.8275 65.5863Z" fill="white"/>
</g>
<mask id="mask26_1_20166" style="mask-type:luminance" maskUnits="userSpaceOnUse" x="-183" y="-519" width="794" height="1123">
<path d="M-183 -519H610.707V603.52H-183V-519Z" fill="white"/>
</mask>
<g mask="url(#mask26_1_20166)">
<path d="M69.7936 70.2999C69.7936 70.9253 70.3029 71.4399 70.9296 71.4399C71.5536 71.4399 72.0749 70.9253 72.0749 70.2999C72.0749 69.6746 71.5536 69.1639 70.9296 69.1639C70.3029 69.1639 69.7936 69.6746 69.7936 70.2999Z" fill="white"/>
</g>
<mask id="mask27_1_20166" style="mask-type:luminance" maskUnits="userSpaceOnUse" x="-183" y="-519" width="794" height="1123">
<path d="M-183 -519H610.707V603.52H-183V-519Z" fill="white"/>
</mask>
<g mask="url(#mask27_1_20166)">
<path d="M70.8873 77.6513C70.182 77.6513 69.6167 78.222 69.6167 78.9166C69.6167 79.6206 70.182 80.1953 70.8873 80.1953C71.5873 80.1953 72.166 79.6206 72.166 78.9166C72.166 78.222 71.5873 77.6513 70.8873 77.6513Z" fill="white"/>
</g>
<mask id="mask28_1_20166" style="mask-type:luminance" maskUnits="userSpaceOnUse" x="-183" y="-519" width="794" height="1123">
<path d="M-183 -519H610.707V603.52H-183V-519Z" fill="white"/>
</mask>
<g mask="url(#mask28_1_20166)">
<path d="M75.5592 78.5551C75.2805 78.5551 75.0485 78.7871 75.0485 79.0711C75.0485 79.3618 75.2805 79.5938 75.5592 79.5938C75.8512 79.5938 76.0832 79.3618 76.0832 79.0711C76.0832 78.7871 75.8512 78.5551 75.5592 78.5551Z" fill="white"/>
</g>
<mask id="mask29_1_20166" style="mask-type:luminance" maskUnits="userSpaceOnUse" x="-183" y="-519" width="794" height="1123">
<path d="M-183 -519H610.707V603.52H-183V-519Z" fill="white"/>
</mask>
<g mask="url(#mask29_1_20166)">
<path d="M75.5084 74.0861C75.207 74.0861 74.947 74.3461 74.947 74.6488C74.947 74.9661 75.207 75.2168 75.5084 75.2168C75.827 75.2168 76.083 74.9661 76.083 74.6488C76.083 74.3461 75.827 74.0861 75.5084 74.0861Z" fill="white"/>
</g>
<mask id="mask30_1_20166" style="mask-type:luminance" maskUnits="userSpaceOnUse" x="-183" y="-519" width="794" height="1123">
<path d="M-183 -519H610.707V603.52H-183V-519Z" fill="white"/>
</mask>
<g mask="url(#mask30_1_20166)">
<path d="M75.6985 64.9847C75.3825 64.9847 75.1319 65.2327 75.1319 65.5447C75.1319 65.8541 75.3825 66.1047 75.6985 66.1047C76.0079 66.1047 76.2639 65.8541 76.2639 65.5447C76.2639 65.2327 76.0079 64.9847 75.6985 64.9847Z" fill="white"/>
</g>
<mask id="mask31_1_20166" style="mask-type:luminance" maskUnits="userSpaceOnUse" x="-183" y="-519" width="794" height="1123">
<path d="M-183 -519H610.707V603.52H-183V-519Z" fill="white"/>
</mask>
<g mask="url(#mask31_1_20166)">
<path d="M80.1947 65.1046C79.944 65.1046 79.7493 65.2993 79.7493 65.5446C79.7493 65.7953 79.944 65.9846 80.1947 65.9846C80.432 65.9846 80.64 65.7953 80.64 65.5446C80.64 65.2993 80.432 65.1046 80.1947 65.1046Z" fill="white"/>
</g>
<mask id="mask32_1_20166" style="mask-type:luminance" maskUnits="userSpaceOnUse" x="-183" y="-519" width="794" height="1123">
<path d="M-183 -519H610.707V603.52H-183V-519Z" fill="white"/>
</mask>
<g mask="url(#mask32_1_20166)">
<path d="M77.9695 33.4412C77.3215 33.4518 76.8121 32.9212 76.8121 32.2825C76.8121 31.6385 77.3215 31.1158 77.9695 31.1158C78.6055 31.1158 79.1281 31.6385 79.1281 32.2825C79.1281 32.9212 78.5441 33.4318 77.9695 33.4412ZM73.5481 38.2438C72.7961 38.2438 72.1841 37.6332 72.1841 36.8718C72.1841 36.1305 72.7961 35.5185 73.5481 35.5185C74.2935 35.5185 74.9108 36.1305 74.9108 36.8718C74.9108 37.6332 74.2335 38.2305 73.5481 38.2438ZM73.5388 31.4492C73.9241 31.4492 74.2428 31.7678 74.2428 32.1532C74.2428 32.5518 73.8895 32.8665 73.5388 32.8758C73.1401 32.8758 72.8255 32.5518 72.8255 32.1532C72.8255 31.7678 73.1401 31.4492 73.5388 31.4492ZM73.5748 48.7265C74.1788 48.7265 74.6641 49.2145 74.6641 49.8185C74.6641 50.4198 74.1788 50.9012 73.5748 50.9012C72.9735 50.9012 72.4815 50.4198 72.4815 49.8185C72.4815 49.2145 72.9735 48.7265 73.5748 48.7265ZM73.4375 55.2585C73.0561 55.2585 72.7468 54.9425 72.7468 54.5545C72.7468 54.1745 73.0561 53.8492 73.4375 53.8492C73.8308 53.8492 74.1401 54.1745 74.1401 54.5545C74.1401 54.9425 73.8308 55.2585 73.4375 55.2585ZM77.9975 53.4145C78.6081 53.4145 79.1281 53.9332 79.1281 54.5545C79.1281 55.1852 78.6081 55.6958 77.9975 55.6958C77.3668 55.6958 76.8481 55.1852 76.8481 54.5545C76.8481 53.9332 77.3668 53.4145 77.9975 53.4145ZM69.2188 42.2758C68.5788 42.2958 68.0588 41.7558 68.0588 41.1172C68.0588 40.4772 68.5788 39.9585 69.2188 39.9585C69.8668 39.9585 70.3775 40.4772 70.3775 41.1172C70.3775 41.7558 69.8028 42.2665 69.2188 42.2758ZM69.1708 46.5812C68.5748 46.5812 68.0935 46.1052 68.0935 45.5025C68.0935 44.9145 68.5748 44.4278 69.1708 44.4278C69.7521 44.4278 70.2388 44.9145 70.2388 45.5025C70.2388 46.1052 69.7521 46.5812 69.1708 46.5812ZM68.9681 50.6092C68.6295 50.6092 68.3668 50.3465 68.3668 50.0132C68.3668 49.6772 68.6295 49.4038 68.9681 49.4038C69.2935 49.4038 69.5615 49.6772 69.5615 50.0132C69.5615 50.3465 69.2935 50.6092 68.9681 50.6092ZM68.9681 55.1718C68.6295 55.1718 68.3668 54.9065 68.3668 54.5838C68.3668 54.2478 68.6295 53.9798 68.9681 53.9798C69.2935 53.9798 69.5615 54.2478 69.5615 54.5838C69.5615 54.9065 69.2935 55.1718 68.9681 55.1718ZM68.4481 32.1385C68.4481 31.9132 68.6348 31.7265 68.8761 31.7265C69.1081 31.7265 69.2935 31.9132 69.2935 32.1385C69.2935 32.3758 69.0841 32.5665 68.8761 32.5705C68.6348 32.5705 68.4481 32.3758 68.4481 32.1385ZM69.0001 35.9452C69.4415 35.9452 69.8028 36.3052 69.8028 36.7598C69.8028 37.2052 69.4081 37.5678 69.0001 37.5772C68.5375 37.5772 68.1748 37.2052 68.1748 36.7598C68.1748 36.3052 68.5375 35.9452 69.0001 35.9452ZM69.0615 26.2478C69.7375 26.2478 70.2881 26.8038 70.2881 27.4905C70.2881 28.1812 69.6815 28.7332 69.0615 28.7332C68.3668 28.7505 67.8001 28.1812 67.8001 27.4905C67.8001 26.8038 68.3668 26.2478 69.0615 26.2478ZM64.6388 24.5145C63.8868 24.5332 63.2748 23.9038 63.2748 23.1518C63.2748 22.3918 63.8868 21.7838 64.6388 21.7838C65.3988 21.7838 66.0068 22.3918 66.0068 23.1518C66.0068 23.9038 65.3335 24.5065 64.6388 24.5145ZM63.8201 27.5825C63.8201 27.1425 64.1841 26.7905 64.6161 26.7905C65.0561 26.7905 65.4081 27.1425 65.4081 27.5825C65.4081 28.0265 65.0095 28.3705 64.6161 28.3758C64.1841 28.3852 63.8201 28.0265 63.8201 27.5825ZM64.5375 60.0372C63.9868 60.0372 63.5268 59.5892 63.5268 59.0372C63.5268 58.4772 63.9868 58.0212 64.5375 58.0212C65.1028 58.0212 65.5481 58.4772 65.5481 59.0372C65.5481 59.5892 65.1028 60.0372 64.5375 60.0372ZM60.1068 64.0478C59.7908 64.0478 59.5415 63.7918 59.5415 63.4825C59.5415 63.1665 59.7908 62.9065 60.1068 62.9065C60.4215 62.9065 60.6815 63.1665 60.6815 63.4825C60.6815 63.7918 60.4215 64.0478 60.1068 64.0478ZM59.5415 67.8985C59.5415 67.6252 59.7628 67.4012 60.0415 67.4012C60.3095 67.4012 60.5228 67.6252 60.5228 67.8985C60.5228 68.1718 60.3095 68.3905 60.0415 68.3905C59.7628 68.3905 59.5415 68.1718 59.5415 67.8985ZM59.9895 73.0398C59.6788 73.0398 59.4161 72.7785 59.4161 72.4638C59.4161 72.1545 59.6788 71.9038 59.9895 71.9038C60.3015 71.9038 60.5521 72.1545 60.5521 72.4638C60.5521 72.7785 60.3015 73.0398 59.9895 73.0398ZM55.4348 73.4278C54.9521 73.4278 54.5668 73.0398 54.5668 72.5518C54.5668 72.0705 54.9521 71.6852 55.4348 71.6852C55.9161 71.6852 56.3095 72.0705 56.3095 72.5518C56.3095 73.0398 55.9161 73.4278 55.4348 73.4278ZM51.0868 73.2172C50.7055 73.2172 50.3948 72.9092 50.3948 72.5292C50.3948 72.1492 50.7055 71.8438 51.0868 71.8438C51.4655 71.8438 51.7735 72.1492 51.7735 72.5292C51.7735 72.9092 51.4655 73.2172 51.0868 73.2172ZM46.9055 82.4585C46.2841 82.4585 45.7748 81.9478 45.7748 81.3132C45.7748 80.6878 46.2841 80.1772 46.9055 80.1772C47.5361 80.1772 48.0468 80.6878 48.0468 81.3132C48.0468 81.9478 47.5361 82.4585 46.9055 82.4585ZM46.1161 72.4638C46.1161 72.2145 46.3121 72.0212 46.5575 72.0212C46.8081 72.0212 47.0068 72.2145 47.0068 72.4638C47.0068 72.7172 46.8081 72.9092 46.5575 72.9092C46.3121 72.9092 46.1161 72.7172 46.1161 72.4638ZM46.7721 76.1078C47.2495 76.1078 47.6281 76.4932 47.6281 76.9692C47.6281 77.4332 47.2495 77.8185 46.7721 77.8185C46.2988 77.8185 45.9228 77.4332 45.9228 76.9692C45.9228 76.4932 46.2988 76.1078 46.7721 76.1078ZM46.7855 4.19049C47.4055 4.19049 47.9055 4.69049 47.9055 5.31583C47.9055 5.93182 47.4055 6.43716 46.7855 6.43716C46.1641 6.43716 45.6535 5.93182 45.6535 5.31583C45.6535 4.69049 46.1641 4.19049 46.7855 4.19049ZM46.8588 -0.277512C47.5268 -0.277512 48.0735 0.258492 48.0735 0.926491C48.0735 1.59315 47.5268 2.13716 46.8588 2.13716C46.2001 2.13716 45.6535 1.59315 45.6535 0.926491C45.6535 0.258492 46.2001 -0.277512 46.8588 -0.277512ZM51.1375 8.30116C51.8868 8.30116 52.4908 8.90382 52.4908 9.64915C52.4908 10.3972 51.8868 11.0092 51.1375 11.0092C50.3948 11.0092 49.7881 10.3972 49.7881 9.64915C49.7881 8.90382 50.3948 8.30116 51.1375 8.30116ZM55.5588 13.3678C56.0081 13.3678 56.3801 13.7252 56.3801 14.1785C56.3801 14.6278 55.9708 14.9892 55.5588 14.9945C55.1081 14.9945 54.7468 14.6278 54.7468 14.1785C54.7468 13.7252 55.1081 13.3678 55.5588 13.3678ZM50.4415 14.1785C50.4415 13.8172 50.7281 13.5212 51.0961 13.5212C51.4655 13.5212 51.7548 13.8172 51.7548 14.1785C51.7548 14.5438 51.4295 14.8372 51.0961 14.8465C50.7281 14.8465 50.4415 14.5438 50.4415 14.1785ZM45.9735 9.75716C45.9735 9.34916 46.3121 9.01582 46.7241 9.01582C47.1321 9.01582 47.4655 9.34916 47.4655 9.75716C47.4655 10.1652 47.1321 10.4985 46.7241 10.4985C46.3121 10.4985 45.9735 10.1652 45.9735 9.75716ZM59.8921 8.42249C60.5521 8.42249 61.0748 8.95449 61.0748 9.61316C61.0748 10.2665 60.4815 10.7905 59.8921 10.7958C59.2335 10.8132 58.7068 10.2665 58.7068 9.61316C58.7068 8.95449 59.2335 8.42249 59.8921 8.42249ZM59.4388 14.1785C59.4388 13.8812 59.6788 13.6492 59.9668 13.6492C60.2548 13.6492 60.4988 13.8812 60.4988 14.1785C60.4988 14.4665 60.2255 14.7025 59.9668 14.7078C59.6788 14.7105 59.4388 14.4665 59.4388 14.1785ZM59.9668 18.2398C60.2548 18.2398 60.4988 18.4705 60.4988 18.7678C60.4988 19.0505 60.2255 19.2878 59.9668 19.2878C59.6788 19.2958 59.4388 19.0505 59.4388 18.7678C59.4388 18.4705 59.6788 18.2398 59.9668 18.2398ZM64.5095 75.8985C65.1401 75.8985 65.6535 76.4092 65.6535 77.0345C65.6535 77.6638 65.1401 78.1745 64.5095 78.1745C63.8868 78.1745 63.3788 77.6638 63.3788 77.0345C63.3788 76.4092 63.8868 75.8985 64.5095 75.8985ZM64.6295 71.4452C65.1495 71.4452 65.5655 71.8625 65.5655 72.3812C65.5655 72.8958 65.1495 73.3025 64.6295 73.3025C64.1188 73.3025 63.7028 72.8958 63.7028 72.3812C63.7028 71.8625 64.1188 71.4452 64.6295 71.4452ZM64.6388 13.3905C65.2228 13.3905 65.6868 13.8585 65.6868 14.4372C65.6868 15.0132 65.1708 15.4678 64.6388 15.4758C64.0695 15.4852 63.5921 15.0132 63.5921 14.4372C63.5921 13.8585 64.0695 13.3905 64.6388 13.3905ZM64.5281 8.80249C65.0388 8.80249 65.4641 9.21849 65.4641 9.73849C65.4641 10.2572 64.9975 10.6745 64.5281 10.6745C64.0175 10.6852 63.5921 10.2572 63.5921 9.73849C63.5921 9.21849 64.0175 8.80249 64.5281 8.80249ZM80.5041 27.7545V27.6252C80.5041 26.7265 81.2655 26.6838 81.4081 25.7758C81.5855 24.7838 80.5641 23.7038 79.3321 24.3292C78.8588 24.5612 78.5855 24.9865 78.5855 25.5385C78.5855 26.4665 79.3361 26.5812 79.3361 27.4545C79.3361 28.1665 78.8041 28.8958 78.0068 28.8958C77.0001 28.8958 76.4988 28.2318 76.4988 27.3705C76.4988 26.6465 77.3815 26.2665 77.3815 25.4558C77.3815 24.5558 76.7908 23.9638 75.8455 23.9638C74.8041 23.9638 74.4748 25.2852 73.4081 25.2852C72.4628 25.2852 72.1481 23.9865 71.1695 23.9865C70.0255 23.9865 70.2281 24.6905 69.0148 25.0332C68.8761 25.0625 68.5988 25.2292 68.0935 24.9972C67.0908 24.5478 67.0068 23.6425 67.0068 23.2825C67.0068 23.0598 67.2908 22.3638 67.4668 22.2518C68.0321 21.9278 68.2735 21.3172 68.2735 20.9372C68.2601 20.0412 67.6428 19.3652 66.7575 19.3652C65.6761 19.3652 65.7415 19.9718 64.9868 20.1758C64.0881 20.3905 63.2335 19.8145 63.2335 18.7812C63.2335 17.9892 63.9348 17.4132 64.5935 17.4132C65.5095 17.4132 65.5895 18.1092 66.5308 18.1092C66.9895 18.1318 67.3401 17.9932 67.7348 17.6358C68.2441 17.1732 68.4481 16.3798 68.0695 15.6572C67.9068 15.3572 67.6575 15.0692 67.4668 14.7812C67.1788 14.2398 67.2628 13.5852 67.4668 13.2372C67.6788 12.8798 68.1988 12.4638 68.9268 12.5465C69.2601 12.5932 69.5935 12.7505 69.7748 12.8905C70.4108 13.3905 71.1788 13.6078 71.9348 13.0105C72.2855 12.7145 72.4215 12.2465 72.3708 11.8145C72.3295 11.4345 72.1015 11.0305 71.7308 10.8225C70.5615 10.1545 70.0521 11.1478 69.3428 11.3412C68.9268 11.4638 68.4628 11.3798 68.2495 11.2585C67.5828 10.8598 67.1561 10.3638 67.4161 9.41316C67.6988 8.60249 68.6761 7.81983 70.0348 8.65717C70.3441 8.89449 70.7161 9.07983 71.0361 9.07582C71.7308 9.07182 72.4081 8.45982 72.4081 7.70249C72.4081 6.94382 71.7855 6.33716 71.0361 6.33716C70.5761 6.33716 70.2988 6.51315 69.9495 6.81715C69.6268 7.12516 69.2135 7.33716 68.5788 7.13316C68.1068 6.95715 67.9481 6.71583 67.7495 6.4185C67.5068 5.64116 67.1561 5.39049 66.6788 5.39049C65.9975 5.39049 65.8535 5.76516 65.5095 6.31183C65.2055 6.74516 64.7135 6.77583 64.3975 6.77583C63.9868 6.77583 63.5268 6.58516 62.9948 6.09449C62.7521 5.84515 62.5441 5.64116 62.2575 5.64116C61.7415 5.64116 61.3855 6.15583 61.0041 6.49316C60.7188 6.77583 60.3708 7.01316 59.8561 7.01316C59.5121 7.01316 59.1561 6.87316 58.9295 6.60916C58.3828 5.96649 57.3988 5.89583 56.9161 6.25316C55.7681 7.08649 56.1428 8.12116 56.6628 8.79316C57.0281 9.26516 57.1401 9.94783 56.6388 10.5305C56.3561 10.8558 55.9988 11.0225 55.6188 11.0638C55.1735 11.1052 54.7468 10.9158 54.4335 10.5532C54.0441 10.1185 54.0441 9.29449 54.2935 8.93182C54.6175 8.49583 54.8308 8.15182 54.7108 7.57449C54.4695 6.39182 53.2468 5.96649 52.3655 6.47449C52.2188 6.56916 52.0961 6.66917 51.9908 6.7865C51.7201 7.07317 51.4108 7.26783 50.8348 7.26783C50.4415 7.26783 49.8948 6.95715 49.7988 6.81715C48.5828 5.09716 50.4695 4.53316 50.3268 2.96916C50.2615 2.26649 49.6868 1.88649 49.3201 1.26115C49.2881 1.11716 49.2508 0.969162 49.2268 0.819824C49.2695 0.365158 49.7708 -0.0241776 50.0295 -0.473511H41.4361V20.1585C29.4135 20.2785 19.7161 30.0545 19.7161 42.0998C19.7161 54.1465 29.4135 63.9172 41.4361 64.0425V84.9932H49.5935C49.8948 84.6118 50.2801 84.1905 50.3268 83.6905C50.4188 82.5625 49.3201 82.2638 49.2508 81.3732C49.2415 81.1772 49.2961 81.0025 49.4028 80.8438C49.7361 80.3105 50.4188 79.8932 50.5388 79.2865C50.7521 78.1932 49.1401 77.6745 49.8121 76.2558C50.1455 75.5892 50.9055 75.3238 51.5721 75.5425C52.6068 75.9065 52.3375 76.8265 53.3015 76.8265C54.2708 76.8265 54.1268 76.1172 54.6561 75.7745C55.5681 75.1692 56.4988 75.5292 56.9135 76.1905C57.2281 76.7238 57.1455 77.3785 56.9361 77.7038C56.7268 78.0185 56.4028 78.3052 56.4028 78.8652C56.4028 79.6625 57.0561 80.2892 57.8348 80.2892C58.6321 80.2892 59.2628 79.6625 59.2628 78.8652C59.2628 78.4145 59.0588 78.0265 58.7281 77.7718C58.5561 77.5625 58.4548 77.2012 58.4548 76.8545C58.4548 76.0758 59.0415 75.5425 59.8921 75.4585C60.2081 75.4225 60.6948 75.6252 60.8855 75.8265C61.0988 76.0572 61.2001 76.2838 61.2748 76.4932C61.4881 77.1638 61.0881 77.6932 60.7548 78.2505C60.5641 78.5185 60.4495 78.8185 60.4495 79.1665C60.4495 80.0372 61.1455 80.7292 62.0068 80.7292C62.3868 80.7292 62.7201 80.5945 62.9841 80.3732C63.5468 80.0185 64.1015 79.4998 64.8521 79.7265C65.1761 79.8105 65.3815 79.9998 65.6041 80.1905C65.9055 80.5105 66.3268 80.7145 66.8081 80.7145C67.7081 80.7145 68.4401 79.9878 68.4401 79.0838C68.4401 78.8518 68.3855 78.6305 68.3015 78.4252C68.2735 78.3705 68.2495 78.3185 68.2081 78.2665C68.1241 78.1092 68.0041 77.9612 67.8655 77.8492C67.6748 77.6412 67.4855 77.4145 67.4055 77.0345C67.2988 76.5345 67.4668 76.1358 67.6428 75.8158C67.9161 75.3292 68.7415 75.0892 69.3121 75.2092C69.5108 75.2452 69.6815 75.3652 69.8441 75.4905C70.0988 75.8265 70.5121 76.0572 70.9521 76.0572C71.7401 76.0572 72.3708 75.4118 72.3708 74.6492C72.3708 73.8652 71.7401 73.2425 70.9521 73.2425C70.0108 73.2425 70.0255 74.1225 68.9268 74.1225C68.4028 74.1225 67.9668 73.9118 67.6335 73.4278C67.2161 72.8158 67.3921 72.1118 67.5828 71.7425C67.7348 71.4665 67.9668 71.2372 68.1348 70.9772C68.3855 70.6798 68.5521 70.3052 68.5521 69.8838C68.5521 68.9412 67.7908 68.1825 66.8535 68.1825C66.4655 68.1825 66.1041 68.3158 65.8175 68.5238C65.7975 68.5518 65.7788 68.5812 65.7521 68.5892H65.7415C65.7055 68.6412 65.6761 68.6772 65.6308 68.7092C65.6121 68.7292 65.5935 68.7372 65.5708 68.7665C65.4735 68.8678 65.3721 68.9252 65.1708 69.0158C64.1388 69.4852 62.9841 68.3292 63.4948 67.2812C63.6695 66.9225 63.9255 66.6145 64.3201 66.5425C65.3161 66.3292 65.4735 66.8105 65.8828 67.0785C66.0908 67.2145 66.3535 67.2745 66.6135 67.2745C67.4668 67.2745 68.1575 66.5785 68.1575 65.7292C68.1575 65.1692 67.8655 64.6878 67.4161 64.4092C67.4161 64.4092 67.4161 64.3985 67.4055 64.3958C67.3641 64.3625 67.3228 64.3438 67.2721 64.3438C67.0721 64.2425 66.8535 64.1958 66.6135 64.1958C65.8175 64.1958 65.7228 64.6465 65.1708 64.8265C64.4121 65.1052 63.6615 64.7185 63.3788 64.0732C62.9148 63.0265 63.8375 61.7665 65.1028 62.1332C65.5895 62.2758 65.8775 62.6692 66.1788 62.8332C66.4295 62.9665 66.6041 63.0105 66.8921 63.0185C67.7735 63.0265 68.4868 62.2998 68.4868 61.4198C68.4868 61.2665 68.4761 61.1412 68.4401 61.0158V60.9558C68.3855 60.5705 67.9668 60.2558 67.7495 59.9225C67.3228 59.2452 67.6335 58.4118 68.3255 57.9665C68.6535 57.7612 69.1815 57.7345 69.5441 57.8545C70.1681 58.0545 70.7855 58.9998 70.4055 59.6625C70.0255 60.3305 69.7188 60.4505 69.7188 60.9972C69.7188 61.8238 70.5348 62.3932 71.0361 62.3932C71.3281 62.3932 71.8281 62.3358 72.1388 61.9905C72.8615 61.1638 72.5561 60.5705 72.1388 59.8758C71.8748 59.4532 71.8455 58.8932 72.1201 58.4118C72.3295 58.0598 72.6815 57.7612 73.1108 57.6878C74.0308 57.5345 74.9855 58.2718 74.9001 59.2745C74.8548 59.8105 74.6135 59.9638 74.3535 60.3732C73.9321 61.0478 74.4241 61.9905 75.0908 62.2865C76.0775 62.7398 77.3015 61.8878 77.0521 60.6932C76.9135 59.9638 76.4575 59.9505 76.3428 59.4225C76.2735 59.0598 76.1841 58.7865 76.6068 58.1052C77.0521 57.3905 78.0575 57.3438 78.8775 57.9278C79.1561 58.1278 79.3695 58.3905 79.6708 58.4852C80.2135 58.6518 80.8255 58.5132 81.1948 58.1692C81.8828 57.5345 81.8588 56.8078 81.6721 56.3678C81.4415 55.8052 80.7881 55.4172 80.7655 54.5838C80.7415 53.6985 81.4228 53.1932 81.7148 52.5625C81.9001 52.1438 81.9735 51.6625 81.5255 51.0238C81.3255 50.7265 81.0001 50.5452 80.6668 50.4958C80.2041 50.4425 79.8001 50.5505 79.4401 50.7718C78.9401 51.0865 78.3868 51.5478 77.7188 51.3838C77.5495 51.3385 77.1161 51.2972 76.8895 51.0238C76.1015 50.0972 76.6068 49.3545 76.9628 48.5865C77.2601 47.9585 77.4188 47.2398 76.7095 46.5972C76.1655 46.1052 75.2575 46.1798 74.6735 46.5865C74.3908 46.7812 74.1788 46.8932 73.9135 47.0732C73.1855 47.3332 72.6201 47.1692 72.2215 46.7998C71.9441 46.5265 71.7628 46.0398 71.7761 45.7172C71.8148 44.8358 72.7468 44.5838 72.7468 43.4132C72.7468 42.0812 71.5455 42.1278 71.5455 40.6585C71.5455 40.3238 71.7761 39.8385 72.0535 39.6012C72.4215 39.3038 72.6948 39.1932 72.9441 39.1932C74.4748 39.1932 74.0855 40.1345 75.3748 40.1345C75.7815 40.1345 76.1988 39.9132 76.4988 39.6158C77.1535 38.9585 76.9268 37.9478 76.6068 37.6038C76.2188 37.2052 75.9161 36.5105 76.3668 35.6932C76.7001 35.0825 77.4868 34.7958 78.1735 35.0492C78.6561 35.2318 78.6081 35.4998 79.1895 35.7972C80.0828 36.2785 81.0855 35.7972 81.4228 35.0492C82.0908 33.6092 80.7508 33.3065 80.7055 32.3212C80.6495 31.2718 81.7748 30.9385 81.8828 30.0772C82.0068 29.1492 80.6668 28.6132 80.5041 27.7545Z" fill="white"/>
</g>
<mask id="mask33_1_20166" style="mask-type:luminance" maskUnits="userSpaceOnUse" x="-183" y="-519" width="794" height="1123">
<path d="M-183 -519H610.707V603.52H-183V-519Z" fill="white"/>
</mask>
<g mask="url(#mask33_1_20166)">
<path d="M71.0853 82.7089C70.712 82.7089 70.3947 83.0236 70.3947 83.4063C70.3947 83.7849 70.712 84.0996 71.0853 84.0996C71.4893 84.0996 71.7853 83.7849 71.7853 83.4063C71.7853 83.0236 71.4893 82.7089 71.0853 82.7089Z" fill="white"/>
</g>
<mask id="mask34_1_20166" style="mask-type:luminance" maskUnits="userSpaceOnUse" x="-183" y="-519" width="794" height="1123">
<path d="M-183 -519H610.707V603.52H-183V-519Z" fill="white"/>
</mask>
<g mask="url(#mask34_1_20166)">
<path d="M66.6647 82.2452C66.0673 82.2452 65.5807 82.7318 65.5807 83.3238C65.5807 83.9225 66.0673 84.4092 66.6647 84.4092C67.2567 84.4092 67.7487 83.9225 67.7487 83.3238C67.7487 82.7318 67.2567 82.2452 66.6647 82.2452Z" fill="white"/>
</g>
<mask id="mask35_1_20166" style="mask-type:luminance" maskUnits="userSpaceOnUse" x="-183" y="-519" width="794" height="1123">
<path d="M-183 -519H610.707V603.52H-183V-519Z" fill="white"/>
</mask>
<g mask="url(#mask35_1_20166)">
<path d="M62.3679 82.2452C61.7652 82.2452 61.2919 82.7318 61.2919 83.3238C61.2919 83.9225 61.7652 84.4092 62.3679 84.4092C62.9599 84.4092 63.4439 83.9225 63.4439 83.3238C63.4439 82.7318 62.9599 82.2452 62.3679 82.2452Z" fill="white"/>
</g>
<mask id="mask36_1_20166" style="mask-type:luminance" maskUnits="userSpaceOnUse" x="-183" y="-519" width="794" height="1123">
<path d="M-183 -519H610.707V603.52H-183V-519Z" fill="white"/>
</mask>
<g mask="url(#mask36_1_20166)">
<path d="M57.8301 82.7737C57.4781 82.7737 57.1941 83.0604 57.1941 83.407C57.1941 83.755 57.4781 84.0337 57.8301 84.0337C58.1781 84.0337 58.4555 83.755 58.4555 83.407C58.4555 83.0604 58.1781 82.7737 57.8301 82.7737Z" fill="white"/>
</g>
<mask id="mask37_1_20166" style="mask-type:luminance" maskUnits="userSpaceOnUse" x="-183" y="-519" width="794" height="1123">
<path d="M-183 -519H610.707V603.52H-183V-519Z" fill="white"/>
</mask>
<g mask="url(#mask37_1_20166)">
<path d="M53.14 82.5215C52.64 82.5215 52.2307 82.9309 52.2307 83.4335C52.2307 83.9335 52.64 84.3389 53.14 84.3389C53.6453 84.3389 54.052 83.9335 54.052 83.4335C54.052 82.9309 53.6453 82.5215 53.14 82.5215Z" fill="white"/>
</g>
<mask id="mask38_1_20166" style="mask-type:luminance" maskUnits="userSpaceOnUse" x="-183" y="-519" width="794" height="1123">
<path d="M-183 -519H610.707V603.52H-183V-519Z" fill="white"/>
</mask>
<g mask="url(#mask38_1_20166)">
<path d="M27.1035 41.9101C27.1035 33.2341 34.1315 26.1927 42.8168 26.1927V-0.431274H40.2768C39.1448 -0.431274 38.2981 0.422058 38.1635 1.47006L37.1261 7.60206C36.8661 8.74739 35.3635 9.18607 35.3635 9.18607H35.3821C34.4181 9.40473 33.4675 9.64606 32.5355 9.93806C32.3141 9.98473 30.9928 10.2287 30.2648 9.44073L26.2981 4.6394C25.6581 3.80473 24.4901 3.49007 23.5208 4.0554L19.2621 6.51273C18.2835 7.07273 17.9915 8.23672 18.3808 9.2114L20.5688 15.0407C20.9035 16.1621 19.8275 17.2981 19.8275 17.2981L19.8515 17.2834C19.1235 17.9461 18.4315 18.6381 17.7741 19.3514L17.7888 19.3314C17.7888 19.3314 16.6568 20.4181 15.5301 20.0741L9.70347 17.8861C8.72614 17.4967 7.56214 17.7994 6.99681 18.7687L4.5408 23.0314C3.98347 24.0047 4.29547 25.1634 5.13414 25.8127L9.93547 29.7714C10.7235 30.5034 10.4728 31.8434 10.4221 32.0501C10.1395 32.9741 9.89414 33.9247 9.68214 34.8834V34.8701C9.68214 34.8701 9.22614 36.3821 8.09547 36.6447L1.95547 37.6687C0.910139 37.8034 0.0541382 38.6487 0.0541382 39.7727V44.6954C0.0541382 45.8314 0.910139 46.6701 1.95547 46.7994L8.09547 47.8394C9.22614 48.0967 9.68214 49.6047 9.68214 49.6047V49.5941C9.89414 50.5501 10.1395 51.4954 10.4221 52.4301C10.4728 52.6461 10.7235 53.9714 9.93547 54.7167L5.13414 58.6621C4.29547 59.3101 3.98347 60.4741 4.5408 61.4434L6.99681 65.6954C7.56214 66.6807 8.72614 66.9847 9.70347 66.5781L15.5301 64.4101C16.6568 64.0607 17.7888 65.1461 17.7888 65.1461L17.7741 65.1234C18.4315 65.8474 19.1235 66.5314 19.8515 67.1901L19.8275 67.1807C19.8275 67.1807 20.9035 68.3154 20.5688 69.4381L18.3808 75.2634C17.9915 76.2381 18.2835 77.4021 19.2621 77.9621L23.5208 80.4274C24.4901 80.9901 25.6581 80.6674 26.2981 79.8341L30.2648 75.0314C31.0075 74.2221 32.3888 74.5034 32.5515 74.5314C33.4821 74.8287 34.4275 75.0781 35.3875 75.2927H35.3635C35.3635 75.2927 36.8661 75.7327 37.1261 76.8674L38.1635 83.0141C38.2981 84.0607 39.1448 84.9141 40.2768 84.9141H42.8168V57.6181C34.1315 57.6181 27.1035 50.5861 27.1035 41.9101Z" fill="#024EA2"/>
</g>
<mask id="mask39_1_20166" style="mask-type:luminance" maskUnits="userSpaceOnUse" x="-183" y="-519" width="794" height="1123">
<path d="M-183 -519H610.707V603.52H-183V-519Z" fill="white"/>
</mask>
<g mask="url(#mask39_1_20166)">
<path d="M217 26.4973C217 26.4973 209.132 26.5253 209.027 26.4973V20.3919H201.379V46.9199H209.027V33.7826H209.052H217V26.4973Z" fill="#231F20"/>
</g>
<mask id="mask40_1_20166" style="mask-type:luminance" maskUnits="userSpaceOnUse" x="-183" y="-519" width="794" height="1123">
<path d="M-183 -519H610.707V603.52H-183V-519Z" fill="white"/>
</mask>
<g mask="url(#mask40_1_20166)">
<path d="M209.055 57.4144C209.055 57.4144 190.174 57.4851 190.093 57.4144V49.3811H182.693V64.6851H209.055V57.4144Z" fill="#231F20"/>
</g>
<mask id="mask41_1_20166" style="mask-type:luminance" maskUnits="userSpaceOnUse" x="-183" y="-519" width="794" height="1123">
<path d="M-183 -519H610.707V603.52H-183V-519Z" fill="white"/>
</mask>
<g mask="url(#mask41_1_20166)">
<path d="M180.339 41.9049C182.364 40.1863 184.113 38.3916 185.604 36.5729C188.223 38.9676 195.845 45.2036 195.845 45.2036L200.433 39.5743C200.433 39.5743 195.18 35.0369 193.272 33.2743C191.352 31.5143 189.736 29.7223 189.736 29.6756C189.875 28.8583 190.252 27.1116 190.252 24.9049V20.3889L182.019 20.3916V24.9049C182.019 30.7129 177.817 34.2196 176.12 35.8369C174.44 37.4743 169.395 40.9183 169.395 40.9183L174.176 46.2529C174.176 46.2529 178.215 43.7116 180.339 41.9049Z" fill="#231F20"/>
</g>
<mask id="mask42_1_20166" style="mask-type:luminance" maskUnits="userSpaceOnUse" x="-183" y="-519" width="794" height="1123">
<path d="M-183 -519H610.707V603.52H-183V-519Z" fill="white"/>
</mask>
<g mask="url(#mask42_1_20166)">
<path d="M250.003 56.9978C248.887 58.1045 247.572 58.6511 245.992 58.6511C244.411 58.6511 243.119 58.1045 242.001 56.9978C240.895 55.8831 240.345 54.5805 240.345 52.9978C240.345 51.4245 240.895 50.1071 242.007 48.9698C243.119 47.8498 244.42 47.2951 245.992 47.2951C247.572 47.2951 248.879 47.8498 249.996 48.9698C251.097 50.1071 251.652 51.4245 251.652 52.9978C251.652 54.5805 251.097 55.8831 250.003 56.9978ZM229.721 41.9045C231.744 40.1858 233.501 38.3911 234.983 36.5725C236.233 37.7098 238.595 39.7125 240.749 41.5005C239.431 42.1098 238.209 42.9605 237.093 44.0631C234.611 46.5111 233.361 49.5218 233.361 52.9978C233.361 56.4431 234.611 59.4405 237.089 61.9098C239.563 64.3805 242.555 65.6338 245.992 65.6338C249.479 65.6338 252.496 64.3805 254.931 61.9018C257.384 59.4298 258.633 56.4351 258.633 52.9978V35.3845C258.683 35.3845 258.633 35.3818 258.633 35.3818H266.585V28.1525H258.633C258.633 28.1525 258.641 28.1525 258.657 28.1578C258.649 28.1525 258.645 28.1525 258.633 28.1525V20.3911H251.001V40.4858L249.816 39.5738C249.816 39.5738 244.564 35.0365 242.655 33.2751C240.74 31.5138 239.124 29.7218 239.124 29.6751C239.253 28.8551 239.636 27.1058 239.636 24.9045V20.3885L231.404 20.3911V24.9045C231.404 30.7138 227.2 34.2205 225.508 35.8365C223.82 37.4738 218.777 40.9165 218.777 40.9165L223.56 46.2525C223.56 46.2525 227.603 43.7111 229.721 41.9045Z" fill="#231F20"/>
</g>
<mask id="mask43_1_20166" style="mask-type:luminance" maskUnits="userSpaceOnUse" x="-183" y="-519" width="794" height="1123">
<path d="M-183 -519H610.707V603.52H-183V-519Z" fill="white"/>
</mask>
<g mask="url(#mask43_1_20166)">
<path d="M352.494 55.1408C352.504 55.1435 352.51 55.1542 352.494 55.1408V55.1408ZM336.791 39.3435C335.65 39.3435 334.675 38.9382 333.855 38.1155C333.016 37.2875 332.618 36.3155 332.618 35.1568C332.618 34.0075 333.016 33.0422 333.855 32.2115C334.675 31.3702 335.65 30.9782 336.791 30.9782C337.952 30.9782 338.915 31.3702 339.746 32.2115C340.578 33.0422 340.983 34.0075 340.983 35.1568C340.983 36.3155 340.578 37.2808 339.746 38.1155C338.915 38.9382 337.952 39.3435 336.791 39.3435ZM352.48 64.6875H360.116V20.3915H352.48C352.48 20.3915 352.436 29.1022 352.48 31.1822V47.9195C352.452 47.9302 352.48 47.9302 352.48 47.9302H340.538V45.7222C342.712 44.9408 344.546 43.6182 345.952 41.7635C347.455 39.7982 348.215 37.5142 348.215 34.9675C348.215 33.9928 348.098 33.0528 347.874 32.1835C347.746 31.6782 347.527 31.2062 347.332 30.7275H350.284V23.7195H340.794V18.8862H333.144V23.7195H323.006V30.7328C323.006 30.7328 325.988 30.7488 326.272 30.7328C326.082 31.2142 325.858 31.6808 325.728 32.1835C325.502 33.0528 325.391 33.9875 325.391 34.9675C325.391 37.5555 326.155 39.8662 327.679 41.8262C329.131 43.7035 330.988 45.0395 333.19 45.7968V47.9302H321.491V55.1328H352.48V64.6875Z" fill="#231F20"/>
</g>
<mask id="mask44_1_20166" style="mask-type:luminance" maskUnits="userSpaceOnUse" x="-183" y="-519" width="794" height="1123">
<path d="M-183 -519H610.707V603.52H-183V-519Z" fill="white"/>
</mask>
<g mask="url(#mask44_1_20166)">
<path d="M379.03 32.5739C379.03 30.9072 379.607 29.5165 380.781 28.3259C381.942 27.1325 383.319 26.5579 384.981 26.5579C386.631 26.5579 388.009 27.1325 389.174 28.3259C390.347 29.5165 390.925 30.9072 390.925 32.5739C390.925 34.2259 390.355 35.6059 389.181 36.7712C388.017 37.9405 386.637 38.5059 384.981 38.5059C383.317 38.5059 381.937 37.9405 380.771 36.7712C379.607 35.6059 379.03 34.2259 379.03 32.5739ZM394.39 41.9432C396.973 39.3339 398.275 36.1832 398.275 32.5739C398.275 28.9072 396.973 25.7325 394.385 23.1565C391.795 20.5739 388.639 19.2712 384.981 19.2712C381.359 19.2712 378.209 20.5739 375.599 23.1565C372.997 25.7325 371.682 28.9045 371.682 32.5739C371.682 36.1912 372.997 39.3432 375.595 41.9485C378.209 44.5445 381.359 45.8672 384.981 45.8672C388.646 45.8672 391.795 44.5445 394.39 41.9432Z" fill="#231F20"/>
</g>
<mask id="mask45_1_20166" style="mask-type:luminance" maskUnits="userSpaceOnUse" x="-183" y="-519" width="794" height="1123">
<path d="M-183 -519H610.707V603.52H-183V-519Z" fill="white"/>
</mask>
<g mask="url(#mask45_1_20166)">
<path d="M296.829 56.9978C295.717 58.1045 294.411 58.6511 292.829 58.6511C291.259 58.6511 289.949 58.1045 288.837 56.9978C287.715 55.8831 287.189 54.5805 287.189 52.9978C287.189 51.4245 287.723 50.1071 288.837 48.9698C289.949 47.8498 291.259 47.2951 292.829 47.2951C294.411 47.2951 295.712 47.8498 296.817 48.9698C297.941 50.1071 298.489 51.4245 298.489 52.9978C298.489 54.5805 297.941 55.8831 296.829 56.9978ZM280.196 52.9978C280.196 56.4431 281.449 59.4405 283.928 61.9098C286.396 64.3805 289.397 65.6338 292.829 65.6338C296.321 65.6338 299.321 64.3805 301.769 61.9018C304.221 59.4298 305.46 56.4351 305.46 52.9978C305.46 50.9125 305.004 48.9951 304.116 47.2658H314.081V39.8338H307.756H305.46V20.3911H277.62V27.5231H297.972V39.8338H291.441V32.6031H283.753V39.8338H269.256V47.2658H281.553C280.66 48.9951 280.196 50.9125 280.196 52.9978Z" fill="#231F20"/>
</g>
<mask id="mask46_1_20166" style="mask-type:luminance" maskUnits="userSpaceOnUse" x="-183" y="-519" width="794" height="1123">
<path d="M-183 -519H610.707V603.52H-183V-519Z" fill="white"/>
</mask>
<g mask="url(#mask46_1_20166)">
<path d="M411.246 20.3289H403.443V47.9849H371.082V55.4196H403.443V64.8076H411.246V20.3289Z" fill="#231F20"/>
</g>
<mask id="mask47_1_20166" style="mask-type:luminance" maskUnits="userSpaceOnUse" x="-183" y="-519" width="794" height="1123">
<path d="M-183 -519H610.707V603.52H-183V-519Z" fill="white"/>
</mask>
<g mask="url(#mask47_1_20166)">
<path d="M446.762 52.2245C446.756 52.1538 446.751 44.4978 446.751 44.4978H439.062C439.062 44.4978 439.09 52.2032 439.062 52.2245C439.062 52.2298 420.407 52.2245 420.407 52.2245V59.5005H465.24V52.2245C465.24 52.2245 446.835 52.2352 446.762 52.2245Z" fill="#231F20"/>
</g>
<mask id="mask48_1_20166" style="mask-type:luminance" maskUnits="userSpaceOnUse" x="-183" y="-519" width="794" height="1123">
<path d="M-183 -519H610.707V603.52H-183V-519Z" fill="white"/>
</mask>
<g mask="url(#mask48_1_20166)">
<path d="M447.257 20.1666H439.147V23.1853C439.147 24.6199 439.301 31.0919 424.087 39.5293L429.131 44.9719C429.131 44.9719 437.175 41.2093 442.549 34.8053C447.879 40.3386 457.33 45.3679 457.33 45.3679L462.009 39.4799C452.675 34.2559 448.262 29.9413 446.519 27.9426C446.986 26.4906 447.257 24.9679 447.257 23.3813V20.1666Z" fill="#231F20"/>
</g>
<mask id="mask49_1_20166" style="mask-type:luminance" maskUnits="userSpaceOnUse" x="-183" y="-519" width="794" height="1123">
<path d="M-183 -519H610.707V603.52H-183V-519Z" fill="white"/>
</mask>
<g mask="url(#mask49_1_20166)">
<path d="M151.816 32.1338L151.82 36.8565H137.523V32.1338H151.816ZM130.03 20.3031V43.6885H159.318V20.3031H151.82V25.5978H137.567C137.567 25.5978 137.539 25.5965 137.523 25.5898V20.3031H130.03Z" fill="#231F20"/>
</g>
<mask id="mask50_1_20166" style="mask-type:luminance" maskUnits="userSpaceOnUse" x="-183" y="-519" width="794" height="1123">
<path d="M-183 -519H610.707V603.52H-183V-519Z" fill="white"/>
</mask>
<g mask="url(#mask50_1_20166)">
<path d="M166.906 46.9979H122V54.3592C122 54.3592 140.734 54.2792 140.539 54.3592V65.4272H148.296V54.3592C148.296 54.2872 166.906 54.3592 166.906 54.3592V46.9979Z" fill="#231F20"/>
</g>
</g>
<defs>
<linearGradient id="paint0_linear_1_20166" x1="117.532" y1="42.2412" x2="22.2781" y2="42.2412" gradientUnits="userSpaceOnUse">
<stop stop-color="white"/>
<stop offset="0.318766" stop-color="#00AEEF"/>
<stop offset="0.544937" stop-color="#00AEEF"/>
<stop offset="0.545122" stop-color="#00AEEF"/>
<stop offset="0.545898" stop-color="#00AEEF"/>
<stop offset="1" stop-color="#00AEEF"/>
</linearGradient>
<clipPath id="clip0_1_20166">
<rect width="465" height="85" fill="white"/>
</clipPath>
</defs>
</svg>
