<svg width="572" height="65" viewBox="0 0 572 65" fill="none" xmlns="http://www.w3.org/2000/svg">
<g clip-path="url(#clip0_18_2969)">
<path d="M290.655 64.7949H293.552V-0.113074H290.655V64.7949Z" fill="#231F20"/>
<path d="M523.953 17.4653V3.2506H494.241V7.43327H518.338V17.4653H508.393V10.7159H502.798V17.4653H490.284V21.6626H528.101V17.4653H523.953Z" fill="#231F20"/>
<mask id="mask0_18_2969" style="mask-type:luminance" maskUnits="userSpaceOnUse" x="-133" y="-512" width="794" height="1123">
<path d="M-133 -512H660.333V610.667H-133V-512Z" fill="white"/>
</mask>
<g mask="url(#mask0_18_2969)">
<path d="M509.117 37.8772C505.504 37.8772 501.939 36.7572 500.228 35.1012C499.565 34.4479 499.221 33.7519 499.221 33.0412C499.221 32.3239 499.565 31.6346 500.233 30.9746C501.951 29.3159 505.516 28.1932 509.117 28.1932C512.713 28.1932 516.279 29.3159 518.001 30.9746C518.669 31.6346 519.019 32.3239 519.019 33.0412C519.019 35.6159 514.381 37.8772 509.117 37.8772ZM509.117 24.0066C500.529 24.0066 493.536 28.0532 493.536 33.0412C493.536 34.6399 494.248 36.2119 495.625 37.5826C498.403 40.3652 503.571 42.0879 509.117 42.0879C514.664 42.0879 519.832 40.3652 522.603 37.5826C523.989 36.2119 524.711 34.6399 524.711 33.0412C524.711 31.4426 523.989 29.8639 522.603 28.4986C519.832 25.7106 514.664 24.0066 509.117 24.0066Z" fill="#231F20"/>
</g>
<mask id="mask1_18_2969" style="mask-type:luminance" maskUnits="userSpaceOnUse" x="-133" y="-512" width="794" height="1123">
<path d="M-133 -512H660.333V610.667H-133V-512Z" fill="white"/>
</mask>
<g mask="url(#mask1_18_2969)">
<path d="M422.5 39.0944C419.249 39.0944 416.091 38.0757 414.46 36.5157C413.743 35.8117 413.363 35.053 413.363 34.2637C413.363 33.465 413.748 32.701 414.467 31.9917C416.097 30.4184 419.249 29.425 422.5 29.425C425.752 29.425 428.903 30.4184 430.523 31.9917C431.257 32.701 431.625 33.465 431.625 34.2637C431.625 36.8797 427.451 39.0944 422.5 39.0944ZM422.5 25.2237C414.345 25.2237 407.727 29.2824 407.727 34.2637C407.727 35.9344 408.484 37.569 409.888 38.989C412.592 41.6984 417.307 43.3037 422.5 43.3037C427.687 43.3037 432.403 41.6984 435.119 38.989C436.523 37.569 437.275 35.9344 437.275 34.2637C437.275 32.5837 436.523 30.9424 435.119 29.5304C432.403 26.8277 427.687 25.2237 422.5 25.2237Z" fill="#231F20"/>
</g>
<mask id="mask2_18_2969" style="mask-type:luminance" maskUnits="userSpaceOnUse" x="-133" y="-512" width="794" height="1123">
<path d="M-133 -512H660.333V610.667H-133V-512Z" fill="white"/>
</mask>
<g mask="url(#mask2_18_2969)">
<path d="M436.419 10.4126V3.65663H430.813V24.7793H436.419V14.598H442.642V10.4126H436.419Z" fill="#231F20"/>
</g>
<mask id="mask3_18_2969" style="mask-type:luminance" maskUnits="userSpaceOnUse" x="-133" y="-512" width="794" height="1123">
<path d="M-133 -512H660.333V610.667H-133V-512Z" fill="white"/>
</mask>
<g mask="url(#mask3_18_2969)">
<path d="M407.961 15.4295C407.961 13.9629 408.677 12.5535 409.894 11.6042C410.864 10.8642 412.068 10.4575 413.326 10.4575C414.573 10.4575 415.802 10.8642 416.761 11.6042C417.994 12.5535 418.694 13.9629 418.694 15.4295C418.694 18.1869 416.284 20.4109 413.326 20.4109C412.068 20.4109 410.864 20.0042 409.894 19.2629C408.677 18.3109 407.961 16.9175 407.961 15.4295ZM421.205 21.7109C423.097 20.0589 424.126 17.8735 424.126 15.5882C424.126 13.3122 423.097 11.1349 421.205 9.46952C421.14 9.41219 421.086 9.37619 421.03 9.32152H425.054V5.15086H416.453V1.67619H410.19V5.15086H401.613V9.32152H405.636C403.709 10.9455 402.521 13.1469 402.521 15.5882C402.521 17.8735 403.558 20.0589 405.454 21.7109C407.521 23.5282 410.317 24.5269 413.326 24.5269C416.34 24.5269 419.14 23.5282 421.205 21.7109Z" fill="#231F20"/>
</g>
<mask id="mask4_18_2969" style="mask-type:luminance" maskUnits="userSpaceOnUse" x="-133" y="-512" width="794" height="1123">
<path d="M-133 -512H660.333V610.667H-133V-512Z" fill="white"/>
</mask>
<g mask="url(#mask4_18_2969)">
<path d="M389.771 10.0692V3.31718H384.176V29.2705H389.771V14.2758H395.999V10.0692H389.771Z" fill="#231F20"/>
</g>
<mask id="mask5_18_2969" style="mask-type:luminance" maskUnits="userSpaceOnUse" x="-133" y="-512" width="794" height="1123">
<path d="M-133 -512H660.333V610.667H-133V-512Z" fill="white"/>
</mask>
<g mask="url(#mask5_18_2969)">
<path d="M365.131 3.33501V9.02968C365.131 15.7217 359.233 20.3417 355.927 21.0217L355.746 21.0577V25.187L355.981 25.1737C359.511 24.927 364.937 22.3043 368.215 17.9403C371.495 22.3043 376.937 24.927 380.441 25.1737L380.682 25.187V21.0577L380.506 21.0217C377.207 20.3417 371.293 15.7217 371.293 9.02968V3.33501H365.131Z" fill="#231F20"/>
</g>
<mask id="mask6_18_2969" style="mask-type:luminance" maskUnits="userSpaceOnUse" x="-133" y="-512" width="794" height="1123">
<path d="M-133 -512H660.333V610.667H-133V-512Z" fill="white"/>
</mask>
<g mask="url(#mask6_18_2969)">
<path d="M366.389 37.4645V28.2818H360.795V37.7752C360.795 38.9818 361.155 39.9578 361.823 40.6352C362.493 41.3098 363.485 41.6592 364.679 41.6592H389.783V37.4645H366.389Z" fill="#231F20"/>
</g>
<mask id="mask7_18_2969" style="mask-type:luminance" maskUnits="userSpaceOnUse" x="-133" y="-512" width="794" height="1123">
<path d="M-133 -512H660.333V610.667H-133V-512Z" fill="white"/>
</mask>
<g mask="url(#mask7_18_2969)">
<path d="M453.856 8.34672H463.868V19.9414H453.856V8.34672ZM469.468 20.2294V4.17472H448.278V20.2294C448.26 22.6507 449.706 24.1054 452.145 24.124H465.606C468.04 24.1054 469.486 22.6507 469.468 20.2294Z" fill="#231F20"/>
</g>
<mask id="mask8_18_2969" style="mask-type:luminance" maskUnits="userSpaceOnUse" x="-133" y="-512" width="794" height="1123">
<path d="M-133 -512H660.333V610.667H-133V-512Z" fill="white"/>
</mask>
<g mask="url(#mask8_18_2969)">
<path d="M480.273 10.0692V3.31718H474.671V29.2705H480.273V14.2758H486.501V10.0692H480.273Z" fill="#231F20"/>
</g>
<mask id="mask9_18_2969" style="mask-type:luminance" maskUnits="userSpaceOnUse" x="-133" y="-512" width="794" height="1123">
<path d="M-133 -512H660.333V610.667H-133V-512Z" fill="white"/>
</mask>
<g mask="url(#mask9_18_2969)">
<path d="M456.759 37.4645V28.2818H451.164V37.7752C451.164 38.9818 451.531 39.9578 452.199 40.6352C452.862 41.3098 453.855 41.6592 455.048 41.6592H480.248V37.4645H456.759Z" fill="#231F20"/>
</g>
<mask id="mask10_18_2969" style="mask-type:luminance" maskUnits="userSpaceOnUse" x="-133" y="-512" width="794" height="1123">
<path d="M-133 -512H660.333V610.667H-133V-512Z" fill="white"/>
</mask>
<g mask="url(#mask10_18_2969)">
<path d="M314.32 25.1995V29.3889H330.403V41.4009H335.998V29.3889H352.122V25.1995H314.32Z" fill="#231F20"/>
</g>
<mask id="mask11_18_2969" style="mask-type:luminance" maskUnits="userSpaceOnUse" x="-133" y="-512" width="794" height="1123">
<path d="M-133 -512H660.333V610.667H-133V-512Z" fill="white"/>
</mask>
<g mask="url(#mask11_18_2969)">
<path d="M322.831 12.9627H343.587V17.2454H322.831V12.9627ZM343.587 3.58276V8.75875H322.831V3.58276H317.248V17.5881C317.241 18.7694 317.591 19.7574 318.259 20.4347C318.916 21.1067 319.916 21.4654 321.103 21.4761H345.321C346.52 21.4654 347.513 21.1067 348.188 20.4347C348.844 19.7574 349.195 18.7694 349.188 17.5881V3.58276H343.587Z" fill="#231F20"/>
</g>
<mask id="mask12_18_2969" style="mask-type:luminance" maskUnits="userSpaceOnUse" x="-133" y="-512" width="794" height="1123">
<path d="M-133 -512H660.333V610.667H-133V-512Z" fill="white"/>
</mask>
<g mask="url(#mask12_18_2969)">
<path d="M546.617 13.4809V3.39827H540.444V13.4809C540.444 20.2183 534.921 26.0756 531.192 27.8943L531.079 27.9636V32.3569L531.355 32.2823C535.3 31.1529 540.684 27.7103 543.539 23.2236C546.376 27.7103 551.772 31.1529 555.711 32.2823L555.988 32.3569V27.9636L555.868 27.8943C552.135 26.0756 546.617 20.2183 546.617 13.4809Z" fill="#231F20"/>
</g>
<mask id="mask13_18_2969" style="mask-type:luminance" maskUnits="userSpaceOnUse" x="-133" y="-512" width="794" height="1123">
<path d="M-133 -512H660.333V610.667H-133V-512Z" fill="white"/>
</mask>
<g mask="url(#mask13_18_2969)">
<path d="M565.432 13.258V3.31665H559.844V41.6606H565.432V17.4473H571.667V13.258H565.432Z" fill="#231F20"/>
</g>
<mask id="mask14_18_2969" style="mask-type:luminance" maskUnits="userSpaceOnUse" x="-133" y="-512" width="794" height="1123">
<path d="M-133 -512H660.333V610.667H-133V-512Z" fill="white"/>
</mask>
<g mask="url(#mask14_18_2969)">
<path d="M324.12 56.5526C324.12 56.1246 324.048 55.7886 323.872 55.5526C323.717 55.3232 323.438 55.1446 323.041 55.0272C322.77 54.9592 322.398 54.9112 321.926 54.8992H320.445H319.688V58.2726H319.94C320.91 58.2726 321.609 58.2726 322.024 58.2646C322.446 58.2526 322.83 58.1686 323.188 58.0192C323.54 57.8712 323.8 57.6699 323.916 57.4152C324.065 57.1632 324.12 56.8766 324.12 56.5526ZM323.306 51.0592C323.306 50.8366 323.253 50.6099 323.138 50.3819C323.03 50.1526 322.83 49.9872 322.548 49.8766C322.289 49.7766 321.976 49.7286 321.601 49.7192C321.229 49.7072 320.7 49.7072 320.018 49.7072H319.688V52.5832H320.234C320.777 52.5832 321.241 52.5766 321.633 52.5592C322.018 52.5472 322.318 52.4832 322.548 52.3739C322.856 52.2366 323.058 52.0592 323.156 51.8366C323.258 51.6099 323.306 51.3552 323.306 51.0592ZM327.704 56.5939C327.704 57.2419 327.577 57.8232 327.317 58.3339C327.052 58.8406 326.698 59.2646 326.24 59.5992C325.716 60.0006 325.132 60.2832 324.493 60.4459C323.856 60.6192 323.053 60.6992 322.084 60.6992H316.229V47.2766H321.445C322.529 47.2766 323.313 47.3072 323.818 47.3819C324.324 47.4539 324.825 47.6112 325.313 47.8579C325.825 48.1166 326.204 48.4686 326.45 48.9059C326.704 49.3366 326.829 49.8419 326.829 50.3939C326.829 51.0539 326.654 51.6219 326.318 52.1152C325.976 52.6126 325.486 53.0046 324.868 53.2806V53.3539C325.741 53.5232 326.426 53.8872 326.938 54.4339C327.452 54.9832 327.704 55.6992 327.704 56.5939Z" fill="#231F20"/>
</g>
<mask id="mask15_18_2969" style="mask-type:luminance" maskUnits="userSpaceOnUse" x="-133" y="-512" width="794" height="1123">
<path d="M-133 -512H660.333V610.667H-133V-512Z" fill="white"/>
</mask>
<g mask="url(#mask15_18_2969)">
<path d="M341.352 55.836C341.352 57.4947 340.845 58.7587 339.84 59.6467C338.828 60.5307 337.328 60.9707 335.366 60.9707C333.401 60.9707 331.902 60.5307 330.896 59.6467C329.89 58.7587 329.382 57.4947 329.382 55.848V47.276H332.846V55.6707C332.846 56.6054 333.046 57.3094 333.433 57.7654C333.836 58.224 334.473 58.4467 335.366 58.4467C336.24 58.4467 336.877 58.236 337.286 57.7867C337.689 57.3534 337.888 56.648 337.888 55.6707V47.276H341.352V55.836Z" fill="#231F20"/>
</g>
<mask id="mask16_18_2969" style="mask-type:luminance" maskUnits="userSpaceOnUse" x="-133" y="-512" width="794" height="1123">
<path d="M-133 -512H660.333V610.667H-133V-512Z" fill="white"/>
</mask>
<g mask="url(#mask16_18_2969)">
<path d="M354.507 56.4884C354.507 57.8164 353.933 58.8951 352.812 59.7297C351.695 60.5577 350.163 60.9697 348.249 60.9697C347.135 60.9697 346.164 60.8697 345.344 60.6791C344.509 60.4884 343.737 60.2351 343.013 59.9351V56.7177H343.393C344.109 57.2871 344.907 57.7231 345.792 58.0244C346.676 58.3337 347.525 58.4817 348.345 58.4817C348.548 58.4817 348.819 58.4631 349.171 58.4271C349.507 58.3951 349.791 58.3337 350 58.2471C350.267 58.1417 350.489 58.0004 350.656 57.8404C350.825 57.6751 350.916 57.4351 350.916 57.1191C350.916 56.8164 350.784 56.5644 350.543 56.3471C350.291 56.1404 349.928 55.9697 349.447 55.8591C348.948 55.7404 348.411 55.6191 347.852 55.5164C347.291 55.4164 346.767 55.2751 346.273 55.1124C345.152 54.7404 344.34 54.2471 343.845 53.6191C343.352 52.9831 343.105 52.1991 343.105 51.2644C343.105 50.0111 343.659 48.9804 344.785 48.1951C345.905 47.3937 347.339 46.9924 349.103 46.9924C349.983 46.9924 350.851 47.0857 351.716 47.2591C352.573 47.4297 353.319 47.6404 353.952 47.8991V51.0057H353.579C353.043 50.5577 352.387 50.1884 351.597 49.8817C350.825 49.5831 350.032 49.4297 349.219 49.4297C348.928 49.4297 348.645 49.4484 348.363 49.4884C348.075 49.5337 347.803 49.6044 347.536 49.7231C347.309 49.8177 347.111 49.9591 346.941 50.1471C346.767 50.3431 346.688 50.5577 346.688 50.7991C346.688 51.1591 346.827 51.4351 347.091 51.6217C347.369 51.8111 347.875 51.9897 348.621 52.1391C349.109 52.2391 349.58 52.3497 350.036 52.4417C350.495 52.5404 350.977 52.6697 351.493 52.8431C352.519 53.1831 353.277 53.6337 353.765 54.2231C354.253 54.8044 354.507 55.5577 354.507 56.4884Z" fill="#231F20"/>
</g>
<mask id="mask17_18_2969" style="mask-type:luminance" maskUnits="userSpaceOnUse" x="-133" y="-512" width="794" height="1123">
<path d="M-133 -512H660.333V610.667H-133V-512Z" fill="white"/>
</mask>
<g mask="url(#mask17_18_2969)">
<path d="M363.203 55.529L361.552 50.7464L359.908 55.529H363.203ZM368.559 60.6997H364.968L364.022 57.965H359.09L358.144 60.6997H354.644L359.608 47.277H363.595L368.559 60.6997Z" fill="#231F20"/>
</g>
<mask id="mask18_18_2969" style="mask-type:luminance" maskUnits="userSpaceOnUse" x="-133" y="-512" width="794" height="1123">
<path d="M-133 -512H660.333V610.667H-133V-512Z" fill="white"/>
</mask>
<g mask="url(#mask18_18_2969)">
<path d="M382.02 60.6992H378.669L372.968 51.4872V60.6992H369.774V47.2766H373.925L378.826 54.9632V47.2766H382.02V60.6992Z" fill="#231F20"/>
</g>
<mask id="mask19_18_2969" style="mask-type:luminance" maskUnits="userSpaceOnUse" x="-133" y="-512" width="794" height="1123">
<path d="M-133 -512H660.333V610.667H-133V-512Z" fill="white"/>
</mask>
<g mask="url(#mask19_18_2969)">
<path d="M400.185 51.6006C400.185 51.2246 400.083 50.9006 399.878 50.6219C399.666 50.3512 399.433 50.1646 399.161 50.0526C398.793 49.9099 398.445 49.8366 398.094 49.8179C397.75 49.8006 397.287 49.7939 396.721 49.7939H396.119V53.8059H397.118C397.71 53.8059 398.203 53.7699 398.583 53.6926C398.967 53.6246 399.287 53.4779 399.553 53.2632C399.775 53.0712 399.931 52.8432 400.046 52.5752C400.137 52.3126 400.185 51.9899 400.185 51.6006ZM403.774 51.5046C403.774 52.1072 403.671 52.6939 403.462 53.2686C403.245 53.8472 402.943 54.3286 402.546 54.7179C402.01 55.2539 401.414 55.6459 400.751 55.9166C400.089 56.1872 399.269 56.3232 398.281 56.3232H396.119V60.6992H392.651V47.2766H398.373C399.226 47.2766 399.942 47.3459 400.541 47.4939C401.123 47.6352 401.649 47.8579 402.099 48.1579C402.637 48.5112 403.057 48.9659 403.341 49.5126C403.629 50.0712 403.774 50.7272 403.774 51.5046Z" fill="#231F20"/>
</g>
<mask id="mask20_18_2969" style="mask-type:luminance" maskUnits="userSpaceOnUse" x="-133" y="-512" width="794" height="1123">
<path d="M-133 -512H660.333V610.667H-133V-512Z" fill="white"/>
</mask>
<g mask="url(#mask20_18_2969)">
<path d="M414.43 57.3942C414.767 56.9809 415.018 56.5075 415.171 55.9462C415.346 55.3875 415.418 54.7355 415.418 53.9822C415.418 53.1755 415.326 52.4889 415.139 51.9222C414.954 51.3542 414.706 50.8995 414.406 50.5529C414.099 50.1889 413.755 49.9289 413.346 49.7555C412.947 49.5982 412.526 49.5169 412.104 49.5169C411.659 49.5169 411.243 49.5982 410.863 49.7555C410.466 49.9102 410.111 50.1715 409.787 50.5289C409.491 50.8635 409.243 51.3355 409.051 51.9275C408.859 52.5155 408.767 53.2102 408.767 53.9875C408.767 54.7929 408.859 55.4769 409.046 56.0329C409.226 56.5995 409.466 57.0582 409.767 57.4102C410.074 57.7702 410.424 58.0329 410.827 58.1995C411.226 58.3689 411.652 58.4462 412.104 58.4462C412.538 58.4462 412.971 58.3689 413.375 58.1929C413.779 58.0182 414.127 57.7582 414.43 57.3942ZM419.007 53.9822C419.007 56.1369 418.392 57.8275 417.17 59.0862C415.94 60.3395 414.254 60.9702 412.087 60.9702C409.936 60.9702 408.243 60.3395 407.022 59.0862C405.798 57.8275 405.183 56.1369 405.183 53.9822C405.183 51.8355 405.798 50.1275 407.022 48.8742C408.243 47.6222 409.936 46.9929 412.087 46.9929C414.242 46.9929 415.923 47.6222 417.163 48.8742C418.387 50.1275 419.007 51.8355 419.007 53.9822Z" fill="#231F20"/>
</g>
<mask id="mask21_18_2969" style="mask-type:luminance" maskUnits="userSpaceOnUse" x="-133" y="-512" width="794" height="1123">
<path d="M-133 -512H660.333V610.667H-133V-512Z" fill="white"/>
</mask>
<g mask="url(#mask21_18_2969)">
<path d="M428.391 51.3592C428.391 51.0166 428.324 50.7232 428.187 50.4806C428.047 50.2406 427.807 50.0526 427.471 49.9099C427.235 49.8166 426.964 49.7566 426.644 49.7339C426.337 49.7126 425.971 49.7072 425.553 49.7072H424.295V53.3526H425.363C425.921 53.3526 426.379 53.3166 426.759 53.2632C427.132 53.2112 427.445 53.0886 427.697 52.8912C427.94 52.7059 428.113 52.4979 428.228 52.2686C428.349 52.0406 428.391 51.7379 428.391 51.3592ZM433.807 60.6992H429.565L425.897 55.7752H424.295V60.6992H420.832V47.2752H426.656C427.459 47.2752 428.139 47.3192 428.709 47.4126C429.283 47.4979 429.829 47.6952 430.324 47.9926C430.829 48.2939 431.233 48.6832 431.533 49.1579C431.829 49.6392 431.98 50.2326 431.98 50.9579C431.98 51.9526 431.752 52.7579 431.287 53.3859C430.824 54.0152 430.161 54.5339 429.312 54.9526L433.807 60.6992Z" fill="#231F20"/>
</g>
<mask id="mask22_18_2969" style="mask-type:luminance" maskUnits="userSpaceOnUse" x="-133" y="-512" width="794" height="1123">
<path d="M-133 -512H660.333V610.667H-133V-512Z" fill="white"/>
</mask>
<g mask="url(#mask22_18_2969)">
<path d="M444.913 49.8814H440.725V60.6987H437.25V49.8814H433.07V47.2761H444.913V49.8814Z" fill="#231F20"/>
</g>
<mask id="mask23_18_2969" style="mask-type:luminance" maskUnits="userSpaceOnUse" x="-133" y="-512" width="794" height="1123">
<path d="M-133 -512H660.333V610.667H-133V-512Z" fill="white"/>
</mask>
<g mask="url(#mask23_18_2969)">
<path d="M461.065 55.529L459.417 50.7464L457.765 55.529H461.065ZM466.421 60.6997H462.818L461.885 57.965H456.945L456.006 60.6997H452.506L457.464 47.277H461.452L466.421 60.6997Z" fill="#231F20"/>
</g>
<mask id="mask24_18_2969" style="mask-type:luminance" maskUnits="userSpaceOnUse" x="-133" y="-512" width="794" height="1123">
<path d="M-133 -512H660.333V610.667H-133V-512Z" fill="white"/>
</mask>
<g mask="url(#mask24_18_2969)">
<path d="M478.351 55.836C478.351 57.4947 477.851 58.7587 476.834 59.6467C475.823 60.5307 474.334 60.9707 472.359 60.9707C470.401 60.9707 468.901 60.5307 467.901 59.6467C466.89 58.7587 466.389 57.4947 466.389 55.848V47.276H469.847V55.6707C469.847 56.6054 470.046 57.3094 470.442 57.7654C470.834 58.224 471.474 58.4467 472.359 58.4467C473.233 58.4467 473.877 58.236 474.281 57.7867C474.69 57.3534 474.893 56.648 474.893 55.6707V47.276H478.351V55.836Z" fill="#231F20"/>
</g>
<mask id="mask25_18_2969" style="mask-type:luminance" maskUnits="userSpaceOnUse" x="-133" y="-512" width="794" height="1123">
<path d="M-133 -512H660.333V610.667H-133V-512Z" fill="white"/>
</mask>
<g mask="url(#mask25_18_2969)">
<path d="M491.585 49.8814H487.387V60.6987H483.929V49.8814H479.743V47.2761H491.585V49.8814Z" fill="#231F20"/>
</g>
<mask id="mask26_18_2969" style="mask-type:luminance" maskUnits="userSpaceOnUse" x="-133" y="-512" width="794" height="1123">
<path d="M-133 -512H660.333V610.667H-133V-512Z" fill="white"/>
</mask>
<g mask="url(#mask26_18_2969)">
<path d="M504.962 60.6992H501.498V54.8046H496.368V60.6992H492.904V47.2766H496.368V52.1939H501.498V47.2766H504.962V60.6992Z" fill="#231F20"/>
</g>
<mask id="mask27_18_2969" style="mask-type:luminance" maskUnits="userSpaceOnUse" x="-133" y="-512" width="794" height="1123">
<path d="M-133 -512H660.333V610.667H-133V-512Z" fill="white"/>
</mask>
<g mask="url(#mask27_18_2969)">
<path d="M515.473 57.3942C515.809 56.9809 516.057 56.5075 516.219 55.9462C516.389 55.3875 516.465 54.7355 516.465 53.9822C516.465 53.1755 516.375 52.4889 516.182 51.9222C515.995 51.3542 515.755 50.8995 515.447 50.5529C515.141 50.1889 514.797 49.9289 514.393 49.7555C513.997 49.5982 513.575 49.5169 513.147 49.5169C512.714 49.5169 512.285 49.5982 511.899 49.7555C511.515 49.9102 511.153 50.1715 510.834 50.5289C510.533 50.8635 510.278 51.3355 510.087 51.9275C509.906 52.5155 509.81 53.2102 509.81 53.9875C509.81 54.7929 509.901 55.4769 510.087 56.0329C510.267 56.5995 510.514 57.0582 510.817 57.4102C511.115 57.7702 511.467 58.0329 511.877 58.1995C512.274 58.3689 512.694 58.4462 513.147 58.4462C513.587 58.4462 514.013 58.3689 514.413 58.1929C514.822 58.0182 515.166 57.7582 515.473 57.3942ZM520.057 53.9822C520.057 56.1369 519.442 57.8275 518.218 59.0862C516.983 60.3395 515.297 60.9702 513.134 60.9702C510.978 60.9702 509.286 60.3395 508.063 59.0862C506.839 57.8275 506.231 56.1369 506.231 53.9822C506.231 51.8355 506.839 50.1275 508.063 48.8742C509.286 47.6222 510.978 46.9929 513.134 46.9929C515.286 46.9929 516.966 47.6222 518.207 48.8742C519.435 50.1275 520.057 51.8355 520.057 53.9822Z" fill="#231F20"/>
</g>
<mask id="mask28_18_2969" style="mask-type:luminance" maskUnits="userSpaceOnUse" x="-133" y="-512" width="794" height="1123">
<path d="M-133 -512H660.333V610.667H-133V-512Z" fill="white"/>
</mask>
<g mask="url(#mask28_18_2969)">
<path d="M528.872 51.3592C528.872 51.0166 528.8 50.7232 528.663 50.4806C528.524 50.2406 528.283 50.0526 527.951 49.9099C527.711 49.8166 527.434 49.7566 527.126 49.7339C526.806 49.7126 526.446 49.7072 526.03 49.7072H524.766V53.3526H525.839C526.386 53.3526 526.854 53.3166 527.234 53.2632C527.603 53.2112 527.922 53.0886 528.175 52.8912C528.408 52.7059 528.59 52.4979 528.704 52.2686C528.819 52.0406 528.872 51.7379 528.872 51.3592ZM534.27 60.6992H530.042L526.38 55.7752H524.766V60.6992H521.307V47.2752H527.132C527.927 47.2752 528.62 47.3192 529.184 47.4126C529.764 47.4979 530.3 47.6952 530.807 47.9926C531.3 48.2939 531.71 48.6832 532.011 49.1579C532.299 49.6392 532.456 50.2326 532.456 50.9579C532.456 51.9526 532.223 52.7579 531.764 53.3859C531.3 54.0152 530.644 54.5339 529.783 54.9526L534.27 60.6992Z" fill="#231F20"/>
</g>
<mask id="mask29_18_2969" style="mask-type:luminance" maskUnits="userSpaceOnUse" x="-133" y="-512" width="794" height="1123">
<path d="M-133 -512H660.333V610.667H-133V-512Z" fill="white"/>
</mask>
<g mask="url(#mask29_18_2969)">
<path d="M535.451 60.6987H538.908V47.2761H535.451V60.6987Z" fill="#231F20"/>
</g>
<mask id="mask30_18_2969" style="mask-type:luminance" maskUnits="userSpaceOnUse" x="-133" y="-512" width="794" height="1123">
<path d="M-133 -512H660.333V610.667H-133V-512Z" fill="white"/>
</mask>
<g mask="url(#mask30_18_2969)">
<path d="M552.158 49.8814H547.966V60.6987H544.503V49.8814H540.311V47.2761H552.158V49.8814Z" fill="#231F20"/>
</g>
<mask id="mask31_18_2969" style="mask-type:luminance" maskUnits="userSpaceOnUse" x="-133" y="-512" width="794" height="1123">
<path d="M-133 -512H660.333V610.667H-133V-512Z" fill="white"/>
</mask>
<g mask="url(#mask31_18_2969)">
<path d="M566.572 47.2761L561.585 55.5067V60.6987H558.128V55.6707L553.086 47.2761H557.02L559.922 52.4534L562.734 47.2761H566.572Z" fill="#231F20"/>
</g>
<mask id="mask32_18_2969" style="mask-type:luminance" maskUnits="userSpaceOnUse" x="-133" y="-512" width="794" height="1123">
<path d="M-133 -512H660.333V610.667H-133V-512Z" fill="white"/>
</mask>
<g mask="url(#mask32_18_2969)">
<path d="M169.374 36.3591L181.563 15.5765L194.068 36.3591H169.374ZM197.69 3.31648H173.543L139.611 61.1538H154.838L162.55 47.9991L200.971 48.0165L208.922 61.1538H232.538L197.69 3.31648Z" fill="#254AA5"/>
</g>
<mask id="mask33_18_2969" style="mask-type:luminance" maskUnits="userSpaceOnUse" x="-133" y="-512" width="794" height="1123">
<path d="M-133 -512H660.333V610.667H-133V-512Z" fill="white"/>
</mask>
<g mask="url(#mask33_18_2969)">
<path d="M117.146 32.2276C111.21 32.2276 104.362 31.7103 99.4592 29.9063V12.093C103.651 11.5236 111.282 10.877 118.306 11.193C121.142 11.3156 135.863 11.8343 135.982 21.3863C136.115 31.325 123.085 32.2276 117.146 32.2276ZM116.113 0.986296C109.921 0.986296 92.4925 1.6343 81.0019 3.31696V61.1543H99.4592V40.229C101.778 41.0063 115.083 42.2996 119.721 42.2996C124.374 42.2996 157.673 40.8836 157.673 21.1303C157.673 -0.0403715 122.313 0.986296 116.113 0.986296Z" fill="#254AA5"/>
</g>
<mask id="mask34_18_2969" style="mask-type:luminance" maskUnits="userSpaceOnUse" x="-133" y="-512" width="794" height="1123">
<path d="M-133 -512H660.333V610.667H-133V-512Z" fill="white"/>
</mask>
<g mask="url(#mask34_18_2969)">
<path d="M18.4733 36.089C21.8053 35.453 27.2493 35.041 34.8267 34.9476C40.764 34.869 55.1227 34.6583 55.1227 43.477C55.1227 52.1823 40.4093 51.893 37.5653 51.893C34.724 51.893 24.3333 51.7583 18.4733 50.7343V36.089ZM18.4733 12.0476C22.4973 10.9276 32.996 10.5303 35.6933 10.5303C38.3973 10.5303 52.384 10.3223 52.384 18.733C52.384 25.6876 38.8067 25.8836 33.1667 25.8836C30.128 25.8836 22.548 25.7836 18.4733 25.3116V12.0476ZM67.9827 29.0756C71.1573 26.4063 73.2387 22.9036 73.2387 18.317C73.2387 -1.1617 38.852 0.558297 32.9587 0.558297C27.0747 0.558297 12.0707 1.3943 -0.249329 3.24496V59.7716C11.2267 61.4463 28.6587 62.093 34.8507 62.093C41.0587 62.093 76.9387 64.0356 77.0653 42.8583C77.108 36.4716 73.2413 32.0876 67.9827 29.0756Z" fill="#254AA5"/>
</g>
<mask id="mask35_18_2969" style="mask-type:luminance" maskUnits="userSpaceOnUse" x="-133" y="-512" width="794" height="1123">
<path d="M-133 -512H660.333V610.667H-133V-512Z" fill="white"/>
</mask>
<g mask="url(#mask35_18_2969)">
<path d="M218.365 3.30485H269.743L244.404 46.4995L218.365 3.30485Z" fill="#F47216"/>
</g>
</g>
<defs>
<clipPath id="clip0_18_2969">
<rect width="572" height="65" fill="white"/>
</clipPath>
</defs>
</svg>
