<svg width="403" height="58" viewBox="0 0 403 58" fill="none" xmlns="http://www.w3.org/2000/svg">
<g clip-path="url(#clip0_18_2193)">
<path d="M-195.997 627.283H597.704V-438H-195.997V627.283Z" fill="#F6F5F6"/>
<path d="M559.909 581.384H-158.203V-219.238H559.909V581.384Z" fill="white"/>
<mask id="mask0_18_2193" style="mask-type:luminance" maskUnits="userSpaceOnUse" x="-196" y="-438" width="794" height="1066">
<path d="M-196 -438H597.707V627.283H-196V-438Z" fill="white"/>
</mask>
<g mask="url(#mask0_18_2193)">
<path fill-rule="evenodd" clip-rule="evenodd" d="M28.9505 18.6733H20.3612C18.0639 18.6733 17.2532 20.1599 17.2532 21.4333C17.2532 22.7026 18.0639 24.1839 20.3612 24.1839H25.3292C29.2465 24.1839 31.5359 26.6706 32.0572 29.4399V21.4333C32.0572 20.1599 31.2399 18.6733 28.9505 18.6733Z" fill="#0068B7"/>
</g>
<mask id="mask1_18_2193" style="mask-type:luminance" maskUnits="userSpaceOnUse" x="-196" y="-438" width="794" height="1066">
<path d="M-196 -438H597.707V627.283H-196V-438Z" fill="white"/>
</mask>
<g mask="url(#mask1_18_2193)">
<path fill-rule="evenodd" clip-rule="evenodd" d="M49.5256 0.42521C23.5176 0.42521 2.42827 12.4585 2.42827 27.2999C2.42827 29.4119 2.85094 31.4639 3.66161 33.4345H25.3283C27.6256 33.4345 28.4363 31.9532 28.4363 30.6759C28.4363 29.4065 27.6256 27.9172 25.3283 27.9172H20.3603C15.8656 27.9172 13.5123 24.6572 13.5123 21.4332C13.5123 18.2065 15.8656 14.9372 20.3603 14.9372H28.9509C33.4389 14.9372 35.7989 18.2065 35.7989 21.4332V30.7292C35.7989 33.1799 38.1043 33.8319 39.4776 33.8319C40.8509 33.8319 43.1696 33.1799 43.1696 30.7292V28.1132C43.1696 23.6199 46.9043 21.2665 50.5963 21.2665C54.2883 21.2665 58.0309 23.6199 58.0309 28.1132V37.2052H54.2883V28.1132C54.2883 25.6559 51.9709 25.0079 50.5963 25.0079C49.2229 25.0079 46.9109 25.6559 46.9109 28.1132V30.7292C46.9109 35.2199 43.1696 37.5679 39.4776 37.5679C36.0323 37.5679 32.5509 35.5172 32.1069 31.5852C31.7056 34.4865 29.4083 37.1705 25.3283 37.1705H5.70427C12.6029 47.1265 29.6203 54.1719 49.5256 54.1719C75.5403 54.1719 96.6229 42.1439 96.6229 27.2999C96.6229 12.4585 75.5403 0.42521 49.5256 0.42521Z" fill="#0068B7"/>
</g>
<mask id="mask2_18_2193" style="mask-type:luminance" maskUnits="userSpaceOnUse" x="-196" y="-438" width="794" height="1066">
<path d="M-196 -438H597.707V627.283H-196V-438Z" fill="white"/>
</mask>
<g mask="url(#mask2_18_2193)">
<path fill-rule="evenodd" clip-rule="evenodd" d="M25.3288 24.1834H20.3608C18.0635 24.1834 17.2528 22.702 17.2528 21.434C17.2528 20.1594 18.0635 18.6727 20.3608 18.6727H28.9501C31.2408 18.6727 32.0581 20.1594 32.0581 21.434V29.4394C31.5368 26.67 29.2461 24.1834 25.3288 24.1834ZM50.5968 21.2661C46.9048 21.2661 43.1701 23.6194 43.1701 28.1127V30.73C43.1701 33.1794 40.8515 33.8314 39.4781 33.8314C38.1035 33.8314 35.7995 33.1794 35.7995 30.73V21.434C35.7995 18.2061 33.4395 14.9367 28.9501 14.9367H20.3608C15.8661 14.9367 13.5115 18.2061 13.5115 21.434C13.5115 24.6567 15.8661 27.9181 20.3608 27.9181H25.3288C27.6261 27.9181 28.4368 29.406 28.4368 30.6767C28.4368 31.954 27.6261 33.4354 25.3288 33.4354H3.6608C4.18213 34.718 4.8728 35.9647 5.7048 37.17H25.3288C29.4088 37.17 31.7061 34.4874 32.1075 31.5847C32.5515 35.518 36.0315 37.5674 39.4781 37.5674C43.1701 37.5674 46.9115 35.2194 46.9115 30.73V28.1127C46.9115 25.6554 49.2221 25.0087 50.5968 25.0087C51.9701 25.0087 54.2888 25.6554 54.2888 28.1127V37.2047H58.0301V28.1127C58.0301 23.6194 54.2888 21.2661 50.5968 21.2661Z" fill="white"/>
</g>
<mask id="mask3_18_2193" style="mask-type:luminance" maskUnits="userSpaceOnUse" x="-196" y="-438" width="794" height="1066">
<path d="M-196 -438H597.707V627.283H-196V-438Z" fill="white"/>
</mask>
<g mask="url(#mask3_18_2193)">
<path d="M75.8435 33.4348H68.2902V27.9175H75.8435C78.1342 27.9175 78.9502 29.4068 78.9502 30.6762C78.9502 31.9535 78.1342 33.4348 75.8435 33.4348ZM71.3902 18.6735H75.8715C76.8862 18.6735 77.7035 18.9722 78.2462 19.5375C78.7115 20.0242 78.9648 20.6882 78.9648 21.4162C78.9648 22.6908 78.1542 24.1828 75.8435 24.1828H68.2902V21.4335C68.2902 20.1602 69.0928 18.6735 71.3902 18.6735ZM80.7608 26.0548C82.0368 24.8148 82.7062 23.1175 82.7062 21.4162C82.7062 19.7228 82.0782 18.1375 80.9448 16.9508C80.0702 16.0348 78.4715 14.9362 75.8715 14.9362H71.3902C66.9008 14.9362 64.5488 18.2055 64.5488 21.4335V47.5415H68.2902V37.1695H75.8435C80.3382 37.1695 82.6915 33.9068 82.6915 30.6762C82.6915 28.9842 82.0275 27.2935 80.7608 26.0548Z" fill="white"/>
</g>
<mask id="mask4_18_2193" style="mask-type:luminance" maskUnits="userSpaceOnUse" x="-196" y="-438" width="794" height="1066">
<path d="M-196 -438H597.707V627.283H-196V-438Z" fill="white"/>
</mask>
<g mask="url(#mask4_18_2193)">
<path d="M89.2952 37.0571C92.4379 37.0571 94.9805 34.5171 94.9805 31.3798C94.9805 28.2398 92.4379 25.6985 89.2952 25.6985C86.1592 25.6985 83.6219 28.2398 83.6219 31.3798C83.6219 34.5171 86.1592 37.0571 89.2952 37.0571Z" fill="#FDD000"/>
</g>
<mask id="mask5_18_2193" style="mask-type:luminance" maskUnits="userSpaceOnUse" x="-196" y="-438" width="794" height="1066">
<path d="M-196 -438H597.707V627.283H-196V-438Z" fill="white"/>
</mask>
<g mask="url(#mask5_18_2193)">
<path d="M268.706 8.87677V12.9448C274.746 12.9448 279.66 17.8581 279.66 23.8981C279.66 29.9381 274.746 34.8514 268.706 34.8514C262.714 34.8514 257.837 30.0141 257.76 24.0394C257.761 23.9928 257.765 23.9461 257.765 23.8981V21.8634H242.744V25.9314H253.501C252.544 31.0021 248.088 34.8514 242.744 34.8514C236.705 34.8514 231.792 29.9381 231.792 23.8981C231.792 17.8581 236.705 12.9448 242.744 12.9448V8.87677C234.449 8.87677 227.724 15.6021 227.724 23.8981C227.724 32.1941 234.449 38.9194 242.744 38.9194C248.292 38.9194 253.124 35.9034 255.724 31.4301C258.326 35.9034 263.158 38.9194 268.706 38.9194C277.002 38.9194 283.728 32.1941 283.728 23.8981C283.728 15.6021 277.002 8.87677 268.706 8.87677Z" fill="#717F87"/>
</g>
<mask id="mask6_18_2193" style="mask-type:luminance" maskUnits="userSpaceOnUse" x="-196" y="-438" width="794" height="1066">
<path d="M-196 -438H597.707V627.283H-196V-438Z" fill="white"/>
</mask>
<g mask="url(#mask6_18_2193)">
<path d="M257.765 4.83733H244.637L248.705 8.90533H253.697V13.8973L257.765 17.9653V4.83733Z" fill="#FDD000"/>
</g>
<mask id="mask7_18_2193" style="mask-type:luminance" maskUnits="userSpaceOnUse" x="-196" y="-438" width="794" height="1066">
<path d="M-196 -438H597.707V627.283H-196V-438Z" fill="white"/>
</mask>
<g mask="url(#mask7_18_2193)">
<path d="M120.963 9.31483H116.694V38.4722H136.451V34.4868H120.963V9.31483Z" fill="#717F87"/>
</g>
<mask id="mask8_18_2193" style="mask-type:luminance" maskUnits="userSpaceOnUse" x="-196" y="-438" width="794" height="1066">
<path d="M-196 -438H597.707V627.283H-196V-438Z" fill="white"/>
</mask>
<g mask="url(#mask8_18_2193)">
<path d="M144.187 26.0077H158.94V21.9423H139.917V38.4717H160.575V34.4477H144.187V26.0077Z" fill="#717F87"/>
</g>
<mask id="mask9_18_2193" style="mask-type:luminance" maskUnits="userSpaceOnUse" x="-196" y="-438" width="794" height="1066">
<path d="M-196 -438H597.707V627.283H-196V-438Z" fill="white"/>
</mask>
<g mask="url(#mask9_18_2193)">
<path d="M213.576 24.897C212.021 23.045 209.744 21.9703 207.298 21.945L201.372 21.9423C199.086 21.901 197.226 19.9903 197.226 17.6823C197.226 15.3303 199.12 13.417 201.446 13.417H213.286V9.31435H201.222C196.665 9.31435 192.957 13.0597 192.957 17.661C192.957 20.4157 194.305 22.9917 196.56 24.5503C197.938 25.5037 199.55 26.0077 201.222 26.0077H207.021C209.349 26.0077 211.242 27.901 211.242 30.2263C211.242 32.5543 209.349 34.4477 207.021 34.4477H193.765V38.4717H207.246C211.804 38.4717 215.512 34.7637 215.512 30.2063C215.512 28.2677 214.824 26.3823 213.576 24.897Z" fill="#717F87"/>
</g>
<mask id="mask10_18_2193" style="mask-type:luminance" maskUnits="userSpaceOnUse" x="-196" y="-438" width="794" height="1066">
<path d="M-196 -438H597.707V627.283H-196V-438Z" fill="white"/>
</mask>
<g mask="url(#mask10_18_2193)">
<path d="M160.575 9.31435H139.917V13.3383H160.244H160.575H169.495V38.4717H173.764V13.3383H183.013V9.31568L160.575 9.31435Z" fill="#717F87"/>
</g>
<mask id="mask11_18_2193" style="mask-type:luminance" maskUnits="userSpaceOnUse" x="-196" y="-438" width="794" height="1066">
<path d="M-196 -438H597.707V627.283H-196V-438Z" fill="white"/>
</mask>
<g mask="url(#mask11_18_2193)">
<path d="M186.621 13.3389H189.553L191.145 5.47353H186.621V13.3389Z" fill="#717F87"/>
</g>
<mask id="mask12_18_2193" style="mask-type:luminance" maskUnits="userSpaceOnUse" x="-196" y="-438" width="794" height="1066">
<path d="M-196 -438H597.707V627.283H-196V-438Z" fill="white"/>
</mask>
<g mask="url(#mask12_18_2193)">
<path d="M343.762 23.8978C343.762 29.3378 339.336 33.7645 333.896 33.7645C328.456 33.7645 324.03 29.3378 324.03 23.8978C324.03 18.4578 328.456 14.0312 333.896 14.0312C339.336 14.0312 343.762 18.4578 343.762 23.8978ZM333.896 8.86449C325.606 8.86449 318.864 15.6072 318.864 23.8978C318.864 32.1872 325.606 38.9312 333.896 38.9312C342.186 38.9312 348.93 32.1872 348.93 23.8978C348.93 15.6072 342.186 8.86449 333.896 8.86449Z" fill="#0068B7"/>
</g>
<mask id="mask13_18_2193" style="mask-type:luminance" maskUnits="userSpaceOnUse" x="-196" y="-438" width="794" height="1066">
<path d="M-196 -438H597.707V627.283H-196V-438Z" fill="white"/>
</mask>
<g mask="url(#mask13_18_2193)">
<path d="M302.71 26.5549H308.27C310.001 26.5549 311.672 26.0336 313.1 25.0456C315.433 23.4323 316.826 20.7696 316.826 17.9189C316.826 13.1576 312.988 9.28426 308.27 9.28426H296.07V14.4843H308.054C309.936 14.4843 311.466 16.0349 311.466 17.9389C311.466 19.8083 309.962 21.3563 308.126 21.3896L302.438 21.3923C299.917 21.4189 297.549 22.5323 295.942 24.4496C294.649 25.9869 293.938 27.9389 293.938 29.9456C293.938 34.6643 297.777 38.5029 302.494 38.5029H316.053V33.3776H302.71C300.829 33.3776 299.298 31.8469 299.298 29.9656C299.298 28.0856 300.829 26.5549 302.71 26.5549Z" fill="#0068B7"/>
</g>
<mask id="mask14_18_2193" style="mask-type:luminance" maskUnits="userSpaceOnUse" x="-196" y="-438" width="794" height="1066">
<path d="M-196 -438H597.707V627.283H-196V-438Z" fill="white"/>
</mask>
<g mask="url(#mask14_18_2193)">
<path d="M359.731 26.5549H365.291C367.022 26.5549 368.693 26.0336 370.119 25.0456C372.454 23.4323 373.847 20.7696 373.847 17.9189C373.847 13.1576 370.009 9.28426 365.291 9.28426H353.091V14.4843H365.075C366.957 14.4843 368.487 16.0349 368.487 17.9389C368.487 19.8083 366.983 21.3563 365.147 21.3896L359.459 21.3923C356.938 21.4189 354.57 22.5323 352.963 24.4496C351.67 25.9869 350.959 27.9389 350.959 29.9456C350.959 34.6643 354.798 38.5029 359.515 38.5029H373.074V33.3776H359.731C357.85 33.3776 356.319 31.8469 356.319 29.9656C356.319 28.0856 357.85 26.5549 359.731 26.5549Z" fill="#0068B7"/>
</g>
<mask id="mask15_18_2193" style="mask-type:luminance" maskUnits="userSpaceOnUse" x="-196" y="-438" width="794" height="1066">
<path d="M-196 -438H597.707V627.283H-196V-438Z" fill="white"/>
</mask>
<g mask="url(#mask15_18_2193)">
<path d="M397.275 24.4488C395.667 22.5328 393.299 21.4194 390.772 21.3914L382.524 21.3888V14.4848H397.147V9.28342H377.164V21.1434C377.164 24.1314 379.587 26.5541 382.576 26.5541H390.373C392.023 26.5541 393.539 27.6674 393.852 29.2874C394.275 31.4648 392.609 33.3781 390.507 33.3781H377.164V38.5034H390.367C393.568 38.5034 396.653 36.8981 398.201 34.0941C399.987 30.8581 399.467 27.0568 397.275 24.4488Z" fill="#0068B7"/>
</g>
<mask id="mask16_18_2193" style="mask-type:luminance" maskUnits="userSpaceOnUse" x="-196" y="-438" width="794" height="1066">
<path d="M-196 -438H597.707V627.283H-196V-438Z" fill="white"/>
</mask>
<g mask="url(#mask16_18_2193)">
<path d="M119.774 50.479H117.731V48.091H119.906C120.902 48.091 121.521 48.5297 121.521 49.235C121.521 50.0257 120.885 50.479 119.774 50.479ZM117.731 51.427H120.049C121.214 51.427 121.882 51.8604 121.882 52.615C121.882 53.403 121.154 53.9124 120.026 53.9124H117.731V51.427ZM121.515 50.843C122.154 50.5164 122.525 49.907 122.525 49.1484C122.525 47.9297 121.527 47.1444 119.982 47.1444H116.694V54.8604H120.049C121.758 54.8604 122.909 53.995 122.909 52.703C122.909 51.787 122.406 51.1257 121.515 50.843Z" fill="#717F87"/>
</g>
<mask id="mask17_18_2193" style="mask-type:luminance" maskUnits="userSpaceOnUse" x="-196" y="-438" width="794" height="1066">
<path d="M-196 -438H597.707V627.283H-196V-438Z" fill="white"/>
</mask>
<g mask="url(#mask17_18_2193)">
<path d="M125.076 50.1897V49.5364H124.072V54.8604H125.076V51.4564C125.502 50.779 126.161 50.395 126.936 50.3737L127.061 50.371V49.4044H126.932C126.212 49.4044 125.565 49.6804 125.076 50.1897Z" fill="#717F87"/>
</g>
<mask id="mask18_18_2193" style="mask-type:luminance" maskUnits="userSpaceOnUse" x="-196" y="-438" width="794" height="1066">
<path d="M-196 -438H597.707V627.283H-196V-438Z" fill="white"/>
</mask>
<g mask="url(#mask18_18_2193)">
<path d="M132.005 51.1536V53.2536C131.614 53.7976 131.06 54.0869 130.401 54.0869C129.373 54.0869 128.566 53.2576 128.566 52.1976C128.566 51.1616 129.389 50.3189 130.401 50.3189C131.058 50.3189 131.613 50.6083 132.005 51.1536ZM132.005 49.9536C131.532 49.5923 130.949 49.4029 130.302 49.4029C128.785 49.4029 127.552 50.6576 127.552 52.1976C127.552 53.7443 128.785 55.0029 130.302 55.0029C130.949 55.0029 131.532 54.8136 132.005 54.4523V54.8603H133.009V49.5349H132.005V49.9536Z" fill="#717F87"/>
</g>
<mask id="mask19_18_2193" style="mask-type:luminance" maskUnits="userSpaceOnUse" x="-196" y="-438" width="794" height="1066">
<path d="M-196 -438H597.707V627.283H-196V-438Z" fill="white"/>
</mask>
<g mask="url(#mask19_18_2193)">
<path d="M137.361 49.371C136.703 49.371 136.094 49.583 135.614 49.975V49.5364H134.61V54.8604H135.614V51.1764C136.018 50.639 136.619 50.319 137.229 50.319C138.117 50.319 138.647 50.8897 138.647 51.847V54.8604H139.65V51.8137C139.65 50.3524 138.73 49.371 137.361 49.371Z" fill="#717F87"/>
</g>
<mask id="mask20_18_2193" style="mask-type:luminance" maskUnits="userSpaceOnUse" x="-196" y="-438" width="794" height="1066">
<path d="M-196 -438H597.707V627.283H-196V-438Z" fill="white"/>
</mask>
<g mask="url(#mask20_18_2193)">
<path d="M145.19 53.2424C144.796 53.7877 144.243 54.077 143.586 54.077C142.574 54.077 141.751 53.233 141.751 52.197C141.751 51.137 142.556 50.3077 143.586 50.3077C144.246 50.3077 144.799 50.5997 145.19 51.153V53.2424ZM145.19 49.9437C144.722 49.585 144.15 49.4037 143.487 49.4037C141.97 49.4037 140.736 50.657 140.736 52.197C140.736 53.7384 141.97 54.9917 143.487 54.9917C144.15 54.9917 144.72 54.8104 145.19 54.4517V54.861H146.194V46.8144H145.19V49.9437Z" fill="#717F87"/>
</g>
<mask id="mask21_18_2193" style="mask-type:luminance" maskUnits="userSpaceOnUse" x="-196" y="-438" width="794" height="1066">
<path d="M-196 -438H597.707V627.283H-196V-438Z" fill="white"/>
</mask>
<g mask="url(#mask21_18_2193)">
<path d="M148.461 47.1111C148.099 47.1111 147.817 47.3885 147.817 47.7445C147.817 48.1045 148.094 48.3765 148.461 48.3765C148.834 48.3765 149.115 48.1045 149.115 47.7445C149.115 47.3885 148.827 47.1111 148.461 47.1111Z" fill="#717F87"/>
</g>
<mask id="mask22_18_2193" style="mask-type:luminance" maskUnits="userSpaceOnUse" x="-196" y="-438" width="794" height="1066">
<path d="M-196 -438H597.707V627.283H-196V-438Z" fill="white"/>
</mask>
<g mask="url(#mask22_18_2193)">
<path d="M147.959 54.8599H148.963V49.5345H147.959V54.8599Z" fill="#717F87"/>
</g>
<mask id="mask23_18_2193" style="mask-type:luminance" maskUnits="userSpaceOnUse" x="-196" y="-438" width="794" height="1066">
<path d="M-196 -438H597.707V627.283H-196V-438Z" fill="white"/>
</mask>
<g mask="url(#mask23_18_2193)">
<path d="M153.465 49.371C152.809 49.371 152.198 49.583 151.718 49.9764V49.5364H150.714V54.8604H151.718V51.1764C152.122 50.639 152.724 50.319 153.333 50.319C154.221 50.319 154.752 50.8897 154.752 51.847V54.8604H155.754V51.8137C155.754 50.3524 154.834 49.371 153.465 49.371Z" fill="#717F87"/>
</g>
<mask id="mask24_18_2193" style="mask-type:luminance" maskUnits="userSpaceOnUse" x="-196" y="-438" width="794" height="1066">
<path d="M-196 -438H597.707V627.283H-196V-438Z" fill="white"/>
</mask>
<g mask="url(#mask24_18_2193)">
<path d="M161.217 51.1415V53.0789C160.825 53.6375 160.229 53.9455 159.536 53.9455C158.561 53.9455 157.768 53.1322 157.768 52.1322C157.768 51.0735 158.528 50.2735 159.536 50.2735C160.229 50.2735 160.825 50.5815 161.217 51.1415ZM161.217 49.9362C160.719 49.5589 160.109 49.3615 159.437 49.3615C157.907 49.3615 156.752 50.5522 156.752 52.1322C156.752 53.6375 157.957 54.8602 159.437 54.8602C160.111 54.8602 160.72 54.6615 161.217 54.2842L161.207 54.8975C161.207 55.9175 160.564 56.5789 159.569 56.5789C158.736 56.5789 158.105 56.1482 157.961 55.4829L157.94 55.3829H156.917L156.941 55.5309C157.129 56.7242 158.187 57.5269 159.569 57.5269C161.156 57.5269 162.221 56.4709 162.221 54.8975V49.5362H161.217V49.9362Z" fill="#717F87"/>
</g>
<mask id="mask25_18_2193" style="mask-type:luminance" maskUnits="userSpaceOnUse" x="-196" y="-438" width="794" height="1066">
<path d="M-196 -438H597.707V627.283H-196V-438Z" fill="white"/>
</mask>
<g mask="url(#mask25_18_2193)">
<path d="M169.191 49.9905C168.632 49.9905 168.179 50.4439 168.179 51.0012C168.179 51.5585 168.632 52.0132 169.191 52.0132C169.75 52.0132 170.203 51.5585 170.203 51.0012C170.203 50.4439 169.75 49.9905 169.191 49.9905Z" fill="#717F87"/>
</g>
<mask id="mask26_18_2193" style="mask-type:luminance" maskUnits="userSpaceOnUse" x="-196" y="-438" width="794" height="1066">
<path d="M-196 -438H597.707V627.283H-196V-438Z" fill="white"/>
</mask>
<g mask="url(#mask26_18_2193)">
<path d="M175.909 54.9116H181.289V53.9116H176.974V51.6303H180.858V50.6196H176.974V48.2956H181.289V47.2943H175.909V54.9116Z" fill="#717F87"/>
</g>
<mask id="mask27_18_2193" style="mask-type:luminance" maskUnits="userSpaceOnUse" x="-196" y="-438" width="794" height="1066">
<path d="M-196 -438H597.707V627.283H-196V-438Z" fill="white"/>
</mask>
<g mask="url(#mask27_18_2193)">
<path d="M186.123 48.1772C187.393 48.1772 188.367 48.8958 188.667 50.0545L188.697 50.1678H189.797L189.757 49.9838C189.377 48.2585 187.95 47.1438 186.123 47.1438C183.91 47.1438 182.175 48.8838 182.175 51.1038C182.175 53.3238 183.91 55.0625 186.123 55.0625C187.95 55.0625 189.377 53.9478 189.757 52.2225L189.797 52.0398H188.697L188.667 52.1518C188.367 53.3105 187.393 54.0292 186.123 54.0292C184.486 54.0292 183.251 52.7718 183.251 51.1038C183.251 49.4358 184.486 48.1772 186.123 48.1772Z" fill="#717F87"/>
</g>
<mask id="mask28_18_2193" style="mask-type:luminance" maskUnits="userSpaceOnUse" x="-196" y="-438" width="794" height="1066">
<path d="M-196 -438H597.707V627.283H-196V-438Z" fill="white"/>
</mask>
<g mask="url(#mask28_18_2193)">
<path d="M194.822 48.1549C196.418 48.1549 197.715 49.4775 197.715 51.1029C197.715 52.7282 196.418 54.0509 194.822 54.0509C193.232 54.0509 191.939 52.7282 191.939 51.1029C191.939 49.4775 193.232 48.1549 194.822 48.1549ZM194.832 47.1442C192.65 47.1442 190.874 48.9202 190.874 51.1029C190.874 53.2855 192.65 55.0615 194.832 55.0615C197.015 55.0615 198.792 53.2855 198.792 51.1029C198.792 48.9202 197.015 47.1442 194.832 47.1442Z" fill="#717F87"/>
</g>
<mask id="mask29_18_2193" style="mask-type:luminance" maskUnits="userSpaceOnUse" x="-196" y="-438" width="794" height="1066">
<path d="M-196 -438H597.707V627.283H-196V-438Z" fill="white"/>
</mask>
<g mask="url(#mask29_18_2193)">
<path d="M207.234 47.2948H206.168V54.9121H211.468V53.9214H207.234V47.2948Z" fill="#717F87"/>
</g>
<mask id="mask30_18_2193" style="mask-type:luminance" maskUnits="userSpaceOnUse" x="-196" y="-438" width="794" height="1066">
<path d="M-196 -438H597.707V627.283H-196V-438Z" fill="white"/>
</mask>
<g mask="url(#mask30_18_2193)">
<path d="M217.981 53.0191L213.407 47.2951H212.548V54.9111H213.613V49.2498L218.123 54.8551L218.167 54.9111H219.047V47.2951H217.981V53.0191Z" fill="#717F87"/>
</g>
<mask id="mask31_18_2193" style="mask-type:luminance" maskUnits="userSpaceOnUse" x="-196" y="-438" width="794" height="1066">
<path d="M-196 -438H597.707V627.283H-196V-438Z" fill="white"/>
</mask>
<g mask="url(#mask31_18_2193)">
<path d="M224.123 50.7802V51.7802H226.895C226.644 53.1655 225.678 54.0189 224.338 54.0189C222.739 54.0189 221.487 52.7575 221.487 51.1455C221.487 49.4535 222.74 48.1762 224.403 48.1762C225.599 48.1762 226.576 48.8535 226.894 49.8989L226.927 50.0055H228.048L228.003 49.8189C227.607 48.2189 226.156 47.1442 224.392 47.1442C222.16 47.1442 220.411 48.9015 220.411 51.1455C220.411 53.3415 222.136 55.0615 224.338 55.0615C225.494 55.0615 226.439 54.5882 227.05 53.7149L227.098 54.9109H228.018V51.1029L228.014 51.0535L228.048 50.7802H224.123Z" fill="#717F87"/>
</g>
<mask id="mask32_18_2193" style="mask-type:luminance" maskUnits="userSpaceOnUse" x="-196" y="-438" width="794" height="1066">
<path d="M-196 -438H597.707V627.283H-196V-438Z" fill="white"/>
</mask>
<g mask="url(#mask32_18_2193)">
<path d="M200.455 51.6255H204.295V50.5815H200.455V51.6255Z" fill="#717F87"/>
</g>
<mask id="mask33_18_2193" style="mask-type:luminance" maskUnits="userSpaceOnUse" x="-196" y="-438" width="794" height="1066">
<path d="M-196 -438H597.707V627.283H-196V-438Z" fill="white"/>
</mask>
<g mask="url(#mask33_18_2193)">
<path d="M233.91 50.479V48.091H236.084C237.08 48.091 237.7 48.5297 237.7 49.235C237.7 50.0257 237.063 50.479 235.952 50.479H233.91ZM238.062 52.615C238.062 53.403 237.334 53.9124 236.206 53.9124H233.91V51.427H236.227C237.394 51.427 238.062 51.8604 238.062 52.615ZM237.695 50.843C238.334 50.5164 238.703 49.907 238.703 49.1484C238.703 47.9297 237.706 47.1444 236.162 47.1444H232.874V54.8604H236.227C237.938 54.8604 239.087 53.995 239.087 52.703C239.087 51.787 238.586 51.1257 237.695 50.843Z" fill="#717F87"/>
</g>
<mask id="mask34_18_2193" style="mask-type:luminance" maskUnits="userSpaceOnUse" x="-196" y="-438" width="794" height="1066">
<path d="M-196 -438H597.707V627.283H-196V-438Z" fill="white"/>
</mask>
<g mask="url(#mask34_18_2193)">
<path d="M240.568 54.8599H241.572V49.5345H240.568V54.8599Z" fill="#717F87"/>
</g>
<mask id="mask35_18_2193" style="mask-type:luminance" maskUnits="userSpaceOnUse" x="-196" y="-438" width="794" height="1066">
<path d="M-196 -438H597.707V627.283H-196V-438Z" fill="white"/>
</mask>
<g mask="url(#mask35_18_2193)">
<path d="M241.07 47.1111C240.708 47.1111 240.426 47.3885 240.426 47.7445C240.426 48.1045 240.703 48.3765 241.07 48.3765C241.443 48.3765 241.726 48.1045 241.726 47.7445C241.726 47.3885 241.438 47.1111 241.07 47.1111Z" fill="#717F87"/>
</g>
<mask id="mask36_18_2193" style="mask-type:luminance" maskUnits="userSpaceOnUse" x="-196" y="-438" width="794" height="1066">
<path d="M-196 -438H597.707V627.283H-196V-438Z" fill="white"/>
</mask>
<g mask="url(#mask36_18_2193)">
<path d="M243.05 50.4395H246.069L242.958 54.2662L242.929 54.3022V54.8608H247.542V53.9675H244.437L247.513 50.1848L247.542 50.1475V49.5355H243.05V50.4395Z" fill="#717F87"/>
</g>
<mask id="mask37_18_2193" style="mask-type:luminance" maskUnits="userSpaceOnUse" x="-196" y="-438" width="794" height="1066">
<path d="M-196 -438H597.707V627.283H-196V-438Z" fill="white"/>
</mask>
<g mask="url(#mask37_18_2193)">
<path d="M265.874 47.1444H259.287V48.1137H262.062V54.8604H263.098V48.1137H265.874V47.1444Z" fill="#717F87"/>
</g>
<mask id="mask38_18_2193" style="mask-type:luminance" maskUnits="userSpaceOnUse" x="-196" y="-438" width="794" height="1066">
<path d="M-196 -438H597.707V627.283H-196V-438Z" fill="white"/>
</mask>
<g mask="url(#mask38_18_2193)">
<path d="M269.423 51.7838H266.129C266.269 51.0264 266.833 50.3078 267.833 50.3078C268.695 50.3078 269.293 50.8691 269.423 51.7838ZM267.855 49.4038C266.28 49.4038 265.093 50.6038 265.093 52.1971C265.093 53.7971 266.28 55.0024 267.855 55.0024C269.015 55.0024 269.967 54.4091 270.281 53.4904L270.339 53.3198H269.267L269.231 53.3931C269.02 53.8344 268.513 54.0984 267.877 54.0984C266.963 54.0984 266.289 53.5238 266.128 52.6224H270.269L270.277 52.6211L270.419 52.6958L270.44 52.5091C270.452 52.4051 270.452 52.2904 270.452 52.1731C270.44 50.5678 269.348 49.4038 267.855 49.4038Z" fill="#717F87"/>
</g>
<mask id="mask39_18_2193" style="mask-type:luminance" maskUnits="userSpaceOnUse" x="-196" y="-438" width="794" height="1066">
<path d="M-196 -438H597.707V627.283H-196V-438Z" fill="white"/>
</mask>
<g mask="url(#mask39_18_2193)">
<path d="M274.167 50.3518C274.925 50.3518 275.491 50.7518 275.643 51.3944L275.667 51.4918H276.703L276.674 51.3398C276.451 50.1824 275.445 49.4038 274.167 49.4038C272.587 49.4038 271.395 50.6051 271.395 52.1971C271.395 53.7971 272.587 55.0024 274.167 55.0024C275.445 55.0024 276.451 54.2238 276.674 53.0664L276.703 52.9144H275.667L275.643 53.0118C275.491 53.6558 274.925 54.0558 274.167 54.0558C273.149 54.0558 272.41 53.2744 272.41 52.1971C272.41 51.1291 273.149 50.3518 274.167 50.3518Z" fill="#717F87"/>
</g>
<mask id="mask40_18_2193" style="mask-type:luminance" maskUnits="userSpaceOnUse" x="-196" y="-438" width="794" height="1066">
<path d="M-196 -438H597.707V627.283H-196V-438Z" fill="white"/>
</mask>
<g mask="url(#mask40_18_2193)">
<path d="M280.699 49.371C280.043 49.371 279.432 49.583 278.952 49.9764V46.815H277.948V54.8604H278.952V51.1764C279.358 50.6404 279.959 50.319 280.567 50.319C281.456 50.319 281.986 50.8897 281.986 51.847V54.8604H282.99V51.8137C282.99 50.3524 282.068 49.371 280.699 49.371Z" fill="#717F87"/>
</g>
<mask id="mask41_18_2193" style="mask-type:luminance" maskUnits="userSpaceOnUse" x="-196" y="-438" width="794" height="1066">
<path d="M-196 -438H597.707V627.283H-196V-438Z" fill="white"/>
</mask>
<g mask="url(#mask41_18_2193)">
<path d="M287.11 49.371C286.454 49.371 285.843 49.583 285.363 49.9764V49.5364H284.359V54.8604H285.363V51.1764C285.767 50.639 286.369 50.319 286.978 50.319C287.866 50.319 288.397 50.8897 288.397 51.847V54.8604H289.399V51.8137C289.399 50.3524 288.479 49.371 287.11 49.371Z" fill="#717F87"/>
</g>
<mask id="mask42_18_2193" style="mask-type:luminance" maskUnits="userSpaceOnUse" x="-196" y="-438" width="794" height="1066">
<path d="M-196 -438H597.707V627.283H-196V-438Z" fill="white"/>
</mask>
<g mask="url(#mask42_18_2193)">
<path d="M295.126 52.1974C295.126 53.2574 294.33 54.0867 293.313 54.0867C292.297 54.0867 291.501 53.2574 291.501 52.1974C291.501 51.1627 292.297 50.3521 293.313 50.3521C294.33 50.3521 295.126 51.1627 295.126 52.1974ZM293.313 49.4041C291.727 49.4041 290.486 50.6307 290.486 52.1974C290.486 53.7827 291.727 55.0254 293.313 55.0254C294.893 55.0254 296.13 53.7827 296.13 52.1974C296.13 50.6307 294.893 49.4041 293.313 49.4041Z" fill="#717F87"/>
</g>
<mask id="mask43_18_2193" style="mask-type:luminance" maskUnits="userSpaceOnUse" x="-196" y="-438" width="794" height="1066">
<path d="M-196 -438H597.707V627.283H-196V-438Z" fill="white"/>
</mask>
<g mask="url(#mask43_18_2193)">
<path d="M297.401 54.8599H298.405V46.8145H297.401V54.8599Z" fill="#717F87"/>
</g>
<mask id="mask44_18_2193" style="mask-type:luminance" maskUnits="userSpaceOnUse" x="-196" y="-438" width="794" height="1066">
<path d="M-196 -438H597.707V627.283H-196V-438Z" fill="white"/>
</mask>
<g mask="url(#mask44_18_2193)">
<path d="M304.347 52.1974C304.347 53.2574 303.551 54.0867 302.534 54.0867C301.518 54.0867 300.722 53.2574 300.722 52.1974C300.722 51.1627 301.518 50.3521 302.534 50.3521C303.551 50.3521 304.347 51.1627 304.347 52.1974ZM302.534 49.4041C300.949 49.4041 299.707 50.6307 299.707 52.1974C299.707 53.7827 300.949 55.0254 302.534 55.0254C304.114 55.0254 305.351 53.7827 305.351 52.1974C305.351 50.6307 304.114 49.4041 302.534 49.4041Z" fill="#717F87"/>
</g>
<mask id="mask45_18_2193" style="mask-type:luminance" maskUnits="userSpaceOnUse" x="-196" y="-438" width="794" height="1066">
<path d="M-196 -438H597.707V627.283H-196V-438Z" fill="white"/>
</mask>
<g mask="url(#mask45_18_2193)">
<path d="M310.759 51.1415V53.0789C310.365 53.6375 309.771 53.9455 309.077 53.9455C308.101 53.9455 307.308 53.1322 307.308 52.1322C307.308 51.0735 308.069 50.2735 309.077 50.2735C309.769 50.2735 310.365 50.5815 310.759 51.1415ZM310.759 49.9362C310.261 49.5589 309.651 49.3615 308.979 49.3615C307.448 49.3615 306.293 50.5522 306.293 52.1322C306.293 53.6375 307.499 54.8602 308.979 54.8602C309.652 54.8602 310.261 54.6615 310.759 54.2842L310.748 54.8975C310.748 55.9175 310.105 56.5789 309.111 56.5789C308.265 56.5789 307.648 56.1589 307.503 55.4829L307.481 55.3829H306.459L306.483 55.5309C306.671 56.7242 307.727 57.5269 309.111 57.5269C310.696 57.5269 311.763 56.4709 311.763 54.8975V49.5362H310.759V49.9362Z" fill="#717F87"/>
</g>
<mask id="mask46_18_2193" style="mask-type:luminance" maskUnits="userSpaceOnUse" x="-196" y="-438" width="794" height="1066">
<path d="M-196 -438H597.707V627.283H-196V-438Z" fill="white"/>
</mask>
<g mask="url(#mask46_18_2193)">
<path d="M315.847 53.8259L313.795 49.6072L313.759 49.5352H312.661L315.313 54.9966L314.136 57.5806H315.22L318.797 49.7166L318.88 49.5352H317.797L315.847 53.8259Z" fill="#717F87"/>
</g>
<mask id="mask47_18_2193" style="mask-type:luminance" maskUnits="userSpaceOnUse" x="-196" y="-438" width="794" height="1066">
<path d="M-196 -438H597.707V627.283H-196V-438Z" fill="white"/>
</mask>
<g mask="url(#mask47_18_2193)">
<path d="M334.326 47.9161C335.43 47.9161 336.107 48.4001 336.283 49.3161L336.303 49.4201H337.325L337.306 49.2747C337.123 47.8374 335.989 46.9787 334.271 46.9787C332.613 46.9787 331.498 47.8894 331.498 49.2467C331.498 50.0134 331.874 50.9961 333.665 51.3254L334.962 51.5787C335.554 51.6854 336.259 51.9707 336.259 52.7241C336.259 53.5387 335.543 54.0654 334.435 54.0654C333.15 54.0654 332.375 53.4654 332.194 52.3307L332.177 52.2227H331.155L331.17 52.3641C331.353 54.0307 332.561 55.0254 334.402 55.0254C336.139 55.0254 337.307 54.0654 337.307 52.6361C337.307 51.5401 336.574 50.8427 335.13 50.5681L333.997 50.3494C333.057 50.1814 332.579 49.7961 332.579 49.2041C332.579 48.4214 333.265 47.9161 334.326 47.9161Z" fill="#717F87"/>
</g>
<mask id="mask48_18_2193" style="mask-type:luminance" maskUnits="userSpaceOnUse" x="-196" y="-438" width="794" height="1066">
<path d="M-196 -438H597.707V627.283H-196V-438Z" fill="white"/>
</mask>
<g mask="url(#mask48_18_2193)">
<path d="M341.33 49.371C340.674 49.371 340.063 49.583 339.583 49.9764V46.815H338.579V54.8604H339.583V51.1764C339.988 50.6404 340.59 50.319 341.198 50.319C342.087 50.319 342.616 50.8897 342.616 51.847V54.8604H343.62V51.8137C343.62 50.3524 342.699 49.371 341.33 49.371Z" fill="#717F87"/>
</g>
<mask id="mask49_18_2193" style="mask-type:luminance" maskUnits="userSpaceOnUse" x="-196" y="-438" width="794" height="1066">
<path d="M-196 -438H597.707V627.283H-196V-438Z" fill="white"/>
</mask>
<g mask="url(#mask49_18_2193)">
<path d="M349.159 51.1536V53.2523C348.767 53.7976 348.213 54.0869 347.555 54.0869C346.526 54.0869 345.721 53.2576 345.721 52.1976C345.721 51.1616 346.543 50.3189 347.555 50.3189C348.213 50.3189 348.766 50.6083 349.159 51.1536ZM349.159 49.9536C348.686 49.5923 348.103 49.4029 347.457 49.4029C345.939 49.4029 344.705 50.6576 344.705 52.1976C344.705 53.7443 345.939 55.0029 347.457 55.0029C348.103 55.0029 348.686 54.8136 349.159 54.4523V54.8603H350.163V49.5349H349.159V49.9536Z" fill="#717F87"/>
</g>
<mask id="mask50_18_2193" style="mask-type:luminance" maskUnits="userSpaceOnUse" x="-196" y="-438" width="794" height="1066">
<path d="M-196 -438H597.707V627.283H-196V-438Z" fill="white"/>
</mask>
<g mask="url(#mask50_18_2193)">
<path d="M352.767 50.1897V49.5364H351.763V54.8604H352.767V51.4564C353.195 50.779 353.854 50.395 354.629 50.3737L354.754 50.371V49.4044H354.625C353.905 49.4044 353.258 49.6804 352.767 50.1897Z" fill="#717F87"/>
</g>
<mask id="mask51_18_2193" style="mask-type:luminance" maskUnits="userSpaceOnUse" x="-196" y="-438" width="794" height="1066">
<path d="M-196 -438H597.707V627.283H-196V-438Z" fill="white"/>
</mask>
<g mask="url(#mask51_18_2193)">
<path d="M359.573 51.7838H356.28C356.42 51.0264 356.984 50.3078 357.984 50.3078C358.845 50.3078 359.444 50.8691 359.573 51.7838ZM358.005 49.4038C356.431 49.4038 355.244 50.6038 355.244 52.1971C355.244 53.7971 356.431 55.0024 358.005 55.0024C359.165 55.0024 360.117 54.4091 360.432 53.4904L360.489 53.3198H359.417L359.381 53.3931C359.171 53.8344 358.664 54.0984 358.028 54.0984C357.113 54.0984 356.44 53.5238 356.279 52.6224H360.42L360.428 52.6211L360.569 52.6958L360.591 52.5091C360.603 52.4051 360.603 52.2904 360.603 52.1731C360.591 50.5678 359.499 49.4038 358.005 49.4038Z" fill="#717F87"/>
</g>
<mask id="mask52_18_2193" style="mask-type:luminance" maskUnits="userSpaceOnUse" x="-196" y="-438" width="794" height="1066">
<path d="M-196 -438H597.707V627.283H-196V-438Z" fill="white"/>
</mask>
<g mask="url(#mask52_18_2193)">
<path d="M365.999 53.2424C365.606 53.7877 365.053 54.077 364.395 54.077C363.383 54.077 362.561 53.233 362.561 52.197C362.561 51.137 363.366 50.3077 364.395 50.3077C365.055 50.3077 365.609 50.5997 365.999 51.153V53.2424ZM365.999 49.9437C365.533 49.5904 364.95 49.4037 364.297 49.4037C362.779 49.4037 361.546 50.657 361.546 52.197C361.546 53.7384 362.779 54.9917 364.297 54.9917C364.95 54.9917 365.533 54.8064 365.999 54.4517V54.861H367.003V46.8144H365.999V49.9437Z" fill="#717F87"/>
</g>
<mask id="mask53_18_2193" style="mask-type:luminance" maskUnits="userSpaceOnUse" x="-196" y="-438" width="794" height="1066">
<path d="M-196 -438H597.707V627.283H-196V-438Z" fill="white"/>
</mask>
<g mask="url(#mask53_18_2193)">
<path d="M377.307 47.1444L374.439 53.4337L371.604 47.2204L371.571 47.1444H370.432L373.96 54.8404L373.995 54.915H374.884L378.435 47.1444H377.307Z" fill="#717F87"/>
</g>
<mask id="mask54_18_2193" style="mask-type:luminance" maskUnits="userSpaceOnUse" x="-196" y="-438" width="794" height="1066">
<path d="M-196 -438H597.707V627.283H-196V-438Z" fill="white"/>
</mask>
<g mask="url(#mask54_18_2193)">
<path d="M382.576 53.2523C382.184 53.7976 381.629 54.0869 380.972 54.0869C379.942 54.0869 379.137 53.2576 379.137 52.1976C379.137 51.1616 379.96 50.3189 380.972 50.3189C381.629 50.3189 382.182 50.6083 382.576 51.1536V53.2523ZM382.576 49.9536C382.102 49.5923 381.52 49.4029 380.873 49.4029C379.356 49.4029 378.122 50.6576 378.122 52.1976C378.122 53.7443 379.356 55.0029 380.873 55.0029C381.52 55.0029 382.102 54.8136 382.576 54.4523V54.8603H383.58V49.5349H382.576V49.9536Z" fill="#717F87"/>
</g>
<mask id="mask55_18_2193" style="mask-type:luminance" maskUnits="userSpaceOnUse" x="-196" y="-438" width="794" height="1066">
<path d="M-196 -438H597.707V627.283H-196V-438Z" fill="white"/>
</mask>
<g mask="url(#mask55_18_2193)">
<path d="M385.18 54.8599H386.184V46.8145H385.18V54.8599Z" fill="#717F87"/>
</g>
<mask id="mask56_18_2193" style="mask-type:luminance" maskUnits="userSpaceOnUse" x="-196" y="-438" width="794" height="1066">
<path d="M-196 -438H597.707V627.283H-196V-438Z" fill="white"/>
</mask>
<g mask="url(#mask56_18_2193)">
<path d="M391.577 53.2299C391.173 53.7685 390.576 54.0872 389.973 54.0872C389.085 54.0872 388.556 53.5112 388.556 52.5485V49.5352H387.552V52.5925C387.552 54.0485 388.472 55.0259 389.841 55.0259C390.489 55.0259 391.095 54.8152 391.577 54.4285V54.8605H392.581V49.5352H391.577V53.2299Z" fill="#717F87"/>
</g>
<mask id="mask57_18_2193" style="mask-type:luminance" maskUnits="userSpaceOnUse" x="-196" y="-438" width="794" height="1066">
<path d="M-196 -438H597.707V627.283H-196V-438Z" fill="white"/>
</mask>
<g mask="url(#mask57_18_2193)">
<path d="M398.247 51.7838H394.954C395.095 51.0264 395.658 50.3078 396.658 50.3078C397.519 50.3078 398.118 50.8691 398.247 51.7838ZM396.681 49.4038C395.106 49.4038 393.918 50.6038 393.918 52.1971C393.918 53.7971 395.106 55.0024 396.681 55.0024C397.839 55.0024 398.791 54.4091 399.106 53.4904L399.165 53.3198H398.091L398.057 53.3931C397.845 53.8344 397.339 54.0984 396.703 54.0984C395.787 54.0984 395.114 53.5238 394.954 52.6224H399.094L399.103 52.6211L399.245 52.6944L399.265 52.5091C399.277 52.4051 399.278 52.2904 399.278 52.1731C399.266 50.5678 398.173 49.4038 396.681 49.4038Z" fill="#717F87"/>
</g>
<mask id="mask58_18_2193" style="mask-type:luminance" maskUnits="userSpaceOnUse" x="-196" y="-438" width="794" height="1066">
<path d="M-196 -438H597.707V627.283H-196V-438Z" fill="white"/>
</mask>
<g mask="url(#mask58_18_2193)">
<path d="M253.705 49.9905C253.147 49.9905 252.693 50.4439 252.693 51.0012C252.693 51.5585 253.147 52.0132 253.705 52.0132C254.264 52.0132 254.717 51.5585 254.717 51.0012C254.717 50.4439 254.264 49.9905 253.705 49.9905Z" fill="#717F87"/>
</g>
<mask id="mask59_18_2193" style="mask-type:luminance" maskUnits="userSpaceOnUse" x="-196" y="-438" width="794" height="1066">
<path d="M-196 -438H597.707V627.283H-196V-438Z" fill="white"/>
</mask>
<g mask="url(#mask59_18_2193)">
<path d="M325.102 49.9905C324.543 49.9905 324.09 50.4439 324.09 51.0012C324.09 51.5585 324.543 52.0132 325.102 52.0132C325.661 52.0132 326.114 51.5585 326.114 51.0012C326.114 50.4439 325.661 49.9905 325.102 49.9905Z" fill="#717F87"/>
</g>
</g>
<defs>
<clipPath id="clip0_18_2193">
<rect width="403" height="58" fill="white"/>
</clipPath>
</defs>
</svg>
