<svg width="178" height="33" viewBox="0 0 178 33" fill="none" xmlns="http://www.w3.org/2000/svg">
<g clip-path="url(#clip0_1_13588)">
<mask id="mask0_1_13588" style="mask-type:luminance" maskUnits="userSpaceOnUse" x="-25" y="-105" width="227" height="228">
<path d="M-25 -104.485H201.667V122.181H-25V-104.485Z" fill="white"/>
</mask>
<g mask="url(#mask0_1_13588)">
<path d="M29.0169 12.5063L29.9223 5.72625C30.3396 2.57825 28.1249 0.0355854 24.9756 0.0329189H24.9729H24.9663H3.57293L0.452927 23.4409H9.56626L10.2636 18.1996H21.4383C24.5929 18.1969 28.6009 15.6476 29.0169 12.5063ZM19.9943 11.9183H11.1009L11.8503 6.31692L20.7423 6.31292L19.9943 11.9183Z" fill="#0089D0"/>
</g>
<mask id="mask1_1_13588" style="mask-type:luminance" maskUnits="userSpaceOnUse" x="-25" y="-105" width="227" height="228">
<path d="M-25 -104.485H201.667V122.181H-25V-104.485Z" fill="white"/>
</mask>
<g mask="url(#mask1_1_13588)">
<path d="M118.169 0.0322037C115.012 0.0322037 112.116 2.57487 111.696 5.72687L111.235 9.18154C110.816 12.3269 113.037 14.8789 116.193 14.8789H126.737L126.435 17.1575H109.929L104.099 0.0482025H94.9693L84.224 17.5469C83.6933 17.6642 83.1467 17.8015 82.5813 17.9842L84.96 0.0482025H76.1307C76.1307 0.0482025 75.22 6.92687 74.6453 11.2255C71.9893 7.02554 67.5693 0.0482025 67.5693 0.0482025H58.744L55.6387 23.4215C55.1653 26.5109 56.908 28.5455 56.908 28.5455C56.908 28.5455 59.2613 31.7602 64.4613 30.9402C65.076 31.7509 66.9307 33.4922 70.7133 32.0082C70.7133 32.0082 71.5627 31.7002 72.5427 31.2042C72.5427 31.2042 77.2533 28.6295 81.12 28.8229C81.12 28.8229 85.0653 28.6655 88.0147 30.7042L90.7413 27.6362C89.8347 26.8095 86.8267 24.6189 81.12 25.4375C81.12 25.4375 77.8733 25.9055 74.7493 27.8535C74.7493 27.8535 73.5187 28.5455 72.3053 29.3189C72.3053 29.3189 68.948 31.6789 67.252 29.9895C67.392 29.9215 67.528 29.8602 67.6747 29.7922C67.6747 29.7922 70.9707 28.1509 73.732 25.9949C73.732 25.9949 79.3173 21.8615 84.4973 21.3909C84.4973 21.3909 89.5773 20.5389 93.9853 23.9815L96.6187 21.0242C96.4267 20.8295 95.248 19.6095 93.224 18.6149C94.92 15.6322 97.5947 10.9402 98.0307 10.1975L98.1787 10.1909C98.4973 11.3082 102.092 23.4215 102.092 23.4215L128.903 23.4415C132.051 23.4415 134.951 20.8882 135.368 17.7429L135.825 14.2935C136.251 11.1455 134.029 8.59754 130.873 8.59754H120.327L120.635 6.31354L135.948 6.31754V6.31354L136.024 5.72687C136.024 5.7202 136.027 5.7202 136.027 5.71754L136.789 0.0322037H118.169ZM71.6707 24.9682C71.6707 24.9682 63.1373 33.0455 64.4707 23.4215C64.4707 23.4215 65.4187 16.2775 65.9987 11.8842C68.6227 16.0082 73.048 22.9602 73.352 23.4309C72.7827 23.9175 72.2213 24.4215 71.6707 24.9682Z" fill="#0089D0"/>
</g>
<mask id="mask2_1_13588" style="mask-type:luminance" maskUnits="userSpaceOnUse" x="-25" y="-105" width="227" height="228">
<path d="M-25 -104.485H201.667V122.181H-25V-104.485Z" fill="white"/>
</mask>
<g mask="url(#mask2_1_13588)">
<path d="M141.103 0.0478706L138.004 23.4212H147.224L150.32 0.0478706H141.103Z" fill="#0089D0"/>
</g>
<mask id="mask3_1_13588" style="mask-type:luminance" maskUnits="userSpaceOnUse" x="-25" y="-105" width="227" height="228">
<path d="M-25 -104.485H201.667V122.181H-25V-104.485Z" fill="white"/>
</mask>
<g mask="url(#mask3_1_13588)">
<path d="M47.6673 0.0478706H38.5327L24.2313 23.4212H33.994C33.994 23.4212 40.9553 11.2905 41.598 10.1972L41.75 10.1905C42.0633 11.3079 45.6553 23.4212 45.6553 23.4212H55.6393L47.6673 0.0478706Z" fill="#0089D0"/>
</g>
<mask id="mask4_1_13588" style="mask-type:luminance" maskUnits="userSpaceOnUse" x="-25" y="-105" width="227" height="228">
<path d="M-25 -104.485H201.667V122.181H-25V-104.485Z" fill="white"/>
</mask>
<g mask="url(#mask4_1_13588)">
<path d="M169.577 0.0478706H160.446L147.275 23.4212H157.035C157.035 23.4212 162.866 11.2905 163.509 10.1972L163.662 10.1905C163.978 11.3079 167.574 23.4212 167.574 23.4212H177.549L169.577 0.0478706Z" fill="#0089D0"/>
</g>
</g>
<defs>
<clipPath id="clip0_1_13588">
<rect width="178" height="33" fill="white"/>
</clipPath>
</defs>
</svg>
