<svg width="462" height="76" viewBox="0 0 462 76" fill="none" xmlns="http://www.w3.org/2000/svg">
<g clip-path="url(#clip0_1_13664)">
<mask id="mask0_1_13664" style="mask-type:luminance" maskUnits="userSpaceOnUse" x="-179" y="-490" width="816" height="1057">
<path d="M-179 -489.485H637V566.515H-179V-489.485Z" fill="white"/>
</mask>
<g mask="url(#mask0_1_13664)">
<path d="M74.7956 48.0707C74.7769 48.076 74.7503 48.076 74.7289 48.076C74.7183 48.0973 74.7156 48.1227 74.7103 48.1387C74.7409 48.1147 74.7676 48.0973 74.7956 48.0707Z" fill="#2056AE"/>
</g>
<mask id="mask1_1_13664" style="mask-type:luminance" maskUnits="userSpaceOnUse" x="-179" y="-490" width="816" height="1057">
<path d="M-179 -489.485H637V566.515H-179V-489.485Z" fill="white"/>
</mask>
<g mask="url(#mask1_1_13664)">
<path d="M49.1615 61.68C44.5588 60.1693 34.0855 56.6773 28.9268 62.3906C28.9268 62.3906 28.9001 62.4173 28.8561 62.4533C30.3735 61.8733 32.1655 61.5 34.2841 61.5C44.1161 61.5 48.6428 66.0266 56.1041 66.0266C56.1041 66.0266 60.0561 65.9693 64.7615 62.928C63.0401 63.3746 61.0935 63.664 58.9228 63.664C58.9228 63.664 53.7641 63.1853 49.1615 61.68Z" fill="#2056AE"/>
</g>
<mask id="mask2_1_13664" style="mask-type:luminance" maskUnits="userSpaceOnUse" x="-179" y="-490" width="816" height="1057">
<path d="M-179 -489.485H637V566.515H-179V-489.485Z" fill="white"/>
</mask>
<g mask="url(#mask2_1_13664)">
<path d="M62.8092 58.5056C62.8092 58.5056 66.8999 58.4483 71.7172 55.2403C70.0305 55.6696 68.1412 55.9376 66.0345 55.9376C66.0345 55.9376 60.8759 55.4696 56.2732 53.9589C51.6705 52.4456 41.1985 48.9616 36.0385 54.6669C36.0385 54.6669 35.9772 54.7269 35.8905 54.8109C37.3319 54.3003 39.0212 53.9843 40.9865 53.9843C50.8319 53.9843 55.3519 58.5056 62.8092 58.5056Z" fill="#2056AE"/>
</g>
<mask id="mask3_1_13664" style="mask-type:luminance" maskUnits="userSpaceOnUse" x="-179" y="-490" width="816" height="1057">
<path d="M-179 -489.485H637V566.515H-179V-489.485Z" fill="white"/>
</mask>
<g mask="url(#mask3_1_13664)">
<path d="M76.1113 37.8891C76.1113 39.2384 76.0407 40.5691 75.906 41.8824C74.146 41.8811 72.35 41.8344 70.7593 41.7144C65.1127 41.2784 58.482 38.2331 54.462 38.0184C50.4473 37.8024 47.9447 38.8864 47.9447 38.8864C45.8873 39.3157 42.1873 43.3384 42.1873 43.3384C38.8233 45.9477 35.994 46.0557 35.994 46.0557C31.106 46.6024 24.586 44.5397 24.586 44.5397C24.586 44.5397 16.3313 41.2784 10.2473 41.3877C6.84067 41.4477 3.41 43.5464 1.042 45.3891C0.555336 42.9611 0.299332 40.4531 0.299332 37.8891C0.299332 16.9491 17.2687 -0.0189209 38.2087 -0.0189209C59.1447 -0.0189209 76.1113 16.9491 76.1113 37.8891Z" fill="#2056AE"/>
</g>
<mask id="mask4_1_13664" style="mask-type:luminance" maskUnits="userSpaceOnUse" x="-179" y="-490" width="816" height="1057">
<path d="M-179 -489.485H637V566.515H-179V-489.485Z" fill="white"/>
</mask>
<g mask="url(#mask4_1_13664)">
<path d="M71.6335 48.2346C65.2188 48.2346 55.0055 43.2346 50.4481 43.4506C45.8868 43.6653 45.0135 43.56 40.6721 47.144C36.3201 50.7266 34.3668 51.596 28.8241 51.596C23.2868 51.596 14.5935 47.144 10.0295 47.144C6.34148 47.144 5.70548 47.2106 1.99481 49.1333C6.78681 64.5786 21.1868 75.7946 38.2081 75.7946C45.1801 75.7946 51.7215 73.9066 57.3295 70.62C55.7935 70.964 54.0868 71.18 52.2175 71.18C52.2175 71.18 47.0615 70.7066 42.4588 69.1986C37.8535 67.6906 27.3775 64.196 22.2241 69.9146C22.2241 69.9146 21.4268 70.6253 21.3468 71.18L21.5841 69.516C21.5841 69.516 23.2028 64.9826 28.1841 62.74L28.2921 61.9973C28.2921 61.9973 29.9921 57.224 35.2921 55.044L35.4015 54.276C35.4015 54.276 38.2601 46.2613 48.1015 46.2613C57.9401 46.2613 61.2561 50.656 68.7175 50.656C68.7175 50.656 71.3708 50.7613 74.7095 48.1386C74.7161 48.1226 74.7188 48.096 74.7281 48.076C73.7175 48.1693 72.6775 48.2346 71.6335 48.2346Z" fill="#2056AE"/>
</g>
<mask id="mask5_1_13664" style="mask-type:luminance" maskUnits="userSpaceOnUse" x="-179" y="-490" width="816" height="1057">
<path d="M-179 -489.485H637V566.515H-179V-489.485Z" fill="white"/>
</mask>
<g mask="url(#mask5_1_13664)">
<path d="M9.47854 21.5407H12.8812L11.3385 25.7113L16.4505 21.5407H20.9812L15.4252 25.694L17.0839 32.5673H12.8839L12.2479 28.07L9.7852 29.9073L8.79987 32.5673H5.3972L9.47854 21.5407Z" fill="white"/>
</g>
<mask id="mask6_1_13664" style="mask-type:luminance" maskUnits="userSpaceOnUse" x="-179" y="-490" width="816" height="1057">
<path d="M-179 -489.485H637V566.515H-179V-489.485Z" fill="white"/>
</mask>
<g mask="url(#mask6_1_13664)">
<path d="M21.5644 27.0785C21.1484 28.1892 21.0644 28.9825 21.2951 29.4705C21.5257 29.9505 21.9964 30.1958 22.7031 30.1958C23.4337 30.1958 24.0871 29.9612 24.6631 29.4825C25.2391 29.0065 25.7484 28.1572 26.2084 26.9278C26.5897 25.8918 26.6604 25.1345 26.4231 24.6572C26.1831 24.1798 25.7057 23.9425 24.9884 23.9425C24.3044 23.9425 23.6711 24.1865 23.0751 24.6718C22.4804 25.1585 21.9777 25.9558 21.5644 27.0785ZM18.1617 27.0638C18.8311 25.2638 19.8484 23.8625 21.2191 22.8625C22.5924 21.8598 24.1697 21.3572 25.9551 21.3572C27.7871 21.3572 29.0151 21.8532 29.6431 22.8345C30.2644 23.8198 30.2484 25.1998 29.5924 26.9718C29.1191 28.2598 28.5097 29.3158 27.7671 30.1425C27.0311 30.9678 26.1737 31.6065 25.1804 32.0678C24.1924 32.5252 23.0911 32.7518 21.8711 32.7518C20.6297 32.7518 19.6791 32.5558 19.0137 32.1585C18.3444 31.7625 17.9191 31.1398 17.7297 30.2798C17.5444 29.4225 17.6884 28.3545 18.1617 27.0638Z" fill="white"/>
</g>
<mask id="mask7_1_13664" style="mask-type:luminance" maskUnits="userSpaceOnUse" x="-179" y="-490" width="816" height="1057">
<path d="M-179 -489.485H637V566.515H-179V-489.485Z" fill="white"/>
</mask>
<g mask="url(#mask7_1_13664)">
<path d="M32.2552 21.5407H36.7579L35.9779 28.2527L40.1672 21.5407H44.6539L40.5699 32.5673H37.7725L40.8872 24.1593L35.6312 32.5673H33.1032L34.0859 24.1593L30.9685 32.5673H28.1712L32.2552 21.5407Z" fill="white"/>
</g>
<mask id="mask8_1_13664" style="mask-type:luminance" maskUnits="userSpaceOnUse" x="-179" y="-490" width="816" height="1057">
<path d="M-179 -489.485H637V566.515H-179V-489.485Z" fill="white"/>
</mask>
<g mask="url(#mask8_1_13664)">
<path d="M57.47 25.9997H58.9047C59.0647 25.9997 59.3847 25.9504 59.8713 25.8491C60.11 25.8077 60.338 25.6891 60.5527 25.5011C60.7607 25.3184 60.914 25.1037 61.0007 24.8624C61.1353 24.5091 61.122 24.2344 60.966 24.0477C60.8113 23.8557 60.4207 23.7571 59.8007 23.7571H58.2993L57.47 25.9997ZM51.6073 32.5677L55.6913 21.5411H61.382C62.438 21.5411 63.206 21.6344 63.698 21.8131C64.1927 21.9957 64.518 22.3264 64.678 22.8157C64.8353 23.3051 64.7873 23.8997 64.5313 24.6011C64.3033 25.2091 63.9767 25.7371 63.5513 26.1837C63.1233 26.6224 62.6327 26.9811 62.0727 27.2557C61.714 27.4304 61.2593 27.5784 60.71 27.6957C61.0607 27.8304 61.3047 27.9651 61.4393 28.1037C61.5287 28.1944 61.6407 28.3891 61.766 28.6891C61.894 28.9864 61.9673 29.2171 61.9833 29.3784L62.4753 32.5677H58.626L58.0433 29.1944C57.9753 28.7571 57.8767 28.4731 57.7393 28.3397C57.5567 28.1677 57.31 28.0864 56.9967 28.0864H56.6953L55.038 32.5677H51.6073Z" fill="white"/>
</g>
<mask id="mask9_1_13664" style="mask-type:luminance" maskUnits="userSpaceOnUse" x="-179" y="-490" width="816" height="1057">
<path d="M-179 -489.485H637V566.515H-179V-489.485Z" fill="white"/>
</mask>
<g mask="url(#mask9_1_13664)">
<path d="M66.6244 21.5407H70.0271L65.9431 32.5673H62.5404L66.6244 21.5407Z" fill="white"/>
</g>
<mask id="mask10_1_13664" style="mask-type:luminance" maskUnits="userSpaceOnUse" x="-179" y="-490" width="816" height="1057">
<path d="M-179 -489.485H637V566.515H-179V-489.485Z" fill="white"/>
</mask>
<g mask="url(#mask10_1_13664)">
<path d="M54.8073 21.579L54.8207 21.5404H54.762L54.8073 21.579Z" fill="white"/>
</g>
<mask id="mask11_1_13664" style="mask-type:luminance" maskUnits="userSpaceOnUse" x="-179" y="-490" width="816" height="1057">
<path d="M-179 -489.485H637V566.515H-179V-489.485Z" fill="white"/>
</mask>
<g mask="url(#mask11_1_13664)">
<path d="M53.9492 23.889L54.8012 21.5984C51.1012 21.417 49.6212 22.997 49.6212 22.997L50.1852 21.541H45.6719L41.5825 32.5677H50.8959L51.8239 30.0624H45.9159L46.7185 27.8997H52.0452L52.8732 25.6584H47.5412L48.2012 23.889H53.9492Z" fill="white"/>
</g>
<mask id="mask12_1_13664" style="mask-type:luminance" maskUnits="userSpaceOnUse" x="-179" y="-490" width="816" height="1057">
<path d="M-179 -489.485H637V566.515H-179V-489.485Z" fill="white"/>
</mask>
<g mask="url(#mask12_1_13664)">
<path d="M49.6576 19.1644C51.4816 21.0857 54.8843 21.2204 54.8843 21.2204L55.6243 19.1964L49.6576 19.1644Z" fill="white"/>
</g>
<mask id="mask13_1_13664" style="mask-type:luminance" maskUnits="userSpaceOnUse" x="-179" y="-490" width="816" height="1057">
<path d="M-179 -489.485H637V566.515H-179V-489.485Z" fill="white"/>
</mask>
<g mask="url(#mask13_1_13664)">
<path d="M93.9167 65.1735H91.2193V49.7401H93.9167V56.0135L98.8473 49.7401H102.343L97.0673 56.0588L102.646 65.1735H99.1713L95.1807 58.4001L93.9167 59.9508V65.1735Z" fill="#231F20"/>
</g>
<mask id="mask14_1_13664" style="mask-type:luminance" maskUnits="userSpaceOnUse" x="-179" y="-490" width="816" height="1057">
<path d="M-179 -489.485H637V566.515H-179V-489.485Z" fill="white"/>
</mask>
<g mask="url(#mask14_1_13664)">
<path d="M108.151 55.9743C106.212 55.9743 105.85 57.9929 105.85 59.4543C105.85 60.9156 106.212 62.9396 108.151 62.9396C110.095 62.9396 110.455 60.9156 110.455 59.4543C110.455 57.9929 110.095 55.9743 108.151 55.9743ZM108.151 65.4769C105.583 65.4769 103.259 63.5823 103.259 59.4543C103.259 55.3249 105.583 53.4369 108.151 53.4369C110.727 53.4369 113.048 55.3249 113.048 59.4543C113.048 63.5823 110.727 65.4769 108.151 65.4769Z" fill="#231F20"/>
</g>
<mask id="mask15_1_13664" style="mask-type:luminance" maskUnits="userSpaceOnUse" x="-179" y="-490" width="816" height="1057">
<path d="M-179 -489.485H637V566.515H-179V-489.485Z" fill="white"/>
</mask>
<g mask="url(#mask15_1_13664)">
<path d="M114.797 53.736H117.209V55.716H117.24C117.761 54.552 118.334 53.436 119.87 53.436C120.032 53.436 120.192 53.46 120.354 53.48V56.5306C120.138 56.4866 119.87 56.4866 119.636 56.4866C117.674 56.4866 117.313 57.952 117.313 59.22V65.1733H114.797V53.736Z" fill="#231F20"/>
</g>
<mask id="mask16_1_13664" style="mask-type:luminance" maskUnits="userSpaceOnUse" x="-179" y="-490" width="816" height="1057">
<path d="M-179 -489.485H637V566.515H-179V-489.485Z" fill="white"/>
</mask>
<g mask="url(#mask16_1_13664)">
<path d="M127.553 58.318C127.412 56.466 126.42 55.9113 125.612 55.9113C124.42 55.9113 123.791 56.8087 123.647 58.318H127.553ZM130.04 61.8233C129.372 64.5727 127.465 65.4767 125.829 65.4767C123.125 65.4767 121.056 63.9247 121.056 59.2207C121.056 57.846 121.453 53.4367 125.645 53.4367C127.539 53.4367 130.143 54.5127 130.143 59.734V60.274H123.575C123.647 61.1313 123.791 63.0687 125.829 63.0687C126.528 63.0687 127.248 62.6367 127.445 61.8233H130.04Z" fill="#231F20"/>
</g>
<mask id="mask17_1_13664" style="mask-type:luminance" maskUnits="userSpaceOnUse" x="-179" y="-490" width="816" height="1057">
<path d="M-179 -489.485H637V566.515H-179V-489.485Z" fill="white"/>
</mask>
<g mask="url(#mask17_1_13664)">
<path d="M137.111 59.607C136.862 59.8444 136.443 60.0364 135.399 60.2324C134.463 60.4244 133.691 60.7057 133.691 61.9484C133.691 63.003 134.374 63.323 134.862 63.323C135.974 63.323 137.111 62.4644 137.111 61.0684V59.607ZM139.578 62.939C139.578 64.2964 139.826 64.595 140.135 64.7244V65.1737H137.417C137.275 64.6364 137.234 64.4644 137.183 63.8217C136.603 64.5284 135.798 65.4764 134.083 65.4764C132.646 65.4764 131.17 64.507 131.17 62.1417C131.17 59.9097 132.361 58.7697 133.958 58.4897L136.226 58.0777C136.625 58.015 137.111 57.823 137.111 57.1777C137.111 55.9124 136.099 55.8457 135.455 55.8457C134.198 55.8457 133.981 56.7684 133.907 57.4364H131.479C131.767 53.9297 133.795 53.4364 135.762 53.4364C137.111 53.4364 139.578 53.9297 139.578 56.7444V62.939Z" fill="#231F20"/>
</g>
<mask id="mask18_1_13664" style="mask-type:luminance" maskUnits="userSpaceOnUse" x="-179" y="-490" width="816" height="1057">
<path d="M-179 -489.485H637V566.515H-179V-489.485Z" fill="white"/>
</mask>
<g mask="url(#mask18_1_13664)">
<path d="M159.426 65.1735H156.91V52.2748H156.871L154.46 65.1735H151.818L149.456 52.2748H149.42V65.1735H146.9V49.7401H150.839L153.183 61.9068H153.219L155.519 49.7401H159.426V65.1735Z" fill="#231F20"/>
</g>
<mask id="mask19_1_13664" style="mask-type:luminance" maskUnits="userSpaceOnUse" x="-179" y="-490" width="816" height="1057">
<path d="M-179 -489.485H637V566.515H-179V-489.485Z" fill="white"/>
</mask>
<g mask="url(#mask19_1_13664)">
<path d="M167.109 59.607C166.861 59.8444 166.446 60.0364 165.401 60.2324C164.466 60.4244 163.691 60.7057 163.691 61.9484C163.691 63.003 164.375 63.323 164.859 63.323C165.977 63.323 167.109 62.4644 167.109 61.0684V59.607ZM169.579 62.939C169.579 64.2964 169.827 64.595 170.133 64.7244V65.1737H167.415C167.273 64.6364 167.235 64.4644 167.182 63.8217C166.606 64.5284 165.799 65.4764 164.09 65.4764C162.647 65.4764 161.17 64.507 161.17 62.1417C161.17 59.9097 162.359 58.7697 163.959 58.4897L166.229 58.0777C166.626 58.015 167.109 57.823 167.109 57.1777C167.109 55.9124 166.105 55.8457 165.454 55.8457C164.194 55.8457 163.979 56.7684 163.91 57.4364H161.482C161.767 53.9297 163.799 53.4364 165.761 53.4364C167.109 53.4364 169.579 53.9297 169.579 56.7444V62.939Z" fill="#231F20"/>
</g>
<mask id="mask20_1_13664" style="mask-type:luminance" maskUnits="userSpaceOnUse" x="-179" y="-490" width="816" height="1057">
<path d="M-179 -489.485H637V566.515H-179V-489.485Z" fill="white"/>
</mask>
<g mask="url(#mask20_1_13664)">
<path d="M171.813 53.736H174.223V55.716H174.259C174.776 54.552 175.355 53.436 176.884 53.436C177.048 53.436 177.205 53.46 177.369 53.48V56.5306C177.153 56.4866 176.884 56.4866 176.647 56.4866C174.684 56.4866 174.329 57.952 174.329 59.22V65.1733H171.813V53.736Z" fill="#231F20"/>
</g>
<mask id="mask21_1_13664" style="mask-type:luminance" maskUnits="userSpaceOnUse" x="-179" y="-490" width="816" height="1057">
<path d="M-179 -489.485H637V566.515H-179V-489.485Z" fill="white"/>
</mask>
<g mask="url(#mask21_1_13664)">
<path d="M181.417 65.1733H178.901V53.736H181.417V65.1733ZM181.417 52.3827H178.901V49.584H181.417V52.3827Z" fill="#231F20"/>
</g>
<mask id="mask22_1_13664" style="mask-type:luminance" maskUnits="userSpaceOnUse" x="-179" y="-490" width="816" height="1057">
<path d="M-179 -489.485H637V566.515H-179V-489.485Z" fill="white"/>
</mask>
<g mask="url(#mask22_1_13664)">
<path d="M192.489 65.1735H189.968V58.2321C189.968 57.3921 189.932 55.9748 188.332 55.9748C187.214 55.9748 186.349 56.8721 186.349 58.6175V65.1735H183.833V53.7361H186.242V55.4121H186.278C186.622 54.7268 187.342 53.4361 189.157 53.4361C191.028 53.4361 192.489 54.7455 192.489 57.2628V65.1735Z" fill="#231F20"/>
</g>
<mask id="mask23_1_13664" style="mask-type:luminance" maskUnits="userSpaceOnUse" x="-179" y="-490" width="816" height="1057">
<path d="M-179 -489.485H637V566.515H-179V-489.485Z" fill="white"/>
</mask>
<g mask="url(#mask23_1_13664)">
<path d="M200.566 58.318C200.426 56.466 199.436 55.9113 198.624 55.9113C197.438 55.9113 196.805 56.8087 196.662 58.318H200.566ZM203.05 61.8233C202.382 64.5727 200.476 65.4767 198.838 65.4767C196.144 65.4767 194.07 63.9247 194.07 59.2207C194.07 57.846 194.464 53.4367 198.66 53.4367C200.548 53.4367 203.162 54.5127 203.162 59.734V60.274H196.59C196.662 61.1313 196.805 63.0687 198.838 63.0687C199.54 63.0687 200.26 62.6367 200.46 61.8233H203.05Z" fill="#231F20"/>
</g>
<mask id="mask24_1_13664" style="mask-type:luminance" maskUnits="userSpaceOnUse" x="-179" y="-490" width="816" height="1057">
<path d="M-179 -489.485H637V566.515H-179V-489.485Z" fill="white"/>
</mask>
<g mask="url(#mask24_1_13664)">
<path d="M219.536 52.469H212.679V55.717H218.98V58.4464H212.679V62.4437H219.842V65.173H210.036V49.7397H219.536V52.469Z" fill="#231F20"/>
</g>
<mask id="mask25_1_13664" style="mask-type:luminance" maskUnits="userSpaceOnUse" x="-179" y="-490" width="816" height="1057">
<path d="M-179 -489.485H637V566.515H-179V-489.485Z" fill="white"/>
</mask>
<g mask="url(#mask25_1_13664)">
<path d="M226.033 62.9392C227.223 62.9392 228.14 61.8632 228.14 59.5205C228.14 56.3619 226.504 56.0352 225.979 56.0352C225.008 56.0352 223.875 56.7685 223.875 59.6672C223.875 61.7125 224.536 62.9392 226.033 62.9392ZM230.604 53.7365V69.6259H228.087V63.7552H228.048C227.528 64.9152 226.591 65.4765 225.333 65.4765C222.325 65.4765 221.285 62.1219 221.285 59.6939C221.285 56.5099 222.505 53.4365 225.475 53.4365C227.113 53.4365 227.8 54.6805 228.156 55.4339H228.191V53.7365H230.604Z" fill="#231F20"/>
</g>
<mask id="mask26_1_13664" style="mask-type:luminance" maskUnits="userSpaceOnUse" x="-179" y="-490" width="816" height="1057">
<path d="M-179 -489.485H637V566.515H-179V-489.485Z" fill="white"/>
</mask>
<g mask="url(#mask26_1_13664)">
<path d="M241.477 65.1734H239.061V63.5614H239.029C238.451 64.7854 237.443 65.4774 236.11 65.4774C234.223 65.4774 232.853 64.1841 232.853 61.2601V53.7361H235.373V60.8308C235.373 62.5961 236.238 62.9388 237.01 62.9388C237.838 62.9388 238.955 62.3761 238.955 60.3348V53.7361H241.477V65.1734Z" fill="#231F20"/>
</g>
<mask id="mask27_1_13664" style="mask-type:luminance" maskUnits="userSpaceOnUse" x="-179" y="-490" width="816" height="1057">
<path d="M-179 -489.485H637V566.515H-179V-489.485Z" fill="white"/>
</mask>
<g mask="url(#mask27_1_13664)">
<path d="M243.907 65.1733H246.427V53.736H243.907V65.1733ZM246.425 49.5853H243.905V52.384H246.425V49.5853Z" fill="#231F20"/>
</g>
<mask id="mask28_1_13664" style="mask-type:luminance" maskUnits="userSpaceOnUse" x="-179" y="-490" width="816" height="1057">
<path d="M-179 -489.485H637V566.515H-179V-489.485Z" fill="white"/>
</mask>
<g mask="url(#mask28_1_13664)">
<path d="M253.409 63.0029C255.027 63.0029 255.478 60.8962 255.478 59.5389C255.478 57.7349 254.938 56.0349 253.331 56.0349C251.606 56.0349 251.194 57.8856 251.194 59.7122C251.194 61.4122 251.803 63.0029 253.409 63.0029ZM251.194 55.3922H251.227C251.698 54.4842 252.397 53.4362 254.09 53.4362C256.195 53.4362 258.069 55.3709 258.069 59.3256C258.069 62.4642 256.883 65.4762 254.038 65.4762C252.271 65.4762 251.642 64.3402 251.335 63.7109H251.299V69.6256H248.782V53.7362H251.194V55.3922Z" fill="#231F20"/>
</g>
<mask id="mask29_1_13664" style="mask-type:luminance" maskUnits="userSpaceOnUse" x="-179" y="-490" width="816" height="1057">
<path d="M-179 -489.485H637V566.515H-179V-489.485Z" fill="white"/>
</mask>
<g mask="url(#mask29_1_13664)">
<path d="M273.526 65.1735H271.006V58.2321C271.006 56.5308 270.375 55.9748 269.641 55.9748C268.379 55.9748 267.929 56.9628 267.929 58.3175V65.1735H265.409V58.2975C265.409 57.3268 265.409 55.9748 263.899 55.9748C262.71 55.9748 262.334 56.9628 262.334 58.2068V65.1735H259.818V53.7361H262.225V55.4121H262.263C262.587 54.6601 263.287 53.4361 264.975 53.4361C266.367 53.4361 266.995 54.0375 267.641 55.2615C267.967 54.7041 268.667 53.4361 270.201 53.4361C272.07 53.4361 273.526 54.7455 273.526 57.2628V65.1735Z" fill="#231F20"/>
</g>
<mask id="mask30_1_13664" style="mask-type:luminance" maskUnits="userSpaceOnUse" x="-179" y="-490" width="816" height="1057">
<path d="M-179 -489.485H637V566.515H-179V-489.485Z" fill="white"/>
</mask>
<g mask="url(#mask30_1_13664)">
<path d="M281.574 58.318C281.428 56.466 280.442 55.9113 279.63 55.9113C278.438 55.9113 277.81 56.8087 277.664 58.318H281.574ZM284.057 61.8233C283.389 64.5727 281.485 65.4767 279.842 65.4767C277.144 65.4767 275.074 63.9247 275.074 59.2207C275.074 57.846 275.468 53.4367 279.662 53.4367C281.554 53.4367 284.161 54.5127 284.161 59.734V60.274H277.596C277.664 61.1313 277.81 63.0687 279.842 63.0687C280.544 63.0687 281.265 62.6367 281.464 61.8233H284.057Z" fill="#231F20"/>
</g>
<mask id="mask31_1_13664" style="mask-type:luminance" maskUnits="userSpaceOnUse" x="-179" y="-490" width="816" height="1057">
<path d="M-179 -489.485H637V566.515H-179V-489.485Z" fill="white"/>
</mask>
<g mask="url(#mask31_1_13664)">
<path d="M294.492 65.1735H291.973V58.2321C291.973 57.3921 291.939 55.9748 290.332 55.9748C289.217 55.9748 288.355 56.8721 288.355 58.6175V65.1735H285.836V53.7361H288.247V55.4121H288.284C288.625 54.7268 289.345 53.4361 291.164 53.4361C293.039 53.4361 294.492 54.7455 294.492 57.2628V65.1735Z" fill="#231F20"/>
</g>
<mask id="mask32_1_13664" style="mask-type:luminance" maskUnits="userSpaceOnUse" x="-179" y="-490" width="816" height="1057">
<path d="M-179 -489.485H637V566.515H-179V-489.485Z" fill="white"/>
</mask>
<g mask="url(#mask32_1_13664)">
<path d="M299.659 53.736H301.221V55.8866H299.659V62.1013C299.659 62.7666 299.679 63.0253 300.701 63.0253C300.864 63.0253 301.045 63.0026 301.221 62.9813V65.2613C300.827 65.284 300.432 65.3026 300.039 65.3026H299.712C297.536 65.3026 297.137 64.316 297.137 62.832V55.8866H295.841V53.736H297.137V50.6413H299.659V53.736Z" fill="#231F20"/>
</g>
<mask id="mask33_1_13664" style="mask-type:luminance" maskUnits="userSpaceOnUse" x="-179" y="-490" width="816" height="1057">
<path d="M-179 -489.485H637V566.515H-179V-489.485Z" fill="white"/>
</mask>
<g mask="url(#mask33_1_13664)">
<path d="M313.837 56.5302C315.248 56.5302 315.929 55.9489 315.929 54.4262C315.929 53.6062 315.62 52.4022 314.04 52.4022H310.672V56.5302H313.837ZM308.028 49.7396H314.56C317.996 49.7396 318.624 52.7716 318.624 54.1009C318.624 55.7982 317.907 57.2636 316.631 57.7809C317.693 58.3342 318.264 58.8116 318.264 61.6956C318.264 63.9516 318.264 64.5062 318.844 64.7649V65.1729H315.857C315.676 64.4422 315.567 63.6462 315.567 62.0569C315.567 59.9502 315.46 59.1329 313.464 59.1329H310.672V65.1729H308.028V49.7396Z" fill="#231F20"/>
</g>
<mask id="mask34_1_13664" style="mask-type:luminance" maskUnits="userSpaceOnUse" x="-179" y="-490" width="816" height="1057">
<path d="M-179 -489.485H637V566.515H-179V-489.485Z" fill="white"/>
</mask>
<g mask="url(#mask34_1_13664)">
<path d="M326.561 58.318C326.421 56.466 325.427 55.9113 324.617 55.9113C323.432 55.9113 322.801 56.8087 322.657 58.318H326.561ZM329.049 61.8233C328.381 64.5727 326.479 65.4767 324.835 65.4767C322.14 65.4767 320.064 63.9247 320.064 59.2207C320.064 57.846 320.464 53.4367 324.655 53.4367C326.548 53.4367 329.151 54.5127 329.151 59.734V60.274H322.588C322.657 61.1313 322.801 63.0687 324.835 63.0687C325.536 63.0687 326.261 62.6367 326.456 61.8233H329.049Z" fill="#231F20"/>
</g>
<mask id="mask35_1_13664" style="mask-type:luminance" maskUnits="userSpaceOnUse" x="-179" y="-490" width="816" height="1057">
<path d="M-179 -489.485H637V566.515H-179V-489.485Z" fill="white"/>
</mask>
<g mask="url(#mask35_1_13664)">
<path d="M336.245 57.2165C336.141 56.4872 335.923 55.7165 334.553 55.7165C333.187 55.7165 333.01 56.3365 333.01 56.8339C333.01 58.6379 339.002 57.3272 339.002 61.5419C339.002 64.8779 336.298 65.4765 334.803 65.4765C332.634 65.4765 330.274 64.5739 330.201 61.5165H332.787C332.787 62.4912 333.297 63.1965 334.875 63.1965C336.173 63.1965 336.479 62.4445 336.479 62.0179C336.479 60.1019 330.539 61.5419 330.539 57.2632C330.539 55.5859 331.423 53.4365 334.41 53.4365C336.283 53.4365 338.513 53.9939 338.714 57.2165H336.245Z" fill="#231F20"/>
</g>
<mask id="mask36_1_13664" style="mask-type:luminance" maskUnits="userSpaceOnUse" x="-179" y="-490" width="816" height="1057">
<path d="M-179 -489.485H637V566.515H-179V-489.485Z" fill="white"/>
</mask>
<g mask="url(#mask36_1_13664)">
<path d="M346.577 58.318C346.433 56.466 345.442 55.9113 344.63 55.9113C343.447 55.9113 342.813 56.8087 342.669 58.318H346.577ZM349.058 61.8233C348.394 64.5727 346.485 65.4767 344.847 65.4767C342.15 65.4767 340.083 63.9247 340.083 59.2207C340.083 57.846 340.478 53.4367 344.667 53.4367C346.555 53.4367 349.169 54.5127 349.169 59.734V60.274H342.599C342.669 61.1313 342.813 63.0687 344.847 63.0687C345.549 63.0687 346.269 62.6367 346.467 61.8233H349.058Z" fill="#231F20"/>
</g>
<mask id="mask37_1_13664" style="mask-type:luminance" maskUnits="userSpaceOnUse" x="-179" y="-490" width="816" height="1057">
<path d="M-179 -489.485H637V566.515H-179V-489.485Z" fill="white"/>
</mask>
<g mask="url(#mask37_1_13664)">
<path d="M356.133 59.607C355.877 59.8444 355.47 60.0364 354.423 60.2324C353.489 60.4244 352.714 60.7057 352.714 61.9484C352.714 63.003 353.397 63.323 353.883 63.323C354.997 63.323 356.133 62.4644 356.133 61.0684V59.607ZM358.598 62.939C358.598 64.2964 358.85 64.595 359.154 64.7244V65.1737H356.435C356.29 64.6364 356.258 64.4644 356.21 63.8217C355.629 64.5284 354.818 65.4764 353.11 65.4764C351.667 65.4764 350.194 64.507 350.194 62.1417C350.194 59.9097 351.382 58.7697 352.982 58.4897L355.251 58.0777C355.65 58.015 356.133 57.823 356.133 57.1777C356.133 55.9124 355.129 55.8457 354.478 55.8457C353.215 55.8457 352.998 56.7684 352.927 57.4364H350.497C350.783 53.9297 352.823 53.4364 354.783 53.4364C356.133 53.4364 358.598 53.9297 358.598 56.7444V62.939Z" fill="#231F20"/>
</g>
<mask id="mask38_1_13664" style="mask-type:luminance" maskUnits="userSpaceOnUse" x="-179" y="-490" width="816" height="1057">
<path d="M-179 -489.485H637V566.515H-179V-489.485Z" fill="white"/>
</mask>
<g mask="url(#mask38_1_13664)">
<path d="M360.832 53.736H363.237V55.716H363.281C363.801 54.552 364.376 53.436 365.905 53.436C366.068 53.436 366.233 53.46 366.391 53.48V56.5306C366.175 56.4866 365.905 56.4866 365.667 56.4866C363.713 56.4866 363.353 57.952 363.353 59.22V65.1733H360.832V53.736Z" fill="#231F20"/>
</g>
<mask id="mask39_1_13664" style="mask-type:luminance" maskUnits="userSpaceOnUse" x="-179" y="-490" width="816" height="1057">
<path d="M-179 -489.485H637V566.515H-179V-489.485Z" fill="white"/>
</mask>
<g mask="url(#mask39_1_13664)">
<path d="M376.092 61.0016C376 62.1869 375.227 65.4763 371.718 65.4763C368.119 65.4763 367.294 62.1869 367.294 59.7789C367.294 56.0763 368.64 53.4363 371.883 53.4363C373.392 53.4363 375.876 54.2536 376.112 57.8229H373.552C373.447 57.0683 373.05 55.8869 371.883 55.9736C370.298 55.9736 369.883 57.8629 369.883 59.2843C369.883 60.5296 369.918 63.0029 371.83 63.0029C373.104 63.0029 373.538 61.5416 373.538 61.0016H376.092Z" fill="#231F20"/>
</g>
<mask id="mask40_1_13664" style="mask-type:luminance" maskUnits="userSpaceOnUse" x="-179" y="-490" width="816" height="1057">
<path d="M-179 -489.485H637V566.515H-179V-489.485Z" fill="white"/>
</mask>
<g mask="url(#mask40_1_13664)">
<path d="M386.513 65.1735H383.998V58.2321C383.998 57.3921 383.954 55.9748 382.354 55.9748C381.238 55.9748 380.374 56.8721 380.374 58.6175V65.1735H377.853V49.7401H380.374V55.2188H380.413C380.733 54.2721 381.816 53.4361 383.182 53.4361C385.056 53.4361 386.513 54.7455 386.513 57.2628V65.1735Z" fill="#231F20"/>
</g>
<mask id="mask41_1_13664" style="mask-type:luminance" maskUnits="userSpaceOnUse" x="-179" y="-490" width="816" height="1057">
<path d="M-179 -489.485H637V566.515H-179V-489.485Z" fill="white"/>
</mask>
<g mask="url(#mask41_1_13664)">
<path d="M396.531 65.1733H393.836V49.74H396.531V65.1733Z" fill="#231F20"/>
</g>
<mask id="mask42_1_13664" style="mask-type:luminance" maskUnits="userSpaceOnUse" x="-179" y="-490" width="816" height="1057">
<path d="M-179 -489.485H637V566.515H-179V-489.485Z" fill="white"/>
</mask>
<g mask="url(#mask42_1_13664)">
<path d="M407.513 65.1735H404.992V58.2321C404.992 57.3921 404.961 55.9748 403.356 55.9748C402.241 55.9748 401.38 56.8721 401.38 58.6175V65.1735H398.858V53.7361H401.265V55.4121H401.306C401.649 54.7268 402.372 53.4361 404.188 53.4361C406.057 53.4361 407.513 54.7455 407.513 57.2628V65.1735Z" fill="#231F20"/>
</g>
<mask id="mask43_1_13664" style="mask-type:luminance" maskUnits="userSpaceOnUse" x="-179" y="-490" width="816" height="1057">
<path d="M-179 -489.485H637V566.515H-179V-489.485Z" fill="white"/>
</mask>
<g mask="url(#mask43_1_13664)">
<path d="M415.271 57.2165C415.16 56.4872 414.943 55.7165 413.577 55.7165C412.211 55.7165 412.027 56.3365 412.027 56.8339C412.027 58.6379 418.021 57.3272 418.021 61.5419C418.021 64.8779 415.325 65.4765 413.831 65.4765C411.648 65.4765 409.293 64.5739 409.22 61.5165H411.815C411.815 62.4912 412.319 63.1965 413.904 63.1965C415.197 63.1965 415.503 62.4445 415.503 62.0179C415.503 60.1019 409.565 61.5419 409.565 57.2632C409.565 55.5859 410.447 53.4365 413.433 53.4365C415.301 53.4365 417.536 53.9939 417.737 57.2165H415.271Z" fill="#231F20"/>
</g>
<mask id="mask44_1_13664" style="mask-type:luminance" maskUnits="userSpaceOnUse" x="-179" y="-490" width="816" height="1057">
<path d="M-179 -489.485H637V566.515H-179V-489.485Z" fill="white"/>
</mask>
<g mask="url(#mask44_1_13664)">
<path d="M422.686 53.736H424.253V55.8866H422.686V62.1013C422.686 62.7666 422.703 63.0253 423.727 63.0253C423.889 63.0253 424.07 63.0026 424.253 62.9813V65.2613C423.857 65.284 423.457 65.3026 423.066 65.3026H422.741C420.562 65.3026 420.162 64.316 420.162 62.832V55.8866H418.873V53.736H420.162V50.6413H422.686V53.736Z" fill="#231F20"/>
</g>
<mask id="mask45_1_13664" style="mask-type:luminance" maskUnits="userSpaceOnUse" x="-179" y="-490" width="816" height="1057">
<path d="M-179 -489.485H637V566.515H-179V-489.485Z" fill="white"/>
</mask>
<g mask="url(#mask45_1_13664)">
<path d="M428.448 65.1733H425.924V53.736H428.448V65.1733ZM428.448 52.3827H425.924V49.584H428.448V52.3827Z" fill="#231F20"/>
</g>
<mask id="mask46_1_13664" style="mask-type:luminance" maskUnits="userSpaceOnUse" x="-179" y="-490" width="816" height="1057">
<path d="M-179 -489.485H637V566.515H-179V-489.485Z" fill="white"/>
</mask>
<g mask="url(#mask46_1_13664)">
<path d="M433.684 53.736H435.246V55.8866H433.684V62.1013C433.684 62.7666 433.7 63.0253 434.728 63.0253C434.888 63.0253 435.07 63.0026 435.246 62.9813V65.2613C434.849 65.284 434.457 65.3026 434.062 65.3026H433.737C431.558 65.3026 431.162 64.316 431.162 62.832V55.8866H429.866V53.736H431.162V50.6413H433.684V53.736Z" fill="#231F20"/>
</g>
<mask id="mask47_1_13664" style="mask-type:luminance" maskUnits="userSpaceOnUse" x="-179" y="-490" width="816" height="1057">
<path d="M-179 -489.485H637V566.515H-179V-489.485Z" fill="white"/>
</mask>
<g mask="url(#mask47_1_13664)">
<path d="M445.488 65.1734H443.075V63.5614H443.04C442.466 64.7854 441.456 65.4774 440.127 65.4774C438.235 65.4774 436.867 64.1841 436.867 61.2601V53.7361H439.387V60.8308C439.387 62.5961 440.251 62.9388 441.022 62.9388C441.852 62.9388 442.967 62.3761 442.967 60.3348V53.7361H445.488V65.1734Z" fill="#231F20"/>
</g>
<mask id="mask48_1_13664" style="mask-type:luminance" maskUnits="userSpaceOnUse" x="-179" y="-490" width="816" height="1057">
<path d="M-179 -489.485H637V566.515H-179V-489.485Z" fill="white"/>
</mask>
<g mask="url(#mask48_1_13664)">
<path d="M450.669 53.736H452.237V55.8866H450.669V62.1013C450.669 62.7666 450.689 63.0253 451.717 63.0253C451.873 63.0253 452.055 63.0026 452.237 62.9813V65.2613C451.84 65.284 451.448 65.3026 451.047 65.3026H450.723C448.545 65.3026 448.149 64.316 448.149 62.832V55.8866H446.857V53.736H448.149V50.6413H450.669V53.736Z" fill="#231F20"/>
</g>
<mask id="mask49_1_13664" style="mask-type:luminance" maskUnits="userSpaceOnUse" x="-179" y="-490" width="816" height="1057">
<path d="M-179 -489.485H637V566.515H-179V-489.485Z" fill="white"/>
</mask>
<g mask="url(#mask49_1_13664)">
<path d="M459.578 58.318C459.437 56.466 458.443 55.9113 457.634 55.9113C456.451 55.9113 455.819 56.8087 455.673 58.318H459.578ZM462.062 61.8233C461.395 64.5727 459.487 65.4767 457.851 65.4767C455.154 65.4767 453.085 63.9247 453.085 59.2207C453.085 57.846 453.477 53.4367 457.674 53.4367C459.559 53.4367 462.17 54.5127 462.17 59.734V60.274H455.597C455.673 61.1313 455.819 63.0687 457.851 63.0687C458.55 63.0687 459.27 62.6367 459.467 61.8233H462.062Z" fill="#231F20"/>
</g>
<mask id="mask50_1_13664" style="mask-type:luminance" maskUnits="userSpaceOnUse" x="-179" y="-490" width="816" height="1057">
<path d="M-179 -489.485H637V566.515H-179V-489.485Z" fill="white"/>
</mask>
<g mask="url(#mask50_1_13664)">
<path d="M117.617 7.60451V17.9325H120.911V21.9512H117.617V32.2098H112.859V7.60451H117.617ZM97.1305 17.3685C96.3999 18.1458 96.0319 19.1325 96.0319 20.3312C96.0319 21.5045 96.3999 22.4952 97.1305 23.2912C97.9479 24.1605 99.0545 24.5952 100.452 24.5952C101.872 24.5952 103.012 24.1725 103.873 23.3272C104.691 22.5512 105.1 21.5978 105.1 20.4698C105.1 19.2738 104.712 18.2632 103.937 17.4418C103.077 16.5472 101.915 16.1005 100.452 16.1005C99.0332 16.1005 97.9265 16.5232 97.1305 17.3685ZM98.9132 37.3645H117.819V41.1498H97.2425C96.2772 41.1498 95.5252 40.8672 94.9892 40.3072C94.4332 39.7005 94.1545 38.8245 94.1545 37.6792V30.2765H98.9132V37.3645ZM98.2012 10.1205V7.40451H102.96V10.1205H109.541V13.7952H104.572C106.704 14.4058 108.197 15.5338 109.059 17.1792C109.853 18.6592 110.057 20.3992 109.672 22.3965C109.263 24.0192 108.296 25.3685 106.765 26.4498C105.067 27.6498 102.964 28.2485 100.452 28.2485C97.9825 28.2485 95.9092 27.6258 94.2345 26.3778C92.7519 25.2738 91.8145 23.9005 91.4239 22.2525C91.0172 20.3525 91.2119 18.6592 92.0079 17.1792C92.8452 15.5792 94.2865 14.4538 96.3305 13.7952H91.3959V10.1205H98.2012Z" fill="#231F20"/>
</g>
<mask id="mask51_1_13664" style="mask-type:luminance" maskUnits="userSpaceOnUse" x="-179" y="-490" width="816" height="1057">
<path d="M-179 -489.485H637V566.515H-179V-489.485Z" fill="white"/>
</mask>
<g mask="url(#mask51_1_13664)">
<path d="M150.428 24.3636H138.836V29.1663H149.011V41.4849H144.251V32.9543H124.238V29.1663H134.079V24.3636H122.82V20.5783H143.671C143.866 19.6623 144.015 18.6143 144.123 17.4423C144.208 16.4543 144.251 15.3383 144.251 14.0916V12.1556H124.25V8.31293H149.011V11.9423C149.011 13.3503 148.955 14.7849 148.848 16.2423C148.719 17.8876 148.547 19.3316 148.331 20.5783H150.428V24.3636Z" fill="#231F20"/>
</g>
<mask id="mask52_1_13664" style="mask-type:luminance" maskUnits="userSpaceOnUse" x="-179" y="-490" width="816" height="1057">
<path d="M-179 -489.485H637V566.515H-179V-489.485Z" fill="white"/>
</mask>
<g mask="url(#mask52_1_13664)">
<path d="M165.689 35.3279V26.5532H170.447V35.3279H181.835V39.0585H153.913V35.3279H165.689ZM180.17 8.3132V12.2132H170.231C170.231 15.5505 171.35 18.3692 173.589 20.6719C175.586 22.7639 178.361 24.2919 181.909 25.2545L179.879 28.3572C176.694 27.3705 174.243 26.2879 172.522 25.1159C170.457 23.7265 168.898 21.9159 167.845 19.6852C166.79 21.9399 165.219 23.7492 163.133 25.1159C161.391 26.2652 158.886 27.3479 155.617 28.3572L153.875 25.2185C157.423 24.1385 160.186 22.5999 162.166 20.6025C164.402 18.3199 165.523 15.5252 165.523 12.2132H155.585V8.3132H180.17Z" fill="#231F20"/>
</g>
<mask id="mask53_1_13664" style="mask-type:luminance" maskUnits="userSpaceOnUse" x="-179" y="-490" width="816" height="1057">
<path d="M-179 -489.485H637V566.515H-179V-489.485Z" fill="white"/>
</mask>
<g mask="url(#mask53_1_13664)">
<path d="M211.739 32.7041H206.98V17.7215H202.692V13.7028H206.98V7.60414H211.739V32.7041ZM192.595 37.3641H211.986V41.1495H192.05C190.527 41.1495 189.432 40.8575 188.77 40.2735C188.148 39.6881 187.835 38.7401 187.835 37.4348V30.2415H192.595V37.3641ZM199.298 19.2735C200.588 21.4575 202.45 23.1495 204.879 24.3495L202.59 27.3081C200.719 26.2508 199.03 24.9948 197.523 23.5388C195.975 22.0348 194.911 20.6015 194.331 19.2375C193.663 20.6015 192.556 22.0348 191.007 23.5388C189.479 24.9948 187.834 26.2268 186.072 27.2401L184.102 24.3855C186.34 23.0428 188.082 21.3401 189.328 19.2735C191.071 16.3361 191.942 12.5401 191.942 7.88548H196.748C196.748 12.6095 197.598 16.4068 199.298 19.2735Z" fill="#231F20"/>
</g>
<mask id="mask54_1_13664" style="mask-type:luminance" maskUnits="userSpaceOnUse" x="-179" y="-490" width="816" height="1057">
<path d="M-179 -489.485H637V566.515H-179V-489.485Z" fill="white"/>
</mask>
<g mask="url(#mask54_1_13664)">
<path d="M231.479 7.60769H236.239V21.4264H238.755V7.60769H243.457V41.525H238.755V25.381H236.239V41.525H231.479V7.60769ZM221.038 19.061C220.698 20.7077 220.523 22.8704 220.523 25.5464C220.523 28.1077 220.698 30.2837 221.038 32.069C221.47 34.161 222.073 35.2064 222.846 35.2064C223.643 35.2064 224.269 34.161 224.718 32.069C225.105 30.3064 225.299 28.1304 225.299 25.5464C225.299 22.8704 225.105 20.7077 224.718 19.061C224.286 17.2037 223.663 16.2757 222.846 16.2757C222.051 16.2757 221.45 17.2037 221.038 19.061ZM220.158 10.2344V7.41169H224.918V10.2344H229.95V13.9637H225.855C227.379 15.021 228.507 16.925 229.239 19.6757C229.929 22.1904 230.165 24.949 229.95 27.9597C229.693 31.0837 228.993 33.645 227.854 35.641C226.562 37.897 224.893 39.025 222.845 39.025C220.795 39.025 219.147 37.897 217.901 35.641C216.782 33.645 216.105 31.0837 215.867 27.9597C215.609 24.9744 215.814 22.213 216.479 19.6757C217.213 16.949 218.35 15.045 219.899 13.9637H215.706V10.2344H220.158Z" fill="#231F20"/>
</g>
<mask id="mask55_1_13664" style="mask-type:luminance" maskUnits="userSpaceOnUse" x="-179" y="-490" width="816" height="1057">
<path d="M-179 -489.485H637V566.515H-179V-489.485Z" fill="white"/>
</mask>
<g mask="url(#mask55_1_13664)">
<path d="M273.758 7.57783V10.8552H277.017V14.5885H273.758V19.2765H277.017V23.0645H273.758V26.8712H268.998V7.57783H273.758ZM256.331 32.7725C255.173 33.4098 254.591 34.2072 254.591 35.1712C254.591 36.0885 255.173 36.8632 256.331 37.4965C257.666 38.2245 259.505 38.5898 261.85 38.5898C264.282 38.5898 266.182 38.2245 267.561 37.4965C268.786 36.8632 269.399 36.0885 269.399 35.1712C269.399 34.2072 268.786 33.4098 267.561 32.7725C266.182 32.0458 264.282 31.6792 261.85 31.6792C259.485 31.6792 257.645 32.0458 256.331 32.7725ZM253.689 12.7512C253.063 13.6898 252.753 14.9738 252.753 16.5925C252.753 18.1925 253.063 19.4605 253.689 20.4018C254.417 21.4832 255.494 22.0218 256.911 22.0218C258.313 22.0218 259.377 21.4832 260.107 20.4018C260.754 19.4605 261.078 18.1925 261.078 16.5925C261.078 14.9738 260.754 13.6898 260.107 12.7512C259.377 11.6938 258.313 11.1645 256.911 11.1645C255.494 11.1645 254.417 11.6938 253.689 12.7512ZM271.239 30.1312C273.238 31.4938 274.239 33.1738 274.239 35.1712C274.239 37.1445 273.238 38.8032 271.239 40.1418C268.981 41.6672 265.913 42.4325 262.043 42.4325C258.13 42.4325 255.054 41.6672 252.815 40.1418C250.838 38.8032 249.849 37.1445 249.849 35.1712C249.849 33.1498 250.838 31.4698 252.815 30.1312C255.054 28.6032 258.13 27.8378 262.043 27.8378C265.913 27.8378 268.981 28.6032 271.239 30.1312ZM263.721 10.1792C265.162 11.8458 265.882 13.9845 265.882 16.5925C265.882 19.1792 265.162 21.3032 263.721 22.9725C262.109 24.8298 259.839 25.7578 256.911 25.7578C253.967 25.7578 251.699 24.8298 250.109 22.9725C248.666 21.3032 247.945 19.1792 247.945 16.5925C247.945 13.9845 248.666 11.8458 250.109 10.1792C251.699 8.34583 253.967 7.42716 256.911 7.42716C259.839 7.42716 262.109 8.34583 263.721 10.1792Z" fill="#231F20"/>
</g>
<mask id="mask56_1_13664" style="mask-type:luminance" maskUnits="userSpaceOnUse" x="-179" y="-490" width="816" height="1057">
<path d="M-179 -489.485H637V566.515H-179V-489.485Z" fill="white"/>
</mask>
<g mask="url(#mask56_1_13664)">
<path d="M305.421 41.516H300.663V7.60397H305.421V41.516ZM294.264 8.31332V18.8186C294.264 23.8466 293.055 28.0653 290.637 31.4733C288.399 34.5973 285.075 37.124 280.668 39.0507L278.763 36.1613C281.987 34.656 284.495 32.7413 286.28 30.4146C288.429 27.62 289.504 24.248 289.504 20.2987V12.1547H279.537V8.31332H294.264Z" fill="#231F20"/>
</g>
<mask id="mask57_1_13664" style="mask-type:luminance" maskUnits="userSpaceOnUse" x="-179" y="-490" width="816" height="1057">
<path d="M-179 -489.485H637V566.515H-179V-489.485Z" fill="white"/>
</mask>
<g mask="url(#mask57_1_13664)">
<path d="M336.211 7.6208V21.3701H339.468V25.2675H336.211V41.5541H331.454V7.6208H336.211ZM327.884 8.3128V11.9848H321.882V19.7395C321.882 23.8541 322.711 27.3795 324.364 30.3168C325.784 32.8075 327.69 34.6861 330.074 35.9581L327.302 39.0248C325.387 37.8248 323.82 36.4968 322.594 35.0395C321.176 33.3728 320.146 31.5048 319.504 29.4368C318.903 31.4568 317.85 33.3261 316.348 35.0395C315.124 36.4501 313.563 37.7781 311.67 39.0248L309.251 35.9581C311.466 34.6648 313.263 32.7715 314.638 30.2808C316.294 27.3208 317.122 23.8181 317.122 19.7755V11.9848H311.09V8.3128H327.884Z" fill="#231F20"/>
</g>
<mask id="mask58_1_13664" style="mask-type:luminance" maskUnits="userSpaceOnUse" x="-179" y="-490" width="816" height="1057">
<path d="M-179 -489.485H637V566.515H-179V-489.485Z" fill="white"/>
</mask>
<g mask="url(#mask58_1_13664)">
<path d="M356.392 7.60769H361.148V21.4264H363.667V7.60769H368.369V41.525H363.667V25.381H361.148V41.525H356.392V7.60769ZM354.145 8.31303V12.0424H350.212V22.053C350.212 25.0624 350.78 27.8344 351.92 30.373C352.973 32.653 354.424 34.5904 356.276 36.1904L353.469 39.045C351.899 37.657 350.641 36.2477 349.696 34.813C348.796 33.429 348.173 32.0064 347.832 30.5517C347.36 32.1237 346.684 33.605 345.808 34.9904C344.775 36.5424 343.517 37.8917 342.031 39.045L339.772 36.1904C341.516 34.781 342.881 32.8757 343.871 30.481C344.923 27.9664 345.453 25.1784 345.453 22.1237V12.0424H341.452V8.31303H354.145Z" fill="#231F20"/>
</g>
<mask id="mask59_1_13664" style="mask-type:luminance" maskUnits="userSpaceOnUse" x="-179" y="-490" width="816" height="1057">
<path d="M-179 -489.485H637V566.515H-179V-489.485Z" fill="white"/>
</mask>
<g mask="url(#mask59_1_13664)">
<path d="M390.668 16.3674C390.689 16.5541 390.7 16.8448 390.7 17.2448C390.7 17.8768 390.647 18.4981 390.537 19.1034C390.432 19.7128 390.292 20.2981 390.12 20.8581H394.347V15.4888H390.537C390.604 15.7474 390.647 16.0394 390.668 16.3674ZM378.725 13.0701C378.06 14.1728 377.729 15.5728 377.729 17.2621C377.729 18.9328 378.06 20.3181 378.725 21.4234C379.456 22.6448 380.489 23.2568 381.823 23.2568C383.136 23.2568 384.157 22.6448 384.888 21.4234C385.577 20.3181 385.921 18.9328 385.921 17.2621C385.921 15.5728 385.577 14.1728 384.888 13.0701C384.157 11.8461 383.136 11.2354 381.823 11.2354C380.489 11.2354 379.456 11.8461 378.725 13.0701ZM379.961 37.3648H399.351V41.1501H379.416C377.892 41.1501 376.799 40.8568 376.135 40.2741C375.515 39.6874 375.201 38.7408 375.201 37.4341V30.2421H379.961V37.3648ZM394.347 7.63009H399.105V33.5648H394.347V24.6461H389.151V23.0301C388.397 24.2248 387.431 25.1621 386.247 25.8461C384.959 26.5954 383.485 26.9714 381.828 26.9714C378.988 26.9714 376.763 25.9621 375.149 23.9448C373.688 22.1408 372.957 19.9021 372.957 17.2328C372.957 14.5181 373.688 12.2541 375.149 10.4501C376.763 8.45142 378.988 7.45142 381.828 7.45142C383.551 7.45142 385.064 7.82875 386.377 8.58075C387.581 9.30875 388.561 10.3301 389.313 11.6474H394.347V7.63009Z" fill="#231F20"/>
</g>
<mask id="mask60_1_13664" style="mask-type:luminance" maskUnits="userSpaceOnUse" x="-179" y="-490" width="816" height="1057">
<path d="M-179 -489.485H637V566.515H-179V-489.485Z" fill="white"/>
</mask>
<g mask="url(#mask60_1_13664)">
<path d="M430.574 28.0368H418.817V41.4661H414.058V28.0368H402.992V24.2501H423.622C423.901 22.9808 424.105 21.6448 424.233 20.2355C424.342 19.0368 424.394 17.6648 424.394 16.1141V12.0955H404.39V8.31279H429.157V14.6115C429.157 16.4635 429.09 18.0595 428.962 19.3955C428.813 21.1768 428.553 22.7968 428.189 24.2501H430.574V28.0368Z" fill="#231F20"/>
</g>
<mask id="mask61_1_13664" style="mask-type:luminance" maskUnits="userSpaceOnUse" x="-179" y="-490" width="816" height="1057">
<path d="M-179 -489.485H637V566.515H-179V-489.485Z" fill="white"/>
</mask>
<g mask="url(#mask61_1_13664)">
<path d="M440.245 12.1885C439.535 12.8218 439.179 13.6218 439.179 14.5845C439.179 15.5005 439.535 16.2525 440.245 16.8392C441.062 17.5218 442.195 17.8645 443.634 17.8645C445.095 17.8645 446.237 17.5218 447.05 16.8392C447.781 16.2525 448.15 15.5005 448.15 14.5845C448.15 13.5965 447.781 12.7992 447.05 12.1885C446.237 11.5298 445.095 11.1992 443.634 11.1992C442.195 11.1992 441.062 11.5298 440.245 12.1885ZM450.634 9.61384C452.162 10.9085 452.925 12.5512 452.925 14.5498C452.925 16.4992 452.162 18.1352 450.634 19.4485C448.933 20.9058 446.601 21.6338 443.634 21.6338C440.685 21.6338 438.363 20.9058 436.665 19.4485C435.159 18.1352 434.406 16.4992 434.406 14.5498C434.406 12.5512 435.159 10.9085 436.665 9.61384C438.339 8.15651 440.663 7.42718 443.634 7.42718C446.601 7.42718 448.933 8.15651 450.634 9.61384ZM455.897 22.6098V7.62984H460.657V33.9658H455.897V31.9938H450.483V28.2072H455.897V26.3992H445.667V31.9938H441.513V37.3645H460.901V41.1498H440.963C439.439 41.1498 438.349 40.8552 437.686 40.2738C437.062 39.6845 436.755 38.7378 436.755 37.4272V30.8592H440.91V26.3992H433.683V22.6098H455.897Z" fill="#231F20"/>
</g>
</g>
<defs>
<clipPath id="clip0_1_13664">
<rect width="462" height="76" fill="white"/>
</clipPath>
</defs>
</svg>
