<svg width="625" height="101" viewBox="0 0 625 101" fill="none" xmlns="http://www.w3.org/2000/svg">
<g clip-path="url(#clip0_28_3746)">
<mask id="mask0_28_3746" style="mask-type:luminance" maskUnits="userSpaceOnUse" x="-351" y="-375" width="1123" height="794">
<path d="M-351 -375H771.52V418.701H-351V-375Z" fill="white"/>
</mask>
<g mask="url(#mask0_28_3746)">
<path d="M179.05 56.4179L191.919 64.1165C190.666 66.2325 189.158 68.1712 187.395 69.9339C184.574 72.7552 181.322 74.9299 177.639 76.4565C173.956 77.9845 170.118 78.7485 166.122 78.7485C162.126 78.7485 158.286 77.9845 154.603 76.4565C150.92 74.9299 147.668 72.7552 144.848 69.9339C142.027 67.1125 139.852 63.8619 138.324 60.1792C136.796 56.4965 136.032 52.6565 136.032 48.6605C136.032 44.6645 136.796 40.8245 138.324 37.1419C139.852 33.4605 142.027 30.2085 144.848 27.3872C147.668 24.5659 150.92 22.3912 154.603 20.8645C158.286 19.3365 162.126 18.5725 166.122 18.5725C170.118 18.5725 173.956 19.3365 177.639 20.8645C181.322 22.3912 184.574 24.5659 187.395 27.3872C189.158 29.1512 190.666 31.0899 191.919 33.2045L179.05 40.9032C178.422 39.8845 177.659 38.9259 176.758 38.0245C173.819 35.0859 170.274 33.6165 166.122 33.6165C161.968 33.6165 158.423 35.0859 155.484 38.0245C152.547 40.9632 151.078 44.5085 151.078 48.6605C151.078 52.8139 152.547 56.3592 155.484 59.2979C158.423 62.2352 161.968 63.7045 166.122 63.7045C170.274 63.7045 173.819 62.2352 176.758 59.2979C177.659 58.3965 178.422 57.4379 179.05 56.4179Z" fill="#2CA4E3"/>
</g>
<mask id="mask1_28_3746" style="mask-type:luminance" maskUnits="userSpaceOnUse" x="-351" y="-375" width="1123" height="794">
<path d="M-351 -375H771.52V418.701H-351V-375Z" fill="white"/>
</mask>
<g mask="url(#mask1_28_3746)">
<path d="M68.6959 85.8203C72.8479 85.8203 76.3946 84.3509 79.3332 81.4123C82.2719 78.4736 83.7412 74.9283 83.7412 70.7749C83.7412 66.6243 82.2719 63.0776 79.3332 60.1389C76.3946 57.2003 72.8479 55.7309 68.6959 55.7309C64.5439 55.7309 60.9986 57.2003 58.0599 60.1389C55.1212 63.0776 53.6519 66.6243 53.6519 70.7749C53.6519 74.9283 55.1212 78.4736 58.0599 81.4123C60.9986 84.3509 64.5439 85.8203 68.6959 85.8203ZM68.6959 100.864C64.6999 100.864 60.8612 100.1 57.1772 98.5723C53.4946 97.0443 50.2439 94.8709 47.4226 92.0483C44.6026 89.2283 42.4279 85.9776 40.8999 82.2949C39.3719 78.6123 38.6079 74.7709 38.6079 70.7749C38.6079 66.7803 39.3719 62.9403 40.8999 59.2576C42.4279 55.5749 44.6026 52.3243 47.4226 49.5016C50.2439 46.6816 53.4946 44.5069 57.1772 42.9803C60.8612 41.4523 64.6999 40.6883 68.6959 40.6883C72.6919 40.6883 76.5306 41.4523 80.2132 42.9803C83.8972 44.5069 87.1492 46.6816 89.9692 49.5016C92.7906 52.3243 94.9639 55.5749 96.4919 59.2576C98.0199 62.9403 98.7852 66.7803 98.7852 70.7749C98.7852 74.7709 98.0199 78.6123 96.4919 82.2949C94.9639 85.9776 92.7906 89.2283 89.9692 92.0483C87.1492 94.8709 83.8972 97.0443 80.2132 98.5723C76.5306 100.1 72.6919 100.864 68.6959 100.864Z" fill="#2CA4E3"/>
</g>
<mask id="mask2_28_3746" style="mask-type:luminance" maskUnits="userSpaceOnUse" x="-351" y="-375" width="1123" height="794">
<path d="M-351 -375H771.52V418.701H-351V-375Z" fill="white"/>
</mask>
<g mask="url(#mask2_28_3746)">
<path d="M108.094 63.706C112.246 63.706 115.792 62.2367 118.73 59.298C121.669 56.3593 123.138 52.814 123.138 48.6607C123.138 44.51 121.669 40.9633 118.73 38.026C115.792 35.0873 112.246 33.618 108.094 33.618C103.941 33.618 100.396 35.0873 97.457 38.026C94.5197 40.9633 93.0503 44.51 93.0503 48.6607C93.0503 52.814 94.5197 56.3593 97.457 59.298C100.396 62.2367 103.941 63.706 108.094 63.706ZM93.0503 22.63C94.1863 21.9633 95.361 21.3753 96.577 20.866C100.258 19.338 104.098 18.574 108.094 18.574C112.09 18.574 115.929 19.338 119.612 20.866C123.294 22.394 126.546 24.5673 129.368 27.3887C132.188 30.21 134.362 33.462 135.89 37.1433C137.418 40.826 138.181 44.666 138.181 48.6607C138.181 52.658 137.418 56.498 135.89 60.1807C134.362 63.8633 132.188 67.114 129.368 69.934C126.546 72.7553 123.294 74.93 119.612 76.4567C115.929 77.986 112.09 78.75 108.094 78.75C104.098 78.75 100.258 77.986 96.577 76.4567C92.893 74.93 89.6423 72.7553 86.821 69.934C84.001 67.114 81.8263 63.8633 80.2983 60.1807C78.7703 56.498 78.0063 52.658 78.0063 48.6607V0.130004H93.0503V22.63Z" fill="#2CA4E3"/>
</g>
<mask id="mask3_28_3746" style="mask-type:luminance" maskUnits="userSpaceOnUse" x="-351" y="-375" width="1123" height="794">
<path d="M-351 -375H771.52V418.701H-351V-375Z" fill="white"/>
</mask>
<g mask="url(#mask3_28_3746)">
<path d="M14.6382 52.3131V75.3491H-0.405762V0.13046H14.6382V38.2091L39.0849 15.1731H59.7702L29.6822 45.2611L53.0209 63.7745L46.1382 77.1611L14.6382 52.3131Z" fill="#2CA4E3"/>
</g>
<path d="M57.1762 42.9812C53.4976 44.5052 50.2483 46.6799 47.4216 49.5052C47.2523 49.6759 47.0762 49.8519 46.9136 50.0279L57.1629 61.1173C57.4429 60.7839 57.7429 60.4599 58.0616 60.1399C60.9989 57.2039 64.5469 55.7319 68.6949 55.7319C72.8496 55.7319 76.3976 57.2039 79.3363 60.1399C80.3909 61.1946 81.2576 62.3279 81.9336 63.5386L94.9309 56.0373C93.5896 53.6479 91.9362 51.4719 89.9696 49.5052C87.1496 46.6799 83.9003 44.5052 80.2136 42.9812C76.5296 41.4519 72.6936 40.6893 68.6949 40.6893C64.7042 40.6893 60.8616 41.4519 57.1762 42.9812Z" fill="url(#paint0_linear_28_3746)"/>
<path d="M118.732 59.2998C115.793 62.2358 112.245 63.7092 108.097 63.7092C103.943 63.7092 100.395 62.2358 97.4574 59.2998C96.4414 58.2838 95.6015 57.1958 94.9375 56.0305L81.9468 63.5318C83.2628 65.8705 84.8895 67.9998 86.8241 69.9332C89.6441 72.7532 92.8934 74.9278 96.5788 76.4585C100.257 77.9891 104.099 78.7505 108.097 78.7505C112.089 78.7505 115.931 77.9891 119.609 76.4585C123.296 74.9278 126.545 72.7532 129.365 69.9332C130.14 69.1585 130.863 68.3572 131.539 67.5172L121.727 55.1385C121.003 56.6438 120.007 58.0238 118.732 59.2998Z" fill="url(#paint1_linear_28_3746)"/>
<mask id="mask4_28_3746" style="mask-type:luminance" maskUnits="userSpaceOnUse" x="-352" y="-375" width="1124" height="794">
<path d="M-351 -375H771.52V418.701H-351V-375Z" fill="white"/>
</mask>
<g mask="url(#mask4_28_3746)">
<path d="M96.6604 59.2507C95.1004 55.492 92.8831 52.1734 90.0018 49.2934C87.1231 46.4147 83.8044 44.1947 80.0458 42.636C79.3004 42.328 78.5484 42.0587 78.0071 41.8787V48.5027C77.7911 52.5134 78.5711 56.4334 80.1311 60.192C81.6911 63.9507 83.9098 67.2694 86.7884 70.148C89.6671 73.028 92.9871 75.248 96.7458 76.8067C97.2684 77.0227 97.5418 77.1307 98.0711 77.3174C98.5164 75.2294 99.0004 73.1867 99.0004 71.0067C99.0004 66.9294 98.2204 63.0094 96.6604 59.2507Z" fill="#2CA4E3"/>
</g>
<mask id="mask5_28_3746" style="mask-type:luminance" maskUnits="userSpaceOnUse" x="-351" y="-375" width="1123" height="794">
<path d="M-351 -375H771.52V418.701H-351V-375Z" fill="white"/>
</mask>
<g mask="url(#mask5_28_3746)">
<path d="M217.855 84.9289H220.268V91.8903L226.854 84.9289H229.839L224.084 90.8823L230.096 98.7729H227.15L222.423 92.5423L220.268 94.7583V98.7729H217.855V84.9289Z" fill="#5A5758"/>
</g>
<mask id="mask6_28_3746" style="mask-type:luminance" maskUnits="userSpaceOnUse" x="-351" y="-375" width="1123" height="794">
<path d="M-351 -375H771.52V418.701H-351V-375Z" fill="white"/>
</mask>
<g mask="url(#mask6_28_3746)">
<path d="M237.082 96.7761C237.765 96.7761 238.391 96.6467 238.962 96.3894C239.533 96.1334 240.023 95.7827 240.429 95.3427C240.837 94.9001 241.155 94.3814 241.385 93.7894C241.614 93.1947 241.73 92.5627 241.73 91.8907V91.8507C241.73 91.1774 241.614 90.5427 241.385 89.9427C241.155 89.3414 240.833 88.8214 240.419 88.3801C240.006 87.9374 239.51 87.5854 238.933 87.3214C238.355 87.0587 237.725 86.9267 237.042 86.9267C236.359 86.9267 235.733 87.0547 235.162 87.3121C234.59 87.5681 234.102 87.9187 233.694 88.3601C233.287 88.8027 232.969 89.3201 232.738 89.9121C232.509 90.5054 232.394 91.1387 232.394 91.8107V91.8507C232.394 92.5227 232.509 93.1587 232.738 93.7601C232.969 94.3601 233.29 94.8814 233.705 95.3214C234.118 95.7641 234.614 96.1161 235.191 96.3801C235.769 96.6427 236.398 96.7761 237.082 96.7761ZM237.042 99.0107C235.974 99.0107 234.998 98.8227 234.115 98.4467C233.231 98.0707 232.474 97.5601 231.841 96.9134C231.207 96.2681 230.714 95.5121 230.357 94.6494C230.001 93.7867 229.823 92.8667 229.823 91.8907V91.8507C229.823 90.8761 230.001 89.9547 230.357 89.0921C230.714 88.2281 231.214 87.4707 231.861 86.8174C232.506 86.1641 233.271 85.6467 234.155 85.2654C235.038 84.8827 236.014 84.6907 237.082 84.6907C238.15 84.6907 239.125 84.8787 240.009 85.2547C240.893 85.6307 241.65 86.1427 242.283 86.7881C242.917 87.4347 243.41 88.1894 243.766 89.0534C244.123 89.9161 244.301 90.8347 244.301 91.8107V91.8507C244.301 92.8267 244.123 93.7467 243.766 94.6107C243.41 95.4734 242.909 96.2321 242.263 96.8841C241.617 97.5374 240.853 98.0547 239.97 98.4374C239.086 98.8187 238.11 99.0107 237.042 99.0107Z" fill="#5A5758"/>
</g>
<mask id="mask7_28_3746" style="mask-type:luminance" maskUnits="userSpaceOnUse" x="-352" y="-375" width="1124" height="794">
<path d="M-351 -375H771.52V418.701H-351V-375Z" fill="white"/>
</mask>
<g mask="url(#mask7_28_3746)">
<path d="M252.381 91.7908C253.253 91.7908 253.948 91.5828 254.464 91.1654C254.98 90.7494 255.237 90.1828 255.237 89.4668V89.4281C255.237 88.6721 254.986 88.1001 254.484 87.7094C253.981 87.3201 253.273 87.1241 252.361 87.1241H248.81V91.7908H252.381ZM246.397 84.9294H252.568C253.438 84.9294 254.209 85.0508 254.881 85.2948C255.554 85.5388 256.114 85.8788 256.562 86.3134C256.932 86.6961 257.216 87.1374 257.413 87.6374C257.61 88.1401 257.709 88.6934 257.709 89.3001V89.3388C257.709 89.9068 257.628 90.4161 257.462 90.8708C257.297 91.3268 257.07 91.7294 256.78 92.0788C256.49 92.4268 256.144 92.7241 255.741 92.9681C255.34 93.2121 254.894 93.4001 254.406 93.5308L258.145 98.7734H255.277L251.865 93.9468H251.825H248.81V98.7734H246.397V84.9294Z" fill="#5A5758"/>
</g>
<mask id="mask8_28_3746" style="mask-type:luminance" maskUnits="userSpaceOnUse" x="-351" y="-375" width="1123" height="794">
<path d="M-351 -375H771.521V418.701H-351V-375Z" fill="white"/>
</mask>
<g mask="url(#mask8_28_3746)">
<path d="M260.301 84.9289H270.545V87.1249H262.714V90.6836H269.655V92.8796H262.714V96.5769H270.645V98.7729H260.301V84.9289Z" fill="#5A5758"/>
</g>
<mask id="mask9_28_3746" style="mask-type:luminance" maskUnits="userSpaceOnUse" x="-351" y="-375" width="1123" height="794">
<path d="M-351 -375H771.52V418.701H-351V-375Z" fill="white"/>
</mask>
<g mask="url(#mask9_28_3746)">
<path d="M281.542 93.2748L279.148 87.7374L276.775 93.2748H281.542ZM278.06 84.8308H280.315L286.407 98.7734H283.836L282.431 95.4308H275.884L274.462 98.7734H271.97L278.06 84.8308Z" fill="#5A5758"/>
</g>
<mask id="mask10_28_3746" style="mask-type:luminance" maskUnits="userSpaceOnUse" x="-351" y="-375" width="1123" height="794">
<path d="M-351 -375H771.52V418.701H-351V-375Z" fill="white"/>
</mask>
<g mask="url(#mask10_28_3746)">
<path d="M298.198 96.7761C298.88 96.7761 299.507 96.6467 300.078 96.3894C300.648 96.1334 301.138 95.7827 301.544 95.3427C301.952 94.9001 302.271 94.3814 302.5 93.7894C302.73 93.1947 302.846 92.5627 302.846 91.8907V91.8507C302.846 91.1774 302.73 90.5427 302.5 89.9427C302.271 89.3414 301.948 88.8214 301.535 88.3801C301.122 87.9374 300.626 87.5854 300.048 87.3214C299.471 87.0587 298.84 86.9267 298.158 86.9267C297.475 86.9267 296.848 87.0547 296.278 87.3121C295.706 87.5681 295.218 87.9187 294.81 88.3601C294.403 88.8027 294.084 89.3201 293.855 89.9121C293.624 90.5054 293.511 91.1387 293.511 91.8107V91.8507C293.511 92.5227 293.624 93.1587 293.855 93.7601C294.084 94.3601 294.407 94.8814 294.82 95.3214C295.234 95.7641 295.73 96.1161 296.307 96.3801C296.884 96.6427 297.514 96.7761 298.198 96.7761ZM298.158 99.0107C297.09 99.0107 296.114 98.8227 295.231 98.4467C294.347 98.0707 293.59 97.5601 292.956 96.9134C292.323 96.2681 291.83 95.5121 291.472 94.6494C291.118 93.7867 290.939 92.8667 290.939 91.8907V91.8507C290.939 90.8761 291.118 89.9547 291.472 89.0921C291.83 88.2281 292.33 87.4707 292.976 86.8174C293.622 86.1641 294.387 85.6467 295.271 85.2654C296.154 84.8827 297.13 84.6907 298.198 84.6907C299.266 84.6907 300.24 84.8787 301.124 85.2547C302.008 85.6307 302.766 86.1427 303.399 86.7881C304.032 87.4347 304.526 88.1894 304.882 89.0534C305.239 89.9161 305.416 90.8347 305.416 91.8107V91.8507C305.416 92.8267 305.239 93.7467 304.882 94.6107C304.526 95.4734 304.026 96.2321 303.379 96.8841C302.732 97.5374 301.968 98.0547 301.086 98.4374C300.202 98.8187 299.226 99.0107 298.158 99.0107Z" fill="#5A5758"/>
</g>
<mask id="mask11_28_3746" style="mask-type:luminance" maskUnits="userSpaceOnUse" x="-351" y="-375" width="1123" height="794">
<path d="M-351 -375H771.52V418.701H-351V-375Z" fill="white"/>
</mask>
<g mask="url(#mask11_28_3746)">
<path d="M313.962 99.0107C312.946 99.0107 312.01 98.8267 311.154 98.4574C310.295 98.0881 309.552 97.5827 308.923 96.9441C308.292 96.3041 307.798 95.5481 307.439 94.6787C307.08 93.8081 306.9 92.8787 306.9 91.8907V91.8507C306.9 90.8614 307.076 89.9361 307.43 89.0721C307.782 88.2081 308.275 87.4494 308.912 86.7974C309.548 86.1454 310.303 85.6307 311.172 85.2547C312.043 84.8787 313.006 84.6907 314.06 84.6907C314.694 84.6907 315.27 84.7441 315.791 84.8494C316.311 84.9561 316.79 85.1041 317.224 85.2947C317.66 85.4854 318.062 85.7147 318.431 85.9774C318.8 86.2414 319.15 86.5307 319.479 86.8481L317.918 88.6467C317.363 88.1334 316.776 87.7174 316.156 87.4014C315.538 87.0841 314.832 86.9267 314.04 86.9267C313.38 86.9267 312.772 87.0547 312.211 87.3121C311.651 87.5694 311.166 87.9187 310.758 88.3601C310.348 88.8027 310.032 89.3201 309.808 89.9121C309.584 90.5054 309.472 91.1387 309.472 91.8107V91.8507C309.472 92.5227 309.584 93.1587 309.808 93.7601C310.032 94.3601 310.348 94.8841 310.758 95.3307C311.166 95.7801 311.651 96.1334 312.211 96.3894C312.772 96.6467 313.38 96.7761 314.04 96.7761C314.884 96.7761 315.61 96.6134 316.216 96.2907C316.823 95.9681 317.422 95.5294 318.015 94.9761L319.578 96.5574C319.222 96.9401 318.85 97.2801 318.46 97.5761C318.072 97.8734 317.652 98.1307 317.204 98.3481C316.756 98.5654 316.266 98.7307 315.732 98.8414C315.198 98.9547 314.607 99.0107 313.962 99.0107Z" fill="#5A5758"/>
</g>
<mask id="mask12_28_3746" style="mask-type:luminance" maskUnits="userSpaceOnUse" x="-351" y="-375" width="1123" height="794">
<path d="M-351 -375H771.521V418.701H-351V-375Z" fill="white"/>
</mask>
<g mask="url(#mask12_28_3746)">
<path d="M321.26 84.9289H331.504V87.1249H323.673V90.6836H330.614V92.8796H323.673V96.5769H331.604V98.7729H321.26V84.9289Z" fill="#5A5758"/>
</g>
<mask id="mask13_28_3746" style="mask-type:luminance" maskUnits="userSpaceOnUse" x="-352" y="-375" width="1124" height="794">
<path d="M-351 -375H771.52V418.701H-351V-375Z" fill="white"/>
</mask>
<g mask="url(#mask13_28_3746)">
<path d="M342.501 93.2748L340.108 87.7374L337.735 93.2748H342.501ZM339.02 84.8308H341.275L347.367 98.7734H344.795L343.391 95.4308H336.844L335.42 98.7734H332.929L339.02 84.8308Z" fill="#5A5758"/>
</g>
<mask id="mask14_28_3746" style="mask-type:luminance" maskUnits="userSpaceOnUse" x="-352" y="-375" width="1124" height="794">
<path d="M-351 -375H771.52V418.701H-351V-375Z" fill="white"/>
</mask>
<g mask="url(#mask14_28_3746)">
<path d="M349.344 84.9289H351.593L358.994 94.5009V84.9289H361.408V98.7729H359.374L351.757 88.9236V98.7729H349.344V84.9289Z" fill="#5A5758"/>
</g>
<mask id="mask15_28_3746" style="mask-type:luminance" maskUnits="userSpaceOnUse" x="-351" y="-375" width="1123" height="794">
<path d="M-351 -375H771.52V418.701H-351V-375Z" fill="white"/>
</mask>
<g mask="url(#mask15_28_3746)">
<path d="M228.458 30.0855C226.673 30.0855 225.29 30.6455 224.31 31.7655C223.33 32.8855 222.842 34.3908 222.842 36.2802C222.842 38.1695 223.33 39.6735 224.31 40.7948C225.29 41.9148 226.673 42.4748 228.458 42.4748C230.137 42.4748 231.493 41.9148 232.526 40.7948C233.557 39.6735 234.076 38.1695 234.076 36.2802C234.076 34.3908 233.557 32.8855 232.526 31.7655C231.493 30.6455 230.137 30.0855 228.458 30.0855ZM255.596 68.1948H223.306C221.698 68.1948 220.388 67.6615 219.376 66.5935C218.361 65.5255 217.854 64.2402 217.854 62.7348V50.4002H224.888V60.9508C224.888 61.2655 224.941 61.5015 225.046 61.6602C225.152 61.8175 225.378 61.8962 225.729 61.8962H248.561L248.616 22.6842H255.596V38.1028H262.997V44.4015H255.596V68.1948ZM242.736 30.4535H239.481C240.041 31.2935 240.452 32.2122 240.714 33.2095C240.977 34.2068 241.109 35.2295 241.109 36.2802C241.109 40.0602 239.918 43.0522 237.54 45.2562C236.384 46.3775 235.054 47.2415 233.549 47.8548C232.045 48.4668 230.348 48.7735 228.458 48.7735C226.568 48.7735 224.862 48.4668 223.34 47.8548C221.818 47.2415 220.497 46.3775 219.377 45.2562C216.997 43.0522 215.808 40.0602 215.808 36.2802C215.808 35.2295 215.956 34.2068 216.253 33.2095C216.55 32.2122 216.944 31.2935 217.434 30.4535H214.181V24.1535H224.941V19.6402H231.922V24.1535H242.736V30.4535Z" fill="#656263"/>
</g>
<mask id="mask16_28_3746" style="mask-type:luminance" maskUnits="userSpaceOnUse" x="-351" y="-375" width="1123" height="794">
<path d="M-351 -375H771.52V418.701H-351V-375Z" fill="white"/>
</mask>
<g mask="url(#mask16_28_3746)">
<path d="M303.574 38.1028V29.9282C303.574 29.2988 303.293 28.9842 302.734 28.9842H269.613V22.6842H305.149C305.918 22.6842 306.635 22.8335 307.302 23.1308C307.966 23.4282 308.543 23.8308 309.033 24.3388C309.522 24.8455 309.909 25.4228 310.189 26.0695C310.469 26.7175 310.609 27.3908 310.609 28.0922V38.1028H313.023V44.4015H293.654V52.2908H305.149C305.918 52.2908 306.635 52.4388 307.302 52.7362C307.966 53.0335 308.543 53.4375 309.033 53.9428C309.522 54.4508 309.909 55.0282 310.189 55.6748C310.469 56.3242 310.609 57.0135 310.609 57.7495V68.1948H303.574V59.5855C303.574 58.9215 303.293 58.5895 302.734 58.5895H269.613V52.2908H286.619V44.4015H267.879V38.1028H303.574Z" fill="#656263"/>
</g>
<mask id="mask17_28_3746" style="mask-type:luminance" maskUnits="userSpaceOnUse" x="-351" y="-375" width="1123" height="794">
<path d="M-351 -375H771.52V418.701H-351V-375Z" fill="white"/>
</mask>
<g mask="url(#mask17_28_3746)">
<path d="M345.621 68.1948V22.6855H352.654V38.1028H356.591V22.6855H363.625V68.1948H356.591V44.4028H352.654V68.1948H345.621ZM331.553 31.1362C330.083 31.1362 328.919 31.9148 328.062 33.4722C327.203 35.0282 326.775 37.0148 326.775 39.4295C326.775 41.8442 327.203 43.8308 328.062 45.3868C328.919 46.9442 330.083 47.7228 331.553 47.7228C333.023 47.7228 334.186 46.9535 335.043 45.4148C335.901 43.8748 336.33 41.8788 336.33 39.4295C336.33 38.2402 336.215 37.1388 335.989 36.1215C335.759 35.1082 335.437 34.2335 335.017 33.4975C334.597 32.7628 334.098 32.1855 333.521 31.7655C332.943 31.3455 332.287 31.1362 331.553 31.1362ZM343.993 30.4535H340.738C341.578 31.6082 342.226 32.9468 342.681 34.4682C343.135 35.9922 343.363 37.6455 343.363 39.4295C343.363 41.5295 343.066 43.4628 342.471 45.2295C341.875 46.9975 341.054 48.5455 340.003 49.8748C338.954 51.1695 337.702 52.1855 336.25 52.9202C334.798 53.6548 333.233 54.0215 331.553 54.0215C329.838 54.0215 328.254 53.6548 326.802 52.9202C325.35 52.1855 324.099 51.1695 323.049 49.8748C321.999 48.5455 321.186 46.9975 320.609 45.2295C320.031 43.4628 319.742 41.5295 319.742 39.4295C319.742 37.6455 319.978 35.9922 320.451 34.4682C320.923 32.9468 321.562 31.6082 322.367 30.4535H319.113V24.1535H328.035V19.6402H335.069V24.1535H343.993V30.4535Z" fill="#656263"/>
</g>
<mask id="mask18_28_3746" style="mask-type:luminance" maskUnits="userSpaceOnUse" x="-351" y="-375" width="1123" height="794">
<path d="M-351 -375H771.521V418.701H-351V-375Z" fill="white"/>
</mask>
<g mask="url(#mask18_28_3746)">
<path d="M402.549 46.4111V22.6845H409.582V25.8338H416.983V32.1338H409.582V36.3325H416.983V42.6325H409.582V46.4111H402.549Z" fill="#656263"/>
</g>
<mask id="mask19_28_3746" style="mask-type:luminance" maskUnits="userSpaceOnUse" x="-351" y="-375" width="1123" height="794">
<path d="M-351 -375H771.52V418.701H-351V-375Z" fill="white"/>
</mask>
<g mask="url(#mask19_28_3746)">
<path d="M456.877 22.685H463.912V53.3917H456.877V22.685ZM432.049 51.4504V61.8957H464.175V68.1943H430.527C428.743 68.1943 427.377 67.661 426.432 66.593C425.487 65.5264 425.015 64.2063 425.015 62.6303V51.4504H432.049ZM422.285 28.9837V22.685H448.845V28.9837H439.083C439.117 32.9024 440.055 35.957 441.892 38.1437C443.728 40.3303 446.292 41.617 449.581 42.001V48.301C446.223 48.125 443.283 47.3024 440.763 45.8344C438.243 44.2584 436.511 42.3517 435.565 40.1117C434.551 42.3864 432.784 44.2944 430.264 45.8344C427.849 47.3024 424.945 48.125 421.551 48.301V42.001C424.733 41.617 427.264 40.3303 429.136 38.1437C431.007 35.957 431.979 32.9024 432.049 28.9837H422.285Z" fill="#656263"/>
</g>
<mask id="mask20_28_3746" style="mask-type:luminance" maskUnits="userSpaceOnUse" x="-352" y="-375" width="1124" height="794">
<path d="M-351 -375H771.52V418.701H-351V-375Z" fill="white"/>
</mask>
<g mask="url(#mask20_28_3746)">
<path d="M495.106 28.9314C493.531 28.9314 492.279 29.3541 491.352 30.1981C490.424 31.0434 489.962 32.2034 489.962 33.6821C489.962 35.1594 490.424 36.3207 491.352 37.1661C492.279 38.0114 493.531 38.4314 495.106 38.4314C496.68 38.4314 497.931 38.0114 498.859 37.1661C499.786 36.3207 500.25 35.1594 500.25 33.6821C500.25 32.2034 499.786 31.0434 498.859 30.1981C497.931 29.3541 496.68 28.9314 495.106 28.9314ZM491.588 23.6821V19.6407H498.623V23.6821H515.263V29.2461H506.024C506.408 29.9461 506.715 30.6554 506.942 31.3714C507.17 32.0887 507.283 32.8501 507.283 33.6554C507.283 35.2301 506.978 36.6567 506.364 37.9327C505.752 39.2114 504.903 40.3047 503.819 41.2141C501.648 43.2087 498.744 44.2061 495.106 44.2061C491.466 44.2061 488.544 43.2087 486.339 41.2141C485.255 40.3047 484.414 39.2114 483.82 37.9327C483.224 36.6567 482.928 35.2301 482.928 33.6554C482.928 32.0807 483.347 30.6114 484.187 29.2461H474.948V23.6821H491.588Z" fill="#656263"/>
</g>
<mask id="mask21_28_3746" style="mask-type:luminance" maskUnits="userSpaceOnUse" x="-351" y="-375" width="1123" height="794">
<path d="M-351 -375H771.52V418.701H-351V-375Z" fill="white"/>
</mask>
<g mask="url(#mask21_28_3746)">
<path d="M525.026 48.2998V42.0011H539.881V33.9171H546.915V42.0011H560.721V29.9278C560.721 29.2985 560.439 28.9838 559.881 28.9838H526.758V22.6851H562.295C563.065 22.6851 563.782 22.8331 564.449 23.1305C565.111 23.4278 565.689 23.8305 566.179 24.3385C566.669 24.8465 567.054 25.4225 567.335 26.0691C567.614 26.7171 567.755 27.3918 567.755 28.0918V42.0011H570.17V48.2998H525.026Z" fill="#656263"/>
</g>
<mask id="mask22_28_3746" style="mask-type:luminance" maskUnits="userSpaceOnUse" x="-351" y="-375" width="1123" height="794">
<path d="M-351 -375H771.52V418.701H-351V-375Z" fill="white"/>
</mask>
<g mask="url(#mask22_28_3746)">
<path d="M625.127 38.1028V44.4015H617.779V68.1948H610.745V22.6842H617.779V38.1028H625.127ZM605.128 51.7135V58.2748C601.243 57.3988 597.988 55.9295 595.364 53.8642C594.244 52.9548 593.22 51.9588 592.293 50.8722C591.367 49.7882 590.569 48.5802 589.904 47.2508C588.575 49.9802 586.791 52.1855 584.552 53.8642C581.927 55.9295 578.672 57.3988 574.787 58.2748V51.7135C579.407 50.4188 582.609 47.6362 584.395 43.3668C585.617 40.3922 586.231 36.5962 586.231 31.9762V22.6842H593.685V31.9762C593.685 36.7695 594.263 40.5508 595.416 43.3135C597.167 47.5842 600.404 50.3828 605.128 51.7135Z" fill="#656263"/>
</g>
<mask id="mask23_28_3746" style="mask-type:luminance" maskUnits="userSpaceOnUse" x="-351" y="-375" width="1123" height="794">
<path d="M-351 -375H771.521V418.701H-351V-375Z" fill="white"/>
</mask>
<g mask="url(#mask23_28_3746)">
<path d="M386.193 38.6159C385.102 39.7706 383.661 40.3479 381.87 40.3479C380.075 40.3479 378.634 39.7706 377.546 38.6159C376.457 37.4613 375.911 35.9906 375.911 34.2053C375.911 32.4933 376.457 31.0666 377.546 29.9293C378.634 28.7919 380.075 28.2213 381.87 28.2213C383.661 28.2213 385.102 28.7919 386.193 29.9293C387.281 31.0666 387.826 32.4933 387.826 34.2053C387.826 35.9906 387.281 37.4613 386.193 38.6159ZM393.942 29.4413C393.294 27.9559 392.375 26.6546 391.186 25.5373C390.031 24.3853 388.667 23.4946 387.091 22.8666C385.517 22.2373 383.785 21.9226 381.895 21.9226C380.006 21.9226 378.265 22.2373 376.673 22.8666C375.081 23.4946 373.706 24.3853 372.551 25.5373C371.398 26.6546 370.495 27.9559 369.849 29.4413C369.201 30.9253 368.878 32.5226 368.878 34.2333C368.878 36.0146 369.201 37.6559 369.849 39.1573C370.495 40.6586 371.398 41.9506 372.551 43.0333C373.706 44.1866 375.081 45.0773 376.673 45.7039C378.265 46.3319 380.006 46.6479 381.895 46.6479C383.785 46.6479 385.517 46.3319 387.091 45.7039C388.667 45.0773 390.031 44.1866 391.186 43.0333C392.375 41.9506 393.294 40.6586 393.942 39.1573C394.589 37.6559 394.914 36.0146 394.914 34.2333C394.914 32.5226 394.589 30.9253 393.942 29.4413Z" fill="#656263"/>
</g>
<mask id="mask24_28_3746" style="mask-type:luminance" maskUnits="userSpaceOnUse" x="-351" y="-375" width="1123" height="794">
<path d="M-351 -375H771.52V418.701H-351V-375Z" fill="white"/>
</mask>
<g mask="url(#mask24_28_3746)">
<path d="M401.795 61.2542C401.452 62.0516 400.966 62.7396 400.334 63.3182C399.7 63.8956 398.94 64.3489 398.052 64.6769C397.163 65.0049 396.188 65.1702 395.13 65.1702C394.035 65.1702 393.052 65.0049 392.182 64.6769C391.31 64.3489 390.558 63.8956 389.926 63.3182C389.292 62.7396 388.806 62.0516 388.464 61.2542C388.122 60.4569 387.951 59.5902 387.951 58.6529C387.951 57.7142 388.122 56.8462 388.464 56.0489C388.806 55.2529 389.292 54.5649 389.926 53.9862C390.558 53.4076 391.31 52.9542 392.182 52.6262C393.052 52.2982 394.035 52.1342 395.13 52.1342C396.188 52.1342 397.163 52.2982 398.052 52.6262C398.94 52.9542 399.7 53.4076 400.334 53.9862C400.966 54.5649 401.452 55.2529 401.795 56.0489C402.136 56.8462 402.307 57.7142 402.307 58.6529C402.307 59.5902 402.136 60.4569 401.795 61.2542ZM407.871 53.0956C406.896 51.4529 405.538 50.0862 403.795 48.9916L403.487 48.8049C402.324 48.1476 401.034 47.6249 399.616 47.2342C398.196 46.8422 396.7 46.6476 395.13 46.6476C393.079 46.6476 391.182 46.9529 389.439 47.5622C387.695 48.1716 386.191 49.0089 384.927 50.0702C383.662 51.1649 382.679 52.4382 381.979 53.8916C381.276 55.3462 380.928 56.9329 380.928 58.6529C380.928 60.4329 381.276 62.0356 381.979 63.4582C382.679 64.8796 383.662 66.1396 384.927 67.2329C386.191 68.3262 387.695 69.1636 389.439 69.7422C391.182 70.3209 393.079 70.6089 395.13 70.6089C397.18 70.6089 399.07 70.3209 400.795 69.7422C402.52 69.1636 404.016 68.3262 405.282 67.2329C406.58 66.1396 407.58 64.8796 408.282 63.4582C408.98 62.0356 409.332 60.4329 409.332 58.6529C409.332 56.5889 408.844 54.7369 407.871 53.0956Z" fill="#656263"/>
</g>
<mask id="mask25_28_3746" style="mask-type:luminance" maskUnits="userSpaceOnUse" x="-351" y="-375" width="1123" height="794">
<path d="M-351 -375H771.52V418.701H-351V-375Z" fill="white"/>
</mask>
<g mask="url(#mask25_28_3746)">
<path d="M501.608 61.9C501.274 62.6414 500.798 63.2827 500.182 63.8214C499.565 64.3587 498.822 64.7814 497.957 65.0867C497.089 65.392 496.138 65.5454 495.105 65.5454C494.037 65.5454 493.078 65.392 492.229 65.0867C491.378 64.7814 490.645 64.3587 490.028 63.8214C489.41 63.2827 488.936 62.6414 488.602 61.9C488.269 61.1587 488.102 60.3507 488.102 59.4774C488.102 58.604 488.269 57.796 488.602 57.0547C488.936 56.312 489.41 55.672 490.028 55.1334C490.645 54.5947 491.378 54.1734 492.229 53.868C493.078 53.5627 494.037 53.4094 495.105 53.4094C496.138 53.4094 497.089 53.5627 497.957 53.868C498.822 54.1734 499.565 54.5947 500.182 55.1334C500.798 55.672 501.274 56.312 501.608 57.0547C501.94 57.796 502.108 58.604 502.108 59.4774C502.108 60.3507 501.94 61.1587 501.608 61.9ZM507.536 54.304C506.585 52.776 505.258 51.5027 503.558 50.484L503.258 50.3094C502.124 49.6987 500.865 49.212 499.482 48.8467C498.097 48.4827 496.638 48.3014 495.105 48.3014C493.105 48.3014 491.253 48.5854 489.553 49.152C487.852 49.72 486.385 50.4987 485.152 51.488C483.917 52.5067 482.958 53.6934 482.276 55.0454C481.59 56.4 481.25 57.8774 481.25 59.4774C481.25 61.136 481.59 62.628 482.276 63.952C482.958 65.2747 483.917 66.448 485.152 67.4667C486.385 68.484 487.852 69.2627 489.553 69.8014C491.253 70.34 493.105 70.6094 495.105 70.6094C497.105 70.6094 498.949 70.34 500.632 69.8014C502.316 69.2627 503.776 68.484 505.009 67.4667C506.276 66.448 507.252 65.2747 507.936 63.952C508.618 62.628 508.961 61.136 508.961 59.4774C508.961 57.556 508.485 55.832 507.536 54.304Z" fill="#656263"/>
</g>
<mask id="mask26_28_3746" style="mask-type:luminance" maskUnits="userSpaceOnUse" x="-351" y="-375" width="1123" height="794">
<path d="M-351 -375H771.52V418.701H-351V-375Z" fill="white"/>
</mask>
<g mask="url(#mask26_28_3746)">
<path d="M554.934 60.7832C554.558 61.6205 554.021 62.3432 553.326 62.9512C552.629 63.5579 551.792 64.0339 550.814 64.3792C549.836 64.7232 548.764 64.8965 547.598 64.8965C546.393 64.8965 545.312 64.7232 544.353 64.3792C543.393 64.0339 542.565 63.5579 541.869 62.9512C541.173 62.3432 540.637 61.6205 540.261 60.7832C539.884 59.9459 539.697 59.0352 539.697 58.0499C539.697 57.0645 539.884 56.1525 540.261 55.3152C540.637 54.4792 541.173 53.7565 541.869 53.1485C542.565 52.5419 543.393 52.0645 544.353 51.7205C545.312 51.3752 546.393 51.2032 547.598 51.2032C548.764 51.2032 549.836 51.3752 550.814 51.7205C551.792 52.0645 552.629 52.5419 553.326 53.1485C554.021 53.7565 554.558 54.4792 554.934 55.3152C555.309 56.1525 555.498 57.0645 555.498 58.0499C555.498 59.0352 555.309 59.9459 554.934 60.7832ZM561.622 52.2125C560.549 50.4885 559.053 49.0525 557.136 47.9032L556.797 47.7059C555.517 47.0165 554.096 46.4672 552.536 46.0565C550.973 45.6445 549.328 45.4405 547.598 45.4405C545.341 45.4405 543.252 45.7605 541.333 46.4005C539.414 47.0405 537.758 47.9205 536.366 49.0352C534.974 50.1845 533.893 51.5232 533.122 53.0499C532.35 54.5765 531.965 56.2445 531.965 58.0499C531.965 59.9205 532.35 61.6045 533.122 63.0979C533.893 64.5912 534.974 65.9139 536.366 67.0632C537.758 68.2125 539.414 69.0899 541.333 69.6979C543.252 70.3059 545.341 70.6099 547.598 70.6099C549.854 70.6099 551.934 70.3059 553.833 69.6979C555.733 69.0899 557.38 68.2125 558.772 67.0632C560.201 65.9139 561.302 64.5912 562.073 63.0979C562.844 61.6045 563.23 59.9205 563.23 58.0499C563.23 55.8819 562.694 53.9379 561.622 52.2125Z" fill="#656263"/>
</g>
<mask id="mask27_28_3746" style="mask-type:luminance" maskUnits="userSpaceOnUse" x="-351" y="-375" width="1123" height="794">
<path d="M-351 -375H771.52V418.701H-351V-375Z" fill="white"/>
</mask>
<g mask="url(#mask27_28_3746)">
<path d="M472.533 44.8358H517.677V50.1904H472.533V44.8358Z" fill="#656263"/>
</g>
<mask id="mask28_28_3746" style="mask-type:luminance" maskUnits="userSpaceOnUse" x="-351" y="-375" width="1123" height="794">
<path d="M-351 -375H771.52V418.701H-351V-375Z" fill="white"/>
</mask>
<g mask="url(#mask28_28_3746)">
<path d="M375.991 96.6165C376.82 96.6165 377.469 96.4591 377.943 96.1431C378.416 95.8271 378.653 95.3511 378.653 94.7178V94.6791C378.653 94.0858 378.419 93.6285 377.953 93.3045C377.487 92.9805 376.773 92.8191 375.813 92.8191H371.969V96.6165H375.991ZM375.28 90.7631C376.068 90.7631 376.699 90.6085 377.172 90.2991C377.645 89.9898 377.883 89.5165 377.883 88.8831V88.8445C377.883 88.2911 377.675 87.8591 377.26 87.5498C376.847 87.2405 376.245 87.0831 375.457 87.0831H371.969V90.7631H375.28ZM369.556 84.9285H375.755C377.347 84.9285 378.551 85.3365 379.367 86.1551C379.985 86.7738 380.295 87.5391 380.295 88.4485V88.4885C380.295 88.9098 380.24 89.2818 380.128 89.6058C380.017 89.9298 379.873 90.2125 379.697 90.4565C379.52 90.7005 379.311 90.9151 379.068 91.0991C378.827 91.2845 378.581 91.4418 378.333 91.5738C378.739 91.7191 379.109 91.8871 379.444 92.0778C379.779 92.2698 380.067 92.4978 380.309 92.7605C380.552 93.0245 380.739 93.3338 380.869 93.6911C381 94.0458 381.065 94.4618 381.065 94.9351V94.9765C381.065 95.5951 380.944 96.1431 380.701 96.6165C380.457 97.0911 380.112 97.4871 379.664 97.8031C379.217 98.1205 378.677 98.3618 378.045 98.5258C377.413 98.6898 376.716 98.7725 375.952 98.7725H369.556V84.9285Z" fill="#5A5758"/>
</g>
<mask id="mask29_28_3746" style="mask-type:luminance" maskUnits="userSpaceOnUse" x="-352" y="-375" width="1124" height="794">
<path d="M-351 -375H771.52V418.701H-351V-375Z" fill="white"/>
</mask>
<g mask="url(#mask29_28_3746)">
<path d="M388.661 98.9902C387.764 98.9902 386.953 98.8622 386.229 98.6036C385.504 98.3476 384.884 97.9609 384.369 97.4489C383.856 96.9342 383.46 96.2969 383.183 95.5396C382.905 94.7809 382.768 93.9022 382.768 92.8996V84.9289H385.18V92.7996C385.18 94.0929 385.492 95.0742 386.116 95.7476C386.739 96.4196 387.6 96.7556 388.701 96.7556C389.788 96.7556 390.644 96.4316 391.267 95.7862C391.889 95.1409 392.201 94.1782 392.201 92.8996V84.9289H394.615V92.7809C394.615 93.8076 394.473 94.7116 394.189 95.4902C393.905 96.2676 393.507 96.9169 392.993 97.4369C392.479 97.9582 391.855 98.3476 391.124 98.6036C390.392 98.8622 389.571 98.9902 388.661 98.9902Z" fill="#5A5758"/>
</g>
<mask id="mask30_28_3746" style="mask-type:luminance" maskUnits="userSpaceOnUse" x="-351" y="-375" width="1123" height="794">
<path d="M-351 -375H771.52V418.701H-351V-375Z" fill="white"/>
</mask>
<g mask="url(#mask30_28_3746)">
<path d="M401.972 98.9697C400.906 98.9697 399.883 98.7884 398.907 98.4271C397.931 98.0644 397.028 97.5071 396.198 96.7551L397.662 95.0151C398.334 95.5951 399.014 96.0404 399.699 96.3497C400.383 96.6604 401.163 96.8151 402.032 96.8151C402.783 96.8151 403.38 96.6564 403.82 96.3391C404.262 96.0231 404.484 95.6017 404.484 95.0737V95.0351C404.484 94.7844 404.44 94.5631 404.355 94.3724C404.268 94.1817 404.111 94.0004 403.88 93.8284C403.648 93.6577 403.33 93.4977 402.927 93.3537C402.523 93.2084 402 93.0631 401.35 92.9177C400.612 92.7471 399.952 92.5524 399.379 92.3351C398.804 92.1177 398.32 91.8551 397.931 91.5431C397.54 91.2337 397.243 90.8551 397.039 90.4071C396.834 89.9591 396.731 89.4177 396.731 88.7844V88.7457C396.731 88.1511 396.848 87.6084 397.084 87.1137C397.319 86.6191 397.643 86.1964 398.055 85.8484C398.467 85.4991 398.963 85.2244 399.542 85.0271C400.12 84.8297 400.752 84.7297 401.438 84.7297C402.454 84.7297 403.367 84.8791 404.178 85.1764C404.987 85.4724 405.751 85.9044 406.463 86.4711L405.156 88.3097C404.524 87.8484 403.899 87.4964 403.276 87.2524C402.658 87.0084 402.032 86.8871 401.4 86.8871C400.687 86.8871 400.134 87.0444 399.736 87.3604C399.342 87.6777 399.146 88.0671 399.146 88.5284V88.5671C399.146 88.8324 399.188 89.0644 399.283 89.2697C399.376 89.4751 399.542 89.6591 399.79 89.8231C400.034 89.9884 400.371 90.1444 400.799 90.2871C401.228 90.4337 401.775 90.5844 402.435 90.7431C403.164 90.9271 403.808 91.1324 404.368 91.3551C404.931 91.5804 405.396 91.8551 405.766 92.1764C406.138 92.5004 406.416 92.8751 406.611 93.3044C406.802 93.7324 406.898 94.2297 406.898 94.7977V94.8364C406.898 95.4831 406.776 96.0631 406.535 96.5777C406.291 97.0911 405.954 97.5257 405.526 97.8831C405.094 98.2391 404.575 98.5084 403.968 98.6924C403.364 98.8777 402.698 98.9697 401.972 98.9697Z" fill="#5A5758"/>
</g>
<mask id="mask31_28_3746" style="mask-type:luminance" maskUnits="userSpaceOnUse" x="-351" y="-375" width="1123" height="794">
<path d="M-351 -375H771.52V418.701H-351V-375Z" fill="white"/>
</mask>
<g mask="url(#mask31_28_3746)">
<path d="M409.508 84.929H411.921V98.7729H409.508V84.929Z" fill="#5A5758"/>
</g>
<mask id="mask32_28_3746" style="mask-type:luminance" maskUnits="userSpaceOnUse" x="-352" y="-375" width="1124" height="794">
<path d="M-351 -375H771.52V418.701H-351V-375Z" fill="white"/>
</mask>
<g mask="url(#mask32_28_3746)">
<path d="M415.242 84.9289H417.493L424.894 94.5009V84.9289H427.306V98.7729H425.274L417.656 88.9236V98.7729H415.242V84.9289Z" fill="#5A5758"/>
</g>
<mask id="mask33_28_3746" style="mask-type:luminance" maskUnits="userSpaceOnUse" x="-351" y="-375" width="1123" height="794">
<path d="M-351 -375H771.52V418.701H-351V-375Z" fill="white"/>
</mask>
<g mask="url(#mask33_28_3746)">
<path d="M430.47 84.9289H440.716V87.1249H432.884V90.6836H439.826V92.8796H432.884V96.5769H440.814V98.7729H430.47V84.9289Z" fill="#5A5758"/>
</g>
<mask id="mask34_28_3746" style="mask-type:luminance" maskUnits="userSpaceOnUse" x="-351" y="-375" width="1123" height="794">
<path d="M-351 -375H771.52V418.701H-351V-375Z" fill="white"/>
</mask>
<g mask="url(#mask34_28_3746)">
<path d="M448.192 98.9697C447.124 98.9697 446.101 98.7884 445.125 98.4271C444.149 98.0644 443.248 97.5071 442.416 96.7551L443.879 95.0151C444.552 95.5951 445.232 96.0404 445.917 96.3497C446.601 96.6604 447.38 96.8151 448.249 96.8151C449.003 96.8151 449.597 96.6564 450.04 96.3391C450.481 96.0231 450.704 95.6017 450.704 95.0737V95.0351C450.704 94.7844 450.66 94.5631 450.573 94.3724C450.488 94.1817 450.329 94.0004 450.099 93.8284C449.867 93.6577 449.549 93.4977 449.145 93.3537C448.743 93.2084 448.219 93.0631 447.569 92.9177C446.829 92.7471 446.172 92.5524 445.597 92.3351C445.023 92.1177 444.54 91.8551 444.149 91.5431C443.76 91.2337 443.461 90.8551 443.257 90.4071C443.052 89.9591 442.951 89.4177 442.951 88.7844V88.7457C442.951 88.1511 443.068 87.6084 443.304 87.1137C443.539 86.6191 443.863 86.1964 444.275 85.8484C444.687 85.4991 445.181 85.2244 445.76 85.0271C446.339 84.8297 446.972 84.7297 447.657 84.7297C448.672 84.7297 449.585 84.8791 450.397 85.1764C451.207 85.4724 451.968 85.9044 452.681 86.4711L451.376 88.3097C450.743 87.8484 450.117 87.4964 449.496 87.2524C448.877 87.0084 448.249 86.8871 447.619 86.8871C446.905 86.8871 446.352 87.0444 445.956 87.3604C445.56 87.6777 445.363 88.0671 445.363 88.5284V88.5671C445.363 88.8324 445.408 89.0644 445.503 89.2697C445.595 89.4751 445.761 89.6591 446.008 89.8231C446.252 89.9884 446.589 90.1444 447.019 90.2871C447.448 90.4337 447.993 90.5844 448.655 90.7431C449.383 90.9271 450.027 91.1324 450.588 91.3551C451.149 91.5804 451.615 91.8551 451.985 92.1764C452.356 92.5004 452.636 92.8751 452.828 93.3044C453.019 93.7324 453.116 94.2297 453.116 94.7977V94.8364C453.116 95.4831 452.995 96.0631 452.753 96.5777C452.511 97.0911 452.173 97.5257 451.743 97.8831C451.312 98.2391 450.792 98.5084 450.188 98.6924C449.583 98.8777 448.916 98.9697 448.192 98.9697Z" fill="#5A5758"/>
</g>
<mask id="mask35_28_3746" style="mask-type:luminance" maskUnits="userSpaceOnUse" x="-352" y="-375" width="1124" height="794">
<path d="M-351 -375H771.52V418.701H-351V-375Z" fill="white"/>
</mask>
<g mask="url(#mask35_28_3746)">
<path d="M460.455 98.9697C459.387 98.9697 458.365 98.7884 457.389 98.4271C456.413 98.0644 455.511 97.5071 454.679 96.7551L456.142 95.0151C456.815 95.5951 457.495 96.0404 458.181 96.3497C458.865 96.6604 459.643 96.8151 460.513 96.8151C461.265 96.8151 461.861 96.6564 462.303 96.3391C462.745 96.0231 462.966 95.6017 462.966 95.0737V95.0351C462.966 94.7844 462.923 94.5631 462.837 94.3724C462.751 94.1817 462.593 94.0004 462.362 93.8284C462.13 93.6577 461.813 93.4977 461.409 93.3537C461.006 93.2084 460.482 93.0631 459.833 92.9177C459.093 92.7471 458.435 92.5524 457.861 92.3351C457.286 92.1177 456.803 91.8551 456.413 91.5431C456.023 91.2337 455.725 90.8551 455.521 90.4071C455.315 89.9591 455.214 89.4177 455.214 88.7844V88.7457C455.214 88.1511 455.331 87.6084 455.567 87.1137C455.802 86.6191 456.125 86.1964 456.538 85.8484C456.949 85.4991 457.445 85.2244 458.023 85.0271C458.602 84.8297 459.235 84.7297 459.921 84.7297C460.935 84.7297 461.849 84.8791 462.661 85.1764C463.47 85.4724 464.231 85.9044 464.945 86.4711L463.639 88.3097C463.006 87.8484 462.381 87.4964 461.759 87.2524C461.141 87.0084 460.513 86.8871 459.882 86.8871C459.169 86.8871 458.615 87.0444 458.219 87.3604C457.823 87.6777 457.626 88.0671 457.626 88.5284V88.5671C457.626 88.8324 457.671 89.0644 457.766 89.2697C457.858 89.4751 458.025 89.6591 458.271 89.8231C458.514 89.9884 458.853 90.1444 459.282 90.2871C459.711 90.4337 460.257 90.5844 460.918 90.7431C461.646 90.9271 462.29 91.1324 462.851 91.3551C463.413 91.5804 463.878 91.8551 464.249 92.1764C464.619 92.5004 464.899 92.8751 465.091 93.3044C465.282 93.7324 465.379 94.2297 465.379 94.7977V94.8364C465.379 95.4831 465.258 96.0631 465.017 96.5777C464.774 97.0911 464.437 97.5257 464.006 97.8831C463.575 98.2391 463.055 98.5084 462.451 98.6924C461.846 98.8777 461.179 98.9697 460.455 98.9697Z" fill="#5A5758"/>
</g>
<mask id="mask36_28_3746" style="mask-type:luminance" maskUnits="userSpaceOnUse" x="-351" y="-375" width="1123" height="794">
<path d="M-351 -375H771.52V418.701H-351V-375Z" fill="white"/>
</mask>
<g mask="url(#mask36_28_3746)">
<path d="M479.281 99.0107C478.266 99.0107 477.329 98.8267 476.473 98.4574C475.615 98.0881 474.873 97.5827 474.242 96.9441C473.613 96.3041 473.118 95.5481 472.758 94.6787C472.401 93.8081 472.221 92.8787 472.221 91.8907V91.8507C472.221 90.8614 472.397 89.9361 472.749 89.0721C473.101 88.2081 473.595 87.4494 474.231 86.7974C474.87 86.1454 475.623 85.6307 476.493 85.2547C477.363 84.8787 478.325 84.6907 479.381 84.6907C480.013 84.6907 480.59 84.7441 481.11 84.8494C481.631 84.9561 482.11 85.1041 482.545 85.2947C482.979 85.4854 483.382 85.7147 483.751 85.9774C484.121 86.2414 484.469 86.5307 484.799 86.8481L483.237 88.6467C482.683 88.1334 482.095 87.7174 481.477 87.4014C480.857 87.0841 480.151 86.9267 479.361 86.9267C478.701 86.9267 478.091 87.0547 477.531 87.3121C476.971 87.5694 476.486 87.9187 476.077 88.3601C475.669 88.8027 475.353 89.3201 475.127 89.9121C474.903 90.5054 474.791 91.1387 474.791 91.8107V91.8507C474.791 92.5227 474.903 93.1587 475.127 93.7601C475.353 94.3601 475.669 94.8841 476.077 95.3307C476.486 95.7801 476.971 96.1334 477.531 96.3894C478.091 96.6467 478.701 96.7761 479.361 96.7761C480.203 96.7761 480.929 96.6134 481.535 96.2907C482.142 95.9681 482.743 95.5294 483.335 94.9761L484.898 96.5574C484.543 96.9401 484.169 97.2801 483.781 97.5761C483.391 97.8734 482.973 98.1307 482.526 98.3481C482.077 98.5654 481.586 98.7307 481.051 98.8414C480.518 98.9547 479.926 99.0107 479.281 99.0107Z" fill="#5A5758"/>
</g>
<mask id="mask37_28_3746" style="mask-type:luminance" maskUnits="userSpaceOnUse" x="-352" y="-375" width="1124" height="794">
<path d="M-351 -375H771.52V418.701H-351V-375Z" fill="white"/>
</mask>
<g mask="url(#mask37_28_3746)">
<path d="M493.225 96.7761C493.907 96.7761 494.535 96.6467 495.107 96.3894C495.677 96.1334 496.165 95.7827 496.573 95.3427C496.98 94.9001 497.297 94.3814 497.527 93.7894C497.757 93.1947 497.873 92.5627 497.873 91.8907V91.8507C497.873 91.1774 497.757 90.5427 497.527 89.9427C497.297 89.3414 496.977 88.8214 496.563 88.3801C496.149 87.9374 495.653 87.5854 495.077 87.3214C494.499 87.0587 493.868 86.9267 493.187 86.9267C492.503 86.9267 491.876 87.0547 491.305 87.3121C490.735 87.5681 490.245 87.9187 489.839 88.3601C489.431 88.8027 489.113 89.3201 488.883 89.9121C488.653 90.5054 488.537 91.1387 488.537 91.8107V91.8507C488.537 92.5227 488.653 93.1587 488.883 93.7601C489.113 94.3601 489.433 94.8814 489.848 95.3214C490.26 95.7641 490.756 96.1161 491.335 96.3801C491.912 96.6427 492.543 96.7761 493.225 96.7761ZM493.187 99.0107C492.119 99.0107 491.141 98.8227 490.259 98.4467C489.376 98.0707 488.617 97.5601 487.984 96.9134C487.352 96.2681 486.856 95.5121 486.501 94.6494C486.145 93.7867 485.967 92.8667 485.967 91.8907V91.8507C485.967 90.8761 486.145 89.9547 486.501 89.0921C486.856 88.2281 487.359 87.4707 488.004 86.8174C488.649 86.1641 489.415 85.6467 490.299 85.2654C491.181 84.8827 492.157 84.6907 493.225 84.6907C494.293 84.6907 495.269 84.8787 496.153 85.2547C497.035 85.6307 497.793 86.1427 498.427 86.7881C499.06 87.4347 499.553 88.1894 499.911 89.0534C500.265 89.9161 500.444 90.8347 500.444 91.8107V91.8507C500.444 92.8267 500.265 93.7467 499.911 94.6107C499.553 95.4734 499.052 96.2321 498.407 96.8841C497.76 97.5374 496.996 98.0547 496.112 98.4374C495.228 98.8187 494.253 99.0107 493.187 99.0107Z" fill="#5A5758"/>
</g>
<mask id="mask38_28_3746" style="mask-type:luminance" maskUnits="userSpaceOnUse" x="-351" y="-375" width="1123" height="794">
<path d="M-351 -375H771.52V418.701H-351V-375Z" fill="white"/>
</mask>
<g mask="url(#mask38_28_3746)">
<path d="M508.525 91.7908C509.397 91.7908 510.092 91.5828 510.608 91.1654C511.124 90.7494 511.382 90.1828 511.382 89.4668V89.4281C511.382 88.6721 511.13 88.1001 510.628 87.7094C510.125 87.3201 509.418 87.1241 508.505 87.1241H504.953V91.7908H508.525ZM502.541 84.9294H508.712C509.582 84.9294 510.353 85.0508 511.025 85.2948C511.698 85.5388 512.258 85.8788 512.706 86.3134C513.076 86.6961 513.358 87.1374 513.557 87.6374C513.754 88.1401 513.854 88.6934 513.854 89.3001V89.3388C513.854 89.9068 513.772 90.4161 513.608 90.8708C513.441 91.3268 513.214 91.7294 512.924 92.0788C512.634 92.4268 512.288 92.7241 511.885 92.9681C511.484 93.2121 511.038 93.4001 510.55 93.5308L514.289 98.7734H511.421L508.009 93.9468H507.97H504.953V98.7734H502.541V84.9294Z" fill="#5A5758"/>
</g>
<mask id="mask39_28_3746" style="mask-type:luminance" maskUnits="userSpaceOnUse" x="-351" y="-375" width="1123" height="794">
<path d="M-351 -375H771.52V418.701H-351V-375Z" fill="white"/>
</mask>
<g mask="url(#mask39_28_3746)">
<path d="M521.695 92.1266C522.62 92.1266 523.352 91.896 523.887 91.432C524.424 90.9693 524.691 90.3733 524.691 89.6453V89.6053C524.691 88.7853 524.42 88.1653 523.878 87.7493C523.335 87.332 522.608 87.124 521.695 87.124H518.856V92.1266H521.695ZM516.444 84.9293H521.903C522.707 84.9293 523.435 85.036 524.09 85.2546C524.742 85.4733 525.295 85.7853 525.75 86.1933C526.204 86.604 526.554 87.092 526.798 87.6573C527.042 88.2253 527.163 88.8573 527.163 89.556V89.596C527.163 90.3733 527.018 91.0573 526.727 91.644C526.436 92.2293 526.04 92.7213 525.539 93.116C525.035 93.512 524.447 93.812 523.774 94.016C523.099 94.22 522.38 94.3226 521.612 94.3226H518.856V98.772H516.444V84.9293Z" fill="#5A5758"/>
</g>
<mask id="mask40_28_3746" style="mask-type:luminance" maskUnits="userSpaceOnUse" x="-351" y="-375" width="1123" height="794">
<path d="M-351 -375H771.52V418.701H-351V-375Z" fill="white"/>
</mask>
<g mask="url(#mask40_28_3746)">
<path d="M535.453 96.7761C536.134 96.7761 536.762 96.6467 537.334 96.3894C537.905 96.1334 538.393 95.7827 538.801 95.3427C539.207 94.9001 539.525 94.3814 539.754 93.7894C539.985 93.1947 540.101 92.5627 540.101 91.8907V91.8507C540.101 91.1774 539.985 90.5427 539.754 89.9427C539.525 89.3414 539.205 88.8214 538.79 88.3801C538.377 87.9374 537.881 87.5854 537.305 87.3214C536.726 87.0587 536.095 86.9267 535.414 86.9267C534.73 86.9267 534.103 87.0547 533.533 87.3121C532.962 87.5681 532.473 87.9187 532.066 88.3601C531.658 88.8027 531.341 89.3201 531.11 89.9121C530.881 90.5054 530.765 91.1387 530.765 91.8107V91.8507C530.765 92.5227 530.881 93.1587 531.11 93.7601C531.341 94.3601 531.661 94.8814 532.075 95.3214C532.487 95.7641 532.983 96.1161 533.562 96.3801C534.139 96.6427 534.77 96.7761 535.453 96.7761ZM535.414 99.0107C534.346 99.0107 533.369 98.8227 532.486 98.4467C531.603 98.0707 530.845 97.5601 530.211 96.9134C529.579 96.2681 529.083 95.5121 528.729 94.6494C528.373 93.7867 528.194 92.8667 528.194 91.8907V91.8507C528.194 90.8761 528.373 89.9547 528.729 89.0921C529.083 88.2281 529.586 87.4707 530.231 86.8174C530.877 86.1641 531.642 85.6467 532.526 85.2654C533.409 84.8827 534.385 84.6907 535.453 84.6907C536.521 84.6907 537.497 84.8787 538.379 85.2547C539.262 85.6307 540.021 86.1427 540.654 86.7881C541.287 87.4347 541.781 88.1894 542.138 89.0534C542.493 89.9161 542.671 90.8347 542.671 91.8107V91.8507C542.671 92.8267 542.493 93.7467 542.138 94.6107C541.781 95.4734 541.279 96.2321 540.634 96.8841C539.987 97.5374 539.223 98.0547 538.339 98.4374C537.455 98.8187 536.481 99.0107 535.414 99.0107Z" fill="#5A5758"/>
</g>
<mask id="mask41_28_3746" style="mask-type:luminance" maskUnits="userSpaceOnUse" x="-351" y="-375" width="1123" height="794">
<path d="M-351 -375H771.521V418.701H-351V-375Z" fill="white"/>
</mask>
<g mask="url(#mask41_28_3746)">
<path d="M550.752 91.7908C551.624 91.7908 552.319 91.5828 552.835 91.1654C553.351 90.7494 553.609 90.1828 553.609 89.4668V89.4281C553.609 88.6721 553.357 88.1001 552.855 87.7094C552.352 87.3201 551.645 87.1241 550.732 87.1241H547.18V91.7908H550.752ZM544.768 84.9294H550.939C551.809 84.9294 552.58 85.0508 553.252 85.2948C553.925 85.5388 554.484 85.8788 554.933 86.3134C555.303 86.6961 555.585 87.1374 555.784 87.6374C555.981 88.1401 556.081 88.6934 556.081 89.3001V89.3388C556.081 89.9068 555.999 90.4161 555.835 90.8708C555.668 91.3268 555.441 91.7294 555.151 92.0788C554.861 92.4268 554.515 92.7241 554.112 92.9681C553.711 93.2121 553.265 93.4001 552.777 93.5308L556.516 98.7734H553.648L550.236 93.9468H550.197H547.18V98.7734H544.768V84.9294Z" fill="#5A5758"/>
</g>
<mask id="mask42_28_3746" style="mask-type:luminance" maskUnits="userSpaceOnUse" x="-351" y="-375" width="1123" height="794">
<path d="M-351 -375H771.52V418.701H-351V-375Z" fill="white"/>
</mask>
<g mask="url(#mask42_28_3746)">
<path d="M567.057 93.2748L564.663 87.7374L562.291 93.2748H567.057ZM563.576 84.8308H565.831L571.923 98.7734H569.351L567.947 95.4308H561.401L559.976 98.7734H557.484L563.576 84.8308Z" fill="#5A5758"/>
</g>
<mask id="mask43_28_3746" style="mask-type:luminance" maskUnits="userSpaceOnUse" x="-351" y="-375" width="1123" height="794">
<path d="M-351 -375H771.521V418.701H-351V-375Z" fill="white"/>
</mask>
<g mask="url(#mask43_28_3746)">
<path d="M575.487 87.1836H571.097V84.9289H582.33V87.1836H577.939V98.7729H575.487V87.1836Z" fill="#5A5758"/>
</g>
<mask id="mask44_28_3746" style="mask-type:luminance" maskUnits="userSpaceOnUse" x="-351" y="-375" width="1123" height="794">
<path d="M-351 -375H771.52V418.701H-351V-375Z" fill="white"/>
</mask>
<g mask="url(#mask44_28_3746)">
<path d="M584.643 84.929H587.056V98.7729H584.643V84.929Z" fill="#5A5758"/>
</g>
<mask id="mask45_28_3746" style="mask-type:luminance" maskUnits="userSpaceOnUse" x="-352" y="-375" width="1124" height="794">
<path d="M-351 -375H771.52V418.701H-351V-375Z" fill="white"/>
</mask>
<g mask="url(#mask45_28_3746)">
<path d="M596.569 96.7761C597.251 96.7761 597.879 96.6467 598.451 96.3894C599.021 96.1334 599.509 95.7827 599.917 95.3427C600.324 94.9001 600.641 94.3814 600.871 93.7894C601.101 93.1947 601.217 92.5627 601.217 91.8907V91.8507C601.217 91.1774 601.101 90.5427 600.871 89.9427C600.641 89.3414 600.321 88.8214 599.907 88.3801C599.493 87.9374 598.997 87.5854 598.421 87.3214C597.843 87.0587 597.212 86.9267 596.531 86.9267C595.847 86.9267 595.22 87.0547 594.649 87.3121C594.079 87.5681 593.589 87.9187 593.183 88.3601C592.775 88.8027 592.456 89.3201 592.227 89.9121C591.997 90.5054 591.881 91.1387 591.881 91.8107V91.8507C591.881 92.5227 591.997 93.1587 592.227 93.7601C592.456 94.3601 592.777 94.8814 593.192 95.3214C593.604 95.7641 594.1 96.1161 594.679 96.3801C595.256 96.6427 595.885 96.7761 596.569 96.7761ZM596.531 99.0107C595.463 99.0107 594.485 98.8227 593.603 98.4467C592.72 98.0707 591.961 97.5601 591.328 96.9134C590.696 96.2681 590.2 95.5121 589.845 94.6494C589.488 93.7867 589.311 92.8667 589.311 91.8907V91.8507C589.311 90.8761 589.488 89.9547 589.845 89.0921C590.2 88.2281 590.703 87.4707 591.348 86.8174C591.993 86.1641 592.759 85.6467 593.643 85.2654C594.525 84.8827 595.501 84.6907 596.569 84.6907C597.637 84.6907 598.613 84.8787 599.496 85.2547C600.379 85.6307 601.137 86.1427 601.771 86.7881C602.404 87.4347 602.897 88.1894 603.255 89.0534C603.609 89.9161 603.788 90.8347 603.788 91.8107V91.8507C603.788 92.8267 603.609 93.7467 603.255 94.6107C602.897 95.4734 602.396 96.2321 601.751 96.8841C601.104 97.5374 600.34 98.0547 599.456 98.4374C598.572 98.8187 597.597 99.0107 596.531 99.0107Z" fill="#5A5758"/>
</g>
<mask id="mask46_28_3746" style="mask-type:luminance" maskUnits="userSpaceOnUse" x="-352" y="-375" width="1124" height="794">
<path d="M-351 -375H771.52V418.701H-351V-375Z" fill="white"/>
</mask>
<g mask="url(#mask46_28_3746)">
<path d="M605.886 84.9289H608.136L615.538 94.5009V84.9289H617.95V98.7729H615.918L608.299 88.9236V98.7729H605.886V84.9289Z" fill="#5A5758"/>
</g>
</g>
<defs>
<linearGradient id="paint0_linear_28_3746" x1="58.5225" y1="63.5637" x2="95.1394" y2="32.1615" gradientUnits="userSpaceOnUse">
<stop stop-color="#2CA4E3"/>
<stop offset="0.00505027" stop-color="#2CA4E3"/>
<stop offset="0.0303915" stop-color="#2CA4E3"/>
<stop offset="0.997613" stop-color="#17194A"/>
<stop offset="1" stop-color="#17194A"/>
</linearGradient>
<linearGradient id="paint1_linear_28_3746" x1="76.3129" y1="78.143" x2="124.73" y2="59.5456" gradientUnits="userSpaceOnUse">
<stop stop-color="#17194A"/>
<stop offset="0.00238694" stop-color="#17194A"/>
<stop offset="0.89216" stop-color="#2CA4E3"/>
<stop offset="1" stop-color="#2CA4E3"/>
</linearGradient>
<clipPath id="clip0_28_3746">
<rect width="625" height="101" fill="white"/>
</clipPath>
</defs>
</svg>
