<svg width="330" height="81" viewBox="0 0 330 81" fill="none" xmlns="http://www.w3.org/2000/svg">
<g clip-path="url(#clip0_1_19545)">
<mask id="mask0_1_19545" style="mask-type:luminance" maskUnits="userSpaceOnUse" x="-119" y="-241" width="567" height="568">
<path d="M-119 -240.485H447.929V326.444H-119V-240.485Z" fill="white"/>
</mask>
<g mask="url(#mask0_1_19545)">
<path d="M99.3607 66.9396H101.869V69.4062H99.3607V75.5809H96.326V61.1422H99.3607V66.9396ZM89.6647 71.2396C90.802 71.2289 91.5713 70.7542 91.582 69.7849C91.5713 68.8142 90.802 68.3089 89.6647 68.3089C88.5367 68.3089 87.7887 68.8142 87.7887 69.7849C87.7887 70.7542 88.5367 71.2289 89.6647 71.2396ZM86.6713 74.4649H89.7073V77.7316H99.9927V80.1542H86.6713V74.4649ZM89.6647 65.9902C92.478 66.0009 94.4593 67.5289 94.47 69.7849C94.4593 72.0289 92.478 73.5249 89.6647 73.5156C86.8393 73.5249 84.8273 72.0289 84.8367 69.7849C84.8273 67.5289 86.8393 66.0009 89.6647 65.9902ZM83.9313 63.0809H88.1473V61.1222H91.182V63.0809H95.3967V65.4422H83.9313V63.0809Z" fill="#003D83"/>
</g>
<mask id="mask1_1_19545" style="mask-type:luminance" maskUnits="userSpaceOnUse" x="-119" y="-241" width="567" height="568">
<path d="M-119 -240.485H447.929V326.444H-119V-240.485Z" fill="white"/>
</mask>
<g mask="url(#mask1_1_19545)">
<path d="M118.497 63.5034C118.508 64.9261 118.508 66.5381 118.139 68.5408H120.521V70.9434H113.164V73.4528H118.476V80.4714H115.441V75.8341H104.585V73.4528H110.108V70.9434H102.836V68.5408H115.061C115.388 66.8754 115.452 65.5581 115.463 64.3474H104.965V61.9434H118.497V63.5034Z" fill="#003D83"/>
</g>
<mask id="mask2_1_19545" style="mask-type:luminance" maskUnits="userSpaceOnUse" x="-119" y="-241" width="567" height="568">
<path d="M-119 -240.485H447.929V326.444H-119V-240.485Z" fill="white"/>
</mask>
<g mask="url(#mask2_1_19545)">
<path d="M131.564 61.48H134.388V68.8986H135.632V61.1213H138.52V80.4706H135.632V71.324H134.388V79.6706H131.564V61.48ZM126.379 73.832C127.316 73.8413 127.971 73.1253 127.98 71.724C127.971 70.3533 127.316 69.584 126.379 69.5946C125.388 69.584 124.735 70.3533 124.735 71.724C124.735 73.1253 125.388 73.8413 126.379 73.832ZM126.379 67.0866C128.856 67.0866 130.627 69.0053 130.637 71.724C130.627 74.464 128.856 76.4026 126.379 76.4026C123.892 76.4026 122.069 74.464 122.08 71.724C122.069 69.0053 123.892 67.0866 126.379 67.0866ZM130.931 66.348H121.7V63.9466H124.861V61.6493H127.855V63.9466H130.931V66.348Z" fill="#003D83"/>
</g>
<mask id="mask3_1_19545" style="mask-type:luminance" maskUnits="userSpaceOnUse" x="-119" y="-241" width="567" height="568">
<path d="M-119 -240.485H447.929V326.444H-119V-240.485Z" fill="white"/>
</mask>
<g mask="url(#mask3_1_19545)">
<path d="M158.415 65.8224H156.013V67.5917H158.415V70.0797H156.013V72.377H152.978V61.1224H156.013V63.3771H158.415V65.8224ZM149.626 78.069C152.007 78.0784 153.199 77.657 153.21 76.6144C153.199 75.5597 152.007 75.0957 149.626 75.0957C147.222 75.0957 145.969 75.5597 145.979 76.6144C145.969 77.657 147.222 78.0784 149.626 78.069ZM146.043 69.0464C147.371 69.0464 148.414 68.2784 148.425 66.8757C148.414 65.4957 147.371 64.6837 146.043 64.6837C144.663 64.6837 143.629 65.4957 143.641 66.8757C143.629 68.2784 144.663 69.0464 146.043 69.0464ZM149.626 72.7144C153.619 72.7037 156.202 74.169 156.202 76.6144C156.202 79.0264 153.619 80.4917 149.626 80.4704C145.558 80.4917 142.934 79.0264 142.943 76.6144C142.934 74.169 145.558 72.7037 149.626 72.7144ZM146.043 62.1544C149.047 62.1544 151.375 64.1157 151.375 66.8757C151.375 69.6157 149.047 71.6077 146.043 71.597C142.987 71.6077 140.647 69.6157 140.667 66.8757C140.647 64.1157 142.987 62.1544 146.043 62.1544Z" fill="#003D83"/>
</g>
<mask id="mask4_1_19545" style="mask-type:luminance" maskUnits="userSpaceOnUse" x="-119" y="-241" width="567" height="568">
<path d="M-119 -240.485H447.929V326.444H-119V-240.485Z" fill="white"/>
</mask>
<g mask="url(#mask4_1_19545)">
<path d="M176.582 67.8237L175.401 70.2691C171.943 69.7957 169.573 68.2784 168.319 66.2757C167.054 68.2784 164.694 69.7957 161.278 70.2691L160.099 67.8237C164.789 67.2664 166.718 64.6731 166.718 62.5331V61.6491H169.921V62.5331C169.921 64.6851 171.849 67.2664 176.582 67.8237ZM159.487 71.5131H177.129V73.9784H169.753V80.4704H166.738V73.9784H159.487V71.5131Z" fill="#003D83"/>
</g>
<mask id="mask5_1_19545" style="mask-type:luminance" maskUnits="userSpaceOnUse" x="-119" y="-241" width="567" height="568">
<path d="M-119 -240.485H447.929V326.444H-119V-240.485Z" fill="white"/>
</mask>
<g mask="url(#mask5_1_19545)">
<path d="M190.745 61.1427H193.779V66.6227H196.287V69.172H193.779V75.2653H190.745V61.1427ZM181.091 73.8733H184.167V77.7307H194.433V80.1547H181.091V73.8733ZM190.133 70.1427L188.531 72.524C186.454 71.8387 185.053 70.5333 184.221 68.8573C183.357 70.68 181.861 72.1147 179.658 72.84L177.971 70.4587C181.385 69.4267 182.629 66.844 182.651 64.3253V62.324H185.707V64.3467C185.697 66.7493 186.897 69.1307 190.133 70.1427Z" fill="#003D83"/>
</g>
<mask id="mask6_1_19545" style="mask-type:luminance" maskUnits="userSpaceOnUse" x="-119" y="-241" width="567" height="568">
<path d="M-119 -240.485H447.929V326.444H-119V-240.485Z" fill="white"/>
</mask>
<g mask="url(#mask6_1_19545)">
<path d="M214.076 80.4706H211.167V61.1213H214.076V80.4706ZM203.896 68.0773H207.12V61.4173H209.923V79.628H207.12V70.544H203.896V68.0773ZM197.783 63.2506H205.223V65.6733H200.755V73.7573C202.62 73.736 204.128 73.62 205.835 73.284L206.045 75.7493C203.884 76.1813 201.915 76.2666 199.152 76.256H197.783V63.2506Z" fill="#003D83"/>
</g>
<mask id="mask7_1_19545" style="mask-type:luminance" maskUnits="userSpaceOnUse" x="-119" y="-241" width="567" height="568">
<path d="M-119 -240.485H447.929V326.444H-119V-240.485Z" fill="white"/>
</mask>
<g mask="url(#mask7_1_19545)">
<path d="M232.391 80.512H229.335V61.1213H232.391V80.512ZM221.831 73.5786C223.148 73.5786 224.033 72.176 224.044 69.3626C224.033 66.6026 223.148 65.1786 221.831 65.1893C220.472 65.1786 219.576 66.6026 219.596 69.3626C219.576 72.176 220.472 73.5786 221.831 73.5786ZM221.831 62.4506C224.771 62.44 226.964 65.1253 226.973 69.3626C226.964 73.6626 224.771 76.34 221.831 76.34C218.849 76.34 216.645 73.6626 216.645 69.3626C216.645 65.1253 218.849 62.44 221.831 62.4506Z" fill="#003D83"/>
</g>
<mask id="mask8_1_19545" style="mask-type:luminance" maskUnits="userSpaceOnUse" x="-119" y="-241" width="567" height="568">
<path d="M-119 -240.485H447.929V326.444H-119V-240.485Z" fill="white"/>
</mask>
<g mask="url(#mask8_1_19545)">
<path d="M251.422 80.5125H248.43V70.2272H245.246V67.8032H248.43V61.1218H251.422V80.5125ZM235.909 62.7032H244.951V65.1485H238.945V68.0778H244.298V70.4378H238.945V73.7578C241.379 73.7365 243.466 73.6418 245.753 73.3045L246.049 75.7072C243.223 76.1285 240.641 76.2125 237.469 76.2338H235.909V62.7032Z" fill="#003D83"/>
</g>
<mask id="mask9_1_19545" style="mask-type:luminance" maskUnits="userSpaceOnUse" x="-119" y="-241" width="567" height="568">
<path d="M-119 -240.485H447.929V326.444H-119V-240.485Z" fill="white"/>
</mask>
<g mask="url(#mask9_1_19545)">
<path d="M266.281 61.1427H269.316V66.6227H271.824V69.172H269.316V75.2653H266.281V61.1427ZM256.628 73.8733H259.704V77.7307H269.969V80.1547H256.628V73.8733ZM265.669 70.1427L264.068 72.524C261.991 71.8387 260.589 70.5333 259.757 68.8573C258.893 70.68 257.397 72.1147 255.195 72.84L253.508 70.4587C256.921 69.4267 258.165 66.844 258.188 64.3253V62.324H261.244V64.3467C261.233 66.7493 262.433 69.1307 265.669 70.1427Z" fill="#003D83"/>
</g>
<mask id="mask10_1_19545" style="mask-type:luminance" maskUnits="userSpaceOnUse" x="-119" y="-241" width="567" height="568">
<path d="M-119 -240.485H447.929V326.444H-119V-240.485Z" fill="white"/>
</mask>
<g mask="url(#mask10_1_19545)">
<path d="M286.155 76.3187H279.116V77.8146H286.155V76.3187ZM276.143 72.336H279.116V74H286.155V72.336H289.169V80.26H276.143V72.336ZM278.209 68.668C279.527 68.6773 280.465 67.8773 280.465 66.5386C280.465 65.2 279.527 64.4307 278.209 64.4307C276.851 64.4307 275.891 65.2 275.891 66.5386C275.891 67.8773 276.851 68.6773 278.209 68.668ZM283.184 65.3373H286.155V61.1213H289.169V71.5346H286.155V67.72H283.195C282.645 69.8053 280.653 71.208 278.209 71.2186C275.227 71.208 273.003 69.2466 273.025 66.5386C273.003 63.8826 275.227 61.912 278.209 61.9226C280.643 61.912 282.615 63.3026 283.184 65.3373Z" fill="#003D83"/>
</g>
<mask id="mask11_1_19545" style="mask-type:luminance" maskUnits="userSpaceOnUse" x="-119" y="-241" width="567" height="568">
<path d="M-119 -240.485H447.929V326.444H-119V-240.485Z" fill="white"/>
</mask>
<g mask="url(#mask11_1_19545)">
<path d="M302.637 68.963H305.039V67.5497H302.701V65.1257H305.039V61.1217H308.053V72.6724H305.039V71.3657H302.637V68.963ZM305.039 76.8457H297.915V77.9404H305.039V76.8457ZM297.177 70.375C298.253 70.375 299.011 69.9004 299.011 69.0257C299.011 68.183 298.253 67.7617 297.177 67.7617C296.113 67.7617 295.429 68.183 295.429 69.0257C295.429 69.9004 296.113 70.375 297.177 70.375ZM294.881 73.3684H297.915V74.611H305.039V73.3684H308.053V80.2604H294.881V73.3684ZM297.177 65.5057C299.865 65.5057 301.815 66.9604 301.835 69.0257C301.815 71.123 299.865 72.5457 297.177 72.5457C294.501 72.5457 292.605 71.123 292.605 69.0257C292.605 66.9604 294.501 65.5057 297.177 65.5057ZM302.405 65.0844H291.739V62.703H295.702V60.975H298.737V62.703H302.405V65.0844Z" fill="#003D83"/>
</g>
<mask id="mask12_1_19545" style="mask-type:luminance" maskUnits="userSpaceOnUse" x="-119" y="-241" width="567" height="568">
<path d="M-119 -240.485H447.929V326.444H-119V-240.485Z" fill="white"/>
</mask>
<g mask="url(#mask12_1_19545)">
<path d="M326.916 80.4706H323.901V61.1213H326.916V80.4706ZM316.861 71.2386C318.063 71.2293 318.873 70.7853 318.863 69.8693C318.873 68.984 318.063 68.52 316.861 68.52C315.701 68.52 314.869 68.984 314.88 69.8693C314.869 70.7853 315.701 71.2293 316.861 71.2386ZM311.024 63.208H315.364V61.228H318.4V63.208H322.721V65.568H311.024V63.208ZM315.364 74.864V73.368C313.32 72.9466 311.981 71.628 311.992 69.8693C311.981 67.708 313.995 66.2226 316.861 66.2226C319.749 66.2226 321.783 67.708 321.772 69.8693C321.783 71.628 320.433 72.9466 318.379 73.368V74.7586C319.908 74.6853 321.445 74.5586 322.911 74.3586L323.121 76.592C318.927 77.3306 314.427 77.372 311.024 77.372L310.643 74.9066C312.056 74.9066 313.679 74.9066 315.364 74.864Z" fill="#003D83"/>
</g>
<mask id="mask13_1_19545" style="mask-type:luminance" maskUnits="userSpaceOnUse" x="-119" y="-241" width="567" height="568">
<path d="M-119 -240.485H447.929V326.444H-119V-240.485Z" fill="white"/>
</mask>
<g mask="url(#mask13_1_19545)">
<path d="M20.8937 47.2077V30.505V23.7797V12.9664C20.8937 11.1077 19.3884 9.60372 17.5311 9.60372C16.6017 9.60238 15.7617 9.97838 15.1524 10.5877C14.5431 11.197 14.1671 12.037 14.1684 12.9664V23.7797V30.505V32.265V50.5704C14.1684 51.4637 14.5231 52.3184 15.1537 52.9477C15.7831 53.5784 16.6377 53.933 17.5311 53.933H41.1457V47.2077H20.8937Z" fill="#B5B5B6"/>
</g>
<mask id="mask14_1_19545" style="mask-type:luminance" maskUnits="userSpaceOnUse" x="-119" y="-241" width="567" height="568">
<path d="M-119 -240.485H447.929V326.444H-119V-240.485Z" fill="white"/>
</mask>
<g mask="url(#mask14_1_19545)">
<path d="M38.1168 9.92117C37.9995 10.8252 37.5381 11.6278 36.8195 12.1838C35.3301 13.3305 33.1835 13.0558 32.0368 11.5678C31.4808 10.8492 31.2395 9.9545 31.3568 9.0505C31.4728 8.1465 31.9315 7.3425 32.6501 6.78783C33.2528 6.32383 33.9715 6.07983 34.7301 6.07983C35.7995 6.07983 36.7835 6.56116 37.4328 7.40383C37.9901 8.12517 38.2328 9.0185 38.1168 9.92117ZM61.0635 7.0385C60.4328 6.40783 59.5781 6.05317 58.6861 6.05317H43.4181C43.0995 5.24916 42.6715 4.48383 42.1288 3.78117C38.9835 -0.293499 33.1061 -1.0495 29.0301 2.09316C24.9528 5.23983 24.1968 11.1158 27.3421 15.1918C29.1221 17.4985 31.8195 18.8212 34.7448 18.8212C36.8248 18.8212 38.7955 18.1492 40.4408 16.8798C41.8355 15.8038 42.8648 14.3865 43.4675 12.7785H55.3221V47.2078H47.8715V53.9332H58.6848C60.5435 53.9345 62.0488 52.4292 62.0475 50.5705L62.0488 9.41583C62.0488 8.52383 61.6941 7.66784 61.0635 7.0385Z" fill="#B5B5B6"/>
</g>
<mask id="mask15_1_19545" style="mask-type:luminance" maskUnits="userSpaceOnUse" x="-119" y="-241" width="567" height="568">
<path d="M-119 -240.485H447.929V326.444H-119V-240.485Z" fill="white"/>
</mask>
<g mask="url(#mask15_1_19545)">
<path d="M46.8863 26.276C46.2556 25.6453 45.4009 25.2906 44.5089 25.2906L20.8929 25.292V32.0173H41.1449L41.1463 48.72V55.4453V66.2586C41.1463 68.116 42.6516 69.6213 44.5089 69.6213C46.3676 69.6226 47.8729 68.1173 47.8716 66.2586V55.444V48.72V28.6533C47.8716 27.7613 47.5169 26.9066 46.8863 26.276Z" fill="#003D83"/>
</g>
<mask id="mask16_1_19545" style="mask-type:luminance" maskUnits="userSpaceOnUse" x="-119" y="-241" width="567" height="568">
<path d="M-119 -240.485H447.929V326.444H-119V-240.485Z" fill="white"/>
</mask>
<g mask="url(#mask16_1_19545)">
<path d="M28.7977 72.5736C27.3071 73.7216 25.1604 73.4429 24.0164 71.9576C23.4604 71.2376 23.2191 70.3443 23.3351 69.4389C23.4524 68.5363 23.9124 67.7309 24.6324 67.1763C25.2337 66.7123 25.9524 66.4669 26.7111 66.4669C27.7791 66.4669 28.7644 66.9496 29.4137 67.7923C30.5604 69.2803 30.2844 71.4256 28.7977 72.5736ZM21.0097 62.4816C19.6297 63.5469 18.6391 64.9296 18.0431 66.4456H6.71639V32.0163H14.1684V25.2923H3.35372C2.42439 25.2909 1.58439 25.6669 0.976392 26.2763C0.367059 26.8843 -0.00894165 27.7243 -0.00894165 28.6536V69.8083C-0.00894165 70.7016 0.345725 71.5563 0.976392 72.1869C1.60573 72.8163 2.46172 73.1709 3.35372 73.1709H17.9791C18.2977 74.0163 18.7417 74.8296 19.3217 75.5803C21.1031 77.8869 23.8017 79.2096 26.7257 79.2096C28.8071 79.2096 30.7751 78.5389 32.4204 77.2683C36.4951 74.1216 37.2524 68.2456 34.1084 64.1696C30.9577 60.0936 25.0817 59.3389 21.0097 62.4816Z" fill="#003D83"/>
</g>
<mask id="mask17_1_19545" style="mask-type:luminance" maskUnits="userSpaceOnUse" x="-119" y="-241" width="567" height="568">
<path d="M-119 -240.485H447.929V326.444H-119V-240.485Z" fill="white"/>
</mask>
<g mask="url(#mask17_1_19545)">
<path d="M124.227 1.1433H112.285L93.7275 23.1433V4.9233C93.7275 2.8353 92.0355 1.1433 89.9475 1.1433H83.5901V53.0726H93.7275V36.0313L97.6008 31.726L112.313 53.0726H125.101L104.43 24.162L124.227 1.1433Z" fill="#003D83"/>
</g>
<mask id="mask18_1_19545" style="mask-type:luminance" maskUnits="userSpaceOnUse" x="-119" y="-241" width="567" height="568">
<path d="M-119 -240.485H447.929V326.444H-119V-240.485Z" fill="white"/>
</mask>
<g mask="url(#mask18_1_19545)">
<path d="M156.633 24.0541V30.1594C156.633 39.8074 152.998 44.3021 145.195 44.3021C137.497 44.3021 133.755 39.6754 133.755 30.1594V24.0541C133.755 14.5394 137.497 9.91545 145.195 9.91545C152.998 9.91545 156.633 14.4074 156.633 24.0541ZM145.195 0.371452C131.642 0.371452 123.55 8.80478 123.55 22.9328V31.2834C123.55 45.6208 131.438 53.8434 145.195 53.8434C158.95 53.8434 166.839 45.6208 166.839 31.2834V22.9328C166.839 8.80478 158.749 0.371452 145.195 0.371452Z" fill="#003D83"/>
</g>
<mask id="mask19_1_19545" style="mask-type:luminance" maskUnits="userSpaceOnUse" x="-119" y="-241" width="567" height="568">
<path d="M-119 -240.485H447.929V326.444H-119V-240.485Z" fill="white"/>
</mask>
<g mask="url(#mask19_1_19545)">
<path d="M204.157 1.1433H174.043V53.0726H184.358V32.09H206.462V23.178H184.358V10.0553H207.937V4.9233C207.937 2.8353 206.245 1.1433 204.157 1.1433Z" fill="#003D83"/>
</g>
<mask id="mask20_1_19545" style="mask-type:luminance" maskUnits="userSpaceOnUse" x="-119" y="-241" width="567" height="568">
<path d="M-119 -240.485H447.929V326.444H-119V-240.485Z" fill="white"/>
</mask>
<g mask="url(#mask20_1_19545)">
<path d="M268.326 1.1433H261.65V53.0726H272.106V4.9233C272.106 2.8353 270.414 1.1433 268.326 1.1433Z" fill="#003D83"/>
</g>
<mask id="mask21_1_19545" style="mask-type:luminance" maskUnits="userSpaceOnUse" x="-119" y="-241" width="567" height="568">
<path d="M-119 -240.485H447.929V326.444H-119V-240.485Z" fill="white"/>
</mask>
<g mask="url(#mask21_1_19545)">
<path d="M299.691 17.3998C300.008 16.6038 300.301 15.8692 300.58 15.0745C300.836 15.7678 301.116 16.4625 301.417 17.2092C301.849 18.2852 302.327 19.4678 302.832 20.8985L306.273 31.2212L306.383 31.5305C305.065 31.1745 303.539 30.8852 302.077 30.7238C301.201 30.6278 300.227 30.5852 299.251 30.5852C297.744 30.5852 296.229 30.6852 295.047 30.8412L298.357 20.9092C298.868 19.4612 299.303 18.3718 299.691 17.3998ZM327.488 51.2718C327.233 50.9732 324.243 48.3732 320.073 40.6092C315.825 32.7612 308.696 10.7825 306.612 4.23318C306.024 2.38518 304.324 1.14384 302.379 1.14384H295.861L276.557 53.0718H287.179L290.508 43.7905C291.297 41.5918 293.284 40.0198 295.571 39.7878C297.439 39.5958 299.497 39.5892 301.08 39.7638C306.416 40.3532 308.544 42.2612 311.041 46.0478C311.109 46.1545 312.361 48.1652 312.4 48.2278C314.249 51.2225 316.663 52.7612 319.996 53.0692C320.849 53.1492 322.02 53.1758 323.197 53.1758C325.457 53.1758 327.747 53.0772 327.891 53.0718L329.636 52.9892C329.636 52.9892 327.793 51.6305 327.488 51.2718Z" fill="#003D83"/>
</g>
<mask id="mask22_1_19545" style="mask-type:luminance" maskUnits="userSpaceOnUse" x="-119" y="-241" width="567" height="568">
<path d="M-119 -240.485H447.929V326.444H-119V-240.485Z" fill="white"/>
</mask>
<g mask="url(#mask22_1_19545)">
<path d="M232.18 1.1433H230.815V10.058L231.471 10.0673C240.489 10.2033 244.168 14.1953 244.168 23.8446V30.37C244.168 40.0366 240.233 44.1606 231.009 44.1606H224.317V19.6446C224.317 17.5566 222.624 15.8646 220.537 15.8646H214.248V53.0726H232.317C247.367 53.0726 254.375 45.9713 254.375 30.722V23.494C254.375 8.6633 246.908 1.1433 232.18 1.1433Z" fill="#003D83"/>
</g>
<mask id="mask23_1_19545" style="mask-type:luminance" maskUnits="userSpaceOnUse" x="-119" y="-241" width="567" height="568">
<path d="M-119 -240.485H447.929V326.444H-119V-240.485Z" fill="white"/>
</mask>
<g mask="url(#mask23_1_19545)">
<path d="M226.445 11.9776H214.011V1.0389H224.555C225.598 1.0389 226.445 1.88424 226.445 2.92824V11.9776Z" fill="#B5B5B6"/>
</g>
</g>
<defs>
<clipPath id="clip0_1_19545">
<rect width="330" height="81" fill="white"/>
</clipPath>
</defs>
</svg>
