<svg width="786" height="172" viewBox="0 0 786 172" fill="none" xmlns="http://www.w3.org/2000/svg">
<g clip-path="url(#clip0_18_3495)">
<mask id="mask0_18_3495" style="mask-type:luminance" maskUnits="userSpaceOnUse" x="-25" y="-218" width="842" height="596">
<path d="M-25 -218H816.89V377.28H-25V-218Z" fill="white"/>
</mask>
<g mask="url(#mask0_18_3495)">
<path d="M474.773 138.391C474.969 138.803 475.321 139.249 475.828 139.732C476.429 139.307 476.874 138.889 477.15 138.482C477.453 138.051 477.613 137.576 477.625 137.052C477.644 136.436 477.514 135.957 477.236 135.613C476.98 135.293 476.608 135.129 476.132 135.126C475.65 135.12 475.275 135.276 474.999 135.592C474.702 135.911 474.543 136.376 474.529 136.991C474.508 137.534 474.592 138.003 474.773 138.391ZM477.085 151.869C477.633 151.372 478.155 150.579 478.641 149.493L475.06 145.293C474.278 145.876 473.693 146.489 473.312 147.121C472.948 147.754 472.756 148.485 472.73 149.3C472.702 150.301 472.91 151.1 473.356 151.696C473.811 152.292 474.448 152.595 475.252 152.605C475.942 152.608 476.549 152.362 477.085 151.869ZM481.624 152.762C480.752 154.303 479.759 155.478 478.646 156.286C477.549 157.096 476.38 157.496 475.138 157.485C473.299 157.467 471.737 156.632 470.446 154.985C469.17 153.376 468.562 151.494 468.627 149.33C468.665 147.897 469.002 146.582 469.63 145.378C470.236 144.223 471.151 143.149 472.367 142.16C471.716 141.4 471.233 140.601 470.916 139.756C470.591 138.889 470.449 137.99 470.477 137.054C470.53 135.208 471.12 133.645 472.251 132.358C473.395 131.068 474.773 130.436 476.38 130.451C477.818 130.462 479.059 131.134 480.114 132.462C481.166 133.794 481.67 135.324 481.621 137.052C481.586 138.147 481.298 139.18 480.752 140.153C480.227 141.103 479.485 141.951 478.524 142.694L480.384 144.966L482.445 139.314L486.721 139.353L483.498 148.342L488.34 153.78L485.687 157.239L481.624 152.762Z" fill="#1E298B"/>
<path d="M260.235 27.198V21.147H271.115V27.198H286.054V35.45H274.732C279.605 36.813 283.011 39.329 284.948 42.995C286.734 46.297 287.21 50.179 286.363 54.634C285.426 58.25 283.222 61.26 279.762 63.677C275.884 66.346 271.084 67.684 265.362 67.684C259.741 67.684 255.021 66.294 251.193 63.515C247.838 61.049 245.719 57.987 244.823 54.312C243.886 50.073 244.333 46.297 246.164 42.995C248.043 39.43 251.325 36.918 255.988 35.45H244.751V27.198H260.235ZM257.769 43.347C256.088 45.076 255.256 47.279 255.256 49.953C255.256 52.576 256.088 54.772 257.769 56.553C259.659 58.495 262.17 59.464 265.317 59.464C268.566 59.464 271.158 58.521 273.1 56.63C274.931 54.905 275.852 52.779 275.852 50.263C275.852 47.593 274.983 45.337 273.256 43.499C271.261 41.509 268.614 40.516 265.317 40.516C262.118 40.516 259.601 41.455 257.769 43.347ZM304.31 21.566V44.601H311.784V53.568H304.31V76.446H293.434V21.566H304.31ZM261.83 87.963H304.756V96.5H250.953V72.162H261.83V87.963Z" fill="#1E298B"/>
<path d="M388.282 59.0295H362.085V69.6275H385.058V97.1855H374.281V78.1595H328.875V69.6275H351.204V59.0295H325.656V50.4986H372.941C373.365 48.4556 373.701 46.1295 373.961 43.5135C374.171 41.3135 374.281 38.8275 374.281 36.0595V31.7415H328.832V23.2036H385.058V31.2795C385.058 34.4175 384.952 37.6095 384.743 40.8485C384.43 44.5125 384.037 47.7286 383.566 50.4986H388.282V59.0295Z" fill="#1E298B"/>
<path d="M414.19 27.5279V21.2379H424.977V27.5279H436.373V35.8699H427.097C430.558 38.2309 433.122 42.4819 434.796 48.6099C436.373 54.2189 436.895 60.3799 436.373 67.0839C435.797 74.0569 434.226 79.7669 431.657 84.2219C428.72 89.2559 424.926 91.7749 420.252 91.7749C415.636 91.7749 411.908 89.2559 409.082 84.2219C406.516 79.7669 404.961 74.0569 404.439 67.0839C403.864 60.4329 404.335 54.2699 405.857 48.6099C407.533 42.5259 410.129 38.2879 413.639 35.8699H404.052V27.5279H414.19ZM416.196 47.1679C415.404 50.8379 415.017 55.6579 415.017 61.6339C415.017 67.3489 415.404 72.1989 416.196 76.1789C417.184 80.8389 418.55 83.1749 420.283 83.1749C422.115 83.1749 423.535 80.8389 424.533 76.1789C425.419 72.2509 425.863 67.4009 425.863 61.6339C425.863 55.6579 425.419 50.8379 424.533 47.1679C423.586 43.0259 422.172 40.9579 420.283 40.9579C418.499 40.9579 417.137 43.0259 416.196 47.1679ZM439.978 21.6519H450.768V52.4699H456.493V21.6519H467.175V97.2949H456.493V61.2869H450.768V97.2949H439.978V21.6519Z" fill="#1E298B"/>
<path d="M517.49 27.3676C520.8 31.0976 522.448 35.8606 522.448 41.6766C522.448 47.4466 520.8 52.1886 517.49 55.9076C513.821 60.0506 508.657 62.1176 501.999 62.1176C495.345 62.1176 490.213 60.0506 486.595 55.9076C483.291 52.1886 481.643 47.4466 481.643 41.6766C481.643 35.8606 483.291 31.0976 486.595 27.3676C490.213 23.2826 495.345 21.2366 501.999 21.2366C508.657 21.2366 513.821 23.2826 517.49 27.3676ZM494.698 33.1076C493.274 35.2006 492.566 38.0586 492.566 41.6766C492.566 45.2456 493.274 48.0746 494.698 50.1676C496.367 52.5806 498.8 53.7846 501.999 53.7846C505.201 53.7846 507.642 52.5806 509.315 50.1676C510.783 48.0746 511.518 45.2456 511.518 41.6766C511.518 38.0586 510.783 35.2006 509.315 33.1076C507.642 30.7496 505.201 29.5716 501.999 29.5716C498.8 29.5716 496.367 30.7496 494.698 33.1076ZM540.291 21.6286V29.9456H547.689V38.2946H540.291V47.7976H547.689V56.2406H540.291V64.2376H529.414V21.6286H540.291ZM500.742 77.7676C498.074 79.1816 496.738 80.9626 496.738 83.1056C496.738 85.1506 498.074 86.8846 500.742 88.2996C503.735 89.9256 507.902 90.7386 513.24 90.7386C518.749 90.7386 523.076 89.9256 526.221 88.2996C528.996 86.8846 530.389 85.1506 530.389 83.1056C530.389 80.9626 528.996 79.1816 526.221 77.7676C523.076 76.1406 518.749 75.3286 513.24 75.3286C507.902 75.3286 503.735 76.1406 500.742 77.7676ZM534.555 71.8716C539.113 74.9116 541.391 78.6566 541.391 83.1056C541.391 87.5086 539.113 91.2076 534.555 94.1966C529.414 97.6006 522.473 99.3096 513.719 99.3096C504.803 99.3096 497.817 97.6006 492.73 94.1966C488.218 91.2076 485.961 87.5086 485.961 83.1056C485.961 78.6076 488.218 74.8566 492.73 71.8716C497.817 68.4676 504.803 66.7576 513.719 66.7576C522.473 66.7576 529.414 68.4676 534.555 71.8716Z" fill="#1E298B"/>
<path d="M586.31 31.6682H573.725V80.1542H592.951V21.6122H603.834V51.6482H611.894V21.6122H622.771V97.2252H611.894V60.2752H603.834V97.3062H592.951V88.4972H571.822H562.946V23.2281H586.31V31.6682Z" fill="#1E298B"/>
<path d="M656.773 26.1089V21.2359H667.654V26.1089H682.586V34.1749H671.427C676.09 35.4849 679.368 37.7389 681.252 40.9349C683.036 43.8709 683.482 47.3569 682.586 51.3949C681.591 54.9039 679.42 57.8169 676.065 60.1179C672.233 62.7399 667.544 64.0489 661.979 64.0489C656.363 64.0489 651.637 62.7169 647.806 60.0399C644.508 57.6889 642.382 54.7999 641.442 51.3949C640.498 47.3569 640.886 43.8709 642.618 40.9349C644.508 37.7389 647.785 35.4849 652.448 34.1749H641.362V26.1089H656.773ZM654.396 41.7319C652.772 43.2509 651.962 45.1429 651.962 47.3939C651.962 49.5469 652.772 51.4579 654.396 53.1359C656.279 55.0249 658.802 55.9619 661.948 55.9619C665.089 55.9619 667.632 55.0249 669.569 53.1359C671.301 51.4579 672.168 49.5469 672.168 47.3939C672.168 45.1429 671.301 43.2509 669.569 41.7319C667.686 40.0029 665.142 39.1369 661.948 39.1369C658.802 39.1369 656.279 40.0029 654.396 41.7319ZM700.942 21.5819V39.4269H708.338V48.0529H700.942V64.4869H690.066V21.5819H700.942ZM700.942 69.5299V97.1699H690.066V78.0639H646.356V69.5299H700.942Z" fill="#1E298B"/>
<path d="M781.696 23.2039V51.9819C781.696 57.6929 781.35 63.1439 780.669 68.3329C779.984 73.6259 778.989 78.6369 777.424 83.7699H766.956C768.367 79.2099 769.254 74.9649 769.891 70.6159C770.566 66.0019 770.908 61.1019 770.908 55.9119V32.4839H725.468V23.2039H781.696ZM784.928 91.8779H722.26V83.5359H730.206V49.4089H741.088V83.5359H749.525V49.4089H760.403V83.5359H784.928V91.8779Z" fill="#1E298B"/>
<path d="M223.255 33.971C223.474 32.772 223.653 31.369 223.783 29.794C223.909 28.298 223.967 26.794 223.967 25.329V21.312H196.069V25.838H218.135V27.569C218.135 28.836 218.083 29.977 217.989 30.985C217.869 32.134 217.717 33.113 217.528 33.971H194.467V38.451H206.883V42.842H196.032V47.315H218.135V56.125H223.967V42.842H212.713V38.451H225.531V33.971H223.255Z" fill="#1E298B"/>
<path d="M203.113 90.2708H218.47V92.4068H203.113V90.2708ZM218.471 85.8409H203.113V83.3669H197.278V96.8809H224.254V83.3669H218.471V85.8409Z" fill="#1E298B"/>
<path d="M195.493 69.1469V81.2639H218.423V82.0669H224.213V61.6259H218.423V76.8829H201.329V73.4759H213.802V62.2979H195.493V66.6809H208.013V69.1469H195.493Z" fill="#1E298B"/>
<path d="M212.317 130.743L203.99 141.797L213.738 156.467H207.869L201.003 145.408L199.373 148.244V156.467H194.46V130.743H199.373V140.643L206.303 130.743H212.317Z" fill="#1E298B"/>
<path d="M229.131 137.337C229.131 136.332 228.793 135.494 228.104 134.822C227.32 134.038 226.23 133.638 224.833 133.638C223.36 133.638 222.235 134.057 221.45 134.88C220.813 135.552 220.495 136.37 220.495 137.337V149.367C220.495 150.454 220.802 151.382 221.417 152.15C222.177 153.133 223.313 153.629 224.833 153.629C226.439 153.629 227.611 153.133 228.319 152.15C228.863 151.423 229.131 150.454 229.131 149.254V137.337ZM234.078 148.187C234.048 150.714 233.579 152.636 232.656 153.961C231.212 155.963 228.591 156.971 224.798 156.971C220.951 156.971 218.326 155.963 216.899 153.961C215.976 152.673 215.512 150.758 215.512 148.187V138.693C215.49 136.289 215.947 134.448 216.899 133.166C218.326 131.193 220.951 130.206 224.798 130.206C228.568 130.206 231.183 131.193 232.656 133.166C233.601 134.469 234.078 136.315 234.078 138.693V148.187Z" fill="#1E298B"/>
<path d="M242.29 141.238H243.106C244.957 141.238 246.194 141.224 246.808 141.209C247.736 141.169 248.409 141.099 248.838 141.007C249.26 140.886 249.546 140.69 249.69 140.435C249.806 140.225 249.864 139.859 249.864 139.342V135.914C249.864 135.362 249.794 134.981 249.655 134.761C249.505 134.504 249.202 134.321 248.727 134.201C248.281 134.081 247.526 134.015 246.487 133.999C245.78 133.974 244.384 133.966 242.29 133.966V141.238ZM237.315 130.743H244.957C248.351 130.743 250.804 131.009 252.324 131.542C254.075 132.166 254.951 133.273 254.951 134.851V138.341C254.951 139.801 254.713 140.835 254.237 141.445C253.622 142.236 252.387 142.763 250.543 143.041C251.61 143.393 252.451 143.783 253.072 144.198C253.664 144.592 254.098 145.042 254.383 145.558C254.644 145.991 254.811 146.526 254.886 147.182C254.928 147.577 254.951 148.244 254.951 149.198V149.692V156.467H249.899V147.478V147.334C249.899 146.662 249.852 146.197 249.761 145.943C249.637 145.545 249.367 145.246 248.942 145.025C248.467 144.812 247.717 144.65 246.703 144.548C245.659 144.455 244.186 144.403 242.29 144.403V156.467H237.315V130.743Z" fill="#1E298B"/>
<path d="M258.262 130.743H271.88V134.112H263.243V141.565H271.351V144.786H263.243V153.033H272.164V156.467H258.262V130.743Z" fill="#1E298B"/>
<path d="M281.346 146.353H286.391L283.902 135.323L281.346 146.353ZM287.597 130.743L293.86 156.466H288.845L287.243 149.871H280.487L278.92 156.466H273.875L280.133 130.743H287.597Z" fill="#1E298B"/>
<path d="M333.437 130.743V156.467H328.461V134.909L323.548 156.467H318.647L313.633 134.909V156.467H308.648V130.743H317.546L318.899 137.274L321.062 150.193L324.692 130.743H333.437Z" fill="#1E298B"/>
<path d="M343.506 146.353H348.551L346.069 135.323L343.506 146.353ZM349.764 130.743L356.02 156.466H351.01L349.408 149.871H342.654L341.087 156.466H336.037L342.295 130.743H349.764Z" fill="#1E298B"/>
<path d="M363.596 141.238H364.419C366.269 141.238 367.498 141.224 368.12 141.209C369.036 141.169 369.719 141.099 370.146 141.007C370.566 140.886 370.858 140.69 370.997 140.435C371.114 140.225 371.176 139.859 371.176 139.342V135.914C371.176 135.362 371.102 134.981 370.961 134.761C370.819 134.504 370.513 134.321 370.034 134.201C369.582 134.081 368.841 134.015 367.794 133.999C367.089 133.974 365.684 133.966 363.596 133.966V141.238ZM358.619 130.743H366.269C369.655 130.743 372.114 131.009 373.629 131.542C375.38 132.166 376.257 133.273 376.257 134.851V138.341C376.257 139.801 376.027 140.835 375.548 141.445C374.933 142.236 373.699 142.763 371.855 143.041C372.923 143.393 373.756 143.783 374.366 144.198C374.969 144.592 375.412 145.042 375.694 145.558C375.955 145.991 376.124 146.526 376.186 147.182C376.24 147.577 376.257 148.244 376.257 149.198V149.692V156.467H371.211V147.478V147.334C371.211 146.662 371.165 146.197 371.072 145.943C370.95 145.545 370.677 145.246 370.256 145.025C369.771 144.812 369.029 144.65 368.004 144.548C366.972 144.455 365.492 144.403 363.596 144.403V156.467H358.619V130.743Z" fill="#1E298B"/>
<path d="M385.037 156.467H379.956V130.743H385.037V156.467Z" fill="#1E298B"/>
<path d="M404.814 130.743V134.081H398.029V156.467H392.937V134.081H387.284V130.743H404.814Z" fill="#1E298B"/>
<path d="M412.36 156.467H407.273V130.743H412.36V156.467Z" fill="#1E298B"/>
<path d="M441.126 130.743V156.467H436.145V134.909L431.237 156.467H426.335L421.321 134.909V156.467H416.339V130.743H425.234L426.581 137.274L428.75 150.193L432.374 130.743H441.126Z" fill="#1E298B"/>
<path d="M444.789 130.743H458.408V134.112H449.767V141.565H457.879V144.786H449.767V153.033H458.699V156.467H444.789V130.743Z" fill="#1E298B"/>
<path d="M511.441 137.337C511.441 136.332 511.108 135.494 510.443 134.822C509.674 134.038 508.615 133.638 507.255 133.638C505.827 133.638 504.732 134.057 503.967 134.88C503.353 135.552 503.034 136.37 503.034 137.337V149.367C503.034 150.454 503.337 151.382 503.929 152.15C504.673 153.133 505.781 153.629 507.255 153.629C508.823 153.629 509.956 153.133 510.65 152.15C511.181 151.423 511.441 150.454 511.441 149.254V137.337ZM516.248 148.187C516.224 150.714 515.759 152.636 514.864 153.961C513.46 155.963 510.917 156.971 507.22 156.971C503.481 156.971 500.926 155.963 499.541 153.961C498.643 152.673 498.191 150.758 498.191 148.187V138.693C498.176 136.289 498.621 134.448 499.541 133.166C500.926 131.193 503.481 130.206 507.22 130.206C510.888 130.206 513.436 131.193 514.864 133.166C515.787 134.469 516.248 136.315 516.248 138.693V148.187Z" fill="#1E298B"/>
<path d="M537.797 140.023H532.951V136.712C532.951 135.825 532.62 135.109 531.946 134.555C531.192 133.928 530.081 133.605 528.631 133.605C527.222 133.605 526.138 133.965 525.377 134.67C524.599 135.405 524.204 136.42 524.204 137.719V149.636C524.204 150.877 524.599 151.87 525.377 152.619C526.184 153.394 527.272 153.779 528.631 153.779C529.989 153.779 531.05 153.4 531.814 152.654C532.574 151.884 532.951 150.798 532.951 149.406V147.034H537.797V148.07C537.797 150.864 537.212 152.967 536.032 154.369C534.594 156.123 532.161 157.002 528.705 157.002C525.078 157.002 522.559 156.127 521.123 154.395C519.952 152.958 519.365 150.6 519.365 147.334V139.815C519.365 136.742 519.952 134.458 521.123 132.962C522.574 131.124 525.024 130.206 528.463 130.206C531.839 130.206 534.318 130.954 535.857 132.458C537.144 133.677 537.797 135.395 537.797 137.597V140.023Z" fill="#1E298B"/>
<path d="M541.249 130.743H554.498V134.112H546.092V141.565H553.982V144.786H546.092V153.033H554.771V156.467H541.249V130.743Z" fill="#1E298B"/>
<path d="M563.703 146.353H568.616L566.191 135.323L563.703 146.353ZM569.789 130.743L575.872 156.466H571.002L569.444 149.871H562.87L561.345 156.466H556.438L562.523 130.743H569.789Z" fill="#1E298B"/>
<path d="M595.653 130.743V156.467H588.744L582.964 136.923V156.467H578.12V130.743H584.656L590.74 150.317V130.743H595.653Z" fill="#1E298B"/>
<path d="M629.064 130.713V148.153C629.064 149.636 628.994 150.767 628.857 151.56C628.669 152.72 628.31 153.665 627.779 154.395C627.158 155.225 626.275 155.854 625.116 156.284C623.827 156.764 622.153 157.001 620.109 157.001C618.027 157.001 616.349 156.764 615.055 156.284C613.854 155.854 612.945 155.225 612.326 154.395C611.767 153.665 611.402 152.72 611.213 151.56C611.085 150.724 611.011 149.595 611.011 148.153V130.713H615.959V149.87C615.959 151.216 616.148 152.109 616.543 152.567C617.098 153.175 618.287 153.478 620.109 153.478C621.864 153.478 622.997 153.175 623.532 152.567C623.922 152.126 624.113 151.229 624.113 149.87V130.713H629.064Z" fill="#1E298B"/>
<path d="M650.229 130.743V156.467H643.313L637.544 136.923V156.467H632.7V130.743H639.234L645.314 150.317V130.743H650.229Z" fill="#1E298B"/>
<path d="M658.672 156.467H653.718V130.743H658.672V156.467Z" fill="#1E298B"/>
<path d="M681.881 130.743L675.681 156.467H667.527L661.501 130.743H666.414L671.606 152.739L671.989 151.082C672.727 148.07 673.261 145.82 673.608 144.344C674.232 141.78 674.785 139.425 675.277 137.274L676.793 130.743H681.881Z" fill="#1E298B"/>
<path d="M684.329 130.743H697.577V134.112H689.174V141.565H697.064V144.786H689.174V153.033H697.852V156.467H684.329V130.743Z" fill="#1E298B"/>
<path d="M705.67 141.238H706.464C708.258 141.238 709.466 141.224 710.058 141.209C710.96 141.169 711.615 141.099 712.038 141.007C712.449 140.886 712.726 140.69 712.866 140.435C712.98 140.225 713.034 139.859 713.034 139.342V135.914C713.034 135.362 712.964 134.981 712.827 134.761C712.694 134.504 712.388 134.321 711.931 134.201C711.491 134.081 710.768 134.015 709.751 133.999C709.059 133.974 707.7 133.966 705.67 133.966V141.238ZM700.83 130.743H708.258C711.566 130.743 713.945 131.009 715.423 131.542C717.132 132.166 717.982 133.273 717.982 134.851V138.341C717.982 139.801 717.756 140.835 717.29 141.445C716.692 142.236 715.496 142.763 713.695 143.041C714.73 143.393 715.546 143.783 716.149 144.198C716.731 144.592 717.153 145.042 717.429 145.558C717.683 145.991 717.844 146.526 717.916 147.182C717.962 147.577 717.982 148.244 717.982 149.198V149.692V156.467H713.07V147.478V147.334C713.07 146.662 713.025 146.197 712.934 145.943C712.816 145.545 712.553 145.246 712.14 145.025C711.679 144.812 710.95 144.65 709.962 144.548C708.941 144.455 707.514 144.403 705.67 144.403V156.467H700.83V130.743Z" fill="#1E298B"/>
<path d="M738.106 138.52H733.173V136.21C733.173 135.186 732.97 134.482 732.581 134.112C732.074 133.614 731.08 133.37 729.607 133.37C728.012 133.37 726.939 133.637 726.387 134.176C725.992 134.583 725.799 135.323 725.799 136.387C725.799 136.938 725.824 137.336 725.874 137.571C725.964 137.906 726.138 138.211 726.387 138.485C726.663 138.766 727.116 139.074 727.736 139.406C728.25 139.7 729.077 140.126 730.23 140.681L731.785 141.414C733.399 142.206 734.519 142.775 735.139 143.129C736.09 143.679 736.799 144.22 737.285 144.726C737.815 145.298 738.187 145.991 738.428 146.798C738.654 147.592 738.773 148.622 738.773 149.902C738.773 152.347 738.086 154.121 736.698 155.225C735.241 156.407 732.868 157.001 729.569 157.001C726.318 157.001 724.042 156.466 722.72 155.4C721.641 154.553 721.096 153.203 721.096 151.351V147.892H726.008V150.674C726.008 151.756 726.201 152.499 726.597 152.919C727.121 153.493 728.164 153.779 729.709 153.779C731.322 153.779 732.439 153.458 733.065 152.829C733.568 152.333 733.82 151.589 733.82 150.584C733.82 149.336 733.471 148.337 732.755 147.565C731.897 146.662 730.137 145.538 727.464 144.198C724.853 142.874 723.178 141.852 722.444 141.116C721.409 140.078 720.888 138.609 720.888 136.712C720.888 134.542 721.576 132.923 722.971 131.833C724.391 130.752 726.544 130.206 729.399 130.206C732.355 130.206 734.572 130.562 736.072 131.27C737.435 131.924 738.106 132.833 738.106 133.999V138.52Z" fill="#1E298B"/>
<path d="M747.175 156.467H742.217V130.743H747.175V156.467Z" fill="#1E298B"/>
<path d="M766.397 130.743V134.081H759.793V156.467H754.848V134.081H749.354V130.743H766.397Z" fill="#1E298B"/>
<path d="M785.564 130.743L778.649 147.334V156.467H773.844V147.334L767.166 130.743H772.147C772.631 132.139 773.185 133.766 773.804 135.62C774.149 136.703 774.631 138.184 775.252 140.056L776.262 143.072L780.589 130.743H785.564Z" fill="#1E298B"/>
<path d="M87.1733 44.2441L86.9993 48.3621C86.9993 48.3621 87.5993 49.0461 86.3123 49.0461H66.6103C66.6103 49.0461 62.9153 49.0461 61.8843 52.7371C60.8483 56.4271 51.8243 96.2281 51.8243 96.2281C51.8243 96.2281 55.8603 99.7481 62.9153 98.6321C62.9153 98.6321 63.0823 98.7181 63.2573 97.6851C63.4313 96.6591 67.1273 73.3261 67.8133 69.5521C68.5063 65.7751 69.6233 58.7411 69.8803 57.8851C70.3153 57.3691 70.3153 57.4551 70.8323 57.4551C71.3493 57.4551 77.8813 57.5371 77.8813 57.5371C77.8813 57.5371 78.1403 57.3691 78.1403 57.9681C78.1403 58.5711 74.5233 92.4541 74.5233 92.4541C74.5233 92.4541 74.3543 93.1431 74.7843 92.9691C75.2113 92.7961 81.4063 90.0501 85.5383 90.0501C85.5383 90.0501 85.8783 89.9661 85.9673 89.1961C86.0523 88.4211 87.0883 58.0571 87.0883 58.0571C87.0883 58.0571 86.9993 57.5371 87.6863 57.5371H94.4873C94.4873 57.5371 95.1703 57.4551 95.1703 58.3121C95.1703 59.1701 96.1193 89.7061 96.1193 89.7061C96.1193 89.7061 96.1193 89.9661 96.6343 90.0501C97.1563 90.1361 104.978 91.6821 106.697 93.0571L107.299 93.2251L104.37 57.6271L111.774 57.5371C111.774 57.5371 112.205 57.2821 112.375 58.0571C112.548 58.8251 118.397 98.3741 118.397 98.3741C118.397 98.3741 118.31 98.8001 118.995 99.0591C119.686 99.3181 126.402 99.6601 129.492 96.9141L129.579 96.3151L120.289 53.3341C120.289 53.3341 120.204 49.2211 114.01 49.1341C107.815 49.0461 95.2563 49.1341 95.2563 49.1341L94.9143 40.9861C94.9143 40.9861 94.6523 40.6391 94.3083 40.6391C93.9703 40.6391 87.6863 40.5571 87.6863 40.5571C87.6863 40.5571 87.3443 40.4691 87.3443 40.9861C87.3443 41.4991 87.1733 44.2441 87.1733 44.2441Z" fill="#1E298B"/>
<path d="M172.002 108.054C172.002 108.054 162.956 93.5673 146.781 94.9393C130.615 96.3153 128.718 109.177 111.861 100.947C94.483 92.5383 89.837 93.2253 77.964 96.6583C69.534 99.0593 63.169 108.837 49.41 99.5733C39.604 93.9103 32.893 93.7403 28.418 93.9103C23.948 94.0823 20.673 95.5973 17.978 97.0843C12.381 100.161 8.955 104.702 8.955 104.702C8.955 104.702 13.854 137.007 42.635 156.896C72.328 177.42 107.317 176.407 134.833 159.686C159.196 144.871 168.847 122.111 171.978 108.162M58.013 128.566C70.911 128.93 76.92 126.03 85.709 121.023C92.932 116.901 97.923 122.905 103.082 125.308C122.527 133.545 139.561 125.308 139.561 125.308C139.561 125.308 123.302 149.983 91.903 149.843C56.314 149.689 41.322 124.622 41.322 124.622C47.856 127.984 58.013 128.566 58.013 128.566ZM33.585 110.038C33.585 110.038 34.442 109.864 35.649 110.038C36.848 110.211 40.981 112.959 40.981 112.959C45.449 116.386 60.248 122.049 73.323 116.386C93.109 104.38 99.13 111.579 104.979 115.187C122.872 123.417 134.57 117.408 140.243 113.64C145.922 109.864 146.959 110.724 146.959 110.724L147.473 111.072C146.959 113.297 145.061 116.559 145.061 116.559C123.902 130.285 106.355 122.389 100.163 117.929C93.97 113.472 85.878 114.325 82.095 117.408C57.322 133.365 35.987 115.701 35.987 115.701L33.585 110.038ZM149.822 104.912C147.758 105.425 143.34 105.579 139.213 107.809C131.643 113.297 125.458 113.986 118.053 113.64C110.318 113.283 105.84 108.662 100.163 106.264C94.483 103.86 88.295 104.38 84.16 105.407C80.031 106.437 73.495 110.892 67.988 112.608C62.485 114.325 52.675 114.157 44.766 109.008C36.848 103.86 31.687 104.319 31.687 104.319C31.343 103.975 30.654 99.2303 30.654 99.2303H33.41C39.949 99.2303 44.937 103.693 49.41 105.918C58.353 110.038 63.687 108.491 69.193 106.781C74.695 105.065 77.964 100.599 88.462 99.7473C98.954 98.8863 106.182 103.86 111.861 106.781C117.536 109.693 126.487 109.864 133.534 105.754C140.243 100.26 150.95 99.8853 150.95 99.8853M70.483 141.86C70.483 141.86 70.011 141.993 70.011 142.162C70.011 142.335 70.055 142.549 70.055 142.549V144.734C70.055 144.734 70.011 145.291 70.356 145.206C70.704 145.12 81.063 142.722 81.063 142.722C81.063 142.722 86.541 140.807 87.256 147.266C87.279 147.463 87.386 147.484 87.386 147.484H93.497C93.497 147.484 93.708 147.311 93.708 147.14C93.708 146.971 94.186 141.389 100.205 142.637C106.226 143.878 110.656 145.165 110.656 145.165V141.993L101.448 139.673C101.448 139.673 93.925 136.536 90.482 145.252C90.482 145.252 88.272 137.328 80.29 139.375C72.245 141.434 70.483 141.86 70.483 141.86ZM101.926 131.633C101.926 131.633 101.9 131.455 101.9 131.269C101.9 131.074 101.985 130.693 102.08 130.265C102.08 129.884 102.614 129.739 102.614 129.739H105.981C106.136 129.739 106.162 129.555 106.162 129.555V128.547C106.162 128.335 105.925 128.307 105.925 128.307C105.925 128.307 101.626 128.286 101.239 128.307C100.851 128.335 100.851 128.757 100.851 128.757C100.851 128.757 100.135 132.79 100.116 133.05C100.093 133.307 100.334 133.348 100.334 133.348H101.708C103.624 131.998 104.611 133.566 104.611 133.566C105.453 134.722 104.652 136.118 103.432 136.326C102.216 136.536 101.645 135.664 101.496 135.294C101.448 135.127 101.28 135.045 101.28 135.045H99.948C99.755 135.045 99.665 135.214 99.665 135.214C100.702 139.075 106.588 138.606 106.785 134.445C106.44 130.111 101.926 131.633 101.926 131.633ZM97.946 135.514C98.052 135.514 98.14 135.426 98.14 135.319V134.247C98.14 134.144 98.052 134.058 97.946 134.058H97.069L96.851 133.967L96.769 133.735V128.463C96.769 128.352 96.675 128.268 96.567 128.268H95.24C95.198 128.268 95.172 128.282 95.144 128.294C95.066 128.257 94.966 128.282 94.914 128.346L91.473 132.772C91.318 132.95 91.205 133.119 91.119 133.27C91.038 133.365 90.963 133.465 90.914 133.545C90.702 133.887 90.783 134.099 90.783 134.099L90.797 134.114C90.762 134.149 90.74 134.198 90.74 134.247V135.319C90.74 135.426 90.831 135.514 90.934 135.514H94.632H95.046V135.833V137.38C95.046 137.491 95.131 137.569 95.24 137.569H96.567C96.675 137.569 96.769 137.491 96.769 137.38V135.862L96.891 135.642L97.129 135.514H97.946ZM95.046 133.844L94.976 133.994L94.849 134.058L92.457 134.149L92.333 134.058L92.347 133.857C92.429 133.739 92.609 133.517 92.677 133.365L94.632 130.95L94.849 130.841L95.046 130.972V133.844ZM94.936 135.603L94.632 135.514L95.046 135.833L94.936 135.603ZM88.808 133.071C89.068 127.322 84.889 127.833 84.889 127.833C83.064 127.833 81.577 129.317 81.577 131.139C81.577 132.965 83.064 134.445 84.889 134.445C85.571 134.445 86.203 134.241 86.731 133.891C86.732 133.924 86.742 133.961 86.742 134.015C86.785 134.531 86.699 135.086 86.141 135.642C84.634 137.232 83.257 135.257 83.257 135.257H81.666C81.927 136.672 83.432 137.958 86.007 137.53C88.59 137.1 88.808 133.071 88.808 133.071ZM86.963 131.184C86.963 132.202 86.133 133.033 85.106 133.033C84.082 133.033 83.251 132.202 83.251 131.184C83.251 130.162 84.082 129.331 85.106 129.331C86.133 129.331 86.963 130.162 86.963 131.184ZM79.306 131.892L79.369 129.294L79.306 128.226H79.107H77.834H77.817C77.71 128.226 77.623 128.307 77.623 128.413V128.525C77.536 128.691 77.322 129.72 75.689 129.72C75.131 129.804 75.171 130.323 75.171 130.323C75.171 130.323 75.131 130.972 75.476 130.972H77.236C77.236 130.972 77.453 131.094 77.453 131.656V136.973H77.623V137.254C77.623 137.353 77.71 137.446 77.817 137.446H79.107C79.212 137.446 79.306 137.353 79.306 137.254V131.892Z" fill="#1E298B"/>
<path d="M150.95 99.8856C150.95 99.8856 149.909 104.891 149.817 104.913Z" fill="#1E298B"/>
<path fill-rule="evenodd" clip-rule="evenodd" d="M30.0767 119.234C30.7917 120.499 31.0347 121.887 32.0287 122.979C32.2877 123.269 32.6077 123.492 32.9727 123.635C33.1767 123.68 33.3197 122.934 32.9327 121.904C32.6077 121.034 32.0467 120.123 31.6277 119.164C31.1737 118.123 30.7777 117.31 30.2837 116.276C29.7017 115.054 29.3197 113.056 27.8617 112.6C27.6827 112.6 27.3177 112.524 27.3897 112.87C27.6707 115.046 28.7267 116.128 29.4747 117.849L30.0767 119.234Z" fill="white"/>
<path fill-rule="evenodd" clip-rule="evenodd" d="M31.1411 113.497C31.7151 113.25 32.1161 114.088 32.2781 114.433C32.5571 115.019 32.8861 115.585 33.1791 116.165C33.4811 116.766 33.7111 117.397 33.9431 118.024C34.8141 120.359 34.3061 120.211 34.3201 120.213C33.3691 119.978 32.7411 118.658 32.1651 117.591C31.6901 116.712 31.1431 115.821 30.9781 114.83C30.9241 114.531 30.7471 113.688 31.1411 113.497Z" fill="white"/>
<path fill-rule="evenodd" clip-rule="evenodd" d="M154.592 116.009C155.128 116.344 156.767 117.313 157.281 118.115C157.633 118.66 158.245 119.191 157.549 120.213C156.969 120.867 154.079 117.471 151.63 116.799C151.63 116.799 151.342 116.661 151.198 116.904L146.788 124.943C146.324 125.785 145.918 127.092 144.751 127.265C143.327 126.985 146.287 122.898 147.326 121.001C147.892 119.966 148.386 118.895 148.938 117.85C149.616 116.569 150.095 116.21 150.626 114.746C150.626 114.746 150.485 113.873 151.198 113.701C151.849 113.536 152.49 114.616 152.954 114.942C153.488 115.314 154.037 115.669 154.592 116.009Z" fill="white"/>
<path fill-rule="evenodd" clip-rule="evenodd" d="M27.8613 122.317C25.9823 123.331 23.6653 118.954 25.1693 117.59C27.3553 116.676 28.9733 121.597 27.8613 122.317ZM27.7973 124.431C27.8583 124.427 27.9143 124.421 27.9713 124.415C28.4923 124.347 29.1643 124.076 29.4973 123.671C29.8203 123.273 29.8643 122.741 29.8703 122.252C29.8813 121.272 29.7553 120.291 29.4573 119.357C29.3923 119.158 29.3103 118.946 29.2583 118.742C28.9393 117.494 27.3213 116.276 27.3213 116.276C26.6863 115.834 25.2883 115.165 24.0923 115.752C23.4633 116.062 23.0873 117.282 23.0183 118.115C22.9243 119.277 23.3753 120.378 23.9173 121.391C24.4513 122.393 25.2133 123.28 26.1403 123.964C26.5943 124.302 27.2213 124.466 27.7973 124.431Z" fill="white"/>
<path fill-rule="evenodd" clip-rule="evenodd" d="M163.737 118.641C161.009 122.111 158.741 126.624 156.79 130.983C156.176 132.357 155.869 133.988 154.322 134.661C153.371 134.949 154.339 131.133 155.012 130.152C153.55 129.037 149.204 128.064 151.021 126.011C151.021 126.011 151.698 125.143 152.659 125.904C152.659 125.904 153.513 126.881 153.798 127.089C154.084 127.294 154.906 127.706 156.206 128.097C156.685 128.239 157.589 126.223 157.432 125.904C156.899 124.832 153.415 124.295 152.705 122.843C152.705 122.843 152.408 121.179 154.154 121.249C154.154 121.249 155.012 121.424 155.722 122.222C155.722 122.222 157.539 123.752 158.359 123.635C158.359 123.635 158.609 123.471 158.856 122.953C158.856 122.953 162.778 116.142 162.717 115.685C162.717 115.685 162.797 115.404 162.938 115.578L163.772 118.431L163.737 118.641Z" fill="white"/>
<path fill-rule="evenodd" clip-rule="evenodd" d="M19.3843 120.972C19.3483 121.466 19.8743 122.077 20.1093 122.48C20.4583 123.085 20.7393 123.714 20.9873 124.367C21.2723 125.105 21.6143 125.8 21.9413 126.52C22.7503 128.283 23.8003 130.058 24.3633 132.036C22.1773 132.162 22.2273 130.64 21.4033 128.624C20.3913 126.14 19.4673 123.976 18.1743 121.793C17.8833 121.301 16.4903 121.25 16.8283 119.954C18.1643 118.86 22.4003 116.716 22.2133 119.164C22.1613 119.825 21.6443 120.074 21.0543 120.23C20.7533 120.312 20.4663 120.409 20.1553 120.471C19.8483 120.531 19.4273 120.594 19.3843 120.972Z" fill="white"/>
<path fill-rule="evenodd" clip-rule="evenodd" d="M29.7427 126.52C28.6797 126.985 26.8487 127.197 26.2627 128.312C25.7257 129.333 27.2347 129.424 27.8667 129.275C28.7457 129.073 29.5087 128.542 30.3237 128.188C30.8077 127.979 31.3677 127.834 31.8977 127.834C32.4917 128.39 32.2977 129.716 33.2417 129.933C34.7987 129.641 32.8277 127.834 33.2767 126.927C33.3107 126.862 34.2917 126.492 34.4227 126.448C34.7987 126.312 35.1677 126.161 35.5357 126.01C35.8947 125.858 36.2547 125.693 36.6237 125.549C36.9857 125.403 38.1577 125.17 38.0267 124.564C38.0267 124.564 38.0977 123.408 37.2677 123.519C37.2677 123.519 36.5087 123.571 35.1777 124.142C35.1777 124.142 29.7457 126.52 29.7427 126.52Z" fill="white"/>
<path fill-rule="evenodd" clip-rule="evenodd" d="M41.0454 138.34C40.2064 137.583 39.5344 136.744 38.6244 135.973C37.8574 135.322 36.8764 134.364 35.6644 134.397C35.6644 134.397 34.8944 134.576 35.3434 135.294L41.2334 140.323C41.2334 140.323 41.3244 140.344 41.3144 140.437C41.2954 140.621 40.7954 140.939 40.6694 141.06C40.0314 141.644 39.5784 142.185 39.7004 143.069C39.8034 143.559 40.5064 143.59 40.5064 143.59C40.5064 143.59 41.5644 143.367 42.8954 141.876L45.3494 144.639C46.6784 146.197 47.4554 148.045 49.3854 146.219C48.5574 145.535 47.7624 145.128 46.9654 144.116C48.0334 144.02 48.9344 143.347 49.6554 142.804C50.3214 142.296 51.1854 141.519 51.5364 140.699C51.7294 139.677 50.5164 139.583 50.5164 139.583L47.5034 136.763C46.4714 135.683 43.7604 132.78 42.3914 132.299C42.3914 132.299 41.5174 131.978 41.3044 132.42C41.3044 132.42 40.9254 132.628 41.3044 133.138C41.6844 133.649 47.2354 138.604 47.2354 138.604C47.8774 139.245 48.9424 139.673 49.1174 140.699C47.9894 141.527 47.4064 142.276 45.7434 142.897C45.7434 142.897 43.1314 140.233 41.2334 138.54L41.0454 138.34Z" fill="white"/>
<path fill-rule="evenodd" clip-rule="evenodd" d="M140.867 135.447C141.796 135.224 142.484 133.394 143.559 134.136C144.075 135.087 142.389 135.689 141.865 136.568C142.389 137.985 144.693 138.588 143.827 139.913C142.506 141.021 140.899 138.798 139.515 137.45C138.296 136.261 135.944 134.523 136.024 133.61C136.107 132.703 136.584 132.277 137.592 132.349C138.65 132.429 140.061 135.087 140.867 135.447Z" fill="white"/>
<path fill-rule="evenodd" clip-rule="evenodd" d="M41.5835 147.799C39.6505 144.866 36.5945 143.035 34.3195 140.438C34.0065 140.051 34.0065 139.775 34.3195 139.388C34.3195 139.388 34.6555 138.936 35.4625 139.75L41.8525 145.954C42.5555 146.616 43.7435 147.001 44.0045 148.061L43.8675 148.367C42.6125 150.199 40.6145 151.434 40.6145 151.434C40.6145 151.434 39.3825 151.819 39.4515 150.85C39.4515 150.85 39.3335 150.364 39.7625 149.831L41.5835 147.799Z" fill="white"/>
<path fill-rule="evenodd" clip-rule="evenodd" d="M145.173 143.07C146.494 143.849 147.706 146.355 149.208 145.429C149.748 145.03 149.451 144.409 149.451 144.409C148.493 143.191 145.982 140.437 145.982 140.437C145.982 140.437 145.357 139.781 144.893 140.164C144.893 140.164 144.393 140.371 144.038 141.553L139.256 145.954C138.632 146.549 137.715 147.344 137.1 148.06C136.403 148.862 135.239 149.584 136.023 150.948C136.023 150.948 136.273 151.119 136.631 150.804L144.678 143.296C144.678 143.296 145.024 142.979 145.173 143.07Z" fill="white"/>
<path fill-rule="evenodd" clip-rule="evenodd" d="M120.548 146.581C122.088 151.376 123.974 155.875 125.267 160.402C125.475 161.122 125.909 161.756 125.53 162.504C124.52 163.353 123.879 161.741 123.632 161.254C122.507 159.059 121.857 156.223 120.956 154.098C120.263 154.26 119.656 154.611 118.873 154.768C119.571 157.915 121.993 161.392 120.956 162.768C120.154 163.357 119.623 162.138 119.623 162.138L115.306 150.683C115.08 149.816 114.289 149.007 115.306 148.317C116.899 147.639 117.012 149.446 117.459 150.683C117.894 151.898 118.021 152.777 118.466 153.585C119.069 153.297 119.884 153.139 120.419 152.785C120.013 150.59 117.773 147.555 119.076 146.22C119.076 146.22 120.121 145.621 120.548 146.581Z" fill="white"/>
<path fill-rule="evenodd" clip-rule="evenodd" d="M64.7241 150.158C64.8161 149.303 63.6301 148.994 62.8381 148.583C61.5281 147.899 59.3751 146.958 58.8011 147.799C58.8011 147.799 58.6141 148.325 59.6381 148.698C59.6381 148.698 63.4111 150.156 63.9811 150.342C63.9811 150.342 64.6791 150.557 64.7241 150.158Z" fill="white"/>
<path fill-rule="evenodd" clip-rule="evenodd" d="M58.5352 158.3C55.9942 157.848 57.0692 152.631 60.4182 154.363C62.0832 155.418 60.3272 158.619 58.5352 158.3ZM62.9352 155L62.8412 154.721C62.6502 154.026 61.2272 153.03 61.2272 153.03C61.2502 152.172 60.4902 152.079 60.4902 152.079C59.9202 151.895 59.5892 152.563 59.5892 152.563C58.9442 152.31 57.7252 152.524 57.7252 152.524C57.2192 152.666 56.5242 152.944 56.1152 153.314C54.7952 154.476 54.6132 156.924 55.5742 158.3C55.9862 158.884 58.0932 160.124 59.8792 159.875C62.1592 159.565 63.6022 157.502 62.9352 155Z" fill="white"/>
<path fill-rule="evenodd" clip-rule="evenodd" d="M65.7988 152.523C65.7988 152.523 66.3648 152.952 65.7988 153.313C63.7988 153.334 62.7298 152.458 61.2238 151.999C61.2238 151.999 57.4338 150.472 57.1668 150.228C57.1668 150.228 55.8608 149.626 56.2168 149.039C56.2168 149.039 56.3578 148.626 56.8348 148.808C56.8348 148.808 60.3688 149.992 64.4548 151.756C64.4548 151.756 65.2428 152.108 65.7988 152.523Z" fill="white"/>
<path fill-rule="evenodd" clip-rule="evenodd" d="M67.6816 155.148C67.9286 155.784 68.7656 155.843 69.5656 155.94L70.7706 152.995C70.7706 152.995 71.6066 150.208 72.5236 150.158C74.6516 150.58 73.2616 152.653 72.7926 153.837C71.5396 157.014 70.4626 159.698 69.2986 162.767C68.7346 164.242 68.2436 167.079 66.6096 166.445C65.2876 165.755 68.4336 160.538 69.0286 157.513C68.6516 157.092 67.8996 156.899 67.2106 156.786C66.8056 156.717 66.1866 158.974 66.1046 159.246C65.7546 160.41 65.4596 161.677 64.9266 162.777C64.5056 163.643 63.8966 164.398 62.9356 163.67C62.4366 163.318 63.6716 160.365 64.2546 158.731C64.8376 157.087 65.5116 155.352 66.1086 153.515L66.3356 152.785C66.9136 151.258 67.7426 148.163 69.5656 150.158C69.5656 150.158 69.6686 150.316 69.4896 150.769C69.4896 150.769 67.9056 154.901 67.6816 155.148Z" fill="white"/>
<path fill-rule="evenodd" clip-rule="evenodd" d="M117.729 158.3C115.064 158.993 113.496 159.83 110.467 160.667C110.353 160.686 110.31 160.608 110.31 160.608C110.292 160.503 108.135 154.33 108.135 154.33C108.082 154.145 108.311 154.098 108.311 154.098C108.991 153.816 109.982 153.585 110.733 153.314C112.161 152.785 112.696 152.678 112.618 151.999C112.131 151.146 110.903 151.627 109.657 151.999C108.338 152.391 106.028 153.15 105.354 154.098C105.354 154.098 105.091 154.925 106.142 155.113C106.142 155.113 107.459 158.203 107.502 158.3L108.722 161.392C108.722 161.392 107.815 162.704 108.849 163.027C109.866 163.238 110.462 162.327 111.271 161.98C113.18 161.165 115.003 160.99 117.073 160.228C117.073 160.228 117.198 160.157 117.271 159.91L117.735 158.489C117.735 158.489 117.846 158.235 117.729 158.3Z" fill="white"/>
<path fill-rule="evenodd" clip-rule="evenodd" d="M97.2817 152.935V155.619C98.3887 155.975 100.289 155.393 100.239 156.466C100.148 157.6 98.0097 156.875 97.2937 157.087C97.2937 157.699 97.2817 158.563 97.2817 159.175C98.4097 159.336 100.857 158.824 100.239 160.404C99.7197 160.998 98.2677 160.579 97.2817 160.666C97.1297 161.166 97.4687 163.47 96.2057 163.553C94.6847 163.507 95.1297 160.601 95.1297 158.826V153.05C95.1297 153.05 95.1797 152.056 96.1337 152.079C96.1337 152.079 97.3687 152.034 97.2817 152.935Z" fill="white"/>
<path fill-rule="evenodd" clip-rule="evenodd" d="M84.3647 159.093C83.1667 157.758 84.0447 155.045 85.9767 154.619C87.7647 154.233 89.7517 155.347 90.0157 156.466C90.7397 159.515 86.7767 161.214 84.3647 159.093ZM81.9417 155.674C80.9077 158.848 83.2087 161.058 85.1707 161.45C89.3857 162.298 92.5417 159.889 92.1677 156.726C91.9647 154.988 91.0527 153.957 88.7947 153.402L88.0587 153.259C88.0357 152.539 87.2027 152.447 87.2027 152.447C86.5147 152.47 86.3737 153.237 86.3737 153.237C86.3737 153.237 82.9297 152.823 82.0277 155.417L81.9417 155.674Z" fill="white"/>
<path fill-rule="evenodd" clip-rule="evenodd" d="M85.439 167.233C85.359 166.305 86.303 165.941 87.057 165.657C88.402 165.153 95.701 164.693 95.395 167.233C95.153 169.254 85.648 169.6 85.439 167.233ZM91.787 163.818C91.621 163.507 91.286 162.747 90.284 163.026C89.896 163.176 89.626 163.44 89.475 163.818C86.919 163.864 83.498 164.75 83.288 166.709C82.768 171.524 97.223 171.147 97.549 167.233C97.787 164.355 94.724 164.158 91.787 163.818Z" fill="white"/>
<path fill-rule="evenodd" clip-rule="evenodd" d="M132.944 140.631C133.96 139.575 135.235 138.921 136.001 137.658C136.198 137.335 136.317 136.967 136.338 136.589C136.33 136.381 135.552 136.48 134.667 137.152C133.921 137.724 133.206 138.525 132.402 139.211C131.526 139.949 130.852 140.563 129.995 141.351C128.99 142.264 127.155 143.229 127.155 144.726C127.213 144.895 127.248 145.255 127.568 145.086C129.597 144.152 130.332 142.84 131.782 141.61L132.944 140.631Z" fill="white"/>
<path fill-rule="evenodd" clip-rule="evenodd" d="M127.021 141.402C126.605 140.947 127.301 140.313 127.586 140.058C128.071 139.623 128.524 139.141 128.997 138.688C129.492 138.221 130.032 137.818 130.576 137.405C132.589 135.882 132.599 136.401 132.597 136.388C132.664 137.341 131.563 138.329 130.7 139.188C129.988 139.904 129.292 140.683 128.379 141.151C128.101 141.287 127.332 141.713 127.021 141.402Z" fill="white"/>
<path fill-rule="evenodd" clip-rule="evenodd" d="M136.631 141.743C138.199 143.171 134.642 146.67 132.848 145.69C131.287 143.944 135.587 140.925 136.631 141.743ZM138.712 141.148C138.693 141.091 138.672 141.038 138.646 140.994C138.415 140.527 137.945 139.982 137.444 139.804C136.959 139.629 136.425 139.75 135.947 139.891C134.991 140.181 134.08 140.607 133.256 141.167C133.084 141.287 132.9 141.431 132.718 141.54C131.597 142.221 130.904 144.097 130.904 144.097C130.673 144.827 130.449 146.33 131.387 147.254C131.883 147.745 133.186 147.722 134.021 147.533C135.186 147.26 136.121 146.503 136.939 145.69C137.751 144.887 138.385 143.903 138.767 142.829C138.955 142.301 138.922 141.674 138.712 141.148Z" fill="white"/>
<path fill-rule="evenodd" clip-rule="evenodd" d="M132.477 141.072C132.901 140.939 133.355 141.167 133.489 141.583C133.63 141.994 133.394 142.44 132.973 142.57C132.549 142.708 132.096 142.475 131.958 142.066C131.819 141.652 132.054 141.209 132.477 141.072Z" fill="white"/>
<path d="M29.2153 89.8152L29.1883 91.5532L7.1753 91.1972L7.2033 89.4612L16.1883 89.6072L7.2563 86.2832L7.2923 84.0452L16.2773 87.5772L29.3073 84.1932L29.2703 86.4542L19.5693 88.8422L21.7763 89.6982L29.2153 89.8152Z" fill="#1E298B"/>
<path d="M24.7656 80.6556C25.8216 80.4106 26.3916 79.9946 26.4756 79.4106C26.5596 78.8366 26.1296 78.2806 25.1856 77.7496C23.9616 77.0516 21.9956 76.5076 19.2916 76.1206C16.5676 75.7306 14.5106 75.6986 13.1206 76.0216C12.0636 76.2666 11.4946 76.6786 11.4116 77.2546C11.3276 77.8386 11.7596 78.3956 12.7026 78.9286C13.9456 79.6226 15.9286 80.1636 18.6536 80.5546C21.3586 80.9406 23.3966 80.9756 24.7656 80.6556ZM9.0686 79.3446C7.9076 78.4906 7.3896 77.6076 7.5216 76.6986C7.6506 75.7956 8.3936 75.0996 9.7506 74.5996C11.8476 73.8346 15.1096 73.7696 19.5376 74.4026C23.9296 75.0316 27.0226 76.0076 28.8196 77.3306C29.9986 78.1986 30.5246 79.0776 30.3956 79.9726C30.2656 80.8736 29.5106 81.5746 28.1356 82.0766C26.0396 82.8356 22.7966 82.9016 18.4056 82.2726C13.9756 81.6386 10.8646 80.6636 9.0686 79.3446Z" fill="#1E298B"/>
<path d="M19.7764 68.53C19.8994 68.09 19.7624 67.705 19.3704 67.375C18.9604 67.035 18.2324 66.719 17.1874 66.428C16.4284 66.216 15.7974 66.117 15.2884 66.127C14.6024 66.148 14.1994 66.369 14.0814 66.799L13.4914 68.902L19.2264 70.499L19.7764 68.53ZM9.3774 69.538L10.5204 65.457C10.7764 64.538 11.7334 64.072 13.3894 64.055C14.5574 64.048 15.8364 64.238 17.2254 64.624C18.4154 64.954 19.4294 65.355 20.2714 65.822C21.1454 66.308 21.7004 66.792 21.9354 67.273C22.4544 67.016 23.0194 66.905 23.6314 66.94C24.4584 66.974 25.7914 67.245 27.6304 67.756C29.2884 68.218 30.3304 68.493 30.7504 68.581C31.3224 68.695 31.7144 68.685 31.9254 68.556L32.4654 68.705L31.9424 70.578C31.3834 70.49 30.8044 70.375 30.2034 70.231C29.5084 70.068 28.6484 69.843 27.6224 69.557C26.0174 69.111 24.9624 68.886 24.4584 68.882C23.7994 68.872 23.3904 69.155 23.2304 69.73L22.7404 71.476L31.0454 73.787L30.5834 75.437L9.3774 69.538Z" fill="#1E298B"/>
<path d="M18.335 55.5042L16.647 59.5832L20.956 61.3562L22.501 57.6202L26.057 59.0842L24.512 62.8182L29.808 64.9992L31.565 60.7472L35.148 62.2212L32.733 68.0552L12.384 59.6832L14.726 54.0192L18.335 55.5042Z" fill="#1E298B"/>
<path d="M29.2021 55.7297L30.2651 53.8337L22.1511 50.5187L22.1361 50.5467L29.2021 55.7297ZM35.9551 60.7247L35.0561 62.3257L17.3261 48.9667L18.3101 47.2117L38.9821 55.3297L38.0621 56.9697L33.8201 55.2407L32.2741 57.9947L35.9551 60.7247Z" fill="#1E298B"/>
<path d="M45.8228 46.6454L44.7828 47.9004L31.5978 37.0414L43.7858 49.1044L42.7128 50.4004L28.5518 40.7214L28.5298 40.7454L41.7148 51.6044L40.6758 52.8584L23.7018 38.8804L25.3348 36.9094L39.1418 46.3124L39.1488 46.3054L27.2458 34.6034L28.8488 32.6654L45.8228 46.6454Z" fill="#1E298B"/>
<path d="M42.3501 38.5023L43.9441 37.0233L37.2411 31.3853L37.2161 31.4083L42.3501 38.5023ZM47.2401 45.3233L45.8931 46.5713L33.1271 28.4333L34.6031 27.0633L51.7801 41.1133L50.4011 42.3943L46.8961 39.4493L44.5781 41.5983L47.2401 45.3233Z" fill="#1E298B"/>
<path d="M47.9102 28.8403C48.2842 28.5723 48.4192 28.1863 48.3182 27.6843C48.2112 27.1623 47.8422 26.4633 47.2052 25.5843C46.7472 24.9483 46.3142 24.4763 45.9122 24.1683C45.3632 23.7573 44.9082 23.6803 44.5472 23.9403L42.7702 25.2153L46.2502 30.0333L47.9102 28.8403ZM39.1602 23.1513L42.6072 20.6753C43.3822 20.1173 44.4252 20.3493 45.7262 21.3673C46.6432 22.0903 47.5232 23.0333 48.3642 24.2003C49.0872 25.1993 49.6302 26.1453 49.9932 27.0343C50.3722 27.9573 50.5042 28.6793 50.3862 29.2033C50.9522 29.3263 51.4632 29.5913 51.9202 29.9993C52.5432 30.5383 53.4142 31.5813 54.5302 33.1283C55.5362 34.5213 56.1772 35.3823 56.4542 35.7143C56.8282 36.1593 57.1372 36.3963 57.3842 36.4263L57.7122 36.8803L56.1292 38.0173C55.7492 37.6023 55.3692 37.1483 54.9912 36.6623C54.5512 36.1033 54.0202 35.3923 53.3952 34.5293C52.4232 33.1813 51.7402 32.3473 51.3492 32.0303C50.8402 31.6133 50.3432 31.5783 49.8572 31.9273L48.3832 32.9883L53.4202 39.9633L52.0252 40.9653L39.1602 23.1513Z" fill="#1E298B"/>
<path d="M60.1611 35.526L58.6521 36.415L47.4501 17.518L48.9571 16.628L60.1611 35.526Z" fill="#1E298B"/>
<path d="M64.687 33.1877L63.11 33.9497L55.221 17.6907L52.896 18.8127L51.195 15.3097L57.426 12.3037L59.125 15.8067L56.8 16.9297L64.687 33.1877Z" fill="#1E298B"/>
<path d="M69.3838 31.2387L67.7498 31.8647L59.8478 11.3737L61.4828 10.7477L69.3838 31.2387Z" fill="#1E298B"/>
<path d="M78.1162 28.6236L76.5432 29.0556L71.9992 12.6146L75.0342 29.4706L73.4082 29.9166L67.3852 13.8826L67.3552 13.8916L71.8982 30.3316L70.3252 30.7646L64.4752 9.59965L66.9452 8.92065L72.8382 24.5266L72.8482 24.5216L69.8392 8.12465L72.2662 7.45865L78.1162 28.6236Z" fill="#1E298B"/>
<path d="M82.3506 9.79104L77.9726 10.417L78.6366 15.018L82.6476 14.443L83.1966 18.241L79.1836 18.816L80.0006 24.469L84.5636 23.815L85.1156 27.64L78.8516 28.54L75.7136 6.81004L81.7946 5.93704L82.3506 9.79104Z" fill="#1E298B"/>
<path d="M92.001 8.82838C91.891 8.50838 91.73 8.34838 91.517 8.34438C91.319 8.34038 91.16 8.49738 91.037 8.81038C90.897 9.16238 90.824 9.64638 90.813 10.2624C90.805 10.6934 90.843 11.1414 90.929 11.6094C91.015 12.0794 91.158 12.6034 91.358 13.1854C91.609 12.7414 91.795 12.3264 91.92 11.9354C92.084 11.4354 92.17 10.8944 92.181 10.3174C92.193 9.66438 92.132 9.16738 92.001 8.82838ZM90.769 17.7394C90.361 18.4594 90.094 19.0054 89.971 19.3764C89.807 19.8974 89.719 20.5674 89.702 21.3884C89.684 22.0234 89.752 22.6214 89.909 23.1844C90.12 23.9724 90.445 24.3714 90.884 24.3794C91.13 24.3844 91.383 24.2114 91.638 23.8624C91.84 23.5854 92.029 23.2344 92.206 22.8084L90.769 17.7394ZM95.478 27.5764L93.518 27.5384L92.994 25.6244C92.668 26.3644 92.35 26.9184 92.044 27.2854C91.617 27.7834 91.12 28.0244 90.551 28.0154C89.777 27.9994 89.157 27.3444 88.693 26.0454C88.249 24.8434 88.043 23.3834 88.076 21.6654C88.1 20.4164 88.211 19.3524 88.409 18.4794C88.68 17.3264 89.147 16.2634 89.808 15.2844L89.979 15.0084C89.777 14.3704 89.618 13.7034 89.5 13.0124C89.358 12.0944 89.295 11.1784 89.312 10.2614C89.342 8.69438 89.574 7.42938 90.008 6.46738C90.436 5.54138 90.978 5.08638 91.634 5.09738C92.152 5.10638 92.597 5.52538 92.969 6.35338C93.403 7.33438 93.603 8.67438 93.569 10.3714C93.544 11.7334 93.339 12.9534 92.954 14.0294C92.746 14.6044 92.468 15.1664 92.121 15.7204L92.11 15.7484L93.22 19.6064C93.332 19.0674 93.426 18.5564 93.501 18.0714C93.586 17.4384 93.649 16.7584 93.693 16.0304L95.138 16.0574C95.061 17.4384 94.936 18.6494 94.762 19.6914C94.606 20.6214 94.372 21.6094 94.061 22.6484L95.478 27.5764Z" fill="#1E298B"/>
<path d="M100.648 23.311C100.833 24.366 101.195 24.94 101.732 25.033C102.263 25.126 102.795 24.706 103.327 23.775C104.023 22.569 104.605 20.624 105.072 17.938C105.543 15.234 105.658 13.19 105.412 11.801C105.227 10.746 104.87 10.173 104.337 10.081C103.801 9.98703 103.265 10.407 102.734 11.339C102.042 12.563 101.46 14.527 100.989 17.231C100.521 19.917 100.407 21.942 100.648 23.311ZM102.493 7.71403C103.336 6.57303 104.175 6.07203 105.011 6.21803C105.841 6.36303 106.459 7.11403 106.864 8.47203C107.491 10.57 107.42 13.817 106.655 18.212C105.896 22.572 104.866 25.634 103.567 27.398C102.716 28.557 101.878 29.066 101.054 28.924C100.223 28.779 99.6064 28.019 99.1954 26.64C98.5754 24.544 98.6474 21.315 99.4054 16.956C100.17 12.561 101.2 9.48003 102.493 7.71403Z" fill="#1E298B"/>
<path d="M113.346 16.2584C113.542 15.2084 113.636 14.4104 113.624 13.8634C113.606 12.8864 113.322 12.3204 112.778 12.1644C112.293 12.0254 111.754 12.3774 111.161 13.2154C110.371 14.3494 109.597 16.2364 108.838 18.8724C108.252 20.9184 107.915 22.6204 107.834 23.9744C107.74 25.5204 108.006 26.3834 108.637 26.5654C109.062 26.6854 109.511 26.4454 109.979 25.8424C110.453 25.2404 110.926 24.3064 111.395 23.0424L112.957 23.4894C112.092 25.8454 111.205 27.6204 110.301 28.8194C109.313 30.1284 108.376 30.6554 107.488 30.4014C106.465 30.1084 105.923 28.9334 105.863 26.8774C105.795 24.7224 106.271 21.8764 107.288 18.3444C108.296 14.8434 109.41 12.2014 110.631 10.4144C111.785 8.72543 112.859 8.02143 113.857 8.30643C114.862 8.59443 115.416 9.67543 115.521 11.5504C115.598 13.0884 115.394 14.8074 114.91 16.7064L113.346 16.2584Z" fill="#1E298B"/>
<path d="M123.294 16.3863L119.513 14.8483L117.753 19.1533L121.216 20.5613L119.764 24.1133L116.3 22.7063L114.137 27.9943L118.079 29.5973L116.616 33.1763L111.205 30.9753L119.515 10.6463L124.768 12.7823L123.294 16.3863Z" fill="#1E298B"/>
<path d="M122.721 26.9893L124.492 27.9413L127.761 19.8393L127.734 19.8243L122.721 26.9893ZM117.89 33.8413L116.397 33.0363L129.309 15.0393L130.948 15.9213L122.928 36.5483L121.395 35.7273L123.1 31.4893L120.53 30.1063L117.89 33.8413Z" fill="#1E298B"/>
<path d="M139.453 21.3061L140.683 22.1581L128.112 40.1821L126.803 39.2721L133.175 24.6611L133.151 24.6431L124.203 37.4711L122.967 36.6131L135.536 18.5911L136.94 19.5631L130.676 33.8761L130.684 33.8821L139.453 21.3061Z" fill="#1E298B"/>
<path d="M140.567 40.9639C138.627 42.9889 136.967 44.3109 135.584 44.9279C134.275 45.5169 133.262 45.4659 132.54 44.7799C132.213 44.4679 132.038 44.0439 132.015 43.5049C131.959 42.8329 132.157 42.0419 132.609 41.1299C132.925 40.4999 133.355 39.8259 133.903 39.1079C134.424 38.4179 135.067 37.6729 135.829 36.8779L145.874 26.3859L147.073 27.5289L137.261 37.7769C136.253 38.8309 135.588 39.7199 135.265 40.4439C134.949 41.1239 134.946 41.6109 135.252 41.9029C135.642 42.2749 136.181 42.2819 136.864 41.9279C137.503 41.6079 138.304 40.9509 139.26 39.9519L149.207 29.5619L150.4 30.6979L140.567 40.9639Z" fill="#1E298B"/>
<path d="M155.624 36.6586L156.584 37.8046L139.682 51.8726L138.66 50.6506L148.681 38.2366L148.659 38.2146L136.633 48.2276L135.668 47.0746L152.567 33.0056L153.662 34.3146L143.827 46.4666L143.835 46.4736L155.624 36.6586Z" fill="#1E298B"/>
<path d="M141.172 54.0615L140.238 52.7435L158.217 40.0745L159.15 41.3915L141.172 54.0615Z" fill="#1E298B"/>
<path d="M162.945 47.3651L163.805 48.7921L143.148 58.1641L142.362 56.8581L160.372 43.0891L161.26 44.5671L147.372 54.7871L147.376 54.7961L162.945 47.3651Z" fill="#1E298B"/>
<path d="M163.752 57.6228L162.013 53.9358L157.795 55.9168L159.389 59.2918L155.909 60.9248L154.314 57.5508L149.132 59.9818L150.942 63.8218L147.44 65.4668L144.951 60.1958L164.869 50.8478L167.284 55.9648L163.752 57.6228Z" fill="#1E298B"/>
<path d="M160.284 65.0278C160.423 65.4268 160.746 65.6428 161.252 65.6758C161.777 65.7068 162.553 65.5478 163.58 65.1938C164.324 64.9358 164.903 64.6668 165.32 64.3798C165.877 63.9898 166.088 63.5998 165.955 63.2128L165.295 61.3068L159.669 63.2448L160.284 65.0278ZM168.36 58.5768L169.64 62.2748C169.928 63.1078 169.388 63.9828 168.025 64.9028C167.058 65.5458 165.895 66.1028 164.532 66.5728C163.365 66.9738 162.305 67.2298 161.352 67.3368C160.36 67.4488 159.637 67.3908 159.18 67.1558C158.89 67.6328 158.481 68.0258 157.955 68.3348C157.251 68.7618 155.996 69.2868 154.192 69.9088C152.564 70.4688 151.55 70.8328 151.153 70.9978C150.617 71.2248 150.298 71.4458 150.193 71.6588L149.663 71.8428L149.075 70.1458C149.586 69.9058 150.131 69.6768 150.708 69.4548C151.372 69.1968 152.208 68.8958 153.217 68.5488C154.792 68.0068 155.789 67.5998 156.21 67.3268C156.76 66.9738 156.945 66.5348 156.765 66.0148L156.217 64.4338L148.069 67.2398L147.551 65.7438L168.36 58.5768Z" fill="#1E298B"/>
<path d="M156.656 72.0756C155.798 72.2746 155.116 72.5246 154.61 72.8246C153.829 73.2826 153.51 73.8186 153.648 74.4356C153.748 74.8736 154.002 75.1856 154.406 75.3706C154.94 75.6096 155.708 75.6166 156.714 75.3906C157.48 75.2176 158.045 74.9576 158.406 74.6066C158.658 74.3586 158.868 73.9716 159.035 73.4426L159.43 72.5076C159.613 72.0396 159.763 71.6916 159.885 71.4646C160.108 71.0916 160.389 70.7626 160.728 70.4796C161.148 70.1316 161.691 69.8196 162.359 69.5456C163.115 69.2376 164.05 68.9606 165.163 68.7096C166.806 68.3336 168.243 68.1946 169.473 68.2896C171.192 68.4266 172.174 69.0336 172.417 70.1086C172.646 71.1246 171.988 72.0806 170.445 72.9786C169.29 73.6526 167.858 74.1856 166.145 74.5856L165.809 73.1006C166.622 72.8766 167.249 72.6396 167.693 72.3886C168.455 71.9416 168.77 71.4226 168.637 70.8326C168.558 70.4866 168.309 70.2356 167.891 70.0806C167.369 69.8946 166.67 69.9016 165.794 70.0966C165.1 70.2526 164.591 70.4606 164.264 70.7186C164.069 70.8736 163.908 71.0886 163.777 71.3666L163.754 71.3916L162.854 73.5256C162.592 74.2246 162.145 74.8006 161.517 75.2526C160.659 75.8716 159.335 76.3826 157.545 76.7836C154.825 77.3946 152.778 77.4206 151.405 76.8616C150.559 76.5196 150.065 76.0296 149.919 75.3866C149.647 74.1726 150.316 73.0996 151.928 72.1656C153.063 71.5036 154.527 70.9736 156.317 70.5706L156.656 72.0756Z" fill="#1E298B"/>
<path d="M151.399 80.6431L151.168 79.0461L172.955 75.9091L173.187 77.5051L151.399 80.6431Z" fill="#1E298B"/>
<path d="M151.822 85.1666L151.711 83.5556L169.778 82.3076L169.613 79.9356L173.506 79.6656L173.948 86.0206L170.055 86.2896L169.889 83.9176L151.822 85.1666Z" fill="#1E298B"/>
<path d="M151.851 91.5906L151.907 89.9796L160.211 90.2506L173.997 87.9696L173.935 89.8666L164.254 91.2116L173.832 93.0376L173.771 94.8506L160.075 91.8616L151.851 91.5906Z" fill="#1E298B"/>
<path d="M205.796 107.386V123.412H201.838L198.532 114.359V123.412H194.778V107.386H198.552L202.042 116.75V107.386H205.796Z" fill="#1E298B"/>
<path d="M214.846 117.681C214.792 117.073 214.703 116.325 214.581 115.436C214.499 114.888 214.363 113.946 214.173 112.607L213.805 110.087C213.438 111.986 213.159 113.562 212.969 114.815C212.778 115.971 212.649 116.927 212.581 117.681H214.846ZM216.907 107.368L219.907 123.412H215.601L215.193 120.365H212.316L211.806 123.412H207.582L210.255 107.368H216.907Z" fill="#1E298B"/>
<path d="M231.017 107.367V110.452H228.222V123.412H223.671V110.452H220.876V107.367H231.017Z" fill="#1E298B"/>
<path d="M237.332 123.412H232.823V107.367H237.332V123.412Z" fill="#1E298B"/>
<path d="M246.707 111.456C246.707 110.689 246.632 110.19 246.482 109.96C246.332 109.728 246.026 109.612 245.564 109.612C245.02 109.612 244.659 109.789 244.483 110.143C244.374 110.386 244.319 110.824 244.319 111.456V118.995C244.319 119.688 244.381 120.187 244.503 120.491C244.68 120.942 245.034 121.167 245.564 121.167C246.095 121.167 246.435 120.966 246.584 120.564C246.679 120.321 246.72 119.877 246.707 119.232V118.886V111.456ZM251.237 116.75C251.237 117.869 251.182 118.769 251.073 119.451C250.951 120.352 250.72 121.088 250.38 121.66C249.972 122.329 249.4 122.834 248.665 123.175C247.863 123.552 246.829 123.74 245.564 123.74C244.258 123.74 243.197 123.552 242.381 123.175C241.633 122.847 241.061 122.348 240.667 121.678C240.313 121.094 240.068 120.352 239.933 119.451C239.851 118.782 239.81 117.882 239.81 116.75V113.993C239.81 112.85 239.851 111.949 239.933 111.292C240.068 110.392 240.313 109.655 240.667 109.083C241.061 108.427 241.633 107.928 242.381 107.587C243.197 107.234 244.258 107.058 245.564 107.058C246.829 107.058 247.863 107.234 248.665 107.587C249.4 107.928 249.972 108.427 250.38 109.083C250.72 109.655 250.951 110.392 251.073 111.292C251.182 111.962 251.237 112.862 251.237 113.993V116.75Z" fill="#1E298B"/>
<path d="M264.571 107.386V123.412H260.613L257.307 114.359V123.412H253.553V107.386H257.327L260.817 116.75V107.386H264.571Z" fill="#1E298B"/>
<path d="M273.621 117.681C273.567 117.073 273.478 116.325 273.356 115.436C273.274 114.888 273.138 113.946 272.948 112.607L272.58 110.087C272.213 111.986 271.934 113.562 271.744 114.815C271.553 115.971 271.424 116.927 271.356 117.681H273.621ZM275.682 107.368L278.682 123.412H274.376L273.968 120.365H271.091L270.581 123.412H266.357L269.03 107.368H275.682Z" fill="#1E298B"/>
<path d="M285.078 107.386V120.327H288.608V123.412H280.568V107.386H285.078Z" fill="#1E298B"/>
</g>
</g>
<defs>
<clipPath id="clip0_18_3495">
<rect width="786" height="172" fill="white"/>
</clipPath>
</defs>
</svg>
