<svg width="450" height="88" viewBox="0 0 450 88" fill="none" xmlns="http://www.w3.org/2000/svg">
<g clip-path="url(#clip0_1_19214)">
<path d="M33.8753 24.0654L33.9878 23.9387C40.2778 14.3427 50.9355 8.03199 63.0303 8.03199C82.3698 8.03199 98.0516 24.1827 98.0516 44.0987C98.0516 64.0253 82.3698 80.1707 63.0303 80.1707C51.044 80.1707 40.4726 73.98 34.1552 64.524C41.1526 77.4613 54.5617 86.2094 69.9598 86.2094C92.5894 86.2094 110.93 67.3253 110.93 44.024C110.93 20.7987 92.6979 1.94802 70.1624 1.83602H69.7571C54.24 1.91336 40.7642 10.892 33.8753 24.0654ZM33.9315 64.184C34.0061 64.2973 34.0806 64.4107 34.1552 64.524C34.0872 64.3947 34.0178 64.2667 33.9498 64.1374L33.9315 64.184Z" fill="url(#paint0_linear_1_19214)"/>
<mask id="mask0_1_19214" style="mask-type:luminance" maskUnits="userSpaceOnUse" x="-197" y="-408" width="780" height="1123">
<path d="M-196.327 714.52H582.117V-408H-196.327V714.52Z" fill="white"/>
</mask>
<g mask="url(#mask0_1_19214)">
<path d="M17.5497 40.6255L24.7695 55.6602C25.8823 56.8282 27.2842 57.3868 27.2842 57.3868C28.6585 58.2242 27.3953 58.3455 27.3953 58.3455H26.0575V58.3602L19.3556 58.3668L19.3491 58.3455H18.0754C18.0754 58.3455 16.8174 58.2242 18.1905 57.3868C18.1905 57.3868 18.6416 56.9722 18.4062 56.3868L18.3409 56.2575C18.3108 56.1988 18.2729 56.1295 18.2219 56.0708L18.2951 56.1482L13.1807 45.5215C12.6916 44.5295 12.1175 45.4855 12.1175 45.4855L9.34001 48.8695C9.34001 48.8695 8.93462 49.5842 8.93462 50.3002V55.8935C9.22101 57.1215 10.2502 57.4202 10.2502 57.4202C11.6272 58.2508 10.3665 58.3762 10.3665 58.3762H8.93462H8.1997H2.56485H1.83647H0.394083C0.394083 58.3762 -0.862608 58.2508 0.519622 57.4202C0.519622 57.4202 1.53831 57.1215 1.83647 55.8935V31.9788C1.53831 30.7455 0.519622 30.4548 0.519622 30.4548C-0.862608 29.6175 0.394083 29.4948 0.394083 29.4948H1.83647H2.56485H8.1997H8.93462H10.3665C10.3665 29.4948 11.6272 29.6175 10.2502 30.4548C10.2502 30.4548 9.22101 30.7455 8.93462 31.9788V41.2108C8.93462 41.2108 9.00262 41.9068 9.71401 41.2348L17.5641 31.6482L17.432 31.8002C18.0192 31.0468 17.4032 30.4855 17.4032 30.4855C16.0249 29.6495 17.2869 29.5282 17.2869 29.5282H19.4485L19.4302 29.5548L23.4343 29.5308V29.5282H25.6103C25.6103 29.5282 26.8657 29.6495 25.4952 30.4855C25.4952 30.4855 24.1287 31.0268 23.0289 32.1602L17.5732 38.8202C17.5732 38.8202 16.9312 39.3602 17.5497 40.6255Z" fill="#003269"/>
</g>
<mask id="mask1_1_19214" style="mask-type:luminance" maskUnits="userSpaceOnUse" x="-197" y="-408" width="780" height="1123">
<path d="M-196.327 714.52H582.117V-408H-196.327V714.52Z" fill="white"/>
</mask>
<g mask="url(#mask1_1_19214)">
<path d="M61.1748 57.4197C61.1748 57.4197 60.1443 57.1211 59.8553 55.8931V31.9784C60.1443 30.7451 61.1748 30.4544 61.1748 30.4544C62.5531 29.6171 61.2899 29.4957 61.2899 29.4957H59.8553H59.1217H51.966C51.966 29.4957 50.9238 29.4104 50.5328 30.6051L45.2223 46.4757C44.83 47.6344 44.3278 46.4811 44.3278 46.4811L39.3965 30.4197C39.101 29.4957 38.1542 29.5024 38.1542 29.5024L34.9935 29.4957H31.6811H30.9475H29.5169C29.5169 29.4957 28.2458 29.6171 29.6254 30.4544C29.6254 30.4544 30.652 30.7451 30.9475 31.9784V55.8931C30.652 57.1211 29.6254 57.4197 29.6254 57.4197C28.2458 58.2517 29.5169 58.3757 29.5169 58.3757H30.9475H31.6811H34.2651H34.9935H36.4307C36.4307 58.3757 37.6913 58.2517 36.3104 57.4197C36.3104 57.4197 35.2851 57.1211 34.9935 55.8931V38.3504C34.9935 37.4757 35.4904 38.3424 35.4904 38.3424L41.3554 57.4691C41.3554 57.4691 41.5594 58.3757 42.4957 58.3757H44.9346C45.7519 58.3757 45.9258 57.4477 45.9258 57.4477L46.3757 56.0704L52.3034 38.3504C52.3034 38.3504 52.7572 37.5077 52.7572 38.3504V55.8931C52.4617 57.1211 51.4299 57.4197 51.4299 57.4197C50.0555 58.2517 51.3292 58.3757 51.3292 58.3757H52.7572H53.4934H59.1217H59.8553H61.2899C61.2899 58.3757 62.5531 58.2517 61.1748 57.4197Z" fill="#003269"/>
</g>
<mask id="mask2_1_19214" style="mask-type:luminance" maskUnits="userSpaceOnUse" x="-197" y="-408" width="780" height="1123">
<path d="M-196.327 714.52H582.117V-408H-196.327V714.52Z" fill="white"/>
</mask>
<g mask="url(#mask2_1_19214)">
<path d="M74.774 57.4197C74.774 57.4197 73.7475 57.1211 73.4572 55.8931V31.9784C73.7475 30.7451 74.774 30.4544 74.774 30.4544C76.1537 29.6171 74.8917 29.4957 74.8917 29.4957H73.4572H72.7183H67.0927H66.3656H64.9258C64.9258 29.4957 63.6613 29.6171 65.0487 30.4544C65.0487 30.4544 66.0596 30.7451 66.3656 31.9784V55.8931C66.0596 57.1211 65.0487 57.4197 65.0487 57.4197C63.6613 58.2517 64.9258 58.3757 64.9258 58.3757H66.3656H67.0927H72.7183H73.4572H74.8917C74.8917 58.3757 76.1537 58.2517 74.774 57.4197Z" fill="#003269"/>
</g>
<mask id="mask3_1_19214" style="mask-type:luminance" maskUnits="userSpaceOnUse" x="-197" y="-408" width="780" height="1123">
<path d="M-196.327 714.52H582.117V-408H-196.327V714.52Z" fill="white"/>
</mask>
<g mask="url(#mask3_1_19214)">
<path d="M163.89 33.8585V18.9505C164.288 18.2172 164.839 18.1692 164.839 18.1692H164.979H167.886C169.146 18.1692 168.803 16.8865 168.803 16.8865C168.704 16.3145 167.931 16.4479 167.931 16.4479H164.979C164.446 16.3385 164.091 15.6439 163.89 15.0719V8.76653L163.848 8.1652C163.801 7.5692 163.24 7.50253 163.24 7.50253H157.769C157.069 7.76787 157.72 8.1252 157.72 8.1252C158.905 8.44253 159.495 10.1305 159.718 11.0559V33.8585C159.718 33.8585 159.596 34.6839 160.438 34.6839H163.27C163.27 34.6839 164.055 34.9559 163.89 33.8585Z" fill="#231916"/>
</g>
<mask id="mask4_1_19214" style="mask-type:luminance" maskUnits="userSpaceOnUse" x="-197" y="-408" width="780" height="1123">
<path d="M-196.327 714.52H582.117V-408H-196.327V714.52Z" fill="white"/>
</mask>
<g mask="url(#mask4_1_19214)">
<path d="M162.907 43.7831H147.114C146.366 43.4311 145.65 42.6004 145.65 40.7284V30.9004C145.65 30.3124 145.187 29.8364 144.611 29.8364H142.531C142.437 29.8364 142.356 29.8471 142.283 29.8724H139.454C138.623 30.2444 139.454 30.6964 139.454 30.6964C140.803 31.0884 141.326 32.6751 141.487 33.3684V41.9911C141.487 41.9911 140.831 46.5751 146.829 46.0444H162.907C163.339 46.0444 163.699 45.6844 163.699 45.2431V44.5857C163.699 44.1444 163.339 43.7831 162.907 43.7831Z" fill="#231916"/>
</g>
<mask id="mask5_1_19214" style="mask-type:luminance" maskUnits="userSpaceOnUse" x="-197" y="-408" width="780" height="1123">
<path d="M-196.327 714.52H582.117V-408H-196.327V714.52Z" fill="white"/>
</mask>
<g mask="url(#mask5_1_19214)">
<path d="M146.435 25.7095C143.532 25.7095 141.182 22.8668 141.182 19.3655C141.182 15.8735 143.532 13.0162 146.435 13.0162C149.337 13.0162 151.686 15.8735 151.686 19.3655C151.686 22.8668 149.337 25.7095 146.435 25.7095ZM154.397 13.8642L154.322 13.8415C154.275 13.2082 154.581 12.8108 154.878 12.5775L154.87 12.5535H156.242C156.242 12.5535 157.208 12.9055 157.208 11.6602C157.208 11.6602 157.12 10.7788 156.421 10.7788H149.82C149.82 10.7788 148.558 10.7788 148.558 9.49217V8.3895C148.558 8.3895 148.822 7.5695 147.764 7.5695H147.563H147.226H143.047C143.047 7.5695 141.83 8.30017 142.614 8.65483C142.614 8.65483 143.479 8.65483 143.574 9.62683C143.574 9.62683 144.085 10.6015 142.614 10.6015H136.447C136.447 10.6015 135.751 10.7788 135.751 11.3122C135.751 11.3122 135.496 12.4628 136.362 12.5535H137.771H137.797C138.092 12.7682 138.419 13.1535 138.398 13.7668V13.7748C137.212 14.8042 135.66 17.6722 135.66 19.3655C135.66 24.0015 140.44 27.7562 146.34 27.7562C152.247 27.7562 157.033 24.0015 157.033 19.3655C157.033 17.2535 156.031 15.3282 154.397 13.8642Z" fill="#231916"/>
</g>
<mask id="mask6_1_19214" style="mask-type:luminance" maskUnits="userSpaceOnUse" x="-197" y="-408" width="780" height="1123">
<path d="M-196.327 714.52H582.117V-408H-196.327V714.52Z" fill="white"/>
</mask>
<g mask="url(#mask6_1_19214)">
<path d="M201.152 21.0058H199.858L200.1 20.9364C199.321 20.9364 199.027 20.6244 198.93 20.3084V9.38309C198.93 8.84842 198.545 8.41642 198.042 8.33642C198.014 8.32709 197.975 8.32709 197.942 8.32709C197.924 8.32442 197.91 8.31909 197.884 8.31909H195.086H173.989C173.554 8.31909 173.206 8.68042 173.206 9.11775V9.71642C173.206 10.1551 173.554 10.5138 173.989 10.5138H193.179C193.724 10.6404 193.985 10.9431 194.044 11.5511V18.8111C194.036 19.2644 193.856 20.7284 192.096 21.0058H171.182C170.753 21.0058 170.392 21.3631 170.392 21.7991V22.9964C170.392 23.4364 170.753 23.7911 171.182 23.7911H183.024C183.415 24.0978 183.878 24.6031 183.949 25.3844V28.0418C183.949 28.0418 184.265 28.9458 182.444 29.6431H174.046C173.622 29.6431 173.268 29.9924 173.268 30.4338V30.9658C173.268 31.4044 173.622 31.7631 174.046 31.7631H193.325C194.148 32.2698 194.286 32.8911 194.308 33.1564V45.2431C194.308 45.8324 194.777 46.3098 195.352 46.3098H197.691C198.269 46.3098 198.736 45.8324 198.736 45.2431V30.9658V30.9004V30.4338C198.736 29.9924 198.394 29.6431 197.953 29.6431H190.005C190.005 29.6431 188.443 29.5671 188.379 28.1778V25.3218C188.379 25.3218 188.127 24.4524 189.47 23.7911H201.152C201.577 23.7911 201.93 23.4364 201.93 22.9964V21.7991C201.93 21.3631 201.577 21.0058 201.152 21.0058Z" fill="#231916"/>
</g>
<mask id="mask7_1_19214" style="mask-type:luminance" maskUnits="userSpaceOnUse" x="-197" y="-408" width="780" height="1123">
<path d="M-196.327 714.52H582.117V-408H-196.327V714.52Z" fill="white"/>
</mask>
<g mask="url(#mask7_1_19214)">
<path d="M235.22 7.41185H233.14H231.59C231.59 7.41185 231.019 7.67718 231.495 8.03185C231.495 8.03185 232.087 8.51718 232.096 9.29452V19.3452C231.822 19.9158 231.537 19.9039 231.537 19.9039H231.106C230.689 19.8505 230.412 19.5892 230.243 19.3558V8.47985C230.243 7.89052 229.773 7.41185 229.193 7.41185H227.114H225.07C224.337 7.72252 225.07 8.21052 225.07 8.21052C225.588 8.55985 226.027 8.74252 226.069 9.29452V44.8718C226.069 45.4598 226.545 45.9265 227.114 45.9265H229.193C229.773 45.9265 230.243 45.4598 230.243 44.8718V23.6692C230.327 22.9078 230.974 22.9078 230.974 22.9078H231.626C232.119 23.0265 232.096 23.4425 232.096 23.4425V44.8718C232.096 45.4598 232.568 45.9265 233.14 45.9265H235.22C235.792 45.9265 236.265 45.4598 236.265 44.8718V8.47985C236.265 7.89052 235.792 7.41185 235.22 7.41185Z" fill="#231916"/>
</g>
<mask id="mask8_1_19214" style="mask-type:luminance" maskUnits="userSpaceOnUse" x="-197" y="-408" width="780" height="1123">
<path d="M-196.327 714.52H582.117V-408H-196.327V714.52Z" fill="white"/>
</mask>
<g mask="url(#mask8_1_19214)">
<path d="M375.949 7.41185H373.87H372.318C372.318 7.41185 371.746 7.67718 372.23 8.03185C372.23 8.03185 372.815 8.51718 372.825 9.29452V19.3452C372.561 19.9158 372.272 19.9039 372.272 19.9039H371.831C371.419 19.8505 371.14 19.5892 370.964 19.3558V8.47985C370.964 7.89052 370.499 7.41185 369.929 7.41185H367.846H365.798C365.064 7.72252 365.798 8.21052 365.798 8.21052C366.31 8.55985 366.76 8.74252 366.795 9.29452V44.8718C366.795 45.4598 367.268 45.9265 367.846 45.9265H369.929C370.499 45.9265 370.964 45.4598 370.964 44.8718V23.6692C371.059 22.9078 371.698 22.9078 371.698 22.9078H372.358C372.844 23.0265 372.825 23.4425 372.825 23.4425V44.8718C372.825 45.4598 373.296 45.9265 373.87 45.9265H375.949C376.526 45.9265 376.994 45.4598 376.994 44.8718V8.47985C376.994 7.89052 376.526 7.41185 375.949 7.41185Z" fill="#231916"/>
</g>
<mask id="mask9_1_19214" style="mask-type:luminance" maskUnits="userSpaceOnUse" x="-197" y="-408" width="780" height="1123">
<path d="M-196.327 714.52H582.117V-408H-196.327V714.52Z" fill="white"/>
</mask>
<g mask="url(#mask9_1_19214)">
<path d="M215.734 35.759C213.412 35.759 211.536 31.315 211.536 25.8416C211.536 20.363 213.412 15.9296 215.734 15.9296C218.062 15.9296 219.944 20.363 219.944 25.8416C219.944 31.315 218.062 35.759 215.734 35.759ZM218.462 13.627C214.963 12.159 212.337 14.2856 212.337 14.2856L212.358 14.287C209.427 16.319 207.398 20.7296 207.398 25.8416C207.398 32.8816 211.241 38.5923 216 38.5923C220.737 38.5923 224.591 32.8816 224.591 25.8416C224.591 20.0803 222.012 15.203 218.462 13.627Z" fill="#231916"/>
</g>
<mask id="mask10_1_19214" style="mask-type:luminance" maskUnits="userSpaceOnUse" x="-197" y="-408" width="780" height="1123">
<path d="M-196.327 714.52H582.117V-408H-196.327V714.52Z" fill="white"/>
</mask>
<g mask="url(#mask10_1_19214)">
<path d="M252.278 24.5884C249.438 24.5884 247.132 21.2631 247.132 17.1497C247.132 13.0431 249.438 9.71639 252.278 9.71639C255.113 9.71639 257.425 13.0431 257.425 17.1497C257.425 21.2631 255.113 24.5884 252.278 24.5884ZM252.345 7.32173C246.944 7.32173 242.572 11.6031 242.572 16.8857C242.572 22.1711 246.944 26.4524 252.345 26.4524C257.736 26.4524 262.107 22.1711 262.107 16.8857C262.107 11.6031 257.736 7.32173 252.345 7.32173Z" fill="#231916"/>
</g>
<mask id="mask11_1_19214" style="mask-type:luminance" maskUnits="userSpaceOnUse" x="-197" y="-408" width="780" height="1123">
<path d="M-196.327 714.52H582.117V-408H-196.327V714.52Z" fill="white"/>
</mask>
<g mask="url(#mask11_1_19214)">
<path d="M258.585 44.5141C254.495 44.5141 251.169 41.2381 251.169 37.2074C251.169 33.1754 254.495 29.9034 258.585 29.9034C262.697 29.9034 266.022 33.1754 266.022 37.2074C266.022 41.2381 262.697 44.5141 258.585 44.5141ZM258.726 28.2541C251.856 28.2541 246.294 32.3794 246.294 37.4714C246.294 42.5728 251.856 46.6968 258.726 46.6968C265.585 46.6968 271.152 42.5728 271.152 37.4714C271.152 32.3794 265.585 28.2541 258.726 28.2541Z" fill="#231916"/>
</g>
<mask id="mask12_1_19214" style="mask-type:luminance" maskUnits="userSpaceOnUse" x="-197" y="-408" width="780" height="1123">
<path d="M-196.327 714.52H582.117V-408H-196.327V714.52Z" fill="white"/>
</mask>
<g mask="url(#mask12_1_19214)">
<path d="M270.583 14.8273H275.203C275.495 14.8273 275.724 14.5913 275.724 14.298V13.1713C275.724 12.878 275.495 12.6393 275.203 12.6393H270.583C270.539 12.6393 270.497 12.6553 270.45 12.6633V8.12598C270.45 7.67931 270.097 7.32198 269.664 7.32198H267.766H266.931H264.846C264.846 7.32198 264.195 7.58731 264.585 8.05131C264.585 8.05131 266.022 8.78331 266.146 9.78465V27.378C266.146 27.818 266.498 28.178 266.931 28.178H269.664C270.097 28.178 270.45 27.818 270.45 27.378V20.3073C270.497 20.322 270.539 20.3433 270.583 20.3433H275.203C275.495 20.3433 275.724 20.1073 275.724 19.8046V18.6846C275.724 18.3886 275.495 18.1486 275.203 18.1486H270.583C270.539 18.1486 270.497 18.166 270.45 18.174V14.8033C270.497 14.8153 270.539 14.8273 270.583 14.8273Z" fill="#231916"/>
</g>
<mask id="mask13_1_19214" style="mask-type:luminance" maskUnits="userSpaceOnUse" x="-197" y="-408" width="780" height="1123">
<path d="M-196.327 714.52H582.117V-408H-196.327V714.52Z" fill="white"/>
</mask>
<g mask="url(#mask13_1_19214)">
<path d="M308.14 27.8676H277.393C277.109 27.8676 276.871 28.1036 276.871 28.3983V29.4636C276.871 29.7556 277.109 29.9876 277.393 29.9876H290.053C290.015 30.0943 289.981 30.2103 289.981 30.3183V45.4636C289.981 45.9023 290.332 46.265 290.768 46.265H294.002C294.44 46.265 294.787 45.9023 294.787 45.4636V30.3183C294.787 30.2103 294.761 30.0943 294.708 29.9876H308.14C308.42 29.9876 308.668 29.7556 308.668 29.4636V28.3983C308.668 28.1036 308.42 27.8676 308.14 27.8676Z" fill="#231916"/>
</g>
<mask id="mask14_1_19214" style="mask-type:luminance" maskUnits="userSpaceOnUse" x="-197" y="-408" width="780" height="1123">
<path d="M-196.327 714.52H582.117V-408H-196.327V714.52Z" fill="white"/>
</mask>
<g mask="url(#mask14_1_19214)">
<path d="M294.41 7.14506H288.859C288.859 7.14506 287.12 7.5024 288.508 8.7424C288.508 8.7424 291.46 10.6917 289.732 13.3411C289.732 13.3411 285.907 21.4851 278.443 22.5531C278.443 22.5531 276.525 23.7904 278.443 24.6811C278.443 24.6811 286.079 24.3251 292.851 17.7744C292.851 17.7744 297.889 23.2557 306.917 24.8584C306.917 24.8584 308.486 23.7904 306.752 22.9077C306.752 22.9077 296.671 18.8424 295.807 12.8104L295.458 8.9144C295.458 8.9144 296.326 7.5024 294.41 7.14506Z" fill="#231916"/>
</g>
<mask id="mask15_1_19214" style="mask-type:luminance" maskUnits="userSpaceOnUse" x="-197" y="-408" width="780" height="1123">
<path d="M-196.327 714.52H582.117V-408H-196.327V714.52Z" fill="white"/>
</mask>
<g mask="url(#mask15_1_19214)">
<path d="M322.317 7.5024H317.278C317.278 7.5024 316.133 7.85707 317.688 8.9144C317.688 8.9144 319.255 9.97973 318.559 15.4691C318.559 15.4691 318.04 20.2504 310.568 24.1477C310.568 24.1477 309.867 25.9211 310.737 26.0997C310.737 26.0997 314.559 26.4517 321.508 18.4784C321.508 18.4784 323.765 23.7904 330.719 25.5637C330.719 25.5637 332.716 26.0997 331.585 24.4157C331.585 24.4157 324.633 20.9691 323.677 14.7611C323.677 14.7611 323.332 9.71574 323.417 8.9144C323.417 8.9144 323.64 7.58774 322.317 7.5024Z" fill="#231916"/>
</g>
<mask id="mask16_1_19214" style="mask-type:luminance" maskUnits="userSpaceOnUse" x="-197" y="-408" width="780" height="1123">
<path d="M-196.327 714.52H582.117V-408H-196.327V714.52Z" fill="white"/>
</mask>
<g mask="url(#mask16_1_19214)">
<path d="M345.478 15.7361H340.62C340.562 15.7361 340.503 15.7481 340.455 15.7721V8.56147C340.455 7.98147 339.996 7.5028 339.415 7.5028H337.672H337.666H334.638C334.638 7.5028 333.934 7.58813 334.798 8.48013C334.798 8.48013 336.048 9.43347 336.623 10.5895V33.6228C336.623 34.2121 337.089 34.6828 337.666 34.6828H339.415C339.996 34.6828 340.455 34.2121 340.455 33.6228V17.9161C340.503 17.9375 340.562 17.9548 340.62 17.9548H345.478C345.764 17.9548 346.002 17.7121 346.002 17.4215V16.2668C346.002 15.9748 345.764 15.7361 345.478 15.7361Z" fill="#231916"/>
</g>
<mask id="mask17_1_19214" style="mask-type:luminance" maskUnits="userSpaceOnUse" x="-197" y="-408" width="780" height="1123">
<path d="M-196.327 714.52H582.117V-408H-196.327V714.52Z" fill="white"/>
</mask>
<g mask="url(#mask17_1_19214)">
<path d="M339.731 43.9229H324.07L324.121 43.8936C322.973 43.7722 322.54 43.0096 322.377 42.5549V29.5469C322.377 28.9549 321.917 28.4936 321.333 28.4936H319.775H319.335H316.997C316.997 28.4936 316.389 28.7522 316.908 29.2856C316.908 29.2856 318.207 30.3496 318.296 30.9656V43.6549C318.264 43.8136 318.245 43.9642 318.245 44.1256C318.245 45.3722 319.237 46.3816 320.457 46.3816C320.564 46.3816 320.668 46.3669 320.779 46.3482C320.86 46.3922 320.954 46.4056 321.065 46.4056H339.731C340.167 46.4056 340.517 46.0509 340.517 45.6109V44.7242C340.517 44.2856 340.167 43.9229 339.731 43.9229Z" fill="#231916"/>
</g>
<mask id="mask18_1_19214" style="mask-type:luminance" maskUnits="userSpaceOnUse" x="-197" y="-408" width="780" height="1123">
<path d="M-196.327 714.52H582.117V-408H-196.327V714.52Z" fill="white"/>
</mask>
<g mask="url(#mask18_1_19214)">
<path d="M448.815 43.9439H433.15L433.191 43.9052C432.053 43.7826 431.612 43.0226 431.453 42.5679V31.0546C431.453 30.4666 430.994 29.9879 430.405 29.9879H428.267H427.83H425.488C425.488 29.9879 424.875 30.2599 425.406 30.7919C425.406 30.7919 426.702 31.8532 426.785 32.4692V43.6706C426.75 43.8172 426.729 43.9759 426.729 44.1306C426.729 45.3812 427.723 46.3919 428.947 46.3919C429.057 46.3919 429.159 46.3799 429.258 46.3572C429.358 46.3919 429.451 46.4146 429.553 46.4146H448.815C449.246 46.4146 449.59 46.0652 449.59 45.6252V44.7332C449.59 44.2946 449.246 43.9439 448.815 43.9439Z" fill="#231916"/>
</g>
<mask id="mask19_1_19214" style="mask-type:luminance" maskUnits="userSpaceOnUse" x="-197" y="-408" width="780" height="1123">
<path d="M-196.327 714.52H582.117V-408H-196.327V714.52Z" fill="white"/>
</mask>
<g mask="url(#mask19_1_19214)">
<path d="M363.846 9.44572C363.846 9.01638 363.503 8.65505 363.074 8.65505H349.262C348.827 8.65505 348.476 9.01638 348.476 9.44572V10.3777C348.476 10.8217 348.827 11.1777 349.262 11.1777H359.167C360.745 34.0324 347.561 36.6777 347.561 36.6777C346.652 37.6017 348.211 38.011 348.211 38.011C362.847 33.903 363.91 17.3524 363.802 11.3284V11.267L363.846 9.44572Z" fill="#231916"/>
</g>
<mask id="mask20_1_19214" style="mask-type:luminance" maskUnits="userSpaceOnUse" x="-197" y="-408" width="780" height="1123">
<path d="M-196.327 714.52H582.117V-408H-196.327V714.52Z" fill="white"/>
</mask>
<g mask="url(#mask20_1_19214)">
<path d="M418.004 14.677H413.139C413.084 14.677 413.032 14.6903 412.973 14.713V8.43295C412.973 7.84362 412.511 7.36895 411.941 7.36895H410.194H410.184H407.159C407.159 7.36895 406.448 7.45295 407.321 8.34095C407.321 8.34095 408.072 8.89295 408.661 10.1956V24.7223C408.661 25.1663 409.012 25.5236 409.438 25.5236H412.042C412.479 25.5236 412.826 25.1663 412.826 24.7223V16.8863H418.004C418.29 16.8863 418.525 16.6516 418.525 16.3583V15.2036C418.525 14.9103 418.29 14.677 418.004 14.677Z" fill="#231916"/>
</g>
<mask id="mask21_1_19214" style="mask-type:luminance" maskUnits="userSpaceOnUse" x="-197" y="-408" width="780" height="1123">
<path d="M-196.327 714.52H582.117V-408H-196.327V714.52Z" fill="white"/>
</mask>
<g mask="url(#mask21_1_19214)">
<path d="M399.322 16.8859V22.5525H391.15C390.545 22.4512 389.697 21.9739 389.328 20.2285V16.8859H399.322ZM403.407 8.65521H401.147H400.363H397.509C397.509 8.65521 396.891 9.09788 397.678 9.71655C397.678 9.71655 398.688 10.2392 399.322 11.3445V14.5832H389.328V9.71655C389.328 9.12988 388.868 8.65521 388.293 8.65521H386.03H385.251H382.399C382.399 8.65521 381.784 9.09788 382.566 9.71655C382.566 9.71655 383.572 10.2392 384.209 11.3445V21.5139C384.209 21.5139 384.303 24.6872 386.402 25.0032C386.48 25.0152 386.559 25.0325 386.646 25.0325C387.678 25.0712 387.838 25.0592 387.69 25.0325H399.948C400.068 25.0899 400.216 25.1205 400.363 25.1205H403.407C403.978 25.1205 404.445 24.6445 404.445 24.0619V23.9685V23.6139V9.71655C404.445 9.12988 403.978 8.65521 403.407 8.65521Z" fill="#231916"/>
</g>
<mask id="mask22_1_19214" style="mask-type:luminance" maskUnits="userSpaceOnUse" x="-197" y="-408" width="780" height="1123">
<path d="M-196.327 714.52H582.117V-408H-196.327V714.52Z" fill="white"/>
</mask>
<g mask="url(#mask22_1_19214)">
<path d="M413.306 44.1574H396.638C395.875 44.1574 395.665 43.4427 395.616 43.0654V37.2654C395.843 36.9507 396.198 36.9 396.198 36.9H409.371C409.439 36.9107 409.504 36.92 409.583 36.92H412.879C413.466 36.92 413.929 36.4374 413.929 35.844V28.7827C413.929 28.1907 413.466 27.7147 412.879 27.7147H412.357C412.325 27.708 412.297 27.7054 412.261 27.7054H389.77C389.338 27.7054 388.992 28.0534 388.992 28.5014V29.5467C388.992 29.988 389.338 30.3494 389.77 30.3494H407.571C407.571 30.3494 408.445 30.5254 408.534 31.3214L408.54 31.3134V33.6827C408.372 33.948 407.998 34.244 407.238 34.244H389.77C389.338 34.244 388.992 34.6 388.992 35.0387V36.1C388.992 36.464 389.226 36.772 389.558 36.8627C389.757 37.096 390.137 37.5694 390.201 37.9654L390.225 37.956V42.9493L390.121 43.0094C390.121 43.0094 389.696 46.192 395.257 46.192H413.306C413.742 46.192 414.09 45.844 414.09 45.4V44.956C414.09 44.5147 413.742 44.1574 413.306 44.1574Z" fill="#231916"/>
</g>
<mask id="mask23_1_19214" style="mask-type:luminance" maskUnits="userSpaceOnUse" x="-197" y="-409" width="780" height="1124">
<path d="M-196.327 714.52H582.117V-408H-196.327V714.52Z" fill="white"/>
</mask>
<g mask="url(#mask23_1_19214)">
<path d="M450.066 8.28561L450.094 7.78161C450.045 7.18027 449.414 7.02827 449.414 7.02827H443.937C443.247 7.29094 443.893 7.64961 443.893 7.64961C445.074 7.96961 445.662 9.65094 445.892 10.5816V23.8363C445.738 24.1616 445.42 24.3669 445.217 24.4576H422.082C421.785 24.4576 421.552 24.6949 421.552 24.9936V26.7149C421.552 27.0149 421.785 27.2456 422.082 27.2456H433.253C433.501 27.4243 433.779 27.6816 433.927 28.0496V35.7496C433.927 36.3336 434.396 36.8096 434.978 36.8096H437.182C437.762 36.8096 438.234 36.3336 438.234 35.7496V28.1256C438.438 27.7563 438.849 27.4243 439.082 27.2456H445.287C445.486 27.3189 445.75 27.4643 445.892 27.7376V28.5269C445.789 28.6683 445.658 28.7789 445.516 28.8416H441.492C441.052 28.8416 440.701 29.1949 440.701 29.6429V30.4336C440.701 30.8763 441.052 31.2323 441.492 31.2323H445.54C445.676 31.3336 445.806 31.4749 445.892 31.6589V36.1296C445.892 36.1296 445.76 36.9683 446.611 36.9683H449.44C449.44 36.9683 450.222 37.2309 450.066 36.1296V8.28561Z" fill="#231916"/>
</g>
<mask id="mask24_1_19214" style="mask-type:luminance" maskUnits="userSpaceOnUse" x="-197" y="-408" width="780" height="1123">
<path d="M-196.327 714.52H582.117V-408H-196.327V714.52Z" fill="white"/>
</mask>
<g mask="url(#mask24_1_19214)">
<path d="M432.725 20.7388C429.899 20.7388 427.612 18.2428 427.612 15.1614C427.612 12.0774 429.899 9.58411 432.725 9.58411C435.555 9.58411 437.841 12.0774 437.841 15.1614C437.841 18.2428 435.555 20.7388 432.725 20.7388ZM432.788 7.09077C426.987 7.09077 422.266 10.6401 422.266 15.0294C422.266 19.4188 426.987 22.9721 432.788 22.9721C438.596 22.9721 443.309 19.4188 443.309 15.0294C443.309 10.6401 438.596 7.09077 432.788 7.09077Z" fill="#231916"/>
</g>
<mask id="mask25_1_19214" style="mask-type:luminance" maskUnits="userSpaceOnUse" x="-197" y="-408" width="780" height="1123">
<path d="M-196.327 714.52H582.117V-408H-196.327V714.52Z" fill="white"/>
</mask>
<g mask="url(#mask25_1_19214)">
<path d="M147.829 61.3188H153.836V61.8761C152.454 62.0215 151.978 62.1148 150.35 64.1521L145.993 69.6521L151.334 76.9535C152.827 79.0575 153.627 80.1708 154.944 80.1121V80.6721H147.946V80.1121C149.157 80.0588 149.549 80.0215 149.549 79.3801C149.549 78.4761 147.345 75.4641 146.567 74.4788L144.136 71.4015L143.543 72.0188V77.4815C143.543 79.5281 143.819 80.0001 145.609 80.1121V80.6721H139.139V80.1121C140.927 80.0001 141.202 79.5615 141.202 77.1615V64.5081C141.202 62.2308 140.698 62.0215 139.139 61.8761V61.3188H145.647V61.8761C143.86 62.0215 143.543 62.3441 143.543 64.5081V70.4948C148.722 64.5721 149.39 63.7815 149.39 62.7841C149.39 61.9975 148.954 61.9321 147.829 61.8761V61.3188Z" fill="#231916"/>
</g>
<mask id="mask26_1_19214" style="mask-type:luminance" maskUnits="userSpaceOnUse" x="-197" y="-408" width="780" height="1123">
<path d="M-196.327 714.52H582.117V-408H-196.327V714.52Z" fill="white"/>
</mask>
<g mask="url(#mask26_1_19214)">
<path d="M161.465 81.0733C165.615 81.0733 168.954 77.2426 168.954 71.028C168.954 64.3133 165.23 60.9266 161.465 60.9266C157.705 60.9266 153.978 64.3133 153.978 71.028C153.978 77.2426 157.318 81.0733 161.465 81.0733ZM161.465 80.0133C158.924 80.0133 156.585 77.4186 156.585 71C156.585 64.3373 159.129 61.9786 161.465 61.9786C163.81 61.9786 166.356 64.3373 166.356 71C166.356 77.4186 164.016 80.0133 161.465 80.0133Z" fill="#231916"/>
</g>
<mask id="mask27_1_19214" style="mask-type:luminance" maskUnits="userSpaceOnUse" x="-197" y="-408" width="780" height="1123">
<path d="M-196.327 714.52H582.117V-408H-196.327V714.52Z" fill="white"/>
</mask>
<g mask="url(#mask27_1_19214)">
<path d="M182.715 78.7147C181.606 77.0587 180.957 74.0587 180.957 74.0587C180.306 71.936 179.017 71.1093 179.017 71.1093C180.377 70.6573 182.285 69.572 182.285 66.44C182.285 61.944 178.502 61.3187 176.463 61.3187H170.147V61.876C171.758 62.0827 172.095 62.344 172.095 64.508V77.1693C172.095 79.3547 172.01 79.968 170.147 80.112V80.672H176.486V80.112C174.673 80 174.445 79.4453 174.445 77.4853V71.7387L175.714 71.6787C175.714 71.6787 176.788 71.3427 177.958 73.8653C177.958 73.8653 178.286 74.336 178.35 75.0653C178.35 75.0653 179.545 80.4373 181.16 80.672H184.854V80.112C183.913 80.0587 183.361 79.528 182.857 78.7413M174.445 63.4613C174.445 62.6107 174.646 62.404 175.856 62.404C176.788 62.404 179.788 62.5013 179.788 66.388C179.788 70.564 176.36 70.6227 174.445 70.6493V63.4613Z" fill="#231916"/>
</g>
<mask id="mask28_1_19214" style="mask-type:luminance" maskUnits="userSpaceOnUse" x="-197" y="-408" width="780" height="1123">
<path d="M-196.327 714.52H582.117V-408H-196.327V714.52Z" fill="white"/>
</mask>
<g mask="url(#mask28_1_19214)">
<path d="M195.833 80.6763H186.416V80.1123C187.539 80.0003 187.941 79.7283 187.941 77.4816V64.5083C187.941 62.2003 187.518 62.0216 186.416 61.8763V61.3189H195.672L195.728 65.4923H195.289C195.018 62.8856 194.558 62.4096 192.635 62.4096H190.288C189.921 62.4096 189.713 62.4096 189.713 63.4096V69.9109H192.386C193.927 69.9109 194.104 69.2163 194.296 67.1336H194.694V73.9243H194.296C194.076 71.5816 193.825 71.1683 192.386 71.1389L189.713 71.0816V78.3456C189.713 79.5456 189.713 79.5749 192.298 79.5749C194.465 79.5749 195.357 78.7003 196.132 75.7376H196.617L195.833 80.6763Z" fill="#231916"/>
</g>
<mask id="mask29_1_19214" style="mask-type:luminance" maskUnits="userSpaceOnUse" x="-197" y="-408" width="780" height="1123">
<path d="M-196.327 714.52H582.117V-408H-196.327V714.52Z" fill="white"/>
</mask>
<g mask="url(#mask29_1_19214)">
<path d="M327.488 80.6763H318.079V80.1123C319.19 80.0003 319.59 79.7283 319.59 77.4816V64.5083C319.59 62.2003 319.173 62.0216 318.079 61.8763V61.3189H327.329L327.384 65.4923H326.938C326.663 62.8856 326.208 62.4096 324.287 62.4096H321.942C321.576 62.4096 321.368 62.4096 321.368 63.4096V69.9109H324.033C325.583 69.9109 325.763 69.2163 325.945 67.1336H326.345V73.9243H325.945C325.741 71.5816 325.486 71.1683 324.033 71.1389L321.368 71.0816V78.3456C321.368 79.5456 321.368 79.5749 323.953 79.5749C326.119 79.5749 327.013 78.7003 327.785 75.7376H328.281L327.488 80.6763Z" fill="#231916"/>
</g>
<mask id="mask30_1_19214" style="mask-type:luminance" maskUnits="userSpaceOnUse" x="-197" y="-408" width="780" height="1123">
<path d="M-196.327 714.52H582.117V-408H-196.327V714.52Z" fill="white"/>
</mask>
<g mask="url(#mask30_1_19214)">
<path d="M447.87 80.6763H438.451V80.1123C439.565 80.0003 439.966 79.7283 439.966 77.4816V64.5083C439.966 62.2003 439.549 62.0216 438.451 61.8763V61.3189H447.712L447.765 65.4923H447.318C447.057 62.8856 446.586 62.4096 444.657 62.4096H442.316C441.951 62.4096 441.745 62.4096 441.745 63.4096V69.9109H444.416C445.967 69.9109 446.136 69.2163 446.322 67.1336H446.717V73.9243H446.322C446.12 71.5816 445.865 71.1683 444.416 71.1389L441.745 71.0816V78.3456C441.745 79.5456 441.745 79.5749 444.338 79.5749C446.501 79.5749 447.393 78.7003 448.165 75.7376H448.652L447.87 80.6763Z" fill="#231916"/>
</g>
<mask id="mask31_1_19214" style="mask-type:luminance" maskUnits="userSpaceOnUse" x="-197" y="-408" width="780" height="1123">
<path d="M-196.327 714.52H582.117V-408H-196.327V714.52Z" fill="white"/>
</mask>
<g mask="url(#mask31_1_19214)">
<path d="M212.095 80.1124C211.119 80.0217 210.814 79.7017 210.109 77.5697L204.634 60.9577H204.196L199.618 75.3284C199.202 76.6124 198.517 78.7404 198.013 79.4697C197.617 80.0217 197.242 80.0831 196.886 80.1124V80.6711H201.25V80.1124C200.779 80.1124 199.749 80.1124 199.749 78.8911C199.749 78.5617 199.821 78.1564 199.926 77.7817L200.944 74.3657H206.703L207.608 77.1697C207.739 77.5697 208.017 78.5404 208.017 79.0071C208.017 80.0831 207.298 80.1124 206.481 80.1124V80.6711H212.095V80.1124ZM201.317 73.1711L203.835 65.1097L206.397 73.1711H201.317Z" fill="#231916"/>
</g>
<mask id="mask32_1_19214" style="mask-type:luminance" maskUnits="userSpaceOnUse" x="-197" y="-408" width="780" height="1123">
<path d="M-196.327 714.52H582.117V-408H-196.327V714.52Z" fill="white"/>
</mask>
<g mask="url(#mask32_1_19214)">
<path d="M252.74 80.1124C251.774 80.0217 251.459 79.7017 250.758 77.5697L245.281 60.9577H244.835L240.269 75.3284C239.853 76.6124 239.169 78.7404 238.662 79.4697C238.261 80.0217 237.895 80.0831 237.541 80.1124V80.6711H241.892V80.1124C241.442 80.1124 240.398 80.1124 240.398 78.8911C240.398 78.5617 240.46 78.1564 240.576 77.7817L241.584 74.3657H247.351L248.25 77.1697C248.386 77.5697 248.671 78.5404 248.671 79.0071C248.671 80.0831 247.944 80.1124 247.133 80.1124V80.6711H252.74V80.1124ZM241.957 73.1711L244.49 65.1097L247.041 73.1711H241.957Z" fill="#231916"/>
</g>
<mask id="mask33_1_19214" style="mask-type:luminance" maskUnits="userSpaceOnUse" x="-197" y="-408" width="780" height="1123">
<path d="M-196.327 714.52H582.117V-408H-196.327V714.52Z" fill="white"/>
</mask>
<g mask="url(#mask33_1_19214)">
<path d="M237.596 61.8761C236.207 62.0215 235.673 62.2001 235.673 64.5081V77.4815C235.673 79.7281 236.19 80.0001 237.596 80.1121V80.6721H231.43V80.1121C233.14 80.0001 233.441 79.5615 233.441 77.1615V64.0401H233.393L227.802 80.6721H227.504L222.03 64.7108H221.984V76.3748C221.984 79.3801 222.445 80.0215 224.048 80.1121V80.6721H218.879V80.1121C220.554 79.9655 221.018 79.5281 221.018 76.3748V64.5081C221.018 62.2308 220.554 61.9975 218.921 61.8761V61.3188H223.279L228.354 76.0735L233.216 61.3188H237.596V61.8761Z" fill="#231916"/>
</g>
<mask id="mask34_1_19214" style="mask-type:luminance" maskUnits="userSpaceOnUse" x="-197" y="-408" width="780" height="1123">
<path d="M-196.327 714.52H582.117V-408H-196.327V714.52Z" fill="white"/>
</mask>
<g mask="url(#mask34_1_19214)">
<path d="M315.609 61.8761C314.222 62.0215 313.699 62.2001 313.699 64.5081V77.4815C313.699 79.7281 314.205 80.0001 315.609 80.1121V80.6721H309.451V80.1121C311.163 80.0001 311.448 79.5615 311.448 77.1615V64.0401H311.398L305.825 80.6721H305.52L300.044 64.7108H300.001V76.3748C300.001 79.3801 300.458 80.0215 302.065 80.1121V80.6721H296.892V80.1121C298.562 79.9655 299.022 79.5281 299.022 76.3748V64.5081C299.022 62.2308 298.562 61.9975 296.939 61.8761V61.3188H301.293L306.366 76.0735L311.231 61.3188H315.609V61.8761Z" fill="#231916"/>
</g>
<mask id="mask35_1_19214" style="mask-type:luminance" maskUnits="userSpaceOnUse" x="-197" y="-408" width="780" height="1123">
<path d="M-196.327 714.52H582.117V-408H-196.327V714.52Z" fill="white"/>
</mask>
<g mask="url(#mask35_1_19214)">
<path d="M267.636 80.1124C266.706 80.0591 266.146 79.5284 265.647 78.7404L260.923 71.3497C262.088 71.0604 265.075 70.3577 265.075 66.4404C265.075 61.9444 261.292 61.3191 259.256 61.3191H252.929V61.8764C254.539 62.0831 254.884 62.3444 254.884 64.5084V77.1697C254.884 79.3551 254.799 79.9684 252.929 80.1124V80.6711H259.283V80.1124C257.453 80.0004 257.22 79.4457 257.22 77.4857V71.7391L258.492 71.6777L263.945 80.6711H267.636V80.1124ZM257.22 63.4617C257.22 62.6111 257.424 62.4044 258.643 62.4044C259.572 62.4044 262.571 62.5017 262.571 66.3884C262.571 70.5631 259.143 70.6217 257.22 70.6484V63.4617Z" fill="#231916"/>
</g>
<mask id="mask36_1_19214" style="mask-type:luminance" maskUnits="userSpaceOnUse" x="-197" y="-408" width="780" height="1123">
<path d="M-196.327 714.52H582.117V-408H-196.327V714.52Z" fill="white"/>
</mask>
<g mask="url(#mask36_1_19214)">
<path d="M266.688 80.1124C268.633 80.0591 268.897 79.5604 268.897 77.4804V64.5071C268.897 62.3444 268.588 61.9977 266.688 61.8764V61.3191H273.496V61.8764C271.813 61.9684 271.244 62.1724 271.244 64.5071V77.4804C271.244 79.7604 271.797 80.0591 273.496 80.1124V80.6711H266.688V80.1124Z" fill="#231916"/>
</g>
<mask id="mask37_1_19214" style="mask-type:luminance" maskUnits="userSpaceOnUse" x="-197" y="-408" width="780" height="1123">
<path d="M-196.327 714.52H582.117V-408H-196.327V714.52Z" fill="white"/>
</mask>
<g mask="url(#mask37_1_19214)">
<path d="M284.795 80.6718H278.1V80.1131C280.188 79.9998 280.26 79.3278 280.26 77.1611V62.5424H279.014C276.488 62.5424 275.87 63.0998 275.358 66.2864H274.811L274.954 61.3184H287.897L288.037 66.2864H287.487C287.001 63.0731 286.355 62.5424 283.828 62.5424H282.589V77.4811C282.589 79.4691 282.865 80.0211 284.795 80.1131V80.6718Z" fill="#231916"/>
</g>
<mask id="mask38_1_19214" style="mask-type:luminance" maskUnits="userSpaceOnUse" x="-197" y="-408" width="780" height="1123">
<path d="M-196.327 714.52H582.117V-408H-196.327V714.52Z" fill="white"/>
</mask>
<g mask="url(#mask38_1_19214)">
<path d="M288.85 80.1124C290.794 80.0591 291.066 79.5604 291.066 77.4804V64.5071C291.066 62.3444 290.753 61.9977 288.85 61.8764V61.3191H295.653V61.8764C293.979 61.9684 293.414 62.1724 293.414 64.5071V77.4804C293.414 79.7604 293.955 80.0591 295.653 80.1124V80.6711H288.85V80.1124Z" fill="#231916"/>
</g>
<mask id="mask39_1_19214" style="mask-type:luminance" maskUnits="userSpaceOnUse" x="-197" y="-408" width="780" height="1123">
<path d="M-196.327 714.52H582.117V-408H-196.327V714.52Z" fill="white"/>
</mask>
<g mask="url(#mask39_1_19214)">
<path d="M335.562 80.1124C337.514 80.0591 337.783 79.5604 337.783 77.4804V64.5071C337.783 62.3444 337.46 61.9977 335.562 61.8764V61.3191H342.373V61.8764C340.696 61.9684 340.124 62.1724 340.124 64.5071V77.4804C340.124 79.7604 340.673 80.0591 342.373 80.1124V80.6711H335.562V80.1124Z" fill="#231916"/>
</g>
<mask id="mask40_1_19214" style="mask-type:luminance" maskUnits="userSpaceOnUse" x="-197" y="-408" width="780" height="1123">
<path d="M-196.327 714.52H582.117V-408H-196.327V714.52Z" fill="white"/>
</mask>
<g mask="url(#mask40_1_19214)">
<path d="M359.511 61.8761C358.071 62.0828 357.327 62.2001 357.327 65.6228V81.0028H356.944L346.855 64.9775H346.816V76.3748C346.816 79.3801 347.293 80.0215 348.97 80.1121V80.6721H343.586V80.1121C345.324 79.9655 345.808 79.5281 345.808 76.3748V63.4855C344.872 62.0215 344.503 61.8761 343.586 61.8761V61.3188H347.507L356.28 75.3761H356.323V65.6228C356.323 62.2601 355.685 62.0215 354.126 61.8761V61.3188H359.511V61.8761Z" fill="#231916"/>
</g>
<mask id="mask41_1_19214" style="mask-type:luminance" maskUnits="userSpaceOnUse" x="-197" y="-408" width="780" height="1123">
<path d="M-196.327 714.52H582.117V-408H-196.327V714.52Z" fill="white"/>
</mask>
<g mask="url(#mask41_1_19214)">
<path d="M360.949 78.9295L360.448 74.8442H360.965C361.383 76.2135 362.535 80.0135 365.537 80.0135C367.312 80.0135 368.206 78.3455 368.206 76.7708C368.206 75.1068 367.845 74.1148 364.577 71.6015C362.535 70.0575 361.094 68.7735 361.094 65.8762C361.094 62.5522 363.128 60.9228 365.13 60.9228C366.465 60.9228 367.807 61.5282 368.225 61.9082L369.414 62.9935L369.953 67.1388H369.398C369.02 64.7455 367.595 62.1148 365.266 62.1148C364.153 62.1148 363.015 63.0228 363.015 64.8255C363.015 69.2095 370.442 69.7935 370.442 75.7788C370.442 78.2602 368.931 81.0735 365.756 81.0735C364.068 81.0735 362.868 80.4495 362.303 80.0748C362.303 80.0748 361.199 79.1842 360.949 78.9295Z" fill="#231916"/>
</g>
<mask id="mask42_1_19214" style="mask-type:luminance" maskUnits="userSpaceOnUse" x="-197" y="-408" width="780" height="1123">
<path d="M-196.327 714.52H582.117V-408H-196.327V714.52Z" fill="white"/>
</mask>
<g mask="url(#mask42_1_19214)">
<path d="M380.885 80.6718H374.189V80.1131C376.283 79.9998 376.345 79.3278 376.345 77.1611V62.5424H375.108C372.576 62.5424 371.964 63.0998 371.458 66.2864H370.905L371.038 61.3184H383.99L384.13 66.2864H383.579C383.099 63.0731 382.447 62.5424 379.933 62.5424H378.69V77.4811C378.69 79.4691 378.964 80.0211 380.885 80.1131V80.6718Z" fill="#231916"/>
</g>
<mask id="mask43_1_19214" style="mask-type:luminance" maskUnits="userSpaceOnUse" x="-197" y="-408" width="780" height="1123">
<path d="M-196.327 714.52H582.117V-408H-196.327V714.52Z" fill="white"/>
</mask>
<g mask="url(#mask43_1_19214)">
<path d="M384.94 80.1124C386.893 80.0591 387.164 79.5604 387.164 77.4804V64.5071C387.164 62.3444 386.84 61.9977 384.94 61.8764V61.3191H391.749V61.8764C390.074 61.9684 389.493 62.1724 389.493 64.5071V77.4804C389.493 79.7604 390.051 80.0591 391.749 80.1124V80.6711H384.94V80.1124Z" fill="#231916"/>
</g>
<mask id="mask44_1_19214" style="mask-type:luminance" maskUnits="userSpaceOnUse" x="-197" y="-408" width="780" height="1123">
<path d="M-196.327 714.52H582.117V-408H-196.327V714.52Z" fill="white"/>
</mask>
<g mask="url(#mask44_1_19214)">
<path d="M403.053 80.6718H396.354V80.1131C398.441 79.9998 398.508 79.3278 398.508 77.1611V62.5424H397.265C394.749 62.5424 394.123 63.0998 393.618 66.2864H393.066L393.202 61.3184H406.154L406.287 66.2864H405.739C405.259 63.0731 404.613 62.5424 402.095 62.5424H400.849V77.4811C400.849 79.4691 401.119 80.0211 403.053 80.1131V80.6718Z" fill="#231916"/>
</g>
<mask id="mask45_1_19214" style="mask-type:luminance" maskUnits="userSpaceOnUse" x="-197" y="-408" width="780" height="1123">
<path d="M-196.327 714.52H582.117V-408H-196.327V714.52Z" fill="white"/>
</mask>
<g mask="url(#mask45_1_19214)">
<path d="M422.844 61.8762C421.074 62.1148 420.686 62.5522 420.686 65.6202V73.2415C420.686 75.5708 420.686 81.0735 414.757 81.0735C409.066 81.0735 409.066 75.3735 409.066 73.6175V64.5082C409.066 62.3442 408.749 62.0215 407.009 61.8762V61.3188H413.487V61.8762C411.684 62.0535 411.408 62.4295 411.408 64.5082V73.8548C411.408 75.7202 411.408 79.7855 415.392 79.7855C417.184 79.7855 418.486 78.8442 419.159 77.4722C419.453 76.8295 419.684 75.8682 419.684 73.5042V65.6202C419.684 62.4935 419.131 61.9975 417.52 61.8762V61.3188H422.844V61.8762Z" fill="#231916"/>
</g>
<mask id="mask46_1_19214" style="mask-type:luminance" maskUnits="userSpaceOnUse" x="-197" y="-408" width="780" height="1123">
<path d="M-196.327 714.52H582.117V-408H-196.327V714.52Z" fill="white"/>
</mask>
<g mask="url(#mask46_1_19214)">
<path d="M433.425 80.6718H426.73V80.1131C428.82 79.9998 428.882 79.3278 428.882 77.1611V62.5424H427.641C425.118 62.5424 424.5 63.0998 423.99 66.2864H423.441L423.584 61.3184H436.532L436.666 66.2864H436.117C435.633 63.0731 434.996 62.5424 432.468 62.5424H431.223V77.4811C431.223 79.4691 431.5 80.0211 433.425 80.1131V80.6718Z" fill="#231916"/>
</g>
<mask id="mask47_1_19214" style="mask-type:luminance" maskUnits="userSpaceOnUse" x="-197" y="-408" width="780" height="1123">
<path d="M-196.327 714.52H582.117V-408H-196.327V714.52Z" fill="white"/>
</mask>
<g mask="url(#mask47_1_19214)">
<path d="M223.547 10.8606H218.359V8.13389C218.359 7.69389 218.009 7.34056 217.585 7.34056H211.954C211.954 7.34056 211.176 7.32189 211.536 7.95389C211.536 7.95389 212.021 8.08856 212.152 8.28589C212.152 8.28589 212.786 8.84856 212.973 9.51789V10.8606H208.242C207.798 10.8606 207.428 11.2326 207.428 11.6939C207.428 12.1486 207.798 12.5192 208.242 12.5192H223.547C224.001 12.5192 224.362 12.1486 224.362 11.6939C224.362 11.2326 224.001 10.8606 223.547 10.8606Z" fill="#231916"/>
</g>
</g>
<defs>
<linearGradient id="paint0_linear_1_19214" x1="72.4447" y1="21.4784" x2="72.4447" y2="64.5241" gradientUnits="userSpaceOnUse">
<stop stop-color="#8EC1E5"/>
<stop offset="1" stop-color="#003269"/>
</linearGradient>
<clipPath id="clip0_1_19214">
<rect width="450" height="88" fill="white"/>
</clipPath>
</defs>
</svg>
