<svg width="167" height="32" viewBox="0 0 167 32" fill="none" xmlns="http://www.w3.org/2000/svg">
<g clip-path="url(#clip0_1_19643)">
<mask id="mask0_1_19643" style="mask-type:luminance" maskUnits="userSpaceOnUse" x="1" y="-1" width="34" height="33">
<path d="M1.63066 31.9453H34.1253V-0.473389H1.63066V31.9453Z" fill="white"/>
</mask>
<g mask="url(#mask0_1_19643)">
<path d="M17.8776 -0.469204C23.1949 -0.469204 28.5136 -0.466541 33.8296 -0.474541C34.0749 -0.474541 34.1269 -0.427876 34.1256 -0.179874C34.1163 10.4295 34.1163 21.0415 34.1256 31.6535C34.1269 31.8975 34.0749 31.9481 33.8309 31.9455C23.1949 31.9401 12.5589 31.9401 1.92561 31.9455C1.68027 31.9481 1.62961 31.8975 1.62961 31.6535C1.63761 21.0415 1.63761 10.4295 1.62961 -0.179874C1.62961 -0.427876 1.68027 -0.474541 1.92561 -0.474541C7.24028 -0.466541 12.5589 -0.469204 17.8776 -0.469204Z" fill="white"/>
</g>
<mask id="mask1_1_19643" style="mask-type:luminance" maskUnits="userSpaceOnUse" x="1" y="-1" width="34" height="33">
<path d="M1.63066 31.9453H34.1253V-0.473389H1.63066V31.9453Z" fill="white"/>
</mask>
<g mask="url(#mask1_1_19643)">
<path d="M22.0964 16.1297C23.4377 16.1297 24.7764 16.1377 26.1177 16.1243C26.3804 16.1217 26.4577 16.1817 26.4497 16.4603C26.4057 18.6737 26.0897 20.843 25.4897 22.9763C25.4351 23.1683 25.3484 23.2777 25.1471 23.335C22.8337 23.999 20.4751 24.3377 18.0671 24.3563C17.8004 24.3563 17.7257 24.291 17.7284 24.0203C17.7377 21.4937 17.7391 18.971 17.7257 16.4443C17.7244 16.151 17.8311 16.1243 18.0764 16.127C19.4164 16.135 20.7564 16.1297 22.0964 16.1297Z" fill="#27A4DD"/>
</g>
<mask id="mask2_1_19643" style="mask-type:luminance" maskUnits="userSpaceOnUse" x="1" y="-1" width="34" height="33">
<path d="M1.63068 31.9453H34.1253V-0.473389H1.63068V31.9453Z" fill="white"/>
</mask>
<g mask="url(#mask2_1_19643)">
<path d="M22.0937 15.4838C20.7524 15.4838 19.4111 15.4758 18.0697 15.4891C17.8151 15.4918 17.7244 15.4478 17.7257 15.1638C17.7391 12.6505 17.7351 10.1371 17.7297 7.62248C17.7284 7.37448 17.7644 7.26781 18.0524 7.27315C20.4604 7.30381 22.8231 7.62648 25.1364 8.30115C25.3417 8.36115 25.4524 8.45715 25.5111 8.67448C26.0991 10.7958 26.3991 12.9598 26.4564 15.1611C26.4631 15.4425 26.3711 15.4918 26.1151 15.4891C24.7751 15.4758 23.4337 15.4838 22.0937 15.4838Z" fill="#27A4DD"/>
</g>
<mask id="mask3_1_19643" style="mask-type:luminance" maskUnits="userSpaceOnUse" x="1" y="-1" width="34" height="33">
<path d="M1.63068 31.9453H34.1253V-0.473389H1.63068V31.9453Z" fill="white"/>
</mask>
<g mask="url(#mask3_1_19643)">
<path d="M17.0885 20.2312C17.0885 21.4992 17.0819 22.7699 17.0925 24.0379C17.0939 24.2699 17.0352 24.3486 16.7939 24.3406C14.6805 24.2726 12.6045 23.9526 10.5659 23.3792C10.3765 23.3246 10.3419 23.1899 10.3005 23.0379C9.8312 21.3739 9.51653 19.6846 9.39386 17.9579C9.35653 17.4446 9.34853 16.9312 9.31386 16.4192C9.2992 16.2072 9.34586 16.1246 9.5792 16.1272C11.9992 16.1326 14.4165 16.1352 16.8325 16.1246C17.0859 16.1219 17.0925 16.2366 17.0912 16.4246C17.0859 17.6952 17.0885 18.9632 17.0885 20.2312Z" fill="#27A4DD"/>
</g>
<mask id="mask4_1_19643" style="mask-type:luminance" maskUnits="userSpaceOnUse" x="1" y="-1" width="34" height="33">
<path d="M1.63068 31.9453H34.1253V-0.473389H1.63068V31.9453Z" fill="white"/>
</mask>
<g mask="url(#mask4_1_19643)">
<path d="M17.0885 11.3874C17.0885 12.6447 17.0819 13.9034 17.0925 15.1581C17.0939 15.3901 17.0645 15.4914 16.7899 15.4914C14.3952 15.4781 12.0019 15.4807 9.60852 15.4887C9.37119 15.4887 9.30319 15.4234 9.30986 15.1901C9.35386 12.9367 9.68319 10.7314 10.2872 8.56206C10.3392 8.37673 10.4405 8.29406 10.6219 8.24206C12.5765 7.68739 14.5725 7.39273 16.6032 7.29673C17.0872 7.27273 17.0885 7.27806 17.0885 7.75939V11.3874Z" fill="#27A4DD"/>
</g>
<mask id="mask5_1_19643" style="mask-type:luminance" maskUnits="userSpaceOnUse" x="1" y="-1" width="34" height="33">
<path d="M1.63066 31.9453H34.1253V-0.473389H1.63066V31.9453Z" fill="white"/>
</mask>
<g mask="url(#mask5_1_19643)">
<path d="M21.1276 0.616564C27.6823 2.0019 32.2129 7.41656 33.0943 12.8819C31.4569 10.3432 28.9956 8.9859 26.2663 8.0099C26.0249 7.9219 25.9036 7.79656 25.8223 7.55656C25.1556 5.56456 24.2449 3.70456 22.8356 2.11656C22.3503 1.57256 21.7916 1.10323 21.1276 0.616564Z" fill="#27A4DD"/>
</g>
<mask id="mask6_1_19643" style="mask-type:luminance" maskUnits="userSpaceOnUse" x="1" y="-1" width="34" height="33">
<path d="M1.63068 31.9453H34.1253V-0.473389H1.63068V31.9453Z" fill="white"/>
</mask>
<g mask="url(#mask6_1_19643)">
<path d="M32.9869 18.9395C32.5496 21.4862 31.4576 23.7155 29.8309 25.6902C27.3216 28.7449 23.7989 30.4729 21.1589 30.9182C23.0256 29.6302 24.2176 27.8249 25.1296 25.8062C25.3856 25.2395 25.6336 24.6662 25.8029 24.0675C25.8669 23.8355 25.9989 23.7235 26.2269 23.6422C27.9309 23.0489 29.5416 22.2729 30.9576 21.1329C31.6483 20.5755 32.2683 19.9449 32.7789 19.2129C32.8443 19.1195 32.9163 19.0302 32.9869 18.9395Z" fill="#27A4DD"/>
</g>
<mask id="mask7_1_19643" style="mask-type:luminance" maskUnits="userSpaceOnUse" x="1" y="-1" width="34" height="33">
<path d="M1.63066 31.9453H34.1253V-0.473389H1.63066V31.9453Z" fill="white"/>
</mask>
<g mask="url(#mask7_1_19643)">
<path d="M14.5364 0.663599C13.9711 1.10893 13.4204 1.57293 12.9444 2.10627C11.5977 3.61693 10.6991 5.37693 10.0497 7.27293C9.91506 7.66627 9.7204 7.86627 9.32573 8.00227C7.27906 8.69693 5.38573 9.67693 3.8124 11.1996C3.50973 11.4916 3.23373 11.8063 2.97773 12.1396C2.92306 12.2103 2.88706 12.3116 2.76973 12.3223C3.99506 6.6196 8.7124 1.85427 14.5364 0.663599Z" fill="#27A4DD"/>
</g>
<mask id="mask8_1_19643" style="mask-type:luminance" maskUnits="userSpaceOnUse" x="1" y="-1" width="34" height="33">
<path d="M1.63066 31.9453H34.1253V-0.473389H1.63066V31.9453Z" fill="white"/>
</mask>
<g mask="url(#mask8_1_19643)">
<path d="M2.80988 19.2936C3.00454 19.5309 3.19388 19.7696 3.39921 19.9989C4.62054 21.3616 6.13921 22.3016 7.79121 23.0416C8.30321 23.2696 8.81654 23.5123 9.36188 23.6509C9.75121 23.7496 9.93921 23.9656 10.0672 24.3456C10.6259 25.9989 11.4059 27.5443 12.4912 28.9243C13.0459 29.6323 13.6859 30.2549 14.4245 30.7936C13.3485 31.1536 8.88721 28.7496 6.93788 26.7883C4.84854 24.6869 3.45921 22.1976 2.80988 19.2936Z" fill="#27A4DD"/>
</g>
<mask id="mask9_1_19643" style="mask-type:luminance" maskUnits="userSpaceOnUse" x="1" y="-1" width="34" height="33">
<path d="M1.63066 31.9453H34.1253V-0.473389H1.63066V31.9453Z" fill="white"/>
</mask>
<g mask="url(#mask9_1_19643)">
<path d="M25.1563 7.64276C24.1176 7.34809 23.1269 7.12943 22.1256 6.97076C20.7883 6.75743 19.4429 6.64276 18.0909 6.64276C17.7749 6.64276 17.7256 6.53876 17.7283 6.25476C17.7403 4.38809 17.7443 2.52276 17.7229 0.656096C17.7189 0.285429 17.8616 0.252095 18.1563 0.273428C19.5469 0.364095 20.6923 0.984095 21.7043 1.89743C22.9696 3.04143 23.8389 4.46543 24.5309 6.00409C24.7616 6.51476 24.9976 7.02809 25.1563 7.64276Z" fill="#27A4DD"/>
</g>
<mask id="mask10_1_19643" style="mask-type:luminance" maskUnits="userSpaceOnUse" x="1" y="-1" width="34" height="33">
<path d="M1.63066 31.9453H34.1253V-0.473389H1.63066V31.9453Z" fill="white"/>
</mask>
<g mask="url(#mask10_1_19643)">
<path d="M25.1524 24.0436C24.1617 26.6396 22.9551 29.0196 20.5324 30.5356C19.7577 31.0196 18.9084 31.2809 17.9884 31.2983C17.7804 31.3009 17.7297 31.2343 17.7311 31.0356C17.7351 29.1063 17.7337 27.1796 17.7311 25.2516C17.7311 25.0849 17.7497 24.9889 17.9577 24.9889C20.3417 24.9943 22.6817 24.6863 24.9804 24.0436C25.0124 24.0356 25.0471 24.0436 25.1524 24.0436Z" fill="#27A4DD"/>
</g>
<mask id="mask11_1_19643" style="mask-type:luminance" maskUnits="userSpaceOnUse" x="1" y="-1" width="34" height="33">
<path d="M1.63066 31.9453H34.1253V-0.473389H1.63066V31.9453Z" fill="white"/>
</mask>
<g mask="url(#mask11_1_19643)">
<path d="M9.61587 23.0594C8.58253 22.7314 7.64787 22.3047 6.7532 21.8021C5.25987 20.9714 3.94787 19.9341 3.0492 18.4447C2.6892 17.8461 2.43587 17.2047 2.36654 16.5021C2.34254 16.2647 2.3572 16.1167 2.68654 16.1221C4.57587 16.1407 6.4652 16.1327 8.35454 16.1274C8.56387 16.1274 8.67587 16.1474 8.67853 16.4087C8.71187 18.5927 9.00787 20.7447 9.58787 22.8541C9.59853 22.8981 9.59987 22.9447 9.61587 23.0594Z" fill="#27A4DD"/>
</g>
<mask id="mask12_1_19643" style="mask-type:luminance" maskUnits="userSpaceOnUse" x="1" y="-1" width="34" height="33">
<path d="M1.63066 31.9453H34.1253V-0.473389H1.63066V31.9453Z" fill="white"/>
</mask>
<g mask="url(#mask12_1_19643)">
<path d="M9.6016 8.588C9.47894 9.11466 9.3616 9.58533 9.25894 10.0613C8.89894 11.7387 8.69627 13.4347 8.67894 15.1507C8.6776 15.408 8.6136 15.4947 8.33894 15.492C6.4616 15.4787 4.5816 15.4707 2.7056 15.4947C2.31627 15.4973 2.34427 15.312 2.3776 15.0573C2.53094 13.8693 3.1296 12.9027 3.90694 12.0387C5.0656 10.7493 6.5096 9.872 8.0736 9.17333C8.5536 8.96 9.0336 8.744 9.6016 8.588Z" fill="#27A4DD"/>
</g>
<mask id="mask13_1_19643" style="mask-type:luminance" maskUnits="userSpaceOnUse" x="1" y="-1" width="34" height="33">
<path d="M1.63068 31.9453H34.1253V-0.473389H1.63068V31.9453Z" fill="white"/>
</mask>
<g mask="url(#mask13_1_19643)">
<path d="M26.1849 22.9161C26.2956 22.4401 26.4143 21.9547 26.5196 21.4681C26.8716 19.8281 27.0649 18.1654 27.0823 16.4867C27.0863 16.2214 27.1383 16.1187 27.4356 16.1214C29.2649 16.1374 31.0983 16.1347 32.9276 16.1241C33.1929 16.1241 33.2649 16.1641 33.2183 16.4574C32.9929 17.9841 32.1676 19.1614 31.0809 20.1761C29.7329 21.4374 28.1116 22.2521 26.3996 22.9027C26.3369 22.9267 26.2743 22.9814 26.1849 22.9161Z" fill="#27A4DD"/>
</g>
<mask id="mask14_1_19643" style="mask-type:luminance" maskUnits="userSpaceOnUse" x="1" y="-1" width="34" height="33">
<path d="M1.63068 31.9453H34.1253V-0.473389H1.63068V31.9453Z" fill="white"/>
</mask>
<g mask="url(#mask14_1_19643)">
<path d="M26.1823 8.67127C26.7183 8.81661 27.1689 9.03127 27.6196 9.23661C29.3049 10.0073 30.8369 10.9859 32.0036 12.4633C32.6436 13.2753 33.0823 14.1793 33.2249 15.2179C33.2543 15.4193 33.2289 15.4886 33.0076 15.4886C31.1289 15.4806 29.2463 15.4779 27.3663 15.4913C27.0969 15.4913 27.0876 15.3646 27.0863 15.1659C27.0623 13.3273 26.8383 11.5126 26.4369 9.72061C26.3636 9.38461 26.2743 9.05394 26.1823 8.67127Z" fill="#27A4DD"/>
</g>
<mask id="mask15_1_19643" style="mask-type:luminance" maskUnits="userSpaceOnUse" x="1" y="-1" width="34" height="33">
<path d="M1.63066 31.9453H34.1253V-0.473389H1.63066V31.9453Z" fill="white"/>
</mask>
<g mask="url(#mask15_1_19643)">
<path d="M10.6172 7.5802C10.9479 6.55353 11.3679 5.64553 11.8559 4.77087C12.6972 3.24953 13.7492 1.91887 15.2625 1.00953C15.8119 0.681533 16.3985 0.449533 17.0359 0.342867C17.1279 0.446867 17.0865 0.5722 17.0865 0.681534C17.0892 2.54953 17.0812 4.41887 17.0945 6.28553C17.0959 6.59087 17.0039 6.6482 16.7145 6.65887C14.6745 6.7282 12.6652 7.0122 10.6172 7.5802Z" fill="#27A4DD"/>
</g>
<mask id="mask16_1_19643" style="mask-type:luminance" maskUnits="userSpaceOnUse" x="1" y="-1" width="34" height="33">
<path d="M1.63068 31.9453H34.1253V-0.473389H1.63068V31.9453Z" fill="white"/>
</mask>
<g mask="url(#mask16_1_19643)">
<path d="M10.6341 24.0853C11.2395 24.2213 11.7581 24.3427 12.2808 24.452C13.7715 24.768 15.2781 24.9453 16.8008 24.9733C17.0475 24.9787 17.0941 25.0587 17.0928 25.2827C17.0848 27.1733 17.0861 29.064 17.0928 30.9547C17.0928 31.1693 17.0701 31.2413 16.8168 31.1813C15.8861 30.9627 15.0755 30.52 14.3541 29.916C12.5221 28.3853 11.4848 26.3427 10.6341 24.0853Z" fill="#27A4DD"/>
</g>
<mask id="mask17_1_19643" style="mask-type:luminance" maskUnits="userSpaceOnUse" x="-314" y="-545" width="794" height="1123">
<path d="M-314 -544.985H479.707V577.535H-314V-544.985Z" fill="white"/>
</mask>
<g mask="url(#mask17_1_19643)">
<path d="M34.7044 15.7937C34.7044 18.223 27.1044 20.1924 17.7311 20.1924C8.35507 20.1924 0.755066 18.223 0.755066 15.7937C0.755066 13.3644 8.35507 11.395 17.7311 11.395C27.1044 11.395 34.7044 13.3644 34.7044 15.7937Z" stroke="#024C77" stroke-width="0.666667" stroke-miterlimit="10"/>
</g>
<mask id="mask18_1_19643" style="mask-type:luminance" maskUnits="userSpaceOnUse" x="-314" y="-545" width="794" height="1123">
<path d="M-314 -544.985H479.707V577.535H-314V-544.985Z" fill="white"/>
</mask>
<g mask="url(#mask18_1_19643)">
<path d="M4.25519 18.4578H3.06985V13.3272H4.25519V15.4218L6.42319 13.3272H7.94985L5.63919 15.4338L8.09119 18.4578H6.54985L4.81252 16.2072L4.25519 16.7232V18.4578Z" fill="white"/>
</g>
<mask id="mask19_1_19643" style="mask-type:luminance" maskUnits="userSpaceOnUse" x="-314" y="-545" width="794" height="1123">
<path d="M-314 -544.985H479.707V577.535H-314V-544.985Z" fill="white"/>
</mask>
<g mask="url(#mask19_1_19643)">
<path d="M13.0612 15.0308C12.9865 14.7801 12.8905 14.5961 12.7692 14.4734C12.5572 14.2548 12.2412 14.1454 11.8252 14.1454C11.4532 14.1454 11.1412 14.2601 10.8932 14.4868C10.5652 14.7908 10.4012 15.2654 10.4012 15.9054C10.4012 16.4028 10.5105 16.8068 10.7292 17.1161C10.9772 17.4708 11.3425 17.6481 11.8252 17.6481C12.1532 17.6481 12.4212 17.5641 12.6292 17.3974C12.8425 17.2334 12.9865 16.9948 13.0612 16.6788H14.2599C14.1265 17.2628 13.8612 17.7188 13.4625 18.0468C13.0319 18.4028 12.4759 18.5828 11.7959 18.5828C11.0092 18.5828 10.3852 18.3534 9.9252 17.8948C9.4372 17.4161 9.19586 16.7468 9.19586 15.8881C9.19586 15.0361 9.44386 14.3721 9.94653 13.8908C10.4199 13.4374 11.0372 13.2108 11.8012 13.2108C12.5732 13.2108 13.1852 13.4161 13.6439 13.8334C14.0119 14.1708 14.2159 14.5721 14.2599 15.0308H13.0612Z" fill="white"/>
</g>
<mask id="mask20_1_19643" style="mask-type:luminance" maskUnits="userSpaceOnUse" x="-314" y="-545" width="794" height="1123">
<path d="M-314 -544.985H479.707V577.535H-314V-544.985Z" fill="white"/>
</mask>
<g mask="url(#mask20_1_19643)">
<path d="M16.8984 17.3068C17.1651 17.5441 17.4997 17.6614 17.9037 17.6614C18.2997 17.6614 18.6344 17.5441 18.9024 17.3068C19.2557 17.0014 19.4317 16.5308 19.4317 15.8921C19.4317 15.2521 19.2557 14.7761 18.9024 14.4654C18.6344 14.2308 18.2997 14.1134 17.9037 14.1134C17.4997 14.1134 17.1651 14.2308 16.8984 14.4654C16.5504 14.7761 16.3757 15.2521 16.3757 15.8921C16.3757 16.5308 16.5504 17.0014 16.8984 17.3068ZM16.2637 13.6428C16.7317 13.3454 17.2784 13.1974 17.9037 13.1974C18.5237 13.1974 19.0677 13.3454 19.5357 13.6428C20.2544 14.1014 20.6144 14.8508 20.6144 15.8921C20.6144 16.9268 20.2544 17.6734 19.5357 18.1294C19.0624 18.4321 18.5211 18.5828 17.9037 18.5828C17.2824 18.5828 16.7371 18.4321 16.2637 18.1294C15.5504 17.6734 15.1917 16.9268 15.1917 15.8921C15.1917 14.8508 15.5504 14.1014 16.2637 13.6428Z" fill="white"/>
</g>
<mask id="mask21_1_19643" style="mask-type:luminance" maskUnits="userSpaceOnUse" x="-314" y="-545" width="794" height="1123">
<path d="M-314 -544.985H479.707V577.535H-314V-544.985Z" fill="white"/>
</mask>
<g mask="url(#mask21_1_19643)">
<path d="M27.1576 18.4578H26.0469V14.4738L24.9816 18.4578H23.8336L22.7909 14.4738H22.7669V18.4578H21.6576V13.3272H23.4016L24.4376 17.2072H24.4443L25.4443 13.3272H27.1576V18.4578Z" fill="white"/>
</g>
<mask id="mask22_1_19643" style="mask-type:luminance" maskUnits="userSpaceOnUse" x="-314" y="-545" width="794" height="1123">
<path d="M-314 -544.985H479.707V577.535H-314V-544.985Z" fill="white"/>
</mask>
<g mask="url(#mask22_1_19643)">
<path d="M30.7031 15.7365C31.0791 15.7365 31.3391 15.6298 31.4791 15.4165C31.5511 15.2965 31.5911 15.1378 31.5911 14.9312C31.5911 14.6792 31.5044 14.4938 31.3364 14.3818C31.1724 14.2672 30.9124 14.2125 30.5537 14.2125H29.6444V15.7365H30.7031ZM29.6444 18.4578H28.4524V13.3272H31.0084C31.5537 13.3272 31.9857 13.4765 32.3031 13.7725C32.6177 14.0645 32.7737 14.4658 32.7737 14.9765C32.7684 15.3378 32.6591 15.6685 32.4377 15.9658C32.1177 16.3978 31.6231 16.6112 30.9631 16.6112H29.6444V18.4578Z" fill="white"/>
</g>
<mask id="mask23_1_19643" style="mask-type:luminance" maskUnits="userSpaceOnUse" x="-314" y="-545" width="794" height="1123">
<path d="M-314 -544.985H479.707V577.535H-314V-544.985Z" fill="white"/>
</mask>
<g mask="url(#mask23_1_19643)">
<path d="M52.6028 10.4032V14.7579H50.6481V3.76719H52.6028V8.74719H54.9161V10.4032H52.6028ZM45.2161 9.14852C44.5975 9.14852 44.1215 9.26052 43.7841 9.48186C43.4468 9.70319 43.2761 10.0045 43.2761 10.3845C43.2761 10.7725 43.4428 11.0832 43.7721 11.3125C44.1015 11.5419 44.5828 11.6552 45.2161 11.6552C45.8575 11.6552 46.3455 11.5419 46.6761 11.3179C47.0095 11.0885 47.1761 10.7779 47.1761 10.3845C47.1761 9.99919 47.0055 9.69519 46.6668 9.47652C46.3255 9.25519 45.8428 9.14852 45.2161 9.14852ZM42.8855 18.4192V13.9472H44.8615V16.7632H53.0268V18.4192H42.8855ZM45.1988 13.2579C44.0281 13.2579 43.0841 12.9885 42.3721 12.4499C41.6588 11.9112 41.3015 11.2232 41.3015 10.3845C41.3015 9.55919 41.6548 8.87519 42.3641 8.33252C43.0735 7.79386 44.0215 7.52319 45.2161 7.52319C46.4081 7.52319 47.3575 7.79119 48.0708 8.32986C48.7815 8.86986 49.1361 9.55386 49.1361 10.3845C49.1361 11.2179 48.7801 11.9059 48.0655 12.4445C47.3521 12.9872 46.3975 13.2579 45.1988 13.2579ZM40.5401 6.83519V5.25786H44.1855V3.55652H46.1655V5.25786H49.8108V6.83519H40.5401Z" fill="#186CB6"/>
</g>
<mask id="mask24_1_19643" style="mask-type:luminance" maskUnits="userSpaceOnUse" x="-314" y="-545" width="794" height="1123">
<path d="M-314 -544.985H479.707V577.535H-314V-544.985Z" fill="white"/>
</mask>
<g mask="url(#mask24_1_19643)">
<path d="M66.4857 18.8953V14.6927H58.3044V13.0207H62.4057V10.8327H56.4937V9.17932H66.3351C66.4137 7.94999 66.4537 6.81132 66.4537 5.75666H58.6964V4.10332H68.4297C68.4297 5.44732 68.3631 7.14066 68.2337 9.17932H70.5297V10.8327H64.3671V13.0207H68.4617V18.8953H66.4857Z" fill="#186CB6"/>
</g>
<mask id="mask25_1_19643" style="mask-type:luminance" maskUnits="userSpaceOnUse" x="-314" y="-545" width="794" height="1123">
<path d="M-314 -544.985H479.707V577.535H-314V-544.985Z" fill="white"/>
</mask>
<g mask="url(#mask25_1_19643)">
<path d="M83.7864 18.8953V11.7833H82.6731V18.4313H80.8144V4.05666H82.6731V10.1273H83.7864V3.76733H85.7077V18.8953H83.7864ZM76.3277 10.034C75.8531 10.034 75.4811 10.198 75.2171 10.534C74.9531 10.8647 74.8211 11.3113 74.8211 11.874C74.8211 12.4393 74.9571 12.898 75.2251 13.242C75.4944 13.586 75.8624 13.7567 76.3277 13.7567C76.7891 13.7567 77.1531 13.586 77.4211 13.242C77.6917 12.898 77.8264 12.4393 77.8264 11.874C77.8264 11.3167 77.6931 10.8687 77.4291 10.5353C77.1664 10.202 76.7971 10.034 76.3277 10.034ZM76.3277 15.4447C75.3144 15.4447 74.4904 15.1193 73.8571 14.4633C73.2237 13.8113 72.9091 12.95 72.9091 11.874C72.9091 10.8047 73.2197 9.94732 73.8451 9.29932C74.4691 8.65266 75.2971 8.32999 76.3277 8.32999C77.3424 8.32999 78.1597 8.65532 78.7824 9.30733C79.4037 9.95266 79.7157 10.81 79.7157 11.874C79.7157 12.95 79.4064 13.8113 78.7851 14.4633C78.1677 15.1193 77.3477 15.4447 76.3277 15.4447ZM72.4917 7.62466V5.98599H75.3304V4.12199H77.2917V5.98599H80.0531V7.62466H72.4917Z" fill="#186CB6"/>
</g>
<mask id="mask26_1_19643" style="mask-type:luminance" maskUnits="userSpaceOnUse" x="-314" y="-545" width="794" height="1123">
<path d="M-314 -544.985H479.707V577.535H-314V-544.985Z" fill="white"/>
</mask>
<g mask="url(#mask26_1_19643)">
<path d="M100.805 10.7546V12.5986H98.8353V3.76798H100.805V5.54665H103.103V7.19998H100.805V9.11465H103.103V10.7546H100.805ZM96.0047 14.4626C94.0007 14.4626 92.9993 14.9133 92.9993 15.812C92.9993 16.7333 94.0007 17.1946 96.0047 17.1946C98.018 17.1946 99.0247 16.7333 99.0247 15.812C99.0247 14.9133 98.018 14.4626 96.0047 14.4626ZM96.0047 18.8333C94.3993 18.8333 93.1607 18.5573 92.2793 18.0053C91.402 17.4546 90.9607 16.724 90.9607 15.812C90.9607 14.908 91.406 14.184 92.2953 13.64C93.1847 13.096 94.422 12.828 96.0047 12.828C97.5953 12.828 98.8327 13.096 99.7193 13.6373C100.606 14.1786 101.047 14.9026 101.047 15.812C101.047 16.728 100.609 17.46 99.7273 18.0066C98.846 18.56 97.606 18.8333 96.0047 18.8333ZM92.8767 5.80665C92.2473 5.80665 91.7487 6.00931 91.378 6.41331C91.006 6.81998 90.8207 7.33998 90.8207 7.97865C90.8207 8.61865 91.0047 9.14531 91.37 9.55198C91.7353 9.95465 92.238 10.1613 92.8767 10.1613C93.5047 10.1613 94.0047 9.95465 94.382 9.55198C94.758 9.14531 94.946 8.61865 94.946 7.97865C94.946 7.33998 94.7553 6.81998 94.3753 6.41331C93.9927 6.00931 93.494 5.80665 92.8767 5.80665ZM92.8767 11.7826C91.694 11.7826 90.726 11.4186 89.974 10.692C89.222 9.96265 88.846 9.06398 88.846 7.99465C88.846 6.90265 89.2207 5.99465 89.97 5.27865C90.722 4.55731 91.6887 4.19731 92.8767 4.19731C94.062 4.19731 95.0313 4.55731 95.7807 5.27865C96.5327 5.99465 96.9087 6.90265 96.9087 7.99465C96.9087 9.06398 96.5313 9.96265 95.778 10.692C95.026 11.4186 94.058 11.7826 92.8767 11.7826Z" fill="#186CB6"/>
</g>
<mask id="mask27_1_19643" style="mask-type:luminance" maskUnits="userSpaceOnUse" x="-314" y="-545" width="794" height="1123">
<path d="M-314 -544.985H479.707V577.535H-314V-544.985Z" fill="white"/>
</mask>
<g mask="url(#mask27_1_19643)">
<path d="M115.684 12.4265V8.76519H112.836V7.18653H115.684V3.76786H117.612V12.4265H115.684ZM112.852 14.1585C111.854 14.1585 111.106 14.2985 110.612 14.5825C110.12 14.8639 109.872 15.2332 109.872 15.6865C109.872 16.1425 110.121 16.5105 110.621 16.7905C111.121 17.0692 111.865 17.2105 112.852 17.2105C113.844 17.2105 114.594 17.0719 115.1 16.7932C115.604 16.5145 115.856 16.1479 115.856 15.6865C115.856 15.2385 115.605 14.8692 115.105 14.5852C114.606 14.3012 113.856 14.1585 112.852 14.1585ZM112.852 18.8332C111.288 18.8332 110.069 18.5412 109.193 17.9572C108.318 17.3772 107.88 16.6199 107.88 15.6865C107.88 14.7625 108.318 14.0079 109.197 13.4185C110.076 12.8305 111.294 12.5332 112.852 12.5332C114.416 12.5332 115.64 12.8305 116.521 13.4212C117.405 14.0119 117.848 14.7679 117.848 15.6865C117.848 16.6199 117.409 17.3772 116.528 17.9572C115.646 18.5412 114.421 18.8332 112.852 18.8332ZM112.616 12.1839C111.122 11.4399 109.996 10.5199 109.244 9.42119C108.968 9.99719 108.482 10.6119 107.786 11.2705C107.09 11.9265 106.433 12.4025 105.817 12.6999L104.422 11.3199C105.472 10.9212 106.364 10.2865 107.1 9.41053C107.833 8.53586 108.202 7.62652 108.202 6.69186V6.07986H105.08V4.44253H113.213V6.07986H110.169V6.62919C110.169 7.52786 110.513 8.34253 111.201 9.06653C111.889 9.79586 112.776 10.3359 113.864 10.6919L112.616 12.1839Z" fill="#186CB6"/>
</g>
<mask id="mask28_1_19643" style="mask-type:luminance" maskUnits="userSpaceOnUse" x="-314" y="-545" width="794" height="1123">
<path d="M-314 -544.985H479.707V577.535H-314V-544.985Z" fill="white"/>
</mask>
<g mask="url(#mask28_1_19643)">
<path d="M131.918 12.4865V9.43721H130.734V12.4865H128.803V4.07454H130.734V7.78388H131.918V3.76787H133.863V12.4865H131.918ZM131.903 18.8959V14.7985H123.825V13.1319H133.863V18.8959H131.903ZM127.086 12.3612C125.958 11.7839 125.047 10.9759 124.358 9.94787C123.803 10.9452 122.87 11.8985 121.558 12.8092L120.209 11.4785C121.139 11.0599 121.895 10.4679 122.482 9.70787C123.066 8.94521 123.361 8.17987 123.361 7.39854V7.01321H120.759V5.37454H123.361V3.76787H125.323V5.37454H127.901V7.01321H125.323V7.44521C125.323 8.15321 125.611 8.85054 126.186 9.54387C126.761 10.2359 127.459 10.7079 128.279 10.9599L127.086 12.3612Z" fill="#186CB6"/>
</g>
<mask id="mask29_1_19643" style="mask-type:luminance" maskUnits="userSpaceOnUse" x="-314" y="-545" width="794" height="1123">
<path d="M-314 -544.985H479.707V577.535H-314V-544.985Z" fill="white"/>
</mask>
<g mask="url(#mask29_1_19643)">
<path d="M145.353 9.57759H147.793V7.44425H145.383C145.446 7.76825 145.479 8.10559 145.479 8.45759C145.479 8.84825 145.437 9.22292 145.353 9.57759ZM139.989 18.3723V13.3749H141.957V16.7163H150.043V18.3723H139.989ZM141.369 5.95225C140.705 5.95225 140.174 6.17625 139.775 6.61892C139.381 7.05892 139.181 7.67092 139.181 8.45759C139.181 9.24159 139.381 9.85359 139.781 10.2936C140.179 10.7363 140.71 10.9603 141.369 10.9603C142.015 10.9603 142.543 10.7363 142.945 10.2909C143.349 9.84559 143.547 9.23625 143.547 8.45759C143.547 7.67892 143.349 7.06692 142.947 6.62159C142.547 6.17625 142.023 5.95225 141.369 5.95225ZM144.594 11.1376C143.803 12.1136 142.729 12.5989 141.369 12.5989C140.191 12.5989 139.21 12.2176 138.419 11.4576C137.629 10.6949 137.235 9.69492 137.235 8.45759C137.235 7.21759 137.627 6.21759 138.415 5.45492C139.203 4.69492 140.186 4.31492 141.369 4.31492C142.774 4.31492 143.878 4.83225 144.677 5.86959H147.793V3.76825H149.738V14.7056H147.793V11.1376H144.594Z" fill="#186CB6"/>
</g>
<mask id="mask30_1_19643" style="mask-type:luminance" maskUnits="userSpaceOnUse" x="-314" y="-545" width="794" height="1123">
<path d="M-314 -544.985H479.707V577.535H-314V-544.985Z" fill="white"/>
</mask>
<g mask="url(#mask30_1_19643)">
<path d="M165.053 9.5489V12.5982H163.1V3.76757H165.053V7.8769H167.352V9.5489H165.053ZM163.116 16.0409H157.329V17.0982H163.116V16.0409ZM157.651 8.79424C156.987 8.79424 156.492 8.9009 156.165 9.11157C155.837 9.32224 155.673 9.6009 155.673 9.94757C155.673 10.7316 156.332 11.1249 157.651 11.1249C158.976 11.1249 159.643 10.7316 159.643 9.94757C159.643 9.17957 158.976 8.79424 157.651 8.79424ZM155.376 18.6889V13.2262H157.329V14.4809H163.116V13.2262H165.053V18.6889H155.376ZM157.636 12.6849C156.427 12.6849 155.469 12.4316 154.764 11.9209C154.059 11.4156 153.704 10.7569 153.704 9.94757C153.704 9.14224 154.061 8.48624 154.769 7.97824C155.477 7.47024 156.437 7.21824 157.651 7.21824C158.868 7.21824 159.833 7.47024 160.541 7.97824C161.249 8.48624 161.604 9.14224 161.604 9.94757C161.604 10.7702 161.245 11.4316 160.525 11.9316C159.805 12.4316 158.843 12.6849 157.636 12.6849ZM152.976 6.6769V5.09824H156.624V3.5569H158.601V5.09824H162.248V6.6769H152.976Z" fill="#186CB6"/>
</g>
<mask id="mask31_1_19643" style="mask-type:luminance" maskUnits="userSpaceOnUse" x="-314" y="-545" width="794" height="1123">
<path d="M-314 -544.985H479.707V577.535H-314V-544.985Z" fill="white"/>
</mask>
<g mask="url(#mask31_1_19643)">
<path d="M45.9375 26.4396H44.8455L43.4468 24.5049C43.4148 24.4609 43.3775 24.3876 43.3321 24.2916H43.3175V26.4396H42.4681V22.0516H43.3175V24.1276H43.3321C43.3535 24.0702 43.3935 23.9969 43.4495 23.9089L44.7855 22.0516H45.8081L44.1735 24.1476L45.9375 26.4396Z" fill="#231916"/>
</g>
<mask id="mask32_1_19643" style="mask-type:luminance" maskUnits="userSpaceOnUse" x="-314" y="-545" width="794" height="1123">
<path d="M-314 -544.985H479.707V577.535H-314V-544.985Z" fill="white"/>
</mask>
<g mask="url(#mask32_1_19643)">
<path d="M47.8828 24.8797C47.8828 25.5384 48.1561 25.869 48.7028 25.869C49.2295 25.869 49.4908 25.5304 49.4908 24.8584C49.4908 24.205 49.2281 23.8797 48.6988 23.8797C48.4401 23.8797 48.2401 23.9677 48.0975 24.1477C47.9548 24.3224 47.8828 24.5704 47.8828 24.8797ZM47.0428 24.893C47.0428 24.3797 47.1921 23.973 47.4961 23.6797C47.7961 23.3797 48.2055 23.2344 48.7228 23.2344C49.2215 23.2344 49.6161 23.377 49.9041 23.669C50.1935 23.961 50.3388 24.349 50.3388 24.841C50.3388 25.349 50.1881 25.7544 49.8895 26.0597C49.5908 26.3637 49.1868 26.5184 48.6761 26.5184C48.1735 26.5184 47.7775 26.369 47.4828 26.077C47.1881 25.7837 47.0428 25.3877 47.0428 24.893Z" fill="#231916"/>
</g>
<mask id="mask33_1_19643" style="mask-type:luminance" maskUnits="userSpaceOnUse" x="-314" y="-545" width="794" height="1123">
<path d="M-314 -544.985H479.707V577.535H-314V-544.985Z" fill="white"/>
</mask>
<g mask="url(#mask33_1_19643)">
<path d="M53.8528 24.075C53.7421 24.007 53.6088 23.9737 53.4488 23.9737C53.2408 23.9737 53.0741 24.059 52.9475 24.2284C52.8248 24.3977 52.7621 24.627 52.7621 24.9137V26.439H51.9301V23.307H52.7621V23.911H52.7701C52.9235 23.471 53.1981 23.255 53.5968 23.255C53.7101 23.255 53.7941 23.2684 53.8528 23.2964V24.075Z" fill="#231916"/>
</g>
<mask id="mask34_1_19643" style="mask-type:luminance" maskUnits="userSpaceOnUse" x="-314" y="-545" width="794" height="1123">
<path d="M-314 -544.985H479.707V577.535H-314V-544.985Z" fill="white"/>
</mask>
<g mask="url(#mask34_1_19643)">
<path d="M57.1915 24.562C57.1915 24.0647 56.9861 23.8167 56.5781 23.8167C56.4075 23.8167 56.2568 23.8847 56.1248 24.018C55.9968 24.1527 55.9141 24.3353 55.8835 24.562H57.1915ZM57.9741 25.106H55.8835C55.9168 25.6407 56.2195 25.906 56.7888 25.906C57.1368 25.906 57.4461 25.814 57.7195 25.6327V26.262C57.4288 26.434 57.0541 26.518 56.6021 26.518C56.1141 26.518 55.7355 26.374 55.4648 26.0927C55.1928 25.8127 55.0555 25.4193 55.0555 24.9113C55.0555 24.414 55.2021 24.01 55.4941 23.7007C55.7848 23.39 56.1501 23.234 56.5861 23.234C57.0235 23.234 57.3648 23.3673 57.6088 23.6353C57.8515 23.9033 57.9741 24.2727 57.9741 24.742V25.106Z" fill="#231916"/>
</g>
<mask id="mask35_1_19643" style="mask-type:luminance" maskUnits="userSpaceOnUse" x="-314" y="-545" width="794" height="1123">
<path d="M-314 -544.985H479.707V577.535H-314V-544.985Z" fill="white"/>
</mask>
<g mask="url(#mask35_1_19643)">
<path d="M60.6041 25.0073C60.2468 25.054 60.0681 25.2153 60.0681 25.4887C60.0681 25.6113 60.1095 25.7127 60.1961 25.7887C60.2815 25.8687 60.3975 25.906 60.5415 25.906C60.7415 25.906 60.9041 25.8353 61.0335 25.6953C61.1628 25.554 61.2268 25.3793 61.2268 25.166V24.9287L60.6041 25.0073ZM59.5935 23.5073C59.7361 23.4233 59.9175 23.3593 60.1415 23.3073C60.3655 23.2567 60.5695 23.234 60.7455 23.234C61.5935 23.234 62.0161 23.6607 62.0161 24.518V26.4393H61.2255V25.9767H61.2095C61.0001 26.338 60.6855 26.518 60.2695 26.518C59.9668 26.518 59.7295 26.434 59.5521 26.2593C59.3735 26.0913 59.2868 25.862 59.2868 25.578C59.2868 24.9793 59.6428 24.6327 60.3535 24.5353L61.2268 24.4193C61.2268 24.018 61.0335 23.8193 60.6428 23.8193C60.2708 23.8193 59.9201 23.9367 59.5935 24.1687V23.5073Z" fill="#231916"/>
</g>
<mask id="mask36_1_19643" style="mask-type:luminance" maskUnits="userSpaceOnUse" x="-314" y="-545" width="794" height="1123">
<path d="M-314 -544.985H479.707V577.535H-314V-544.985Z" fill="white"/>
</mask>
<g mask="url(#mask36_1_19643)">
<path d="M69.9921 26.2756C69.6748 26.4369 69.2615 26.5182 68.7521 26.5182C68.1041 26.5182 67.5841 26.3196 67.1988 25.9209C66.8121 25.5249 66.6201 24.9996 66.6201 24.3382C66.6201 23.6476 66.8361 23.0822 67.2655 22.6396C67.6961 22.1996 68.2508 21.9809 68.9255 21.9809C69.3521 21.9809 69.7068 22.0356 69.9921 22.1502V22.9782C69.6948 22.8062 69.3548 22.7182 68.9801 22.7182C68.5361 22.7182 68.1815 22.8636 67.9135 23.1529C67.6455 23.4422 67.5135 23.8169 67.5135 24.2782C67.5135 24.7342 67.6401 25.0982 67.8961 25.3716C68.1495 25.6422 68.4881 25.7782 68.9121 25.7782C69.3108 25.7782 69.6721 25.6822 69.9921 25.4916V26.2756Z" fill="#231916"/>
</g>
<mask id="mask37_1_19643" style="mask-type:luminance" maskUnits="userSpaceOnUse" x="-314" y="-545" width="794" height="1123">
<path d="M-314 -544.985H479.707V577.535H-314V-544.985Z" fill="white"/>
</mask>
<g mask="url(#mask37_1_19643)">
<path d="M72.2735 24.8797C72.2735 25.5384 72.5468 25.869 73.0935 25.869C73.6201 25.869 73.8815 25.5304 73.8815 24.8584C73.8815 24.205 73.6188 23.8797 73.0908 23.8797C72.8321 23.8797 72.6321 23.9677 72.4881 24.1477C72.3455 24.3224 72.2735 24.5704 72.2735 24.8797ZM71.4348 24.893C71.4348 24.3797 71.5828 23.973 71.8868 23.6797C72.1895 23.3797 72.5961 23.2344 73.1148 23.2344C73.6121 23.2344 74.0081 23.377 74.2948 23.669C74.5841 23.961 74.7308 24.349 74.7308 24.841C74.7308 25.349 74.5788 25.7544 74.2815 26.0597C73.9815 26.3637 73.5775 26.5184 73.0668 26.5184C72.5641 26.5184 72.1681 26.369 71.8735 26.077C71.5788 25.7837 71.4348 25.3877 71.4348 24.893Z" fill="#231916"/>
</g>
<mask id="mask38_1_19643" style="mask-type:luminance" maskUnits="userSpaceOnUse" x="-314" y="-545" width="794" height="1123">
<path d="M-314 -544.985H479.707V577.535H-314V-544.985Z" fill="white"/>
</mask>
<g mask="url(#mask38_1_19643)">
<path d="M77.4076 25.0073C77.0489 25.054 76.8689 25.2153 76.8689 25.4887C76.8689 25.6113 76.9129 25.7127 76.9969 25.7887C77.0849 25.8687 77.1983 25.906 77.3449 25.906C77.5436 25.906 77.7089 25.8353 77.8343 25.6953C77.9649 25.554 78.0303 25.3793 78.0303 25.166V24.9287L77.4076 25.0073ZM76.3956 23.5073C76.5369 23.4233 76.7196 23.3593 76.9449 23.3073C77.1689 23.2567 77.3703 23.234 77.5489 23.234C78.3956 23.234 78.8196 23.6607 78.8196 24.518V26.4393H78.0249V25.9767H78.0116C77.7996 26.338 77.4889 26.518 77.0729 26.518C76.7703 26.518 76.5316 26.434 76.3556 26.2593C76.1769 26.0913 76.0889 25.862 76.0889 25.578C76.0889 24.9793 76.4436 24.6327 77.1569 24.5353L78.0303 24.4193C78.0303 24.018 77.8329 23.8193 77.4449 23.8193C77.0729 23.8193 76.7236 23.9367 76.3956 24.1687V23.5073Z" fill="#231916"/>
</g>
<mask id="mask39_1_19643" style="mask-type:luminance" maskUnits="userSpaceOnUse" x="-314" y="-545" width="794" height="1123">
<path d="M-314 -544.985H479.707V577.535H-314V-544.985Z" fill="white"/>
</mask>
<g mask="url(#mask39_1_19643)">
<path d="M80.54 21.804H81.368V26.44H80.54V21.804Z" fill="#231916"/>
</g>
<mask id="mask40_1_19643" style="mask-type:luminance" maskUnits="userSpaceOnUse" x="-314" y="-545" width="794" height="1123">
<path d="M-314 -544.985H479.707V577.535H-314V-544.985Z" fill="white"/>
</mask>
<g mask="url(#mask40_1_19643)">
<path d="M83.1293 23.3067H83.96V26.44H83.1293V23.3067ZM83.064 22.276C83.064 22.148 83.1106 22.0413 83.1986 21.9573C83.2906 21.872 83.408 21.828 83.5493 21.828C83.6893 21.828 83.8053 21.872 83.8973 21.9547C83.992 22.0387 84.0386 22.148 84.0386 22.276C84.0386 22.4054 83.992 22.5094 83.9 22.5987C83.808 22.684 83.692 22.724 83.5493 22.724C83.4093 22.724 83.292 22.684 83.2 22.596C83.1106 22.5067 83.064 22.4027 83.064 22.276Z" fill="#231916"/>
</g>
<mask id="mask41_1_19643" style="mask-type:luminance" maskUnits="userSpaceOnUse" x="-314" y="-545" width="794" height="1123">
<path d="M-314 -544.985H479.707V577.535H-314V-544.985Z" fill="white"/>
</mask>
<g mask="url(#mask41_1_19643)">
<path d="M87.4935 26.4083C87.3521 26.479 87.1561 26.515 86.9028 26.515C86.2615 26.515 85.9415 26.1737 85.9415 25.4937V23.939H85.4228V23.307H85.9415V22.6057L86.7695 22.3643V23.307H87.4935V23.939H86.7695V25.3483C86.7695 25.695 86.9081 25.8697 87.1775 25.8697C87.2921 25.8697 87.3961 25.835 87.4935 25.7723V26.4083Z" fill="#231916"/>
</g>
<mask id="mask42_1_19643" style="mask-type:luminance" maskUnits="userSpaceOnUse" x="-314" y="-545" width="794" height="1123">
<path d="M-314 -544.985H479.707V577.535H-314V-544.985Z" fill="white"/>
</mask>
<g mask="url(#mask42_1_19643)">
<path d="M88.9827 23.3067H89.8107V26.44H88.9827V23.3067ZM88.916 22.276C88.916 22.148 88.9627 22.0413 89.0507 21.9573C89.1413 21.872 89.2587 21.828 89.4013 21.828C89.5413 21.828 89.6573 21.872 89.7507 21.9547C89.8453 22.0387 89.8893 22.148 89.8893 22.276C89.8893 22.4054 89.8453 22.5094 89.7507 22.5987C89.6587 22.684 89.5413 22.724 89.4013 22.724C89.26 22.724 89.1427 22.684 89.052 22.596C88.9627 22.5067 88.916 22.4027 88.916 22.276Z" fill="#231916"/>
</g>
<mask id="mask43_1_19643" style="mask-type:luminance" maskUnits="userSpaceOnUse" x="-314" y="-545" width="794" height="1123">
<path d="M-314 -544.985H479.707V577.535H-314V-544.985Z" fill="white"/>
</mask>
<g mask="url(#mask43_1_19643)">
<path d="M92.2331 24.8797C92.2331 25.5384 92.5064 25.869 93.0517 25.869C93.5797 25.869 93.8424 25.5304 93.8424 24.8584C93.8424 24.205 93.5784 23.8797 93.0491 23.8797C92.7904 23.8797 92.5931 23.9677 92.4464 24.1477C92.3051 24.3224 92.2331 24.5704 92.2331 24.8797ZM91.3917 24.893C91.3917 24.3797 91.5437 23.973 91.8437 23.6797C92.1491 23.3797 92.5571 23.2344 93.0744 23.2344C93.5717 23.2344 93.9664 23.377 94.2571 23.669C94.5437 23.961 94.6891 24.349 94.6891 24.841C94.6891 25.349 94.5397 25.7544 94.2397 26.0597C93.9411 26.3637 93.5371 26.5184 93.0264 26.5184C92.5264 26.5184 92.1277 26.369 91.8331 26.077C91.5384 25.7837 91.3917 25.3877 91.3917 24.893Z" fill="#231916"/>
</g>
<mask id="mask44_1_19643" style="mask-type:luminance" maskUnits="userSpaceOnUse" x="-314" y="-545" width="794" height="1123">
<path d="M-314 -544.985H479.707V577.535H-314V-544.985Z" fill="white"/>
</mask>
<g mask="url(#mask44_1_19643)">
<path d="M99.1809 26.4396H98.3529V24.6876C98.3529 24.1476 98.1583 23.8796 97.7716 23.8796C97.5756 23.8796 97.4183 23.9502 97.2956 24.0982C97.1729 24.2449 97.1129 24.4289 97.1129 24.6529V26.4396H96.2796V23.3062H97.1129V23.8089H97.1223C97.3516 23.4236 97.6916 23.2342 98.1396 23.2342C98.8329 23.2342 99.1809 23.6609 99.1809 24.5222V26.4396Z" fill="#231916"/>
</g>
<mask id="mask45_1_19643" style="mask-type:luminance" maskUnits="userSpaceOnUse" x="-314" y="-545" width="794" height="1123">
<path d="M-314 -544.985H479.707V577.535H-314V-544.985Z" fill="white"/>
</mask>
<g mask="url(#mask45_1_19643)">
<path d="M104.675 24.2547C104.675 24.7 104.784 25.0667 105.004 25.3507C105.224 25.6347 105.523 25.7787 105.9 25.7787C106.292 25.7787 106.596 25.6427 106.813 25.372C107.032 25.0987 107.14 24.7333 107.14 24.268C107.14 23.7853 107.035 23.408 106.824 23.1347C106.613 22.8587 106.315 22.7187 105.929 22.7187C105.54 22.7187 105.233 22.864 105.009 23.1533C104.788 23.4427 104.675 23.8093 104.675 24.2547ZM103.781 24.3013C103.781 23.6147 103.98 23.0547 104.376 22.624C104.771 22.1947 105.299 21.9813 105.957 21.9813C106.581 21.9813 107.083 22.1893 107.463 22.604C107.844 23.02 108.035 23.5573 108.035 24.2053C108.035 24.8933 107.836 25.452 107.445 25.8773C107.053 26.304 106.535 26.5173 105.889 26.5173C105.26 26.5173 104.753 26.3093 104.364 25.8947C103.976 25.4787 103.781 24.9493 103.781 24.3013Z" fill="#231916"/>
</g>
<mask id="mask46_1_19643" style="mask-type:luminance" maskUnits="userSpaceOnUse" x="-314" y="-545" width="794" height="1123">
<path d="M-314 -544.985H479.707V577.535H-314V-544.985Z" fill="white"/>
</mask>
<g mask="url(#mask46_1_19643)">
<path d="M111.525 22.4551C111.41 22.4058 111.294 22.3791 111.175 22.3791C110.854 22.3791 110.693 22.5645 110.693 22.9311V23.3071H111.41V23.9391H110.693V26.4391H109.865V23.9391H109.333V23.3071H109.865V22.8871C109.865 22.5338 109.974 22.2578 110.195 22.0458C110.415 21.8378 110.709 21.7311 111.07 21.7311C111.259 21.7311 111.41 21.7525 111.525 21.7911V22.4551Z" fill="#231916"/>
</g>
<mask id="mask47_1_19643" style="mask-type:luminance" maskUnits="userSpaceOnUse" x="-314" y="-545" width="794" height="1123">
<path d="M-314 -544.985H479.707V577.535H-314V-544.985Z" fill="white"/>
</mask>
<g mask="url(#mask47_1_19643)">
<path d="M119.965 26.4396V23.7209C119.965 23.5222 119.977 23.2182 119.999 22.8089H119.985C119.934 23.0622 119.887 23.2396 119.846 23.3462L118.685 26.4396H118.037L116.859 23.3742C116.83 23.2916 116.785 23.1062 116.723 22.8089H116.703C116.723 23.1342 116.735 23.4862 116.735 23.8636V26.4396H115.962V22.0516H117.186L118.211 24.7862C118.295 25.0102 118.353 25.2129 118.381 25.3876H118.401C118.445 25.2156 118.506 25.0102 118.585 24.7809L119.619 22.0516H120.806V26.4396H119.965Z" fill="#231916"/>
</g>
<mask id="mask48_1_19643" style="mask-type:luminance" maskUnits="userSpaceOnUse" x="-314" y="-545" width="794" height="1123">
<path d="M-314 -544.985H479.707V577.535H-314V-544.985Z" fill="white"/>
</mask>
<g mask="url(#mask48_1_19643)">
<path d="M123.764 25.0073C123.404 25.054 123.228 25.2153 123.228 25.4887C123.228 25.6113 123.27 25.7127 123.355 25.7887C123.44 25.8687 123.556 25.906 123.7 25.906C123.899 25.906 124.063 25.8353 124.194 25.6953C124.322 25.554 124.386 25.3793 124.386 25.166V24.9287L123.764 25.0073ZM122.752 23.5073C122.895 23.4233 123.076 23.3593 123.3 23.3073C123.524 23.2567 123.726 23.234 123.906 23.234C124.752 23.234 125.175 23.6607 125.175 24.518V26.4393H124.382V25.9767H124.368C124.158 26.338 123.844 26.518 123.428 26.518C123.127 26.518 122.888 26.434 122.711 26.2593C122.532 26.0913 122.446 25.862 122.446 25.578C122.446 24.9793 122.8 24.6327 123.512 24.5353L124.386 24.4193C124.386 24.018 124.191 23.8193 123.802 23.8193C123.43 23.8193 123.08 23.9367 122.752 24.1687V23.5073Z" fill="#231916"/>
</g>
<mask id="mask49_1_19643" style="mask-type:luminance" maskUnits="userSpaceOnUse" x="-314" y="-545" width="794" height="1123">
<path d="M-314 -544.985H479.707V577.535H-314V-544.985Z" fill="white"/>
</mask>
<g mask="url(#mask49_1_19643)">
<path d="M128.829 24.075C128.721 24.007 128.585 23.9737 128.428 23.9737C128.22 23.9737 128.052 24.059 127.928 24.2284C127.803 24.3977 127.741 24.627 127.741 24.9137V26.439H126.909V23.307H127.741V23.911H127.747C127.9 23.471 128.177 23.255 128.573 23.255C128.688 23.255 128.772 23.2684 128.829 23.2964V24.075Z" fill="#231916"/>
</g>
<mask id="mask50_1_19643" style="mask-type:luminance" maskUnits="userSpaceOnUse" x="-314" y="-545" width="794" height="1123">
<path d="M-314 -544.985H479.707V577.535H-314V-544.985Z" fill="white"/>
</mask>
<g mask="url(#mask50_1_19643)">
<path d="M130.213 23.3067H131.043V26.44H130.213V23.3067ZM130.148 22.276C130.148 22.148 130.195 22.0413 130.283 21.9573C130.373 21.872 130.491 21.828 130.633 21.828C130.772 21.828 130.889 21.872 130.983 21.9547C131.077 22.0387 131.124 22.148 131.124 22.276C131.124 22.4054 131.077 22.5094 130.984 22.5987C130.891 22.684 130.776 22.724 130.633 22.724C130.492 22.724 130.377 22.684 130.284 22.596C130.195 22.5067 130.148 22.4027 130.148 22.276Z" fill="#231916"/>
</g>
<mask id="mask51_1_19643" style="mask-type:luminance" maskUnits="userSpaceOnUse" x="-314" y="-545" width="794" height="1123">
<path d="M-314 -544.985H479.707V577.535H-314V-544.985Z" fill="white"/>
</mask>
<g mask="url(#mask51_1_19643)">
<path d="M135.716 26.4396H134.888V24.6876C134.888 24.1476 134.692 23.8796 134.305 23.8796C134.112 23.8796 133.955 23.9502 133.832 24.0982C133.708 24.2449 133.648 24.4289 133.648 24.6529V26.4396H132.816V23.3062H133.648V23.8089H133.656C133.887 23.4236 134.224 23.2342 134.672 23.2342C135.369 23.2342 135.716 23.6609 135.716 24.5222V26.4396Z" fill="#231916"/>
</g>
<mask id="mask52_1_19643" style="mask-type:luminance" maskUnits="userSpaceOnUse" x="-314" y="-545" width="794" height="1123">
<path d="M-314 -544.985H479.707V577.535H-314V-544.985Z" fill="white"/>
</mask>
<g mask="url(#mask52_1_19643)">
<path d="M139.388 24.562C139.388 24.0647 139.184 23.8167 138.773 23.8167C138.604 23.8167 138.452 23.8847 138.323 24.018C138.193 24.1527 138.111 24.3353 138.079 24.562H139.388ZM140.173 25.106H138.079C138.113 25.6407 138.416 25.906 138.985 25.906C139.335 25.906 139.643 25.814 139.916 25.6327V26.262C139.625 26.434 139.252 26.518 138.799 26.518C138.311 26.518 137.932 26.374 137.661 26.0927C137.391 25.8127 137.253 25.4193 137.253 24.9113C137.253 24.414 137.4 24.01 137.691 23.7007C137.981 23.39 138.347 23.234 138.783 23.234C139.22 23.234 139.561 23.3673 139.805 23.6353C140.049 23.9033 140.173 24.2727 140.173 24.742V25.106Z" fill="#231916"/>
</g>
<mask id="mask53_1_19643" style="mask-type:luminance" maskUnits="userSpaceOnUse" x="-314" y="-545" width="794" height="1123">
<path d="M-314 -544.985H479.707V577.535H-314V-544.985Z" fill="white"/>
</mask>
<g mask="url(#mask53_1_19643)">
<path d="M145.714 22.7287V24.2207H146.146C146.732 24.2207 147.024 23.966 147.024 23.4607C147.024 22.974 146.738 22.7287 146.164 22.7287H145.714ZM145.714 24.8847V26.4393H144.864V22.0513H146.311C147.382 22.0513 147.916 22.51 147.916 23.426C147.916 23.8687 147.755 24.226 147.432 24.494C147.108 24.7647 146.702 24.8953 146.214 24.8847H145.714Z" fill="#231916"/>
</g>
<mask id="mask54_1_19643" style="mask-type:luminance" maskUnits="userSpaceOnUse" x="-314" y="-545" width="794" height="1123">
<path d="M-314 -544.985H479.707V577.535H-314V-544.985Z" fill="white"/>
</mask>
<g mask="url(#mask54_1_19643)">
<path d="M150.096 24.8797C150.096 25.5384 150.367 25.869 150.915 25.869C151.44 25.869 151.704 25.5304 151.704 24.8584C151.704 24.205 151.44 23.8797 150.911 23.8797C150.655 23.8797 150.454 23.9677 150.31 24.1477C150.167 24.3224 150.096 24.5704 150.096 24.8797ZM149.255 24.893C149.255 24.3797 149.404 23.973 149.708 23.6797C150.01 23.3797 150.419 23.2344 150.935 23.2344C151.435 23.2344 151.828 23.377 152.118 23.669C152.406 23.961 152.55 24.349 152.55 24.841C152.55 25.349 152.402 25.7544 152.102 26.0597C151.803 26.3637 151.4 26.5184 150.888 26.5184C150.387 26.5184 149.99 26.369 149.695 26.077C149.402 25.7837 149.255 25.3877 149.255 24.893Z" fill="#231916"/>
</g>
<mask id="mask55_1_19643" style="mask-type:luminance" maskUnits="userSpaceOnUse" x="-314" y="-545" width="794" height="1123">
<path d="M-314 -544.985H479.707V577.535H-314V-544.985Z" fill="white"/>
</mask>
<g mask="url(#mask55_1_19643)">
<path d="M154.131 21.804H154.96V26.44H154.131V21.804Z" fill="#231916"/>
</g>
<mask id="mask56_1_19643" style="mask-type:luminance" maskUnits="userSpaceOnUse" x="-314" y="-545" width="794" height="1123">
<path d="M-314 -544.985H479.707V577.535H-314V-544.985Z" fill="white"/>
</mask>
<g mask="url(#mask56_1_19643)">
<path d="M156.721 23.3067H157.549V26.44H156.721V23.3067ZM156.656 22.276C156.656 22.148 156.7 22.0413 156.792 21.9573C156.883 21.872 156.999 21.828 157.141 21.828C157.281 21.828 157.396 21.872 157.489 21.9547C157.584 22.0387 157.632 22.148 157.632 22.276C157.632 22.4054 157.584 22.5094 157.493 22.5987C157.4 22.684 157.283 22.724 157.141 22.724C157.001 22.724 156.884 22.684 156.793 22.596C156.703 22.5067 156.656 22.4027 156.656 22.276Z" fill="#231916"/>
</g>
<mask id="mask57_1_19643" style="mask-type:luminance" maskUnits="userSpaceOnUse" x="-314" y="-545" width="794" height="1123">
<path d="M-314 -544.985H479.707V577.535H-314V-544.985Z" fill="white"/>
</mask>
<g mask="url(#mask57_1_19643)">
<path d="M161.63 26.3172C161.406 26.4505 161.1 26.5172 160.71 26.5172C160.242 26.5172 159.861 26.3718 159.57 26.0852C159.278 25.7958 159.133 25.4132 159.133 24.9505C159.133 24.4158 159.29 23.9972 159.602 23.6892C159.914 23.3852 160.329 23.2332 160.85 23.2332C161.19 23.2332 161.45 23.2812 161.63 23.3798V24.1118C161.42 23.9572 161.188 23.8798 160.934 23.8798C160.645 23.8798 160.41 23.9705 160.236 24.1532C160.06 24.3358 159.974 24.5798 159.974 24.8905C159.974 25.1945 160.056 25.4345 160.22 25.6092C160.386 25.7812 160.612 25.8692 160.9 25.8692C161.153 25.8692 161.398 25.7892 161.63 25.6292V26.3172Z" fill="#231916"/>
</g>
<mask id="mask58_1_19643" style="mask-type:luminance" maskUnits="userSpaceOnUse" x="-314" y="-545" width="794" height="1123">
<path d="M-314 -544.985H479.707V577.535H-314V-544.985Z" fill="white"/>
</mask>
<g mask="url(#mask58_1_19643)">
<path d="M166.055 23.3068L164.733 26.7654C164.443 27.5281 164.009 27.9108 163.435 27.9108C163.237 27.9108 163.068 27.8881 162.931 27.8428V27.1668C163.049 27.2281 163.18 27.2628 163.317 27.2628C163.568 27.2628 163.747 27.1348 163.853 26.8828L164.043 26.4348L162.785 23.3068H163.704L164.363 25.3614C164.385 25.4268 164.411 25.5494 164.445 25.7281H164.457C164.472 25.6241 164.503 25.5014 164.547 25.3668L165.227 23.3068H166.055Z" fill="#231916"/>
</g>
</g>
<defs>
<clipPath id="clip0_1_19643">
<rect width="167" height="32" fill="white"/>
</clipPath>
</defs>
</svg>
