<svg width="456" height="118" viewBox="0 0 456 118" fill="none" xmlns="http://www.w3.org/2000/svg">
<g clip-path="url(#clip0_1_19888)">
<path d="M145.759 72.116H147.862V79.364H147.911L153.434 72.116H155.946L149.68 80.008L156.471 88.8093H153.746L147.911 80.724H147.862V88.8093H145.759V72.116Z" fill="#024EA2"/>
<mask id="mask0_1_19888" style="mask-type:luminance" maskUnits="userSpaceOnUse" x="-143" y="-421" width="794" height="1124">
<path d="M-143 -420.485H650.701V702.035H-143V-420.485Z" fill="white"/>
</mask>
<g mask="url(#mask0_1_19888)">
<path d="M161.445 87.3504C163.311 87.3504 164.245 85.8037 164.245 82.7117C164.245 79.6171 163.311 78.0717 161.445 78.0717C159.581 78.0717 158.648 79.6171 158.648 82.7117C158.648 85.8037 159.581 87.3504 161.445 87.3504ZM157.809 78.1184C158.656 77.0024 159.865 76.4437 161.445 76.4437C163.027 76.4437 164.236 77.0024 165.083 78.1184C165.925 79.2331 166.349 80.7651 166.349 82.7117C166.349 84.6557 165.925 86.1891 165.083 87.3037C164.236 88.4197 163.027 88.9771 161.445 88.9771C159.865 88.9771 158.656 88.4197 157.809 87.3037C156.965 86.1891 156.543 84.6557 156.543 82.7117C156.543 80.7651 156.965 79.2331 157.809 78.1184Z" fill="#024EA2"/>
</g>
<mask id="mask1_1_19888" style="mask-type:luminance" maskUnits="userSpaceOnUse" x="-143" y="-421" width="794" height="1124">
<path d="M-143 -420.485H650.701V702.035H-143V-420.485Z" fill="white"/>
</mask>
<g mask="url(#mask1_1_19888)">
<path d="M168.668 79.2436C168.668 78.8742 168.651 78.3409 168.62 77.6382C168.587 77.1796 168.572 76.8356 168.572 76.6116H170.508L170.583 78.5249H170.629C170.947 77.7916 171.376 77.2636 171.919 76.9342C172.464 76.6076 173.188 76.4449 174.096 76.4449V78.4289C173.856 78.3822 173.601 78.3569 173.332 78.3569C172.532 78.3569 171.891 78.7022 171.405 79.3836C170.919 80.0702 170.676 81.0582 170.676 82.3502V88.8089H168.668V79.2436Z" fill="#024EA2"/>
</g>
<mask id="mask2_1_19888" style="mask-type:luminance" maskUnits="userSpaceOnUse" x="-143" y="-421" width="794" height="1124">
<path d="M-143 -420.485H650.701V702.035H-143V-420.485Z" fill="white"/>
</mask>
<g mask="url(#mask2_1_19888)">
<path d="M182.131 81.7788C182.131 79.2441 181.331 77.9735 179.741 77.9735C179.021 77.9735 178.433 78.2775 177.97 78.8828C177.507 79.4881 177.27 80.4548 177.253 81.7788H182.131ZM177.253 83.3068C177.253 86.0681 178.361 87.4441 180.577 87.4441C181.055 87.4441 181.546 87.3441 182.047 87.1441C182.549 86.9468 182.993 86.7121 183.375 86.4415L183.469 88.2575C182.993 88.4828 182.454 88.6575 181.854 88.7841C181.259 88.9135 180.655 88.9761 180.05 88.9761C178.474 88.9761 177.261 88.4175 176.414 87.3028C175.571 86.1868 175.15 84.6561 175.15 82.7095C175.15 80.7641 175.558 79.2361 176.381 78.1161C177.202 77.0015 178.361 76.4455 179.859 76.4455C181.23 76.4455 182.286 76.9588 183.029 77.9881C183.769 79.0148 184.141 80.4308 184.141 82.2321V83.3068H177.253Z" fill="#024EA2"/>
</g>
<mask id="mask3_1_19888" style="mask-type:luminance" maskUnits="userSpaceOnUse" x="-143" y="-421" width="794" height="1124">
<path d="M-143 -420.485H650.701V702.035H-143V-420.485Z" fill="white"/>
</mask>
<g mask="url(#mask3_1_19888)">
<path d="M192.677 82.8309C192.436 82.7989 191.968 82.7829 191.265 82.7829C190.134 82.7829 189.269 83.0176 188.672 83.4883C188.074 83.9576 187.774 84.5683 187.774 85.3149C187.774 85.9856 187.945 86.5096 188.288 86.8829C188.632 87.2549 189.145 87.4469 189.83 87.4469C190.674 87.4469 191.361 87.1469 191.886 86.5496C192.413 85.9523 192.677 85.2216 192.677 84.3603V82.8309ZM186.841 77.4483C187.352 77.1296 187.906 76.8843 188.504 76.7083C189.102 76.5309 189.694 76.4469 190.286 76.4469C191.066 76.4469 191.737 76.5696 192.293 76.8163C192.852 77.0616 193.266 77.3216 193.538 77.5923C193.857 77.9123 194.112 78.2976 194.302 78.7536C194.496 79.2069 194.59 79.8176 194.59 80.5803V86.9429C194.59 87.3109 194.597 87.6509 194.612 87.9696C194.629 88.2909 194.653 88.5683 194.686 88.8083H192.869L192.75 87.1589H192.701C192.378 87.7003 191.948 88.1376 191.397 88.4723C190.846 88.8083 190.144 88.9763 189.282 88.9763C188.228 88.9763 187.378 88.6723 186.732 88.0669C186.09 87.4603 185.765 86.5936 185.765 85.4589C185.765 84.2003 186.222 83.1989 187.142 82.4576C188.057 81.7176 189.512 81.3469 191.505 81.3469H192.677V80.7963C192.677 80.3189 192.649 79.9363 192.593 79.6483C192.538 79.3643 192.413 79.0909 192.221 78.8389C192.033 78.5656 191.758 78.3709 191.397 78.2523C191.038 78.1309 190.636 78.0723 190.19 78.0723C189.566 78.0723 188.978 78.1843 188.422 78.4163C187.861 78.6496 187.409 78.9549 187.057 79.3376L186.841 77.4483Z" fill="#024EA2"/>
</g>
<mask id="mask4_1_19888" style="mask-type:luminance" maskUnits="userSpaceOnUse" x="-143" y="-421" width="794" height="1124">
<path d="M-143 -420.485H650.701V702.035H-143V-420.485Z" fill="white"/>
</mask>
<g mask="url(#mask4_1_19888)">
<path d="M205.279 83.129C205.42 83.9184 205.651 84.6237 205.961 85.245C206.268 85.8677 206.675 86.357 207.168 86.7157C207.661 87.073 208.251 87.2544 208.936 87.2544C209.513 87.2544 210.04 87.1277 210.529 86.8704C211.015 86.617 211.443 86.213 211.819 85.6624C212.195 85.113 212.484 84.3904 212.691 83.4984C212.897 82.6077 213.003 81.5384 213.003 80.2944C213.003 79.4037 212.931 78.565 212.787 77.7837C212.643 77.005 212.417 76.301 212.104 75.6797C211.795 75.0584 211.392 74.5677 210.897 74.209C210.404 73.8517 209.813 73.6704 209.129 73.6704C208.556 73.6704 208.025 73.7997 207.539 74.0544C207.051 74.309 206.62 74.7104 206.249 75.2597C205.872 75.809 205.581 76.533 205.375 77.4264C205.165 78.317 205.064 79.3864 205.064 80.6277C205.064 81.5064 205.136 82.337 205.279 83.129ZM204.5 74.149C205.592 72.6837 207.136 71.9504 209.129 71.9504C210.993 71.9504 212.473 72.6984 213.564 74.197C214.656 75.6944 215.203 77.729 215.203 80.2944C215.203 83.1504 214.656 85.3104 213.564 86.773C212.473 88.2424 210.929 88.9744 208.936 88.9744C207.072 88.9744 205.592 88.2264 204.5 86.7277C203.409 85.229 202.863 83.1957 202.863 80.6277C202.863 77.7744 203.409 75.617 204.5 74.149Z" fill="#024EA2"/>
</g>
<mask id="mask5_1_19888" style="mask-type:luminance" maskUnits="userSpaceOnUse" x="-143" y="-421" width="794" height="1124">
<path d="M-143 -420.485H650.701V702.035H-143V-420.485Z" fill="white"/>
</mask>
<g mask="url(#mask5_1_19888)">
<path d="M224.984 78.7424C224.298 78.357 223.523 78.1637 222.663 78.1637C221.627 78.1637 220.81 78.549 220.212 79.3144C219.615 80.0784 219.315 81.2504 219.315 82.8304C219.315 84.2184 219.615 85.2997 220.212 86.0824C220.81 86.8624 221.611 87.2544 222.618 87.2544C223.43 87.2544 224.25 87.0397 225.078 86.6077L225.175 88.449C224.856 88.5917 224.452 88.7157 223.966 88.8184C223.48 88.925 223.03 88.9744 222.618 88.9744C220.862 88.9744 219.52 88.401 218.6 87.2544C217.674 86.1037 217.211 84.6317 217.211 82.8304C217.211 80.853 217.698 79.2957 218.672 78.153C219.64 77.0157 220.974 76.4437 222.663 76.4437C223.094 76.4437 223.523 76.485 223.955 76.5637C224.386 76.6437 224.76 76.765 225.078 76.9224L224.984 78.7424Z" fill="#024EA2"/>
</g>
<mask id="mask6_1_19888" style="mask-type:luminance" maskUnits="userSpaceOnUse" x="-143" y="-421" width="794" height="1124">
<path d="M-143 -420.485H650.701V702.035H-143V-420.485Z" fill="white"/>
</mask>
<g mask="url(#mask6_1_19888)">
<path d="M233.497 81.7788C233.497 79.2441 232.699 77.9735 231.104 77.9735C230.388 77.9735 229.799 78.2775 229.337 78.8828C228.873 79.4881 228.633 80.4548 228.619 81.7788H233.497ZM228.619 83.3068C228.619 86.0681 229.727 87.4441 231.94 87.4441C232.421 87.4441 232.909 87.3441 233.413 87.1441C233.915 86.9468 234.359 86.7121 234.737 86.4415L234.833 88.2575C234.359 88.4828 233.817 88.6575 233.22 88.7841C232.623 88.9135 232.021 88.9761 231.415 88.9761C229.839 88.9761 228.627 88.4175 227.78 87.3028C226.936 86.1868 226.513 84.6561 226.513 82.7095C226.513 80.7641 226.923 79.2361 227.744 78.1161C228.567 77.0015 229.727 76.4455 231.227 76.4455C232.595 76.4455 233.652 76.9588 234.392 77.9881C235.135 79.0148 235.508 80.4308 235.508 82.2321V83.3068H228.619Z" fill="#024EA2"/>
</g>
<mask id="mask7_1_19888" style="mask-type:luminance" maskUnits="userSpaceOnUse" x="-143" y="-421" width="794" height="1124">
<path d="M-143 -420.485H650.701V702.035H-143V-420.485Z" fill="white"/>
</mask>
<g mask="url(#mask7_1_19888)">
<path d="M244.04 82.8309C243.804 82.7989 243.334 82.7829 242.628 82.7829C241.502 82.7829 240.634 83.0176 240.036 83.4883C239.439 83.9576 239.14 84.5683 239.14 85.3149C239.14 85.9856 239.311 86.5096 239.654 86.8829C239.996 87.2549 240.511 87.4469 241.196 87.4469C242.039 87.4469 242.726 87.1469 243.252 86.5496C243.779 85.9523 244.04 85.2216 244.04 84.3603V82.8309ZM238.207 77.4483C238.718 77.1296 239.271 76.8843 239.868 76.7083C240.466 76.5309 241.06 76.4469 241.65 76.4469C242.432 76.4469 243.1 76.5696 243.66 76.8163C244.218 77.0616 244.63 77.3216 244.903 77.5923C245.223 77.9123 245.476 78.2976 245.668 78.7536C245.858 79.2069 245.955 79.8176 245.955 80.5803V86.9429C245.955 87.3109 245.962 87.6509 245.979 87.9696C245.995 88.2909 246.018 88.5683 246.051 88.8083H244.234L244.114 87.1589H244.066C243.743 87.7003 243.315 88.1376 242.763 88.4723C242.211 88.8083 241.51 88.9763 240.647 88.9763C239.594 88.9763 238.744 88.6723 238.099 88.0669C237.454 87.4603 237.131 86.5936 237.131 85.4589C237.131 84.2003 237.59 83.1989 238.508 82.4576C239.423 81.7176 240.878 81.3469 242.87 81.3469H244.04V80.7963C244.04 80.3189 244.012 79.9363 243.958 79.6483C243.904 79.3643 243.779 79.0909 243.587 78.8389C243.399 78.5656 243.123 78.3709 242.763 78.2523C242.403 78.1309 242.002 78.0723 241.556 78.0723C240.934 78.0723 240.344 78.1843 239.784 78.4163C239.227 78.6496 238.774 78.9549 238.424 79.3376L238.207 77.4483Z" fill="#024EA2"/>
</g>
<mask id="mask8_1_19888" style="mask-type:luminance" maskUnits="userSpaceOnUse" x="-143" y="-421" width="794" height="1124">
<path d="M-143 -420.485H650.701V702.035H-143V-420.485Z" fill="white"/>
</mask>
<g mask="url(#mask8_1_19888)">
<path d="M248.801 79.2436C248.801 78.8742 248.785 78.3409 248.755 77.6382C248.721 77.1796 248.705 76.8356 248.705 76.6116H250.641L250.713 78.4289H250.761C251.383 77.1049 252.411 76.4449 253.846 76.4449C254.947 76.4449 255.817 76.7662 256.454 77.4142C257.09 78.0582 257.409 79.0356 257.409 80.3422V88.8089H255.401V80.9396C255.401 79.9996 255.234 79.3036 254.899 78.8462C254.563 78.3929 254.062 78.1676 253.393 78.1676C252.578 78.1676 251.943 78.4449 251.491 79.0022C251.035 79.5609 250.809 80.3822 250.809 81.4662V88.8089H248.801V79.2436Z" fill="#024EA2"/>
</g>
<mask id="mask9_1_19888" style="mask-type:luminance" maskUnits="userSpaceOnUse" x="-143" y="-421" width="794" height="1124">
<path d="M-143 -420.485H650.701V702.035H-143V-420.485Z" fill="white"/>
</mask>
<g mask="url(#mask9_1_19888)">
<path d="M268.552 87.0874H270.345C271.413 87.0874 272.219 86.7981 272.76 86.2248C273.304 85.6514 273.576 84.9408 273.576 84.0981C273.576 83.1888 273.32 82.4541 272.808 81.8954C272.3 81.3394 271.557 81.0594 270.585 81.0594H268.552V87.0874ZM268.552 79.3394H269.795C270.943 79.3394 271.803 79.0914 272.365 78.5954C272.933 78.1048 273.216 77.3928 273.216 76.4674C273.216 75.6874 272.964 75.0554 272.463 74.5674C271.961 74.0808 271.191 73.8394 270.155 73.8394H268.552V79.3394ZM266.448 72.1141H270.681C272.227 72.1141 273.388 72.4994 274.159 73.2634C274.933 74.0301 275.32 75.0594 275.32 76.3488C275.32 77.2581 275.075 78.0434 274.58 78.7061C274.081 79.3661 273.413 79.8168 272.571 80.0568V80.1048C273.495 80.2301 274.244 80.6688 274.82 81.4061C275.393 82.1488 275.68 83.0914 275.68 84.2408C275.68 84.8461 275.576 85.4208 275.365 85.9608C275.161 86.5048 274.841 86.9914 274.412 87.4194C273.981 87.8528 273.435 88.1901 272.775 88.4381C272.113 88.6834 271.343 88.8088 270.468 88.8088H266.448V72.1141Z" fill="#024EA2"/>
</g>
<mask id="mask10_1_19888" style="mask-type:luminance" maskUnits="userSpaceOnUse" x="-143" y="-421" width="794" height="1124">
<path d="M-143 -420.485H650.701V702.035H-143V-420.485Z" fill="white"/>
</mask>
<g mask="url(#mask10_1_19888)">
<path d="M287.086 86.1785C287.086 86.5425 287.102 87.0798 287.134 87.7812C287.166 88.2425 287.182 88.5838 287.182 88.8092H285.243L285.171 86.9905H285.126C284.503 88.3158 283.475 88.9772 282.041 88.9772C280.939 88.9772 280.07 88.6505 279.431 87.9932C278.794 87.3398 278.479 86.3692 278.479 85.0772V76.6118H280.486V84.4798C280.486 85.4212 280.657 86.1198 281.001 86.5732C281.342 87.0278 281.837 87.2518 282.497 87.2518C283.309 87.2518 283.945 86.9745 284.393 86.4172C284.85 85.8598 285.075 85.0372 285.075 83.9532V76.6118H287.086V86.1785Z" fill="#024EA2"/>
</g>
<mask id="mask11_1_19888" style="mask-type:luminance" maskUnits="userSpaceOnUse" x="-143" y="-421" width="794" height="1124">
<path d="M-143 -420.485H650.701V702.035H-143V-420.485Z" fill="white"/>
</mask>
<g mask="url(#mask11_1_19888)">
<path d="M289.477 86.4416C290.482 87.0469 291.439 87.3509 292.345 87.3509C293.079 87.3509 293.651 87.1856 294.055 86.8589C294.463 86.5336 294.665 86.1202 294.665 85.6269C294.665 85.1962 294.549 84.8322 294.307 84.5269C294.066 84.2229 293.67 83.9536 293.113 83.7122L291.774 83.1149C290.897 82.7176 290.279 82.2896 289.921 81.8229C289.561 81.3629 289.383 80.7496 289.383 79.9842C289.383 78.9629 289.743 78.1176 290.467 77.4496C291.194 76.7802 292.138 76.4429 293.305 76.4429C294.275 76.4429 295.135 76.5869 295.886 76.8762L295.789 78.5976C295.457 78.4376 295.082 78.3082 294.665 78.2122C294.251 78.1176 293.83 78.0722 293.398 78.0722C292.763 78.0722 292.266 78.2242 291.915 78.5376C291.566 78.8469 291.391 79.2509 291.391 79.7456C291.391 80.2056 291.559 80.5976 291.893 80.9162C292.227 81.2336 292.745 81.5296 293.449 81.8016L294.165 82.0882C294.929 82.3909 295.523 82.8029 295.945 83.3189C296.366 83.8376 296.579 84.4642 296.579 85.1962C296.579 86.3282 296.257 87.2416 295.611 87.9349C294.965 88.6282 293.978 88.9736 292.659 88.9736C291.383 88.9736 290.282 88.7362 289.357 88.2576L289.477 86.4416Z" fill="#024EA2"/>
</g>
<mask id="mask12_1_19888" style="mask-type:luminance" maskUnits="userSpaceOnUse" x="-143" y="-421" width="794" height="1124">
<path d="M-143 -420.485H650.701V702.035H-143V-420.485Z" fill="white"/>
</mask>
<g mask="url(#mask12_1_19888)">
<path d="M299.045 76.612H301.053V88.8093H299.045V76.612ZM301.147 73.98H298.949V71.5893H301.147V73.98Z" fill="#024EA2"/>
</g>
<mask id="mask13_1_19888" style="mask-type:luminance" maskUnits="userSpaceOnUse" x="-143" y="-421" width="794" height="1124">
<path d="M-143 -420.485H650.701V702.035H-143V-420.485Z" fill="white"/>
</mask>
<g mask="url(#mask13_1_19888)">
<path d="M304.159 79.2436C304.159 78.8742 304.144 78.3409 304.112 77.6382C304.08 77.1796 304.064 76.8356 304.064 76.6116H306.003L306.075 78.4289H306.121C306.744 77.1049 307.771 76.4449 309.205 76.4449C310.304 76.4449 311.173 76.7662 311.811 77.4142C312.449 78.0582 312.767 79.0356 312.767 80.3422V88.8089H310.76V80.9396C310.76 79.9996 310.592 79.3036 310.259 78.8462C309.925 78.3929 309.42 78.1676 308.752 78.1676C307.937 78.1676 307.303 78.4449 306.853 79.0022C306.396 79.5609 306.171 80.3822 306.171 81.4662V88.8089H304.159V79.2436Z" fill="#024EA2"/>
</g>
<mask id="mask14_1_19888" style="mask-type:luminance" maskUnits="userSpaceOnUse" x="-143" y="-421" width="794" height="1124">
<path d="M-143 -420.485H650.701V702.035H-143V-420.485Z" fill="white"/>
</mask>
<g mask="url(#mask14_1_19888)">
<path d="M322.07 81.7788C322.07 79.2441 321.273 77.9735 319.68 77.9735C318.961 77.9735 318.372 78.2775 317.91 78.8828C317.446 79.4881 317.208 80.4548 317.192 81.7788H322.07ZM317.192 83.3068C317.192 86.0681 318.3 87.4441 320.516 87.4441C320.994 87.4441 321.485 87.3441 321.988 87.1441C322.489 86.9468 322.932 86.7121 323.314 86.4415L323.41 88.2575C322.932 88.4828 322.393 88.6575 321.796 88.7841C321.198 88.9135 320.597 88.9761 319.989 88.9761C318.412 88.9761 317.2 88.4175 316.357 87.3028C315.51 86.1868 315.09 84.6561 315.09 82.7095C315.09 80.7641 315.498 79.2361 316.32 78.1161C317.14 77.0015 318.3 76.4455 319.8 76.4455C321.172 76.4455 322.225 76.9588 322.969 77.9881C323.709 79.0148 324.081 80.4308 324.081 82.2321V83.3068H317.192Z" fill="#024EA2"/>
</g>
<mask id="mask15_1_19888" style="mask-type:luminance" maskUnits="userSpaceOnUse" x="-143" y="-421" width="794" height="1124">
<path d="M-143 -420.485H650.701V702.035H-143V-420.485Z" fill="white"/>
</mask>
<g mask="url(#mask15_1_19888)">
<path d="M325.777 86.4416C326.78 87.0469 327.737 87.3509 328.645 87.3509C329.38 87.3509 329.949 87.1856 330.356 86.8589C330.764 86.5336 330.965 86.1202 330.965 85.6269C330.965 85.1962 330.849 84.8322 330.608 84.5269C330.367 84.2229 329.971 83.9536 329.413 83.7122L328.072 83.1149C327.195 82.7176 326.58 82.2896 326.22 81.8229C325.861 81.3629 325.681 80.7496 325.681 79.9842C325.681 78.9629 326.044 78.1176 326.768 77.4496C327.495 76.7802 328.439 76.4429 329.603 76.4429C330.576 76.4429 331.436 76.5869 332.187 76.8762L332.089 78.5976C331.755 78.4376 331.381 78.3082 330.965 78.2122C330.552 78.1176 330.128 78.0722 329.699 78.0722C329.063 78.0722 328.565 78.2242 328.216 78.5376C327.867 78.8469 327.692 79.2509 327.692 79.7456C327.692 80.2056 327.86 80.5976 328.193 80.9162C328.528 81.2336 329.045 81.5296 329.749 81.8016L330.465 82.0882C331.229 82.3909 331.823 82.8029 332.245 83.3189C332.665 83.8376 332.88 84.4642 332.88 85.1962C332.88 86.3282 332.556 87.2416 331.912 87.9349C331.265 88.6282 330.279 88.9736 328.959 88.9736C327.683 88.9736 326.583 88.7362 325.656 88.2576L325.777 86.4416Z" fill="#024EA2"/>
</g>
<mask id="mask16_1_19888" style="mask-type:luminance" maskUnits="userSpaceOnUse" x="-143" y="-421" width="794" height="1124">
<path d="M-143 -420.485H650.701V702.035H-143V-420.485Z" fill="white"/>
</mask>
<g mask="url(#mask16_1_19888)">
<path d="M334.626 86.4416C335.629 87.0469 336.586 87.3509 337.492 87.3509C338.229 87.3509 338.798 87.1856 339.206 86.8589C339.61 86.5336 339.816 86.1202 339.816 85.6269C339.816 85.1962 339.696 84.8322 339.458 84.5269C339.213 84.2229 338.818 83.9536 338.264 83.7122L336.921 83.1149C336.044 82.7176 335.426 82.2896 335.068 81.8229C334.71 81.3629 334.53 80.7496 334.53 79.9842C334.53 78.9629 334.892 78.1176 335.618 77.4496C336.342 76.7802 337.288 76.4429 338.45 76.4429C339.425 76.4429 340.285 76.5869 341.036 76.8762L340.938 78.5976C340.604 78.4376 340.228 78.3082 339.816 78.2122C339.4 78.1176 338.977 78.0722 338.546 78.0722C337.91 78.0722 337.412 78.2242 337.062 78.5376C336.713 78.8469 336.538 79.2509 336.538 79.7456C336.538 80.2056 336.706 80.5976 337.041 80.9162C337.377 81.2336 337.893 81.5296 338.596 81.8016L339.314 82.0882C340.076 82.3909 340.669 82.8029 341.096 83.3189C341.517 83.8376 341.726 84.4642 341.726 85.1962C341.726 86.3282 341.404 87.2416 340.758 87.9349C340.114 88.6282 339.129 88.9736 337.808 88.9736C336.534 88.9736 335.43 88.7362 334.504 88.2576L334.626 86.4416Z" fill="#024EA2"/>
</g>
<mask id="mask17_1_19888" style="mask-type:luminance" maskUnits="userSpaceOnUse" x="-143" y="-421" width="794" height="1124">
<path d="M-143 -420.485H650.701V702.035H-143V-420.485Z" fill="white"/>
</mask>
<g mask="url(#mask17_1_19888)">
<path d="M359.971 88.4728C358.887 88.8088 357.878 88.9768 356.935 88.9768C355.659 88.9768 354.543 88.7515 353.589 88.3048C352.634 87.8568 351.845 87.2395 351.231 86.4528C350.617 85.6635 350.166 84.7515 349.87 83.7248C349.573 82.6981 349.426 81.6035 349.426 80.4381C349.426 79.1635 349.607 78.0008 349.966 76.9461C350.323 75.8928 350.831 74.9955 351.482 74.2448C352.137 73.4968 352.918 72.9248 353.83 72.5355C354.735 72.1448 355.73 71.9501 356.817 71.9501C357.425 71.9501 358.003 72.0021 358.559 72.1061C359.118 72.2088 359.59 72.3555 359.971 72.5475V74.6035C359.095 74.0488 358.05 73.7648 356.842 73.7648C356.157 73.7648 355.497 73.8995 354.869 74.1728C354.237 74.4435 353.681 74.8461 353.193 75.3808C352.706 75.9155 352.325 76.5741 352.049 77.3541C351.767 78.1341 351.626 79.0195 351.626 80.0075C351.626 82.2235 352.075 83.9701 352.979 85.2448C353.878 86.5208 355.214 87.1595 356.983 87.1595C358.067 87.1595 359.065 86.8941 359.971 86.3688V88.4728Z" fill="#024EA2"/>
</g>
<mask id="mask18_1_19888" style="mask-type:luminance" maskUnits="userSpaceOnUse" x="-143" y="-421" width="794" height="1124">
<path d="M-143 -420.485H650.701V702.035H-143V-420.485Z" fill="white"/>
</mask>
<g mask="url(#mask18_1_19888)">
<path d="M366.883 87.3504C368.747 87.3504 369.681 85.8037 369.681 82.7117C369.681 79.6171 368.747 78.0717 366.883 78.0717C365.019 78.0717 364.087 79.6171 364.087 82.7117C364.087 85.8037 365.019 87.3504 366.883 87.3504ZM363.249 78.1184C364.096 77.0024 365.303 76.4437 366.883 76.4437C368.465 76.4437 369.673 77.0024 370.52 78.1184C371.365 79.2331 371.787 80.7651 371.787 82.7117C371.787 84.6557 371.365 86.1891 370.52 87.3037C369.673 88.4197 368.465 88.9771 366.883 88.9771C365.303 88.9771 364.096 88.4197 363.249 87.3037C362.403 86.1891 361.981 84.6557 361.981 82.7117C361.981 80.7651 362.403 79.2331 363.249 78.1184Z" fill="#024EA2"/>
</g>
<mask id="mask19_1_19888" style="mask-type:luminance" maskUnits="userSpaceOnUse" x="-143" y="-421" width="794" height="1124">
<path d="M-143 -420.485H650.701V702.035H-143V-420.485Z" fill="white"/>
</mask>
<g mask="url(#mask19_1_19888)">
<path d="M374.105 79.2436C374.105 78.8742 374.089 78.3409 374.057 77.6382C374.025 77.1796 374.009 76.8356 374.009 76.6116H375.948L376.02 78.5249H376.065C376.384 77.7916 376.813 77.2636 377.357 76.9342C377.901 76.6076 378.625 76.4449 379.533 76.4449V78.4289C379.293 78.3822 379.036 78.3569 378.772 78.3569C377.971 78.3569 377.327 78.7022 376.844 79.3836C376.36 80.0702 376.116 81.0582 376.116 82.3502V88.8089H374.105V79.2436Z" fill="#024EA2"/>
</g>
<mask id="mask20_1_19888" style="mask-type:luminance" maskUnits="userSpaceOnUse" x="-143" y="-421" width="794" height="1124">
<path d="M-143 -420.485H650.701V702.035H-143V-420.485Z" fill="white"/>
</mask>
<g mask="url(#mask20_1_19888)">
<path d="M385.681 87.3504C387.464 87.3504 388.357 85.8037 388.357 82.7117C388.357 79.6171 387.464 78.0717 385.681 78.0717C383.893 78.0717 383 79.6171 383 82.7117C383 85.8037 383.893 87.3504 385.681 87.3504ZM380.994 78.8597C380.994 78.5571 380.977 78.1037 380.942 77.4984C380.914 77.0997 380.896 76.8037 380.896 76.6117H382.833L382.904 78.4051H382.952C383.27 77.8331 383.686 77.3624 384.197 76.9944C384.706 76.6277 385.36 76.4437 386.153 76.4437C387.445 76.4437 388.473 76.9731 389.23 78.0344C389.989 79.0957 390.366 80.6517 390.366 82.7117C390.366 84.7677 389.989 86.3237 389.23 87.3877C388.473 88.4464 387.445 88.9771 386.153 88.9771C385.472 88.9771 384.885 88.8317 384.398 88.5451C383.916 88.2584 383.462 87.7864 383.048 87.1357H383V93.9717H380.994V78.8597Z" fill="#024EA2"/>
</g>
<mask id="mask21_1_19888" style="mask-type:luminance" maskUnits="userSpaceOnUse" x="-143" y="-421" width="794" height="1124">
<path d="M-143 -420.485H650.701V702.035H-143V-420.485Z" fill="white"/>
</mask>
<g mask="url(#mask21_1_19888)">
<path d="M396.99 87.3504C398.855 87.3504 399.787 85.8037 399.787 82.7117C399.787 79.6171 398.855 78.0717 396.99 78.0717C395.126 78.0717 394.194 79.6171 394.194 82.7117C394.194 85.8037 395.126 87.3504 396.99 87.3504ZM393.355 78.1184C394.202 77.0024 395.408 76.4437 396.99 76.4437C398.571 76.4437 399.779 77.0024 400.626 78.1184C401.471 79.2331 401.894 80.7651 401.894 82.7117C401.894 84.6557 401.471 86.1891 400.626 87.3037C399.779 88.4197 398.571 88.9771 396.99 88.9771C395.408 88.9771 394.202 88.4197 393.355 87.3037C392.51 86.1891 392.09 84.6557 392.09 82.7117C392.09 80.7651 392.51 79.2331 393.355 78.1184Z" fill="#024EA2"/>
</g>
<mask id="mask22_1_19888" style="mask-type:luminance" maskUnits="userSpaceOnUse" x="-143" y="-421" width="794" height="1124">
<path d="M-143 -420.485H650.701V702.035H-143V-420.485Z" fill="white"/>
</mask>
<g mask="url(#mask22_1_19888)">
<path d="M404.212 79.2436C404.212 78.8742 404.195 78.3409 404.164 77.6382C404.131 77.1796 404.116 76.8356 404.116 76.6116H406.054L406.126 78.5249H406.172C406.491 77.7916 406.92 77.2636 407.463 76.9342C408.008 76.6076 408.732 76.4449 409.64 76.4449V78.4289C409.4 78.3822 409.143 78.3569 408.878 78.3569C408.076 78.3569 407.434 78.7022 406.951 79.3836C406.466 80.0702 406.222 81.0582 406.222 82.3502V88.8089H404.212V79.2436Z" fill="#024EA2"/>
</g>
<mask id="mask23_1_19888" style="mask-type:luminance" maskUnits="userSpaceOnUse" x="-143" y="-421" width="794" height="1124">
<path d="M-143 -420.485H650.701V702.035H-143V-420.485Z" fill="white"/>
</mask>
<g mask="url(#mask23_1_19888)">
<path d="M417.604 82.8309C417.364 82.7989 416.893 82.7829 416.191 82.7829C415.06 82.7829 414.195 83.0176 413.597 83.4883C413 83.9576 412.701 84.5683 412.701 85.3149C412.701 85.9856 412.872 86.5096 413.215 86.8829C413.557 87.2549 414.072 87.4469 414.757 87.4469C415.601 87.4469 416.288 87.1469 416.815 86.5496C417.341 85.9523 417.604 85.2216 417.604 84.3603V82.8309ZM411.768 77.4483C412.279 77.1296 412.833 76.8843 413.429 76.7083C414.027 76.5309 414.623 76.4469 415.212 76.4469C415.993 76.4469 416.663 76.5696 417.219 76.8163C417.779 77.0616 418.193 77.3216 418.465 77.5923C418.784 77.9123 419.037 78.2976 419.231 78.7536C419.421 79.2069 419.519 79.8176 419.519 80.5803V86.9429C419.519 87.3109 419.525 87.6509 419.537 87.9696C419.556 88.2909 419.579 88.5683 419.615 88.8083H417.795L417.675 87.1589H417.628C417.307 87.7003 416.873 88.1376 416.324 88.4723C415.775 88.8083 415.068 88.9763 414.209 88.9763C413.155 88.9763 412.305 88.6723 411.663 88.0669C411.015 87.4603 410.695 86.5936 410.695 85.4589C410.695 84.2003 411.148 83.1989 412.068 82.4576C412.984 81.7176 414.439 81.3469 416.432 81.3469H417.604V80.7963C417.604 80.3189 417.576 79.9363 417.52 79.6483C417.464 79.3643 417.341 79.0909 417.147 78.8389C416.959 78.5656 416.685 78.3709 416.324 78.2523C415.965 78.1309 415.564 78.0723 415.116 78.0723C414.495 78.0723 413.905 78.1843 413.348 78.4163C412.789 78.6496 412.336 78.9549 411.983 79.3376L411.768 77.4483Z" fill="#024EA2"/>
</g>
<mask id="mask24_1_19888" style="mask-type:luminance" maskUnits="userSpaceOnUse" x="-143" y="-421" width="794" height="1124">
<path d="M-143 -420.485H650.701V702.035H-143V-420.485Z" fill="white"/>
</mask>
<g mask="url(#mask24_1_19888)">
<path d="M427.742 88.6642C427.487 88.7442 427.205 88.8136 426.893 88.8789C426.583 88.9442 426.299 88.9736 426.046 88.9736C425.089 88.9736 424.377 88.7509 423.919 88.3042C423.453 87.8589 423.222 87.1189 423.222 86.0816V78.2362H421.286V76.6109H423.222V74.1242L425.23 73.5256V76.6109H427.742V78.2362H425.23V85.4336C425.23 86.1202 425.326 86.6136 425.518 86.9096C425.71 87.2029 426.037 87.3509 426.498 87.3509C426.847 87.3509 427.265 87.2456 427.742 87.0389V88.6642Z" fill="#024EA2"/>
</g>
<mask id="mask25_1_19888" style="mask-type:luminance" maskUnits="userSpaceOnUse" x="-143" y="-421" width="794" height="1124">
<path d="M-143 -420.485H650.701V702.035H-143V-420.485Z" fill="white"/>
</mask>
<g mask="url(#mask25_1_19888)">
<path d="M429.632 76.612H431.643V88.8093H429.632V76.612ZM431.736 73.98H429.536V71.5893H431.736V73.98Z" fill="#024EA2"/>
</g>
<mask id="mask26_1_19888" style="mask-type:luminance" maskUnits="userSpaceOnUse" x="-143" y="-421" width="794" height="1124">
<path d="M-143 -420.485H650.701V702.035H-143V-420.485Z" fill="white"/>
</mask>
<g mask="url(#mask26_1_19888)">
<path d="M439.055 87.3504C440.919 87.3504 441.849 85.8037 441.849 82.7117C441.849 79.6171 440.919 78.0717 439.055 78.0717C437.191 78.0717 436.255 79.6171 436.255 82.7117C436.255 85.8037 437.191 87.3504 439.055 87.3504ZM435.416 78.1184C436.264 77.0024 437.475 76.4437 439.055 76.4437C440.633 76.4437 441.84 77.0024 442.692 78.1184C443.533 79.2331 443.959 80.7651 443.959 82.7117C443.959 84.6557 443.533 86.1891 442.692 87.3037C441.84 88.4197 440.633 88.9771 439.055 88.9771C437.475 88.9771 436.264 88.4197 435.416 87.3037C434.571 86.1891 434.151 84.6557 434.151 82.7117C434.151 80.7651 434.571 79.2331 435.416 78.1184Z" fill="#024EA2"/>
</g>
<mask id="mask27_1_19888" style="mask-type:luminance" maskUnits="userSpaceOnUse" x="-143" y="-421" width="794" height="1124">
<path d="M-143 -420.485H650.701V702.035H-143V-420.485Z" fill="white"/>
</mask>
<g mask="url(#mask27_1_19888)">
<path d="M446.273 79.2436C446.273 78.8742 446.259 78.3409 446.229 77.6382C446.195 77.1796 446.18 76.8356 446.18 76.6116H448.115L448.188 78.4289H448.236C448.857 77.1049 449.887 76.4449 451.32 76.4449C452.42 76.4449 453.289 76.7662 453.928 77.4142C454.565 78.0582 454.883 79.0356 454.883 80.3422V88.8089H452.875V80.9396C452.875 79.9996 452.707 79.3036 452.376 78.8462C452.039 78.3929 451.537 78.1676 450.867 78.1676C450.053 78.1676 449.419 78.4449 448.967 79.0022C448.511 79.5609 448.284 80.3822 448.284 81.4662V88.8089H446.273V79.2436Z" fill="#024EA2"/>
</g>
<mask id="mask28_1_19888" style="mask-type:luminance" maskUnits="userSpaceOnUse" x="-143" y="-421" width="794" height="1124">
<path d="M-143 -420.485H650.701V702.035H-143V-420.485Z" fill="white"/>
</mask>
<g mask="url(#mask28_1_19888)">
<path d="M172.253 50.6108C171.117 50.6108 170.387 50.0841 170.387 48.9881V24.4228H174.562C175.535 24.4228 176.346 24.6268 176.346 25.8401V34.5988H181.898V39.6228H176.346V50.6108H172.253ZM156.523 33.5428H156.362C154.051 33.5428 152.751 35.0028 152.751 37.8401C152.751 40.3134 154.051 42.1374 156.362 42.1374C158.59 42.1374 159.969 40.3134 159.969 37.8401C159.969 35.0828 158.629 33.6254 156.523 33.5428ZM154.577 61.9201C152.55 61.9201 151.25 60.3788 151.25 58.9614V48.9081H157.213V55.9201C157.213 56.9361 157.494 57.0974 158.183 57.0974H177.117V61.9201H154.577ZM156.362 47.1241C150.929 47.1241 146.914 43.2321 146.914 37.8401C146.914 36.2988 147.279 34.8401 147.969 33.5428H145.901C144.846 33.5428 144.158 32.8548 144.158 31.8814V28.4748H153.399V23.8561H157.537C158.55 23.8561 159.319 24.0148 159.319 25.3134V28.4748H168.481V33.5428H164.753C165.441 34.8401 165.803 36.2988 165.803 37.8401C165.803 43.2321 161.751 47.1241 156.362 47.1241Z" fill="#024EA2"/>
</g>
<mask id="mask29_1_19888" style="mask-type:luminance" maskUnits="userSpaceOnUse" x="-143" y="-421" width="794" height="1124">
<path d="M-143 -420.485H650.701V702.035H-143V-420.485Z" fill="white"/>
</mask>
<g mask="url(#mask29_1_19888)">
<path d="M209.257 62.3269V52.7989H189.311V47.9762H199.286V43.0296H185.666C184.61 43.0296 183.919 42.3416 183.919 41.4082V38.0029H208.446C208.773 36.3429 209.054 34.1522 209.054 33.1789V30.1389H189.109V25.3136H212.785C214.082 25.3136 215.015 26.0442 215.015 27.2602V33.0576C215.015 34.3536 214.773 36.0976 214.365 38.0029H220.609V43.0296H205.242V47.9762H213.067C214.566 47.9762 215.217 48.6256 215.217 49.6776V62.3269H209.257Z" fill="#024EA2"/>
</g>
<mask id="mask30_1_19888" style="mask-type:luminance" maskUnits="userSpaceOnUse" x="-143" y="-421" width="794" height="1124">
<path d="M-143 -420.485H650.701V702.035H-143V-420.485Z" fill="white"/>
</mask>
<g mask="url(#mask30_1_19888)">
<path d="M245.816 60.9091C244.68 60.9091 243.954 60.4611 243.954 59.3264V24.7877H248.084C249.06 24.7877 249.831 25.0704 249.87 26.2464V39.1784H252.059V24.4211H256.154C257.168 24.4211 257.939 24.6251 257.939 25.8411V62.1251H253.924C252.79 62.1251 252.059 61.5997 252.059 60.5037V44.2051H249.87V60.9091H245.816ZM233.858 41.6104C231.79 41.6104 231.1 43.8811 231.1 46.8797C231.1 49.9611 231.79 52.1917 233.858 52.1917C235.924 52.1917 236.655 49.9611 236.655 46.8797C236.655 43.8811 235.924 41.6104 233.858 41.6104ZM233.858 57.1797C228.911 57.1797 225.263 52.9624 225.263 46.8797C225.263 40.8411 228.911 36.6637 233.858 36.6637C238.76 36.6637 242.492 40.8411 242.492 46.8797C242.492 52.9624 238.76 57.1797 233.858 57.1797ZM225.182 34.7197C224.127 34.7197 223.439 34.0317 223.439 33.0984V29.6517H230.736V24.2597H234.908C235.884 24.2597 236.695 24.5024 236.695 25.6797V29.6517H242.856V34.7197H225.182Z" fill="#024EA2"/>
</g>
<mask id="mask31_1_19888" style="mask-type:luminance" maskUnits="userSpaceOnUse" x="-143" y="-421" width="794" height="1124">
<path d="M-143 -420.485H650.701V702.035H-143V-420.485Z" fill="white"/>
</mask>
<g mask="url(#mask31_1_19888)">
<path d="M288.457 44.6923V24.4216H292.632C293.725 24.4216 294.416 24.7883 294.416 26.0029V28.1923H299.968V33.3029H294.416V36.2603H299.968V41.3683H294.416V44.6923H288.457ZM282.256 50.6909C278.118 50.6909 275.322 51.9883 275.322 54.4616C275.322 56.9349 278.118 58.3549 282.256 58.3549C286.389 58.3549 289.228 56.9349 289.228 54.4616C289.228 51.9883 286.389 50.6909 282.256 50.6909ZM274.066 29.6096C271.19 29.6096 269.565 31.8416 269.525 34.2736C269.525 36.5429 271.226 39.0163 274.066 39.0163C276.864 39.0163 278.568 36.7856 278.568 34.2736C278.568 31.8416 276.864 29.6096 274.066 29.6096ZM282.256 63.2603C274.917 63.2603 269.405 60.3789 269.405 54.4203C269.405 48.5029 274.917 45.6656 282.256 45.6656C289.553 45.6656 295.105 48.5029 295.105 54.4203C295.105 60.3789 289.553 63.2603 282.256 63.2603ZM274.066 44.0043C267.704 44.0043 263.606 39.5829 263.606 34.2736C263.606 28.9616 267.704 24.6643 274.066 24.6643C280.389 24.6643 284.526 28.9616 284.526 34.2736C284.526 39.5829 280.389 44.0043 274.066 44.0043Z" fill="#024EA2"/>
</g>
<mask id="mask32_1_19888" style="mask-type:luminance" maskUnits="userSpaceOnUse" x="-143" y="-421" width="794" height="1124">
<path d="M-143 -420.485H650.701V702.035H-143V-420.485Z" fill="white"/>
</mask>
<g mask="url(#mask32_1_19888)">
<path d="M331.18 50.6108C330.044 50.6108 329.317 50.0841 329.317 48.9881V24.4228H333.49C334.464 24.4228 335.273 24.6268 335.273 25.8401V50.6108H331.18ZM313.505 61.9201C311.477 61.9201 310.178 60.3788 310.178 58.9614V47.6921H316.141V55.6374C316.141 56.6521 316.381 56.8534 317.112 56.8534H336.044V61.9201H313.505ZM323.558 45.9481C321.165 45.2188 317.356 43.1494 314.6 40.2721C311.964 43.2734 308.357 45.5014 305.637 46.5561L302.924 44.1654C302.316 43.5961 302.114 42.8668 303.125 42.4614C305.966 41.2854 311.64 37.8401 311.64 32.0828V31.1521H305.717C304.706 31.1521 303.981 30.4641 303.981 29.5308V26.0841H325.097V31.1521H317.596V32.0828C317.596 37.7201 323.434 40.6788 325.949 41.8534C326.925 42.3414 326.72 42.9908 326.11 43.5961L323.558 45.9481Z" fill="#024EA2"/>
</g>
<mask id="mask33_1_19888" style="mask-type:luminance" maskUnits="userSpaceOnUse" x="-143" y="-421" width="794" height="1124">
<path d="M-143 -420.485H650.701V702.035H-143V-420.485Z" fill="white"/>
</mask>
<g mask="url(#mask33_1_19888)">
<path d="M359.385 31.8406H358.9C355.616 31.8406 353.508 32.6113 353.508 34.434C353.508 36.3006 355.616 37.03 358.9 37.03C362.183 37.03 364.293 36.3006 364.293 34.434C364.293 32.7326 362.387 31.9233 359.385 31.8406ZM358.9 53.3273C354.643 53.3273 351.848 54.0966 351.848 56.2046C351.848 58.3526 354.643 59.3273 358.9 59.3273C363.157 59.3273 365.953 58.3526 365.953 56.2046C365.953 54.0966 363.157 53.3273 358.9 53.3273ZM358.9 63.7446C351.32 63.7446 345.927 61.6393 345.927 56.166C345.927 50.8126 351.32 48.7873 358.9 48.7873C366.48 48.7873 371.915 50.8126 371.915 56.166C371.915 61.6393 366.48 63.7446 358.9 63.7446ZM358.9 41.6513C351.971 41.6513 347.591 39.2593 347.591 34.394C347.591 33.4633 347.792 32.6113 348.2 31.8406H345.076C344.024 31.8406 343.333 31.1526 343.333 30.2206V27.2193H355.9V23.326H360.076C361.088 23.326 361.86 23.5713 361.86 24.8273V27.2193H374.061V31.8406H369.604C370.008 32.6113 370.249 33.4633 370.249 34.394C370.249 39.2593 365.791 41.6513 358.9 41.6513ZM342.281 47.3273C341.225 47.3273 340.535 46.6393 340.535 45.706V42.99H377.227V47.3273H342.281Z" fill="#024EA2"/>
</g>
<mask id="mask34_1_19888" style="mask-type:luminance" maskUnits="userSpaceOnUse" x="-143" y="-421" width="794" height="1124">
<path d="M-143 -420.485H650.701V702.035H-143V-420.485Z" fill="white"/>
</mask>
<g mask="url(#mask34_1_19888)">
<path d="M398.016 51.1778C393.716 51.1778 390.76 52.6778 390.76 54.8672C390.76 57.2192 393.716 58.7178 398.016 58.7178C402.314 58.7178 405.27 57.2192 405.27 54.8672C405.27 52.6778 402.314 51.1778 398.016 51.1778ZM398.016 63.2605C390.476 63.2605 384.838 60.5032 384.838 54.8258C384.838 49.2325 390.434 46.5165 398.016 46.5165C405.593 46.5165 411.233 49.2325 411.233 54.8258C411.233 60.5032 405.553 63.2605 398.016 63.2605ZM411.108 31.3552C411.108 32.8552 410.662 36.7872 410.013 38.6098H405.961C404.866 38.6098 404.338 38.2058 404.581 37.1512C404.866 35.8978 405.189 33.2178 405.189 32.0045V30.1365H384.838V25.3138H408.877C410.134 25.3138 411.108 26.0458 411.108 27.2592V31.3552ZM381.393 44.7725C380.34 44.7725 379.652 44.0818 379.652 43.1498V39.7458H392.866V32.6125H396.837C398.016 32.6125 398.824 32.8965 398.824 34.2738V39.7458H416.338V44.7725H381.393Z" fill="#024EA2"/>
</g>
<mask id="mask35_1_19888" style="mask-type:luminance" maskUnits="userSpaceOnUse" x="-143" y="-421" width="794" height="1124">
<path d="M-143 -420.485H650.701V702.035H-143V-420.485Z" fill="white"/>
</mask>
<g mask="url(#mask35_1_19888)">
<path d="M446.697 62.1245C445.605 62.1245 444.834 61.5992 444.834 60.5018V24.4232H449.005C450.021 24.4232 450.789 24.7058 450.789 25.8405V37.2325H456.343V42.2618H450.789V62.1245H446.697ZM440.047 55.4338C437.735 54.2178 433.643 51.4632 430.763 47.6925C427.806 51.7458 423.75 54.4218 421.483 55.5565L418.843 53.0432C418.238 52.4338 418.198 51.7458 419.049 51.2605C422.737 49.0698 427.806 44.6112 427.806 38.2885V25.6378H431.775C432.874 25.6378 433.765 25.8405 433.765 27.3392V38.2885C433.805 44.4898 439.157 49.0298 442.682 51.2192C443.777 51.9085 443.413 52.4752 442.803 53.0432L440.047 55.4338Z" fill="#024EA2"/>
</g>
<mask id="mask36_1_19888" style="mask-type:luminance" maskUnits="userSpaceOnUse" x="-143" y="-421" width="794" height="1124">
<path d="M-143 -420.485H650.701V702.035H-143V-420.485Z" fill="white"/>
</mask>
<g mask="url(#mask36_1_19888)">
<path d="M127.969 100.302C127.969 100.302 123.265 72.2956 90.5028 70.0196C54.5322 67.5209 39.8095 122.76 1.24148 107.462C0.662817 107.232 0.137484 107.893 0.498818 108.397C3.46282 112.496 13.0921 122.102 35.0788 115.044C63.8175 105.821 74.4188 70.6516 127.969 100.302Z" fill="#00AEEF"/>
</g>
<mask id="mask37_1_19888" style="mask-type:luminance" maskUnits="userSpaceOnUse" x="-143" y="-421" width="794" height="1124">
<path d="M-143 -420.485H650.701V702.035H-143V-420.485Z" fill="white"/>
</mask>
<g mask="url(#mask37_1_19888)">
<path d="M127.207 15.8979C127.207 15.8979 133.304 17.1206 132.24 23.8246C131.176 30.5299 118.546 40.3153 115.134 44.7686C115.134 44.7686 117.73 31.7886 127.207 15.8979Z" fill="#024EA2"/>
</g>
<mask id="mask38_1_19888" style="mask-type:luminance" maskUnits="userSpaceOnUse" x="-143" y="-421" width="794" height="1124">
<path d="M-143 -420.485H650.701V702.035H-143V-420.485Z" fill="white"/>
</mask>
<g mask="url(#mask38_1_19888)">
<path d="M21.3144 106.978C26.3717 104.969 35.5611 99.9127 47.7757 87.3433C60.7437 74.0047 86.9411 51.058 114.734 72.9487C114.734 72.9487 107.925 41.102 125.074 15.426C125.074 15.426 65.8397 11.5407 40.6477 74.7313C33.7091 92.138 25.1624 101.422 20.4437 105.559C19.7304 106.179 20.4331 107.33 21.3144 106.978Z" fill="#024EA2"/>
</g>
<mask id="mask39_1_19888" style="mask-type:luminance" maskUnits="userSpaceOnUse" x="-30" y="-28" width="514" height="171">
<path d="M-30 -27.4854H484V142.515H-30V-27.4854Z" fill="white"/>
</mask>
<g mask="url(#mask39_1_19888)">
<path d="M35.1757 81.6083C37.7224 68.8003 46.6797 41.0016 77.6117 22.9696L77.4531 -0.371727C77.4531 -0.371727 34.5424 24.0083 34.0424 81.4856C34.0357 82.1763 35.0424 82.2869 35.1757 81.6083Z" fill="#ED1C24"/>
</g>
</g>
<defs>
<clipPath id="clip0_1_19888">
<rect width="456" height="118" fill="white"/>
</clipPath>
</defs>
</svg>
