<svg width="1442" height="327" viewBox="0 0 1442 327" fill="none" xmlns="http://www.w3.org/2000/svg">
<g clip-path="url(#clip0_5_149)">
<mask id="mask0_5_149" style="mask-type:luminance" maskUnits="userSpaceOnUse" x="0" y="0" width="1442" height="327">
<path d="M0 -0.000192841H1441.15V326.681H0V-0.000192841Z" fill="white"/>
</mask>
<g mask="url(#mask0_5_149)">
<path d="M317.077 223.642H314.866L313.366 230.831H315.318C318.197 230.831 321.662 229.95 321.662 226.435C321.662 223.642 319.24 223.642 317.077 223.642Z" fill="#0083C9"/>
</g>
<mask id="mask1_5_149" style="mask-type:luminance" maskUnits="userSpaceOnUse" x="0" y="0" width="1442" height="327">
<path d="M0 -0.000192841H1441.15V326.681H0V-0.000192841Z" fill="white"/>
</mask>
<g mask="url(#mask1_5_149)">
<path d="M298.935 186.272C306.478 158.115 329.971 70.4511 331.419 65.0271C321.149 75.4351 272.711 124.532 272.711 124.532C272.711 124.532 290.779 167.071 298.935 186.272Z" fill="#0083C9"/>
</g>
<mask id="mask2_5_149" style="mask-type:luminance" maskUnits="userSpaceOnUse" x="0" y="0" width="1442" height="327">
<path d="M0 -0.000192841H1441.15V326.681H0V-0.000192841Z" fill="white"/>
</mask>
<g mask="url(#mask2_5_149)">
<path d="M397.836 103.07C401.168 92.4579 391.618 90.9393 381.034 90.9393H365.481L358.7 116.051C383.436 116.019 394.16 114.914 397.836 103.07Z" fill="#0083C9"/>
</g>
<mask id="mask3_5_149" style="mask-type:luminance" maskUnits="userSpaceOnUse" x="0" y="0" width="1442" height="327">
<path d="M1.52588e-05 -0.000192841H1441.15V326.681H1.52588e-05V-0.000192841Z" fill="white"/>
</mask>
<g mask="url(#mask3_5_149)">
<path d="M245.721 224.189L239.319 235.784H247.561L245.881 224.189H245.721Z" fill="#0083C9"/>
</g>
<mask id="mask4_5_149" style="mask-type:luminance" maskUnits="userSpaceOnUse" x="0" y="0" width="1442" height="327">
<path d="M0 -0.000192841H1441.15V326.681H0V-0.000192841Z" fill="white"/>
</mask>
<g mask="url(#mask4_5_149)">
<path d="M165.21 223.19C158.977 223.19 155.797 230.396 155.797 235.784C155.797 239.25 157.54 242.33 161.397 242.33C167.512 242.33 170.904 235.019 170.904 229.715C170.904 226.155 169.07 223.19 165.21 223.19Z" fill="#0083C9"/>
</g>
<mask id="mask5_5_149" style="mask-type:luminance" maskUnits="userSpaceOnUse" x="0" y="0" width="1442" height="327">
<path d="M0 -0.000192841H1441.15V326.681H0V-0.000192841Z" fill="white"/>
</mask>
<g mask="url(#mask5_5_149)">
<path d="M191.048 223.642H188.868L187.375 230.831H189.304C192.183 230.831 195.638 229.95 195.638 226.435C195.638 223.642 193.236 223.642 191.048 223.642Z" fill="#0083C9"/>
</g>
<mask id="mask6_5_149" style="mask-type:luminance" maskUnits="userSpaceOnUse" x="0" y="0" width="1442" height="327">
<path d="M0 -0.000192841H1441.15V326.681H0V-0.000192841Z" fill="white"/>
</mask>
<g mask="url(#mask6_5_149)">
<path d="M593.324 163.34C593.324 124.537 563.248 88.2693 508.63 61.212C454.646 34.4693 382.925 19.7427 306.666 19.7427C230.418 19.7427 158.691 34.4693 104.706 61.212C50.0928 88.2693 20.0088 124.537 20.0088 163.34C20.0088 202.136 50.0928 238.408 104.706 265.467C158.691 292.205 230.418 306.936 306.666 306.936C382.925 306.936 454.646 292.205 508.63 265.467C563.248 238.408 593.324 202.136 593.324 163.34ZM606.666 163.34C606.666 249.872 472.352 320.015 306.666 320.015C140.986 320.015 6.66614 249.872 6.66614 163.34C6.66614 76.808 140.986 6.66534 306.666 6.66534C472.352 6.66534 606.666 76.808 606.666 163.34Z" fill="#0083C9"/>
</g>
<mask id="mask7_5_149" style="mask-type:luminance" maskUnits="userSpaceOnUse" x="0" y="0" width="1442" height="327">
<path d="M0 -0.000192841H1441.15V326.681H0V-0.000192841Z" fill="white"/>
</mask>
<g mask="url(#mask7_5_149)">
<path d="M488.841 225.739C488.841 219.378 483.156 219.453 478.225 219.453H471.937L466.353 246.081H471.721L474.055 235.018H476.079C478.953 235.018 478.804 236.994 479.441 239.822L480.732 246.081H486.32L483.773 235.365C483.427 233.903 482.515 232.994 481.067 232.919V232.838C485.416 232.765 488.841 230.325 488.841 225.739ZM464.739 219.453H449.052L443.44 246.081H459.328L460.237 241.889H449.689L451.284 234.413H460.624L461.465 230.214H452.151L453.515 223.641H463.961L464.739 219.453ZM442.723 219.453H422.153L421.245 223.641H428.757L423.913 246.081H429.484L434.337 223.641H441.848L442.723 219.453ZM416.105 220.181C413.943 219.305 411.508 218.986 409.196 218.986C404.092 218.986 399.283 221.441 399.283 227.053C399.283 234.153 408.352 233.381 408.352 238.183C408.352 241.049 405.839 242.33 403.283 242.33C400.993 242.33 398.824 241.47 396.752 240.506L395.399 245.061C397.792 245.927 400.415 246.538 402.981 246.538C408.815 246.538 413.943 244.169 413.943 237.659C413.943 230.247 404.851 230.515 404.851 226.239C404.851 223.954 407.407 223.189 409.325 223.189C411.252 223.189 413.279 223.751 414.845 224.566L416.105 220.181ZM394.404 219.453H388.833L383.229 246.081H388.803L394.404 219.453ZM385.912 163.922C385.912 169.667 384.811 177.013 383.78 184.163C383.217 187.89 382.712 191.445 382.388 194.429H429.179C429.14 193.691 429.085 192.921 429.085 192.119C429.085 187.513 429.571 182.495 430.076 177.287C430.585 171.942 431.107 166.522 431.107 161.451C431.107 157.414 430.784 153.614 429.821 150.271C426.079 138.157 406.877 134.751 406.877 134.751C406.877 134.751 445.501 130.85 444.072 88.9501C443.537 72.2008 427.2 64.9155 407.813 64.9155H331.529H331.449H282.185C280.071 67.3181 234.467 118.645 234.467 118.645C234.467 118.645 246.768 72.6355 248.852 64.9155H203.903C202.557 69.9688 171.471 185.987 169.208 194.429H214.131C215.485 189.483 229.323 136.409 229.323 136.409C229.323 136.409 246.4 189.77 247.891 194.429H296.751H302.4H339.316C340.628 189.599 351.785 147.978 351.785 147.978H354.609C374.303 147.978 383.107 148.395 385.301 157.791C385.752 159.498 385.912 161.565 385.912 163.922ZM379.34 220.473C376.545 219.407 373.408 218.986 370.449 218.986C360.827 218.986 354.441 224.986 354.441 234.721C354.441 242.957 359.695 246.538 367.504 246.538C370.115 246.538 373.056 245.997 374.629 245.354L377.685 230.83H366.915L366.011 235.018H371.651L370.172 242.085C369.584 242.33 368.756 242.33 367.528 242.33C363.003 242.33 360.012 238.87 360.012 234.566C360.012 228.259 364.111 223.189 370.585 223.189C373.36 223.189 375.937 223.751 377.983 225.097L379.34 220.473ZM352.213 219.453H336.532L330.925 246.081H346.789L347.717 241.889H337.189L338.764 234.413H348.083L348.964 230.214H339.628L341.007 223.641H351.415L352.213 219.453ZM327.236 225.739C327.236 219.378 321.536 219.453 316.603 219.453H310.319L304.757 246.081H310.072L312.415 235.018H314.452C317.341 235.018 317.183 236.994 317.793 239.822L319.085 246.081H324.691L322.145 235.365C321.812 233.903 320.876 232.994 319.42 232.919V232.838C323.787 232.765 327.236 230.325 327.236 225.739ZM288.765 219.453H283.725L279.36 239.674H279.284L273.615 219.453H266.865L261.109 246.081H266.239L270.468 225.682H270.553L276.121 246.081H282.992L288.765 219.453ZM254.527 246.081L249.685 219.453H243.771L227.64 246.081H233.552L236.939 239.979H248.279L249.203 246.081H254.527ZM227.115 219.453H211.415L205.825 246.081H221.692L222.616 241.889H212.085L213.653 234.413H222.988L223.839 230.214H214.512L215.9 223.641H226.316L227.115 219.453ZM201.207 225.739C201.207 219.378 195.523 219.453 190.612 219.453H184.316L178.755 246.081H184.053L186.42 235.018H188.427C191.328 235.018 191.175 236.994 191.779 239.822L193.093 246.081H198.688L196.148 235.365C195.804 233.903 194.873 232.994 193.435 232.919V232.838C197.784 232.765 201.207 230.325 201.207 225.739ZM176.467 230.294C176.467 223.189 172.571 218.986 165.349 218.986C161.004 218.986 157.325 220.627 154.408 223.954C151.699 227.127 150.221 231.25 150.221 235.479C150.221 241.809 154.148 246.538 160.717 246.538C165.164 246.538 169.227 245.183 172.019 242.085C174.872 238.87 176.467 234.641 176.467 230.294ZM146.469 246.081L137.903 231.581L151.369 219.453H143.924L133.35 229.907H133.28L135.544 219.453H130.208L124.475 246.081H129.791L132.708 232.541L140.115 246.081H146.469ZM588.748 163.339C588.748 239.519 462.209 301.494 306.667 301.494C151.129 301.494 24.5842 239.519 24.5842 163.339C24.5842 87.1595 151.129 25.1821 306.667 25.1821C462.209 25.1821 588.748 87.1595 588.748 163.339Z" fill="#0083C9"/>
</g>
<mask id="mask8_5_149" style="mask-type:luminance" maskUnits="userSpaceOnUse" x="0" y="0" width="1442" height="327">
<path d="M0 -0.000192841H1441.15V326.681H0V-0.000192841Z" fill="white"/>
</mask>
<g mask="url(#mask8_5_149)">
<path d="M478.698 223.642H476.479L475 230.831H476.944C479.819 230.831 483.299 229.95 483.299 226.435C483.299 223.642 480.87 223.642 478.698 223.642Z" fill="#0083C9"/>
</g>
<mask id="mask9_5_149" style="mask-type:luminance" maskUnits="userSpaceOnUse" x="0" y="0" width="1442" height="327">
<path d="M0 -0.000192841H1441.15V326.681H0V-0.000192841Z" fill="white"/>
</mask>
<g mask="url(#mask9_5_149)">
<path d="M787.96 151.886V206.088H760.552V74.1629H787.96V127.342H811.89V151.886H787.96ZM706.658 152.09C701.955 150.183 696.602 149.228 690.603 149.228C684.328 149.228 678.704 150.148 673.73 151.988C668.75 153.83 666.263 156.592 666.263 160.272C666.263 164.091 668.718 166.851 673.627 168.556C678.535 170.262 684.192 171.112 690.603 171.112C696.602 171.112 701.955 170.262 706.658 168.556C711.363 166.851 713.715 164.158 713.715 160.476C713.715 156.796 711.363 154.003 706.658 152.09ZM659.31 72.5282H720.464V92.9789H659.31V72.5282ZM658.083 250.062V200.362H687.535V227.562H793.483V250.062H658.083ZM738.054 173.055C735.462 176.807 731.848 180.112 727.214 182.974C722.714 185.704 717.259 187.854 710.851 189.418C704.44 190.988 697.486 191.77 689.99 191.77C682.76 191.77 676.011 190.988 669.74 189.418C663.467 187.854 657.946 185.704 653.174 182.974C648.536 180.112 644.855 176.772 642.128 172.954C639.4 169.136 638.038 164.976 638.038 160.476C638.038 155.978 639.367 151.783 642.027 147.898C644.686 144.014 648.399 140.636 653.174 137.772C657.807 135.047 663.298 132.864 669.638 131.23C675.979 129.592 682.831 128.775 690.194 128.775C697.691 128.775 704.614 129.592 710.954 131.23C717.294 132.864 722.78 135.047 727.419 137.772C731.918 140.636 735.462 144.014 738.054 147.898C740.643 151.783 741.94 156.046 741.94 160.682C741.94 165.18 740.643 169.307 738.054 173.055ZM633.334 101.571H747.055V122.843H633.334V101.571Z" fill="#0083C9"/>
</g>
<mask id="mask10_5_149" style="mask-type:luminance" maskUnits="userSpaceOnUse" x="0" y="0" width="1442" height="327">
<path d="M0 -0.000192841H1441.15V326.681H0V-0.000192841Z" fill="white"/>
</mask>
<g mask="url(#mask10_5_149)">
<path d="M937.678 164.976V191.361H995.357V254.152H967.541V214.881H856.889V191.361H908.634V164.976H837.253V141.456H962.223C963.449 136.139 964.743 129.868 966.107 122.639C967.47 115.412 968.426 108.867 968.973 103.004H856.07V79.4825H999.447C999.447 85.2092 999.002 91.3132 998.117 97.7879C997.23 104.265 996.174 110.437 994.947 116.299C993.854 122.161 992.729 127.379 991.573 131.944C990.413 136.516 989.559 139.685 989.015 141.456H1017.24V164.976H937.678Z" fill="#0083C9"/>
</g>
<mask id="mask11_5_149" style="mask-type:luminance" maskUnits="userSpaceOnUse" x="0" y="0" width="1442" height="327">
<path d="M0 -0.000192841H1441.15V326.681H0V-0.000192841Z" fill="white"/>
</mask>
<g mask="url(#mask11_5_149)">
<path d="M1186.8 204.247V133.479H1151.82V109.344H1186.8V74.1625H1214.2V204.247H1186.8ZM1081.05 250.062V193.612H1108.67V226.541H1218.7V250.062H1081.05ZM1151.41 180.112C1143.64 176.839 1135.73 172.135 1127.69 165.999C1119.64 159.863 1112.89 152.775 1107.44 144.727C1102.94 152.775 1096.94 160.445 1089.44 167.739C1081.94 175.033 1073.96 180.931 1065.51 185.429L1045.87 166.817C1051.74 164.363 1057.5 160.988 1063.16 156.695C1068.81 152.397 1073.82 147.457 1078.19 141.865C1082.69 136.275 1086.27 130.104 1088.93 123.355C1091.59 116.605 1092.92 109.548 1092.92 102.185V78.4598H1122.16V102.185C1122.16 109.276 1123.53 115.96 1126.26 122.229C1128.98 128.501 1132.53 134.163 1136.89 139.205C1141.25 144.252 1146.16 148.583 1151.62 152.193C1157.07 155.808 1162.53 158.431 1167.98 160.068L1151.41 180.112Z" fill="#0083C9"/>
</g>
<mask id="mask12_5_149" style="mask-type:luminance" maskUnits="userSpaceOnUse" x="0" y="0" width="1442" height="327">
<path d="M0 -0.000192841H1441.15V326.681H0V-0.000192841Z" fill="white"/>
</mask>
<g mask="url(#mask12_5_149)">
<path d="M1384.58 213.861H1304.4V229.404H1384.58V213.861ZM1276.79 252.108V172.135H1304.4V191.361H1384.58V172.135H1412.19V252.108H1276.79ZM1254.49 161.296V137.772H1379.46C1380.69 133.412 1381.85 127.823 1382.94 121.001C1384.03 114.187 1384.85 108.116 1385.4 102.799H1273.31V79.4826H1416.28C1416.28 85.2093 1415.87 91.1746 1415.05 97.3786C1414.23 103.585 1413.35 109.415 1412.39 114.867C1411.44 120.323 1410.48 125.128 1409.53 129.287C1408.57 133.447 1407.89 136.275 1407.48 137.772H1434.48V161.296H1254.49Z" fill="#0083C9"/>
</g>
</g>
<defs>
<clipPath id="clip0_5_149">
<rect width="1441.15" height="326.681" fill="white"/>
</clipPath>
</defs>
</svg>
