<svg width="372" height="242" viewBox="0 0 372 242" fill="none" xmlns="http://www.w3.org/2000/svg">
<g clip-path="url(#clip0_25_2)">
<path d="M209.415 76.6948C209.352 76.6948 231.46 100.536 231.46 100.536L207.868 17.1948L209.415 76.6948Z" fill="url(#paint0_linear_25_2)"/>
<path d="M173.903 45.9642L204.403 71.7988C204.403 71.7988 198.987 54.0482 204.903 49.2988C204.903 49.2988 196.987 35.1308 204.569 26.2148C204.569 26.2148 195.487 10.7975 206.903 -0.118526C206.903 -0.118526 206.501 -0.162512 205.787 -0.162512C200.317 -0.162512 176.508 2.35882 173.903 45.9642Z" fill="url(#paint1_linear_25_2)"/>
<path d="M137.681 81.1855C146.467 95.1855 145.891 109.976 145.891 109.976C147.477 110.182 148.845 110.508 150.308 110.807C150.371 107.99 149.683 102.556 149.347 100.69C148.828 97.8082 147.297 93.1348 147.297 93.1348C151.139 97.4242 154.189 108.238 155.081 111.908C183.023 120.043 185.924 147.215 185.924 147.215C189.591 118.104 215.515 110.882 228.513 110.215C221.089 104.452 180.493 74.9042 154.043 74.9069C147.477 74.9069 141.78 76.7282 137.681 81.1855Z" fill="url(#paint2_linear_25_2)"/>
<path d="M100.805 101.515C100.805 101.515 103.081 105.536 108.183 109.653L108.148 109.643L108.675 110.023C108.887 110.176 109.091 110.332 109.312 110.487L137.731 130.747C134.88 131.249 130.999 132.129 128.939 132.64C128.939 132.64 115.695 135.356 107.669 135.133C107.669 135.133 83.4027 133.211 77.944 108.627L108.771 121.807L75.936 101.079C75.936 101.079 69.8413 120.011 87.316 133.996C87.316 133.996 90.8267 137.003 97.0267 139.133L96.9893 139.135L97.6147 139.313C97.868 139.384 98.1107 139.464 98.3733 139.532L130.912 148.592C128.449 150.033 125.319 152.052 123.637 153.183C123.637 153.183 112.12 160.265 104.503 162.801C104.503 162.801 81.0427 169.297 67.504 148.063L100.979 149.904L63.0347 141.659C63.0347 141.659 63.784 161.533 84.9893 168.699C84.9893 168.699 89.316 170.32 95.8707 170.203L95.8373 170.217L96.4853 170.171C96.7467 170.149 97.0027 170.14 97.272 170.116L153.328 165.757L113.396 165.739C115.663 164.575 121.375 161.159 123.061 159.992C124.748 158.825 127.873 156.588 130.431 155.1C136.493 151.572 144.812 147.353 153.431 146.815C153.431 146.815 166.267 145.735 177.249 153.208C177.249 153.208 160.493 133.997 134.32 146.767L132.935 147.467L115.02 140.935C117.548 140.617 124.085 139.361 126.069 138.841C128.052 138.323 131.755 137.288 134.667 136.765C141.571 135.523 150.831 134.405 159.115 136.849C159.115 136.849 171.545 140.225 179.307 151.005C179.307 151.005 170.135 127.221 141.173 130.265L139.923 130.415L124.487 117.48C126.971 118.043 133.545 119.089 135.585 119.279C137.628 119.465 141.461 119.756 144.377 120.256C151.292 121.443 160.377 123.548 167.333 128.667C167.333 128.667 177.868 136.077 181.492 148.856C181.492 148.856 180.975 123.372 152.711 116.363L151.041 115.975C148.349 115.379 142.981 114.699 140.399 114.427C140.399 114.427 127.021 112.465 119.552 109.519C119.552 109.519 97.3933 99.4426 100.641 74.4679L125.129 97.368L101.327 66.6893C101.327 66.6893 89.1453 82.4093 100.805 101.515Z" fill="url(#paint3_linear_25_2)"/>
<path d="M162.321 161.379V169.847H167.244V168.692H163.488V166.148H166.693V165.005H163.488V162.533H167.244V161.379H162.321Z" fill="url(#paint4_linear_25_2)"/>
<path d="M169.116 161.991C168.656 162.447 168.424 163.047 168.424 163.793C168.424 164.483 168.611 165.023 168.987 165.411C169.333 165.768 169.821 165.993 170.448 166.088L171.357 166.231C171.58 166.263 171.753 166.307 171.876 166.361C171.999 166.419 172.108 166.491 172.201 166.588C172.403 166.787 172.504 167.08 172.504 167.468C172.504 167.879 172.365 168.199 172.088 168.425C171.811 168.649 171.419 168.764 170.915 168.764C170.509 168.764 170.145 168.703 169.825 168.579C169.504 168.457 169.211 168.248 168.944 167.955L168.164 168.799C168.525 169.203 168.921 169.489 169.355 169.66C169.787 169.832 170.3 169.916 170.892 169.916C171.721 169.916 172.391 169.695 172.9 169.252C173.408 168.807 173.661 168.2 173.661 167.433C173.661 166.68 173.452 166.099 173.035 165.696C172.861 165.529 172.665 165.396 172.445 165.296C172.224 165.197 171.943 165.121 171.596 165.064L170.719 164.924C170.344 164.86 170.057 164.731 169.857 164.536C169.66 164.343 169.56 164.079 169.56 163.744C169.56 163.364 169.685 163.052 169.935 162.8C170.183 162.552 170.528 162.425 170.968 162.425C171.313 162.425 171.623 162.475 171.897 162.573C172.172 162.673 172.421 162.841 172.645 163.081L173.391 162.272C172.764 161.628 171.967 161.307 171 161.307C170.205 161.307 169.579 161.536 169.116 161.991Z" fill="url(#paint5_linear_25_2)"/>
<path d="M174.549 161.379V162.533H176.672V169.847H177.84V162.533H179.961V161.379H174.549Z" fill="url(#paint6_linear_25_2)"/>
<path d="M181.131 169.847H182.449V168.396H181.131V169.847Z" fill="url(#paint7_linear_25_2)"/>
<path d="M186.553 161.968C186.076 162.408 185.836 162.985 185.836 163.697H187.109C187.109 163.255 187.24 162.917 187.508 162.687C187.739 162.489 188.043 162.389 188.419 162.389C188.824 162.389 189.141 162.505 189.369 162.74C189.599 162.975 189.713 163.287 189.713 163.675C189.713 164.063 189.555 164.439 189.241 164.804L185.836 168.764V169.847H190.985V168.764H187.384L190.155 165.52C190.452 165.171 190.665 164.867 190.793 164.604C190.92 164.343 190.985 164.039 190.985 163.688C190.985 162.959 190.748 162.38 190.275 161.952C189.803 161.523 189.183 161.307 188.419 161.307C187.653 161.307 187.029 161.528 186.553 161.968Z" fill="url(#paint8_linear_25_2)"/>
<path d="M208.139 161.384L206.403 162.804L206.404 164.149L208.136 162.7V169.847H209.408V161.379L208.139 161.384Z" fill="url(#paint9_linear_25_2)"/>
<path d="M246.776 97.368L271.264 74.4679C274.512 99.4426 252.353 109.519 252.353 109.519C244.884 112.465 231.507 114.427 231.507 114.427C228.924 114.699 223.557 115.379 220.863 115.975L219.196 116.363C190.929 123.372 190.413 148.856 190.413 148.856C194.037 136.077 204.573 128.667 204.573 128.667C211.528 123.548 220.615 121.443 227.528 120.256C230.445 119.756 234.276 119.465 236.319 119.279C238.361 119.089 244.935 118.043 247.419 117.48L231.981 130.415L230.733 130.265C201.769 127.221 192.599 151.005 192.599 151.005C200.36 140.225 212.792 136.849 212.792 136.849C221.075 134.405 230.335 135.523 237.237 136.765C240.152 137.288 243.852 138.323 245.836 138.841C247.821 139.361 254.357 140.617 256.884 140.935L238.971 147.467L237.585 146.767C211.412 133.997 194.657 153.208 194.657 153.208C205.639 145.735 218.475 146.815 218.475 146.815C227.093 147.353 235.413 151.572 241.475 155.1C244.032 156.588 247.157 158.825 248.844 159.992C250.532 161.159 256.244 164.575 258.509 165.739L218.577 165.757L274.633 170.116C274.903 170.14 275.157 170.149 275.42 170.171L276.069 170.217L276.033 170.203C282.589 170.32 286.916 168.699 286.916 168.699C308.121 161.533 308.869 141.659 308.869 141.659L270.927 149.904L304.401 148.063C290.863 169.297 267.403 162.801 267.403 162.801C259.785 160.265 248.268 153.183 248.268 153.183C246.585 152.052 243.455 150.033 240.993 148.592L273.533 139.532C273.795 139.464 274.039 139.384 274.292 139.313L274.916 139.135L274.88 139.133C281.079 137.003 284.589 133.996 284.589 133.996C302.065 120.011 295.968 101.079 295.968 101.079L263.135 121.807L293.961 108.627C288.501 133.211 264.237 135.133 264.237 135.133C256.211 135.356 242.965 132.64 242.965 132.64C240.907 132.129 237.025 131.249 234.176 130.747L262.593 110.487C262.815 110.332 263.019 110.176 263.231 110.023L263.757 109.643L263.723 109.653C268.823 105.536 271.101 101.515 271.101 101.515C282.761 82.4093 270.579 66.6893 270.579 66.6893L246.776 97.368Z" fill="url(#paint10_linear_25_2)"/>
<path d="M213.071 76.0465L219.487 84.0479L214.319 74.8812L212.403 62.2972L213.071 76.0465Z" fill="url(#paint11_linear_25_2)"/>
<mask id="mask0_25_2" style="mask-type:luminance" maskUnits="userSpaceOnUse" x="-110" y="-162" width="1123" height="794">
<path d="M-110 -162H1012.52V631.7H-110V-162Z" fill="white"/>
</mask>
<g mask="url(#mask0_25_2)">
<path d="M162.32 169.846H167.244V168.693H163.488V166.149H166.694V165.006H163.488V162.534H167.244V161.38H162.32V169.846Z" fill="#5091CA"/>
</g>
<path d="M162.321 161.379V169.847H167.244V168.692H163.488V166.148H166.693V165.005H163.488V162.533H167.244V161.379H162.321Z" fill="url(#paint12_linear_25_2)"/>
<mask id="mask1_25_2" style="mask-type:luminance" maskUnits="userSpaceOnUse" x="-110" y="-162" width="1123" height="794">
<path d="M-110 -162H1012.52V631.7H-110V-162Z" fill="white"/>
</mask>
<g mask="url(#mask1_25_2)">
<path d="M172.445 165.297C172.223 165.198 171.942 165.122 171.595 165.065L170.718 164.925C170.343 164.861 170.057 164.731 169.858 164.537C169.659 164.342 169.559 164.078 169.559 163.745C169.559 163.365 169.685 163.051 169.934 162.801C170.183 162.551 170.529 162.426 170.967 162.426C171.314 162.426 171.623 162.475 171.898 162.574C172.171 162.674 172.421 162.841 172.645 163.081L173.391 162.271C172.765 161.627 171.967 161.307 171.001 161.307C170.206 161.307 169.578 161.537 169.117 161.991C168.655 162.447 168.425 163.047 168.425 163.794C168.425 164.483 168.611 165.023 168.987 165.411C169.334 165.769 169.821 165.993 170.447 166.089L171.358 166.231C171.581 166.263 171.754 166.307 171.877 166.362C171.999 166.418 172.107 166.491 172.201 166.589C172.403 166.786 172.503 167.081 172.503 167.469C172.503 167.879 172.365 168.199 172.087 168.426C171.81 168.651 171.418 168.765 170.914 168.765C170.51 168.765 170.146 168.703 169.826 168.579C169.505 168.457 169.21 168.249 168.943 167.955L168.165 168.799C168.525 169.203 168.922 169.49 169.355 169.661C169.787 169.831 170.301 169.917 170.891 169.917C171.722 169.917 172.39 169.695 172.899 169.253C173.409 168.807 173.662 168.201 173.662 167.434C173.662 166.679 173.453 166.099 173.034 165.697C172.861 165.53 172.665 165.395 172.445 165.297Z" fill="#5091CA"/>
</g>
<path d="M169.116 161.991C168.656 162.447 168.424 163.047 168.424 163.793C168.424 164.483 168.611 165.023 168.987 165.411C169.333 165.768 169.821 165.993 170.448 166.088L171.357 166.231C171.58 166.263 171.753 166.307 171.876 166.361C171.999 166.419 172.108 166.491 172.201 166.588C172.403 166.787 172.504 167.08 172.504 167.468C172.504 167.879 172.365 168.199 172.088 168.425C171.811 168.649 171.419 168.764 170.915 168.764C170.509 168.764 170.145 168.703 169.825 168.579C169.504 168.457 169.211 168.248 168.944 167.955L168.164 168.799C168.525 169.203 168.921 169.489 169.355 169.66C169.787 169.832 170.3 169.916 170.892 169.916C171.721 169.916 172.391 169.695 172.9 169.252C173.408 168.807 173.661 168.2 173.661 167.433C173.661 166.68 173.452 166.099 173.035 165.696C172.861 165.529 172.665 165.396 172.445 165.296C172.224 165.197 171.943 165.121 171.596 165.064L170.719 164.924C170.344 164.86 170.057 164.731 169.857 164.536C169.66 164.343 169.56 164.079 169.56 163.744C169.56 163.364 169.685 163.052 169.935 162.8C170.183 162.552 170.528 162.425 170.968 162.425C171.313 162.425 171.623 162.475 171.897 162.573C172.172 162.673 172.421 162.841 172.645 163.081L173.391 162.272C172.764 161.628 171.967 161.307 171 161.307C170.205 161.307 169.579 161.536 169.116 161.991Z" fill="url(#paint13_linear_25_2)"/>
<mask id="mask2_25_2" style="mask-type:luminance" maskUnits="userSpaceOnUse" x="-110" y="-162" width="1123" height="794">
<path d="M-110 -162H1012.52V631.7H-110V-162Z" fill="white"/>
</mask>
<g mask="url(#mask2_25_2)">
<path d="M174.549 162.534H176.671V169.846H177.84V162.534H179.961V161.38H174.549V162.534Z" fill="#5091CA"/>
</g>
<path d="M174.549 161.379V162.533H176.672V169.847H177.84V162.533H179.961V161.379H174.549Z" fill="url(#paint14_linear_25_2)"/>
<mask id="mask3_25_2" style="mask-type:luminance" maskUnits="userSpaceOnUse" x="-110" y="-162" width="1123" height="794">
<path d="M-110 -162H1012.52V631.7H-110V-162Z" fill="white"/>
</mask>
<g mask="url(#mask3_25_2)">
<path d="M181.131 169.846H182.451V168.395H181.131V169.846Z" fill="#5091CA"/>
</g>
<path d="M181.131 169.847H182.449V168.396H181.131V169.847Z" fill="url(#paint15_linear_25_2)"/>
<mask id="mask4_25_2" style="mask-type:luminance" maskUnits="userSpaceOnUse" x="-110" y="-162" width="1123" height="794">
<path d="M-110 -162H1012.52V631.7H-110V-162Z" fill="white"/>
</mask>
<g mask="url(#mask4_25_2)">
<path d="M190.794 164.604C190.92 164.343 190.986 164.039 190.986 163.688C190.986 162.959 190.747 162.38 190.275 161.952C189.802 161.523 189.183 161.307 188.418 161.307C187.652 161.307 187.031 161.528 186.554 161.968C186.075 162.408 185.836 162.985 185.836 163.697H187.108C187.108 163.255 187.24 162.917 187.507 162.688C187.739 162.489 188.043 162.391 188.418 162.391C188.823 162.391 189.143 162.507 189.371 162.741C189.599 162.975 189.714 163.287 189.714 163.676C189.714 164.063 189.555 164.44 189.242 164.804L185.836 168.764V169.847H190.986V168.764H187.384L190.155 165.52C190.452 165.172 190.664 164.867 190.794 164.604Z" fill="#5091CA"/>
</g>
<path d="M186.553 161.968C186.076 162.408 185.836 162.985 185.836 163.697H187.109C187.109 163.255 187.24 162.917 187.508 162.687C187.739 162.489 188.043 162.389 188.419 162.389C188.824 162.389 189.141 162.505 189.369 162.74C189.599 162.975 189.713 163.287 189.713 163.675C189.713 164.063 189.555 164.439 189.241 164.804L185.836 168.764V169.847H190.985V168.764H187.384L190.155 165.52C190.452 165.171 190.665 164.867 190.793 164.604C190.92 164.343 190.985 164.039 190.985 163.688C190.985 162.959 190.748 162.38 190.275 161.952C189.803 161.523 189.183 161.307 188.419 161.307C187.653 161.307 187.029 161.528 186.553 161.968Z" fill="url(#paint16_linear_25_2)"/>
<path d="M193.185 161.968C192.699 162.408 192.456 162.997 192.456 163.733V167.492C192.456 168.229 192.705 168.823 193.204 169.275C193.677 169.703 194.279 169.916 195.009 169.916C195.751 169.916 196.364 169.697 196.849 169.257C197.336 168.817 197.579 168.229 197.579 167.492V163.733C197.579 162.997 197.332 162.408 196.836 161.968C196.343 161.528 195.733 161.307 195.009 161.307C194.279 161.307 193.671 161.528 193.185 161.968ZM194.069 162.764C194.299 162.516 194.613 162.389 195.009 162.389C195.417 162.389 195.735 162.516 195.965 162.764C196.193 163.015 196.308 163.348 196.308 163.769V167.455C196.308 167.869 196.191 168.2 195.957 168.456C195.725 168.708 195.409 168.836 195.009 168.836C194.613 168.836 194.299 168.711 194.069 168.46C193.841 168.211 193.727 167.875 193.727 167.455V163.769C193.727 163.348 193.841 163.015 194.069 162.764Z" fill="url(#paint17_linear_25_2)"/>
<path d="M199.828 161.968C199.343 162.408 199.101 162.997 199.101 163.733V167.492C199.101 168.229 199.349 168.823 199.847 169.275C200.32 169.703 200.923 169.916 201.655 169.916C202.393 169.916 203.008 169.697 203.493 169.257C203.979 168.817 204.224 168.229 204.224 167.492V163.733C204.224 162.997 203.975 162.408 203.481 161.968C202.987 161.528 202.377 161.307 201.655 161.307C200.923 161.307 200.315 161.528 199.828 161.968ZM200.712 162.764C200.943 162.516 201.256 162.389 201.655 162.389C202.063 162.389 202.379 162.516 202.608 162.764C202.836 163.015 202.952 163.348 202.952 163.769V167.455C202.952 167.869 202.835 168.2 202.603 168.456C202.369 168.708 202.053 168.836 201.655 168.836C201.256 168.836 200.943 168.711 200.712 168.46C200.485 168.211 200.372 167.875 200.372 167.455V163.769C200.372 163.348 200.485 163.015 200.712 162.764Z" fill="url(#paint18_linear_25_2)"/>
<mask id="mask5_25_2" style="mask-type:luminance" maskUnits="userSpaceOnUse" x="-110" y="-162" width="1123" height="794">
<path d="M-110 -162H1012.52V631.7H-110V-162Z" fill="white"/>
</mask>
<g mask="url(#mask5_25_2)">
<path d="M206.402 162.804L206.404 164.151L208.136 162.7V169.846H209.408V161.38L208.14 161.384L206.402 162.804Z" fill="#5091CA"/>
</g>
<path d="M208.139 161.384L206.403 162.804L206.404 164.149L208.136 162.7V169.847H209.408V161.379L208.139 161.384Z" fill="url(#paint19_linear_25_2)"/>
<mask id="mask6_25_2" style="mask-type:luminance" maskUnits="userSpaceOnUse" x="-110" y="-162" width="1123" height="794">
<path d="M-110 -162H1012.52V631.7H-110V-162Z" fill="white"/>
</mask>
<g mask="url(#mask6_25_2)">
<path d="M304.401 148.063C290.862 169.297 267.402 162.802 267.402 162.802C259.785 160.265 248.268 153.183 248.268 153.183C246.586 152.051 243.456 150.034 240.993 148.591L273.533 139.533C273.794 139.463 274.038 139.385 274.29 139.314L274.916 139.135L274.88 139.134C281.078 137.002 284.589 133.997 284.589 133.997C302.065 120.01 295.969 101.078 295.969 101.078L263.134 121.807L293.961 108.626C288.502 133.21 264.237 135.133 264.237 135.133C256.21 135.357 242.966 132.641 242.966 132.641C240.906 132.13 237.025 131.25 234.176 130.747L262.593 110.486C262.814 110.333 263.018 110.177 263.232 110.023L263.758 109.643L263.722 109.653C268.824 105.535 271.101 101.515 271.101 101.515C282.761 82.4101 270.578 66.6901 270.578 66.6901L246.776 97.3688L271.264 74.4688C274.512 99.4421 252.353 109.519 252.353 109.519C244.884 112.465 231.506 114.426 231.506 114.426C228.924 114.698 223.557 115.378 220.864 115.975L219.196 116.363C190.93 123.371 190.413 148.857 190.413 148.857C194.037 136.078 204.572 128.666 204.572 128.666C211.528 123.547 220.614 121.442 227.528 120.257C230.445 119.757 234.277 119.466 236.318 119.278C238.361 119.09 244.934 118.042 247.42 117.481L231.982 130.415L230.733 130.265C201.77 127.221 192.597 151.005 192.597 151.005C200.36 140.226 212.79 136.849 212.79 136.849C221.074 134.406 230.334 135.523 237.238 136.765C240.15 137.289 243.853 138.322 245.837 138.841C247.821 139.362 254.357 140.617 256.885 140.934L238.97 147.467L237.585 146.766C211.412 133.998 194.657 153.207 194.657 153.207C205.638 145.735 218.474 146.814 218.474 146.814C227.094 147.354 235.413 151.571 241.474 155.099C244.033 156.589 247.157 158.825 248.845 159.991C250.532 161.158 256.244 164.575 258.51 165.739L218.577 165.758L274.633 170.117C274.902 170.141 275.158 170.15 275.42 170.17L276.068 170.217L276.034 170.202C282.589 170.319 286.916 168.698 286.916 168.698C308.122 161.534 308.87 141.658 308.87 141.658L270.926 149.903L304.401 148.063Z" fill="white"/>
</g>
<path d="M246.776 97.368L271.264 74.4679C274.512 99.4426 252.353 109.519 252.353 109.519C244.884 112.465 231.507 114.427 231.507 114.427C228.924 114.699 223.557 115.379 220.863 115.975L219.196 116.363C190.929 123.372 190.413 148.856 190.413 148.856C194.037 136.077 204.573 128.667 204.573 128.667C211.528 123.548 220.615 121.443 227.528 120.256C230.445 119.756 234.276 119.465 236.319 119.279C238.361 119.089 244.935 118.043 247.419 117.48L231.981 130.415L230.733 130.265C201.769 127.221 192.599 151.005 192.599 151.005C200.36 140.225 212.792 136.849 212.792 136.849C221.075 134.405 230.335 135.523 237.237 136.765C240.152 137.288 243.852 138.323 245.836 138.841C247.821 139.361 254.357 140.617 256.884 140.935L238.971 147.467L237.585 146.767C211.412 133.997 194.657 153.208 194.657 153.208C205.639 145.735 218.475 146.815 218.475 146.815C227.093 147.353 235.413 151.572 241.475 155.1C244.032 156.588 247.157 158.825 248.844 159.992C250.532 161.159 256.244 164.575 258.509 165.739L218.577 165.757L274.633 170.116C274.903 170.14 275.157 170.149 275.42 170.171L276.069 170.217L276.033 170.203C282.589 170.32 286.916 168.699 286.916 168.699C308.121 161.533 308.869 141.659 308.869 141.659L270.927 149.904L304.401 148.063C290.863 169.297 267.403 162.801 267.403 162.801C259.785 160.265 248.268 153.183 248.268 153.183C246.585 152.052 243.455 150.033 240.993 148.592L273.533 139.532C273.795 139.464 274.039 139.384 274.292 139.313L274.916 139.135L274.88 139.133C281.079 137.003 284.589 133.996 284.589 133.996C302.065 120.011 295.968 101.079 295.968 101.079L263.135 121.807L293.961 108.627C288.501 133.211 264.237 135.133 264.237 135.133C256.211 135.356 242.965 132.64 242.965 132.64C240.907 132.129 237.025 131.249 234.176 130.747L262.593 110.487C262.815 110.332 263.019 110.176 263.231 110.023L263.757 109.643L263.723 109.653C268.823 105.536 271.101 101.515 271.101 101.515C282.761 82.4093 270.579 66.6893 270.579 66.6893L246.776 97.368Z" fill="url(#paint20_linear_25_2)"/>
<mask id="mask7_25_2" style="mask-type:luminance" maskUnits="userSpaceOnUse" x="-110" y="-162" width="1123" height="794">
<path d="M-110 -162H1012.52V631.7H-110V-162Z" fill="white"/>
</mask>
<g mask="url(#mask7_25_2)">
<path d="M134.32 146.767L132.935 147.467L115.02 140.935C117.548 140.617 124.084 139.361 126.07 138.841C128.052 138.323 131.755 137.289 134.667 136.765C141.57 135.523 150.831 134.405 159.115 136.849C159.115 136.849 171.546 140.227 179.307 151.005C179.307 151.005 170.135 127.221 141.174 130.265L139.923 130.415L124.487 117.48C126.971 118.043 133.544 119.089 135.587 119.279C137.628 119.465 141.46 119.756 144.378 120.256C151.292 121.443 160.378 123.548 167.334 128.667C167.334 128.667 177.868 136.077 181.492 148.856C181.492 148.856 180.975 123.372 152.71 116.363L151.042 115.975C148.348 115.379 142.982 114.697 140.399 114.427C140.399 114.427 127.022 112.464 119.552 109.519C119.552 109.519 97.3936 99.4426 100.642 74.468L125.13 97.368L101.327 66.6893C101.327 66.6893 89.1442 82.4093 100.804 101.516C100.804 101.516 103.082 105.536 108.183 109.653L108.148 109.643L108.675 110.023C108.887 110.177 109.091 110.333 109.312 110.487L137.731 130.747C134.88 131.249 130.999 132.129 128.939 132.64C128.939 132.64 115.695 135.356 107.668 135.132C107.668 135.132 83.4029 133.211 77.9442 108.627L108.771 121.807L75.9362 101.077C75.9362 101.077 69.8416 120.011 87.3162 133.997C87.3162 133.997 90.8269 137.003 97.0256 139.133L96.9896 139.135L97.6149 139.313C97.8669 139.385 98.1109 139.463 98.3722 139.532L130.912 148.592C128.45 150.033 125.319 152.052 123.638 153.183C123.638 153.183 112.12 160.265 104.503 162.801C104.503 162.801 81.0429 169.296 67.5042 148.064L100.979 149.904L63.0349 141.659C63.0349 141.659 63.7842 161.533 84.9896 168.697C84.9896 168.697 89.3162 170.32 95.8709 170.203L95.8376 170.217L96.4856 170.171C96.7469 170.151 97.0029 170.14 97.2722 170.117L153.328 165.757L113.396 165.739C115.662 164.575 121.375 161.159 123.062 159.992C124.748 158.825 127.874 156.588 130.431 155.1C136.492 151.572 144.811 147.353 153.431 146.815C153.431 146.815 166.267 145.736 177.248 153.208C177.248 153.208 160.494 133.999 134.32 146.767Z" fill="white"/>
</g>
<path d="M100.805 101.515C100.805 101.515 103.081 105.536 108.183 109.653L108.148 109.643L108.675 110.023C108.887 110.176 109.091 110.332 109.312 110.487L137.731 130.747C134.88 131.249 130.999 132.129 128.939 132.64C128.939 132.64 115.695 135.356 107.669 135.133C107.669 135.133 83.4027 133.211 77.944 108.627L108.771 121.807L75.936 101.079C75.936 101.079 69.8413 120.011 87.316 133.996C87.316 133.996 90.8267 137.003 97.0267 139.133L96.9893 139.135L97.6147 139.313C97.868 139.384 98.1107 139.464 98.3733 139.532L130.912 148.592C128.449 150.033 125.319 152.052 123.637 153.183C123.637 153.183 112.12 160.265 104.503 162.801C104.503 162.801 81.0427 169.297 67.504 148.063L100.979 149.904L63.0347 141.659C63.0347 141.659 63.784 161.533 84.9893 168.699C84.9893 168.699 89.316 170.32 95.8707 170.203L95.8373 170.217L96.4853 170.171C96.7467 170.149 97.0027 170.14 97.272 170.116L153.328 165.757L113.396 165.739C115.663 164.575 121.375 161.159 123.061 159.992C124.748 158.825 127.873 156.588 130.431 155.1C136.493 151.572 144.812 147.353 153.431 146.815C153.431 146.815 166.267 145.735 177.249 153.208C177.249 153.208 160.493 133.997 134.32 146.767L132.935 147.467L115.02 140.935C117.548 140.617 124.085 139.361 126.069 138.841C128.052 138.323 131.755 137.288 134.667 136.765C141.571 135.523 150.831 134.405 159.115 136.849C159.115 136.849 171.545 140.225 179.307 151.005C179.307 151.005 170.135 127.221 141.173 130.265L139.923 130.415L124.487 117.48C126.971 118.043 133.545 119.089 135.585 119.279C137.628 119.465 141.461 119.756 144.377 120.256C151.292 121.443 160.377 123.548 167.333 128.667C167.333 128.667 177.868 136.077 181.492 148.856C181.492 148.856 180.975 123.372 152.711 116.363L151.041 115.975C148.349 115.379 142.981 114.699 140.399 114.427C140.399 114.427 127.021 112.465 119.552 109.519C119.552 109.519 97.3933 99.4426 100.641 74.4679L125.129 97.368L101.327 66.6893C101.327 66.6893 89.1453 82.4093 100.805 101.515Z" fill="url(#paint21_linear_25_2)"/>
<mask id="mask8_25_2" style="mask-type:luminance" maskUnits="userSpaceOnUse" x="-110" y="-162" width="1123" height="794">
<path d="M-110 -162H1012.52V631.7H-110V-162Z" fill="white"/>
</mask>
<g mask="url(#mask8_25_2)">
<path d="M185.924 147.214C189.59 118.104 215.514 110.881 228.514 110.214C219.246 103.02 158.292 58.7704 137.681 81.1864C146.466 95.185 145.89 109.976 145.89 109.976C147.478 110.182 148.845 110.508 150.308 110.806C150.37 107.989 149.682 102.557 149.346 100.689C148.828 97.8077 147.297 93.133 147.297 93.133C151.14 97.4237 154.189 108.238 155.081 111.909C183.024 120.042 185.924 147.214 185.924 147.214Z" fill="white"/>
</g>
<path d="M137.681 81.1855C146.467 95.1855 145.891 109.976 145.891 109.976C147.477 110.182 148.845 110.508 150.308 110.807C150.371 107.99 149.683 102.556 149.347 100.69C148.828 97.8082 147.297 93.1348 147.297 93.1348C151.139 97.4242 154.189 108.238 155.081 111.908C183.023 120.043 185.924 147.215 185.924 147.215C189.591 118.104 215.515 110.882 228.513 110.215C221.089 104.452 180.493 74.9082 154.043 74.9069C147.475 74.9069 141.781 76.7269 137.681 81.1855Z" fill="url(#paint22_linear_25_2)"/>
<mask id="mask9_25_2" style="mask-type:luminance" maskUnits="userSpaceOnUse" x="-110" y="-162" width="1123" height="794">
<path d="M-110 -162H1012.52V631.7H-110V-162Z" fill="white"/>
</mask>
<g mask="url(#mask9_25_2)">
<path d="M231.46 100.536L207.868 17.1948L209.415 76.6948C209.352 76.6948 231.46 100.536 231.46 100.536Z" fill="white"/>
</g>
<mask id="mask10_25_2" style="mask-type:luminance" maskUnits="userSpaceOnUse" x="-110" y="-162" width="1123" height="794">
<path d="M-110 -162H1012.52V631.7H-110V-162Z" fill="white"/>
</mask>
<g mask="url(#mask10_25_2)">
<path d="M214.32 74.8812L219.486 84.0479L213.07 76.0479L212.404 62.2972L214.32 74.8812Z" fill="white"/>
</g>
<path d="M209.415 76.6948C209.352 76.6948 231.46 100.536 231.46 100.536L207.868 17.1948L209.415 76.6948ZM213.071 76.0468L212.403 62.2974L214.319 74.8814L219.487 84.0481L213.071 76.0468Z" fill="url(#paint23_linear_25_2)"/>
<mask id="mask11_25_2" style="mask-type:luminance" maskUnits="userSpaceOnUse" x="-110" y="-162" width="1123" height="794">
<path d="M-110 -162H1012.52V631.7H-110V-162Z" fill="white"/>
</mask>
<g mask="url(#mask11_25_2)">
<path d="M204.903 49.2979C204.903 49.2979 196.987 35.1312 204.57 26.2152C204.57 26.2152 195.487 10.7978 206.903 -0.119484C206.903 -0.119484 176.847 -3.34082 173.903 45.9645L204.403 71.7979C204.403 71.7979 198.987 54.0485 204.903 49.2979Z" fill="white"/>
</g>
<path d="M173.903 45.9642L204.403 71.7988C204.403 71.7988 198.987 54.0482 204.903 49.2988C204.903 49.2988 196.987 35.1308 204.569 26.2148C204.569 26.2148 195.487 10.7975 206.903 -0.118526C206.903 -0.118526 206.501 -0.162512 205.787 -0.162512C200.319 -0.162512 176.508 2.35615 173.903 45.9642ZM177.736 44.2148C181.181 11.1028 196.181 5.4375 196.181 5.4375C186.848 13.6588 184.515 23.5468 184.515 23.5468C182.181 31.7708 181.293 42.4362 181.293 42.4362L197.736 61.7708L177.736 44.2148Z" fill="url(#paint24_linear_25_2)"/>
<path d="M128.712 31.816C120.119 37.956 133.925 72.4854 135.624 76.3254C138.069 70.8814 145.847 64.6587 165.624 70.548C165.624 70.548 194.252 79.76 231.493 109.867C231.784 109.797 238.424 108.964 238.424 108.964C175.869 48.52 146.736 33.8814 146.736 33.8814C140.925 30.9067 136.843 30.032 134.052 30.032C130.065 30.032 128.712 31.816 128.712 31.816ZM172.817 64.836C172.817 62.6667 174.611 60.9094 176.824 60.9094C176.875 60.9094 176.923 60.9227 176.973 60.924C175.404 61.456 174.269 62.9 174.269 64.62C174.269 66.7387 175.984 68.452 178.125 68.5307C177.716 68.6707 177.283 68.7627 176.824 68.7627C174.611 68.7627 172.817 67.0054 172.817 64.836ZM188.415 73.8174C188.415 71.8707 190.135 70.296 192.283 70.2267C190.832 70.7734 189.813 72.0534 189.813 73.5494C189.813 75.5387 191.619 77.152 193.845 77.152C193.888 77.152 193.928 77.1427 193.969 77.14C193.493 77.32 192.969 77.4213 192.421 77.4213C190.209 77.4213 188.415 75.8067 188.415 73.8174ZM200.031 82.5027C200.031 80.9814 201.416 79.748 203.127 79.736C202.124 80.2 201.429 81.1133 201.429 82.18C201.429 83.7107 202.839 84.9507 204.576 84.9507H204.585C204.153 85.1494 203.672 85.2734 203.151 85.2734C201.428 85.2734 200.031 84.0334 200.031 82.5027Z" fill="url(#paint25_linear_25_2)"/>
<mask id="mask12_25_2" style="mask-type:luminance" maskUnits="userSpaceOnUse" x="-110" y="-162" width="1123" height="794">
<path d="M-110 -162H1012.52V631.7H-110V-162Z" fill="white"/>
</mask>
<g mask="url(#mask12_25_2)">
<path d="M42.3893 232.315H48.8027C48.824 232.505 48.8027 232.7 48.74 232.9C48.676 233.099 48.54 233.197 48.3293 233.197H46.1V240.281H45.0907V233.197H42.3893V232.315Z" fill="#273E4D"/>
</g>
<mask id="mask13_25_2" style="mask-type:luminance" maskUnits="userSpaceOnUse" x="-110" y="-162" width="1123" height="794">
<path d="M-110 -162H1012.52V631.7H-110V-162Z" fill="white"/>
</mask>
<g mask="url(#mask13_25_2)">
<path d="M51.1256 232.922V235.744H55.3109V232.315C55.4149 232.299 55.5269 232.294 55.6469 232.302C55.7656 232.31 55.8749 232.336 55.9723 232.38C56.0709 232.424 56.1536 232.492 56.2189 232.58C56.2869 232.67 56.3203 232.782 56.3203 232.922V240.282H55.3109V236.63H51.1256V240.282H50.1163V232.315C50.2216 232.299 50.3336 232.294 50.4536 232.302C50.5723 232.31 50.6816 232.336 50.7789 232.38C50.8763 232.424 50.9589 232.492 51.0256 232.58C51.0923 232.67 51.1256 232.782 51.1256 232.922Z" fill="#273E4D"/>
</g>
<mask id="mask14_25_2" style="mask-type:luminance" maskUnits="userSpaceOnUse" x="-110" y="-162" width="1123" height="794">
<path d="M-110 -162H1012.52V631.7H-110V-162Z" fill="white"/>
</mask>
<g mask="url(#mask14_25_2)">
<path d="M62.89 235.744V236.63H59.01V239.395H63.206C63.226 239.588 63.206 239.783 63.142 239.982C63.0793 240.182 62.9433 240.28 62.7327 240.28H58.0007V232.315H63.1527C63.174 232.504 63.1527 232.7 63.09 232.9C63.0273 233.099 62.89 233.198 62.6793 233.198H59.01V235.744H62.89Z" fill="#273E4D"/>
</g>
<mask id="mask15_25_2" style="mask-type:luminance" maskUnits="userSpaceOnUse" x="-110" y="-162" width="1123" height="794">
<path d="M-110 -162H1012.52V631.7H-110V-162Z" fill="white"/>
</mask>
<g mask="url(#mask15_25_2)">
<path d="M76.7677 233.055C76.7823 233.011 76.7997 232.967 76.821 232.921C76.841 232.877 76.8663 232.833 76.8943 232.789C76.9983 232.583 77.1277 232.453 77.277 232.396C77.429 232.341 77.5983 232.315 77.7877 232.315H78.713V240.281H77.713V233.697L77.725 233.197C77.6543 233.339 77.601 233.448 77.5663 233.527C77.5317 233.604 77.5037 233.672 77.4823 233.729C77.2943 234.26 77.1143 234.755 76.9463 235.213C76.7783 235.672 76.6103 236.117 76.441 236.552C76.273 236.979 76.1037 237.409 75.9317 237.836C75.7597 238.263 75.5757 238.711 75.3797 239.175H74.3703C74.1823 238.68 74.001 238.219 73.829 237.787C73.657 237.355 73.4877 236.929 73.3197 236.508C73.1437 236.081 72.9703 235.643 72.7983 235.197C72.6277 234.749 72.4503 234.26 72.2677 233.729L72.0263 233.197L72.037 233.743V240.281H71.0383V232.315H72.005C72.1943 232.315 72.3623 232.341 72.5103 232.396C72.657 232.453 72.7863 232.583 72.8983 232.789C72.9063 232.812 72.9237 232.857 72.9517 232.927C72.9797 232.997 73.053 233.188 73.1717 233.497C73.2917 233.8 73.4717 234.273 73.713 234.915C73.9557 235.557 74.2997 236.461 74.749 237.625C74.7637 237.669 74.777 237.713 74.7917 237.757C74.805 237.803 74.8197 237.847 74.833 237.891C74.8397 237.935 74.849 237.979 74.8597 238.019C74.8703 238.06 74.8823 238.093 74.897 238.125C74.917 238.041 74.9423 237.956 74.9703 237.864C74.9983 237.771 75.0263 237.693 75.0543 237.625C75.237 237.139 75.4117 236.672 75.5797 236.227C75.7477 235.779 75.9023 235.364 76.0423 234.981C76.189 234.591 76.3223 234.232 76.441 233.907C76.561 233.583 76.669 233.3 76.7677 233.055Z" fill="#273E4D"/>
</g>
<mask id="mask16_25_2" style="mask-type:luminance" maskUnits="userSpaceOnUse" x="-110" y="-162" width="1123" height="794">
<path d="M-110 -162H1012.52V631.7H-110V-162Z" fill="white"/>
</mask>
<g mask="url(#mask16_25_2)">
<path d="M85.2728 237.239L83.7901 233.531L83.6955 233.255L83.6008 233.531L82.1608 237.239H85.2728ZM80.9728 240.281H79.9741L83.1288 232.315H83.6741C83.8435 232.315 83.9968 232.346 84.1368 232.409C84.2768 232.471 84.3835 232.586 84.4528 232.755L87.5435 240.281H86.4928L85.6301 238.125H81.8141L80.9728 240.281Z" fill="#273E4D"/>
</g>
<mask id="mask17_25_2" style="mask-type:luminance" maskUnits="userSpaceOnUse" x="-110" y="-162" width="1123" height="794">
<path d="M-110 -162H1012.52V631.7H-110V-162Z" fill="white"/>
</mask>
<g mask="url(#mask17_25_2)">
<path d="M89.8144 233.198V235.799H91.4864C91.7251 235.799 91.9571 235.766 92.1851 235.7C92.4131 235.632 92.6144 235.539 92.7891 235.411C92.9584 235.294 93.0957 235.154 93.2051 234.987C93.3144 234.82 93.3691 234.638 93.3691 234.438C93.3691 234.07 93.2251 233.771 92.9371 233.542C92.6491 233.312 92.2544 233.198 91.7491 233.198H89.8144ZM88.8051 240.28V232.315H91.4864C91.8717 232.315 92.2397 232.348 92.5904 232.419C92.9411 232.49 93.2491 232.604 93.5157 232.768C93.7744 232.938 93.9824 233.162 94.1411 233.438C94.2984 233.714 94.3771 234.059 94.3771 234.471C94.3771 234.708 94.3304 234.924 94.2357 235.124C94.1411 235.323 94.0131 235.5 93.8517 235.656C93.6904 235.81 93.5037 235.943 93.2891 236.05C93.0757 236.156 92.8531 236.231 92.6211 236.276C92.8251 236.364 92.9984 236.468 93.1424 236.586C93.2864 236.703 93.4104 236.872 93.5157 237.094L94.8504 240.28H93.6944L92.6117 237.492C92.4571 237.116 92.2664 236.888 92.0384 236.807C91.8104 236.726 91.5571 236.684 91.2757 236.684H89.8144V240.28H88.8051Z" fill="#273E4D"/>
</g>
<mask id="mask18_25_2" style="mask-type:luminance" maskUnits="userSpaceOnUse" x="-110" y="-162" width="1123" height="794">
<path d="M-110 -162H1012.52V631.7H-110V-162Z" fill="white"/>
</mask>
<g mask="url(#mask18_25_2)">
<path d="M97.1946 232.922V240.282H96.1853V232.315C96.2906 232.299 96.4026 232.294 96.5213 232.302C96.64 232.31 96.7493 232.336 96.848 232.38C96.9453 232.424 97.028 232.492 97.0946 232.58C97.1613 232.67 97.1946 232.782 97.1946 232.922Z" fill="#273E4D"/>
</g>
<mask id="mask19_25_2" style="mask-type:luminance" maskUnits="userSpaceOnUse" x="-110" y="-162" width="1123" height="794">
<path d="M-110 -162H1012.52V631.7H-110V-162Z" fill="white"/>
</mask>
<g mask="url(#mask19_25_2)">
<path d="M100.664 232.789L103.997 238.489L104.28 239.01C104.273 238.958 104.268 238.925 104.265 238.909C104.261 238.895 104.26 238.879 104.26 238.865V238.765V238.51V232.315C104.364 232.299 104.475 232.294 104.591 232.302C104.707 232.31 104.813 232.335 104.912 232.379C105.009 232.425 105.092 232.491 105.159 232.581C105.225 232.669 105.259 232.781 105.259 232.922V240.281H103.955L100.285 233.885L100.033 233.365C100.04 233.477 100.045 233.57 100.049 233.649C100.052 233.723 100.053 233.807 100.053 233.895V240.281H99.0547V232.315H99.7187C99.9147 232.315 100.091 232.341 100.248 232.395C100.407 232.453 100.545 232.583 100.664 232.789Z" fill="#273E4D"/>
</g>
<mask id="mask20_25_2" style="mask-type:luminance" maskUnits="userSpaceOnUse" x="-110" y="-162" width="1123" height="794">
<path d="M-110 -162H1012.52V631.7H-110V-162Z" fill="white"/>
</mask>
<g mask="url(#mask20_25_2)">
<path d="M111.83 235.744V236.63H107.95V239.395H112.146C112.166 239.588 112.146 239.783 112.082 239.982C112.019 240.182 111.883 240.28 111.672 240.28H106.94V232.315H112.092C112.114 232.504 112.092 232.7 112.03 232.9C111.967 233.099 111.83 233.198 111.619 233.198H107.95V235.744H111.83Z" fill="#273E4D"/>
</g>
<mask id="mask21_25_2" style="mask-type:luminance" maskUnits="userSpaceOnUse" x="-110" y="-162" width="1123" height="794">
<path d="M-110 -162H1012.52V631.7H-110V-162Z" fill="white"/>
</mask>
<g mask="url(#mask21_25_2)">
<path d="M120.986 232.922V239.395H125.024C125.045 239.588 125.024 239.783 124.961 239.982C124.898 240.182 124.761 240.282 124.55 240.282H119.977V232.315C120.082 232.299 120.194 232.294 120.314 232.302C120.433 232.31 120.542 232.336 120.64 232.38C120.737 232.424 120.82 232.492 120.886 232.58C120.953 232.67 120.986 232.782 120.986 232.922Z" fill="#273E4D"/>
</g>
<mask id="mask22_25_2" style="mask-type:luminance" maskUnits="userSpaceOnUse" x="-110" y="-162" width="1123" height="794">
<path d="M-110 -162H1012.52V631.7H-110V-162Z" fill="white"/>
</mask>
<g mask="url(#mask22_25_2)">
<path d="M127.473 232.922V240.282H126.464V232.315C126.569 232.299 126.681 232.294 126.8 232.302C126.919 232.31 127.028 232.336 127.127 232.38C127.224 232.424 127.307 232.492 127.373 232.58C127.44 232.67 127.473 232.782 127.473 232.922Z" fill="#273E4D"/>
</g>
<mask id="mask23_25_2" style="mask-type:luminance" maskUnits="userSpaceOnUse" x="-110" y="-162" width="1123" height="794">
<path d="M-110 -162H1012.52V631.7H-110V-162Z" fill="white"/>
</mask>
<g mask="url(#mask23_25_2)">
<path d="M128.756 232.315H135.169C135.191 232.505 135.169 232.7 135.107 232.9C135.043 233.099 134.907 233.197 134.696 233.197H132.467V240.281H131.457V233.197H128.756V232.315Z" fill="#273E4D"/>
</g>
<mask id="mask24_25_2" style="mask-type:luminance" maskUnits="userSpaceOnUse" x="-110" y="-162" width="1123" height="794">
<path d="M-110 -162H1012.52V631.7H-110V-162Z" fill="white"/>
</mask>
<g mask="url(#mask24_25_2)">
<path d="M141.372 235.744V236.63H137.492V239.395H141.688C141.708 239.588 141.688 239.783 141.624 239.982C141.561 240.182 141.425 240.28 141.214 240.28H136.482V232.315H141.634C141.656 232.504 141.634 232.7 141.572 232.9C141.509 233.099 141.372 233.198 141.161 233.198H137.492V235.744H141.372Z" fill="#273E4D"/>
</g>
<mask id="mask25_25_2" style="mask-type:luminance" maskUnits="userSpaceOnUse" x="-110" y="-162" width="1123" height="794">
<path d="M-110 -162H1012.52V631.7H-110V-162Z" fill="white"/>
</mask>
<g mask="url(#mask25_25_2)">
<path d="M144.221 233.198V235.799H145.893C146.131 235.799 146.363 235.766 146.591 235.7C146.819 235.632 147.021 235.539 147.195 235.411C147.365 235.294 147.502 235.154 147.611 234.987C147.721 234.82 147.775 234.638 147.775 234.438C147.775 234.07 147.631 233.771 147.343 233.542C147.055 233.312 146.661 233.198 146.155 233.198H144.221ZM143.211 240.28V232.315H145.893C146.278 232.315 146.646 232.348 146.997 232.419C147.347 232.49 147.655 232.604 147.922 232.768C148.181 232.938 148.389 233.162 148.547 233.438C148.705 233.714 148.783 234.059 148.783 234.471C148.783 234.708 148.737 234.924 148.642 235.124C148.547 235.323 148.419 235.5 148.258 235.656C148.097 235.81 147.91 235.943 147.695 236.05C147.482 236.156 147.259 236.231 147.027 236.276C147.231 236.364 147.405 236.468 147.549 236.586C147.693 236.703 147.817 236.872 147.922 237.094L149.257 240.28H148.101L147.018 237.492C146.863 237.116 146.673 236.888 146.445 236.807C146.217 236.726 145.963 236.684 145.682 236.684H144.221V240.28H143.211Z" fill="#273E4D"/>
</g>
<mask id="mask26_25_2" style="mask-type:luminance" maskUnits="userSpaceOnUse" x="-110" y="-162" width="1123" height="794">
<path d="M-110 -162H1012.52V631.7H-110V-162Z" fill="white"/>
</mask>
<g mask="url(#mask26_25_2)">
<path d="M155.397 237.239L153.914 233.531L153.819 233.255L153.725 233.531L152.285 237.239H155.397ZM151.097 240.281H150.098L153.253 232.315H153.798C153.967 232.315 154.121 232.346 154.261 232.409C154.401 232.471 154.507 232.586 154.577 232.755L157.667 240.281H156.617L155.754 238.125H151.938L151.097 240.281Z" fill="#273E4D"/>
</g>
<mask id="mask27_25_2" style="mask-type:luminance" maskUnits="userSpaceOnUse" x="-110" y="-162" width="1123" height="794">
<path d="M-110 -162H1012.52V631.7H-110V-162Z" fill="white"/>
</mask>
<g mask="url(#mask27_25_2)">
<path d="M157.51 232.315H163.923C163.944 232.505 163.923 232.7 163.86 232.9C163.796 233.099 163.66 233.197 163.45 233.197H161.22V240.281H160.211V233.197H157.51V232.315Z" fill="#273E4D"/>
</g>
<mask id="mask28_25_2" style="mask-type:luminance" maskUnits="userSpaceOnUse" x="-110" y="-162" width="1123" height="794">
<path d="M-110 -162H1012.52V631.7H-110V-162Z" fill="white"/>
</mask>
<g mask="url(#mask28_25_2)">
<path d="M166.141 232.922V236.96C166.141 237.714 166.319 238.328 166.677 238.799C167.034 239.271 167.554 239.507 168.233 239.507C168.906 239.507 169.422 239.271 169.783 238.799C170.145 238.328 170.326 237.714 170.326 236.96V232.315C170.43 232.299 170.542 232.294 170.662 232.302C170.781 232.31 170.89 232.336 170.987 232.38C171.086 232.424 171.169 232.492 171.234 232.58C171.302 232.67 171.335 232.782 171.335 232.922V237.107C171.335 237.651 171.257 238.13 171.103 238.539C170.949 238.948 170.735 239.288 170.462 239.562C170.189 239.843 169.861 240.052 169.479 240.187C169.097 240.323 168.682 240.394 168.233 240.394C167.778 240.394 167.359 240.323 166.977 240.187C166.594 240.052 166.267 239.843 165.994 239.562C165.721 239.288 165.509 238.948 165.358 238.539C165.207 238.13 165.131 237.651 165.131 237.107V232.315C165.237 232.299 165.349 232.294 165.469 232.302C165.587 232.31 165.697 232.336 165.794 232.38C165.891 232.424 165.974 232.492 166.041 232.58C166.107 232.67 166.141 232.782 166.141 232.922Z" fill="#273E4D"/>
</g>
<mask id="mask29_25_2" style="mask-type:luminance" maskUnits="userSpaceOnUse" x="-110" y="-162" width="1123" height="794">
<path d="M-110 -162H1012.52V631.7H-110V-162Z" fill="white"/>
</mask>
<g mask="url(#mask29_25_2)">
<path d="M173.92 233.198V235.799H175.592C175.831 235.799 176.063 235.766 176.291 235.7C176.519 235.632 176.72 235.539 176.895 235.411C177.064 235.294 177.202 235.154 177.311 234.987C177.42 234.82 177.475 234.638 177.475 234.438C177.475 234.07 177.331 233.771 177.043 233.542C176.755 233.312 176.36 233.198 175.855 233.198H173.92ZM172.911 240.28V232.315H175.592C175.978 232.315 176.346 232.348 176.696 232.419C177.047 232.49 177.355 232.604 177.622 232.768C177.88 232.938 178.088 233.162 178.247 233.438C178.404 233.714 178.483 234.059 178.483 234.471C178.483 234.708 178.436 234.924 178.342 235.124C178.247 235.323 178.119 235.5 177.958 235.656C177.796 235.81 177.61 235.943 177.395 236.05C177.182 236.156 176.959 236.231 176.727 236.276C176.931 236.364 177.104 236.468 177.248 236.586C177.392 236.703 177.516 236.872 177.622 237.094L178.956 240.28H177.8L176.718 237.492C176.563 237.116 176.372 236.888 176.144 236.807C175.916 236.726 175.663 236.684 175.382 236.684H173.92V240.28H172.911Z" fill="#273E4D"/>
</g>
<mask id="mask30_25_2" style="mask-type:luminance" maskUnits="userSpaceOnUse" x="-110" y="-162" width="1123" height="794">
<path d="M-110 -162H1012.52V631.7H-110V-162Z" fill="white"/>
</mask>
<g mask="url(#mask30_25_2)">
<path d="M185.107 235.744V236.63H181.227V239.395H185.423C185.443 239.588 185.423 239.783 185.359 239.982C185.296 240.182 185.16 240.28 184.95 240.28H180.218V232.315H185.37C185.391 232.504 185.37 232.7 185.307 232.9C185.244 233.099 185.107 233.198 184.896 233.198H181.227V235.744H185.107Z" fill="#273E4D"/>
</g>
<mask id="mask31_25_2" style="mask-type:luminance" maskUnits="userSpaceOnUse" x="-110" y="-162" width="1123" height="794">
<path d="M-110 -162H1012.52V631.7H-110V-162Z" fill="white"/>
</mask>
<g mask="url(#mask31_25_2)">
<path d="M198.133 237.239L196.65 233.531L196.555 233.255L196.461 233.531L195.021 237.239H198.133ZM193.833 240.281H192.834L195.989 232.315H196.534C196.703 232.315 196.857 232.346 196.997 232.409C197.137 232.471 197.243 232.586 197.313 232.755L200.403 240.281H199.353L198.49 238.125H194.674L193.833 240.281Z" fill="#273E4D"/>
</g>
<mask id="mask32_25_2" style="mask-type:luminance" maskUnits="userSpaceOnUse" x="-110" y="-162" width="1123" height="794">
<path d="M-110 -162H1012.52V631.7H-110V-162Z" fill="white"/>
</mask>
<g mask="url(#mask32_25_2)">
<path d="M201.697 240.07C201.585 240.049 201.511 239.989 201.475 239.893C201.441 239.799 201.434 239.695 201.455 239.586L201.613 239.01C201.955 239.171 202.298 239.291 202.638 239.37C202.977 239.445 203.319 239.485 203.663 239.485C203.901 239.485 204.146 239.455 204.398 239.395C204.651 239.338 204.882 239.25 205.093 239.13C205.295 239.013 205.466 238.865 205.602 238.687C205.739 238.51 205.807 238.305 205.807 238.067C205.807 237.885 205.754 237.718 205.65 237.57C205.545 237.422 205.409 237.294 205.239 237.182C205.071 237.065 204.885 236.961 204.677 236.873C204.471 236.783 204.266 236.695 204.062 236.606L203.831 236.518C203.571 236.417 203.297 236.302 203.006 236.177C202.715 236.049 202.446 235.898 202.201 235.721C201.955 235.551 201.753 235.357 201.591 235.135C201.43 234.914 201.35 234.655 201.35 234.362C201.35 234.029 201.427 233.731 201.581 233.471C201.735 233.209 201.949 232.989 202.223 232.813C202.495 232.635 202.818 232.497 203.19 232.403C203.561 232.307 203.965 232.258 204.398 232.258C204.714 232.258 205.021 232.283 205.318 232.335C205.617 232.387 205.909 232.442 206.197 232.502C206.302 232.531 206.375 232.594 206.418 232.69C206.459 232.786 206.47 232.885 206.449 232.989L206.291 233.551C205.962 233.406 205.63 233.294 205.298 233.221C204.965 233.149 204.63 233.109 204.294 233.109C204.062 233.109 203.833 233.135 203.605 233.187C203.377 233.239 203.169 233.318 202.979 233.419C202.797 233.515 202.649 233.641 202.533 233.791C202.417 233.942 202.359 234.114 202.359 234.305C202.359 234.461 202.41 234.598 202.511 234.721C202.613 234.843 202.749 234.955 202.917 235.057C203.078 235.161 203.258 235.255 203.458 235.341C203.658 235.425 203.853 235.505 204.041 235.578C204.062 235.594 204.085 235.606 204.11 235.617C204.134 235.627 204.161 235.638 204.189 235.646C204.217 235.651 204.243 235.658 204.267 235.666C204.291 235.674 204.314 235.682 204.335 235.69C204.602 235.799 204.881 235.925 205.171 236.059C205.462 236.195 205.73 236.357 205.975 236.542C206.214 236.726 206.414 236.939 206.575 237.182C206.737 237.427 206.817 237.703 206.817 238.013C206.817 238.427 206.733 238.778 206.565 239.07C206.395 239.362 206.165 239.603 205.87 239.794C205.577 239.979 205.227 240.114 204.825 240.203C204.421 240.291 203.982 240.335 203.505 240.335C203.182 240.335 202.87 240.313 202.569 240.265C202.267 240.215 201.977 240.153 201.697 240.07Z" fill="#273E4D"/>
</g>
<mask id="mask33_25_2" style="mask-type:luminance" maskUnits="userSpaceOnUse" x="-110" y="-162" width="1123" height="794">
<path d="M-110 -162H1012.52V631.7H-110V-162Z" fill="white"/>
</mask>
<g mask="url(#mask33_25_2)">
<path d="M208.005 240.07C207.893 240.049 207.819 239.989 207.783 239.893C207.749 239.799 207.742 239.695 207.763 239.586L207.921 239.01C208.263 239.171 208.606 239.291 208.946 239.37C209.285 239.445 209.627 239.485 209.971 239.485C210.209 239.485 210.454 239.455 210.706 239.395C210.959 239.338 211.19 239.25 211.401 239.13C211.603 239.013 211.774 238.865 211.91 238.687C212.047 238.51 212.115 238.305 212.115 238.067C212.115 237.885 212.062 237.718 211.958 237.57C211.853 237.422 211.717 237.294 211.547 237.182C211.379 237.065 211.193 236.961 210.985 236.873C210.779 236.783 210.574 236.695 210.37 236.606L210.139 236.518C209.879 236.417 209.605 236.302 209.314 236.177C209.023 236.049 208.754 235.898 208.509 235.721C208.263 235.551 208.061 235.357 207.899 235.135C207.738 234.914 207.658 234.655 207.658 234.362C207.658 234.029 207.735 233.731 207.889 233.471C208.043 233.209 208.257 232.989 208.531 232.813C208.803 232.635 209.126 232.497 209.498 232.403C209.869 232.307 210.273 232.258 210.706 232.258C211.022 232.258 211.329 232.283 211.626 232.335C211.925 232.387 212.217 232.442 212.505 232.502C212.61 232.531 212.683 232.594 212.726 232.69C212.767 232.786 212.778 232.885 212.757 232.989L212.599 233.551C212.27 233.406 211.938 233.294 211.606 233.221C211.273 233.149 210.938 233.109 210.602 233.109C210.37 233.109 210.141 233.135 209.913 233.187C209.685 233.239 209.477 233.318 209.287 233.419C209.105 233.515 208.957 233.641 208.841 233.791C208.725 233.942 208.667 234.114 208.667 234.305C208.667 234.461 208.718 234.598 208.819 234.721C208.921 234.843 209.057 234.955 209.225 235.057C209.386 235.161 209.566 235.255 209.766 235.341C209.966 235.425 210.161 235.505 210.349 235.578C210.37 235.594 210.393 235.606 210.418 235.617C210.442 235.627 210.469 235.638 210.497 235.646C210.525 235.651 210.551 235.658 210.575 235.666C210.599 235.674 210.622 235.682 210.643 235.69C210.91 235.799 211.189 235.925 211.479 236.059C211.77 236.195 212.038 236.357 212.283 236.542C212.522 236.726 212.722 236.939 212.883 237.182C213.045 237.427 213.125 237.703 213.125 238.013C213.125 238.427 213.041 238.778 212.873 239.07C212.703 239.362 212.473 239.603 212.178 239.794C211.885 239.979 211.535 240.114 211.133 240.203C210.729 240.291 210.29 240.335 209.813 240.335C209.49 240.335 209.178 240.313 208.877 240.265C208.575 240.215 208.285 240.153 208.005 240.07Z" fill="#273E4D"/>
</g>
<mask id="mask34_25_2" style="mask-type:luminance" maskUnits="userSpaceOnUse" x="-110" y="-162" width="1123" height="794">
<path d="M-110 -162H1012.52V631.7H-110V-162Z" fill="white"/>
</mask>
<g mask="url(#mask34_25_2)">
<path d="M215.186 236.297C215.186 236.703 215.235 237.099 215.334 237.487C215.431 237.875 215.582 238.215 215.786 238.51C215.988 238.813 216.25 239.054 216.568 239.237C216.887 239.417 217.264 239.507 217.699 239.507C218.126 239.507 218.499 239.417 218.819 239.237C219.138 239.054 219.398 238.813 219.602 238.51C219.804 238.215 219.958 237.875 220.059 237.487C220.16 237.099 220.211 236.703 220.211 236.297C220.211 235.893 220.159 235.494 220.054 235.109C219.948 234.721 219.791 234.381 219.58 234.083C219.371 233.781 219.107 233.542 218.792 233.359C218.476 233.179 218.112 233.089 217.699 233.089C217.278 233.089 216.91 233.179 216.595 233.359C216.279 233.542 216.016 233.781 215.806 234.083C215.596 234.381 215.44 234.721 215.339 235.109C215.236 235.494 215.186 235.893 215.186 236.297ZM214.176 236.297C214.176 235.701 214.255 235.154 214.414 234.654C214.571 234.157 214.8 233.723 215.102 233.354C215.396 232.991 215.763 232.711 216.2 232.507C216.638 232.305 217.138 232.203 217.699 232.203C218.252 232.203 218.748 232.305 219.186 232.507C219.624 232.711 219.994 232.991 220.296 233.354C220.59 233.723 220.818 234.157 220.979 234.654C221.14 235.154 221.22 235.701 221.22 236.297C221.22 236.911 221.142 237.469 220.984 237.974C220.826 238.479 220.596 238.909 220.296 239.263C219.994 239.625 219.624 239.903 219.186 240.099C218.748 240.294 218.252 240.393 217.699 240.393C217.138 240.393 216.638 240.294 216.2 240.099C215.763 239.903 215.392 239.625 215.091 239.263C214.79 238.909 214.562 238.479 214.408 237.974C214.254 237.469 214.176 236.911 214.176 236.297Z" fill="#273E4D"/>
</g>
<mask id="mask35_25_2" style="mask-type:luminance" maskUnits="userSpaceOnUse" x="-110" y="-162" width="1123" height="794">
<path d="M-110 -162H1012.52V631.7H-110V-162Z" fill="white"/>
</mask>
<g mask="url(#mask35_25_2)">
<path d="M226.425 233.109C225.949 233.109 225.527 233.191 225.163 233.358C224.798 233.525 224.494 233.751 224.249 234.038C223.997 234.327 223.807 234.666 223.681 235.051C223.554 235.439 223.491 235.854 223.491 236.297C223.491 236.77 223.557 237.199 223.686 237.593C223.815 237.983 224.007 238.319 224.258 238.598C224.511 238.879 224.819 239.098 225.183 239.251C225.549 239.409 225.962 239.483 226.425 239.483C226.515 239.483 226.619 239.478 226.734 239.469C226.85 239.458 226.967 239.439 227.087 239.418C227.199 239.395 227.302 239.374 227.397 239.351C227.491 239.33 227.567 239.306 227.623 239.286C227.673 239.27 227.719 239.254 227.765 239.242C227.811 239.226 227.854 239.21 227.897 239.197C227.931 239.182 227.965 239.169 227.997 239.158C228.029 239.147 228.058 239.135 228.086 239.119L228.159 239.617C228.181 239.721 228.181 239.806 228.159 239.877C228.138 239.947 228.099 240.005 228.043 240.049C227.826 240.182 227.551 240.262 227.218 240.291C226.886 240.322 226.603 240.335 226.371 240.335C225.783 240.335 225.249 240.242 224.769 240.049C224.289 239.857 223.881 239.585 223.543 239.231C223.201 238.882 222.938 238.461 222.755 237.963C222.573 237.466 222.482 236.911 222.482 236.297C222.482 235.707 222.573 235.166 222.755 234.671C222.938 234.177 223.201 233.749 223.543 233.387C223.881 233.033 224.289 232.754 224.769 232.557C225.249 232.359 225.783 232.257 226.371 232.257C226.625 232.257 226.869 232.281 227.102 232.33C227.338 232.377 227.574 232.45 227.813 232.546C227.918 232.59 227.986 232.658 228.017 232.749C228.049 232.843 228.061 232.945 228.054 233.054L227.981 233.619C227.777 233.507 227.541 233.395 227.271 233.281C227.001 233.166 226.719 233.109 226.425 233.109Z" fill="#273E4D"/>
</g>
<mask id="mask36_25_2" style="mask-type:luminance" maskUnits="userSpaceOnUse" x="-110" y="-162" width="1123" height="794">
<path d="M-110 -162H1012.52V631.7H-110V-162Z" fill="white"/>
</mask>
<g mask="url(#mask36_25_2)">
<path d="M230.818 232.922V240.282H229.809V232.315C229.914 232.299 230.026 232.294 230.145 232.302C230.264 232.31 230.373 232.336 230.472 232.38C230.569 232.424 230.652 232.492 230.718 232.58C230.785 232.67 230.818 232.782 230.818 232.922Z" fill="#273E4D"/>
</g>
<mask id="mask37_25_2" style="mask-type:luminance" maskUnits="userSpaceOnUse" x="-110" y="-162" width="1123" height="794">
<path d="M-110 -162H1012.52V631.7H-110V-162Z" fill="white"/>
</mask>
<g mask="url(#mask37_25_2)">
<path d="M237.557 237.239L236.075 233.531L235.98 233.255L235.885 233.531L234.445 237.239H237.557ZM233.257 240.281H232.259L235.413 232.315H235.959C236.128 232.315 236.281 232.346 236.421 232.409C236.561 232.471 236.668 232.586 236.737 232.755L239.828 240.281H238.777L237.915 238.125H234.099L233.257 240.281Z" fill="#273E4D"/>
</g>
<mask id="mask38_25_2" style="mask-type:luminance" maskUnits="userSpaceOnUse" x="-110" y="-162" width="1123" height="794">
<path d="M-110 -162H1012.52V631.7H-110V-162Z" fill="white"/>
</mask>
<g mask="url(#mask38_25_2)">
<path d="M239.671 232.315H246.084C246.105 232.505 246.084 232.7 246.021 232.9C245.957 233.099 245.821 233.197 245.611 233.197H243.381V240.281H242.372V233.197H239.671V232.315Z" fill="#273E4D"/>
</g>
<mask id="mask39_25_2" style="mask-type:luminance" maskUnits="userSpaceOnUse" x="-110" y="-162" width="1123" height="794">
<path d="M-110 -162H1012.52V631.7H-110V-162Z" fill="white"/>
</mask>
<g mask="url(#mask39_25_2)">
<path d="M248.376 232.922V240.282H247.366V232.315C247.472 232.299 247.584 232.294 247.702 232.302C247.821 232.31 247.93 232.336 248.029 232.38C248.126 232.424 248.209 232.492 248.276 232.58C248.342 232.67 248.376 232.782 248.376 232.922Z" fill="#273E4D"/>
</g>
<mask id="mask40_25_2" style="mask-type:luminance" maskUnits="userSpaceOnUse" x="-110" y="-162" width="1123" height="794">
<path d="M-110 -162H1012.52V631.7H-110V-162Z" fill="white"/>
</mask>
<g mask="url(#mask40_25_2)">
<path d="M250.93 236.297C250.93 236.703 250.98 237.099 251.078 237.487C251.176 237.875 251.326 238.215 251.53 238.51C251.733 238.813 251.994 239.054 252.313 239.237C252.632 239.417 253.009 239.507 253.444 239.507C253.87 239.507 254.244 239.417 254.564 239.237C254.882 239.054 255.142 238.813 255.346 238.51C255.549 238.215 255.702 237.875 255.804 237.487C255.905 237.099 255.956 236.703 255.956 236.297C255.956 235.893 255.904 235.494 255.798 235.109C255.693 234.721 255.536 234.381 255.325 234.083C255.116 233.781 254.852 233.542 254.537 233.359C254.221 233.179 253.857 233.089 253.444 233.089C253.022 233.089 252.654 233.179 252.34 233.359C252.024 233.542 251.761 233.781 251.55 234.083C251.341 234.381 251.185 234.721 251.084 235.109C250.981 235.494 250.93 235.893 250.93 236.297ZM249.921 236.297C249.921 235.701 250 235.154 250.158 234.654C250.316 234.157 250.545 233.723 250.846 233.354C251.141 232.991 251.508 232.711 251.945 232.507C252.382 232.305 252.882 232.203 253.444 232.203C253.997 232.203 254.493 232.305 254.93 232.507C255.369 232.711 255.738 232.991 256.041 233.354C256.334 233.723 256.562 234.157 256.724 234.654C256.885 235.154 256.965 235.701 256.965 236.297C256.965 236.911 256.886 237.469 256.729 237.974C256.57 238.479 256.341 238.909 256.041 239.263C255.738 239.625 255.369 239.903 254.93 240.099C254.493 240.294 253.997 240.393 253.444 240.393C252.882 240.393 252.382 240.294 251.945 240.099C251.508 239.903 251.137 239.625 250.836 239.263C250.534 238.909 250.306 238.479 250.153 237.974C249.998 237.469 249.921 236.911 249.921 236.297Z" fill="#273E4D"/>
</g>
<mask id="mask41_25_2" style="mask-type:luminance" maskUnits="userSpaceOnUse" x="-110" y="-162" width="1123" height="794">
<path d="M-110 -162H1012.52V631.7H-110V-162Z" fill="white"/>
</mask>
<g mask="url(#mask41_25_2)">
<path d="M259.94 232.789L263.273 238.489L263.556 239.01C263.549 238.958 263.544 238.925 263.541 238.909C263.537 238.895 263.536 238.879 263.536 238.865V238.765V238.51V232.315C263.64 232.299 263.751 232.294 263.867 232.302C263.983 232.31 264.089 232.335 264.188 232.379C264.285 232.425 264.368 232.491 264.435 232.581C264.501 232.669 264.535 232.781 264.535 232.922V240.281H263.231L259.561 233.885L259.309 233.365C259.316 233.477 259.321 233.57 259.325 233.649C259.328 233.723 259.329 233.807 259.329 233.895V240.281H258.331V232.315H258.995C259.191 232.315 259.367 232.341 259.524 232.395C259.683 232.453 259.821 232.583 259.94 232.789Z" fill="#273E4D"/>
</g>
<mask id="mask42_25_2" style="mask-type:luminance" maskUnits="userSpaceOnUse" x="-110" y="-162" width="1123" height="794">
<path d="M-110 -162H1012.52V631.7H-110V-162Z" fill="white"/>
</mask>
<g mask="url(#mask42_25_2)">
<path d="M273.324 236.297C273.324 236.703 273.373 237.099 273.472 237.487C273.569 237.875 273.72 238.215 273.924 238.51C274.126 238.813 274.388 239.054 274.706 239.237C275.025 239.417 275.402 239.507 275.837 239.507C276.264 239.507 276.637 239.417 276.957 239.237C277.276 239.054 277.536 238.813 277.74 238.51C277.942 238.215 278.096 237.875 278.197 237.487C278.298 237.099 278.349 236.703 278.349 236.297C278.349 235.893 278.297 235.494 278.192 235.109C278.086 234.721 277.929 234.381 277.718 234.083C277.509 233.781 277.245 233.542 276.93 233.359C276.614 233.179 276.25 233.089 275.837 233.089C275.416 233.089 275.048 233.179 274.733 233.359C274.417 233.542 274.154 233.781 273.944 234.083C273.734 234.381 273.578 234.721 273.477 235.109C273.374 235.494 273.324 235.893 273.324 236.297ZM272.314 236.297C272.314 235.701 272.393 235.154 272.552 234.654C272.709 234.157 272.938 233.723 273.24 233.354C273.534 232.991 273.901 232.711 274.338 232.507C274.776 232.305 275.276 232.203 275.837 232.203C276.39 232.203 276.886 232.305 277.324 232.507C277.762 232.711 278.132 232.991 278.434 233.354C278.728 233.723 278.956 234.157 279.117 234.654C279.278 235.154 279.358 235.701 279.358 236.297C279.358 236.911 279.28 237.469 279.122 237.974C278.964 238.479 278.734 238.909 278.434 239.263C278.132 239.625 277.762 239.903 277.324 240.099C276.886 240.294 276.39 240.393 275.837 240.393C275.276 240.393 274.776 240.294 274.338 240.099C273.901 239.903 273.53 239.625 273.229 239.263C272.928 238.909 272.7 238.479 272.546 237.974C272.392 237.469 272.314 236.911 272.314 236.297Z" fill="#273E4D"/>
</g>
<mask id="mask43_25_2" style="mask-type:luminance" maskUnits="userSpaceOnUse" x="-110" y="-162" width="1123" height="794">
<path d="M-110 -162H1012.52V631.7H-110V-162Z" fill="white"/>
</mask>
<g mask="url(#mask43_25_2)">
<path d="M285.771 235.744V236.63H281.839V240.28H280.83V232.315H285.877C285.898 232.504 285.877 232.7 285.814 232.9C285.75 233.099 285.614 233.198 285.403 233.198H281.839V235.744H285.771Z" fill="#273E4D"/>
</g>
<mask id="mask44_25_2" style="mask-type:luminance" maskUnits="userSpaceOnUse" x="-110" y="-162" width="1123" height="794">
<path d="M-110 -162H1012.52V631.7H-110V-162Z" fill="white"/>
</mask>
<g mask="url(#mask44_25_2)">
<path d="M294.802 236.075C294.802 236.07 294.805 236.059 294.808 236.049C294.812 236.039 294.817 236.026 294.824 236.01L297.777 232.646C297.862 232.557 297.953 232.485 298.052 232.425C298.149 232.365 298.261 232.327 298.388 232.315H299.281L295.938 236.075C296.24 236.409 296.54 236.753 296.836 237.111C297.136 237.469 297.436 237.825 297.736 238.179C298.037 238.542 298.336 238.901 298.634 239.258C298.933 239.617 299.234 239.958 299.545 240.281H298.334L294.824 236.154C294.817 236.146 294.812 236.138 294.808 236.127C294.805 236.114 294.802 236.099 294.802 236.075ZM294.665 232.922V240.281H293.657V232.315C293.762 232.299 293.874 232.294 293.993 232.302C294.112 232.31 294.221 232.335 294.32 232.381C294.417 232.425 294.5 232.491 294.565 232.581C294.633 232.669 294.665 232.781 294.665 232.922Z" fill="#273E4D"/>
</g>
<mask id="mask45_25_2" style="mask-type:luminance" maskUnits="userSpaceOnUse" x="-110" y="-162" width="1123" height="794">
<path d="M-110 -162H1012.52V631.7H-110V-162Z" fill="white"/>
</mask>
<g mask="url(#mask45_25_2)">
<path d="M300.763 236.297C300.763 236.703 300.812 237.099 300.911 237.487C301.008 237.875 301.159 238.215 301.362 238.51C301.566 238.813 301.827 239.054 302.146 239.237C302.464 239.417 302.842 239.507 303.276 239.507C303.703 239.507 304.076 239.417 304.396 239.237C304.715 239.054 304.975 238.813 305.18 238.51C305.383 238.215 305.534 237.875 305.635 237.487C305.736 237.099 305.79 236.703 305.79 236.297C305.79 235.893 305.736 235.494 305.63 235.109C305.526 234.721 305.367 234.381 305.159 234.083C304.948 233.781 304.684 233.542 304.37 233.359C304.055 233.179 303.69 233.089 303.276 233.089C302.855 233.089 302.487 233.179 302.172 233.359C301.856 233.542 301.594 233.781 301.383 234.083C301.174 234.381 301.018 234.721 300.916 235.109C300.814 235.494 300.763 235.893 300.763 236.297ZM299.754 236.297C299.754 235.701 299.834 235.154 299.991 234.654C300.148 234.157 300.378 233.723 300.68 233.354C300.974 232.991 301.34 232.711 301.779 232.507C302.216 232.305 302.716 232.203 303.276 232.203C303.83 232.203 304.326 232.305 304.763 232.507C305.202 232.711 305.571 232.991 305.872 233.354C306.167 233.723 306.395 234.157 306.556 234.654C306.718 235.154 306.798 235.701 306.798 236.297C306.798 236.911 306.719 237.469 306.562 237.974C306.403 238.479 306.175 238.909 305.872 239.263C305.571 239.625 305.202 239.903 304.763 240.099C304.326 240.294 303.83 240.393 303.276 240.393C302.716 240.393 302.216 240.294 301.779 240.099C301.34 239.903 300.97 239.625 300.67 239.263C300.367 238.909 300.139 238.479 299.984 237.974C299.831 237.469 299.754 236.911 299.754 236.297Z" fill="#273E4D"/>
</g>
<mask id="mask46_25_2" style="mask-type:luminance" maskUnits="userSpaceOnUse" x="-110" y="-162" width="1123" height="794">
<path d="M-110 -162H1012.52V631.7H-110V-162Z" fill="white"/>
</mask>
<g mask="url(#mask46_25_2)">
<path d="M309.279 233.198V235.799H310.951C311.189 235.799 311.421 235.766 311.649 235.7C311.877 235.632 312.079 235.539 312.253 235.411C312.421 235.294 312.56 235.154 312.669 234.987C312.779 234.82 312.833 234.638 312.833 234.438C312.833 234.07 312.689 233.771 312.401 233.542C312.115 233.312 311.719 233.198 311.213 233.198H309.279ZM308.269 240.28V232.315H310.951C311.336 232.315 311.703 232.348 312.055 232.419C312.405 232.49 312.713 232.604 312.979 232.768C313.24 232.938 313.448 233.162 313.605 233.438C313.763 233.714 313.841 234.059 313.841 234.471C313.841 234.708 313.795 234.924 313.7 235.124C313.605 235.323 313.476 235.5 313.315 235.656C313.155 235.81 312.968 235.943 312.752 236.05C312.539 236.156 312.317 236.231 312.085 236.276C312.289 236.364 312.464 236.468 312.607 236.586C312.751 236.703 312.875 236.872 312.979 237.094L314.315 240.28H313.159L312.076 237.492C311.921 237.116 311.731 236.888 311.503 236.807C311.275 236.726 311.021 236.684 310.74 236.684H309.279V240.28H308.269Z" fill="#273E4D"/>
</g>
<mask id="mask47_25_2" style="mask-type:luminance" maskUnits="userSpaceOnUse" x="-110" y="-162" width="1123" height="794">
<path d="M-110 -162H1012.52V631.7H-110V-162Z" fill="white"/>
</mask>
<g mask="url(#mask47_25_2)">
<path d="M320.465 235.744V236.63H316.586V239.395H320.781C320.802 239.588 320.781 239.783 320.717 239.982C320.654 240.182 320.518 240.28 320.307 240.28H315.575V232.315H320.727C320.749 232.504 320.727 232.7 320.663 232.9C320.602 233.099 320.465 233.198 320.255 233.198H316.586V235.744H320.465Z" fill="#273E4D"/>
</g>
<mask id="mask48_25_2" style="mask-type:luminance" maskUnits="userSpaceOnUse" x="-110" y="-162" width="1123" height="794">
<path d="M-110 -162H1012.52V631.7H-110V-162Z" fill="white"/>
</mask>
<g mask="url(#mask48_25_2)">
<path d="M326.867 237.239L325.386 233.531L325.291 233.255L325.195 233.531L323.755 237.239H326.867ZM322.567 240.281H321.569L324.725 232.315H325.27C325.438 232.315 325.593 232.346 325.731 232.409C325.873 232.471 325.978 232.586 326.047 232.755L329.138 240.281H328.087L327.226 238.125H323.409L322.567 240.281Z" fill="#273E4D"/>
</g>
<mask id="mask49_25_2" style="mask-type:luminance" maskUnits="userSpaceOnUse" x="-110" y="-162" width="1123" height="794">
<path d="M-110 -162H1012.52V631.7H-110V-162Z" fill="white"/>
</mask>
<g mask="url(#mask49_25_2)">
<path d="M6.22002 222.95C4.22936 219.992 2.62936 216.956 1.42002 213.841C0.21069 210.726 -0.393311 207.365 -0.393311 203.753C-0.393311 200.141 0.21069 196.797 1.42002 193.724C2.62936 190.653 4.22936 187.596 6.22002 184.552H10.3587C8.65202 187.622 7.21602 190.765 6.04936 193.981C4.88269 197.196 4.30002 200.453 4.30002 203.753C4.30002 207.052 4.86936 210.308 6.00669 213.521C7.14402 216.737 8.60936 219.88 10.4014 222.95H6.22002Z" fill="#273E4D"/>
</g>
<mask id="mask50_25_2" style="mask-type:luminance" maskUnits="userSpaceOnUse" x="-110" y="-162" width="1123" height="794">
<path d="M-110 -162H1012.52V631.7H-110V-162Z" fill="white"/>
</mask>
<g mask="url(#mask50_25_2)">
<path d="M42.0599 220.817H36.7266V186.684C37.2666 186.627 37.8506 186.62 38.4759 186.664C39.1012 186.705 39.6852 186.828 40.2252 187.025C40.7372 187.227 41.1706 187.523 41.5266 187.921C41.8826 188.32 42.0599 188.833 42.0599 189.457V198.12H47.1799C47.3226 198.945 47.3506 199.648 47.2652 200.232C47.1799 200.815 46.9946 201.276 46.7106 201.617C46.3972 201.987 46.0492 202.208 45.6652 202.279C45.2812 202.351 45.0319 202.385 44.9186 202.385H42.0599V220.817ZM26.2732 192.872C26.2452 193.896 26.1599 194.891 26.0172 195.859C25.8746 196.825 25.6906 197.735 25.4626 198.588C26.2586 200.181 27.1626 201.617 28.1719 202.899C29.1812 204.177 30.1559 205.287 31.0946 206.227C32.0039 207.137 32.8012 207.861 33.4839 208.4C34.1666 208.943 34.6079 209.271 34.8066 209.383L33.5266 211.132C33.2986 211.473 33.0359 211.765 32.7372 212.008C32.4386 212.249 32.0332 212.413 31.5212 212.497C31.3506 212.555 31.1159 212.555 30.8172 212.497C30.5186 212.443 30.2266 212.299 29.9426 212.069C28.8332 211.132 27.6879 210.011 26.5079 208.7C25.3279 207.393 24.2106 205.927 23.1586 204.307C22.2772 205.927 21.3159 207.399 20.2786 208.721C19.2399 210.044 18.2519 211.247 17.3132 212.328L16.9719 212.669C16.7732 212.784 16.5732 212.853 16.3746 212.883C16.1746 212.911 15.9759 212.924 15.7772 212.924C15.3226 212.924 14.9092 212.817 14.5399 212.604C14.1706 212.391 13.8572 212.143 13.6012 211.859L12.1932 210.323C12.4492 210.093 13.0386 209.476 13.9639 208.465C14.8879 207.456 15.8346 206.169 16.8012 204.604C17.7972 203.012 18.6706 201.177 19.4252 199.101C20.1786 197.025 20.5412 194.807 20.5132 192.445V189.031C21.0532 188.973 21.6652 188.965 22.3479 189.011C23.0306 189.052 23.6559 189.175 24.2252 189.372C24.7946 189.572 25.2772 189.869 25.6759 190.268C26.0746 190.667 26.2732 191.179 26.2732 191.804V192.872Z" fill="#273E4D"/>
</g>
<mask id="mask51_25_2" style="mask-type:luminance" maskUnits="userSpaceOnUse" x="-110" y="-162" width="1123" height="794">
<path d="M-110 -162H1012.52V631.7H-110V-162Z" fill="white"/>
</mask>
<g mask="url(#mask51_25_2)">
<path d="M48.5449 222.95C50.3369 219.88 51.8009 216.737 52.9396 213.521C54.0769 210.308 54.6463 207.052 54.6463 203.753C54.6463 200.453 54.0636 197.196 52.8969 193.981C51.7303 190.765 50.2943 187.622 48.5876 184.552H52.7263C54.6889 187.596 56.2809 190.653 57.5049 193.724C58.7276 196.797 59.3396 200.141 59.3396 203.753C59.3396 207.365 58.7276 210.726 57.5049 213.841C56.2809 216.956 54.6889 219.992 52.7263 222.95H48.5449Z" fill="#273E4D"/>
</g>
<mask id="mask52_25_2" style="mask-type:luminance" maskUnits="userSpaceOnUse" x="-110" y="-162" width="1123" height="794">
<path d="M-110 -162H1012.52V631.7H-110V-162Z" fill="white"/>
</mask>
<g mask="url(#mask52_25_2)">
<path d="M92.1927 211.432H86.8594V186.257C87.4274 186.172 88.026 186.145 88.6514 186.172C89.2767 186.2 89.846 186.315 90.358 186.513C90.898 186.713 91.3394 187.013 91.6807 187.408C92.022 187.809 92.1927 188.349 92.1927 189.031V194.705H97.3127C97.454 195.531 97.4834 196.235 97.398 196.817C97.3127 197.401 97.1274 197.864 96.8434 198.205C96.53 198.575 96.182 198.793 95.798 198.867C95.414 198.937 95.1647 198.973 95.0514 198.973H92.1927V211.432ZM70.1767 198.844C70.1767 199.869 70.518 200.799 71.2007 201.64C71.8834 202.479 72.7647 202.899 73.846 202.899C74.898 202.899 75.7727 202.479 76.47 201.64C77.166 200.799 77.5154 199.869 77.5154 198.844C77.5154 197.82 77.166 196.891 76.47 196.049C75.7727 195.211 74.898 194.792 73.846 194.792C72.7647 194.792 71.8834 195.211 71.2007 196.049C70.518 196.891 70.1767 197.82 70.1767 198.844ZM92.6194 216.167C92.6474 216.651 92.6407 217.148 92.598 217.661C92.5554 218.172 92.4487 218.627 92.278 219.025C92.0794 219.424 91.802 219.752 91.446 220.008C91.09 220.263 90.6287 220.391 90.0594 220.391H66.3794V208.872H71.7127V216.167H92.6194ZM64.886 199.271C64.886 198.333 65.0567 197.445 65.398 196.604C65.7394 195.765 66.2367 195.005 66.8914 194.323H63.3927V190.099H71.1154C71.5994 189.473 72.118 188.697 72.6727 187.773C73.2274 186.849 73.7607 185.776 74.2727 184.552L79.3074 186.684C79.1367 187.112 78.8314 187.637 78.39 188.263C77.9487 188.891 77.4727 189.5 76.9607 190.099H84.214C84.3567 190.924 84.378 191.62 84.278 192.187C84.178 192.757 83.986 193.213 83.702 193.555C83.3887 193.924 83.0474 194.145 82.678 194.216C82.3074 194.287 82.066 194.323 81.9527 194.323H80.8007C81.426 195.005 81.9167 195.765 82.2727 196.604C82.6287 197.445 82.806 198.333 82.806 199.271C82.806 200.351 82.578 201.361 82.1234 202.299C81.6674 203.239 81.042 204.049 80.246 204.732C79.4207 205.445 78.4687 205.992 77.3874 206.375C76.306 206.76 75.126 206.951 73.846 206.951C72.566 206.951 71.378 206.76 70.2834 206.375C69.1887 205.992 68.242 205.445 67.446 204.732C66.6207 204.049 65.9887 203.239 65.5474 202.299C65.106 201.361 64.886 200.351 64.886 199.271Z" fill="#273E4D"/>
</g>
<mask id="mask53_25_2" style="mask-type:luminance" maskUnits="userSpaceOnUse" x="-110" y="-162" width="1123" height="794">
<path d="M-110 -162H1012.52V631.7H-110V-162Z" fill="white"/>
</mask>
<g mask="url(#mask53_25_2)">
<path d="M126.539 193.297C126.539 194.065 126.432 194.961 126.219 195.987C126.006 197.01 125.686 197.893 125.259 198.63H119.926C120.438 197.466 120.779 196.427 120.95 195.515C121.12 194.606 121.206 193.723 121.206 192.873V191.763H101.366V187.539H126.539V193.297ZM130.806 199.953C130.834 200.437 130.827 200.935 130.784 201.447C130.742 201.958 130.62 202.414 130.422 202.813C130.251 203.211 129.98 203.539 129.611 203.794C129.24 204.049 128.786 204.177 128.246 204.177H116.512V208.658H126.966V221.031H121.632V212.882H100.939V208.658H111.179V204.177H97.5258V199.953H130.806Z" fill="#273E4D"/>
</g>
<mask id="mask54_25_2" style="mask-type:luminance" maskUnits="userSpaceOnUse" x="-110" y="-162" width="1123" height="794">
<path d="M-110 -162H1012.52V631.7H-110V-162Z" fill="white"/>
</mask>
<g mask="url(#mask54_25_2)">
<path d="M155.979 219.963H151.072V187.111C151.612 187.026 152.174 186.997 152.758 187.026C153.34 187.054 153.874 187.169 154.358 187.367C154.812 187.567 155.196 187.873 155.51 188.283C155.822 188.698 155.979 189.231 155.979 189.885V198.419H158.582V186.685C159.122 186.599 159.683 186.578 160.267 186.619C160.85 186.663 161.383 186.783 161.867 186.985C162.35 187.182 162.748 187.482 163.062 187.881C163.374 188.278 163.531 188.805 163.531 189.458V220.818H158.582V202.643H155.979V219.963ZM141.472 208.955C142.411 208.955 143.107 208.359 143.563 207.163C144.018 205.971 144.246 204.477 144.246 202.685C144.246 200.922 144.018 199.435 143.563 198.226C143.107 197.018 142.411 196.414 141.472 196.414C140.504 196.414 139.8 197.018 139.36 198.226C138.919 199.435 138.699 200.922 138.699 202.685C138.699 204.477 138.919 205.971 139.36 207.163C139.8 208.359 140.504 208.955 141.472 208.955ZM132.726 195.602V191.378H138.955C139.382 190.753 139.822 189.977 140.278 189.051C140.732 188.127 141.202 187.054 141.686 185.83L146.464 187.963C146.264 188.39 145.98 188.919 145.611 189.545C145.24 190.169 144.814 190.781 144.331 191.378H150.006C150.063 191.89 150.083 192.395 150.07 192.893C150.055 193.39 149.963 193.838 149.792 194.237C149.622 194.635 149.372 194.961 149.046 195.218C148.718 195.474 148.284 195.602 147.744 195.602H147.104C147.787 196.542 148.334 197.622 148.747 198.843C149.159 200.067 149.366 201.378 149.366 202.77C149.366 204.221 149.152 205.581 148.726 206.843C148.299 208.111 147.715 209.213 146.976 210.151C146.264 211.091 145.432 211.823 144.48 212.349C143.527 212.875 142.524 213.138 141.472 213.138C140.391 213.138 139.374 212.875 138.422 212.349C137.468 211.823 136.636 211.091 135.926 210.151C135.186 209.213 134.61 208.111 134.198 206.843C133.784 205.581 133.579 204.221 133.579 202.77C133.579 201.378 133.778 200.067 134.176 198.843C134.574 197.622 135.115 196.542 135.798 195.602H132.726Z" fill="#273E4D"/>
</g>
<mask id="mask55_25_2" style="mask-type:luminance" maskUnits="userSpaceOnUse" x="-110" y="-162" width="1123" height="794">
<path d="M-110 -162H1012.52V631.7H-110V-162Z" fill="white"/>
</mask>
<g mask="url(#mask55_25_2)">
<path d="M196.512 205.458H191.179V186.258C191.747 186.171 192.346 186.146 192.971 186.171C193.596 186.201 194.166 186.315 194.678 186.513C195.218 186.713 195.659 187.013 196 187.409C196.342 187.81 196.512 188.349 196.512 189.031V190.226H201.632C201.774 191.051 201.803 191.755 201.718 192.338C201.632 192.922 201.447 193.382 201.163 193.723C200.85 194.094 200.502 194.315 200.118 194.385C199.734 194.458 199.484 194.491 199.371 194.491H196.512V196.838H201.632C201.774 197.663 201.803 198.37 201.718 198.95C201.632 199.534 201.447 199.997 201.163 200.338C200.85 200.707 200.502 200.93 200.118 200.999C199.734 201.07 199.484 201.106 199.371 201.106H196.512V205.458ZM183.926 217.534C185.859 217.534 187.446 217.155 188.683 216.401C189.92 215.649 190.539 214.703 190.539 213.565C190.539 212.455 189.92 211.515 188.683 210.75C187.446 209.982 185.859 209.597 183.926 209.597C181.963 209.597 180.37 209.982 179.147 210.75C177.924 211.515 177.312 212.455 177.312 213.565C177.312 214.703 177.924 215.649 179.147 216.401C180.37 217.155 181.963 217.534 183.926 217.534ZM173.046 195.942C173.046 197.138 173.408 198.161 174.134 199.015C174.859 199.87 175.776 200.294 176.886 200.294C177.966 200.294 178.876 199.87 179.616 199.015C180.355 198.161 180.726 197.138 180.726 195.942C180.726 194.75 180.355 193.723 179.616 192.873C178.876 192.018 177.966 191.591 176.886 191.591C175.776 191.591 174.859 192.018 174.134 192.873C173.408 193.723 173.046 194.75 173.046 195.942ZM183.926 205.458C185.632 205.458 187.211 205.671 188.662 206.098C190.112 206.526 191.378 207.109 192.459 207.846C193.511 208.589 194.343 209.447 194.955 210.43C195.567 211.409 195.872 212.455 195.872 213.565C195.872 214.703 195.567 215.763 194.955 216.742C194.343 217.723 193.511 218.586 192.459 219.325C191.378 220.065 190.112 220.641 188.662 221.051C187.211 221.463 185.632 221.671 183.926 221.671C182.219 221.671 180.632 221.463 179.168 221.051C177.703 220.641 176.444 220.065 175.392 219.325C174.311 218.586 173.472 217.723 172.875 216.742C172.278 215.763 171.979 214.703 171.979 213.565C171.979 212.455 172.278 211.409 172.875 210.43C173.472 209.447 174.311 208.589 175.392 207.846C176.444 207.109 177.703 206.526 179.168 206.098C180.632 205.671 182.219 205.458 183.926 205.458ZM167.712 195.942C167.712 194.833 167.947 193.775 168.416 192.765C168.886 191.755 169.532 190.867 170.358 190.098C171.182 189.33 172.15 188.71 173.259 188.242C174.368 187.773 175.576 187.539 176.886 187.539C178.166 187.539 179.36 187.773 180.47 188.242C181.579 188.71 182.546 189.33 183.371 190.098C184.196 190.867 184.85 191.755 185.334 192.765C185.818 193.775 186.059 194.833 186.059 195.942C186.059 197.109 185.818 198.198 185.334 199.209C184.85 200.215 184.196 201.106 183.371 201.874C182.546 202.643 181.579 203.247 180.47 203.687C179.36 204.127 178.166 204.349 176.886 204.349C175.576 204.349 174.368 204.127 173.259 203.687C172.15 203.247 171.182 202.643 170.358 201.874C169.532 201.106 168.886 200.215 168.416 199.209C167.947 198.198 167.712 197.109 167.712 195.942Z" fill="#273E4D"/>
</g>
<mask id="mask56_25_2" style="mask-type:luminance" maskUnits="userSpaceOnUse" x="-110" y="-162" width="1123" height="794">
<path d="M-110 -162H1012.52V631.7H-110V-162Z" fill="white"/>
</mask>
<g mask="url(#mask56_25_2)">
<path d="M225.952 192.187H211.019V195.687H225.952V192.187ZM231.925 216.167C231.953 216.651 231.947 217.148 231.904 217.661C231.861 218.172 231.755 218.627 231.584 219.025C231.384 219.424 231.108 219.752 230.752 220.007C230.396 220.263 229.933 220.391 229.365 220.391H205.685V209.724H211.019V216.167H231.925ZM205.685 187.963H231.285V199.911H205.685V187.963ZM216.651 213.351V206.736H201.845V202.512H235.125C235.153 202.997 235.147 203.495 235.104 204.007C235.061 204.517 234.94 204.973 234.741 205.372C234.571 205.771 234.3 206.099 233.931 206.353C233.56 206.609 233.105 206.736 232.565 206.736H221.984V213.351H216.651Z" fill="#273E4D"/>
</g>
<mask id="mask57_25_2" style="mask-type:luminance" maskUnits="userSpaceOnUse" x="-110" y="-162" width="1123" height="794">
<path d="M-110 -162H1012.52V631.7H-110V-162Z" fill="white"/>
</mask>
<g mask="url(#mask57_25_2)">
<path d="M266.059 206.312H260.725V186.257C261.293 186.172 261.892 186.145 262.517 186.172C263.143 186.2 263.712 186.315 264.224 186.512C264.764 186.713 265.205 187.012 265.547 187.408C265.888 187.809 266.059 188.348 266.059 189.031V194.064H271.179C271.32 194.891 271.349 195.596 271.264 196.176C271.179 196.76 270.993 197.224 270.709 197.564C270.396 197.935 270.048 198.156 269.664 198.227C269.28 198.296 269.031 198.333 268.917 198.333H266.059V206.312ZM244.043 198.205C244.043 199.229 244.384 200.124 245.067 200.893C245.749 201.661 246.631 202.044 247.712 202.044C248.764 202.044 249.639 201.661 250.336 200.893C251.032 200.124 251.381 199.229 251.381 198.205C251.381 197.179 251.032 196.284 250.336 195.515C249.639 194.749 248.764 194.364 247.712 194.364C246.631 194.364 245.749 194.749 245.067 195.515C244.384 196.284 244.043 197.179 244.043 198.205ZM266.059 208.231V221.031H260.725V212.455H240.032V208.231H266.059ZM238.752 198.629C238.752 197.749 238.923 196.911 239.264 196.115C239.605 195.317 240.088 194.577 240.715 193.895H237.259V189.672H244.981C245.465 189.047 245.984 188.271 246.539 187.345C247.093 186.421 247.627 185.348 248.139 184.124L253.173 186.257C253.003 186.684 252.697 187.211 252.256 187.836C251.815 188.463 251.339 189.072 250.827 189.672H258.08C258.137 190.181 258.151 190.687 258.123 191.184C258.093 191.684 257.995 192.132 257.824 192.531C257.653 192.929 257.404 193.255 257.077 193.509C256.751 193.768 256.331 193.895 255.819 193.895H254.667C255.292 194.577 255.783 195.317 256.139 196.115C256.495 196.911 256.672 197.749 256.672 198.629C256.672 199.656 256.444 200.621 255.989 201.533C255.533 202.443 254.908 203.239 254.112 203.921C253.287 204.604 252.335 205.137 251.253 205.52C250.172 205.905 248.992 206.099 247.712 206.099C246.432 206.099 245.244 205.905 244.149 205.52C243.055 205.137 242.108 204.604 241.312 203.921C240.487 203.239 239.855 202.443 239.413 201.533C238.972 200.621 238.752 199.656 238.752 198.629Z" fill="#273E4D"/>
</g>
<mask id="mask58_25_2" style="mask-type:luminance" maskUnits="userSpaceOnUse" x="-110" y="-162" width="1123" height="794">
<path d="M-110 -162H1012.52V631.7H-110V-162Z" fill="white"/>
</mask>
<g mask="url(#mask58_25_2)">
<path d="M300.617 220.817H295.284V186.684C295.825 186.627 296.409 186.62 297.033 186.664C297.659 186.705 298.243 186.828 298.784 187.025C299.296 187.227 299.729 187.523 300.085 187.921C300.44 188.32 300.617 188.833 300.617 189.457V198.12H305.739C305.88 198.945 305.909 199.648 305.823 200.232C305.739 200.815 305.552 201.276 305.268 201.617C304.956 201.987 304.607 202.208 304.224 202.279C303.839 202.351 303.589 202.385 303.477 202.385H300.617V220.817ZM290.591 189.457C290.591 189.828 290.599 190.189 290.612 190.547C290.628 190.901 290.635 191.249 290.635 191.591V192.593C290.635 192.921 290.62 193.241 290.591 193.555C290.364 196.172 289.724 198.531 288.672 200.637C287.619 202.741 286.395 204.591 285.003 206.181C283.58 207.776 282.108 209.115 280.587 210.195C279.064 211.276 277.733 212.099 276.596 212.669C276.085 212.896 275.715 213.031 275.488 213.072C275.259 213.117 275.061 213.137 274.891 213.137C274.464 213.109 274.121 212.965 273.867 212.711C273.611 212.456 273.411 212.229 273.269 212.028L271.817 210.236C273.468 209.353 275.047 208.408 276.555 207.399C278.061 206.391 279.413 205.232 280.608 203.921C281.803 202.643 282.789 201.169 283.573 199.505C284.355 197.841 284.832 195.901 285.003 193.681H273.099V189.457H290.591Z" fill="#273E4D"/>
</g>
<mask id="mask59_25_2" style="mask-type:luminance" maskUnits="userSpaceOnUse" x="-110" y="-162" width="1123" height="794">
<path d="M-110 -162H1012.52V631.7H-110V-162Z" fill="white"/>
</mask>
<g mask="url(#mask59_25_2)">
<path d="M326.645 198.333C326.645 198.617 326.623 198.896 326.581 199.164C326.539 199.434 326.474 199.697 326.389 199.953H331.553V197.478H326.561C326.561 197.565 326.566 197.642 326.581 197.713C326.595 197.786 326.602 197.849 326.602 197.906C326.602 197.992 326.61 198.07 326.623 198.14C326.638 198.21 326.645 198.276 326.645 198.333ZM331.553 213.864H316.191V216.593H331.553V213.864ZM314.015 197.906C314.015 198.929 314.357 199.768 315.039 200.424C315.722 201.078 316.605 201.404 317.685 201.404C318.737 201.404 319.613 201.078 320.309 200.424C321.006 199.768 321.354 198.929 321.354 197.906C321.354 196.882 321.006 196.044 320.309 195.388C319.613 194.734 318.737 194.406 317.685 194.406C316.605 194.406 315.722 194.734 315.039 195.388C314.357 196.044 314.015 196.882 314.015 197.906ZM331.553 206.95H336.886V220.817H310.858V206.95H316.191V209.768H331.553V206.95ZM308.725 198.333C308.725 197.536 308.895 196.754 309.237 195.986C309.578 195.218 310.061 194.521 310.687 193.896H307.231V189.672H314.953C315.438 189.046 315.957 188.27 316.511 187.346C317.066 186.421 317.599 185.349 318.113 184.125L323.146 186.257C322.975 186.685 322.67 187.21 322.229 187.836C321.786 188.464 321.311 189.073 320.799 189.672H328.053C328.195 190.497 328.217 191.193 328.117 191.762C328.017 192.33 327.826 192.786 327.542 193.128C327.513 193.156 327.491 193.185 327.477 193.213C327.462 193.242 327.441 193.254 327.413 193.254C327.385 193.284 327.355 193.312 327.329 193.341H331.553V186.257C332.119 186.172 332.718 186.145 333.343 186.172C333.969 186.2 334.539 186.314 335.05 186.513C335.59 186.713 336.031 187.013 336.373 187.409C336.714 187.809 336.886 188.349 336.886 189.03V205.03H331.553V204.093H322.933C322.193 204.518 321.383 204.854 320.501 205.096C319.618 205.338 318.679 205.458 317.685 205.458C316.405 205.458 315.217 205.265 314.122 204.882C313.026 204.497 312.081 203.978 311.283 203.325C310.459 202.672 309.827 201.909 309.386 201.041C308.946 200.174 308.725 199.27 308.725 198.333Z" fill="#273E4D"/>
</g>
<mask id="mask60_25_2" style="mask-type:luminance" maskUnits="userSpaceOnUse" x="-110" y="-162" width="1123" height="794">
<path d="M-110 -162H1012.52V631.7H-110V-162Z" fill="white"/>
</mask>
<g mask="url(#mask60_25_2)">
<path d="M371.659 220.817H366.325V186.684C366.864 186.627 367.448 186.62 368.075 186.664C368.699 186.705 369.283 186.828 369.823 187.025C370.336 187.227 370.768 187.523 371.125 187.921C371.48 188.32 371.659 188.833 371.659 189.457V220.817ZM349.429 200.552C349.429 201.575 349.713 202.471 350.281 203.239C350.852 204.008 351.648 204.391 352.672 204.391C353.695 204.391 354.492 204.008 355.06 203.239C355.631 202.471 355.913 201.575 355.913 200.552C355.913 199.528 355.631 198.629 355.06 197.864C354.492 197.096 353.695 196.711 352.672 196.711C351.648 196.711 350.852 197.096 350.281 197.864C349.713 198.629 349.429 199.528 349.429 200.552ZM344.137 200.765C344.137 199.825 344.336 198.908 344.736 198.012C345.132 197.117 345.703 196.312 346.443 195.601H342.857V191.377H349.727C350.211 190.752 350.731 189.976 351.285 189.052C351.84 188.127 352.372 187.055 352.885 185.831L357.919 187.963C357.748 188.391 357.443 188.919 357.003 189.544C356.56 190.169 356.084 190.781 355.573 191.377H362.697C362.841 192.401 362.763 193.361 362.464 194.257C362.164 195.153 361.461 195.601 360.352 195.601H358.857C359.569 196.312 360.137 197.117 360.565 198.012C360.992 198.908 361.205 199.825 361.205 200.765C361.205 202.385 360.651 203.864 359.541 205.203C358.432 206.539 357.067 207.479 355.445 208.017V212.541H364.831C364.859 213.025 364.853 213.52 364.809 214.033C364.768 214.547 364.645 215.003 364.448 215.399C364.276 215.796 364.007 216.124 363.636 216.38C363.267 216.637 362.812 216.765 362.271 216.765H341.792V212.541H350.112V208.06C348.405 207.549 346.981 206.624 345.845 205.287C344.707 203.951 344.137 202.443 344.137 200.765Z" fill="#273E4D"/>
</g>
</g>
<defs>
<linearGradient id="paint0_linear_25_2" x1="219.664" y1="17.1949" x2="219.664" y2="100.536" gradientUnits="userSpaceOnUse">
<stop stop-color="#7BC58A"/>
<stop offset="1" stop-color="#458EC9"/>
</linearGradient>
<linearGradient id="paint1_linear_25_2" x1="190.403" y1="-0.161818" x2="190.403" y2="71.7978" gradientUnits="userSpaceOnUse">
<stop stop-color="#7BC58A"/>
<stop offset="1" stop-color="#458EC9"/>
</linearGradient>
<linearGradient id="paint2_linear_25_2" x1="183.098" y1="74.9059" x2="183.098" y2="147.215" gradientUnits="userSpaceOnUse">
<stop stop-color="#7BC58A"/>
<stop offset="1" stop-color="#458EC9"/>
</linearGradient>
<linearGradient id="paint3_linear_25_2" x1="122.264" y1="66.6895" x2="122.264" y2="170.217" gradientUnits="userSpaceOnUse">
<stop stop-color="#7BC58A"/>
<stop offset="1" stop-color="#458EC9"/>
</linearGradient>
<linearGradient id="paint4_linear_25_2" x1="164.783" y1="161.38" x2="164.783" y2="169.846" gradientUnits="userSpaceOnUse">
<stop stop-color="#7BC58A"/>
<stop offset="1" stop-color="#458EC9"/>
</linearGradient>
<linearGradient id="paint5_linear_25_2" x1="170.913" y1="161.307" x2="170.913" y2="169.916" gradientUnits="userSpaceOnUse">
<stop stop-color="#7BC58A"/>
<stop offset="1" stop-color="#458EC9"/>
</linearGradient>
<linearGradient id="paint6_linear_25_2" x1="177.255" y1="161.38" x2="177.255" y2="169.846" gradientUnits="userSpaceOnUse">
<stop stop-color="#7BC58A"/>
<stop offset="1" stop-color="#458EC9"/>
</linearGradient>
<linearGradient id="paint7_linear_25_2" x1="181.79" y1="168.395" x2="181.79" y2="169.846" gradientUnits="userSpaceOnUse">
<stop stop-color="#7BC58A"/>
<stop offset="1" stop-color="#458EC9"/>
</linearGradient>
<linearGradient id="paint8_linear_25_2" x1="188.411" y1="161.307" x2="188.411" y2="169.846" gradientUnits="userSpaceOnUse">
<stop stop-color="#7BC58A"/>
<stop offset="1" stop-color="#458EC9"/>
</linearGradient>
<linearGradient id="paint9_linear_25_2" x1="207.905" y1="161.38" x2="207.905" y2="169.846" gradientUnits="userSpaceOnUse">
<stop stop-color="#7BC58A"/>
<stop offset="1" stop-color="#458EC9"/>
</linearGradient>
<linearGradient id="paint10_linear_25_2" x1="249.641" y1="66.6895" x2="249.641" y2="170.217" gradientUnits="userSpaceOnUse">
<stop stop-color="#7BC58A"/>
<stop offset="1" stop-color="#458EC9"/>
</linearGradient>
<linearGradient id="paint11_linear_25_2" x1="215.945" y1="-1.45243" x2="215.945" y2="171.881" gradientUnits="userSpaceOnUse">
<stop stop-color="#7BC58A"/>
<stop offset="1" stop-color="#458EC9"/>
</linearGradient>
<linearGradient id="paint12_linear_25_2" x1="164.783" y1="-1.43884" x2="164.782" y2="171.88" gradientUnits="userSpaceOnUse">
<stop stop-color="#7BC58A"/>
<stop offset="1" stop-color="#458EC9"/>
</linearGradient>
<linearGradient id="paint13_linear_25_2" x1="170.913" y1="-1.46536" x2="170.913" y2="171.881" gradientUnits="userSpaceOnUse">
<stop stop-color="#7BC58A"/>
<stop offset="1" stop-color="#458EC9"/>
</linearGradient>
<linearGradient id="paint14_linear_25_2" x1="177.255" y1="-1.43884" x2="177.255" y2="171.88" gradientUnits="userSpaceOnUse">
<stop stop-color="#7BC58A"/>
<stop offset="1" stop-color="#458EC9"/>
</linearGradient>
<linearGradient id="paint15_linear_25_2" x1="181.79" y1="-1.3727" x2="181.79" y2="171.88" gradientUnits="userSpaceOnUse">
<stop stop-color="#7BC58A"/>
<stop offset="1" stop-color="#458EC9"/>
</linearGradient>
<linearGradient id="paint16_linear_25_2" x1="188.411" y1="-1.45229" x2="188.411" y2="171.881" gradientUnits="userSpaceOnUse">
<stop stop-color="#7BC58A"/>
<stop offset="1" stop-color="#458EC9"/>
</linearGradient>
<linearGradient id="paint17_linear_25_2" x1="195.018" y1="-57.5474" x2="195.018" y2="173.984" gradientUnits="userSpaceOnUse">
<stop stop-color="#7BC58A"/>
<stop offset="1" stop-color="#458EC9"/>
</linearGradient>
<linearGradient id="paint18_linear_25_2" x1="201.662" y1="-57.5474" x2="201.662" y2="173.984" gradientUnits="userSpaceOnUse">
<stop stop-color="#7BC58A"/>
<stop offset="1" stop-color="#458EC9"/>
</linearGradient>
<linearGradient id="paint19_linear_25_2" x1="207.905" y1="-1.43884" x2="207.905" y2="171.88" gradientUnits="userSpaceOnUse">
<stop stop-color="#7BC58A"/>
<stop offset="1" stop-color="#458EC9"/>
</linearGradient>
<linearGradient id="paint20_linear_25_2" x1="249.641" y1="-1.45108" x2="249.641" y2="171.882" gradientUnits="userSpaceOnUse">
<stop stop-color="#7BC58A"/>
<stop offset="1" stop-color="#458EC9"/>
</linearGradient>
<linearGradient id="paint21_linear_25_2" x1="122.264" y1="-1.45108" x2="122.264" y2="171.882" gradientUnits="userSpaceOnUse">
<stop stop-color="#7BC58A"/>
<stop offset="1" stop-color="#458EC9"/>
</linearGradient>
<linearGradient id="paint22_linear_25_2" x1="183.098" y1="-1.45214" x2="183.098" y2="171.881" gradientUnits="userSpaceOnUse">
<stop stop-color="#7BC58A"/>
<stop offset="1" stop-color="#458EC9"/>
</linearGradient>
<linearGradient id="paint23_linear_25_2" x1="219.664" y1="-1.45092" x2="219.664" y2="171.88" gradientUnits="userSpaceOnUse">
<stop stop-color="#7BC58A"/>
<stop offset="1" stop-color="#458EC9"/>
</linearGradient>
<linearGradient id="paint24_linear_25_2" x1="190.403" y1="-1.45219" x2="190.403" y2="171.881" gradientUnits="userSpaceOnUse">
<stop stop-color="#7BC58A"/>
<stop offset="1" stop-color="#458EC9"/>
</linearGradient>
<linearGradient id="paint25_linear_25_2" x1="182.171" y1="-604.011" x2="182.171" y2="1158.3" gradientUnits="userSpaceOnUse">
<stop stop-color="#7BC58A"/>
<stop offset="1" stop-color="#458EC9"/>
</linearGradient>
<clipPath id="clip0_25_2">
<rect width="372" height="242" fill="white"/>
</clipPath>
</defs>
</svg>
