<svg width="287" height="117" viewBox="0 0 287 117" fill="none" xmlns="http://www.w3.org/2000/svg">
<g clip-path="url(#clip0_7_411)">
<mask id="mask0_7_411" style="mask-type:luminance" maskUnits="userSpaceOnUse" x="-136" y="0" width="582" height="286">
<path d="M-136 9.15527e-05H445.589V285.6H-136V9.15527e-05Z" fill="white"/>
</mask>
<g mask="url(#mask0_7_411)">
<path d="M212.572 63.5635C187.008 37.4415 150.294 21.2935 113.491 23.7985C98.6274 24.7345 84.0134 28.6035 70.4294 34.6525C63.6844 37.6665 57.1954 41.1805 51.0084 45.1255L51.4004 45.8215C91.8134 25.4835 134.745 22.9605 174.883 45.4145C185.746 51.5095 195.982 58.8895 204.902 67.6035C192.888 74.7485 180.302 81.1745 166.947 85.3345C160.484 87.3485 153.734 88.8015 146.996 89.4795C126.788 91.5725 109.604 85.5985 92.0684 76.0305C82.5864 70.9955 73.3034 65.3525 63.1074 61.6235C52.7854 57.8475 40.8154 55.9745 30.5874 61.0195C11.3624 70.4435 4.7314 97.7685 3.2514 117.406L4.0484 117.457C5.8104 102.204 10.1954 85.3625 19.8764 73.1975C39.9904 48.5705 68.4984 68.0095 89.7354 80.2645C110.339 92.2735 129.622 98.4285 153.713 95.0195C164.234 93.5215 174.554 90.4405 184.396 86.5115C196.051 81.8955 207.113 75.8905 217.853 69.4635C216.416 67.8745 214.086 65.1015 212.572 63.5635Z" fill="#6CBB5A"/>
<path d="M130.544 34.6721C130.451 34.5571 130.28 34.5401 130.165 34.6351C129.136 35.4981 128.091 36.3351 126.993 37.0981C124.838 38.6091 122.551 39.9021 120.164 40.9791C118.805 41.6011 116.977 42.2681 115.593 42.8391L114.659 43.1731L112.799 43.8531C111.785 44.2321 110.063 44.7481 109.053 45.1091C106.574 45.8541 103.976 46.6301 101.457 47.2251C92.5271 49.3531 83.4141 51.0071 74.2121 51.2291C51.5501 51.5191 28.7001 43.7511 13.5091 26.3951C13.4181 26.2841 13.2531 26.2641 13.1381 26.3561C13.0241 26.4481 13.0041 26.6151 13.0961 26.7301C13.8951 27.7051 14.8061 28.9341 15.6461 29.8991C29.0741 45.7201 49.6111 54.0291 70.0341 55.4591C86.3771 56.7211 101.66 54.5411 116.304 46.8601C117.377 46.3311 118.855 45.4431 119.918 44.8411C122.929 43.0871 125.726 40.8751 128.044 38.2731C128.963 37.2391 129.814 36.1481 130.564 34.9881C130.625 34.8931 130.621 34.7651 130.544 34.6721Z" fill="#F0C700"/>
<path d="M282.455 70.4246C277.705 63.8856 270.504 59.0106 262.373 57.9966C249.799 56.4486 237.66 62.4916 227.355 68.7646C218.103 74.3496 209.771 81.3166 200.31 86.4726C179.65 97.4326 155.963 102.912 132.581 101.192C127.293 100.83 121.905 100.041 116.72 98.9526C107.984 97.1116 99.4272 94.2636 91.2782 90.5856C78.0652 84.6646 66.1712 75.7466 52.1372 71.6166C51.9362 71.5576 51.7162 71.6636 51.6472 71.8656C51.5722 72.0756 51.6812 72.3046 51.8922 72.3776C62.8852 76.2546 72.3272 83.0606 82.3202 88.9646C115.06 108.51 153.27 111.682 189.088 98.8226C194.676 96.8086 200.248 94.5396 205.57 91.8956C211.807 88.7206 218.545 84.1976 224.467 80.4316C235.521 73.5726 248.357 64.4406 261.648 65.0186C267.133 65.3346 272.18 67.8526 276.262 71.5616C277.959 73.0606 279.514 74.8276 280.674 76.7706C285.336 84.5046 283.062 92.6136 275.703 97.5946C275.551 97.7026 275.486 97.9056 275.564 98.0826C275.65 98.2866 275.887 98.3836 276.09 98.2966C277.457 97.7186 278.769 96.9786 280.008 96.0916C281.232 95.1936 282.367 94.1286 283.348 92.9026C288.654 86.2806 287.258 76.9546 282.455 70.4246Z" fill="#0167B3"/>
<path d="M264.484 69.0564C256.003 67.5544 247.097 71.7784 240.154 76.2484C235.668 79.0594 231.289 82.0224 226.886 84.9434C218.246 90.8064 209.216 96.2114 199.584 100.249C194.023 102.585 188.13 104.494 182.285 105.994C164.418 110.625 145.884 112.036 127.406 110.61L127.329 111.271C142.664 113.603 158.464 113.716 173.927 111.524C178.683 110.83 183.771 109.874 188.441 108.739C198.082 106.445 207.379 102.703 216.207 98.2344C222.57 95.0444 228.904 91.5004 234.957 87.7794C237.979 85.9164 240.953 83.9854 243.896 82.0144C250.174 77.7684 258.275 72.7364 266.033 74.3664C272.097 75.9204 277.874 81.3434 279.249 87.6474L279.912 87.6094C279.923 87.1544 279.939 86.6914 279.936 86.2254C279.488 78.2624 272.337 70.4144 264.484 69.0564Z" fill="#18B3EA"/>
<path d="M229.82 55.178C229.82 59.428 226.373 62.874 222.123 62.874C217.871 62.874 214.426 59.428 214.426 55.178C214.426 50.926 217.871 47.481 222.123 47.481C226.373 47.481 229.82 50.926 229.82 55.178Z" fill="#F0C700"/>
<path d="M231.903 42.6263L230.868 32.1543C230.651 29.9753 228.157 28.8453 226.376 30.1233L217.825 36.2553C216.045 37.5313 216.317 40.2573 218.311 41.1603L227.897 45.4993C229.893 46.4013 232.118 44.8073 231.903 42.6263Z" fill="#6CBB5A"/>
<path d="M248.225 40.2136L240.196 41.0076C238.633 41.1616 237.237 40.0206 237.082 38.4556L236.287 30.4246C236.133 28.8606 237.276 27.4676 238.838 27.3126L246.871 26.5176C248.434 26.3616 249.827 27.5066 249.985 29.0676L250.776 37.1016C250.934 38.6656 249.789 40.0586 248.225 40.2136Z" fill="#0167B3"/>
</g>
</g>
<defs>
<clipPath id="clip0_7_411">
<rect width="287" height="117" fill="white"/>
</clipPath>
</defs>
</svg>
