<svg width="664" height="221" viewBox="0 0 664 221" fill="none" xmlns="http://www.w3.org/2000/svg">
<g clip-path="url(#clip0_1_14059)">
<mask id="mask0_1_14059" style="mask-type:luminance" maskUnits="userSpaceOnUse" x="-229" y="-324" width="1123" height="794">
<path d="M-229 469.716H893.52V-323.985H-229V469.716Z" fill="white"/>
</mask>
<g mask="url(#mask0_1_14059)">
<path d="M256.706 216.995C251.31 211.6 251.31 202.851 256.706 197.456L328.596 125.565C333.991 120.168 342.74 120.168 348.135 125.565C353.531 130.96 353.531 139.709 348.135 145.104L276.244 216.995C270.85 222.392 262.1 222.392 256.706 216.995Z" fill="#253832"/>
</g>
<mask id="mask1_1_14059" style="mask-type:luminance" maskUnits="userSpaceOnUse" x="-229" y="-324" width="1123" height="794">
<path d="M-229 469.716H893.52V-323.985H-229V469.716Z" fill="white"/>
</mask>
<g mask="url(#mask1_1_14059)">
<path d="M256.7 95.7567C251.305 90.3621 251.305 81.6127 256.7 76.2154L328.591 4.32741C333.985 -1.06992 342.735 -1.06992 348.129 4.32741C353.527 9.72207 353.527 18.4714 348.129 23.8661L276.241 95.7567C270.844 101.151 262.095 101.151 256.7 95.7567Z" fill="#328F52"/>
</g>
<mask id="mask2_1_14059" style="mask-type:luminance" maskUnits="userSpaceOnUse" x="-229" y="-324" width="1123" height="794">
<path d="M-229 469.716H893.52V-323.985H-229V469.716Z" fill="white"/>
</mask>
<g mask="url(#mask2_1_14059)">
<path d="M306.223 106.919C300.827 101.524 300.827 92.7751 306.223 87.3778L328.591 65.0124C333.986 59.6151 342.735 59.6151 348.13 65.0124C353.527 70.4071 353.527 79.1564 348.13 84.5524L325.762 106.919C320.367 112.314 311.618 112.314 306.223 106.919Z" fill="#253832"/>
</g>
<mask id="mask3_1_14059" style="mask-type:luminance" maskUnits="userSpaceOnUse" x="-229" y="-324" width="1123" height="794">
<path d="M-229 469.716H893.52V-323.985H-229V469.716Z" fill="white"/>
</mask>
<g mask="url(#mask3_1_14059)">
<path d="M256.686 156.316C251.29 150.921 251.29 142.172 256.686 136.774L279.054 114.409C284.448 109.012 293.198 109.012 298.592 114.409C303.99 119.804 303.99 128.553 298.592 133.948L276.224 156.316C270.83 161.71 262.082 161.71 256.686 156.316Z" fill="#328F52"/>
</g>
<mask id="mask4_1_14059" style="mask-type:luminance" maskUnits="userSpaceOnUse" x="-229" y="-324" width="1123" height="794">
<path d="M-229 469.716H893.52V-323.985H-229V469.716Z" fill="white"/>
</mask>
<g mask="url(#mask4_1_14059)">
<path d="M103.913 65.1399H90.0381V101.1H27.7315V65.1399H0.0954742V155.483H27.7315V119.523H90.0381V155.483H117.671V78.8985C117.671 71.3012 111.513 65.1399 103.913 65.1399Z" fill="#253832"/>
</g>
<mask id="mask5_1_14059" style="mask-type:luminance" maskUnits="userSpaceOnUse" x="-229" y="-324" width="1123" height="794">
<path d="M-229 469.716H893.52V-323.985H-229V469.716Z" fill="white"/>
</mask>
<g mask="url(#mask5_1_14059)">
<path d="M214.223 78.9062C214.223 71.3595 208.106 65.2395 200.558 65.2395H186.715V119.494C186.686 123.28 186.798 125.79 186.715 127.022C186.679 127.844 186.666 129.049 186.662 130.33C186.01 134.14 182.715 137.046 178.721 137.053L168.161 137.06L132.077 137.054L132.153 155.482C141.299 155.469 186.917 155.482 186.917 155.482C194.849 155.482 201.973 152.09 206.977 146.702C207.254 146.421 207.49 146.152 207.71 145.894C207.926 145.644 208.135 145.392 208.342 145.133C208.353 145.117 208.367 145.1 208.378 145.084C211.714 140.88 213.826 135.678 214.219 129.996C214.275 129.438 214.315 128.826 214.317 128.082L214.223 78.9062Z" fill="#253832"/>
</g>
<mask id="mask6_1_14059" style="mask-type:luminance" maskUnits="userSpaceOnUse" x="-229" y="-324" width="1123" height="794">
<path d="M-229 469.716H893.52V-323.985H-229V469.716Z" fill="white"/>
</mask>
<g mask="url(#mask6_1_14059)">
<path d="M551.799 96.6649L551.611 97.3862L566.5 98.8489L566.643 98.3342C568.963 90.0075 569.319 83.0502 569.375 76.4595L569.39 76.4742V72.8542V70.2115C569.39 67.0035 566.788 64.4022 563.579 64.4022H557.694H501.286V76.3715H554.291C554.264 82.9462 553.804 88.9782 551.799 96.6649Z" fill="#253832"/>
</g>
<mask id="mask7_1_14059" style="mask-type:luminance" maskUnits="userSpaceOnUse" x="-229" y="-324" width="1123" height="794">
<path d="M-229 469.716H893.52V-323.985H-229V469.716Z" fill="white"/>
</mask>
<g mask="url(#mask7_1_14059)">
<path d="M535.023 119.547C513.566 119.547 500.237 126.651 500.237 138.086C500.237 149.455 513.566 156.519 535.023 156.519C556.545 156.519 569.915 149.455 569.915 138.086C569.915 126.651 556.545 119.547 535.023 119.547ZM535.022 145.063C521.922 145.063 514.707 142.586 514.707 138.086C514.707 133.519 521.922 131.005 535.022 131.005C548.193 131.005 555.445 133.519 555.445 138.086C555.445 142.586 548.193 145.063 535.022 145.063Z" fill="#253832"/>
</g>
<mask id="mask8_1_14059" style="mask-type:luminance" maskUnits="userSpaceOnUse" x="-229" y="-324" width="1123" height="794">
<path d="M-229 469.716H893.52V-323.985H-229V469.716Z" fill="white"/>
</mask>
<g mask="url(#mask8_1_14059)">
<path d="M574.162 103.498H573.847H568.276H567.962H538.802V87.0364H523.703V103.498H491.543V115.571H528.21H543.308H579.972V109.308C579.972 106.099 577.371 103.498 574.162 103.498Z" fill="#253832"/>
</g>
<mask id="mask9_1_14059" style="mask-type:luminance" maskUnits="userSpaceOnUse" x="-229" y="-324" width="1123" height="794">
<path d="M-229 469.716H893.52V-323.985H-229V469.716Z" fill="white"/>
</mask>
<g mask="url(#mask9_1_14059)">
<path d="M658.614 64.4019H652.728H649.326V81.3779H635.039C632.044 71.2032 621.942 64.4019 609.732 64.4019C594.675 64.4019 583.746 74.1872 583.746 87.6712C583.746 101.155 594.675 110.941 609.732 110.941C622.12 110.941 632.266 104.017 635.152 93.6552H649.326V110.941H664.424V76.4752V70.2126C664.424 67.0032 661.823 64.4019 658.614 64.4019ZM609.732 98.3539C602.736 98.3539 598.216 94.1606 598.216 87.6712C598.216 81.1832 602.736 76.9899 609.732 76.9899C616.792 76.9899 621.355 81.1832 621.355 87.6712C621.355 94.1606 616.792 98.3539 609.732 98.3539Z" fill="#253832"/>
</g>
<mask id="mask10_1_14059" style="mask-type:luminance" maskUnits="userSpaceOnUse" x="-229" y="-324" width="1123" height="794">
<path d="M-229 469.716H893.52V-323.985H-229V469.716Z" fill="white"/>
</mask>
<g mask="url(#mask10_1_14059)">
<path d="M658.613 115.536H652.728H649.431V124.074H614.244V115.536H599.249V155.386H664.424V127.609V121.346C664.424 118.137 661.823 115.536 658.613 115.536ZM649.431 143.313H614.243V136.148H649.431V143.313Z" fill="#253832"/>
</g>
<mask id="mask11_1_14059" style="mask-type:luminance" maskUnits="userSpaceOnUse" x="-229" y="-324" width="1123" height="794">
<path d="M-229 469.716H893.52V-323.985H-229V469.716Z" fill="white"/>
</mask>
<g mask="url(#mask11_1_14059)">
<path d="M482.317 115.571V109.308C482.317 106.1 479.716 103.497 476.507 103.497H470.621H393.888V115.571H430.555V119.855C413.444 121.316 403.108 128.02 403.108 138.085C403.108 149.455 416.436 156.52 437.895 156.52C459.416 156.52 472.785 149.455 472.785 138.085C472.785 128.097 462.581 121.415 445.653 119.884V115.571H482.317ZM457.793 138.085C457.793 142.585 450.727 145.063 437.895 145.063C425.131 145.063 418.101 142.585 418.101 138.085C418.101 133.519 425.131 131.004 437.895 131.004C450.727 131.004 457.793 133.519 457.793 138.085Z" fill="#253832"/>
</g>
<mask id="mask12_1_14059" style="mask-type:luminance" maskUnits="userSpaceOnUse" x="-229" y="-324" width="1123" height="794">
<path d="M-229 469.716H893.52V-323.985H-229V469.716Z" fill="white"/>
</mask>
<g mask="url(#mask12_1_14059)">
<path d="M438.103 84.4779C443.981 93.7619 456.403 99.6366 473.247 101.062L476.261 101.258V89.2046C461.801 87.8153 452.307 83.1206 449.122 76.4753H474.462V70.2113C474.462 67.0033 471.861 64.4019 468.651 64.4019H468.611H462.766H401.851V76.4753H427.085C423.907 83.1046 414.45 87.7886 400.053 89.1926V101.251L402.959 101.062C419.803 99.6366 432.226 93.7619 438.103 84.4779Z" fill="#253832"/>
</g>
</g>
<defs>
<clipPath id="clip0_1_14059">
<rect width="664" height="221" fill="white"/>
</clipPath>
</defs>
</svg>
