<svg width="261" height="70" viewBox="0 0 261 70" fill="none" xmlns="http://www.w3.org/2000/svg">
<g clip-path="url(#clip0_1_14401)">
<mask id="mask0_1_14401" style="mask-type:luminance" maskUnits="userSpaceOnUse" x="-94" y="-109" width="794" height="1123">
<path d="M-94 -108.985H699.7V1013.53H-94V-108.985Z" fill="white"/>
</mask>
<g mask="url(#mask0_1_14401)">
<path d="M36.416 69.2228C55.508 69.2228 71.0013 53.7508 71.0013 34.6534C71.0013 15.5534 55.508 0.0707855 36.416 0.0707855C17.324 0.0707855 1.84134 15.5534 1.84134 34.6534C1.84134 53.7508 17.324 69.2228 36.416 69.2228Z" fill="#C4094F"/>
</g>
<mask id="mask1_1_14401" style="mask-type:luminance" maskUnits="userSpaceOnUse" x="-94" y="-109" width="794" height="1123">
<path d="M-94 -108.985H699.7V1013.53H-94V-108.985Z" fill="white"/>
</mask>
<g mask="url(#mask1_1_14401)">
<path d="M35.0364 19.4741V49.7875H44.6857V47.0915H37.8057V19.4741H35.0364Z" fill="white"/>
</g>
<mask id="mask2_1_14401" style="mask-type:luminance" maskUnits="userSpaceOnUse" x="-94" y="-109" width="794" height="1123">
<path d="M-94 -108.985H699.7V1013.53H-94V-108.985Z" fill="white"/>
</mask>
<g mask="url(#mask2_1_14401)">
<path d="M25.3873 27.7495C27.6647 27.7495 29.5207 25.8895 29.5207 23.6068C29.5207 21.3188 27.6647 19.4642 25.3873 19.4642C23.094 19.4642 21.234 21.3188 21.234 23.6068C21.234 25.8895 23.094 27.7495 25.3873 27.7495Z" fill="white"/>
</g>
<mask id="mask3_1_14401" style="mask-type:luminance" maskUnits="userSpaceOnUse" x="-94" y="-109" width="794" height="1123">
<path d="M-94 -108.985H699.7V1013.53H-94V-108.985Z" fill="white"/>
</mask>
<g mask="url(#mask3_1_14401)">
<path d="M37.8053 5.71437C37.4467 5.7037 36.7587 5.69304 36.416 5.69304C20.4627 5.69304 7.46933 18.6824 7.46933 34.6317C7.46933 42.3797 10.4867 49.6397 15.9667 55.1144C21.4187 60.577 28.6853 63.5784 36.416 63.5784C44.152 63.5784 51.4133 60.577 56.8813 55.1144C62.3453 49.6397 65.3627 42.3797 65.3627 34.6317V33.3317H64.1947H44.6907V36.0064H62.6107C62.6053 36.069 62.6053 36.3544 62.6053 36.4077C61.6907 50.0517 50.3027 60.8837 36.416 60.8837C29.4147 60.8837 22.8307 58.1464 17.868 53.201C12.9067 48.2344 10.18 41.649 10.18 34.6317C10.18 27.633 12.9067 21.0384 17.868 16.0864C22.8307 11.125 29.4147 8.39837 36.416 8.39837C36.7333 8.39837 37.468 8.39837 37.8053 8.41437V5.71437Z" fill="white"/>
</g>
<mask id="mask4_1_14401" style="mask-type:luminance" maskUnits="userSpaceOnUse" x="-94" y="-109" width="794" height="1123">
<path d="M-94 -108.985H699.7V1013.53H-94V-108.985Z" fill="white"/>
</mask>
<g mask="url(#mask4_1_14401)">
<path d="M88.2805 55.3777H118.274V46.331H100.175H99.2872V45.443V13.899H88.2805V55.3777Z" fill="#706D6E"/>
</g>
<mask id="mask5_1_14401" style="mask-type:luminance" maskUnits="userSpaceOnUse" x="-94" y="-109" width="794" height="1123">
<path d="M-94 -108.985H699.7V1013.53H-94V-108.985Z" fill="white"/>
</mask>
<g mask="url(#mask5_1_14401)">
<path d="M154.492 16.8165C151.063 14.1525 146.629 12.8058 141.345 12.8058C135.077 12.8058 129.836 14.7298 126.189 18.3698C122.401 22.1698 120.372 27.7698 120.372 34.5791C120.372 41.8405 122.496 47.9698 126.364 51.8378C129.403 54.8711 133.451 56.4778 138.068 56.4778C148.225 56.4778 150.571 50.3898 150.571 50.3898V53.1791V55.3778H159.733V31.9444H141.483V39.2818H148.817H149.873C149.873 39.2818 149.959 48.5084 141.281 48.5084C139.083 48.5084 137.117 47.7058 135.616 46.1938C133.271 43.8578 132.023 39.8844 132.023 34.7484C132.023 26.2485 135.4 21.1645 141.071 21.1645C144.595 21.1645 147.257 23.3431 147.939 26.6285H159.617C159.016 21.8525 157.705 19.3525 154.492 16.8165Z" fill="#706D6E"/>
</g>
<mask id="mask6_1_14401" style="mask-type:luminance" maskUnits="userSpaceOnUse" x="-94" y="-109" width="794" height="1123">
<path d="M-94 -108.985H699.7V1013.53H-94V-108.985Z" fill="white"/>
</mask>
<g mask="url(#mask6_1_14401)">
<path d="M242.184 39.9585C238.078 38.0145 232.678 31.8131 232.678 24.6745V19.6851H240.34H240.573H241.249V19.0411V18.8091V14.6865V14.4331V13.7891H240.573H240.34H216.688H216.434H215.757V14.4331V14.6865V18.8091V19.0411V19.6851H216.434H216.688H224.328V24.6745C224.328 31.8131 218.938 38.0145 214.838 39.9585L214.69 40.0225L214.33 40.2011V40.6145V40.7625V45.1158V45.4438V46.2998L215.165 46.0678L215.488 45.9825C219.805 44.7985 225.064 41.2158 228.518 36.5451C231.949 41.2158 237.212 44.7985 241.524 45.9825L241.85 46.0678L242.692 46.2998V45.4438V45.1158V40.7625V40.6145V40.2011L242.326 40.0225L242.184 39.9585Z" fill="#706D6E"/>
</g>
<mask id="mask7_1_14401" style="mask-type:luminance" maskUnits="userSpaceOnUse" x="-94" y="-109" width="794" height="1123">
<path d="M-94 -108.985H699.7V1013.53H-94V-108.985Z" fill="white"/>
</mask>
<g mask="url(#mask7_1_14401)">
<path d="M260.018 23.7756H259.765H253.614V13.7462V13.5036V12.8529H252.937H252.684H246.845H246.592H245.92V13.5036V13.7462V55.4302V55.6849V56.3182H246.592H246.845H252.684H252.937H253.614V55.6849V55.4302V29.6836H259.765H260.018H260.685V29.0276V28.7849V24.6529V24.4196V23.7756H260.018Z" fill="#706D6E"/>
</g>
<mask id="mask8_1_14401" style="mask-type:luminance" maskUnits="userSpaceOnUse" x="-94" y="-109" width="794" height="1123">
<path d="M-94 -108.985H699.7V1013.53H-94V-108.985Z" fill="white"/>
</mask>
<g mask="url(#mask8_1_14401)">
<path d="M193.542 13.7885V14.4325V14.6871V18.8085V19.0405V19.6858H192.866H192.628H184.972V19.7645C184.972 26.6925 190.256 30.6871 194.245 31.5018L194.452 31.5431L194.974 31.6391V32.1671V32.3685V36.4391V36.7138V37.4111L194.261 37.3591L193.997 37.3378C189.685 37.0418 184.506 34.8218 180.797 30.5498C177.093 34.8218 171.893 37.0418 167.586 37.3378L167.333 37.3591L166.625 37.4111V36.7138V36.4391V32.3685V32.1671V31.6391L167.137 31.5431L167.344 31.5018C171.328 30.6871 176.617 26.7565 176.617 19.7645V19.6858H168.97H168.717H168.052V19.0405V18.8085V14.6871V14.4325V13.7885H193.542Z" fill="#706D6E"/>
</g>
<mask id="mask9_1_14401" style="mask-type:luminance" maskUnits="userSpaceOnUse" x="-94" y="-109" width="794" height="1123">
<path d="M-94 -108.985H699.7V1013.53H-94V-108.985Z" fill="white"/>
</mask>
<g mask="url(#mask9_1_14401)">
<path d="M194.198 22.0002H193.945H193.278V22.6442V22.8988V27.0202V27.2522V27.9082H193.945H194.198H200.365V40.4975V40.7402V41.3855H201.025H201.279H207.123H207.366H208.042V40.7402V40.4975V13.7468V13.5028V12.8535H207.366H207.123H201.279H201.025H200.365V13.5028V13.7468V22.0002H194.198Z" fill="#706D6E"/>
</g>
<mask id="mask10_1_14401" style="mask-type:luminance" maskUnits="userSpaceOnUse" x="-94" y="-109" width="794" height="1123">
<path d="M-94 -108.985H699.7V1013.53H-94V-108.985Z" fill="white"/>
</mask>
<g mask="url(#mask10_1_14401)">
<path d="M207.387 50.4108H207.123H181.79V40.4655V40.2228V39.5775H181.119H180.882H175.031H174.773H174.118V40.2228V40.4655V51.4042C174.118 52.8948 174.573 54.1415 175.471 55.0082C176.358 55.8642 177.637 56.3188 179.186 56.3188H207.123H207.387H208.063V55.6842V55.4308V51.3095V51.0655V50.4108H207.387Z" fill="#706D6E"/>
</g>
</g>
<defs>
<clipPath id="clip0_1_14401">
<rect width="261" height="70" fill="white"/>
</clipPath>
</defs>
</svg>
