<svg width="349" height="75" viewBox="0 0 349 75" fill="none" xmlns="http://www.w3.org/2000/svg">
<g clip-path="url(#clip0_1_17645)">
<path d="M53.5098 12.1108L53.3679 12.0886C62.4701 17.1394 68.7481 26.6453 68.7481 37.7937C68.7481 48.8458 62.7572 58.1902 53.7826 63.2761L53.5971 63.3888C66.2214 61.5183 75.8419 50.9376 75.8419 37.7937C75.8419 24.6824 66.0899 14.0235 53.5098 12.1108Z" fill="#0499DB"/>
<path d="M11.78 37.7937C11.78 51.0561 21.6043 62.0222 34.3738 63.8165L28.4871 37.7937H37.8816V11.5131V0.0378418L34.9806 11.6921C21.9181 13.2175 11.78 24.3204 11.78 37.7937Z" fill="#0499DB"/>
<path d="M22.642 63.3888C10.0164 61.5183 0.39592 50.9376 0.39592 37.7937C0.39592 24.6824 10.1518 14.0235 22.7279 12.1108L22.8712 12.0886C13.769 17.1394 7.49096 26.6453 7.49096 37.7937C7.49096 48.8458 13.4819 58.1902 22.4558 63.2761L22.642 63.3888Z" fill="#15366F"/>
<path d="M64.3458 37.7937C64.3458 24.3992 54.3276 13.3458 41.3738 11.7169L47.2761 37.7937H37.8816L37.8791 75.0288L40.6759 63.9467C53.965 62.6362 64.3458 51.4279 64.3458 37.7937Z" fill="#15366F"/>
<path d="M108.7 32.6049L108.709 37.3497H104.086V32.6446H91.5739V30.9825H97.9326V28.8718H90.4319V27.0951H103.91V22.907H91.5094V21.1667H107.138C108.271 21.1667 108.63 22.3953 108.63 22.8588C108.63 23.3237 108.63 27.0951 108.63 27.0951H109.766V28.8718H102.37V30.9825H107.058C108.755 30.9825 108.7 32.6049 108.7 32.6049Z" fill="#15366F"/>
<path d="M104.066 53.392H95.9389V54.6531H104.066V53.392ZM108.591 56.3999L92.795 56.3777C92.3731 56.3777 92.0476 56.2651 91.8198 56.0366C91.5665 55.782 91.4408 55.3771 91.4408 54.8243V50.7976H95.9389V51.6368H104.066V50.7976H108.591V56.3999ZM102.997 42.2013V45.8986H95.1199V47.5874C95.1199 47.5874 101.985 47.5874 102.627 47.5874C103.778 47.5874 104.128 47.0678 104.128 47.0678V40.5939H108.629V49.8022H104.128V48.7247C104.128 48.7247 103.714 49.3491 102.133 49.3491C101.217 49.3491 92.017 49.3491 92.017 49.3491C91.5951 49.3491 91.2813 49.2409 91.0776 49.0236C90.8256 48.7703 90.698 48.3608 90.698 47.795V44.2072H98.644V42.3068H90.698V40.5939H101.527C101.527 40.5939 102.997 40.6792 102.997 42.2013Z" fill="#15366F"/>
<path d="M157.884 41.4884H116.508V45.3654H132.847V56.3302H142.397V45.3654H157.884V41.4884Z" fill="#15366F"/>
<path d="M146.426 30.3223V34.6114H127.542V30.3223H146.426ZM121.52 38.4792H150.032H155.975V21.2722H146.426V26.4473H127.542V21.2859H117.992V34.6694C117.992 36.7078 119.316 38.3842 121.52 38.4792Z" fill="#15366F"/>
<path d="M175.628 48.8647C175.628 46.3419 179.71 44.3035 184.742 44.3035C189.777 44.3035 193.857 46.3419 193.857 48.8647C193.857 51.3823 189.777 53.4279 184.742 53.4279C179.71 53.4279 175.628 51.3823 175.628 48.8647ZM187.428 31.8289C188.046 30.5516 188.51 29.1303 188.778 27.5164L193.869 27.5124V31.8295L187.428 31.8289ZM203.489 21.2469H193.869V23.642L189.105 23.6434V21.2462H164.345V24.894H179.632C179.835 27.3165 179.662 37.4493 162.621 38.2078L164.77 41.741C164.77 41.741 176.537 42.0561 184.662 35.7104L193.869 35.6941V41.5275C191.144 40.8295 188.007 40.4311 184.664 40.4311C174.285 40.4311 165.873 44.2612 165.873 48.9891C165.873 53.7104 174.285 57.5431 184.664 57.5431C195.044 57.5431 203.489 53.7104 203.489 48.9891C203.489 48.8061 203.489 21.2469 203.489 21.2469Z" fill="#15366F"/>
<path d="M346.999 25.0561C346.999 23.0626 345.723 21.4578 343.481 21.2697H311.003V25.1583H337.461V52.519H333.85V37.2436H325.576V52.519H322.395V37.2436H314.12V52.519H307.953V56.3862H349.34V52.519H347.007V25.0587" fill="#15366F"/>
<path d="M211.956 48.8042C211.956 50.7957 213.528 52.6069 215.711 52.6069L215.761 52.6232L229.434 52.5887C229.875 52.5993 233.074 52.5887 234.043 51.2085V56.3862H242.316V36.7404H244.798V56.3125H253.076V21.2748H244.798V32.8659H242.316V21.2748H234.043V47.336C232.978 48.8575 230.227 48.7325 230.227 48.7325L221.52 48.7514V25.1212H231.071V21.2749H211.973V48.7833L211.956 48.8042Z" fill="#15366F"/>
<path d="M306.233 26.4012H301.564V21.2814H292.016V41.1759H301.564V30.2762H306.233V26.4012Z" fill="#15366F"/>
<path d="M297.772 43.3973H262.621V47.2671H292.016V56.3446H301.557V47.116C301.557 45.1499 299.951 43.3921 297.805 43.3921" fill="#15366F"/>
<path d="M274.923 37.517C271.911 37.517 269.468 35.2468 269.468 32.4415C269.468 29.6401 271.911 27.3653 274.923 27.3653C277.936 27.3653 280.383 29.6401 280.383 32.4415C280.383 35.2468 277.936 37.517 274.923 37.517ZM283.05 25.1466H288.621V21.5951H279.497V19.5496H269.951V21.5951H261.04V25.1466H266.805C262.838 26.4057 260.522 29.1563 260.522 32.4415C260.522 37.7345 266.971 42.0242 274.923 42.0242C282.881 42.0242 289.328 37.7345 289.328 32.4415C289.328 29.1563 286.882 26.2156 283.05 25.1466Z" fill="#15366F"/>
</g>
<defs>
<clipPath id="clip0_1_17645">
<rect width="349" height="75" fill="white"/>
</clipPath>
</defs>
</svg>
