<svg width="220" height="23" viewBox="0 0 220 23" fill="none" xmlns="http://www.w3.org/2000/svg">
<g clip-path="url(#clip0_1_20836)">
<mask id="mask0_1_20836" style="mask-type:luminance" maskUnits="userSpaceOnUse" x="-446" y="-363" width="1123" height="794">
<path d="M-446 -363H676.52V430.701H-446V-363Z" fill="white"/>
</mask>
<g mask="url(#mask0_1_20836)">
<path d="M150.07 11.9104H148.754V8.23841H146.729V22.5317H148.754V13.3184H150.07V22.5317H152.097V8.23841H150.07V11.9104Z" fill="#1D1D1B"/>
</g>
<mask id="mask1_1_20836" style="mask-type:luminance" maskUnits="userSpaceOnUse" x="-446" y="-363" width="1123" height="794">
<path d="M-446 -363H676.52V430.701H-446V-363Z" fill="white"/>
</mask>
<g mask="url(#mask1_1_20836)">
<path d="M137.793 11.7974H145.863V10.3894H137.793V11.7974Z" fill="#1D1D1B"/>
</g>
<mask id="mask2_1_20836" style="mask-type:luminance" maskUnits="userSpaceOnUse" x="-446" y="-363" width="1123" height="794">
<path d="M-446 -363H676.52V430.701H-446V-363Z" fill="white"/>
</mask>
<g mask="url(#mask2_1_20836)">
<path d="M188.539 15.2528H194.554V16.2955H189.527V17.7035H199.578V18.7088H189.527V21.5968C189.527 22.1128 189.947 22.5315 190.462 22.5315H201.808V21.1235H191.555V20.1182H201.606V17.2328C201.606 16.7155 201.184 16.2955 200.667 16.2955H196.579V15.2528H202.594V13.8448H188.539V15.2528Z" fill="#1D1D1B"/>
</g>
<mask id="mask3_1_20836" style="mask-type:luminance" maskUnits="userSpaceOnUse" x="-446" y="-363" width="1123" height="794">
<path d="M-446 -363H676.52V430.701H-446V-363Z" fill="white"/>
</mask>
<g mask="url(#mask3_1_20836)">
<path d="M191.716 9.64673H199.416V11.6174H191.716V9.64673ZM190.627 13.0254H201.443V9.17603C201.443 8.65869 201.023 8.23873 200.505 8.23873H189.689V12.0881C189.689 12.6067 190.109 13.0254 190.627 13.0254Z" fill="#1D1D1B"/>
</g>
<mask id="mask4_1_20836" style="mask-type:luminance" maskUnits="userSpaceOnUse" x="-446" y="-363" width="1123" height="794">
<path d="M-446 -363H676.52V430.701H-446V-363Z" fill="white"/>
</mask>
<g mask="url(#mask4_1_20836)">
<path d="M132.596 21.1227H125.225V19.224H132.596V21.1227ZM132.596 13.5227C131.913 13.7213 131.152 13.8413 130.539 13.844H123.835V12.4493H129.747V9.17468C129.747 8.65735 129.328 8.23869 128.811 8.23869H121.808V9.64669H127.721V11.0413H121.808V14.316C121.808 14.8333 122.228 15.252 122.745 15.252H130.641C131.231 15.252 131.983 15.152 132.596 14.9813V17.8147H125.225V16.2147H123.2V21.5947C123.2 22.112 123.619 22.532 124.136 22.532H133.685C134.203 22.532 134.623 22.112 134.623 21.5933V8.23869H132.596V13.5227Z" fill="#1D1D1B"/>
</g>
<mask id="mask5_1_20836" style="mask-type:luminance" maskUnits="userSpaceOnUse" x="-446" y="-363" width="1123" height="794">
<path d="M-446 -363H676.52V430.701H-446V-363Z" fill="white"/>
</mask>
<g mask="url(#mask5_1_20836)">
<path d="M217.712 10.3888V8.23816H215.686V14.4248C215.004 14.6235 214.24 14.7435 213.624 14.7475H213.522C213.675 14.1542 213.762 13.4528 213.763 12.8955V9.1755C213.763 8.65816 213.344 8.23816 212.824 8.23816H205.202V9.64616H211.738V12.7928C211.736 13.3768 211.627 14.0915 211.444 14.7475H209.511V11.7395H207.483V14.7475H204.768V16.1555H213.728C214.318 16.1542 215.072 16.0542 215.686 15.8835V21.1235H208.62V17.5968H206.592V21.5942C206.592 22.1115 207.014 22.5315 207.53 22.5315H216.775C217.294 22.5315 217.712 22.1115 217.712 21.5942V11.7968H219.976V10.3888H217.712Z" fill="#1D1D1B"/>
</g>
<mask id="mask6_1_20836" style="mask-type:luminance" maskUnits="userSpaceOnUse" x="-446" y="-363" width="1123" height="794">
<path d="M-446 -363H676.52V430.701H-446V-363Z" fill="white"/>
</mask>
<g mask="url(#mask6_1_20836)">
<path d="M161.99 21.4546C160.34 21.4546 159.003 20.5519 159.003 19.4386C159.003 18.3253 160.34 17.4226 161.99 17.4226C163.639 17.4226 164.976 18.3253 164.976 19.4386C164.976 20.5519 163.639 21.4546 161.99 21.4546ZM167.003 8.23861H164.976V16.6173C164.142 16.1799 163.11 15.9186 161.99 15.9186C159.222 15.9186 156.976 17.4946 156.976 19.4386C156.976 21.3826 159.222 22.9573 161.99 22.9573C164.748 22.9573 166.986 21.3933 167.002 19.4586L167.003 14.4999H169.266V13.0919H167.003V11.2026H169.266V9.79327H167.003V8.23861Z" fill="#1D1D1B"/>
</g>
<mask id="mask7_1_20836" style="mask-type:luminance" maskUnits="userSpaceOnUse" x="-446" y="-363" width="1123" height="794">
<path d="M-446 -363H676.52V430.701H-446V-363Z" fill="white"/>
</mask>
<g mask="url(#mask7_1_20836)">
<path d="M178.283 14.1748H174.013V11.7974H178.283V14.1748ZM180.309 14.6468V8.23877H178.283V10.3894H174.015V8.23877H171.988V14.6468C171.988 15.1641 172.407 15.5828 172.924 15.5828H179.373C179.891 15.5828 180.309 15.1641 180.309 14.6468Z" fill="#1D1D1B"/>
</g>
<mask id="mask8_1_20836" style="mask-type:luminance" maskUnits="userSpaceOnUse" x="-446" y="-363" width="1123" height="794">
<path d="M-446 -363H676.52V430.701H-446V-363Z" fill="white"/>
</mask>
<g mask="url(#mask8_1_20836)">
<path d="M184.562 8.23792H182.534V16.8926H173.001V18.3006H182.534V22.5312H184.562V11.7966H186.826V10.3886H184.562V8.23792Z" fill="#1D1D1B"/>
</g>
<mask id="mask9_1_20836" style="mask-type:luminance" maskUnits="userSpaceOnUse" x="-446" y="-363" width="1123" height="794">
<path d="M-446 -363H676.52V430.701H-446V-363Z" fill="white"/>
</mask>
<g mask="url(#mask9_1_20836)">
<path d="M156.186 11.5627C156.186 10.3707 157.215 9.40532 158.486 9.40532C159.757 9.40532 160.786 10.3707 160.786 11.5627C160.786 12.7547 159.757 13.72 158.486 13.72C157.215 13.72 156.186 12.7547 156.186 11.5627ZM162.813 11.5627C162.813 9.55066 160.875 7.91999 158.486 7.91999C156.097 7.91999 154.159 9.55066 154.159 11.5627C154.159 13.5747 156.097 15.2053 158.486 15.2053C160.875 15.2053 162.813 13.5747 162.813 11.5627Z" fill="#1D1D1B"/>
</g>
<mask id="mask10_1_20836" style="mask-type:luminance" maskUnits="userSpaceOnUse" x="-446" y="-363" width="1123" height="794">
<path d="M-446 -363H676.52V430.701H-446V-363Z" fill="white"/>
</mask>
<g mask="url(#mask10_1_20836)">
<path d="M141.923 18.0418C140.913 18.0418 140.094 17.0565 140.094 15.8405C140.094 14.6232 140.913 13.6378 141.923 13.6378C142.935 13.6378 143.753 14.6232 143.753 15.8405C143.753 17.0565 142.935 18.0418 141.923 18.0418ZM141.923 12.2298C139.794 12.2298 138.069 13.8458 138.069 15.8405C138.069 17.8338 139.794 19.4498 141.923 19.4498C144.054 19.4498 145.781 17.8338 145.781 15.8405C145.781 13.8458 144.054 12.2298 141.923 12.2298Z" fill="#1D1D1B"/>
</g>
<mask id="mask11_1_20836" style="mask-type:luminance" maskUnits="userSpaceOnUse" x="-446" y="-363" width="1123" height="794">
<path d="M-446 -363H676.52V430.701H-446V-363Z" fill="white"/>
</mask>
<g mask="url(#mask11_1_20836)">
<path d="M144.215 9.65063L144.217 8.23863H141.812C141.189 8.2373 140.416 8.11597 139.729 7.91197L139.407 9.2733C140.063 9.51063 141.003 9.6493 141.709 9.65063H144.215Z" fill="#1D1D1B"/>
</g>
<mask id="mask12_1_20836" style="mask-type:luminance" maskUnits="userSpaceOnUse" x="-446" y="-363" width="1123" height="794">
<path d="M-446 -363H676.52V430.701H-446V-363Z" fill="white"/>
</mask>
<g mask="url(#mask12_1_20836)">
<path d="M116.974 11.6259V9.17525C116.974 8.65792 116.554 8.23792 116.037 8.23792H105.221V9.64725H114.947V11.5219C114.946 12.1059 114.837 12.8219 114.655 13.4766H104.229V14.8859H109.905V16.9219H105.221V18.3313H115.27V22.5312H117.297V17.8579C117.297 17.3406 116.878 16.9219 116.361 16.9219H111.931V14.8859H118.285V13.4766H116.733C116.886 12.8833 116.973 12.1819 116.974 11.6259Z" fill="#1D1D1B"/>
</g>
<mask id="mask13_1_20836" style="mask-type:luminance" maskUnits="userSpaceOnUse" x="-446" y="-363" width="1123" height="794">
<path d="M-446 -363H676.52V430.701H-446V-363Z" fill="white"/>
</mask>
<g mask="url(#mask13_1_20836)">
<path d="M70.5226 22.9121H72.1173V0.0361328H70.5226V22.9121Z" fill="#1D1D1B"/>
</g>
<mask id="mask14_1_20836" style="mask-type:luminance" maskUnits="userSpaceOnUse" x="-446" y="-363" width="1123" height="794">
<path d="M-446 -363H676.52V430.701H-446V-363Z" fill="white"/>
</mask>
<g mask="url(#mask14_1_20836)">
<path d="M76.4153 12.4885L75.0927 11.6711C75.0007 11.6138 74.982 11.5325 74.982 11.4738C74.982 11.4151 75.0007 11.3338 75.0927 11.2765L76.4153 10.4591L78.0567 11.4738L76.4153 12.4885ZM99.5993 0.0364666H96.5647L79.574 10.5365L77.9327 9.5218L93.2807 0.0364666H90.2473L76.4153 8.58447L75.0927 7.76713C75.0007 7.7098 74.982 7.62847 74.982 7.5698C74.982 7.51113 75.0007 7.4298 75.0927 7.37247L86.9633 0.0364666H83.9287L74.254 6.01513C73.71 6.35113 73.386 6.93247 73.386 7.5698C73.386 8.20713 73.71 8.78847 74.254 9.12313L74.898 9.5218L74.254 9.91913C73.71 10.2551 73.386 10.8365 73.386 11.4738C73.386 12.1111 73.71 12.6925 74.254 13.0285L74.898 13.4258L74.254 13.8245C73.71 14.1605 73.386 14.7405 73.386 15.3778C73.386 16.0151 73.71 16.5965 74.254 16.9325L83.93 22.9111H86.9633L75.0927 15.5751C75.0007 15.5191 74.982 15.4365 74.982 15.3778C74.982 15.3191 75.0007 15.2378 75.0927 15.1805L76.4153 14.3631L90.2473 22.9111H93.2807L77.9327 13.4258L79.574 12.4111L96.5647 22.9111H99.5993L81.0913 11.4738L99.5993 0.0364666Z" fill="#1D1D1B"/>
</g>
<mask id="mask15_1_20836" style="mask-type:luminance" maskUnits="userSpaceOnUse" x="-446" y="-363" width="1123" height="794">
<path d="M-446 -363H676.52V430.701H-446V-363Z" fill="white"/>
</mask>
<g mask="url(#mask15_1_20836)">
<path d="M52.1269 19.7782C52.1043 19.8115 52.0616 19.8048 52.0416 19.7848L50.9296 18.1888L62.5016 1.5755C62.7083 1.2755 63.0429 1.31283 63.1549 1.3475C63.2709 1.3835 63.4603 1.51817 63.4603 1.76217V3.5075L52.1269 19.7782ZM47.8776 19.7782L47.8723 19.7848C47.8483 19.8075 47.8069 19.8075 47.7869 19.7782L36.4523 3.5075V1.76483C36.4523 1.52083 36.6416 1.38483 36.7589 1.34883C36.8709 1.31417 37.2043 1.27683 37.4109 1.57683L48.9843 18.1888L47.8776 19.7782ZM34.7576 1.07417C33.4816 -0.675167 30.8029 -0.665833 29.5083 1.07417L16.4629 19.8008C16.4416 19.8328 16.3936 19.8328 16.3723 19.8008L2.90693 0.472834C2.49493 -0.119167 1.74826 -0.371166 1.05226 -0.1525C0.360261 0.0661659 -0.087738 0.6675 -0.087738 1.38083V22.9115H1.50693L1.50159 1.46217C1.50159 1.3955 1.58693 1.36884 1.6256 1.4235L15.0629 20.7128C15.3683 21.1528 15.8749 21.4142 16.4176 21.4142C16.9603 21.4142 17.4656 21.1528 17.7723 20.7128L31.2069 1.42483C31.2443 1.37283 31.3269 1.39817 31.3269 1.46217V22.9115H32.9216L32.9229 1.45417C32.9229 1.38617 33.0096 1.35817 33.0496 1.41417L34.8576 4.01017V22.9115H36.4523V6.2995L46.4776 20.6902C46.7843 21.1302 47.2909 21.3928 47.8336 21.3928C48.3749 21.3928 48.8803 21.1302 49.1856 20.6915L49.9576 19.5848L50.6483 20.5768L50.7283 20.6928C51.0336 21.1302 51.5389 21.3928 52.0803 21.3928C52.6229 21.3928 53.1296 21.1302 53.4363 20.6902L63.4603 6.29817V22.9115H65.0563V4.0075L66.8749 1.39683C66.9109 1.34483 66.9909 1.37017 66.9909 1.43283V22.9115H68.5869V1.5635C68.5869 0.626167 68.1296 -0.0311661 67.3656 -0.193834C66.2109 -0.441833 65.5189 0.554167 65.2909 0.880833L65.0003 1.29817C64.8376 0.630169 64.3256 0.0914993 63.6069 -0.133833C62.6909 -0.419167 61.7203 -0.0978317 61.1923 0.664835L49.9563 16.7928L38.7216 0.666166C38.1936 -0.0965004 37.2216 -0.417833 36.3069 -0.131166C35.5869 0.0928345 35.0763 0.631502 34.9136 1.29817L34.7576 1.07417Z" fill="#1D1D1B"/>
</g>
</g>
<defs>
<clipPath id="clip0_1_20836">
<rect width="220" height="23" fill="white"/>
</clipPath>
</defs>
</svg>
