<svg width="469" height="165" viewBox="0 0 469 165" fill="none" xmlns="http://www.w3.org/2000/svg">
<g clip-path="url(#clip0_1_18532)">
<path d="M32.0005 56.5004H50.5968V79.2087L70.0623 56.5004H94.755L72.8377 79.0837L95.701 116.588H72.8377L60.2095 91.9626L50.5968 102.007V116.588H32.0005V56.5004Z" fill="#0F3160"/>
<path d="M106.126 146.659H18.27V17.7634L82.244 17.7594V42.2907H106.126V146.659ZM87.5246 -0.189697H-0.32959V164.611H124.718V37.0108L87.5246 -0.189697Z" fill="#5BBAEC"/>
<path d="M465.303 85.2673C465.303 85.2673 397.378 85.3195 396.668 85.3195C396.155 85.3195 396.206 85.8794 396.256 85.9822C396.462 86.2856 396.921 86.796 397.079 86.9536C397.079 86.9536 400.698 91.8494 401.105 91.9926C401.406 92.1033 401.918 92.2544 403.755 92.2986C403.755 92.2986 429.614 92.2986 430.012 92.2986C430.012 93.0239 430.012 101.791 430.012 101.791C430.012 102.503 430.222 103.011 430.624 103.372C431.04 103.678 431.598 103.834 432.413 103.834H436.037C437.716 103.834 439.142 103.219 440.316 101.948C441.486 100.724 442.053 99.3442 442.053 97.8156C442.053 97.8156 442.053 92.9692 442.053 92.2986C442.81 92.2986 465.303 92.2986 465.303 92.2986C468.575 92.2986 469.23 90.2166 469.23 88.9406C469.23 87.6163 468.575 85.2673 465.303 85.2673Z" fill="#231F20"/>
<path d="M228.845 76.9652C228.845 76.9652 221.905 76.9652 220.633 76.9652C222.019 75.0745 223.238 73.3363 224.202 70.6384C225.327 67.6214 226.084 64.2087 226.501 60.2347C226.551 60.0798 226.551 59.8766 226.551 59.7204C226.551 59.0563 226.39 58.4456 226.084 57.8389C225.627 57.0173 224.82 56.5563 223.537 56.5003H167.443C167.139 56.5003 166.58 56.4561 166.58 57.0173C166.58 57.2686 167.139 57.9365 167.292 58.0876C167.292 58.137 170.811 62.835 171.217 62.9782C171.478 63.0863 171.983 63.2321 173.717 63.2972C173.717 63.2972 213.189 63.2972 213.955 63.2972C213.955 63.6956 213.955 63.3376 213.955 63.7464C213.955 66.6605 213.857 68.6449 213.596 71.0967C213.345 73.8402 212.984 75.4235 212.633 76.9652H162.554C162.042 76.9652 161.945 77.4665 162.253 77.766C162.348 78.029 162.755 78.4404 162.905 78.5863C162.905 78.5863 166.529 83.2842 166.941 83.4795C167.195 83.585 167.747 83.736 169.586 83.7868C169.586 83.7868 190.956 83.7868 191.054 83.7868C191.054 84.8076 191.054 92.2985 191.054 93.3285C190.859 93.3285 167.498 93.3285 167.039 93.3285C166.529 93.3285 166.429 93.7295 166.58 93.9899C166.68 94.2438 167.139 94.7581 167.292 94.904C167.292 94.9548 170.811 99.5446 171.217 99.693C171.478 99.8024 171.983 99.9535 173.717 100.004C173.717 100.004 214.926 100.004 215.228 100.004C215.228 100.674 215.228 114.384 215.228 114.384C215.228 115.102 215.484 115.608 215.943 115.963C216.4 116.271 217.009 116.427 217.78 116.427H220.277C222.265 116.427 223.948 115.608 225.123 114.076C226.347 112.602 226.958 110.664 226.958 108.318V95.0602C226.958 94.4495 226.807 93.9899 226.446 93.7295C226.144 93.4339 225.68 93.3285 224.97 93.3285C224.97 93.3285 203.708 93.3285 202.935 93.3285C202.935 92.2985 202.935 84.8076 202.935 83.7868C205.083 83.7868 206.408 83.7868 228.845 83.7868C232.057 83.7868 232.67 81.7035 232.67 80.4287C232.67 79.0954 232.057 76.9652 228.845 76.9652Z" fill="#231F20"/>
<path d="M341.743 78.792C343.021 80.2243 345.676 82.516 348.371 84.9561C351.332 87.6162 353.827 89.4978 355.765 90.5251C357.401 91.4405 359.032 91.8949 360.513 91.8493C362.099 91.792 363.269 91.335 364.032 90.5251C364.543 89.96 364.79 89.2504 364.79 88.4847C364.79 87.822 364.692 86.7452 364.332 85.9301C363.575 84.1957 362.596 82.2048 360.92 80.7295C359.795 79.7608 358.877 79.2035 358.214 78.9952L354.906 78.1853C353.521 77.766 352.045 77.1579 350.414 76.3428C348.939 75.5746 346.788 74.46 345.676 73.6423C346.846 72.0056 348.326 70.2295 349.445 67.5733C350.414 65.0238 350.823 63.7972 351.227 61.7113C351.227 61.5056 351.332 60.6918 351.332 60.486C351.332 60.029 351.227 59.5681 350.979 59.1566C350.62 58.5459 349.651 58.1931 348.733 58.1371H332.364H331.285C330.833 58.1371 330.783 58.5017 330.783 58.6019C330.833 58.8545 330.934 58.96 331.09 59.0564C332.058 59.7764 332.465 59.8767 333.08 60.1748C335.115 61.305 336.902 61.9118 337.364 64.4118C337.461 66.2517 336.54 67.516 336.084 68.6449C334.909 71.1371 333.328 73.5368 331.396 76.2946C328.894 79.8611 323.897 85.0668 318.39 89.6084C317.422 90.266 317.116 91.6892 317.525 92.2985C318.029 93.434 319.818 93.2777 321.5 92.7608C323.847 92.1032 327.671 90.1605 331.285 87.516C334.759 85.0108 338.89 81.8988 341.743 78.792Z" fill="#231F20"/>
<path d="M273.462 87.516C272.845 87.2595 271.419 86.2855 270.099 85.3194C268.877 84.5043 268.209 83.891 267.142 82.3663C265.812 80.473 264.743 79.4626 264.337 78.2295C265.356 75.835 265.767 74.8663 266.53 72.3168C267.293 69.7165 267.599 67.7738 268.058 65.0785H268.877H276.732C278.818 65.0785 279.842 63.5004 279.842 61.7634C279.842 60.029 278.818 58.6996 276.732 58.6996C276.732 58.6996 242.713 58.6996 242.513 58.6996C242.006 58.6996 241.948 59.2139 242.046 59.3623C242.254 59.6123 242.563 60.029 242.713 60.1748C242.713 60.2347 245.77 64.6176 246.131 64.7699C246.388 64.8702 246.89 65.0238 248.581 65.0785C248.581 65.0785 253.37 65.0785 256.02 65.0785C255.924 75.7855 245.675 94.6488 241.436 99.6423C240.723 100.416 240.37 101.685 241.135 102.348C241.895 103.011 242.919 102.855 244.239 101.996C247.462 99.9535 250.363 97.6071 252.913 94.8011C255.513 91.9574 258.878 87.4157 260.816 84.0928C262.093 85.9821 263.724 89.2504 265.812 92.5095C267.908 95.7777 270.154 98.8819 272.137 100.416C273.357 101.331 274.792 101.791 276.221 101.888C277.648 102.05 278.773 101.685 279.536 100.822C280.499 99.9535 280.855 98.1696 279.992 95.9235C279.174 93.6319 277.844 91.335 276.416 89.6084C275.452 88.5368 274.331 87.8689 273.462 87.516Z" fill="#231F20"/>
<path d="M292.533 55.6371H282.592H281.518C281.318 55.6371 281.059 55.6371 280.966 55.9418C280.908 56.3103 281.217 56.5004 281.729 56.917C281.877 57.0681 282.592 57.5798 283.102 58.0446C283.508 58.348 283.87 58.8103 284.124 59.2139C284.382 59.6123 284.427 60.8428 284.427 61.5551V73.9965C284.427 73.9965 272.448 73.9965 272.029 73.9965C271.472 73.9509 271.472 74.5108 271.63 74.7113C271.876 74.9626 272.343 75.6319 272.499 75.7855C272.499 75.7855 275.859 80.1722 276.318 80.3754C276.68 80.684 277.287 80.835 277.902 80.878H284.427C284.427 81.6006 284.427 114.485 284.427 114.485C284.427 115.207 284.635 115.714 285.041 116.068C285.448 116.371 286.063 116.528 286.829 116.528H288.711C290.453 116.528 291.818 115.963 292.892 114.743C293.916 113.621 294.473 112.241 294.473 110.715V57.3741L294.273 56.5564C294.067 55.7985 292.947 55.6879 292.533 55.6371Z" fill="#231F20"/>
<path d="M307.381 55.6371H297.374H296.308C296.055 55.6371 295.849 55.6371 295.748 55.9418C295.65 56.3103 296.004 56.5004 296.508 56.917C296.666 57.0681 297.374 57.5798 297.891 58.0446C298.303 58.348 298.65 58.8103 298.91 59.2139C299.166 59.6123 299.221 60.8428 299.221 61.5551C299.221 78.641 299.221 97.4092 299.221 114.485C299.221 115.207 299.417 115.714 299.829 116.068C300.236 116.371 300.797 116.528 301.611 116.528H303.551C305.232 116.528 306.66 115.963 307.73 114.743C308.758 113.621 309.313 112.241 309.313 110.715V57.3741L309.102 56.5564C308.904 55.7985 307.73 55.6879 307.381 55.6371Z" fill="#231F20"/>
<path d="M384.471 55.6371H373.413H372.338C372.088 55.6371 371.885 55.6371 371.782 55.9418C371.676 56.3558 372.035 56.5564 372.545 56.917C372.7 57.0681 373.413 57.6254 373.925 58.0446C374.327 58.348 374.688 58.8103 374.936 59.2139C375.197 59.6123 375.245 60.8428 375.245 61.611C375.245 78.641 375.245 83.5381 375.245 100.674C375.245 101.331 375.45 101.888 375.86 102.197C376.269 102.503 376.826 102.706 377.594 102.706H380.701C382.387 102.706 383.763 102.099 384.832 100.922C385.859 99.7582 386.415 98.3832 386.415 96.8949V57.4196L386.212 56.5564C386.012 55.8506 384.887 55.6879 384.471 55.6371Z" fill="#231F20"/>
<path d="M384.021 109.593H352.354C350.005 109.593 349.139 109.135 348.828 108.783C348.371 108.166 348.115 107.653 348.07 106.177C348.115 105.926 348.115 105.615 348.115 105.304V97.9613L348.07 97.6072C348.07 97.5094 348.015 97.3481 347.965 97.2035V97.1527C347.716 96.3845 346.589 95.8832 346.23 95.8233L332.974 95.7777H331.905C331.647 95.7777 331.446 95.8233 331.34 96.1293C331.24 96.4847 331.546 96.6865 332.058 97.0524C332.262 97.2035 333.022 97.7699 333.589 98.1189C334.101 98.4782 334.965 98.9899 335.825 100.511C336.184 101.078 336.54 102.706 336.54 103.371C336.54 120.506 336.54 92.2035 336.54 109.289C336.54 109.384 336.54 109.44 336.54 109.538C336.54 112.299 337.56 114.128 339.557 115.052C341.489 115.865 343.226 116.322 344.702 116.322H384.021C386.972 116.322 387.59 114.233 387.59 113.009C387.59 111.83 386.972 109.593 384.021 109.593Z" fill="#231F20"/>
<path d="M459.596 109.651H424.766C422.422 109.651 421.554 109.194 421.245 108.832C420.788 108.215 420.53 107.703 420.48 106.278C420.53 105.972 420.53 105.668 420.53 105.409V99.2985L420.48 98.9899C420.48 98.8389 420.424 98.684 420.379 98.5225V98.4782C420.118 97.71 419.004 97.2035 418.642 97.1527H405.388H404.31C404.061 97.1527 403.855 97.1527 403.755 97.4535C403.655 97.8155 403.956 98.0186 404.472 98.4274C404.668 98.5733 405.437 99.0902 405.999 99.4939C406.503 99.8532 407.376 100.31 408.237 101.888C408.749 102.659 408.955 103.779 408.955 104.752C408.955 121.834 408.955 92.2543 408.955 109.384C408.955 109.44 408.955 109.538 408.955 109.593C408.955 112.339 409.976 114.179 411.964 115.102C413.902 115.963 415.631 116.371 417.111 116.371H459.596C462.602 116.371 463.217 114.284 463.217 113.105C463.217 111.884 462.602 109.651 459.596 109.651Z" fill="#231F20"/>
<path d="M408.649 76.0316C408.649 77.512 409.156 78.641 410.235 79.404C411.251 80.1722 412.935 80.529 415.48 80.529H434.81V74.5576H422.211C421.448 74.5576 420.886 74.4105 420.627 74.2594C420.329 73.9964 420.176 73.5863 420.176 72.9287C420.176 72.9287 420.176 63.96 420.176 63.2972C420.583 63.2972 427.667 63.2972 434.81 63.2972V57.2686H404.568C404.518 57.2686 404.518 57.2686 404.472 57.2686H404.006C403.803 57.2686 403.549 57.2686 403.449 57.5798C403.346 57.9821 403.7 58.193 404.211 58.5459C404.367 58.6995 405.18 59.2139 405.743 59.6123C406.202 59.9795 407.073 60.4365 407.931 62.012C408.29 62.585 408.599 64.1657 408.599 64.8232C408.599 68.8011 408.649 72.0615 408.649 76.0316ZM434.81 80.529H454.496C456.89 80.529 458.566 80.1722 459.54 79.4626C460.564 78.6917 461.069 77.5745 461.069 76.0316V59.0563C461.069 58.4456 460.915 57.9821 460.604 57.736C460.303 57.4196 459.801 57.2686 459.134 57.2686H434.81V63.2972C441.9 63.2972 448.987 63.2972 449.394 63.2972C449.394 63.96 449.394 72.8792 449.394 72.8792C449.394 73.4912 449.241 73.9508 448.987 74.1995C448.734 74.4105 448.169 74.5576 447.461 74.5576H434.81V80.529Z" fill="#231F20"/>
</g>
<defs>
<clipPath id="clip0_1_18532">
<rect width="469" height="165" fill="white"/>
</clipPath>
</defs>
</svg>
