<svg width="117" height="20" viewBox="0 0 117 20" fill="none" xmlns="http://www.w3.org/2000/svg">
<g clip-path="url(#clip0_1_18594)">
<mask id="mask0_1_18594" style="mask-type:luminance" maskUnits="userSpaceOnUse" x="-602" y="-252" width="1323" height="522">
<path d="M-602 -252H720.84V269.573H-602V-252Z" fill="white"/>
</mask>
<g mask="url(#mask0_1_18594)">
<path d="M43.4225 9.32782H32.9012V8.31715H39.3412C39.4172 8.03582 39.4918 7.75582 39.5479 7.43715C39.6225 7.13715 39.6785 6.81982 39.7159 6.51982C39.7532 6.21982 39.7905 5.93848 39.8105 5.65848C39.8278 5.39715 39.8465 5.17182 39.8465 4.98515H35.1105V3.93715H40.9892C40.9892 4.72248 40.9518 5.47182 40.8585 6.20115C40.7639 6.93182 40.6332 7.64248 40.4839 8.31715H43.4225V9.32782ZM40.8772 15.1118H39.7905V11.7611H35.0359V10.7318H40.8772V15.1118Z" fill="#231F20"/>
<path d="M52.6333 14.5505H51.548V3.48653H52.6333V14.5505ZM50.18 10.4505L49.432 11.2372L47.2227 9.02787C46.8293 9.49587 46.4173 9.90788 45.9693 10.2812C45.5 10.6572 45.032 10.9759 44.5453 11.2185L43.7773 10.4332C44.228 10.1892 44.6773 9.90786 45.108 9.57186C45.5373 9.21453 45.912 8.85987 46.268 8.46653C46.6053 8.0732 46.904 7.66121 47.148 7.24921C47.3907 6.83854 47.5787 6.4452 47.6907 6.07054H44.3773V5.05988H49.1133C49.0387 5.58388 48.908 6.08921 48.6827 6.63188C48.4587 7.15721 48.196 7.6612 47.86 8.14787C47.9907 8.29853 48.1213 8.41054 48.2147 8.52254C48.3453 8.63454 48.4586 8.74786 48.5893 8.8972C48.7386 9.02786 48.8707 9.15854 49.02 9.3092C49.1507 9.45854 49.3013 9.59054 49.432 9.73987C49.5813 9.87053 49.6947 10.0012 49.8053 10.0959C49.9187 10.2079 49.9933 10.3012 50.068 10.3572C50.1427 10.4332 50.18 10.4505 50.18 10.4505Z" fill="#231F20"/>
<path d="M64.1276 14.5508H63.0236V8.65345H61.5996V13.7828H60.4956V3.73078H61.5996V7.62411H63.0236V3.48678H64.1276V14.5508ZM58.9049 5.69612C58.6049 5.71478 58.2489 5.73345 57.8183 5.73345C57.4063 5.73345 56.9756 5.71478 56.5636 5.69612C56.1716 5.63878 55.8529 5.58278 55.6276 5.48945C55.4036 5.41478 55.2156 5.32145 55.0663 5.22812L55.4036 4.36678C55.5156 4.42278 55.6649 4.49745 55.8903 4.55345C56.0956 4.60945 56.3583 4.64678 56.6569 4.66545C57.1063 4.70411 57.5183 4.72278 57.8929 4.72278C58.2676 4.72278 58.6049 4.70411 58.9049 4.66545V5.69612ZM60.1023 7.62411H57.7063C57.3316 7.62411 56.9943 7.69878 56.6956 7.84811C56.3956 7.98011 56.1716 8.18545 55.9836 8.42945C55.8156 8.67211 55.7209 8.99078 55.7396 9.34678C55.7396 9.72145 55.8903 10.0214 56.1716 10.2628C56.4703 10.5068 56.8263 10.6201 57.2009 10.6001C57.5556 10.5628 57.8743 10.4321 58.1369 10.1508C58.3423 9.90811 58.4169 9.62811 58.3983 9.28945C58.3609 8.95345 58.1929 8.67212 57.8929 8.48545L58.7169 7.79212C58.9049 7.92278 59.0716 8.11078 59.2036 8.31611C59.3343 8.54145 59.4289 8.78412 59.4849 9.04678C59.5209 9.32811 59.5209 9.58945 59.4649 9.88945C59.4089 10.1694 59.2783 10.4321 59.0916 10.6934C58.9049 10.9374 58.6796 11.1428 58.4169 11.2934C58.1369 11.4428 57.8556 11.5548 57.5383 11.5921C57.2196 11.6481 56.9009 11.6481 56.5449 11.5748C56.2089 11.5188 55.8903 11.3681 55.5903 11.1614C55.2916 10.9748 55.0663 10.7494 54.9169 10.4681C54.7663 10.1894 54.6729 9.88945 54.6356 9.57078C54.5983 9.27212 54.6169 8.97212 54.6916 8.69078C54.7863 8.39078 54.8983 8.14812 55.0663 7.94145L55.2156 7.79212C55.3103 7.71745 55.3849 7.66145 55.4596 7.62411H53.9623V6.63211H60.1023V7.62411Z" fill="#231F20"/>
<path d="M75.5469 8.46637H73.5442V10.281H72.4589V3.4877H73.5442V5.15304H75.5469V6.18237H73.5442V7.4557H75.5469V8.46637ZM70.7349 15.1304V14.1197H70.7522C71.1669 14.1197 71.5389 13.989 71.8389 13.7264C72.1589 13.465 72.3255 13.1277 72.3255 12.697C72.3255 12.285 72.1589 11.9477 71.8389 11.6864C71.5029 11.4424 71.1455 11.3117 70.7522 11.3117H70.7349V10.301H70.7522C71.1095 10.301 71.4455 10.357 71.7842 10.489C72.1015 10.6197 72.4015 10.7877 72.6455 11.0117C72.8882 11.2184 73.0935 11.481 73.2442 11.7797C73.3935 12.061 73.4682 12.3797 73.4682 12.697C73.4682 13.053 73.3935 13.3717 73.2442 13.6704C73.0935 13.9517 72.8882 14.2144 72.6455 14.4384C72.4015 14.6624 72.1015 14.8304 71.7842 14.9437C71.4455 15.0744 71.1095 15.1304 70.7522 15.1304H70.7349ZM70.7349 10.301V11.3117C70.3042 11.3117 69.9295 11.4424 69.6122 11.7237C69.3122 11.9864 69.1615 12.3237 69.1615 12.697C69.1615 13.0904 69.3122 13.4277 69.5935 13.709C69.8935 13.9704 70.2682 14.1197 70.7349 14.1197V15.1304C70.3615 15.1304 70.0055 15.0744 69.6695 14.9437C69.3495 14.8304 69.0495 14.6624 68.8069 14.4384C68.5629 14.2144 68.3775 13.9517 68.2269 13.6704C68.0962 13.3717 68.0202 13.053 68.0202 12.697C68.0202 12.3797 68.0962 12.061 68.2442 11.7797C68.3962 11.481 68.5829 11.2184 68.8255 11.0117C69.0882 10.7877 69.3882 10.6197 69.7055 10.489C70.0229 10.357 70.3802 10.301 70.7349 10.301ZM67.7402 9.2157V8.18637C68.1695 8.18637 68.5255 8.0357 68.8442 7.77304C69.1615 7.49304 69.3122 7.11837 69.3122 6.68904C69.3122 6.2397 69.1615 5.88371 68.8442 5.60237C68.5442 5.32237 68.1695 5.17171 67.7402 5.17171V4.16104C68.1149 4.16104 68.4509 4.23571 68.7682 4.3477C69.1069 4.4797 69.3882 4.64771 69.6309 4.87304C69.8749 5.07837 70.0629 5.35837 70.2109 5.65837C70.3415 5.95837 70.4162 6.31437 70.4162 6.68904C70.4162 7.0437 70.3415 7.38104 70.1922 7.68104C70.0415 7.99837 69.8535 8.26104 69.6122 8.48504C69.3695 8.71037 69.0709 8.89704 68.7495 9.00904C68.4322 9.1397 68.0962 9.19704 67.7402 9.2157ZM67.7402 4.16104V5.17171H67.7215C67.2922 5.17171 66.9162 5.32237 66.6349 5.60237C66.3362 5.88371 66.1855 6.23971 66.1855 6.66904C66.1855 7.11837 66.3362 7.47437 66.6349 7.7557C66.9349 8.05437 67.2922 8.18637 67.7215 8.18637H67.7402V9.2157H67.7215C67.3642 9.2157 67.0109 9.1397 66.6922 9.00904C66.3722 8.87837 66.1122 8.71037 65.8669 8.48504C65.6255 8.26104 65.4375 7.9797 65.3069 7.68104C65.1562 7.38104 65.1015 7.0437 65.1015 6.68904C65.1015 6.3317 65.1562 5.9957 65.2869 5.6957C65.4375 5.37837 65.6255 5.1157 65.8495 4.89037C66.0735 4.66637 66.3535 4.49704 66.6722 4.36637C67.0109 4.23571 67.3469 4.16104 67.7215 4.16104H67.7402Z" fill="#231F20"/>
<path d="M84.7946 14.5505H83.7093V3.48653H84.7946V14.5505ZM78.896 11.1052V10.0759H80.2813V6.08919H78.896V5.05988H81.388V11.1052H78.896ZM78.896 5.05988V6.08919H77.5133V10.0759H78.896V11.1052H76.4266V5.05988H78.896Z" fill="#231F20"/>
<path d="M95.8568 14.5508H94.7714V8.41078H93.2741V13.7828H92.1874V3.73078H93.2741V7.38012H94.7714V3.48678H95.8568V14.5508ZM91.6274 11.4241H86.6088V7.64278H89.6221V5.99478H86.5341V4.98411H90.7474V8.67211H87.7141V10.4134H91.6274V11.4241Z" fill="#231F20"/>
</g>
<mask id="mask1_1_18594" style="mask-type:luminance" maskUnits="userSpaceOnUse" x="0" y="0" width="117" height="20">
<path d="M0.666626 19.7827H116.735V0.240051H0.666626V19.7827Z" fill="white"/>
</mask>
<g mask="url(#mask1_1_18594)">
<path d="M105.461 9.88977H98.6463V8.86044H100.013C100.013 8.70977 99.9943 8.52311 99.9943 8.29911C99.9943 8.09244 99.9943 7.86711 99.977 7.66177C99.9583 7.32444 99.901 7.04444 99.8076 6.85777C99.713 6.65111 99.6556 6.53911 99.6196 6.48177L100.576 6.05244C100.612 6.08844 100.649 6.16444 100.688 6.23911C100.742 6.31377 100.8 6.4071 100.857 6.5391C100.893 6.66977 100.948 6.8191 100.988 6.98844C101.024 7.15644 101.042 7.34311 101.062 7.56844C101.081 7.81111 101.081 8.05511 101.1 8.27911V8.86044H103.026V5.77111H98.7583V4.76044H105.349V5.77111H104.133V8.86044H105.461V9.88977ZM107.276 13.1658H96.925V12.1364H101.549V10.2631H102.633V12.1364H107.276V13.1658Z" fill="#231F20"/>
<path d="M116.88 10.4328H115.795V7.32479H113.659V6.29545H115.795V3.48745H116.88V10.4328ZM113.659 14.8875V13.8768H115.531V11.9861H113.659V10.9568H116.656V14.8875H113.659ZM113.659 8.89812H113.886V9.90878H113.659V8.89812ZM113.659 7.32479H113.435V6.29545H113.659V7.32479ZM113.659 8.89812H109.318V7.56878H112.706V4.23678H108.138V5.24745H111.563V6.55678H108.214V9.90745L113.659 9.90878V8.89812ZM113.659 10.9568V11.9861H112.088V13.8768H113.659V14.8875H110.946V10.9568H113.659Z" fill="#231F20"/>
</g>
<mask id="mask2_1_18594" style="mask-type:luminance" maskUnits="userSpaceOnUse" x="-602" y="-252" width="1323" height="522">
<path d="M-602 -252H720.84V269.573H-602V-252Z" fill="white"/>
</mask>
<g mask="url(#mask2_1_18594)">
<path d="M59.11 5.73355C58.7913 5.77088 58.398 5.77088 57.9126 5.78955C57.4433 5.78955 56.9953 5.77088 56.5273 5.73355C56.0953 5.67755 55.7406 5.60288 55.4966 5.52822C55.2353 5.43355 55.0286 5.34022 54.8793 5.22822L55.254 4.27355C55.366 4.34822 55.554 4.40422 55.778 4.48022C56.022 4.53622 56.302 4.59222 56.638 4.61088C57.126 4.64822 57.594 4.68555 58.0046 4.66688C58.4166 4.66688 58.7913 4.64822 59.11 4.61088V5.73355Z" fill="#66CCCE"/>
<path d="M54.7859 17.0029H53.6445V17.9389H54.7485V18.1269H53.6445V19.3989H53.4379V16.8149H54.7859V17.0029Z" fill="#231F20"/>
<path d="M56.4519 19.3806H56.2465V18.95C56.1892 19.0993 56.1145 19.2126 55.9839 19.3046C55.8719 19.3806 55.7212 19.418 55.5345 19.418C55.4599 19.418 55.3852 19.418 55.3292 19.3806C55.2545 19.3606 55.1972 19.3246 55.1599 19.2686C55.1039 19.2313 55.0665 19.1753 55.0479 19.0993C55.0105 19.0433 55.0105 18.9686 55.0105 18.9113V17.622H55.2159V18.762C55.2159 18.8193 55.2159 18.8753 55.2345 18.9313C55.2345 18.9873 55.2545 19.0433 55.2905 19.0993C55.3292 19.1366 55.3665 19.1753 55.4225 19.2126C55.4785 19.2313 55.5532 19.2486 55.6465 19.2486C55.7959 19.2486 55.9092 19.1926 56.0212 19.0806C56.1145 18.9873 56.1719 18.838 56.2079 18.67C56.2279 18.6313 56.2279 18.5753 56.2465 18.5193V18.37V17.622H56.4519V19.3806Z" fill="#231F20"/>
<path d="M57.7624 17.8077H57.2384V18.8197V19.005C57.2384 19.061 57.2571 19.1183 57.2757 19.1557C57.3131 19.193 57.3317 19.2303 57.3877 19.249C57.4251 19.2863 57.4997 19.2863 57.5744 19.2863H57.6691H57.7437V19.4183L57.5184 19.437C57.3504 19.437 57.2197 19.3983 57.1451 19.325C57.0504 19.269 57.0131 19.1557 57.0131 19.005V17.8077H56.6957V17.6397H57.0131V17.1903L57.2384 17.0583V17.6397H57.7624V17.8077Z" fill="#231F20"/>
<path d="M59.4654 19.3806H59.2601V18.95C59.2041 19.0993 59.1294 19.2126 58.9974 19.3046C58.8854 19.3806 58.7361 19.418 58.5481 19.418C58.4734 19.418 58.3988 19.418 58.3428 19.3806C58.2681 19.3606 58.2121 19.3246 58.1734 19.2686C58.1174 19.2313 58.0801 19.1753 58.0614 19.0993C58.0241 19.0433 58.0241 18.9686 58.0241 18.9113V17.622H58.2294V18.762C58.2294 18.8193 58.2294 18.8753 58.2481 18.9313C58.2481 18.9873 58.2681 19.0433 58.3054 19.0993C58.3428 19.1366 58.3801 19.1753 58.4361 19.2126C58.4921 19.2313 58.5668 19.2486 58.6601 19.2486C58.8108 19.2486 58.9228 19.1926 59.0348 19.0806C59.1294 18.9873 59.1854 18.838 59.2214 18.67C59.2414 18.6313 59.2414 18.5753 59.2601 18.5193V18.37V17.622H59.4654V19.3806Z" fill="#231F20"/>
<path d="M60.9062 17.8075C60.8329 17.8075 60.7582 17.8075 60.6636 17.8449C60.5889 17.8635 60.5142 17.9009 60.4582 17.9395C60.3836 17.9769 60.3262 18.0329 60.2902 18.1075C60.2342 18.1635 60.1956 18.2569 60.1769 18.3502C60.1582 18.3889 60.1582 18.4449 60.1396 18.5009V18.6689V19.3809H59.9342V17.6395H60.1396V18.0515C60.1769 17.9955 60.2142 17.9195 60.2902 17.8635C60.3462 17.8075 60.4022 17.7515 60.4582 17.7142C60.5142 17.6955 60.5702 17.6582 60.6449 17.6395C60.7182 17.6022 60.8129 17.5835 60.9062 17.5835V17.8075Z" fill="#231F20"/>
<path d="M62.5364 18.3884H62.5177V18.5004H61.7311V18.3511H62.2911C62.2911 18.2951 62.2737 18.2191 62.2737 18.1444C62.2737 18.0697 62.2551 17.9951 62.2191 17.9391C62.1617 17.8631 62.1044 17.8271 62.0311 17.7897C61.9737 17.7511 61.8977 17.7337 61.8044 17.7337H61.7311V17.5831H61.8257C61.9551 17.5831 62.0671 17.6217 62.1617 17.6577C62.2551 17.7137 62.3311 17.7897 62.4031 17.8831C62.4431 17.9577 62.4791 18.0324 62.4977 18.1271C62.5177 18.2191 62.5364 18.2951 62.5364 18.3884ZM61.7311 19.2311H61.7497C61.8044 19.2497 61.8617 19.2497 61.9551 19.2684C62.0311 19.2684 62.1044 19.2497 62.1977 19.2497C62.2911 19.2311 62.3671 19.1937 62.4604 19.1551V19.3044C62.3484 19.3431 62.2364 19.3804 62.1244 19.3991C62.0097 19.4177 61.8977 19.4177 61.7871 19.4177C61.7684 19.3991 61.7497 19.3991 61.7311 19.3991V19.2311ZM61.7311 18.5004H61.1871C61.2057 18.6324 61.2271 18.7444 61.2817 18.8751C61.3391 18.9871 61.4511 19.0991 61.5991 19.1937C61.6377 19.2124 61.6751 19.2124 61.7311 19.2311V19.3991C61.6564 19.3991 61.5631 19.3604 61.4871 19.3244C61.3751 19.2871 61.2991 19.2497 61.2444 19.1751C61.1697 19.0991 61.0937 19.0057 61.0391 18.8751C60.9817 18.7617 60.9631 18.6324 60.9631 18.4631C60.9631 18.2004 61.0391 17.9951 61.1871 17.8271C61.3177 17.6951 61.5057 17.6017 61.7311 17.5831V17.7337C61.5991 17.7511 61.4871 17.8071 61.3751 17.8831C61.2631 17.9951 61.2057 18.1444 61.1871 18.3511H61.7311V18.5004Z" fill="#231F20"/>
<path d="M65.2864 18.52C65.2864 18.7814 65.2131 19.0054 65.0438 19.1747C64.8931 19.3427 64.6878 19.4187 64.4264 19.4187V19.2694C64.5384 19.2694 64.6331 19.2494 64.7078 19.1934C64.7811 19.156 64.8384 19.1 64.8931 19.044C64.9504 18.9694 64.9864 18.8934 65.0078 18.8C65.0264 18.7067 65.0438 18.612 65.0438 18.52C65.0438 18.4067 65.0264 18.3134 65.0078 18.2187C64.9864 18.1267 64.9504 18.0507 64.8931 17.9774C64.8384 17.9014 64.7811 17.8454 64.7078 17.808C64.6331 17.752 64.5384 17.7334 64.4264 17.7334V17.584C64.6878 17.584 64.8931 17.6774 65.0438 17.8454C65.1931 18.0134 65.2864 18.2387 65.2864 18.52ZM64.4264 19.4187C64.1638 19.4187 63.9771 19.3427 63.8104 19.1934C63.6584 19.0254 63.5651 18.8 63.5651 18.52C63.5651 18.388 63.5838 18.276 63.6224 18.1627C63.6584 18.0507 63.7158 17.9574 63.7891 17.864C63.8464 17.7894 63.9398 17.7147 64.0518 17.6587C64.1464 17.6027 64.2758 17.584 64.4091 17.584H64.4264V17.7334H64.4091C64.3144 17.7334 64.2211 17.752 64.1278 17.7894C64.0518 17.8454 63.9944 17.9014 63.9398 17.9774C63.9011 18.0334 63.8651 18.1267 63.8464 18.2187C63.8278 18.3134 63.8104 18.4067 63.8104 18.52C63.8104 18.612 63.8278 18.7067 63.8464 18.8C63.8651 18.8934 63.9011 18.9694 63.9584 19.044C63.9944 19.1187 64.0704 19.156 64.1464 19.1934C64.2211 19.2307 64.3144 19.2694 64.4264 19.2694V19.4187Z" fill="#231F20"/>
<path d="M66.5989 17.0029C66.5602 17.0029 66.5056 16.9843 66.4656 16.9843C66.4109 16.9843 66.3536 16.9656 66.2989 16.9656C66.2242 16.9656 66.1482 16.9843 66.0936 17.0029C66.0549 17.0216 66.0002 17.0589 65.9602 17.1149C65.9429 17.1523 65.9242 17.1909 65.9242 17.2469C65.9056 17.2843 65.9056 17.3403 65.9056 17.4149V17.6403H66.4842V17.8083H65.9056V19.3989H65.6802V17.8083H65.3616V17.6403H65.6802V17.4896C65.6802 17.3963 65.7002 17.3203 65.7189 17.2469C65.7189 17.1523 65.7549 17.0963 65.7936 17.0216C65.8496 16.9656 65.9056 16.9096 65.9789 16.8709C66.0549 16.8349 66.1669 16.8149 66.2789 16.8149H66.4482C66.5056 16.8349 66.5602 16.8349 66.5989 16.8349V17.0029Z" fill="#231F20"/>
<path d="M69.2552 17.5083C69.2552 17.6576 69.2365 17.7696 69.1819 17.8643C69.1245 17.9576 69.0499 18.0336 68.9552 18.0896C68.8832 18.1456 68.7685 18.2016 68.6565 18.2189C68.5445 18.2389 68.4325 18.2576 68.3205 18.2576H68.0579V18.0696H68.3019C68.3952 18.0696 68.4899 18.0696 68.5619 18.0509C68.6565 18.0336 68.7312 18.0136 68.7885 17.9576C68.8619 17.9203 68.9192 17.8643 68.9552 17.7896C69.0125 17.7336 69.0312 17.6403 69.0312 17.5083C69.0312 17.4149 69.0125 17.3203 68.9552 17.2643C68.9192 17.1909 68.8619 17.1349 68.7885 17.0963C68.7312 17.0589 68.6565 17.0403 68.5619 17.0216C68.4899 17.0029 68.3952 17.0029 68.3019 17.0029H67.8912V19.3989H67.6645V16.8149H68.3205C68.4325 16.8149 68.5445 16.8349 68.6565 16.8536C68.7685 16.8709 68.8832 16.9096 68.9552 16.9656C69.0499 17.0029 69.1245 17.0789 69.1819 17.1709C69.2365 17.2643 69.2552 17.3776 69.2552 17.5083Z" fill="#231F20"/>
<path d="M71.0729 18.52C71.0729 18.7814 70.9969 19.0054 70.8462 19.1747C70.6982 19.3427 70.4916 19.4187 70.2289 19.4187H70.2116V19.2694H70.2289C70.3409 19.2694 70.4169 19.2494 70.5102 19.1934C70.5862 19.156 70.6409 19.1 70.6982 19.044C70.7342 18.9694 70.7729 18.8934 70.7916 18.8C70.8276 18.7067 70.8276 18.612 70.8276 18.52C70.8276 18.4067 70.8276 18.3134 70.8102 18.2187C70.7729 18.1267 70.7342 18.0507 70.6982 17.9774C70.6409 17.9014 70.5862 17.8454 70.4916 17.808C70.4169 17.752 70.3236 17.7334 70.2116 17.7334V17.584C70.4916 17.584 70.6982 17.6774 70.8462 17.8454C70.9969 18.0134 71.0729 18.2387 71.0729 18.52ZM70.2116 19.4187C69.9689 19.4187 69.7609 19.3427 69.6116 19.1934C69.4422 19.0254 69.3702 18.8 69.3702 18.52C69.3702 18.388 69.3876 18.276 69.4249 18.1627C69.4609 18.0507 69.4996 17.9574 69.5756 17.864C69.6489 17.7894 69.7422 17.7147 69.8356 17.6587C69.9476 17.6027 70.0809 17.584 70.2116 17.584V17.7334C70.0996 17.7334 70.0049 17.752 69.9302 17.7894C69.8542 17.8454 69.7996 17.9014 69.7422 17.9774C69.6876 18.0334 69.6689 18.1267 69.6302 18.2187C69.6116 18.3134 69.6116 18.4067 69.6116 18.52C69.6116 18.612 69.6116 18.7067 69.6302 18.8C69.6689 18.8934 69.7062 18.9694 69.7422 19.044C69.7996 19.1187 69.8542 19.156 69.9302 19.1934C70.0236 19.2307 70.1169 19.2694 70.2116 19.2694V19.4187Z" fill="#231F20"/>
<path d="M71.5959 19.3987H71.3719V16.816H71.5959V19.3987Z" fill="#231F20"/>
<path d="M73.2995 19.3805H73.0755V19.1552C72.9995 19.2312 72.9248 19.3045 72.8301 19.3605C72.7755 19.3805 72.7008 19.3992 72.6061 19.4179V19.2685C72.6248 19.2685 72.6461 19.2485 72.6635 19.2485C72.7008 19.2485 72.7581 19.2125 72.8128 19.1925C72.8515 19.1752 72.9061 19.1365 72.9448 19.0992C72.9821 19.0432 73.0181 19.0059 73.0368 18.9499C73.0568 18.9112 73.0568 18.8939 73.0568 18.8552C73.0755 18.8192 73.0755 18.7819 73.0755 18.7432V18.5192H72.8301C72.7581 18.5192 72.6821 18.5192 72.6061 18.5379V18.3885H72.7581H72.9448H73.0755V18.1832C73.0755 18.1445 73.0755 18.1072 73.0568 18.0699C73.0568 18.0139 73.0368 17.9765 72.9995 17.9192C72.9821 17.8632 72.9248 17.8272 72.8701 17.7899C72.7941 17.7512 72.7181 17.7339 72.6248 17.7339H72.6061V17.5832H72.6461C72.8701 17.5832 73.0181 17.6392 73.1301 17.7512C73.2448 17.8632 73.2995 17.9952 73.2995 18.1632V19.3805ZM72.6061 19.4179C72.5515 19.4365 72.4768 19.4365 72.4008 19.4365C72.3435 19.4365 72.2888 19.4179 72.2315 19.3992C72.1595 19.3805 72.1195 19.3432 72.0648 19.3045C72.0261 19.2685 71.9901 19.2312 71.9528 19.1752C71.9328 19.1192 71.9141 19.0619 71.9141 18.9872C71.9141 18.8552 71.9528 18.7432 72.0448 18.6499C72.1195 18.5565 72.2141 18.4819 72.3261 18.4632C72.4008 18.4259 72.4768 18.4072 72.5515 18.4072C72.5701 18.4072 72.5888 18.3885 72.6061 18.3885V18.5379H72.5515C72.5128 18.5565 72.4581 18.5752 72.4195 18.5939C72.3648 18.6125 72.3261 18.6499 72.2888 18.6872C72.2528 18.7059 72.2141 18.7619 72.1768 18.7992C72.1595 18.8379 72.1595 18.8939 72.1595 18.9499C72.1595 19.0619 72.1955 19.1552 72.2715 19.2125C72.3435 19.2485 72.4195 19.2685 72.5315 19.2685H72.6061V19.4179ZM72.6061 17.7339C72.4941 17.7339 72.4008 17.7699 72.3261 17.8272C72.2528 17.8832 72.2141 17.9392 72.2141 18.0325H71.9715C71.9901 17.9192 72.0448 17.8272 72.1595 17.7339C72.2715 17.6392 72.4195 17.6019 72.6061 17.5832V17.7339Z" fill="#231F20"/>
<path d="M74.7031 17.8075C74.6271 17.8075 74.5551 17.8075 74.4791 17.8449C74.3857 17.8635 74.3284 17.9009 74.2551 17.9395C74.1791 17.9769 74.1217 18.0329 74.0857 18.1075C74.0284 18.1635 73.9924 18.2569 73.9737 18.3502C73.9737 18.3889 73.9551 18.4449 73.9551 18.5009C73.9377 18.5382 73.9377 18.5942 73.9377 18.6689V19.3809H73.7297V17.6395H73.9377V18.0515C73.9737 17.9955 74.0097 17.9195 74.0857 17.8635C74.1431 17.8075 74.1977 17.7515 74.2551 17.7142C74.3097 17.6955 74.3671 17.6582 74.4431 17.6395C74.5151 17.6022 74.6097 17.5835 74.7031 17.5835V17.8075Z" fill="#231F20"/>
<path d="M77.9973 18.1072C77.9973 18.2765 77.9786 18.4445 77.924 18.6125C77.8853 18.7619 77.812 18.9125 77.7186 19.0432C77.6253 19.1552 77.5133 19.2685 77.3613 19.3245C77.2106 19.3992 77.044 19.4365 76.8386 19.4365V19.2485C76.9866 19.2485 77.12 19.2312 77.232 19.1752C77.3613 19.1192 77.456 19.0245 77.5306 18.9312C77.604 18.8192 77.6613 18.7059 77.6973 18.5565C77.7546 18.4259 77.7733 18.2565 77.7733 18.0885C77.7733 17.9392 77.7546 17.7899 77.7186 17.6392C77.6613 17.5085 77.604 17.3965 77.5306 17.2845C77.456 17.1712 77.3613 17.0965 77.2493 17.0405C77.1373 16.9659 76.9866 16.9472 76.8386 16.9285V16.7779C77.0253 16.7779 77.192 16.7979 77.344 16.8712C77.492 16.9472 77.604 17.0405 77.6973 17.1712C77.792 17.2845 77.8666 17.4339 77.924 17.5832C77.9786 17.7512 77.9973 17.9192 77.9973 18.1072ZM76.8386 19.4365C76.6506 19.4365 76.4813 19.3992 76.3333 19.3432C76.2 19.2685 76.0706 19.1752 75.976 19.0432C75.8826 18.9312 75.8066 18.7819 75.752 18.6325C75.7133 18.4632 75.6773 18.2952 75.6773 18.1072C75.6773 17.9192 75.7133 17.7512 75.752 17.6019C75.8066 17.4339 75.8826 17.3019 75.976 17.1712C76.0706 17.0592 76.2 16.9472 76.3333 16.8712C76.4813 16.8152 76.6506 16.7779 76.8386 16.7779V16.9285C76.7053 16.9285 76.5933 16.9659 76.4813 17.0219C76.3693 17.0792 76.276 17.1712 76.1826 17.2645C76.1066 17.3779 76.0333 17.4899 75.976 17.6392C75.94 17.7699 75.9013 17.9192 75.9013 18.0885C75.9013 18.2565 75.9186 18.4072 75.976 18.5379C76.0133 18.6885 76.0706 18.8005 76.1453 18.9125C76.2213 19.0245 76.3333 19.0992 76.4453 19.1552C76.5573 19.2312 76.688 19.2485 76.8386 19.2485V19.4365Z" fill="#231F20"/>
<path d="M79.7578 18.1071H79.5152C79.5152 17.9951 79.4765 17.9018 79.4032 17.8458C79.3098 17.7698 79.1952 17.7338 79.0285 17.7338C78.8592 17.7338 78.7112 17.7898 78.5965 17.9018C78.4658 18.0324 78.4112 18.1831 78.4112 18.4071C78.4112 18.4631 78.4298 18.5204 78.4298 18.5938C78.4485 18.6698 78.4658 18.7444 78.4845 18.8191C78.5232 18.8751 78.5605 18.9498 78.6178 19.0244C78.6725 19.0804 78.7472 19.1364 78.8232 19.1924C78.8592 19.2124 78.8965 19.2124 78.9712 19.2311C79.0285 19.2484 79.1045 19.2484 79.1765 19.2684C79.2525 19.2684 79.3458 19.2484 79.4218 19.2484C79.5152 19.2311 79.5885 19.1924 79.6818 19.1551V19.3044C79.5698 19.3431 79.4578 19.3804 79.3458 19.3991C79.2338 19.4178 79.1218 19.4178 79.0098 19.3991C78.8965 19.3991 78.8045 19.3604 78.6898 19.3244C78.5965 19.2871 78.5232 19.2311 78.4658 19.1751C78.3912 19.0991 78.3178 18.9871 78.2605 18.8751C78.2245 18.7618 78.1845 18.6124 78.1845 18.4631C78.1845 18.3324 78.2032 18.2191 78.2418 18.1071C78.2792 17.9951 78.3365 17.9018 78.4112 17.8271C78.4845 17.7511 78.5778 17.6951 78.6898 17.6578C78.7845 17.6018 78.9165 17.5831 79.0472 17.5831C79.1405 17.5831 79.2165 17.6018 79.3098 17.6218C79.3832 17.6391 79.4578 17.6578 79.5338 17.7138C79.5885 17.7511 79.6458 17.8071 79.6818 17.8631C79.7218 17.9391 79.7392 18.0138 79.7578 18.1071Z" fill="#231F20"/>
<path d="M81.4426 18.3884V18.5004H80.656V18.3511H81.2V18.1444C81.18 18.0697 81.1613 17.9951 81.1253 17.9391C81.088 17.8631 81.0133 17.8271 80.956 17.7897C80.88 17.7511 80.8066 17.7337 80.732 17.7337H80.656V17.5831H80.7493C80.8613 17.5831 80.9733 17.6217 81.068 17.6577C81.18 17.7137 81.2546 17.7897 81.312 17.8831C81.3666 17.9577 81.388 18.0324 81.4066 18.1271C81.424 18.2191 81.4426 18.2951 81.4426 18.3884ZM80.656 19.2311C80.7133 19.2497 80.7866 19.2497 80.8613 19.2684C80.9373 19.2684 81.0306 19.2497 81.1253 19.2497C81.2 19.2311 81.2946 19.1937 81.3666 19.1551V19.3044C81.2733 19.3431 81.1613 19.3804 81.0493 19.3991C80.9186 19.4177 80.8066 19.4177 80.7133 19.4177C80.6946 19.3991 80.6746 19.3991 80.656 19.3991V19.2311ZM80.656 18.5004H80.1146C80.1146 18.6324 80.1506 18.7444 80.208 18.8751C80.2626 18.9871 80.3573 19.0991 80.5266 19.1937C80.544 19.2124 80.6013 19.2124 80.656 19.2311V19.3991C80.5626 19.3991 80.4693 19.3604 80.396 19.3244C80.3026 19.2871 80.2266 19.2497 80.1693 19.1751C80.076 19.0991 80.0213 19.0057 79.964 18.8751C79.9093 18.7617 79.8693 18.6324 79.8693 18.4631C79.8693 18.2004 79.964 17.9951 80.1146 17.8271C80.2453 17.6951 80.4146 17.6017 80.656 17.5831V17.7337C80.5266 17.7511 80.396 17.8071 80.3026 17.8831C80.188 17.9951 80.1146 18.1444 80.1146 18.3511H80.656V18.5004Z" fill="#231F20"/>
<path d="M82.9791 19.3805H82.7525V19.1552C82.6978 19.2312 82.6218 19.3045 82.5285 19.3605C82.4525 19.3805 82.3978 19.3992 82.3045 19.4179V19.2685C82.3231 19.2685 82.3405 19.2485 82.3405 19.2485C82.3978 19.2485 82.4525 19.2125 82.4925 19.1925C82.5471 19.1752 82.5858 19.1365 82.6405 19.0992C82.6791 19.0432 82.7165 19.0059 82.7338 18.9499C82.7338 18.9112 82.7525 18.8939 82.7525 18.8552C82.7525 18.8192 82.7711 18.7819 82.7711 18.7432V18.5192H82.5098C82.4525 18.5192 82.3805 18.5192 82.3045 18.5379V18.3885H82.4525H82.6218H82.7711V18.1832C82.7711 18.1445 82.7711 18.1072 82.7525 18.0699C82.7525 18.0139 82.7338 17.9765 82.6978 17.9192C82.6791 17.8632 82.6218 17.8272 82.5471 17.7899C82.4925 17.7512 82.4165 17.7339 82.3231 17.7339H82.3045V17.5832H82.3405C82.5471 17.5832 82.7165 17.6392 82.8285 17.7512C82.9218 17.8632 82.9791 17.9952 82.9791 18.1632V19.3805ZM82.3045 19.4179C82.2471 19.4365 82.1725 19.4365 82.0991 19.4365C82.0418 19.4365 81.9658 19.4179 81.9111 19.3992C81.8538 19.3805 81.7991 19.3432 81.7605 19.3045C81.7245 19.2685 81.6871 19.2312 81.6485 19.1752C81.6298 19.1192 81.6125 19.0619 81.6125 18.9872C81.6125 18.8552 81.6485 18.7432 81.7245 18.6499C81.8178 18.5565 81.9111 18.4819 82.0231 18.4632C82.0991 18.4259 82.1725 18.4072 82.2471 18.4072C82.2658 18.4072 82.2858 18.3885 82.3045 18.3885V18.5379H82.2471C82.1925 18.5565 82.1538 18.5752 82.0991 18.5939C82.0605 18.6125 82.0058 18.6499 81.9658 18.6872C81.9298 18.7059 81.9111 18.7619 81.8725 18.7992C81.8538 18.8379 81.8365 18.8939 81.8365 18.9499C81.8365 19.0619 81.8725 19.1552 81.9485 19.2125C82.0231 19.2485 82.1178 19.2685 82.2111 19.2685H82.3045V19.4179ZM82.3045 17.7339C82.1725 17.7339 82.0805 17.7699 82.0231 17.8272C81.9485 17.8832 81.9111 17.9392 81.9111 18.0325H81.6671C81.6671 17.9192 81.7418 17.8272 81.8538 17.7339C81.9485 17.6392 82.1178 17.6019 82.3045 17.5832V17.7339Z" fill="#231F20"/>
<path d="M84.8125 19.3806H84.6072V18.4073V18.2006C84.5885 18.1273 84.5885 18.0513 84.5498 17.9953C84.5312 17.9193 84.4952 17.8833 84.4378 17.8459C84.3832 17.8073 84.3072 17.7699 84.2138 17.7699C84.0832 17.7699 83.9712 17.8273 83.8778 17.9393C83.7632 18.0513 83.6898 18.2006 83.6512 18.3886C83.6325 18.4446 83.6325 18.5006 83.6152 18.5379V18.6699V19.3806H83.4085V17.6393H83.6152V18.0513C83.6325 17.9953 83.6512 17.9579 83.6898 17.9019C83.7272 17.8459 83.7632 17.7899 83.8205 17.7513C83.8778 17.7139 83.9512 17.6779 84.0258 17.6393C84.1018 17.6019 84.1765 17.5833 84.2885 17.5833C84.4378 17.5833 84.5498 17.6393 84.6645 17.7339C84.7552 17.8073 84.8125 17.9393 84.8125 18.1273V19.3806Z" fill="#231F20"/>
<path d="M87.5651 17.0029H86.4224V17.9389H87.5077V18.1269H86.4224V19.3989H86.1984V16.8149H87.5651V17.0029Z" fill="#231F20"/>
<path d="M89.3437 18.52C89.3437 18.7814 89.2677 19.0054 89.1171 19.1747C88.9691 19.3427 88.7624 19.4187 88.4824 19.4187V19.2694H88.4997C88.5944 19.2694 88.6877 19.2494 88.7624 19.1934C88.8384 19.156 88.9117 19.1 88.9504 19.044C89.0051 18.9694 89.0437 18.8934 89.0624 18.8C89.0811 18.7067 89.0984 18.612 89.0984 18.52C89.0984 18.4067 89.0811 18.3134 89.0624 18.2187C89.0437 18.1267 89.0051 18.0507 88.9504 17.9774C88.9117 17.9014 88.8384 17.8454 88.7624 17.808C88.6877 17.752 88.5944 17.7334 88.4824 17.7334V17.584C88.7451 17.584 88.9504 17.6774 89.1171 17.8454C89.2677 18.0134 89.3437 18.2387 89.3437 18.52ZM88.4824 19.4187C88.2397 19.4187 88.0317 19.3427 87.8824 19.1934C87.7131 19.0254 87.6384 18.8 87.6384 18.52C87.6384 18.388 87.6584 18.276 87.6957 18.1627C87.7131 18.0507 87.7704 17.9574 87.8464 17.864C87.9197 17.7894 87.9944 17.7147 88.1064 17.6587C88.2184 17.6027 88.3304 17.584 88.4824 17.584V17.7334C88.3704 17.7334 88.2757 17.752 88.2011 17.7894C88.1251 17.8454 88.0517 17.9014 88.0131 17.9774C87.9584 18.0334 87.9197 18.1267 87.9011 18.2187C87.8824 18.3134 87.8651 18.4067 87.8651 18.52C87.8651 18.612 87.8824 18.7067 87.9011 18.8C87.9197 18.8934 87.9584 18.9694 88.0131 19.044C88.0704 19.1187 88.1251 19.156 88.2011 19.1934C88.2757 19.2307 88.3704 19.2694 88.4824 19.2694V19.4187Z" fill="#231F20"/>
<path d="M90.6355 17.8075C90.5595 17.8075 90.4848 17.8075 90.4088 17.8449C90.3155 17.8635 90.2608 17.9009 90.1848 17.9395C90.1088 17.9769 90.0542 18.0329 90.0155 18.1075C89.9608 18.1635 89.9222 18.2569 89.9035 18.3502C89.9035 18.3889 89.8862 18.4449 89.8862 18.5009C89.8675 18.5382 89.8675 18.5942 89.8675 18.6689V19.3809H89.6622V17.6395H89.8675V18.0515C89.9035 17.9955 89.9422 17.9195 90.0155 17.8635C90.0728 17.8075 90.1302 17.7515 90.1848 17.7142C90.2422 17.6955 90.2968 17.6582 90.3728 17.6395C90.4475 17.6022 90.5422 17.5835 90.6355 17.5835V17.8075Z" fill="#231F20"/>
<path d="M92.2812 19.3806H92.0572V18.95C91.9998 19.0993 91.9265 19.2126 91.8145 19.3046C91.6825 19.3806 91.5332 19.418 91.3465 19.418C91.2705 19.418 91.1958 19.418 91.1412 19.3806C91.0838 19.3606 91.0292 19.3246 90.9718 19.2686C90.9145 19.2313 90.8772 19.1753 90.8598 19.0993C90.8412 19.0433 90.8225 18.9686 90.8225 18.9113V17.622H91.0292V18.762C91.0292 18.8193 91.0292 18.8753 91.0465 18.9313C91.0465 18.9873 91.0652 19.0433 91.1012 19.0993C91.1412 19.1366 91.1772 19.1753 91.2345 19.2126C91.2892 19.2313 91.3652 19.2486 91.4585 19.2486C91.6065 19.2486 91.7398 19.1926 91.8332 19.0806C91.9265 18.9873 91.9998 18.838 92.0385 18.67C92.0385 18.6313 92.0385 18.5753 92.0572 18.5193V18.37V17.622H92.2812V19.3806Z" fill="#231F20"/>
<path d="M95.0912 19.3806H94.8832V18.3699V18.1833C94.8645 18.1073 94.8645 18.0326 94.8459 17.9766C94.8099 17.9193 94.7712 17.8633 94.7339 17.8273C94.6765 17.7899 94.6045 17.7699 94.5099 17.7699C94.3979 17.7699 94.3045 17.8273 94.2112 17.9579C94.1352 18.0699 94.0605 18.2193 94.0232 18.3886C94.0232 18.4446 94.0059 18.4819 94.0059 18.5379V18.6699V19.3806H93.7992V18.4073C93.7992 18.3326 93.7992 18.2766 93.7792 18.2006C93.7792 18.1273 93.7605 18.0513 93.7419 17.9953C93.7059 17.9193 93.6672 17.8833 93.6299 17.8273C93.5725 17.7899 93.4979 17.7699 93.4245 17.7699C93.3312 17.7699 93.2552 17.8073 93.1979 17.8633C93.1245 17.9193 93.0672 17.9953 93.0125 18.1073C92.9739 18.2006 92.9552 18.2766 92.9379 18.3699C92.9192 18.4633 92.8979 18.5566 92.8979 18.6699V19.3806H92.6925V17.6393H92.8979V17.7899V17.9193V18.0139V18.0513C92.9192 18.0139 92.9379 17.9579 92.9739 17.9019C92.9925 17.8633 93.0312 17.8073 93.0859 17.7699C93.1432 17.7139 93.1979 17.6779 93.2552 17.6393C93.3312 17.6019 93.4059 17.6019 93.4792 17.6019C93.6125 17.6019 93.7245 17.6393 93.7992 17.7139C93.8912 17.7899 93.9485 17.8833 93.9845 18.0139C93.9845 17.9766 94.0059 17.9393 94.0419 17.9019C94.0605 17.8459 94.0992 17.8073 94.1539 17.7699C94.2112 17.7139 94.2659 17.6779 94.3419 17.6393C94.4165 17.6019 94.4899 17.6019 94.5832 17.6019C94.7339 17.6019 94.8459 17.6393 94.9405 17.7339C95.0525 17.8459 95.0912 17.9766 95.0912 18.1273V19.3806Z" fill="#231F20"/>
<path d="M0.881445 18.4104L0.666779 16.8931L1.06011 16.8371L1.20678 17.8757L1.93211 17.7717L1.79611 16.8051L2.18945 16.7491L2.32545 17.7157L3.44011 17.5584L3.50811 18.0384L0.881445 18.4104Z" fill="#696767"/>
<path d="M2.71292 14.5654C2.94092 14.5667 3.13025 14.56 3.28759 14.5534L3.28492 14.98L2.99292 15V15.008C3.13025 15.092 3.32492 15.2827 3.32358 15.6254C3.32092 15.976 3.10892 16.2934 2.48359 16.288L1.35692 16.2787L1.36092 15.7947L2.40492 15.8027C2.72359 15.8054 2.92892 15.704 2.93025 15.448C2.93158 15.256 2.79559 15.1294 2.67292 15.0774C2.63025 15.06 2.57958 15.048 2.52358 15.048L1.36625 15.0387L1.37025 14.5547L2.71292 14.5654Z" fill="#696767"/>
<path d="M0.988266 13.2374L1.5296 13.316L1.59627 12.86L1.9536 12.9107L1.88827 13.368L2.72693 13.4867C2.95627 13.52 3.0856 13.476 3.11227 13.292C3.12427 13.2094 3.1216 13.1467 3.11627 13.1014L3.48427 13.1467C3.50027 13.22 3.5016 13.348 3.48027 13.5C3.45493 13.676 3.37493 13.816 3.2656 13.8907C3.1416 13.9774 2.96293 13.9987 2.7136 13.9627L1.8216 13.8347L1.7816 14.1067L1.42427 14.056L1.46293 13.7827L1.03493 13.7214L0.988266 13.2374Z" fill="#696767"/>
<path d="M3.45119 11.0458C3.67119 11.1085 3.85519 11.1525 4.00853 11.1872L3.89253 11.5978L3.60586 11.5405L3.60319 11.5472C3.71253 11.6658 3.84986 11.9018 3.75653 12.2312C3.66053 12.5672 3.37253 12.8165 2.76986 12.6445L1.68719 12.3365L1.82053 11.8712L2.82319 12.1565C3.12986 12.2432 3.35519 12.2018 3.42586 11.9565C3.47919 11.7698 3.38053 11.6112 3.27786 11.5285C3.23919 11.5018 3.19386 11.4752 3.14053 11.4618L2.02719 11.1432L2.16053 10.6778L3.45119 11.0458Z" fill="#696767"/>
<path d="M2.98759 10.2816C2.75026 10.1776 2.57826 10.107 2.41559 10.0483L2.58359 9.66165L2.92625 9.79498L2.93159 9.78031C2.72092 9.58565 2.68492 9.32431 2.76626 9.13631C2.78626 9.09365 2.80092 9.06965 2.82359 9.03631L3.24226 9.22031C3.21825 9.25231 3.19425 9.28965 3.17026 9.34298C3.07692 9.55631 3.15159 9.76031 3.33292 9.88698C3.36892 9.91231 3.41292 9.93898 3.46359 9.96165L4.37292 10.3603L4.17825 10.803L2.98759 10.2816Z" fill="#696767"/>
<path d="M4.16663 8.91178C4.47063 9.07845 4.73863 8.92111 4.89463 8.65845C5.0093 8.46511 5.0653 8.30911 5.09197 8.15711L5.41597 8.26645C5.3893 8.44245 5.31597 8.66511 5.17597 8.90245C4.8573 9.43711 4.34263 9.55578 3.8373 9.25711C3.3813 8.98511 3.11597 8.45178 3.43063 7.92378C3.74797 7.38911 4.2933 7.47445 4.65463 7.69045C4.7333 7.73711 4.7893 7.77978 4.82263 7.80778L4.16663 8.91178ZM4.30663 8.01445C4.15597 7.91978 3.8653 7.83845 3.69997 8.11711C3.54797 8.37445 3.7173 8.62111 3.87597 8.73845L4.30663 8.01445Z" fill="#696767"/>
<path d="M6.71743 5.36694C7.23209 5.8496 7.12143 6.42694 6.78809 6.78294C6.41609 7.17894 5.85743 7.22827 5.41076 6.80694C4.95076 6.37627 4.95209 5.81094 5.34809 5.38827C5.73876 4.97227 6.29209 4.96827 6.71743 5.36694ZM5.74409 6.43494C6.01343 6.68827 6.34143 6.74694 6.54276 6.53227C6.73209 6.33094 6.66543 6.00427 6.38409 5.74027C6.16543 5.53494 5.82409 5.39894 5.59876 5.64027C5.36409 5.8896 5.51076 6.21627 5.74409 6.43494Z" fill="#696767"/>
<path d="M7.72848 5.81348L6.74048 4.61214L6.53915 4.77748L6.30981 4.49748L6.50981 4.33214L6.45781 4.26814C6.30048 4.07748 6.19381 3.84281 6.22181 3.61614C6.24581 3.42281 6.36315 3.26014 6.48981 3.15614C6.58981 3.07348 6.68181 3.02414 6.76048 2.99481L6.97115 3.30681C6.91915 3.32281 6.85648 3.35348 6.78981 3.40814C6.60448 3.56148 6.66848 3.76948 6.81781 3.95214L6.88048 4.02814L7.20581 3.75881L7.43648 4.03881L7.11381 4.30414L8.10181 5.50548L7.72848 5.81348Z" fill="#696767"/>
<path d="M7.99799 2.35661C8.13532 2.24594 8.33399 2.10994 8.62199 1.95394C8.93265 1.78461 9.19665 1.72594 9.41399 1.76994C9.61399 1.80727 9.80332 1.94194 9.92199 2.16061C10.0433 2.38194 10.074 2.60194 10.01 2.79794C9.93265 3.05927 9.70999 3.28461 9.40999 3.44861C9.32999 3.49127 9.25532 3.52727 9.19399 3.54727L9.67265 4.42594L9.25132 4.65527L7.99799 2.35661ZM9.01132 3.21261C9.07132 3.19794 9.14199 3.16327 9.22865 3.11661C9.54599 2.94327 9.65532 2.68194 9.50599 2.40994C9.36465 2.14994 9.10999 2.10861 8.81665 2.26994C8.69799 2.33394 8.62065 2.38861 8.58199 2.42461L9.01132 3.21261Z" fill="#00ADEF"/>
<path d="M12.3932 2.19831C12.6292 2.86231 12.2678 3.32497 11.8078 3.48897C11.2958 3.67031 10.7772 3.45831 10.5705 2.87964C10.3598 2.28631 10.6198 1.78364 11.1652 1.59031C11.7038 1.39831 12.1985 1.64897 12.3932 2.19831ZM11.0385 2.70097C11.1625 3.05031 11.4265 3.25297 11.7052 3.15297C11.9652 3.06097 12.0558 2.74097 11.9252 2.37697C11.8252 2.09431 11.5852 1.81697 11.2732 1.92764C10.9505 2.04231 10.9318 2.40097 11.0385 2.70097Z" fill="#00ADEF"/>
<path d="M12.4004 0.351177L12.875 0.24051L13.5137 2.96184L13.039 3.07251L12.4004 0.351177Z" fill="#00ADEF"/>
<path d="M15.0287 2.73799L14.9727 2.52999L14.962 2.53132C14.862 2.69399 14.674 2.82199 14.4273 2.84999C14.0433 2.89399 13.7967 2.64065 13.7647 2.34999C13.71 1.86999 14.1087 1.57799 14.8127 1.50199L14.81 1.47132C14.7953 1.34599 14.722 1.14465 14.3847 1.18199C14.1967 1.20465 14.0087 1.28465 13.8887 1.38065L13.7593 1.07932C13.89 0.976653 14.1273 0.86732 14.4287 0.832653C15.0393 0.764653 15.258 1.13132 15.306 1.54599L15.3847 2.23399C15.4033 2.40599 15.43 2.57399 15.4633 2.68865L15.0287 2.73799ZM14.8607 1.81399C14.5193 1.84465 14.2033 1.95665 14.2353 2.24599C14.2567 2.43265 14.3887 2.50599 14.5407 2.48865C14.7327 2.46599 14.8593 2.32465 14.8873 2.18332C14.894 2.14732 14.894 2.10732 14.89 2.07665L14.8607 1.81399Z" fill="#00ADEF"/>
</g>
<mask id="mask3_1_18594" style="mask-type:luminance" maskUnits="userSpaceOnUse" x="0" y="0" width="117" height="20">
<path d="M0.666626 19.7827H116.735V0.240051H0.666626V19.7827Z" fill="white"/>
</mask>
<g mask="url(#mask3_1_18594)">
<path d="M15.8841 1.3912C15.8868 1.1312 15.8854 0.945867 15.8774 0.772533L16.2988 0.7792L16.3081 1.14453H16.3241C16.4228 0.8752 16.6494 0.740533 16.8534 0.7432C16.9014 0.7432 16.9281 0.748533 16.9668 0.756533L16.9614 1.21253C16.9214 1.20453 16.8788 1.19653 16.8201 1.1952C16.5881 1.19253 16.4281 1.3392 16.3828 1.5552C16.3734 1.5992 16.3654 1.64987 16.3641 1.70453L16.3508 2.69653L15.8668 2.68987L15.8841 1.3912Z" fill="#00ADEF"/>
<path d="M20.565 1.99665C20.3624 2.86332 19.721 3.23532 19.0077 3.06732C18.2797 2.89665 17.9504 2.23398 18.1277 1.47398C18.313 0.68065 18.9424 0.237984 19.6717 0.408651C20.4264 0.584651 20.737 1.26065 20.565 1.99665ZM18.6277 1.58332C18.505 2.10865 18.6717 2.58865 19.1237 2.69398C19.5797 2.80198 19.9357 2.44065 20.0624 1.89932C20.1757 1.41265 20.0424 0.895317 19.5704 0.785984C19.1024 0.675317 18.753 1.05132 18.6277 1.58332Z" fill="#00ADEF"/>
</g>
<mask id="mask4_1_18594" style="mask-type:luminance" maskUnits="userSpaceOnUse" x="-602" y="-252" width="1323" height="522">
<path d="M-602 -252H720.84V269.573H-602V-252Z" fill="white"/>
</mask>
<g mask="url(#mask4_1_18594)">
<path d="M21.8385 3.94692C21.7252 3.95092 21.5212 3.92026 21.2999 3.82692C20.7479 3.59492 20.5359 3.09226 20.7665 2.54426C20.9905 2.01359 21.5279 1.75226 22.1479 2.01492C22.3105 2.08292 22.4625 2.18959 22.5439 2.28026L22.3239 2.58026C22.2652 2.51626 22.1745 2.43626 22.0159 2.36826C21.6745 2.22426 21.3665 2.39092 21.2332 2.71492C21.0812 3.07759 21.2292 3.38426 21.5345 3.51226C21.6905 3.57759 21.8132 3.59092 21.9159 3.59092L21.8385 3.94692Z" fill="#00ADEF"/>
<path d="M22.7389 3.57635C22.5722 3.88035 22.7296 4.14835 22.9936 4.30435C23.1869 4.41902 23.3416 4.47502 23.4949 4.50168L23.3842 4.82568C23.2096 4.79902 22.9869 4.72568 22.7496 4.58568C22.2136 4.26835 22.0949 3.75235 22.3936 3.24835C22.6656 2.79102 23.1989 2.52568 23.7269 2.83902C24.2616 3.15768 24.1762 3.70168 23.9616 4.06435C23.9149 4.14168 23.8722 4.19902 23.8429 4.23235L22.7389 3.57635ZM23.6362 3.71502C23.7309 3.56568 23.8109 3.27502 23.5336 3.10968C23.2762 2.95768 23.0296 3.12702 22.9122 3.28568L23.6362 3.71502Z" fill="#00ADEF"/>
<path d="M24.5072 5.80701L24.6178 5.62167L24.6085 5.61501C24.4218 5.65634 24.1992 5.61234 24.0072 5.45501C23.7072 5.21101 23.7165 4.85767 23.9005 4.63234C24.2072 4.25634 24.6938 4.33767 25.2405 4.78967L25.2605 4.76434C25.3405 4.66834 25.4325 4.47367 25.1698 4.25901C25.0232 4.14034 24.8338 4.06034 24.6805 4.04301L24.8072 3.73901C24.9712 3.76167 25.2152 3.85501 25.4512 4.04567C25.9258 4.43367 25.8178 4.84834 25.5538 5.17101L25.1165 5.70834C25.0058 5.84301 24.9045 5.97901 24.8458 6.08301L24.5072 5.80701ZM25.0512 5.04034C24.7898 4.81767 24.4898 4.66967 24.3058 4.89501C24.1858 5.04167 24.2258 5.18567 24.3445 5.28301C24.4938 5.40567 24.6832 5.39767 24.8045 5.31767C24.8365 5.29767 24.8645 5.26967 24.8845 5.24567L25.0512 5.04034Z" fill="#00ADEF"/>
<path d="M26.1328 5.44643C26.2968 5.29976 26.4328 5.17309 26.5475 5.05443L26.8315 5.37043L26.6328 5.58109L26.6408 5.58909C26.8075 5.55176 27.0808 5.58509 27.2941 5.82376C27.5168 6.07309 27.5861 6.47576 27.1341 6.87976L26.2861 7.63843L25.9635 7.27709L26.7701 6.55576C26.9755 6.37176 27.0635 6.15709 26.8875 5.95976C26.7581 5.81576 26.5675 5.80776 26.4235 5.86643C26.3821 5.88376 26.3341 5.91976 26.2941 5.95709L25.4541 6.70776L25.1288 6.34376L26.1328 5.44643Z" fill="#00ADEF"/>
<path d="M29.291 7.33693L30.039 8.67293L29.6924 8.8676L29.1804 7.95293L28.5417 8.31027L29.0177 9.1636L28.671 9.35693L28.1937 8.50493L27.211 9.0556L26.975 8.63293L29.291 7.33693Z" fill="#696767"/>
<path d="M29.3873 11.5538C28.7273 11.8031 28.258 11.4498 28.086 10.9924C27.894 10.4844 28.0967 9.96176 28.6713 9.74576C29.2607 9.5231 29.7673 9.77376 29.9713 10.3138C30.1727 10.8484 29.9327 11.3484 29.3873 11.5538ZM28.8593 10.2084C28.5127 10.3391 28.314 10.6071 28.4193 10.8831C28.5167 11.1404 28.838 11.2258 29.1993 11.0898C29.4793 10.9831 29.7527 10.7378 29.6367 10.4284C29.5153 10.1071 29.1567 10.0964 28.8593 10.2084Z" fill="#696767"/>
<path d="M29.7922 11.9053C30.0456 11.8466 30.2242 11.8 30.3909 11.7493L30.4869 12.1586L30.1336 12.2586L30.1376 12.2733C30.4242 12.304 30.6082 12.4906 30.6549 12.6906C30.6669 12.736 30.6696 12.764 30.6709 12.804L30.2256 12.908C30.2242 12.868 30.2216 12.824 30.2082 12.7666C30.1549 12.5413 29.9736 12.4213 29.7536 12.4293C29.7096 12.4306 29.6576 12.4333 29.6042 12.4466L28.6376 12.6733L28.5269 12.2026L29.7922 11.9053Z" fill="#696767"/>
<path d="M29.5598 15.1434C29.3332 15.1648 29.1452 15.1901 28.9892 15.2141L28.9492 14.7888L29.2372 14.7381L29.2358 14.7301C29.0905 14.6621 28.8772 14.4928 28.8452 14.1514C28.8118 13.8021 28.9905 13.4648 29.6132 13.4061L30.7345 13.2994L30.7798 13.7821L29.7412 13.8808C29.4238 13.9101 29.2292 14.0314 29.2545 14.2861C29.2718 14.4781 29.4212 14.5914 29.5465 14.6301C29.5918 14.6421 29.6438 14.6488 29.6985 14.6434L30.8505 14.5354L30.8958 15.0168L29.5598 15.1434Z" fill="#696767"/>
<path d="M30.3789 15.7465C30.5989 15.7718 30.7829 15.7878 30.9483 15.7958L30.9016 16.2105L30.6176 16.1972L30.6149 16.2092C30.7536 16.3198 30.9096 16.5118 30.8736 16.8318C30.8443 17.0838 30.6816 17.2638 30.4616 17.3212L30.4603 17.3292C30.5576 17.4065 30.6283 17.4945 30.6723 17.5905C30.7349 17.7052 30.7589 17.8305 30.7416 17.9878C30.7056 18.3038 30.4536 18.6012 29.8429 18.5305L28.7203 18.4025L28.7749 17.9332L29.8269 18.0518C30.1429 18.0892 30.3443 18.0012 30.3696 17.7705C30.3883 17.6065 30.2856 17.4718 30.1549 17.4052C30.1083 17.3865 30.0509 17.3692 29.9963 17.3625L28.8536 17.2318L28.9083 16.7638L30.0109 16.8892C30.2763 16.9198 30.4763 16.8345 30.5016 16.6118C30.5229 16.4332 30.3963 16.2945 30.2683 16.2372C30.2229 16.2132 30.1696 16.1985 30.1149 16.1918L28.9883 16.0625L29.0416 15.5945L30.3789 15.7465Z" fill="#696767"/>
</g>
<mask id="mask5_1_18594" style="mask-type:luminance" maskUnits="userSpaceOnUse" x="0" y="0" width="117" height="20">
<path d="M0.666626 19.7827H116.735V0.240051H0.666626V19.7827Z" fill="white"/>
</mask>
<g mask="url(#mask5_1_18594)">
<path d="M18.7311 17.6568C18.7311 17.6568 17.1938 18.1222 17.6764 18.3342C18.0164 18.4835 18.3724 18.1755 18.1911 18.4368C17.9738 18.7475 18.3058 18.7302 18.7311 18.5955C19.1564 18.4622 18.4964 19.2635 19.1378 18.9262C19.7791 18.5862 20.1938 18.3542 20.1938 18.3542C20.1938 18.3542 20.4511 17.2248 18.7311 17.6568Z" fill="#231F20"/>
<path d="M21.6992 18.2984C21.6992 18.2984 20.1619 18.7638 20.6432 18.9758C20.9845 19.1238 21.3405 18.8158 21.1579 19.0771C20.9405 19.3878 21.2739 19.3718 21.6992 19.2371C22.1245 19.1038 21.4645 19.9051 22.1059 19.5664C22.7472 19.2278 24.1939 18.2838 24.1939 18.2838C24.1939 18.2838 25.4592 17.3638 21.6992 18.2984Z" fill="#231F20"/>
<path d="M18.2962 10.4443C18.2962 10.4443 17.0149 9.97899 16.4789 9.91899L15.7896 11.067C15.7896 11.067 16.1962 11.191 16.4322 11.375C16.6696 11.559 17.1856 12.0603 17.9736 11.903L18.2962 10.4443Z" fill="#231F20"/>
<path d="M18.5416 11.1306C18.6242 10.3026 17.7122 10.7439 16.6669 11.2692C15.6216 11.7946 15.6122 11.1866 15.9429 10.8266C16.2749 10.4679 16.9936 9.16791 16.4962 8.53324C15.9989 7.89724 16.4416 7.78657 15.6949 6.51591C15.6949 6.51591 16.4696 5.96524 15.9029 5.55058C15.4202 5.19724 14.9309 5.91991 14.9309 5.91991C13.7922 5.48391 12.0189 5.85191 12.0189 5.85191C11.7696 5.50657 11.4656 5.11991 10.8029 5.50657C10.1389 5.89324 10.6509 6.63991 10.6509 6.63991C9.46157 8.36658 9.00557 10.9239 9.00557 10.9239C6.21357 11.8772 6.67091 15.2492 6.67091 15.2492C6.00691 15.3319 6.07624 15.8292 6.07624 15.8292C6.07624 15.8292 5.98557 15.5092 5.60557 15.5812C4.87357 15.7186 5.08157 16.7132 5.08157 16.7132C5.08157 16.7132 5.16424 18.8159 6.32424 19.5332C7.48557 20.2519 9.00557 18.9266 9.00557 18.9266C9.50291 19.4506 10.8296 19.2026 10.8296 19.2026C11.1896 19.5332 11.6589 19.2519 11.6589 19.2519C12.0456 19.6052 12.4882 19.2292 12.4882 19.2292C13.3456 19.3946 13.1242 18.5946 13.1242 18.5946C13.8989 18.6759 14.3136 18.4839 14.3136 18.4839C14.3136 18.4839 14.8376 18.9666 15.5842 18.9532C17.3016 18.9212 17.1869 17.0466 17.1322 16.6586C17.0762 16.2719 17.2149 15.6079 17.2149 15.6079C17.3802 14.8626 16.7456 14.5866 16.7456 14.5866C16.7722 14.1706 17.1869 13.8679 17.9882 13.5079C18.7909 13.1492 18.4589 11.9599 18.5416 11.1306Z" fill="white"/>
<path d="M18.6621 11.0981C18.7341 10.1754 17.4181 10.8514 17.0355 11.0367C16.8315 11.1327 15.9808 11.7021 15.8755 11.2661C15.8141 11.0101 16.1008 10.7754 16.2301 10.5887C16.4648 10.2501 16.6421 9.86075 16.7381 9.45941C16.7808 9.28075 16.7968 9.09541 16.7781 8.91141C16.7568 8.70741 16.6568 8.56208 16.5421 8.39941C16.3915 8.18475 16.3475 7.95275 16.3035 7.70075C16.2328 7.28874 16.0595 6.91408 15.8555 6.55274C15.8155 6.48208 15.7595 6.54208 15.8301 6.48608C15.8621 6.46208 15.8915 6.43541 15.9221 6.40875C16.0061 6.33275 16.0795 6.24608 16.1408 6.15141C16.3075 5.89541 16.2141 5.64075 15.9715 5.48075C15.5688 5.21275 15.0355 5.61675 14.8128 5.94075C14.8848 5.91808 14.9581 5.89541 15.0301 5.87275C14.1088 5.53275 12.9901 5.61141 12.0408 5.80608C12.0741 5.81141 12.1061 5.81541 12.1381 5.81941C11.9528 5.56208 11.7541 5.32875 11.4181 5.29675C11.1048 5.26608 10.6648 5.44875 10.4755 5.70075C10.2941 5.94341 10.3248 6.23675 10.4395 6.50341C10.4728 6.58208 10.5461 6.64075 10.4981 6.71141C10.3581 6.91541 10.2341 7.13008 10.1168 7.34741C9.5208 8.45141 9.1088 9.70875 8.88747 10.9447C8.9128 10.9287 8.93947 10.9114 8.9648 10.8967C7.79147 11.3061 6.99813 12.2181 6.68747 13.4101C6.53147 14.0061 6.4688 14.6687 6.55013 15.2821C6.59813 15.2554 6.6448 15.2301 6.6928 15.2047C6.35813 15.2541 5.9048 15.4461 5.95547 15.8621C6.0368 15.8407 6.1168 15.8194 6.19547 15.7967C6.11013 15.5207 5.79013 15.4847 5.5488 15.5541C5.2328 15.6447 5.0288 15.8421 4.95947 16.1674C4.8928 16.4807 4.96213 16.8661 5.0048 17.1834C5.10213 17.8861 5.31147 18.6114 5.7608 19.1714C6.30213 19.8487 7.12613 19.9021 7.89547 19.6274C8.33413 19.4727 8.76347 19.2221 9.11413 18.9167C9.0408 18.9327 8.96747 18.9501 8.8928 18.9661C9.35013 19.4207 10.2235 19.3541 10.8075 19.2461C10.7781 19.2447 10.7475 19.2434 10.7181 19.2421C11.0128 19.4887 11.4341 19.4407 11.7515 19.2554C11.6835 19.2687 11.6141 19.2807 11.5461 19.2927C11.8555 19.5487 12.3021 19.4647 12.5981 19.2207C12.5288 19.2381 12.4595 19.2581 12.3901 19.2767C12.6648 19.3234 13.0221 19.3141 13.1981 19.0607C13.2928 18.9261 13.2861 18.7141 13.2448 18.5621C13.1781 18.5887 13.1128 18.6167 13.0475 18.6434C13.4795 18.6847 13.9768 18.6834 14.3821 18.4994C14.3221 18.5087 14.2608 18.5154 14.1995 18.5234C14.7168 18.9927 15.5168 19.1194 16.1661 18.8967C16.7861 18.6834 17.1261 18.1701 17.2355 17.5421C17.2768 17.3047 17.2848 17.0634 17.2715 16.8234C17.2528 16.4914 17.2395 16.1807 17.2888 15.8461C17.3368 15.5181 17.4208 15.2181 17.2488 14.9074C17.1888 14.7967 17.0955 14.7034 16.9955 14.6274C16.8835 14.5434 16.8475 14.5754 16.8915 14.4181C16.9861 14.0767 17.3701 13.8687 17.6595 13.7154C17.9795 13.5461 18.3128 13.4541 18.5008 13.1207C18.6528 12.8487 18.6608 12.5034 18.6621 12.2007C18.6635 11.8341 18.6288 11.4647 18.6621 11.0981C18.6648 11.0661 18.4288 11.0901 18.4221 11.1634C18.3608 11.8314 18.6061 12.6874 18.1928 13.2741C18.0635 13.4581 17.8381 13.5261 17.6448 13.6207C17.4515 13.7141 17.2621 13.8194 17.0861 13.9447C16.8528 14.1087 16.6528 14.3234 16.6248 14.6181C16.6275 14.6221 16.6301 14.6247 16.6328 14.6261C16.7888 14.6967 16.9208 14.8287 17.0088 14.9714C17.1795 15.2461 17.1061 15.5474 17.0581 15.8447C17.0088 16.1527 16.9875 16.4567 17.0221 16.7674C17.0421 16.9554 17.0408 17.1434 17.0275 17.3327C16.9915 17.8607 16.8021 18.4221 16.3381 18.7234C15.7661 19.0927 14.9061 18.8781 14.4261 18.4421C14.3875 18.4074 14.2808 18.4501 14.2435 18.4661C13.9755 18.5887 13.5235 18.5741 13.2021 18.5447C13.1715 18.5407 12.9888 18.5701 13.0048 18.6261C13.0501 18.7981 13.0501 19.0181 12.9181 19.1541C12.7888 19.2887 12.5568 19.1247 12.3968 19.2261C12.1755 19.3661 11.9915 19.3914 11.7728 19.2114C11.7261 19.1727 11.6088 19.2247 11.5675 19.2474C11.4821 19.2967 11.3808 19.3154 11.2821 19.3127C11.1755 19.3101 11.0821 19.2621 10.9955 19.2047C10.9435 19.1701 10.9421 19.1474 10.8821 19.1527C10.7768 19.1621 10.6728 19.1834 10.5688 19.1941C10.0941 19.2381 9.4808 19.2434 9.11947 18.8847C9.07547 18.8407 8.93413 18.9034 8.8968 18.9341C8.4408 19.3301 7.83147 19.6634 7.22213 19.6967C6.2928 19.7474 5.73547 18.8741 5.4728 18.1021C5.31813 17.6501 5.2208 17.1594 5.2008 16.6807C5.19147 16.4647 5.15947 16.2727 5.21413 16.0541C5.25413 15.8901 5.3488 15.7341 5.50213 15.6527C5.68747 15.5567 5.8928 15.6794 5.95547 15.8594C5.95547 15.8594 5.95547 15.8607 5.95547 15.8621C5.9728 15.9154 6.20347 15.8554 6.19547 15.7967C6.16213 15.5167 6.3928 15.3327 6.6488 15.2941C6.6768 15.2901 6.7968 15.2647 6.79013 15.2181C6.71413 14.6447 6.77013 14.0367 6.8968 13.4767C7.16213 12.3141 7.90213 11.3514 9.04747 10.9527C9.06613 10.9461 9.1208 10.9261 9.1248 10.9034C9.21413 10.4061 9.34747 9.91541 9.49413 9.43275C9.7928 8.44875 10.1875 7.47275 10.7701 6.61808C10.7701 6.61541 10.7701 6.61141 10.7715 6.60741C10.6275 6.39408 10.5408 6.11008 10.6075 5.85541C10.6888 5.54741 11.0861 5.33941 11.3835 5.41808C11.6088 5.47808 11.7701 5.70608 11.8981 5.88341C11.9181 5.91141 11.9688 5.90341 11.9968 5.89675C12.9008 5.71008 13.9555 5.64208 14.8328 5.96608C14.8915 5.98741 15.0155 5.94875 15.0501 5.89941C15.1141 5.80475 15.1955 5.72208 15.2795 5.64741C15.3768 5.56075 15.4901 5.48741 15.6248 5.51275C15.7595 5.53808 15.8835 5.65408 15.9501 5.76741C16.1088 6.03808 15.8075 6.36341 15.6035 6.51141C15.5968 6.51541 15.5675 6.53408 15.5755 6.54741C15.7915 6.92075 15.9781 7.30741 16.0581 7.73408C16.1061 7.98608 16.1408 8.21141 16.2808 8.43141C16.3781 8.58475 16.4781 8.70475 16.5235 8.88608C16.5755 9.10341 16.5395 9.33941 16.4888 9.55275C16.3941 9.94875 16.2008 10.3314 15.9701 10.6647C15.8301 10.8647 15.6155 11.0381 15.6315 11.3074C15.6488 11.5781 16.0301 11.5327 16.2048 11.4901C16.7181 11.3607 17.1728 11.0474 17.6608 10.8501C17.8341 10.7807 18.0448 10.6887 18.2368 10.7314C18.4101 10.7687 18.4301 10.9687 18.4261 11.1141C18.4235 11.1301 18.4235 11.1461 18.4221 11.1634C18.4181 11.1981 18.6568 11.1714 18.6621 11.0981Z" fill="#231F20"/>
</g>
<mask id="mask6_1_18594" style="mask-type:luminance" maskUnits="userSpaceOnUse" x="-602" y="-252" width="1323" height="522">
<path d="M-602 -252H720.84V269.573H-602V-252Z" fill="white"/>
</mask>
<g mask="url(#mask6_1_18594)">
<path d="M8.88409 10.9313C8.70942 11.8033 8.58276 12.6873 8.48276 13.5713C8.32009 15.0153 8.17876 16.566 8.49742 17.998C8.57476 18.342 8.69209 18.6887 8.89609 18.9793C8.96409 19.0753 9.19076 18.978 9.11476 18.8713C8.77742 18.39 8.68142 17.7607 8.62009 17.1887C8.54009 16.4273 8.56142 15.654 8.60809 14.89C8.68542 13.65 8.85342 12.4127 9.07609 11.19C9.09342 11.0993 9.10942 11.0073 9.12809 10.9153C9.15342 10.7913 8.90676 10.8167 8.88409 10.9313Z" fill="#231F20"/>
<path d="M6.64972 15.2996C6.78838 15.2716 6.89772 15.4023 6.95105 15.509C6.98305 15.5743 7.16572 15.5076 7.18972 15.457C7.21372 15.409 7.24572 15.3636 7.28038 15.321C7.39905 15.1663 7.54305 15.1476 7.72305 15.2103C7.84572 15.2516 7.94305 15.3796 7.94572 15.509C7.94838 15.577 8.16305 15.4943 8.18572 15.457C8.22572 15.389 8.28172 15.329 8.37105 15.3436C8.42838 15.3543 8.64972 15.2583 8.52438 15.237C8.30172 15.1996 8.06438 15.2996 7.94705 15.4956C8.02705 15.4796 8.10705 15.4623 8.18572 15.445C8.18038 15.161 7.86038 15.069 7.62972 15.0623C7.34172 15.053 7.07638 15.2423 6.95238 15.4956C7.03238 15.4796 7.11238 15.4623 7.19105 15.445C7.09372 15.249 6.90705 15.1556 6.69105 15.1983C6.59238 15.217 6.48305 15.333 6.64972 15.2996Z" fill="#231F20"/>
<path d="M16.8184 14.52C16.5757 14.452 16.2904 14.5146 16.1424 14.728C16.2197 14.7173 16.2971 14.7093 16.3744 14.7C16.2677 14.0506 15.2531 14.1346 15.1597 14.7466L15.4011 14.7C15.3411 14.4213 15.0624 14.276 14.7944 14.2986C14.4397 14.3253 14.1544 14.556 14.1371 14.928C14.2144 14.9066 14.2917 14.8853 14.3691 14.8653C14.1037 14.5533 13.6824 14.52 13.3624 14.7693C13.1971 14.8986 13.1171 15.0666 13.1104 15.276C13.1037 15.448 13.1784 15.6013 13.1811 15.768C13.2024 16.7586 13.5637 17.772 14.2011 18.5306C14.2557 18.596 14.4864 18.5093 14.4251 18.436C13.8331 17.7333 13.5157 16.8413 13.4344 15.9333C13.4277 15.848 13.4224 15.7626 13.4211 15.6773C13.4184 15.528 13.3464 15.3613 13.3517 15.1986C13.3584 14.992 13.4784 14.84 13.6597 14.7533C13.8291 14.672 14.0424 14.8386 14.1464 14.96C14.1904 15.012 14.3744 14.9733 14.3771 14.8973C14.3891 14.656 14.5171 14.436 14.7837 14.436C14.9677 14.4346 15.1237 14.5906 15.1597 14.764C15.1784 14.848 15.3904 14.7866 15.4011 14.716C15.4411 14.4533 15.6744 14.2986 15.9317 14.4346C16.0451 14.4933 16.1144 14.6426 16.1344 14.764C16.1491 14.852 16.3384 14.776 16.3664 14.7346C16.4424 14.6253 16.5544 14.6186 16.6717 14.6533C16.7491 14.6733 16.9557 14.5586 16.8184 14.52Z" fill="#231F20"/>
<path d="M12.3502 15.6849C12.2876 15.9423 12.2369 16.2049 12.1942 16.4676C12.1396 16.8129 12.0609 17.2263 12.1649 17.5703C12.1956 17.6716 12.4356 17.6063 12.4049 17.5063C12.2996 17.1609 12.3889 16.7449 12.4449 16.3983C12.4849 16.1516 12.5342 15.9049 12.5929 15.6623C12.6182 15.5543 12.3742 15.5876 12.3502 15.6849Z" fill="#231F20"/>
<path d="M11.4356 17.6316C11.4449 17.629 11.4302 17.6316 11.4756 17.6236C11.5289 17.613 11.5836 17.605 11.6369 17.601C11.8156 17.5823 11.9969 17.5863 12.1729 17.621C12.6876 17.7196 12.9636 18.1196 13.0049 18.625C13.0089 18.6743 13.2502 18.629 13.2449 18.561C13.1982 17.9956 12.8662 17.609 12.3062 17.513C12.0156 17.4636 11.7009 17.4823 11.4142 17.5516C11.2716 17.5876 11.2942 17.665 11.4356 17.6316Z" fill="#231F20"/>
<path d="M6.87438 15.7568C6.87438 15.8661 6.76771 15.9541 6.63571 15.9541C6.50504 15.9541 6.39838 15.8661 6.39838 15.7568C6.39838 15.6488 6.50504 15.5608 6.63571 15.5608C6.76771 15.5608 6.87438 15.6488 6.87438 15.7568Z" fill="#231F20"/>
<path d="M13.9616 15.5017C13.8682 15.5577 13.7376 15.511 13.6696 15.3977C13.6029 15.2844 13.6242 15.147 13.7176 15.091C13.8109 15.035 13.9416 15.083 14.0096 15.1964C14.0762 15.3084 14.0549 15.4457 13.9616 15.5017Z" fill="#231F20"/>
<path d="M14.7728 15.2478C14.6648 15.2598 14.5661 15.1624 14.5528 15.0304C14.5408 14.8998 14.6168 14.7838 14.7248 14.7744C14.8328 14.7638 14.9315 14.8611 14.9448 14.9918C14.9581 15.1224 14.8821 15.2371 14.7728 15.2478Z" fill="#231F20"/>
<path d="M15.7174 15.2101C15.6108 15.1901 15.5428 15.0701 15.5668 14.9408C15.5894 14.8114 15.6961 14.7221 15.8028 14.7408C15.9108 14.7608 15.9774 14.8821 15.9534 15.0114C15.9308 15.1408 15.8254 15.2301 15.7174 15.2101Z" fill="#231F20"/>
<path d="M16.5885 15.4469C16.4805 15.4269 16.4139 15.3082 16.4365 15.1776C16.4605 15.0482 16.5659 14.9589 16.6725 14.9776C16.7805 14.9976 16.8485 15.1189 16.8245 15.2482C16.8019 15.3776 16.6952 15.4669 16.5885 15.4469Z" fill="#231F20"/>
<path d="M5.91011 16.2034C5.91011 16.3114 5.80345 16.3994 5.67145 16.3994C5.54078 16.3994 5.43411 16.3114 5.43411 16.2034C5.43411 16.0941 5.54078 16.0061 5.67145 16.0061C5.80345 16.0061 5.91011 16.0941 5.91011 16.2034Z" fill="#231F20"/>
<path d="M7.79746 15.6735C7.79746 15.7828 7.6908 15.8708 7.5588 15.8708C7.4268 15.8708 7.32013 15.7828 7.32013 15.6735C7.32013 15.5655 7.4268 15.4775 7.5588 15.4775C7.6908 15.4775 7.79746 15.5655 7.79746 15.6735Z" fill="#231F20"/>
<path d="M6.93093 16.422C6.93093 16.422 6.62293 16.382 6.4936 16.7793C6.40693 17.0473 6.20693 17.0753 6.1776 17.302C6.14693 17.5287 6.25226 17.802 7.1296 17.5833C8.05626 17.354 8.29226 16.7087 7.83626 16.6687C7.36026 16.626 7.16826 16.4007 6.93093 16.422Z" fill="#231F20"/>
<path d="M15.4114 15.7359C15.4114 15.7359 15.1408 15.5812 14.8714 15.8999C14.6888 16.1146 14.4941 16.0666 14.3808 16.2639C14.2661 16.4612 14.2514 16.8399 15.1554 16.8866C16.3888 16.9492 16.5234 16.2172 16.0781 16.1092C15.6541 16.0052 15.6394 15.8066 15.4114 15.7359Z" fill="#231F20"/>
<path d="M14.5235 8.83353C14.5235 8.83353 15.6221 8.37753 15.7461 8.61486C15.8715 8.85486 15.7155 9.34153 15.3635 9.45486C15.0115 9.56953 14.0048 9.13353 14.5235 8.83353Z" fill="#231F20"/>
<path d="M13.819 7.833C13.819 7.95566 13.7404 8.05566 13.643 8.05566C13.5457 8.05566 13.467 7.95566 13.467 7.833C13.467 7.71033 13.5457 7.61033 13.643 7.61033C13.7404 7.61033 13.819 7.71033 13.819 7.833Z" fill="#231F20"/>
<path d="M15.1354 7.65722C15.1354 7.77988 15.0568 7.87988 14.9594 7.87988C14.8621 7.87988 14.7821 7.77988 14.7821 7.65722C14.7821 7.53455 14.8621 7.43455 14.9594 7.43455C15.0568 7.43455 15.1354 7.53455 15.1354 7.65722Z" fill="#231F20"/>
<path d="M14.2649 9.98308C14.5983 10.1951 15.1983 10.3311 15.3996 9.87508C15.4196 9.82841 15.1903 9.85108 15.1609 9.91641C15.0716 10.1204 14.9249 10.0884 14.7436 10.0231C14.6556 9.99241 14.5703 9.94974 14.4903 9.89908C14.4316 9.85908 14.2249 9.95774 14.2649 9.98308Z" fill="#231F20"/>
<path d="M14.8866 6.00351C15.1546 6.09951 15.448 6.28218 15.5746 6.54751C15.6266 6.65684 15.8653 6.58751 15.8146 6.48218C15.664 6.16884 15.3466 5.95018 15.024 5.83551C14.9146 5.79684 14.7413 5.95151 14.8866 6.00351Z" fill="#231F20"/>
<path d="M18.3638 8.30484C18.3638 8.30484 18.3638 5.56884 20.6225 5.61017C22.8825 5.65151 23.6078 7.84884 23.7745 9.56884C23.9398 11.2888 24.3345 16.2035 25.5158 16.0995C25.5158 16.0995 24.9758 18.6835 21.8252 18.5942C18.6745 18.5035 16.5598 16.9075 18.1972 10.7715C18.1972 10.7715 18.3852 9.83817 18.3638 8.30484Z" fill="white"/>
<path d="M18.4837 8.27248C18.4851 7.40048 18.8291 6.34048 19.6197 5.88315C20.3557 5.45781 21.3931 5.67381 22.0624 6.13248C22.7331 6.59381 23.1264 7.35382 23.3651 8.11115C23.5784 8.78981 23.6437 9.49115 23.7104 10.1938C23.7811 10.9378 23.8597 11.6818 23.9624 12.4205C24.0691 13.1898 24.1971 13.9631 24.4091 14.7111C24.5371 15.1618 24.7051 15.7751 25.1104 16.0618C25.2144 16.1338 25.3397 16.1658 25.4664 16.1565C25.4424 16.1431 25.4197 16.1311 25.3971 16.1178C25.2291 16.9111 24.6411 17.6431 23.9611 18.0565C23.2304 18.5018 22.3664 18.5765 21.5291 18.5191C20.9531 18.4791 20.3784 18.3778 19.8411 18.1631C18.7371 17.7218 18.0824 16.7685 17.8571 15.6245C17.6957 14.8045 17.7344 13.9538 17.8357 13.1311C17.9011 12.5951 18.0037 12.0645 18.1224 11.5365C18.1944 11.2191 18.2957 10.9071 18.3451 10.5831C18.4651 9.82048 18.4917 9.04315 18.4837 8.27248C18.4837 8.21515 18.2424 8.25648 18.2437 8.33648C18.2531 9.14581 18.2291 9.96982 18.0824 10.7685C17.9971 11.2405 17.8491 11.7045 17.7571 12.1778C17.6584 12.6738 17.5851 13.1751 17.5424 13.6805C17.4344 14.9751 17.5371 16.4445 18.4504 17.4565C19.1957 18.2831 20.3437 18.5618 21.4131 18.6338C22.8437 18.7325 24.3077 18.3525 25.1557 17.1205C25.3677 16.8125 25.5571 16.4498 25.6344 16.0805C25.6424 16.0431 25.5904 16.0391 25.5651 16.0418C25.1304 16.0698 24.8931 15.3698 24.7811 15.0591C24.5291 14.3618 24.3984 13.6191 24.2824 12.8898C24.1584 12.1178 24.0704 11.3405 23.9931 10.5631C23.9264 9.89382 23.8864 9.22048 23.7411 8.56315C23.5731 7.79781 23.2704 7.03648 22.7411 6.44715C22.1864 5.82848 21.3904 5.54448 20.5691 5.55248C19.8997 5.55915 19.2651 5.84448 18.8557 6.37915C18.5304 6.80048 18.3651 7.33248 18.2864 7.85382C18.2611 8.01248 18.2437 8.17648 18.2437 8.33648C18.2437 8.39382 18.4837 8.35381 18.4837 8.27248Z" fill="#231F20"/>
<path d="M23.7741 9.56944C23.6075 7.84811 22.8835 5.65211 20.6235 5.60944C19.5488 5.59078 18.9848 6.20011 18.6901 6.84411C18.6901 6.84411 19.3381 6.14945 19.6075 7.02011C19.6075 7.02011 20.5195 5.81744 21.4941 7.02011C22.4688 8.22145 21.5728 8.76145 21.5728 8.76145C21.5728 8.76145 22.9248 9.02944 22.5301 10.9268C22.1368 12.8241 21.0381 14.1921 21.9288 16.0054C21.9288 16.0054 22.0128 16.1414 22.3648 15.7574C22.7168 15.3748 22.9861 15.1468 23.0488 14.3174C23.1101 13.4868 23.3595 12.5454 23.3595 12.5454C23.3595 12.5454 23.3181 13.6948 23.2555 14.1708C23.1941 14.6494 23.1528 15.0121 23.0701 15.2974C22.9861 15.5814 23.1261 17.3708 25.1915 16.8894C25.4421 16.4508 25.5155 16.0988 25.5155 16.0988C24.3341 16.2041 23.9408 11.2894 23.7741 9.56944Z" fill="#231F20"/>
<path d="M19.2812 7.61034C19.2812 7.73301 19.2025 7.83301 19.1052 7.83301C19.0079 7.83301 18.9292 7.73301 18.9292 7.61034C18.9292 7.48767 19.0079 7.38767 19.1052 7.38767C19.2025 7.38767 19.2812 7.48767 19.2812 7.61034Z" fill="#231F20"/>
<path d="M20.5501 7.65722C20.5501 7.77988 20.4714 7.87988 20.3741 7.87988C20.2768 7.87988 20.1981 7.77988 20.1981 7.65722C20.1981 7.53455 20.2768 7.43455 20.3741 7.43455C20.4714 7.43455 20.5501 7.53455 20.5501 7.65722Z" fill="#231F20"/>
<path d="M18.9291 8.15969C18.9291 8.15969 17.6851 8.76103 17.9331 8.88503C18.1824 9.00903 18.4304 8.92769 18.9291 9.01036C19.4264 9.09303 19.8824 8.98903 20.1931 8.88503C20.5037 8.78103 20.4011 8.72636 19.9864 8.54636C19.5717 8.36636 19.2011 8.02103 18.9291 8.15969Z" fill="#F78D11"/>
<path d="M18.9024 8.12324C18.5837 8.27791 18.2531 8.44191 17.9757 8.66458C17.5277 9.02324 18.4384 9.00858 18.6251 9.02058C18.8277 9.03391 19.0277 9.08191 19.2317 9.08324C19.4264 9.08591 19.6157 9.06724 19.8064 9.03258C19.9331 9.00991 20.4171 8.94991 20.4344 8.76458C20.4424 8.69391 20.3171 8.64324 20.2717 8.62058C20.0731 8.51658 19.8677 8.43391 19.6731 8.32191C19.4397 8.18991 19.1757 8.00991 18.9024 8.12324C18.8264 8.15524 18.8931 8.22191 18.9557 8.19524C19.2077 8.09124 19.5477 8.37791 19.7571 8.49124C19.8624 8.54991 19.9744 8.59658 20.0851 8.64591C20.1437 8.67258 20.2024 8.70058 20.2584 8.73391C20.3624 8.79258 20.2424 8.82191 20.1824 8.84324C19.9037 8.94058 19.6104 8.98858 19.3171 8.99524C19.0064 9.00191 18.6944 8.92858 18.3837 8.92058C18.3197 8.91791 17.9037 8.90191 17.9797 8.79658C18.0597 8.68191 18.2157 8.60191 18.3317 8.53124C18.5331 8.40858 18.7424 8.29791 18.9557 8.19524C19.0291 8.15924 18.9637 8.09391 18.9024 8.12324Z" fill="#231F20"/>
<path d="M18.9291 9.0099C18.9291 9.0099 19.4677 9.56723 19.9864 8.94723L20.1931 8.88457C20.1931 8.88457 19.7997 9.7139 19.4051 9.5899C19.0117 9.4659 18.9291 9.0099 18.9291 9.0099Z" fill="#F78D11"/>
<path d="M18.8737 9.03669C19.0164 9.18069 19.2124 9.27269 19.4137 9.28469C19.5524 9.29269 19.7071 9.24469 19.8177 9.16469C19.8764 9.12336 19.9724 8.99536 20.0297 8.97936C20.0884 8.96069 20.1457 8.94469 20.2044 8.92602L20.1364 8.87802C20.0257 9.10736 19.8764 9.34202 19.6711 9.49402C19.3577 9.72602 19.0417 9.26736 18.9884 8.99402C18.9777 8.93802 18.8577 8.96869 18.8697 9.02602C18.9311 9.34602 19.2297 9.72069 19.5897 9.63002C19.8991 9.55269 20.1231 9.15936 20.2511 8.89269C20.2711 8.85002 20.2111 8.83536 20.1817 8.84336C20.1137 8.86469 20.0431 8.88469 19.9751 8.90469C19.9337 8.91802 19.9097 8.95669 19.8831 8.98736C19.7977 9.08336 19.6884 9.14869 19.5671 9.18336C19.3657 9.24069 19.1244 9.12602 18.9844 8.98336C18.9457 8.94469 18.8311 8.99402 18.8737 9.03669Z" fill="#231F20"/>
</g>
</g>
<defs>
<clipPath id="clip0_1_18594">
<rect width="117" height="20" fill="white"/>
</clipPath>
</defs>
</svg>
