<svg width="224" height="31" viewBox="0 0 224 31" fill="none" xmlns="http://www.w3.org/2000/svg">
<g clip-path="url(#clip0_4_60)">
<rect width="224" height="31" fill="white" fill-opacity="0.95"/>
<g clip-path="url(#clip1_4_60)">
<path d="M283.539 103.776H-58.6667V-72.668H283.539V103.776Z" fill="white"/>
<mask id="mask0_4_60" style="mask-type:luminance" maskUnits="userSpaceOnUse" x="-112" y="-226" width="794" height="1123">
<path d="M-112 -226H681.7V896.52H-112V-226Z" fill="white"/>
</mask>
<g mask="url(#mask0_4_60)">
<path d="M92.1588 7.00438H94.6721C94.8361 7.00438 94.9668 6.88171 94.9668 6.72838V2.26705C94.9668 2.11238 94.8361 1.98571 94.6721 1.98571H91.1415C87.0601 1.98571 84.8935 3.21505 83.6588 5.82838L75.9815 23.5284C75.5148 24.5844 74.8428 25.0857 73.5201 25.0857V2.26705C73.5201 2.11238 73.3868 1.98571 73.2215 1.98571H67.5815C67.4175 1.98571 67.2815 2.11238 67.2815 2.26705V29.6124C67.2815 29.8844 67.5188 30.1057 67.8095 30.1057H74.1348C78.2161 30.1057 80.0828 28.875 81.3188 26.2697L88.8961 8.78971C89.5041 7.54971 90.3775 7.00438 92.1588 7.00438Z" fill="#D71921"/>
</g>
<mask id="mask1_4_60" style="mask-type:luminance" maskUnits="userSpaceOnUse" x="-112" y="-226" width="794" height="1123">
<path d="M-112 -226H681.7V896.52H-112V-226Z" fill="white"/>
</mask>
<g mask="url(#mask1_4_60)">
<path d="M16.6361 25.2068H7.0948V18.6135H16.6361C19.2068 18.6135 20.9428 20.0908 20.9428 21.9095C20.9428 23.7321 19.2068 25.2068 16.6361 25.2068ZM23.2095 16.0481C25.4708 15.1641 27.3495 13.1695 27.3495 9.87747C27.3495 4.96547 22.8695 1.98547 17.4721 1.98547H0.793467C0.630801 1.98547 0.497467 2.11214 0.497467 2.2668V6.72947C0.497467 6.88147 0.630801 7.00414 0.793467 7.00414H16.3161C18.8241 7.00414 20.5161 8.4468 20.5161 10.2201C20.5161 11.9975 18.8241 13.4375 16.3161 13.4375H7.0948V10.1228C7.0948 9.96947 6.96147 9.84414 6.7988 9.84414H0.793467C0.630801 9.84414 0.497467 9.96947 0.497467 10.1228V29.8255C0.497467 29.9801 0.630801 30.1055 0.793467 30.1055H17.2321C23.3761 30.1055 27.7748 27.4081 27.7748 21.9095C27.7748 19.2095 26.0815 16.9735 23.2095 16.0481Z" fill="#D71921"/>
</g>
<mask id="mask2_4_60" style="mask-type:luminance" maskUnits="userSpaceOnUse" x="-112" y="-226" width="794" height="1123">
<path d="M-112 -226H681.7V896.52H-112V-226Z" fill="white"/>
</mask>
<g mask="url(#mask2_4_60)">
<path d="M97.9961 29.7863L88.3268 18.1409C88.2975 18.1049 88.2575 18.1143 88.2401 18.1503L85.6348 24.1436C85.6228 24.1823 85.6228 24.2236 85.6495 24.2543L89.8788 29.5929C90.1748 29.9609 90.5148 30.1063 91.0228 30.1063H97.8361C98.0335 30.1063 98.1161 29.9263 97.9961 29.7863Z" fill="#D71921"/>
</g>
<mask id="mask3_4_60" style="mask-type:luminance" maskUnits="userSpaceOnUse" x="-112" y="-226" width="794" height="1123">
<path d="M-112 -226H681.7V896.52H-112V-226Z" fill="white"/>
</mask>
<g mask="url(#mask3_4_60)">
<path d="M38.3692 9.8436H32.7199C32.5559 9.8436 32.4239 9.97026 32.4239 10.1236V29.8249C32.4239 29.9809 32.5559 30.1063 32.7199 30.1063H38.3692C38.5332 30.1063 38.6665 29.9809 38.6665 29.8249V10.1236C38.6665 9.97026 38.5332 9.8436 38.3692 9.8436Z" fill="#D71921"/>
</g>
<mask id="mask4_4_60" style="mask-type:luminance" maskUnits="userSpaceOnUse" x="-112" y="-226" width="794" height="1123">
<path d="M-112 -226H681.7V896.52H-112V-226Z" fill="white"/>
</mask>
<g mask="url(#mask4_4_60)">
<path d="M61.6009 1.98547H55.9556C55.7929 1.98547 55.6609 2.11214 55.6609 2.2668V25.0855C54.3369 25.0855 53.6689 24.5841 53.2036 23.5281L45.5223 5.82814C44.2876 3.2148 42.1223 1.98547 38.0396 1.98547H32.7196C32.5556 1.98547 32.4236 2.11214 32.4236 2.2668V6.72947C32.4236 6.88147 32.5556 7.00414 32.7196 7.00414H37.0223C38.8036 7.00414 39.6756 7.54947 40.2863 8.7908L47.8636 26.2695C49.0996 28.8748 50.9636 30.1055 55.0463 30.1055H61.3743C61.6636 30.1055 61.8956 29.8841 61.8956 29.6121V2.2668C61.8956 2.11214 61.7636 1.98547 61.6009 1.98547Z" fill="#D71921"/>
</g>
<mask id="mask5_4_60" style="mask-type:luminance" maskUnits="userSpaceOnUse" x="-112" y="-226" width="794" height="1123">
<path d="M-112 -226H681.7V896.52H-112V-226Z" fill="white"/>
</mask>
<g mask="url(#mask5_4_60)">
<path d="M152.947 17.1469L153.061 17.2029L155.006 14.6402L154.806 14.5056C151.171 12.0776 148.35 8.64958 148.351 4.44425V1.64292H143.631V4.44425C143.635 8.83225 140.194 12.9189 137.106 14.8736L136.975 14.9522L138.923 17.5176L139.043 17.4602C141.467 16.2589 144.694 13.0109 145.999 10.6176C147.245 12.8616 150.349 15.8829 152.947 17.1469ZM105.051 20.3669H118.001V29.7709H120.841C122.051 29.7669 122.747 28.9442 122.747 27.7576V20.3669H134.785V17.0429H105.051V20.3669ZM114.599 7.07758H126.297V10.3216C126.297 10.6282 126.034 10.8789 125.709 10.8789H115.183C114.859 10.8789 114.599 10.6269 114.599 10.3216V7.07758ZM114.061 14.0936H126.851C129.482 14.0909 130.511 12.7656 130.513 11.1656V1.00692H126.333V3.88958H114.565V1.00692H110.391V11.1656C110.397 12.7656 111.426 14.0909 114.061 14.0936ZM162.01 1.01358H157.653V20.9122H160.246C161.363 20.9096 162.01 20.1562 162.01 19.1656V10.4069H165.978V6.72958H162.01V1.01358ZM215.447 27.4522C213.113 27.4522 211.253 25.8629 211.251 23.9309C211.253 21.9976 213.113 20.4109 215.447 20.4082C217.774 20.4109 219.635 21.9976 219.643 23.9309C219.635 25.8629 217.774 27.4522 215.447 27.4522ZM215.447 17.1429C210.758 17.1496 206.931 20.1629 206.926 23.9309C206.931 27.6976 210.758 30.7109 215.447 30.7162C220.133 30.7109 223.95 27.6976 223.961 23.9309C223.95 20.1629 220.133 17.1496 215.447 17.1429ZM220.409 1.00692V6.56692H218.466V1.00692H214.503V15.8909H216.755C217.837 15.8909 218.466 15.1589 218.466 14.2042V10.0896H220.409V15.8909H222.666C223.742 15.8909 224.374 15.1589 224.374 14.2042V1.00692H220.409ZM182.435 3.61892C184.879 3.62158 186.821 5.19758 186.827 7.10425C186.821 9.01092 184.879 10.5936 182.435 10.5936C179.989 10.5936 178.042 9.01092 178.037 7.10425C178.042 5.19758 179.989 3.62158 182.435 3.61892ZM182.435 13.8189C187.202 13.8136 191.101 10.8376 191.107 7.10425C191.101 3.37358 187.202 0.396249 182.435 0.392249C177.669 0.396249 173.766 3.37358 173.761 7.10425C173.766 10.8376 177.669 13.8136 182.435 13.8189ZM168.335 19.1922H196.531V15.9122H168.335V19.1922ZM177.409 26.3082V21.4696H172.815V27.2096C172.823 28.8082 173.85 30.1349 176.491 30.1402H193.501V26.8656H177.999C177.673 26.8656 177.409 26.6189 177.409 26.3082ZM205.874 14.2162C203.999 14.2162 202.75 12.8122 202.746 11.0456C202.75 9.28025 203.999 7.87758 205.874 7.87491C207.757 7.87758 209.006 9.28025 209.014 11.0456C209.006 12.8122 207.757 14.2162 205.874 14.2162ZM212.586 11.1096C212.586 9.24825 211.737 7.58025 210.277 6.47758H212.89V3.55758H208.095V1.00692H203.629V3.55758H198.799V6.47758H201.479C200.017 7.58025 199.165 9.24825 199.165 11.1096C199.17 14.4322 202.113 17.1069 205.874 17.1162C209.578 17.1069 212.586 14.4322 212.586 11.1096ZM147.838 26.3136V20.0469H143.19V27.2096C143.195 28.8082 144.227 30.1349 146.859 30.1402H162.683V26.8656H148.425C148.101 26.8656 147.838 26.6189 147.838 26.3136Z" fill="#655C4F"/>
</g>
</g>
</g>
<defs>
<clipPath id="clip0_4_60">
<rect width="224" height="31" fill="white"/>
</clipPath>
<clipPath id="clip1_4_60">
<rect width="793.7" height="1122.52" fill="white" transform="translate(-102 -128)"/>
</clipPath>
</defs>
</svg>
