<svg width="1029" height="118" viewBox="0 0 1029 118" fill="none" xmlns="http://www.w3.org/2000/svg">
<g clip-path="url(#clip0_5_64)">
<mask id="mask0_5_64" style="mask-type:luminance" maskUnits="userSpaceOnUse" x="-50" y="-324" width="1123" height="794">
<path d="M-50 -324H1072.52V469.701H-50V-324Z" fill="white"/>
</mask>
<g mask="url(#mask0_5_64)">
<path d="M35.2631 62.2857L29.4711 66.5843C30.2591 67.383 31.2577 67.8923 32.3711 68.0523C32.3711 68.0523 32.9124 68.1817 34.2444 67.9977L33.8351 66.7523L37.0831 67.6443L35.1244 70.583L34.6977 69.367C34.7044 69.375 34.3871 69.435 34.3737 69.435C33.4751 69.5777 32.5937 69.6403 31.6924 69.4563C30.7244 69.2603 29.8817 68.907 28.9791 68.5483C28.2831 68.2657 27.5564 68.0257 26.8191 67.9283C26.5164 67.8763 26.1551 67.8417 25.8817 67.999L25.8697 67.991H25.8657C26.0977 67.7777 26.1817 67.423 26.2297 67.123C26.3617 66.387 26.3537 65.6217 26.3084 64.871C26.2471 63.8977 26.1697 62.9897 26.2817 62.0083C26.3871 61.0923 26.7137 60.2777 27.1284 59.4697C27.1364 59.455 27.2924 59.1683 27.3017 59.1817L26.2711 58.3963L29.6711 57.4443L29.5177 60.811L28.4591 60.0363C27.8724 61.2457 27.8284 61.8057 27.8284 61.8057C27.6404 62.9123 27.8071 64.019 28.3231 65.0177L34.0991 60.7937C34.0991 60.7937 35.2271 61.4137 35.2631 62.2857Z" fill="#0071BC"/>
</g>
<mask id="mask1_5_64" style="mask-type:luminance" maskUnits="userSpaceOnUse" x="-50" y="-324" width="1123" height="794">
<path d="M-50 -324H1072.52V469.701H-50V-324Z" fill="white"/>
</mask>
<g mask="url(#mask1_5_64)">
<path d="M33.3945 65.1474C32.6492 65.0154 31.9479 64.5487 31.4665 63.8647C30.9852 63.182 30.7825 62.366 30.9132 61.6207C31.0132 61.0487 31.3105 60.558 31.7479 60.2474C32.7892 59.518 34.3572 59.9487 35.2425 61.2047C35.6292 61.7567 35.8345 62.3834 35.8345 62.9994C35.8345 63.1487 35.8212 63.3007 35.7945 63.4514C35.6945 64.0234 35.3999 64.51 34.9612 64.8194C34.5252 65.1274 33.9679 65.242 33.3945 65.1474ZM31.4145 59.7714C30.8465 60.1727 30.4665 60.7914 30.3385 61.522C30.1865 62.418 30.4225 63.3954 30.9905 64.2007C31.5599 65.0087 32.3985 65.5647 33.2959 65.7194C34.0225 65.8407 34.7372 65.69 35.2972 65.294C35.8612 64.8927 36.2412 64.2727 36.3679 63.5474C36.5239 62.654 36.2839 61.6794 35.7199 60.8714C34.6492 59.3474 32.7172 58.8567 31.4145 59.7714Z" fill="#0071BC"/>
</g>
<mask id="mask2_5_64" style="mask-type:luminance" maskUnits="userSpaceOnUse" x="-50" y="-324" width="1123" height="794">
<path d="M-50 -324H1072.52V469.701H-50V-324Z" fill="white"/>
</mask>
<g mask="url(#mask2_5_64)">
<path d="M33.3679 64.4129C32.8572 64.3142 32.3785 63.9756 32.0532 63.4809C31.7239 62.9929 31.5919 62.3996 31.6839 61.8729C31.7572 61.4596 31.9612 61.1129 32.2639 60.8929C32.9825 60.3729 34.0585 60.6902 34.6585 61.5956C34.9239 61.9916 35.0585 62.4449 35.0545 62.8822C35.0545 62.9942 35.0452 63.0982 35.0279 63.2076C34.9532 63.6182 34.7452 63.9636 34.4439 64.1876C34.1452 64.4062 33.7599 64.4836 33.3679 64.4129ZM32.0372 60.5516C31.6465 60.8329 31.3825 61.2729 31.2919 61.7996C31.1799 62.4342 31.3399 63.1409 31.7239 63.7182C32.1092 64.3022 32.6812 64.7036 33.2959 64.8196C33.7945 64.9142 34.2852 64.8089 34.6732 64.5289C35.0599 64.2436 35.3279 63.8036 35.4159 63.2822C35.5305 62.6409 35.3719 61.9436 34.9879 61.3582C34.2599 60.2649 32.9399 59.8982 32.0372 60.5516Z" fill="#0071BC"/>
</g>
<path d="M116.379 24.46C116.085 26.6653 117.265 28.884 119.483 30.816C117.239 32.4453 114.837 34.4413 112.569 36.8213C109.439 33.724 107.652 30.1187 108.259 26.0907C108.416 25.0027 110.571 24.9493 111.011 23.948C109.524 25.724 107.023 24.5907 106.693 26.8133C106.053 31.108 106.86 35.5253 110.464 39.1813C108.156 41.9706 106.104 45.2027 104.651 48.88C100.325 44.488 98.8773 40.848 99.6466 35.6867C99.656 35.636 99.9453 35.08 99.9453 35.0347C99.5346 36.0893 98.1706 36.1733 98.0053 37.3146C97.2093 42.604 99.324 47.8907 103.48 52.4187C102.589 55.7827 102.211 59.472 102.555 63.5067C98.188 59.46 95.552 54.7147 95.3146 49.8587C95.2733 50.104 95.2186 50.336 95.18 50.5853C94.2666 56.7347 97.3893 62.896 103.197 67.876C103.523 69.4827 103.961 71.136 104.532 72.8453C104.532 72.8453 104.223 71.308 104.171 68.6813C107.059 70.9946 110.547 73.004 114.453 74.6253C114.347 77.3267 114.332 80.156 114.419 83.104C110.588 81.288 107.265 78.936 104.659 76.216C108.627 82.928 116.313 88.092 125.705 89.4933C135.573 90.9667 144.849 87.896 150.545 82.1227C147.387 84.116 143.605 85.572 139.433 86.36C142.221 83.368 144.467 80.3893 146.268 77.4667C156.785 75.012 164.435 69.0266 165.617 61.0786C165.757 60.1266 165.792 59.1813 165.744 58.24C164.319 65.3413 157.677 70.792 148.487 73.4053C150.301 69.6387 151.401 65.9613 151.935 62.44C159.647 59.4186 165.028 54.108 166.023 47.4453C166.3 45.5827 166.211 43.7147 165.812 41.8733C165.815 42.6213 165.768 43.368 165.664 44.1053C164.736 50.3107 159.66 55.276 152.333 58.1293C152.469 53.8747 151.859 49.8973 150.832 46.2827C156.279 43.8693 159.744 39.7093 160.457 34.8973C160.641 33.6427 160.255 32.8053 159.711 31.948C158.937 36.84 155.205 40.8013 149.833 43.2147C148.751 40.2493 147.431 37.6 146.088 35.3146C149.733 34.0506 152.183 31.9093 152.531 29.244C153.227 24.0293 145.693 18.7253 135.708 17.4107C134.169 17.2067 132.661 17.1093 131.211 17.1093C123.245 17.1093 116.964 20.0467 116.379 24.46ZM119.568 24.352C120.155 19.9187 127.373 17.224 135.681 18.3227C143.989 19.4307 150.244 23.9053 149.663 28.3426C149.377 30.4746 147.567 32.1933 144.844 33.296C141.964 28.844 139.353 26.2906 139.353 26.2906C139.353 26.2906 141.591 28.9093 143.859 33.6507C142.009 34.2547 139.807 34.596 137.425 34.62C137.029 30.2307 136.52 27.54 136.52 27.54C136.52 27.54 136.527 30.268 136.351 34.604C135.435 34.5773 134.505 34.4973 133.552 34.3653C131.565 34.1026 129.695 33.6573 128.007 33.0453C129.153 30.8627 130.396 28.6867 131.761 26.5533C131.761 26.5533 129.647 28.512 126.885 32.616C125.249 31.9307 123.82 31.108 122.667 30.1867C124.56 28.5333 126.629 26.892 128.916 25.2827C128.916 25.2827 125.783 26.5986 121.672 29.3026C120.139 27.776 119.348 26.0573 119.568 24.352ZM114.652 38.652C116.407 36.3867 118.451 34.1133 120.828 31.864C122.207 32.8347 123.869 33.704 125.724 34.4133C124.333 36.66 122.849 39.4053 121.424 42.66C118.885 41.5507 116.603 40.192 114.652 38.652ZM131.017 45.3946C128.312 44.9893 125.736 44.3213 123.357 43.4466C124.432 40.6066 125.661 37.7427 127.069 34.8987C128.955 35.5253 131.02 36.0107 133.199 36.3C134.233 36.4427 135.263 36.5213 136.256 36.564C136.127 39.252 135.933 42.3947 135.631 45.8067C134.121 45.756 132.584 45.628 131.017 45.3946ZM144.795 35.72C145.808 38.124 146.768 40.952 147.471 44.1427C144.596 45.1187 141.345 45.7013 137.904 45.8067C137.923 42.3733 137.792 39.252 137.589 36.5933C137.656 36.5947 137.721 36.5947 137.787 36.5947C140.34 36.5947 142.721 36.2773 144.795 35.72ZM107.379 51.3373C108.644 48.1106 110.396 44.7013 112.765 41.2347C114.887 42.896 117.404 44.3813 120.221 45.596C118.943 48.888 117.761 52.6133 116.795 56.8293C113.212 55.3227 110.039 53.4466 107.379 51.3373ZM129.117 60.248C125.541 59.7173 122.156 58.8493 119.028 57.712C119.872 54.0987 120.936 50.2933 122.281 46.4067C124.857 47.3467 127.643 48.064 130.591 48.4973C132.191 48.7346 133.773 48.88 135.336 48.9373C134.945 52.7107 134.431 56.7293 133.759 60.7213C132.227 60.6267 130.679 60.484 129.117 60.248ZM136.695 60.816C137.36 56.716 137.701 52.708 137.835 48.9613C141.527 48.888 144.997 48.3146 148.059 47.332C148.615 50.9693 148.796 55.012 148.377 59.404C144.895 60.3227 141.059 60.8173 137.011 60.8173C136.905 60.8173 136.8 60.816 136.695 60.816ZM104.259 64.9773C104.459 62.1653 104.977 58.736 106.119 54.952C108.863 57.288 112.175 59.348 115.941 60.9973C115.38 64.1186 114.944 67.472 114.677 71.0573C110.692 69.4067 107.181 67.332 104.259 64.9773ZM127.348 74.516C123.529 73.956 119.908 73.0133 116.583 71.7973C116.927 68.8386 117.42 65.492 118.131 61.8867C121.396 63.1213 124.944 64.0613 128.697 64.6253C130.128 64.8373 131.541 64.988 132.951 65.0733C132.256 68.4653 131.435 71.784 130.459 74.8853C129.431 74.7907 128.393 74.6693 127.348 74.516ZM147.769 63.7867C147.16 67.1253 146.188 70.6213 144.768 74.2827C141.091 74.98 137.108 75.2653 132.951 75.072C134.197 71.8227 135.153 68.508 135.879 65.1947C136.039 65.196 136.199 65.1973 136.359 65.1973C140.401 65.1973 144.248 64.7013 147.769 63.7867ZM115.812 83.7293C115.821 82.2307 115.873 79.2827 116.219 75.316C119.587 76.552 123.236 77.496 127.08 78.076C127.813 78.1827 128.539 78.2667 129.263 78.3507C128.103 81.412 126.755 84.1653 125.203 86.44C121.856 85.8786 118.696 84.9507 115.812 83.7293ZM143.147 78.076C141.867 80.816 140.349 83.6346 138.535 86.5146C134.847 87.112 130.881 87.1973 126.803 86.6787C128.637 84.1027 130.188 81.372 131.489 78.5507C132.772 78.6373 134.04 78.68 135.289 78.68C138.011 78.68 140.644 78.476 143.147 78.076ZM158.624 30.2427C158.497 30.016 158.376 29.776 158.263 29.5173C158.305 29.824 158.447 30.052 158.624 30.2427ZM159.711 31.948C159.716 31.912 159.723 31.8747 159.728 31.8387C159.851 31.008 159.101 30.756 158.624 30.2427C158.983 30.8867 159.376 31.4213 159.711 31.948Z" fill="url(#paint0_linear_5_64)"/>
<path d="M164.687 57.7531C162.401 71.4931 152.587 82.3171 141.177 86.6265C154.389 83.0265 163.511 72.5265 165.823 58.6145C167.967 45.7385 163.912 33.2051 154.083 25.4598C161.964 33.2611 166.777 45.2105 164.687 57.7531Z" fill="url(#paint1_linear_5_64)"/>
<path d="M95.8387 47.1548C93.3947 61.8561 99.752 75.7201 112.324 82.9468C101.953 75.5134 95.5467 61.8281 97.948 47.3614C100.155 34.0788 109.343 23.5481 120.204 18.9508C107.28 22.7121 98.1133 33.4548 95.8387 47.1548Z" fill="url(#paint2_linear_5_64)"/>
<mask id="mask3_5_64" style="mask-type:luminance" maskUnits="userSpaceOnUse" x="-50" y="-324" width="1123" height="794">
<path d="M-50 -324H1072.52V469.701H-50V-324Z" fill="white"/>
</mask>
<g mask="url(#mask3_5_64)">
<path d="M163.921 59.4594C159.843 77.3181 141.997 88.5087 124.147 84.4301C106.301 80.3554 95.0925 62.5074 99.1752 44.6541C103.257 26.8114 121.105 15.6061 138.953 19.6901C156.801 23.7754 168.001 41.6194 163.921 59.4594ZM167.375 60.2554C171.897 40.4981 159.491 20.7527 139.741 16.2381C119.987 11.7207 100.243 24.1154 95.7259 43.8741C91.2032 63.6261 103.602 83.3727 123.354 87.886C143.109 92.4034 162.859 80.0141 167.375 60.2554Z" fill="#0071BC"/>
</g>
<mask id="mask4_5_64" style="mask-type:luminance" maskUnits="userSpaceOnUse" x="-50" y="-324" width="1123" height="794">
<path d="M-50 -324H1072.52V469.701H-50V-324Z" fill="white"/>
</mask>
<g mask="url(#mask4_5_64)">
<path d="M81.4017 61.1109L128.248 78.5189L149.527 81.4829L155.816 82.3269L162.823 85.0429L138.271 96.7109L109.634 94.3349L87.9497 84.4483C87.9497 84.4483 81.8111 76.7416 81.6044 76.1443C81.4017 75.5496 81.4017 61.1109 81.4017 61.1109Z" fill="white"/>
</g>
<mask id="mask5_5_64" style="mask-type:luminance" maskUnits="userSpaceOnUse" x="-50" y="-324" width="1123" height="794">
<path d="M-50 -324H1072.52V469.701H-50V-324Z" fill="white"/>
</mask>
<g mask="url(#mask5_5_64)">
<path d="M34.1425 97.1948C28.9079 87.7775 18.1559 74.6495 9.8372 67.6788C7.1612 65.4308 4.1292 63.4242 1.97053 60.6215C-0.0934657 57.9402 -0.816132 54.1335 1.73853 51.3788C5.2612 47.5922 10.6292 46.2908 15.5092 45.3615C49.2105 38.9228 85.5652 57.4762 85.5652 57.4762L106.652 67.7002C106.652 67.7002 129.685 81.3095 157.332 81.9388C157.332 81.9388 140.353 89.2268 88.4705 64.9895C68.0692 55.4548 45.0705 50.6028 22.5559 52.7482C20.1745 52.9722 8.9052 54.6242 12.6692 59.3735C12.6692 59.3735 31.0399 81.8988 36.5225 96.5428" fill="#0071BC"/>
</g>
<mask id="mask6_5_64" style="mask-type:luminance" maskUnits="userSpaceOnUse" x="-50" y="-324" width="1123" height="794">
<path d="M-50 -324H1072.52V469.701H-50V-324Z" fill="white"/>
</mask>
<g mask="url(#mask6_5_64)">
<path d="M135.6 99.6269C139.99 97.6536 127.873 105.888 123.742 107.859C119.94 109.672 115.886 110.97 111.833 111.806C106.902 112.814 101.838 112.69 96.8623 112.014C81.4609 109.911 67.9543 100.495 52.4196 99.7843C37.6823 99.1069 21.7476 103.228 8.16093 109.586C15.3876 104.696 23.1236 100.412 31.1489 97.5496C40.2596 94.2896 49.6436 92.6963 59.2076 93.6749C65.0329 94.2683 70.6729 96.1669 76.2409 98.0976C90.5209 103.044 103.766 107.866 118.841 105.032C124.574 103.951 130.201 102.038 135.6 99.6269Z" fill="#519ED6"/>
</g>
<mask id="mask7_5_64" style="mask-type:luminance" maskUnits="userSpaceOnUse" x="-50" y="-324" width="1123" height="794">
<path d="M-50 -324H1072.52V469.701H-50V-324Z" fill="white"/>
</mask>
<g mask="url(#mask7_5_64)">
<path d="M72.8704 115.818C79.0291 117.532 91.0277 120.068 98.6571 116.478C92.9264 115.546 87.2304 114.349 81.7264 112.521C73.6051 109.826 65.8651 106.042 57.2197 105.329C49.3811 104.676 41.3357 105.265 33.7531 107.388C28.4371 108.886 23.1984 111.23 18.4717 114.096C30.4904 110.996 43.8237 109.686 55.9104 111.308C61.7531 112.106 67.2224 114.257 72.8704 115.818Z" fill="#007DC5"/>
</g>
<mask id="mask8_5_64" style="mask-type:luminance" maskUnits="userSpaceOnUse" x="-50" y="-324" width="1123" height="794">
<path d="M-50 -324H1072.52V469.701H-50V-324Z" fill="white"/>
</mask>
<g mask="url(#mask8_5_64)">
<path fill-rule="evenodd" clip-rule="evenodd" d="M155.602 4.12587C155.602 4.12587 152.243 2.80853 151.674 6.5152L149.751 14.4512C149.751 14.4512 148.63 14.1259 147.946 15.2605L147.263 16.7952C147.263 16.7952 150.275 18.0912 151.106 18.6445L151.844 16.9952C151.844 16.9952 152.308 15.9485 151.543 15.2472L156.318 8.57786C156.318 8.57786 158.62 5.83787 155.602 4.12587Z" fill="#0071BC"/>
</g>
<mask id="mask9_5_64" style="mask-type:luminance" maskUnits="userSpaceOnUse" x="-50" y="-324" width="1123" height="794">
<path d="M-50 -324H1072.52V469.701H-50V-324Z" fill="white"/>
</mask>
<g mask="url(#mask9_5_64)">
<path fill-rule="evenodd" clip-rule="evenodd" d="M118.794 -0.0957734C118.794 -0.0957734 115.353 0.997559 117.234 4.22956L120.734 11.6136C120.734 11.6136 119.66 12.0602 119.836 13.3749L120.266 14.9976C120.266 14.9976 123.428 14.1189 124.417 14.0242L123.962 12.2802C123.962 12.2802 123.668 11.1696 122.628 11.1002L122.148 2.91356C122.148 2.91356 122.218 -0.66644 118.794 -0.0957734Z" fill="#0071BC"/>
</g>
<mask id="mask10_5_64" style="mask-type:luminance" maskUnits="userSpaceOnUse" x="-50" y="-324" width="1123" height="794">
<path d="M-50 -324H1072.52V469.701H-50V-324Z" fill="white"/>
</mask>
<g mask="url(#mask10_5_64)">
<path fill-rule="evenodd" clip-rule="evenodd" d="M87.8855 20.5338C87.8855 20.5338 86.0748 23.6592 89.6415 24.7818L97.0215 27.8272C97.0215 27.8272 96.5388 28.8845 97.5601 29.7298L98.9641 30.6392C98.9641 30.6392 100.888 27.9098 101.555 27.1672L100.043 26.1845C100.043 26.1845 99.0761 25.5672 98.2695 26.2218L92.3908 20.4992C92.3908 20.4992 90.0228 17.8005 87.8855 20.5338Z" fill="#0071BC"/>
</g>
<mask id="mask11_5_64" style="mask-type:luminance" maskUnits="userSpaceOnUse" x="-50" y="-324" width="1123" height="794">
<path d="M-50 -324H1072.52V469.701H-50V-324Z" fill="white"/>
</mask>
<g mask="url(#mask11_5_64)">
<path fill-rule="evenodd" clip-rule="evenodd" d="M169.762 90.248C169.762 90.248 172.202 87.592 168.956 85.7267L162.236 81.0867C162.236 81.0867 162.939 80.1494 162.126 79.1027L160.944 77.9174C160.944 77.9174 158.647 80.2547 157.832 80.836L159.1 82.1227C159.1 82.1227 159.911 82.928 160.848 82.472L165.348 89.3134C165.348 89.3134 167.087 92.46 169.762 90.248Z" fill="#0071BC"/>
</g>
<mask id="mask12_5_64" style="mask-type:luminance" maskUnits="userSpaceOnUse" x="-50" y="-324" width="1123" height="794">
<path d="M-50 -324H1072.52V469.701H-50V-324Z" fill="white"/>
</mask>
<g mask="url(#mask12_5_64)">
<path fill-rule="evenodd" clip-rule="evenodd" d="M184.757 61.3862C184.757 61.3862 185.231 57.8062 181.499 58.1422L173.338 58.1902C173.338 58.1902 173.379 57.0236 172.107 56.6316L170.462 56.3382C170.462 56.3382 169.923 59.5716 169.587 60.5236L171.363 60.8422C171.363 60.8422 172.494 61.0369 172.997 60.1222L180.613 63.1422C180.613 63.1422 183.833 64.7249 184.757 61.3862Z" fill="#0071BC"/>
</g>
<mask id="mask13_5_64" style="mask-type:luminance" maskUnits="userSpaceOnUse" x="-50" y="-324" width="1123" height="794">
<path d="M-50 -324H1072.52V469.701H-50V-324Z" fill="white"/>
</mask>
<g mask="url(#mask13_5_64)">
<path fill-rule="evenodd" clip-rule="evenodd" d="M180.484 29.1363C180.484 29.1363 178.82 25.9337 175.957 28.3443L169.294 33.0723C169.294 33.0723 168.658 32.0937 167.401 32.499L165.873 33.2097C165.873 33.2097 167.293 36.163 167.564 37.1323L169.2 36.3803C169.2 36.3803 170.234 35.887 170.126 34.8537L178.096 32.9683C178.096 32.9683 181.645 32.4043 180.484 29.1363Z" fill="#0071BC"/>
</g>
<mask id="mask14_5_64" style="mask-type:luminance" maskUnits="userSpaceOnUse" x="-50" y="-324" width="1123" height="794">
<path d="M-50 -324H1072.52V469.701H-50V-324Z" fill="white"/>
</mask>
<g mask="url(#mask14_5_64)">
<path d="M16.2676 33.9022L17.1703 40.3609L18.5396 40.1716C19.2423 40.0889 19.6143 39.7582 19.6676 39.1729C19.7223 38.5862 19.6716 37.7422 19.5103 36.6316C19.3783 35.6356 19.1903 34.8729 18.9476 34.3369C18.7076 33.8036 18.1196 33.6022 17.1929 33.7329C17.1143 33.7449 17.0369 33.7556 16.9623 33.7689C16.8823 33.7769 16.8089 33.7982 16.7303 33.8196C16.6543 33.8382 16.5769 33.8462 16.5009 33.8676C16.4223 33.8809 16.3476 33.9022 16.2756 33.9316L16.2676 33.9022ZM16.1436 33.0049C16.2076 33.0049 16.2636 33.0049 16.3223 33.0022C16.3756 32.9942 16.4303 32.9809 16.4929 32.9809C16.5249 32.9676 16.5516 32.9676 16.5769 32.9636C16.5969 32.9596 16.6263 32.9529 16.6569 32.9529C16.7543 32.9529 16.8409 32.9529 16.9316 32.9422C17.0103 32.9249 17.0996 32.9116 17.1929 32.9036C17.8583 32.8116 18.2343 32.4902 18.3303 31.9382C18.4169 31.3969 18.3863 30.5942 18.2343 29.5262C18.0796 28.3782 17.8929 27.6329 17.6796 27.2916C17.4636 26.9529 17.0236 26.8302 16.3623 26.9236L15.3143 27.0436L16.1436 33.0049ZM8.97293 41.5222L10.7129 41.2822L8.85026 27.9436L7.11026 28.1889L7.00493 27.4222L17.8543 25.9116C18.1196 25.8902 18.3863 25.8689 18.6596 25.8356C18.9303 25.8036 19.2009 25.7849 19.4716 25.7822C20.7209 25.6982 21.8916 25.8356 22.9809 26.1782C24.0756 26.5249 24.7129 27.3382 24.8876 28.6236C25.0623 29.8769 24.6436 30.8409 23.6223 31.5209C22.6023 32.2022 21.1823 32.7222 19.3503 33.0889C21.4729 32.7742 23.1303 32.8396 24.3196 33.2916C25.5103 33.7422 26.1943 34.6089 26.3743 35.8916C26.5129 36.8942 26.2263 37.8476 25.5103 38.7596C24.7889 39.6716 23.3249 40.2849 21.1063 40.5929L9.07426 42.2676L8.97293 41.5222Z" fill="#F5821F"/>
</g>
<mask id="mask15_5_64" style="mask-type:luminance" maskUnits="userSpaceOnUse" x="-50" y="-324" width="1123" height="794">
<path d="M-50 -324H1072.52V469.701H-50V-324Z" fill="white"/>
</mask>
<g mask="url(#mask15_5_64)">
<path d="M28.5384 40.0139L28.5837 39.2672C29.1344 39.2886 29.5757 39.1939 29.9157 39.0006C30.2571 38.7979 30.4437 38.4192 30.4797 37.8552L31.2011 25.9072L29.3971 25.7979L29.4437 25.0486L37.6224 25.5432L39.5371 31.9352L42.1891 25.8232L50.5957 26.3419L50.5504 27.0846L48.7264 26.9779L47.9077 40.4446L49.7331 40.5526L49.6851 41.3032L39.6184 40.6926L39.6624 39.9432L41.4624 40.0446L42.2197 27.6379L36.7104 40.5112L35.8677 40.4619L31.9571 27.0126L31.2957 37.9752C31.2557 38.6166 31.4344 39.0259 31.8304 39.1939C32.2277 39.3659 32.6757 39.4992 33.1717 39.5726C33.1891 39.5686 33.2077 39.5726 33.2291 39.5726C33.2504 39.5792 33.2717 39.5726 33.2917 39.5726L33.2424 40.3006L28.5384 40.0139Z" fill="#F5821F"/>
</g>
<mask id="mask16_5_64" style="mask-type:luminance" maskUnits="userSpaceOnUse" x="-50" y="-324" width="1123" height="794">
<path d="M-50 -324H1072.52V469.701H-50V-324Z" fill="white"/>
</mask>
<g mask="url(#mask16_5_64)">
<path d="M51.6048 41.6113L51.8115 40.89L53.5488 41.3807L57.2528 28.4393L55.5195 27.9433L55.7341 27.198L70.5501 31.4393L69.0635 36.6193L68.3221 36.4087C68.2995 36.2527 68.2821 36.0887 68.2648 35.926C68.2448 35.758 68.2315 35.5927 68.2128 35.426C68.1341 34.3993 67.9048 33.454 67.5221 32.594C67.1381 31.7367 66.1208 31.05 64.4661 30.5233C64.3181 30.4887 64.1621 30.4447 64.0035 30.3927C63.8435 30.3527 63.6875 30.3007 63.5395 30.262L61.8208 36.2807C62.7635 36.494 63.4541 36.49 63.8795 36.2553C64.3008 36.01 64.7235 35.5647 65.1435 34.886C65.2035 34.802 65.2595 34.718 65.3048 34.6207C65.3581 34.5353 65.4128 34.4407 65.4728 34.346L66.1528 34.514L64.3461 40.8207L63.6755 40.6367C63.6648 40.5967 63.6608 40.558 63.6648 40.518C63.6675 40.4873 63.6701 40.434 63.6675 40.39C63.7021 39.5313 63.6075 38.85 63.3915 38.3193C63.1781 37.7967 62.5861 37.3487 61.6195 36.9687L59.8421 43.19C60.0115 43.2713 60.1875 43.3353 60.3648 43.3953C60.5435 43.4607 60.7208 43.5207 60.9048 43.5727C62.5421 44.0367 63.7968 43.962 64.6635 43.3353C65.5355 42.714 66.2715 41.966 66.8875 41.0793C66.9635 40.9807 67.0435 40.8633 67.1155 40.746C67.1901 40.6367 67.2715 40.5113 67.3528 40.39C67.3621 40.3687 67.3648 40.358 67.3795 40.3367C67.3941 40.318 67.4155 40.294 67.4355 40.266L68.1635 40.446L66.6048 45.9033L51.6048 41.6113Z" fill="#F5821F"/>
</g>
<mask id="mask17_5_64" style="mask-type:luminance" maskUnits="userSpaceOnUse" x="-50" y="-324" width="1123" height="794">
<path d="M-50 -324H1072.52V469.701H-50V-324Z" fill="white"/>
</mask>
<g mask="url(#mask17_5_64)">
<path d="M78.9817 39.0606L75.1137 43.194L78.8511 44.7153L78.9817 39.0606ZM70.9031 46.266C71.2391 46.1126 71.5977 45.8286 71.9724 45.406L81.1457 35.4593L85.3351 37.17L85.0457 52.4313L86.3497 52.962L86.0657 53.6606L76.8311 49.8966L77.1151 49.1993L78.7657 49.8726L78.7977 45.5046L74.5884 43.7873L73.2871 45.2366C73.2217 45.31 73.1564 45.3846 73.0964 45.454C73.0311 45.518 72.9724 45.5833 72.9164 45.6393C72.7897 45.7966 72.6737 45.9406 72.5684 46.098C72.4644 46.242 72.3857 46.3886 72.3311 46.518C72.2471 46.7246 72.2604 46.914 72.3644 47.086C72.4697 47.262 72.6591 47.4046 72.9377 47.5206L73.5524 47.7473L73.2697 48.446L69.3631 46.8526L69.6457 46.1553C70.1457 46.3753 70.5644 46.4166 70.9031 46.266Z" fill="#F5821F"/>
</g>
<mask id="mask18_5_64" style="mask-type:luminance" maskUnits="userSpaceOnUse" x="-50" y="-324" width="1123" height="794">
<path d="M-50 -324H1072.52V469.701H-50V-324Z" fill="white"/>
</mask>
<g mask="url(#mask18_5_64)">
<path d="M232.461 23.4141C232.812 21.125 231.559 20.0156 228.695 20.0859C225.828 20.1484 224.508 21.0078 224.727 22.6641C224.859 23.8125 224.98 24.8828 225.086 25.8828C225.199 26.8828 225.258 27.707 225.258 28.3516C225.258 29 225.199 29.6797 225.086 30.3984C224.98 31.1172 224.859 31.9766 224.727 32.9766C224.434 34.5625 224.859 35.7656 226.008 36.5859C227.152 37.4102 228.371 37.75 229.664 37.6016C231.027 37.457 233.5 37.3516 237.086 37.2891C240.668 37.2188 244.289 37.1797 247.945 37.1797C251.602 37.1797 255.258 37.2188 258.914 37.2891C262.57 37.3516 265.074 37.457 266.43 37.6016C267.938 37.75 269.195 37.4609 270.195 36.7422C271.203 36.0234 271.562 34.8438 271.273 33.1953C271.125 32.1953 271 31.3203 270.898 30.5703C270.793 29.8125 270.742 29.1094 270.742 28.4609C270.742 27.7422 270.793 26.8672 270.898 25.8359C271 24.7969 271.125 23.7383 271.273 22.6641C271.562 21.0078 270.273 20.1484 267.398 20.0859C264.531 20.0156 263.277 21.1953 263.633 23.6328C263.277 23.9141 258.062 24.0195 247.992 23.9453C237.93 23.875 232.75 23.6953 232.461 23.4141ZM232.68 28.8984C232.961 28.6094 238.152 28.4609 248.258 28.4609C258.371 28.4609 263.531 28.6445 263.742 29.0078C263.961 29.2891 264.047 29.7539 264.008 30.3984C263.977 31.0469 263.852 31.5156 263.633 31.8047C263.422 32.0859 258.262 32.2109 248.148 32.1797C238.043 32.1406 232.852 31.9766 232.57 31.6953C232.352 31.4766 232.242 31.0312 232.242 30.3516C232.242 29.6641 232.387 29.1797 232.68 28.8984ZM271.711 39.8672C267.836 40.0039 263.906 40.1094 259.93 40.1797C255.949 40.2539 252.027 40.2891 248.164 40.2891C244.289 40.2891 240.359 40.2539 236.383 40.1797C232.402 40.1094 228.48 40.0039 224.617 39.8672C223.031 39.7969 222.242 40.8516 222.242 43.0391C222.242 45.2188 223.031 46.2734 224.617 46.2109C227.906 46.0664 231.234 45.957 234.602 45.8828C237.977 45.8125 241.312 45.7734 244.617 45.7734C244.75 48.2109 244.766 50.7383 244.664 53.3516C244.559 55.9688 244.434 58.4922 244.289 60.9297C244.215 62.5117 245.539 63.3047 248.258 63.3047C250.984 63.3047 252.277 62.5117 252.133 60.9297C251.984 58.4922 251.875 55.9688 251.805 53.3516C251.742 50.7383 251.711 48.2109 251.711 45.7734C255.074 45.7734 258.422 45.7969 261.758 45.8359C265.09 45.8672 268.406 45.957 271.711 46.1016C273.355 46.1758 274.18 45.1406 274.18 42.9922C274.18 40.8359 273.355 39.7969 271.711 39.8672ZM297.16 22.5547C296.305 21.6172 295.195 21.1484 293.832 21.1484C292.465 21.1484 291.387 21.6172 290.598 22.5547C288.449 24.9922 286.32 27.3789 284.207 29.7109C282.09 32.0352 280.027 34.2695 278.02 36.4141C276.664 37.8516 276.863 39.1641 278.613 40.3516C280.371 41.5312 281.68 41.6562 282.535 40.7266C284.473 38.6445 286.762 36.1328 289.41 33.1953C292.066 30.2578 293.539 28.7891 293.832 28.7891C294.258 28.7891 295.691 30.2227 298.129 33.0859C300.566 35.9531 302.57 38.2813 304.145 40.0703C305.363 41.4375 306.777 41.4414 308.395 40.0859C310.008 38.7227 310.242 37.3945 309.098 36.1016C307.23 33.875 305.316 31.6484 303.348 29.4297C301.379 27.2109 299.316 24.9219 297.16 22.5547ZM321.785 20.3984C321.992 18.8281 320.77 18.0234 318.113 17.9922C315.465 17.9531 314.215 18.7539 314.363 20.3984C314.508 21.9844 314.633 23.957 314.738 26.3203C314.84 28.6875 314.895 30.6914 314.895 32.3359C314.895 33.9102 314.84 36.1133 314.738 38.9453C314.633 41.7813 314.508 44.0195 314.363 45.6641C314.215 47.25 315.465 48.0391 318.113 48.0391C320.77 48.0391 321.992 47.25 321.785 45.6641C321.637 44.5195 321.527 42.5 321.457 39.6016C321.383 36.6953 321.348 34.707 321.348 33.6328C321.348 33.125 321.867 32.9414 322.91 33.0859C323.949 33.2344 324.898 33.4141 325.754 33.6328C327.336 33.9883 328.129 32.8594 328.129 30.2422C328.129 27.6289 327.336 26.6094 325.754 27.1797C324.973 27.4609 324.039 27.5664 322.957 27.4922C321.883 27.4219 321.348 27.1328 321.348 26.6328C321.348 25.8516 321.383 24.8906 321.457 23.7422C321.527 22.5859 321.637 21.4727 321.785 20.3984ZM285.77 49.0078C286.121 47.3516 284.832 46.5234 281.895 46.5234C278.957 46.5234 277.629 47.3516 277.91 49.0078C278.199 50.5078 278.348 51.9063 278.348 53.1953C278.348 54.4883 278.199 55.8477 277.91 57.2734C277.555 59.1406 277.879 60.4297 278.879 61.1484C279.887 61.8672 281.145 62.1523 282.645 62.0078C284.289 61.8594 286.668 61.7344 289.785 61.6328C292.91 61.5273 296.445 61.4766 300.395 61.4766C304.402 61.4766 308.305 61.5078 312.098 61.5703C315.898 61.6406 318.695 61.75 320.488 61.8984C322.145 62.043 322.973 61.0586 322.973 58.9453C322.973 56.832 322.145 55.8477 320.488 55.9922C318.695 56.1406 315.738 56.25 311.613 56.3203C307.496 56.3828 303.758 56.4141 300.395 56.4141C297.09 56.4141 294.133 56.3984 291.52 56.3672C288.902 56.3281 286.949 56.2031 285.66 55.9922C285.586 55.2734 285.512 54.2891 285.441 53.0391C285.367 51.7813 285.477 50.4375 285.77 49.0078ZM376.262 22.4453C372.75 22.5937 369.379 22.7031 366.152 22.7734C362.934 22.8359 359.566 22.8672 356.059 22.8672C352.535 22.8672 349.145 22.8359 345.887 22.7734C342.625 22.7031 339.238 22.5937 335.73 22.4453C334.156 22.375 333.371 23.3789 333.371 25.4609C333.371 27.5352 334.156 28.5352 335.73 28.4609C338.02 28.3281 341.582 28.1133 346.418 27.8203C351.262 27.5313 353.254 27.707 352.402 28.3516C349.891 30.2187 347.145 32.1719 344.168 34.2109C341.199 36.2539 338.422 38.1016 335.84 39.7578C334.191 40.832 333.855 42.2656 334.824 44.0547C335.793 45.8477 336.918 46.3477 338.199 45.5547C341.207 43.6914 344.754 41.3125 348.84 38.4141C352.934 35.5078 355.34 34.0547 356.059 34.0547C356.766 34.0547 359.199 35.5469 363.355 38.5234C367.52 41.4922 371.035 43.9453 373.902 45.8828C375.191 46.75 376.391 46.3359 377.496 44.6484C378.609 42.9609 378.449 41.582 377.012 40.5078C374.937 39 372.301 37.0977 369.105 34.8047C365.918 32.5156 362.926 30.3633 360.137 28.3516C359.418 27.7812 361.422 27.625 366.152 27.8828C370.891 28.1328 374.262 28.3281 376.262 28.4609C377.906 28.5352 378.73 27.5352 378.73 25.4609C378.73 23.3789 377.906 22.375 376.262 22.4453ZM379.809 54.3828C377.16 54.5195 373.059 54.7344 367.496 55.0234C361.941 55.3047 359.168 55.2344 359.168 54.8047C359.168 53.8047 359.203 52.8203 359.277 51.8516C359.348 50.8828 359.422 49.7891 359.496 48.5703C359.641 46.9258 358.402 46.1016 355.777 46.1016C353.16 46.1016 351.926 46.9258 352.074 48.5703C352.219 49.7188 352.309 50.7969 352.34 51.8047C352.379 52.8047 352.402 53.8047 352.402 54.8047C352.402 55.2344 349.855 55.3047 344.762 55.0234C339.676 54.7344 335.594 54.5195 332.512 54.3828C330.926 54.2383 330.098 55.2969 330.027 57.5547C329.965 59.8047 330.719 60.8906 332.293 60.8203C336.301 60.6836 340.262 60.5781 344.168 60.5078C348.074 60.4336 352.035 60.3984 356.059 60.3984C360.066 60.3984 364.094 60.4336 368.137 60.5078C372.187 60.5781 376.078 60.6836 379.809 60.8203C381.465 60.8906 382.293 59.8047 382.293 57.5547C382.293 55.2969 381.465 54.2383 379.809 54.3828ZM405.051 22.5547C404.195 21.6172 403.086 21.1484 401.723 21.1484C400.355 21.1484 399.277 21.6172 398.488 22.5547C396.34 24.9922 394.211 27.3789 392.098 29.7109C389.98 32.0352 387.918 34.2695 385.91 36.4141C384.555 37.8516 384.754 39.1641 386.504 40.3516C388.262 41.5312 389.57 41.6562 390.426 40.7266C392.363 38.6445 394.652 36.1328 397.301 33.1953C399.957 30.2578 401.43 28.7891 401.723 28.7891C402.148 28.7891 403.582 30.2227 406.02 33.0859C408.457 35.9531 410.461 38.2813 412.035 40.0703C413.254 41.4375 414.668 41.4414 416.285 40.0859C417.898 38.7227 418.133 37.3945 416.988 36.1016C415.121 33.875 413.207 31.6484 411.238 29.4297C409.27 27.2109 407.207 24.9219 405.051 22.5547ZM422.363 45.6641C422.215 47.25 423.434 48.0391 426.02 48.0391C428.602 48.0391 429.82 47.25 429.676 45.6641C429.527 43.9453 429.418 41.8516 429.348 39.3828C429.273 36.9063 429.238 34.8438 429.238 33.1953C429.238 31.5508 429.274 29.4922 429.348 27.0234C429.418 24.5469 429.527 22.3359 429.676 20.3984C429.82 18.7539 428.582 17.9297 425.957 17.9297C423.34 17.9297 422.145 18.7539 422.363 20.3984C422.508 21.6172 422.613 22.8359 422.676 24.0547C422.746 25.2734 422.785 26.3516 422.785 27.2891C422.785 27.7891 422.32 27.9883 421.394 27.8828C420.465 27.7695 419.211 27.6406 417.629 27.4922C416.055 27.3594 415.246 28.4375 415.207 30.7266C415.176 33.0195 415.98 34.0938 417.629 33.9453C419.066 33.8008 420.285 33.6953 421.285 33.6328C422.285 33.5625 422.785 33.7734 422.785 34.2734C422.785 35.4219 422.746 37.1602 422.676 39.4922C422.613 41.8164 422.508 43.875 422.363 45.6641ZM393.66 49.0078C394.012 47.3516 392.723 46.5234 389.785 46.5234C386.848 46.5234 385.52 47.3516 385.801 49.0078C386.09 50.5078 386.238 51.9063 386.238 53.1953C386.238 54.4883 386.09 55.8477 385.801 57.2734C385.445 59.1406 385.77 60.4297 386.77 61.1484C387.777 61.8672 389.035 62.1523 390.535 62.0078C392.18 61.8594 394.559 61.7344 397.676 61.6328C400.801 61.5273 404.336 61.4766 408.285 61.4766C412.293 61.4766 416.195 61.5078 419.988 61.5703C423.789 61.6406 426.586 61.75 428.379 61.8984C430.035 62.043 430.863 61.0586 430.863 58.9453C430.863 56.832 430.035 55.8477 428.379 55.9922C426.586 56.1406 423.629 56.25 419.504 56.3203C415.387 56.3828 411.648 56.4141 408.285 56.4141C404.98 56.4141 402.023 56.3984 399.41 56.3672C396.793 56.3281 394.84 56.2031 393.551 55.9922C393.477 55.2734 393.402 54.2891 393.332 53.0391C393.258 51.7813 393.367 50.4375 393.66 49.0078ZM451.262 19.6484C449.969 19.6484 449.09 19.9219 448.621 20.4609C448.152 20.9922 447.953 21.6562 448.027 22.4453C446.879 22.5195 445.84 22.5195 444.902 22.4453C443.973 22.375 442.973 22.2266 441.902 22.0078C440.328 21.6562 439.574 22.8437 439.637 25.5703C439.707 28.2891 440.785 29.1484 442.871 28.1484C442.578 28.5039 442.27 29.2187 441.949 30.2891C441.637 31.3633 441.48 32.2969 441.48 33.0859C441.48 35.3789 442.355 37.5312 444.105 39.5391C445.863 41.5508 448.25 42.5547 451.262 42.5547C454.406 42.5547 456.785 41.5 458.402 39.3828C460.016 37.2695 460.824 35.0977 460.824 32.8672C460.824 32.0859 460.66 31.2109 460.34 30.2422C460.016 29.2734 459.676 28.5781 459.324 28.1484C461.324 28.8594 462.359 27.9258 462.434 25.3516C462.504 22.7695 461.719 21.6562 460.074 22.0078C458.926 22.2266 457.922 22.375 457.059 22.4453C456.203 22.5195 455.379 22.5195 454.59 22.4453C454.809 21.6562 454.629 20.9922 454.059 20.4609C453.484 19.9219 452.551 19.6484 451.262 19.6484ZM451.262 28.6797C452.406 28.6797 453.391 29.0781 454.215 29.8672C455.035 30.6484 455.449 31.6484 455.449 32.8672C455.449 34.0156 455.035 35.0039 454.215 35.8359C453.391 36.6602 452.406 37.0703 451.262 37.0703C450.113 37.0703 449.125 36.6602 448.293 35.8359C447.469 35.0039 447.059 34.0156 447.059 32.8672C447.059 31.6484 447.469 30.6484 448.293 29.8672C449.125 29.0781 450.113 28.6797 451.262 28.6797ZM473.73 20.6172C473.875 18.9727 472.691 18.1484 470.184 18.1484C467.672 18.1484 466.453 18.9727 466.527 20.6172C466.672 23.8477 466.777 27.1133 466.84 30.4141C466.91 33.707 466.949 37.1094 466.949 40.6172C466.949 43.7734 466.91 47.0938 466.84 50.5703C466.777 54.0391 466.672 57.3906 466.527 60.6172C466.453 62.1875 467.652 62.9766 470.121 62.9766C472.598 62.9766 473.801 62.1875 473.73 60.6172C473.582 56.5977 473.488 52.5664 473.449 48.5234C473.418 44.4727 473.402 40.4727 473.402 36.5234C473.402 36.0977 474.223 35.8828 475.871 35.8828C477.527 35.8828 478.356 36.0977 478.356 36.5234C478.356 40.2539 478.281 44.3789 478.137 48.8984C477.988 53.4102 477.844 57.4219 477.699 60.9297C477.625 62.5117 478.879 63.3047 481.465 63.3047C484.047 63.3047 485.301 62.5117 485.231 60.9297C485.082 57.7109 484.973 54.3281 484.902 50.7734C484.84 47.2227 484.809 43.8359 484.809 40.6172C484.809 37.3906 484.84 34.0195 484.902 30.5078C484.973 27 485.082 23.6289 485.231 20.3984C485.301 18.7539 484.063 17.9297 481.512 17.9297C478.969 17.9297 477.77 18.7539 477.918 20.3984C478.063 22.0469 478.172 23.6758 478.246 25.2891C478.316 26.9062 478.355 28.4297 478.355 29.8672C478.355 30.2969 477.527 30.5078 475.871 30.5078C474.223 30.5078 473.402 30.2969 473.402 29.8672C473.402 28.4297 473.418 26.9766 473.449 25.5078C473.488 24.0391 473.582 22.4102 473.73 20.6172ZM505.098 19.5391C502.086 19.5391 499.539 20.582 497.457 22.6641C495.383 24.7383 494.348 27.2812 494.348 30.2891C494.348 33.2266 495.383 35.7539 497.457 37.8672C499.539 39.9844 502.086 41.0391 505.098 41.0391C508.035 41.0391 510.559 39.9844 512.676 37.8672C514.789 35.7539 515.848 33.2266 515.848 30.2891C515.848 27.2812 514.789 24.7383 512.676 22.6641C510.559 20.582 508.035 19.5391 505.098 19.5391ZM505.098 25.6641C506.461 25.6641 507.57 26.082 508.426 26.9141C509.289 27.7383 509.723 28.8633 509.723 30.2891C509.723 31.6562 509.289 32.7695 508.426 33.6328C507.57 34.4883 506.461 34.9141 505.098 34.9141C503.73 34.9141 502.617 34.4883 501.754 33.6328C500.898 32.7695 500.473 31.6562 500.473 30.2891C500.473 28.8633 500.898 27.7383 501.754 26.9141C502.617 26.082 503.73 25.6641 505.098 25.6641ZM537.566 20.3984C537.918 18.7539 536.73 17.9297 534.004 17.9297C531.285 17.9297 529.996 18.7539 530.145 20.3984C530.289 22.1914 530.414 23.9297 530.52 25.6172C530.621 27.3047 530.676 29.1484 530.676 31.1484C530.676 33.1602 530.621 34.8984 530.52 36.3672C530.414 37.8359 530.289 39.4297 530.145 41.1484C529.996 42.7344 531.215 43.5234 533.801 43.5234C536.383 43.5234 537.602 42.7344 537.457 41.1484C537.383 40.6484 537.289 40.0625 537.176 39.3828C537.07 38.6953 537.164 38.25 537.457 38.0391C537.809 37.75 538.363 37.6406 539.113 37.7109C539.871 37.7852 540.648 37.8945 541.441 38.0391C543.086 38.1758 543.91 37.1719 543.91 35.0234C543.91 32.8789 543.086 31.875 541.441 32.0078C540.648 32.082 539.895 32.1562 539.176 32.2266C538.457 32.3008 537.957 32.2266 537.676 32.0078C537.383 31.8008 537.254 31.2852 537.285 30.4609C537.324 29.6289 537.418 29.0703 537.566 28.7891C537.711 28.5 538.176 28.3906 538.957 28.4609C539.746 28.5352 540.574 28.6445 541.441 28.7891C543.086 28.9375 543.91 27.9375 543.91 25.7891C543.91 23.6328 543.086 22.6289 541.441 22.7734C540.723 22.8359 539.895 22.9258 538.957 23.0391C538.027 23.1445 537.492 23.0547 537.348 22.7734C537.199 22.4844 537.18 22.125 537.285 21.6953C537.398 21.2578 537.492 20.8281 537.566 20.3984ZM522.191 42.0078C519.254 42.0078 516.762 43.0313 514.723 45.0703C512.68 47.1133 511.66 49.6094 511.66 52.5547C511.66 55.4219 512.68 57.8945 514.723 59.9766C516.762 62.0469 519.254 63.0859 522.191 63.0859C525.129 63.0859 527.617 62.0469 529.66 59.9766C531.699 57.8945 532.723 55.4219 532.723 52.5547C532.723 49.6094 531.699 47.1133 529.66 45.0703C527.617 43.0313 525.129 42.0078 522.191 42.0078ZM522.191 48.4609C523.262 48.4609 524.211 48.8594 525.035 49.6484C525.855 50.4297 526.27 51.3984 526.27 52.5547C526.27 53.6289 525.855 54.5781 525.035 55.3984C524.211 56.2227 523.262 56.6328 522.191 56.6328C521.043 56.6328 520.074 56.2227 519.285 55.3984C518.492 54.5781 518.098 53.6289 518.098 52.5547C518.098 51.3984 518.492 50.4297 519.285 49.6484C520.074 48.8594 521.043 48.4609 522.191 48.4609ZM567.434 21.1484C566.277 21.2969 564.875 21.4062 563.23 21.4766C561.582 21.5508 559.902 21.5859 558.184 21.5859C556.465 21.5859 554.762 21.5508 553.074 21.4766C551.387 21.4063 549.859 21.2969 548.496 21.1484C546.922 20.9414 546.137 22.0937 546.137 24.6016C546.137 27.1016 546.922 28.25 548.496 28.0391C549.859 27.8945 551.254 27.7852 552.684 27.7109C554.121 27.6406 555.734 27.6016 557.527 27.6016C559.184 27.6016 560.707 27.625 562.105 27.6641C563.5 27.6953 564.344 27.8594 564.637 28.1484C564.988 28.5039 565.184 29.5781 565.215 31.3672C565.254 33.1602 565.277 34.9883 565.277 36.8516C565.277 38.7187 565.254 40.6562 565.215 42.6641C565.184 44.6641 565.059 46.8828 564.84 49.3203C564.703 50.9062 565.996 51.6953 568.715 51.6953C571.441 51.6953 572.734 50.9062 572.59 49.3203C572.441 47.25 572.332 45.1406 572.262 42.9922C572.187 40.8359 572.152 38.7539 572.152 36.7422C572.152 34.6719 572.188 32.6875 572.262 30.7891C572.332 28.8828 572.441 27.0352 572.59 25.2422C572.734 23.5977 572.266 22.4531 571.184 21.8047C570.109 21.1602 568.859 20.9414 567.434 21.1484ZM584.199 20.3984C584.344 23.7031 584.449 27.0547 584.512 30.4609C584.582 33.8594 584.621 37.2422 584.621 40.6172C584.621 43.9102 584.582 47.2813 584.512 50.7266C584.449 54.1641 584.344 57.5664 584.199 60.9297C584.125 62.5117 585.344 63.3047 587.855 63.3047C590.363 63.3047 591.582 62.5117 591.512 60.9297C591.363 57.5664 591.254 54.1641 591.184 50.7266C591.109 47.2813 591.074 43.9102 591.074 40.6172C591.074 37.2422 591.109 33.8594 591.184 30.4609C591.254 27.0547 591.363 23.7031 591.512 20.3984C591.582 18.7539 590.363 17.9297 587.855 17.9297C585.344 17.9297 584.125 18.7539 584.199 20.3984ZM627.613 21.2578C625.602 21.4062 623.605 21.5352 621.629 21.6484C619.66 21.7539 617.676 21.8047 615.676 21.8047C613.664 21.8047 611.676 21.7539 609.707 21.6484C607.738 21.5352 605.746 21.4062 603.738 21.2578C602.164 21.1133 601.379 22.1172 601.379 24.2734C601.379 26.4219 602.164 27.3906 603.738 27.1797C605.383 26.9609 607.461 26.8516 609.973 26.8516C612.48 26.8516 613.559 27.0664 613.207 27.4922C611.195 29.7969 609.223 32.1289 607.285 34.4922C605.348 36.8594 603.379 39.2227 601.379 41.5859C600.441 42.7344 600.684 44.0391 602.113 45.5078C603.551 46.9766 604.738 47.1406 605.676 45.9922C607.32 43.9844 609.273 41.5469 611.535 38.6797C613.793 35.8164 615.176 34.3828 615.676 34.3828C616.176 34.3828 617.535 35.8164 619.754 38.6797C621.98 41.5469 623.883 44.0195 625.457 46.1016C626.602 47.6016 628.051 47.6563 629.801 46.2578C631.559 44.8633 631.727 43.375 630.301 41.7891C628.289 39.5703 626.262 37.2266 624.223 34.7578C622.18 32.2813 620.117 29.8594 618.035 27.4922C617.535 26.9219 618.555 26.6719 621.098 26.7422C623.648 26.8164 625.82 26.9609 627.613 27.1797C629.258 27.3906 630.082 26.4219 630.082 24.2734C630.082 22.1172 629.258 21.1133 627.613 21.2578ZM645.457 20.3984C645.602 18.7539 644.398 17.9297 641.848 17.9297C639.305 17.9297 638.07 18.7539 638.145 20.3984C638.289 23.6289 638.395 26.9844 638.457 30.4609C638.527 33.9297 638.566 37.2813 638.566 40.5078C638.566 43.7383 638.527 47.1445 638.457 50.7266C638.394 54.3125 638.289 57.7109 638.145 60.9297C638.07 62.5117 639.289 63.3047 641.801 63.3047C644.309 63.3047 645.527 62.5117 645.457 60.9297C645.309 56.7734 645.199 52.6758 645.129 48.6328C645.055 44.582 645.02 40.4766 645.02 36.3203C645.02 35.8125 645.539 35.5937 646.582 35.6641C647.621 35.7383 648.57 35.8828 649.426 36.1016C651.008 36.457 651.816 35.4375 651.848 33.0391C651.887 30.6328 651.082 29.6445 649.426 30.0703C648.645 30.2891 647.711 30.4219 646.629 30.4609C645.555 30.4922 645.02 30.2578 645.02 29.7578C645.02 28.5391 645.055 27.1602 645.129 25.6172C645.199 24.0781 645.309 22.3359 645.457 20.3984ZM676.078 20.9453C674.711 21.082 673.187 21.207 671.5 21.3203C669.82 21.4258 668.191 21.4766 666.609 21.4766C665.035 21.4766 663.457 21.4258 661.875 21.3203C660.301 21.207 658.766 21.082 657.266 20.9453C655.68 20.8008 654.891 21.8047 654.891 23.9609C654.891 26.1094 655.68 27.0703 657.266 26.8516C658.91 26.6328 660.57 26.4727 662.25 26.3672C663.937 26.2656 664.641 26.5 664.359 27.0703C662.848 30.1563 661.25 33.1875 659.562 36.1641C657.883 39.1328 656.187 42.1602 654.469 45.2422C653.75 46.5352 654.191 47.7383 655.797 48.8516C657.41 49.957 658.578 49.8633 659.297 48.5703C660.734 46.1328 662.164 43.5 663.594 40.6641C665.031 37.832 666 36.4141 666.5 36.4141C667 36.4141 667.945 37.832 669.344 40.6641C670.75 43.5 671.988 45.957 673.062 48.0391C673.852 49.5391 675.211 49.8047 677.141 48.8359C679.078 47.8672 679.508 46.4883 678.437 44.6953C677.07 42.4063 675.547 39.7539 673.859 36.7422C672.18 33.7344 670.41 30.5078 668.547 27.0703C668.191 26.4258 668.91 26.1758 670.703 26.3203C672.492 26.457 674.285 26.6328 676.078 26.8516C677.723 27.0703 678.547 26.0859 678.547 23.8984C678.547 21.7109 677.723 20.7266 676.078 20.9453ZM689.516 20.6172C689.66 18.9727 688.477 18.1484 685.969 18.1484C683.457 18.1484 682.238 18.9727 682.312 20.6172C682.457 23.8477 682.562 27.1133 682.625 30.4141C682.695 33.707 682.734 37.1094 682.734 40.6172C682.734 43.7734 682.695 47.0938 682.625 50.5703C682.562 54.0391 682.457 57.3906 682.312 60.6172C682.238 62.1875 683.437 62.9766 685.906 62.9766C688.383 62.9766 689.586 62.1875 689.516 60.6172C689.367 56.5977 689.273 52.5664 689.234 48.5234C689.203 44.4727 689.187 40.4727 689.187 36.5234C689.187 36.0977 690.008 35.8828 691.656 35.8828C693.312 35.8828 694.141 36.0977 694.141 36.5234C694.141 40.2539 694.066 44.3789 693.922 48.8984C693.773 53.4102 693.629 57.4219 693.484 60.9297C693.41 62.5117 694.664 63.3047 697.25 63.3047C699.832 63.3047 701.086 62.5117 701.016 60.9297C700.867 57.7109 700.758 54.3281 700.687 50.7734C700.625 47.2227 700.594 43.8359 700.594 40.6172C700.594 37.3906 700.625 34.0195 700.687 30.5078C700.758 27 700.867 23.6289 701.016 20.3984C701.086 18.7539 699.848 17.9297 697.297 17.9297C694.754 17.9297 693.555 18.7539 693.703 20.3984C693.848 22.0469 693.957 23.6758 694.031 25.2891C694.101 26.9062 694.141 28.4297 694.141 29.8672C694.141 30.2969 693.312 30.5078 691.656 30.5078C690.008 30.5078 689.187 30.2969 689.187 29.8672C689.187 28.4297 689.203 26.9766 689.234 25.5078C689.273 24.0391 689.367 22.4102 689.516 20.6172ZM751.742 19.7578C750.156 19.9062 747.555 20.0312 743.93 20.1328C740.312 20.2383 737.148 20.2891 734.43 20.2891C731.773 20.2891 727.969 20.2383 723.023 20.1328C718.086 20.0313 714.465 19.9062 712.164 19.7578C710.59 19.6133 709.805 20.7422 709.805 23.1484C709.805 25.5469 710.59 26.6406 712.164 26.4297C713.527 26.2852 716.914 26.1602 722.32 26.0547C727.734 25.9414 731.59 25.8828 733.883 25.8828C736.184 25.8828 739.23 25.9063 743.023 25.9453C746.824 25.9766 748.836 26.1719 749.055 26.5234C749.406 26.9609 749.562 27.7031 749.523 28.7422C749.492 29.7734 749.367 30.9726 749.148 32.3359C748.867 34.2031 750.156 35.1172 753.023 35.0859C755.887 35.0469 757.18 34.2383 756.898 32.6641C756.605 31.082 756.461 29.6641 756.461 28.4141C756.461 27.1562 756.605 25.8477 756.898 24.4922C757.25 22.8359 756.836 21.5976 755.648 20.7734C754.469 19.9531 753.168 19.6133 751.742 19.7578ZM757.227 37.9297C754.141 38.0781 750.016 38.2734 744.852 38.5234C739.695 38.7734 737.117 38.6797 737.117 38.2422C737.117 37.8906 737.133 37.5352 737.164 37.1797C737.203 36.8164 737.262 36.2734 737.336 35.5547C737.617 34.1289 736.375 33.4141 733.617 33.4141C730.855 33.4141 729.621 34.1289 729.914 35.5547C730.059 36.2031 730.133 36.707 730.133 37.0703C730.133 37.4258 730.133 37.8164 730.133 38.2422C730.133 38.6797 727.781 38.7734 723.086 38.5234C718.387 38.2734 714.105 38.0781 710.242 37.9297C708.656 37.8594 707.867 38.7891 707.867 40.7266C707.867 42.6562 708.656 43.5859 710.242 43.5234C714.25 43.3789 718.172 43.2695 722.008 43.1953C725.84 43.125 729.766 43.0859 733.789 43.0859C737.797 43.0859 741.773 43.125 745.711 43.1953C749.656 43.2695 753.496 43.3789 757.227 43.5234C758.871 43.5859 759.695 42.6328 759.695 40.6641C759.695 38.6953 758.871 37.7852 757.227 37.9297ZM733.789 50.0703C734.789 50.0703 735.68 50.4141 736.461 51.1016C737.25 51.7813 737.648 52.6563 737.648 53.7266C737.648 54.7383 737.25 55.6016 736.461 56.3203C735.68 57.0313 734.789 57.3828 733.789 57.3828C732.703 57.3828 731.789 57.0313 731.039 56.3203C730.289 55.6016 729.914 54.7383 729.914 53.7266C729.914 52.6563 730.289 51.7813 731.039 51.1016C731.789 50.4141 732.703 50.0703 733.789 50.0703ZM733.789 44.2734C731.133 44.2734 728.812 45.1719 726.836 46.9609C724.867 48.7539 723.883 51.0078 723.883 53.7266C723.883 56.3828 724.867 58.625 726.836 60.4453C728.812 62.2773 731.133 63.1953 733.789 63.1953C736.434 63.1953 738.742 62.2773 740.711 60.4453C742.687 58.625 743.68 56.3828 743.68 53.7266C743.68 51.0078 742.687 48.7539 740.711 46.9609C738.742 45.1719 736.434 44.2734 733.789 44.2734ZM774.828 19.5391C771.816 19.5391 769.27 20.582 767.187 22.6641C765.113 24.7383 764.078 27.2812 764.078 30.2891C764.078 33.2266 765.113 35.7539 767.187 37.8672C769.27 39.9844 771.816 41.0391 774.828 41.0391C777.766 41.0391 780.289 39.9844 782.406 37.8672C784.519 35.7539 785.578 33.2266 785.578 30.2891C785.578 27.2812 784.519 24.7383 782.406 22.6641C780.289 20.582 777.766 19.5391 774.828 19.5391ZM774.828 25.6641C776.191 25.6641 777.301 26.082 778.156 26.9141C779.019 27.7383 779.453 28.8633 779.453 30.2891C779.453 31.6562 779.019 32.7695 778.156 33.6328C777.301 34.4883 776.191 34.9141 774.828 34.9141C773.461 34.9141 772.348 34.4883 771.484 33.6328C770.629 32.7695 770.203 31.6562 770.203 30.2891C770.203 28.8633 770.629 27.7383 771.484 26.9141C772.348 26.082 773.461 25.6641 774.828 25.6641ZM799.984 39.4297C799.766 41.0039 800.961 41.7891 803.578 41.7891C806.203 41.7891 807.441 41.0039 807.297 39.4297C807.148 37.7852 807.039 36.2109 806.969 34.7109C806.894 33.2031 806.859 31.625 806.859 29.9766C806.859 28.3203 806.895 26.7969 806.969 25.3984C807.039 24.0039 807.148 22.3359 807.297 20.3984C807.441 18.7539 806.203 17.9297 803.578 17.9297C800.961 17.9297 799.766 18.7539 799.984 20.3984C800.129 21.6172 800.234 22.7695 800.297 23.8516C800.367 24.9258 800.406 25.9258 800.406 26.8516C800.406 27.3516 799.312 27.5508 797.125 27.4453C794.945 27.3438 793.066 27.2188 791.484 27.0703C789.91 26.9258 789.101 28 789.062 30.2891C789.031 32.582 789.836 33.6602 791.484 33.5234C792.922 33.3789 794.766 33.2695 797.016 33.1953C799.273 33.125 800.406 33.3359 800.406 33.8359C800.406 34.5547 800.367 35.3984 800.297 36.3672C800.234 37.3359 800.129 38.3594 799.984 39.4297ZM772.25 51.5859C772.531 51.2969 777.148 51.1484 786.109 51.1484C795.066 51.1484 799.656 51.332 799.875 51.6953C800.094 51.9766 800.18 52.6406 800.141 53.6797C800.109 54.7227 799.984 55.3828 799.766 55.6641C799.555 55.957 794.969 56.0859 786 56.0547C777.039 56.0156 772.422 55.8477 772.141 55.5547C771.922 55.3477 771.812 54.707 771.812 53.6328C771.812 52.5508 771.957 51.8672 772.25 51.5859ZM772.031 45.8828C772.457 43.5195 771.219 42.4258 768.312 42.6016C765.414 42.7812 764.07 43.6953 764.281 45.3516C764.426 46.5 764.551 47.6641 764.656 48.8516C764.77 50.0313 764.828 50.9414 764.828 51.5859C764.828 52.2344 764.77 53.0938 764.656 54.1641C764.551 55.2383 764.426 56.2734 764.281 57.2734C764 58.8594 764.43 60.0625 765.578 60.8828C766.723 61.7031 767.941 62.043 769.234 61.8984C770.598 61.75 772.766 61.6406 775.734 61.5703C778.711 61.5078 782.031 61.4766 785.687 61.4766C789.344 61.4766 792.727 61.5078 795.844 61.5703C798.957 61.6406 801.195 61.75 802.562 61.8984C804.07 62.043 805.328 61.7578 806.328 61.0391C807.328 60.3203 807.687 59.1406 807.406 57.4922C807.258 56.4922 807.129 55.4375 807.016 54.3203C806.91 53.207 806.859 52.332 806.859 51.6953C806.859 50.9766 806.91 50.0313 807.016 48.8516C807.129 47.6641 807.258 46.5313 807.406 45.4453C807.687 43.8008 806.359 42.8906 803.422 42.7109C800.484 42.5352 799.266 43.6641 799.766 46.1016C799.41 46.3828 794.77 46.4883 785.844 46.4141C776.914 46.3437 772.312 46.1641 772.031 45.8828ZM831.023 27.3828C832.168 27.3828 833.152 27.7813 833.977 28.5703C834.809 29.3633 835.227 30.3672 835.227 31.5859C835.227 32.7344 834.809 33.7187 833.977 34.5391C833.152 35.3633 832.168 35.7734 831.023 35.7734C829.875 35.7734 828.891 35.3633 828.07 34.5391C827.246 33.7187 826.836 32.7344 826.836 31.5859C826.836 30.3672 827.246 29.3633 828.07 28.5703C828.891 27.7813 829.875 27.3828 831.023 27.3828ZM831.023 19.1172C829.73 19.1172 828.852 19.3672 828.383 19.8672C827.922 20.3672 827.73 21.1562 827.805 22.2266C826.086 22.3008 824.398 22.3203 822.742 22.2891C821.094 22.25 819.484 22.0859 817.914 21.8047C816.477 21.5156 815.758 22.4609 815.758 24.6484C815.758 26.8359 816.402 27.7852 817.695 27.4922C818.34 27.3594 819.148 27.2734 820.117 27.2422C821.086 27.2031 821.82 27.2852 822.32 27.4922C822.027 27.8594 821.734 28.4726 821.445 29.3359C821.164 30.1914 821.023 31.0156 821.023 31.8047C821.023 34.0977 821.934 36.25 823.758 38.2578C825.59 40.2578 828.012 41.2578 831.023 41.2578C834.18 41.2578 836.617 40.2031 838.336 38.0859C840.055 35.9726 840.914 33.8047 840.914 31.5859C840.914 30.7969 840.766 30.0234 840.477 29.2734C840.195 28.5234 839.875 27.9297 839.523 27.4922C840.312 27.3594 841.062 27.2891 841.773 27.2891C842.492 27.2891 843.211 27.3594 843.93 27.4922C845.367 27.7852 846.102 26.8594 846.133 24.7109C846.164 22.5547 845.355 21.5859 843.711 21.8047C842.062 22.0156 840.469 22.1562 838.93 22.2266C837.387 22.3008 835.828 22.3008 834.258 22.2266C834.465 21.2266 834.297 20.4609 833.758 19.9297C833.227 19.3906 832.312 19.1172 831.023 19.1172ZM853.93 40.5078C853.711 41.582 854.922 42.1406 857.57 42.1797C860.227 42.2109 861.484 41.5469 861.352 40.1797C861.203 38.1797 861.074 36.6094 860.961 35.4609C860.855 34.3047 860.805 32.7266 860.805 30.7266C860.805 28.7187 860.84 27 860.914 25.5703C860.984 24.1328 861.094 22.4102 861.242 20.3984C861.387 18.7539 860.133 17.9297 857.476 17.9297C854.82 17.9297 853.601 18.7539 853.82 20.3984C853.965 21.1172 854.09 21.8203 854.195 22.5078C854.297 23.1875 854.211 23.6289 853.93 23.8359C853.637 24.1289 853.023 24.2227 852.086 24.1172C851.156 24.0039 850.305 23.9102 849.523 23.8359C847.937 23.7031 847.148 24.6914 847.148 26.8047C847.148 28.9219 847.937 29.9414 849.523 29.8672C850.305 29.7969 851.141 29.7227 852.039 29.6484C852.945 29.5781 853.539 29.6484 853.82 29.8672C854.109 30.0781 854.234 30.5977 854.195 31.4297C854.164 32.2539 854.074 32.8047 853.93 33.0859C853.781 33.3789 853.226 33.4727 852.258 33.3672C851.289 33.2539 850.375 33.1602 849.523 33.0859C847.937 32.9414 847.148 33.9609 847.148 36.1484C847.148 38.3359 847.937 39.3203 849.523 39.1016C850.305 38.9687 851.195 38.8828 852.195 38.8516C853.203 38.8125 853.82 38.8945 854.039 39.1016C854.184 39.25 854.219 39.4297 854.148 39.6484C854.074 39.8672 854 40.1563 853.93 40.5078ZM826.195 51.5859C826.477 51.2969 831.094 51.1484 840.055 51.1484C849.012 51.1484 853.602 51.332 853.82 51.6953C854.039 51.9766 854.125 52.6406 854.086 53.6797C854.055 54.7227 853.93 55.3828 853.711 55.6641C853.5 55.957 848.914 56.0859 839.945 56.0547C830.984 56.0156 826.367 55.8477 826.086 55.5547C825.867 55.3477 825.758 54.707 825.758 53.6328C825.758 52.5508 825.902 51.8672 826.195 51.5859ZM825.977 45.8828C826.402 43.5195 825.164 42.4258 822.258 42.6016C819.359 42.7812 818.016 43.6953 818.227 45.3516C818.371 46.5 818.496 47.6641 818.602 48.8516C818.715 50.0313 818.773 50.9414 818.773 51.5859C818.773 52.2344 818.715 53.0938 818.602 54.1641C818.496 55.2383 818.371 56.2734 818.227 57.2734C817.945 58.8594 818.375 60.0625 819.523 60.8828C820.668 61.7031 821.887 62.043 823.18 61.8984C824.543 61.75 826.711 61.6406 829.68 61.5703C832.656 61.5078 835.977 61.4766 839.633 61.4766C843.289 61.4766 846.672 61.5078 849.789 61.5703C852.902 61.6406 855.141 61.75 856.508 61.8984C858.016 62.043 859.273 61.7578 860.273 61.0391C861.273 60.3203 861.633 59.1406 861.352 57.4922C861.203 56.4922 861.074 55.4375 860.961 54.3203C860.855 53.207 860.805 52.332 860.805 51.6953C860.805 50.9766 860.855 50.0313 860.961 48.8516C861.074 47.6641 861.203 46.5313 861.352 45.4453C861.633 43.8008 860.305 42.8906 857.367 42.7109C854.43 42.5352 853.211 43.6641 853.711 46.1016C853.355 46.3828 848.715 46.4883 839.789 46.4141C830.859 46.3437 826.258 46.1641 825.977 45.8828ZM891.75 35.0234V35.5547C891.894 36.2031 891.969 36.707 891.969 37.0703C891.969 37.4258 891.969 37.8164 891.969 38.2422C891.969 38.6797 889.617 38.7734 884.922 38.5234C880.223 38.2734 875.941 38.0781 872.078 37.9297C870.492 37.8594 869.703 38.7891 869.703 40.7266C869.703 42.6562 870.492 43.5859 872.078 43.5234C876.086 43.3789 880.008 43.2695 883.844 43.1953C887.676 43.125 891.602 43.0859 895.625 43.0859C899.633 43.0859 903.609 43.125 907.547 43.1953C911.492 43.2695 915.332 43.3789 919.062 43.5234C920.707 43.5859 921.531 42.6328 921.531 40.6641C921.531 38.6953 920.707 37.7852 919.062 37.9297C915.977 38.0781 911.852 38.2734 906.687 38.5234C901.531 38.7734 898.953 38.6797 898.953 38.2422C898.953 37.8906 898.969 37.5352 899 37.1797C899.039 36.8164 899.098 36.2734 899.172 35.5547C899.234 35.4219 899.25 35.2813 899.219 35.1328C899.188 34.9883 899.098 34.8438 898.953 34.6953C902.535 34.7695 905.973 34.8437 909.266 34.9141C912.566 34.9883 915.004 35.0977 916.578 35.2422C918.234 35.3906 919.062 34.4062 919.062 32.2891C919.062 30.1758 918.234 29.1875 916.578 29.3203C914.785 29.4688 911.664 29.5781 907.219 29.6484C902.781 29.7227 898.879 29.7578 895.516 29.7578C892.211 29.7578 889.094 29.7422 886.156 29.7109C883.219 29.6719 881.102 29.5391 879.812 29.3203C879.738 28.6133 879.703 27.9883 879.703 27.4453C879.703 26.9062 879.773 26.3476 879.922 25.7734C880.273 25.4922 882.133 25.3359 885.5 25.3047C888.875 25.2656 892.211 25.2422 895.516 25.2422C898.879 25.2422 902.727 25.2813 907.062 25.3516C911.406 25.4258 914.508 25.5312 916.375 25.6641C918.019 25.8125 918.844 24.8281 918.844 22.7109C918.844 20.5977 918.019 19.6133 916.375 19.7578C914.363 19.9062 911.223 20.0156 906.953 20.0859C902.691 20.1484 898.879 20.1797 895.516 20.1797C892.211 20.1797 888.695 20.1484 884.969 20.0859C881.238 20.0156 878.695 19.9062 877.344 19.7578C875.551 19.5391 874.148 19.9531 873.141 20.9922C872.141 22.0352 871.785 23.1641 872.078 24.3828C872.359 25.6758 872.5 26.7344 872.5 27.5547C872.5 28.3789 872.359 29.3984 872.078 30.6172C871.641 32.4844 871.941 33.7734 872.984 34.4922C874.023 35.2031 875.297 35.4883 876.797 35.3516C878.234 35.207 880.273 35.0977 882.922 35.0234C885.578 34.9531 888.519 34.9531 891.75 35.0234ZM895.625 44.2734C892.969 44.2734 890.648 45.1719 888.672 46.9609C886.703 48.7539 885.719 51.0078 885.719 53.7266C885.719 56.3828 886.703 58.625 888.672 60.4453C890.648 62.2773 892.969 63.1953 895.625 63.1953C898.269 63.1953 900.578 62.2773 902.547 60.4453C904.523 58.625 905.516 56.3828 905.516 53.7266C905.516 51.0078 904.523 48.7539 902.547 46.9609C900.578 45.1719 898.269 44.2734 895.625 44.2734ZM895.625 50.0703C896.625 50.0703 897.516 50.4141 898.297 51.1016C899.086 51.7813 899.484 52.6563 899.484 53.7266C899.484 54.7383 899.086 55.6016 898.297 56.3203C897.516 57.0313 896.625 57.3828 895.625 57.3828C894.539 57.3828 893.625 57.0313 892.875 56.3203C892.125 55.6016 891.75 54.7383 891.75 53.7266C891.75 52.6563 892.125 51.7813 892.875 51.1016C893.625 50.4141 894.539 50.0703 895.625 50.0703ZM969.664 22.4453C966.152 22.5937 962.781 22.7031 959.555 22.7734C956.336 22.8359 952.969 22.8672 949.461 22.8672C945.937 22.8672 942.547 22.8359 939.289 22.7734C936.027 22.7031 932.641 22.5937 929.133 22.4453C927.559 22.375 926.773 23.3789 926.773 25.4609C926.773 27.5352 927.559 28.5352 929.133 28.4609C931.422 28.3281 934.984 28.1133 939.82 27.8203C944.664 27.5313 946.656 27.707 945.805 28.3516C943.293 30.2187 940.547 32.1719 937.57 34.2109C934.602 36.2539 931.824 38.1016 929.242 39.7578C927.594 40.832 927.258 42.2656 928.227 44.0547C929.195 45.8477 930.32 46.3477 931.602 45.5547C934.609 43.6914 938.156 41.3125 942.242 38.4141C946.336 35.5078 948.742 34.0547 949.461 34.0547C950.168 34.0547 952.602 35.5469 956.758 38.5234C960.922 41.4922 964.437 43.9453 967.305 45.8828C968.594 46.75 969.793 46.3359 970.898 44.6484C972.012 42.9609 971.852 41.582 970.414 40.5078C968.34 39 965.703 37.0977 962.508 34.8047C959.32 32.5156 956.328 30.3633 953.539 28.3516C952.82 27.7812 954.824 27.625 959.555 27.8828C964.293 28.1328 967.664 28.3281 969.664 28.4609C971.309 28.5352 972.133 27.5352 972.133 25.4609C972.133 23.3789 971.309 22.375 969.664 22.4453ZM973.211 54.3828C970.562 54.5195 966.461 54.7344 960.898 55.0234C955.344 55.3047 952.57 55.2344 952.57 54.8047C952.57 53.8047 952.606 52.8203 952.68 51.8516C952.75 50.8828 952.824 49.7891 952.898 48.5703C953.043 46.9258 951.805 46.1016 949.18 46.1016C946.562 46.1016 945.328 46.9258 945.476 48.5703C945.621 49.7188 945.711 50.7969 945.742 51.8047C945.781 52.8047 945.805 53.8047 945.805 54.8047C945.805 55.2344 943.258 55.3047 938.164 55.0234C933.078 54.7344 928.996 54.5195 925.914 54.3828C924.328 54.2383 923.5 55.2969 923.43 57.5547C923.367 59.8047 924.121 60.8906 925.695 60.8203C929.703 60.6836 933.664 60.5781 937.57 60.5078C941.477 60.4336 945.437 60.3984 949.461 60.3984C953.469 60.3984 957.496 60.4336 961.539 60.5078C965.59 60.5781 969.48 60.6836 973.211 60.8203C974.867 60.8906 975.695 59.8047 975.695 57.5547C975.695 55.2969 974.867 54.2383 973.211 54.3828ZM992.859 27.3828C994.004 27.3828 994.988 27.7813 995.812 28.5703C996.644 29.3633 997.062 30.3672 997.062 31.5859C997.062 32.7344 996.644 33.7187 995.812 34.5391C994.988 35.3633 994.004 35.7734 992.859 35.7734C991.711 35.7734 990.727 35.3633 989.906 34.5391C989.082 33.7187 988.672 32.7344 988.672 31.5859C988.672 30.3672 989.082 29.3633 989.906 28.5703C990.727 27.7813 991.711 27.3828 992.859 27.3828ZM992.859 19.1172C991.566 19.1172 990.687 19.3672 990.219 19.8672C989.758 20.3672 989.566 21.1562 989.641 22.2266C987.922 22.3008 986.234 22.3203 984.578 22.2891C982.93 22.25 981.32 22.0859 979.75 21.8047C978.312 21.5156 977.594 22.4609 977.594 24.6484C977.594 26.8359 978.238 27.7852 979.531 27.4922C980.176 27.3594 980.984 27.2734 981.953 27.2422C982.922 27.2031 983.656 27.2852 984.156 27.4922C983.863 27.8594 983.57 28.4726 983.281 29.3359C983 30.1914 982.859 31.0156 982.859 31.8047C982.859 34.0977 983.769 36.25 985.594 38.2578C987.426 40.2578 989.848 41.2578 992.859 41.2578C996.016 41.2578 998.453 40.2031 1000.17 38.0859C1001.89 35.9726 1002.75 33.8047 1002.75 31.5859C1002.75 30.7969 1002.6 30.0234 1002.31 29.2734C1002.03 28.5234 1001.71 27.9297 1001.36 27.4922C1002.15 27.3594 1002.9 27.2891 1003.61 27.2891C1004.33 27.2891 1005.05 27.3594 1005.77 27.4922C1007.2 27.7852 1007.94 26.8594 1007.97 24.7109C1008 22.5547 1007.19 21.5859 1005.55 21.8047C1003.9 22.0156 1002.3 22.1562 1000.77 22.2266C999.223 22.3008 997.664 22.3008 996.094 22.2266C996.301 21.2266 996.133 20.4609 995.594 19.9297C995.062 19.3906 994.148 19.1172 992.859 19.1172ZM1023.08 20.3984C1023.29 18.8281 1022.06 18.0234 1019.41 17.9922C1016.76 17.9531 1015.51 18.7539 1015.66 20.3984C1015.8 21.9844 1015.93 23.5625 1016.03 25.1328C1016.13 26.707 1016.19 28.3203 1016.19 29.9766C1016.19 31.5508 1016.13 33.1289 1016.03 34.7109C1015.93 36.2852 1015.8 37.8945 1015.66 39.5391C1015.51 41.1133 1016.76 41.8984 1019.41 41.8984C1022.06 41.8984 1023.29 41.1133 1023.08 39.5391C1022.93 38.3945 1022.82 37.2852 1022.75 36.2109C1022.68 35.1289 1022.64 34.0508 1022.64 32.9766C1022.64 32.4766 1023.16 32.3008 1024.2 32.4453C1025.24 32.5938 1026.19 32.7695 1027.05 32.9766C1028.63 33.3437 1029.42 32.2187 1029.42 29.6016C1029.42 26.9766 1028.63 25.9531 1027.05 26.5234C1026.27 26.8164 1025.33 26.9258 1024.25 26.8516C1023.18 26.7813 1022.64 26.4922 1022.64 25.9922C1022.64 25.2031 1022.68 24.3437 1022.75 23.4141C1022.82 22.4766 1022.93 21.4727 1023.08 20.3984ZM988.031 51.5859C988.312 51.2969 992.93 51.1484 1001.89 51.1484C1010.85 51.1484 1015.44 51.332 1015.66 51.6953C1015.87 51.9766 1015.96 52.6406 1015.92 53.6797C1015.89 54.7227 1015.77 55.3828 1015.55 55.6641C1015.34 55.957 1010.75 56.0859 1001.78 56.0547C992.82 56.0156 988.203 55.8477 987.922 55.5547C987.703 55.3477 987.594 54.707 987.594 53.6328C987.594 52.5508 987.738 51.8672 988.031 51.5859ZM987.812 45.8828C988.238 43.5195 987 42.4258 984.094 42.6016C981.195 42.7812 979.852 43.6953 980.062 45.3516C980.207 46.5 980.332 47.6641 980.437 48.8516C980.551 50.0313 980.609 50.9414 980.609 51.5859C980.609 52.2344 980.551 53.0938 980.437 54.1641C980.332 55.2383 980.207 56.2734 980.062 57.2734C979.781 58.8594 980.211 60.0625 981.359 60.8828C982.504 61.7031 983.723 62.043 985.016 61.8984C986.379 61.75 988.547 61.6406 991.516 61.5703C994.492 61.5078 997.812 61.4766 1001.47 61.4766C1005.12 61.4766 1008.51 61.5078 1011.62 61.5703C1014.74 61.6406 1016.98 61.75 1018.34 61.8984C1019.85 62.043 1021.11 61.7578 1022.11 61.0391C1023.11 60.3203 1023.47 59.1406 1023.19 57.4922C1023.04 56.4922 1022.91 55.4375 1022.8 54.3203C1022.69 53.207 1022.64 52.332 1022.64 51.6953C1022.64 50.9766 1022.69 50.0313 1022.8 48.8516C1022.91 47.6641 1023.04 46.5313 1023.19 45.4453C1023.47 43.8008 1022.14 42.8906 1019.2 42.7109C1016.27 42.5352 1015.05 43.6641 1015.55 46.1016C1015.19 46.3828 1010.55 46.4883 1001.62 46.4141C992.695 46.3437 988.094 46.1641 987.812 45.8828Z" fill="#024EA2"/>
</g>
</g>
<defs>
<linearGradient id="paint0_linear_5_64" x1="100.02" y1="50.9604" x2="177.586" y2="57.2991" gradientUnits="userSpaceOnUse">
<stop stop-color="#0066B3"/>
<stop offset="0.471909" stop-color="#00AEEF"/>
<stop offset="0.926971" stop-color="white"/>
<stop offset="1" stop-color="white"/>
</linearGradient>
<linearGradient id="paint1_linear_5_64" x1="102.193" y1="52.3313" x2="175.712" y2="58.3392" gradientUnits="userSpaceOnUse">
<stop stop-color="#0066B3"/>
<stop offset="0.471909" stop-color="#00AEEF"/>
<stop offset="0.926971" stop-color="white"/>
<stop offset="1" stop-color="white"/>
</linearGradient>
<linearGradient id="paint2_linear_5_64" x1="100.859" y1="49.6891" x2="175.22" y2="55.7658" gradientUnits="userSpaceOnUse">
<stop stop-color="#0066B3"/>
<stop offset="0.471909" stop-color="#00AEEF"/>
<stop offset="0.926971" stop-color="white"/>
<stop offset="1" stop-color="white"/>
</linearGradient>
<clipPath id="clip0_5_64">
<rect width="1029" height="118" fill="white"/>
</clipPath>
</defs>
</svg>
