<svg width="714" height="148" viewBox="0 0 714 148" fill="none" xmlns="http://www.w3.org/2000/svg">
<g clip-path="url(#clip0_1_19012)">
<mask id="mask0_1_19012" style="mask-type:luminance" maskUnits="userSpaceOnUse" x="-191" y="-351" width="1123" height="794">
<path d="M-191 -351H931.52V442.701H-191V-351Z" fill="white"/>
</mask>
<g mask="url(#mask0_1_19012)">
<path d="M45.8949 127.738L87.1003 147.859L128.024 64.0551H76.9936L45.8949 127.738Z" fill="#1B2867"/>
</g>
<mask id="mask1_1_19012" style="mask-type:luminance" maskUnits="userSpaceOnUse" x="-191" y="-351" width="1123" height="794">
<path d="M-191 -351H931.52V442.701H-191V-351Z" fill="white"/>
</mask>
<g mask="url(#mask1_1_19012)">
<path d="M76.7541 0.467667L45.7021 64.0557H96.7315L127.785 0.467667H76.7541Z" fill="#1B2867"/>
</g>
<mask id="mask2_1_19012" style="mask-type:luminance" maskUnits="userSpaceOnUse" x="-191" y="-351" width="1123" height="794">
<path d="M-191 -351H931.52V442.701H-191V-351Z" fill="white"/>
</mask>
<g mask="url(#mask2_1_19012)">
<path d="M-0.158127 0.46759V105.233L45.6952 127.75L45.6965 0.46759H-0.158127Z" fill="#1B2867"/>
</g>
<mask id="mask3_1_19012" style="mask-type:luminance" maskUnits="userSpaceOnUse" x="-191" y="-351" width="1123" height="794">
<path d="M-191 -351H931.52V442.701H-191V-351Z" fill="white"/>
</mask>
<g mask="url(#mask3_1_19012)">
<path d="M203.764 28.9335H181.565V34.8135H203.764V28.9335ZM211.324 15.6735V41.1122H174.005V15.6735H181.565V22.5735H203.764V15.6735H211.324ZM218.224 46.0922V52.5122H196.505V69.3708H188.885V52.5122H167.105V46.0922H218.224Z" fill="#444141"/>
</g>
<mask id="mask4_1_19012" style="mask-type:luminance" maskUnits="userSpaceOnUse" x="-191" y="-351" width="1123" height="794">
<path d="M-191 -351H931.52V442.701H-191V-351Z" fill="white"/>
</mask>
<g mask="url(#mask4_1_19012)">
<path d="M273.784 28.2731H281.102V34.8731H273.784V53.1717H266.224V13.5731H273.784V28.2731ZM246.785 62.2917H275.104V68.7717H239.165V49.8117H246.785V62.2917ZM245.945 35.5931C245.704 36.6131 244.085 38.1731 242.285 39.8531C239.585 42.3717 237.065 44.5331 233.345 47.5317L228.665 42.0131C231.785 39.6131 235.086 36.7331 237.845 34.0931C240.725 31.3331 241.865 28.8131 241.865 24.7331V16.0331H249.544V24.4331C249.544 28.8131 250.324 30.7931 253.444 33.4931C256.324 35.9531 259.324 38.2331 262.204 40.2731L257.824 45.5517C255.484 43.8717 252.845 41.8331 250.025 39.5531C247.924 37.8731 246.365 36.6131 246.005 35.5931H245.945Z" fill="#444141"/>
</g>
<mask id="mask5_1_19012" style="mask-type:luminance" maskUnits="userSpaceOnUse" x="-191" y="-351" width="1123" height="794">
<path d="M-191 -351H931.52V442.701H-191V-351Z" fill="white"/>
</mask>
<g mask="url(#mask5_1_19012)">
<path d="M298.563 50.1121H313.502V41.6521H291.903V35.2921H326.822C327.662 31.5721 327.962 27.4934 327.962 24.6734V22.0334H298.563V15.6134H335.522V24.2534C335.522 26.9534 335.041 31.6321 334.382 35.2921H343.022V41.6521H321.062V50.1121H336.122V70.0308H328.562V56.4721H298.563V50.1121Z" fill="#444141"/>
</g>
<mask id="mask6_1_19012" style="mask-type:luminance" maskUnits="userSpaceOnUse" x="-191" y="-351" width="1123" height="794">
<path d="M-191 -351H931.52V442.701H-191V-351Z" fill="white"/>
</mask>
<g mask="url(#mask6_1_19012)">
<path d="M402.961 69.3708H395.761V13.5735H402.961V69.3708ZM384.543 38.3522H377.703V31.7535H384.543V14.7135H391.741V66.6722H384.543V38.3522ZM355.623 18.9135H380.521V25.3935H371.943V32.4735C371.943 36.5522 372.903 38.6522 375.363 41.7122C377.583 44.5322 380.643 47.7722 383.223 50.2922L378.241 54.9722C375.963 52.5722 373.503 49.9922 371.703 47.8322C370.263 46.1522 369.003 44.6522 368.583 43.6922H368.523C368.163 44.6522 366.844 46.2722 365.344 48.0722C363.363 50.4722 360.604 53.5321 358.143 55.9921L353.164 51.0122C355.623 48.6122 358.743 45.2522 361.023 42.3722C363.603 39.1322 364.564 36.9722 364.564 32.5335V25.3935H355.623V18.9135Z" fill="#444141"/>
</g>
<mask id="mask7_1_19012" style="mask-type:luminance" maskUnits="userSpaceOnUse" x="-191" y="-351" width="1123" height="794">
<path d="M-191 -351H931.52V442.701H-191V-351Z" fill="white"/>
</mask>
<g mask="url(#mask7_1_19012)">
<path d="M431.341 63.1922H453.181V53.8922H431.341V63.1922ZM423.843 47.7122H460.681V69.3708H423.843V47.7122ZM451.561 35.5922C452.4 31.8122 452.76 27.6135 452.76 24.7335V22.1535H423.361V15.7335H460.32V24.3135C460.32 27.0735 459.84 31.9335 459.121 35.5922H467.82V42.0122H416.701V35.5922H451.561Z" fill="#444141"/>
</g>
<mask id="mask8_1_19012" style="mask-type:luminance" maskUnits="userSpaceOnUse" x="-191" y="-351" width="1123" height="794">
<path d="M-191 -351H931.52V442.701H-191V-351Z" fill="white"/>
</mask>
<g mask="url(#mask8_1_19012)">
<path d="M510.36 49.6321V44.8921H498.96V49.6321C500.762 49.3921 502.68 49.2121 504.662 49.2121C506.64 49.2121 508.56 49.3921 510.36 49.6321ZM494.162 59.7121V60.5521C494.162 63.2521 499.322 64.9321 504.662 64.9321C510 64.9321 515.16 63.2521 515.16 60.5521V59.7121C515.16 57.0121 510 55.3321 504.662 55.3321C499.322 55.3321 494.162 57.0121 494.162 59.7121ZM493.862 24.6735V25.6334C493.862 28.2134 498.542 30.0734 504.662 30.0734C510.78 30.0734 515.46 28.2134 515.46 25.6334V24.6735C515.46 22.0934 510.78 20.2334 504.662 20.2334C498.542 20.2334 493.862 22.0934 493.862 24.6735ZM486.362 25.8734V24.4334C486.362 17.7734 493.922 14.1134 504.662 14.1134C515.4 14.1134 522.959 17.7734 522.959 24.4334V25.8734C522.959 32.5334 515.4 36.1921 504.662 36.1921C493.922 36.1921 486.362 32.5334 486.362 25.8734ZM486.662 61.0321V59.2321C486.662 56.0521 488.522 53.6521 491.52 51.9721V44.8921H479.102V38.7721H530.22V44.8921H517.8V51.9721C520.8 53.6521 522.66 56.0521 522.66 59.2321V61.0321C522.66 67.7521 514.38 71.0508 504.662 71.0508C494.942 71.0508 486.662 67.7521 486.662 61.0321Z" fill="#444141"/>
</g>
<mask id="mask9_1_19012" style="mask-type:luminance" maskUnits="userSpaceOnUse" x="-191" y="-351" width="1123" height="794">
<path d="M-191 -351H931.52V442.701H-191V-351Z" fill="white"/>
</mask>
<g mask="url(#mask9_1_19012)">
<path d="M587.879 53.2921H580.319V13.5734H587.879V53.2921ZM559.979 62.2921H588.779V68.7708H552.359V50.0521H559.979V62.2921ZM544.86 17.0534H573.779V23.5334H563.34V27.7334C563.34 30.6721 564.06 32.4134 567.239 34.8721C569.759 36.7921 572.819 38.8921 575.819 40.8121L571.739 46.2121C569.099 44.4721 566.519 42.6721 564.299 41.0521C561.78 39.1921 560.22 37.8121 559.979 37.2121H559.919C559.679 37.9321 558 39.5521 555.239 41.7121C552.66 43.7521 549.959 45.8521 546.959 47.9521L542.52 42.3721C546.3 39.7921 549.959 36.9721 552.48 34.7534C554.579 32.8934 555.78 30.6721 555.78 27.7334V23.5334H544.86V17.0534Z" fill="#444141"/>
</g>
<mask id="mask10_1_19012" style="mask-type:luminance" maskUnits="userSpaceOnUse" x="-191" y="-351" width="1123" height="794">
<path d="M-191 -351H931.52V442.701H-191V-351Z" fill="white"/>
</mask>
<g mask="url(#mask10_1_19012)">
<path d="M619.979 33.1927V33.6727C619.979 35.1127 623.099 36.2527 629.459 36.2527C635.819 36.2527 638.939 35.1127 638.939 33.6727V33.1927C638.939 31.7527 635.819 30.6127 629.459 30.6127C623.099 30.6127 619.979 31.7527 619.979 33.1927ZM618.899 61.0314V61.7514C618.899 64.2714 624.119 65.2914 629.459 65.2914C634.799 65.2914 640.017 64.2714 640.017 61.7514V61.0314C640.017 58.5114 634.799 57.4914 629.459 57.4914C624.119 57.4914 618.899 58.5114 618.899 61.0314ZM612.479 34.3327V32.5327C612.479 27.5527 619.079 24.8527 629.459 24.8527C639.839 24.8527 646.439 27.5527 646.439 32.5327V34.3327C646.439 39.3127 639.839 42.0127 629.459 42.0127C619.079 42.0127 612.479 39.3127 612.479 34.3327ZM611.459 62.2314V60.5514C611.459 53.9514 619.619 51.6114 629.459 51.6114C639.297 51.6114 647.457 53.9514 647.457 60.5514V62.2314C647.457 68.8314 639.297 71.1714 629.459 71.1714C619.619 71.1714 611.459 68.8314 611.459 62.2314ZM633.239 17.2327H649.797V23.1727H609.119V17.2327H625.619V12.0741H633.239V17.2327ZM655.017 49.7514H603.899V43.8114H655.017V49.7514Z" fill="#444141"/>
</g>
<mask id="mask11_1_19012" style="mask-type:luminance" maskUnits="userSpaceOnUse" x="-191" y="-351" width="1123" height="794">
<path d="M-191 -351H931.52V442.701H-191V-351Z" fill="white"/>
</mask>
<g mask="url(#mask11_1_19012)">
<path d="M694.677 46.392H705.717V13.5733H713.275V56.652H705.717V52.512H694.677V46.392ZM677.817 24.7934V25.6334C677.817 27.9133 680.638 29.712 684.717 29.712C688.798 29.712 691.617 27.9133 691.617 25.6334V24.7934C691.617 22.5133 688.798 20.7133 684.717 20.7133C680.638 20.7133 677.817 22.5133 677.817 24.7934ZM683.758 62.472H714.177V68.9507H676.138V53.892H683.758V62.472ZM670.678 26.0533V24.3734C670.678 18.5534 676.798 14.5333 684.717 14.5333C692.638 14.5333 698.758 18.5534 698.758 24.3734V26.0533C698.758 31.8733 692.638 35.892 684.717 35.892C676.798 35.892 670.678 31.8733 670.678 26.0533ZM667.078 38.232C685.437 38.232 694.497 37.932 702.357 37.212L702.897 43.512C699.117 43.992 694.258 44.292 687.657 44.412V51.732H680.157V44.532C676.258 44.592 671.938 44.592 667.078 44.592V38.232Z" fill="#444141"/>
</g>
<mask id="mask12_1_19012" style="mask-type:luminance" maskUnits="userSpaceOnUse" x="-191" y="-351" width="1123" height="794">
<path d="M-191 -351H931.52V442.701H-191V-351Z" fill="white"/>
</mask>
<g mask="url(#mask12_1_19012)">
<path d="M203.764 28.9335H181.565V34.8135H203.764V28.9335ZM211.324 15.6735V41.1122H174.005V15.6735H181.565V22.5735H203.764V15.6735H211.324ZM218.224 46.0922V52.5122H196.505V69.3708H188.885V52.5122H167.105V46.0922H218.224Z" fill="#444141"/>
</g>
<mask id="mask13_1_19012" style="mask-type:luminance" maskUnits="userSpaceOnUse" x="-191" y="-351" width="1123" height="794">
<path d="M-191 -351H931.52V442.701H-191V-351Z" fill="white"/>
</mask>
<g mask="url(#mask13_1_19012)">
<path d="M273.784 28.2731H281.102V34.8731H273.784V53.1717H266.224V13.5731H273.784V28.2731ZM246.785 62.2917H275.104V68.7717H239.165V49.8117H246.785V62.2917ZM245.945 35.5931C245.704 36.6131 244.085 38.1731 242.285 39.8531C239.585 42.3717 237.065 44.5331 233.345 47.5317L228.665 42.0131C231.785 39.6131 235.086 36.7331 237.845 34.0931C240.725 31.3331 241.865 28.8131 241.865 24.7331V16.0331H249.544V24.4331C249.544 28.8131 250.324 30.7931 253.444 33.4931C256.324 35.9531 259.324 38.2331 262.204 40.2731L257.824 45.5517C255.484 43.8717 252.845 41.8331 250.025 39.5531C247.924 37.8731 246.365 36.6131 246.005 35.5931H245.945Z" fill="#444141"/>
</g>
<mask id="mask14_1_19012" style="mask-type:luminance" maskUnits="userSpaceOnUse" x="-191" y="-351" width="1123" height="794">
<path d="M-191 -351H931.52V442.701H-191V-351Z" fill="white"/>
</mask>
<g mask="url(#mask14_1_19012)">
<path d="M298.563 50.1121H313.502V41.6521H291.903V35.2921H326.822C327.662 31.5721 327.962 27.4934 327.962 24.6734V22.0334H298.563V15.6134H335.522V24.2534C335.522 26.9534 335.041 31.6321 334.382 35.2921H343.022V41.6521H321.062V50.1121H336.122V70.0308H328.562V56.4721H298.563V50.1121Z" fill="#444141"/>
</g>
<mask id="mask15_1_19012" style="mask-type:luminance" maskUnits="userSpaceOnUse" x="-191" y="-351" width="1123" height="794">
<path d="M-191 -351H931.52V442.701H-191V-351Z" fill="white"/>
</mask>
<g mask="url(#mask15_1_19012)">
<path d="M402.961 69.3708H395.761V13.5735H402.961V69.3708ZM384.543 38.3522H377.703V31.7535H384.543V14.7135H391.741V66.6722H384.543V38.3522ZM355.623 18.9135H380.521V25.3935H371.943V32.4735C371.943 36.5522 372.903 38.6522 375.363 41.7122C377.583 44.5322 380.643 47.7722 383.223 50.2922L378.241 54.9722C375.963 52.5722 373.503 49.9922 371.703 47.8322C370.263 46.1522 369.003 44.6522 368.583 43.6922H368.523C368.163 44.6522 366.844 46.2722 365.344 48.0722C363.363 50.4722 360.604 53.5321 358.143 55.9921L353.164 51.0122C355.623 48.6122 358.743 45.2522 361.023 42.3722C363.603 39.1322 364.564 36.9722 364.564 32.5335V25.3935H355.623V18.9135Z" fill="#444141"/>
</g>
<mask id="mask16_1_19012" style="mask-type:luminance" maskUnits="userSpaceOnUse" x="-191" y="-351" width="1123" height="794">
<path d="M-191 -351H931.52V442.701H-191V-351Z" fill="white"/>
</mask>
<g mask="url(#mask16_1_19012)">
<path d="M431.341 63.1922H453.181V53.8922H431.341V63.1922ZM423.843 47.7122H460.681V69.3708H423.843V47.7122ZM451.561 35.5922C452.4 31.8122 452.76 27.6135 452.76 24.7335V22.1535H423.361V15.7335H460.32V24.3135C460.32 27.0735 459.84 31.9335 459.121 35.5922H467.82V42.0122H416.701V35.5922H451.561Z" fill="#444141"/>
</g>
<mask id="mask17_1_19012" style="mask-type:luminance" maskUnits="userSpaceOnUse" x="-191" y="-351" width="1123" height="794">
<path d="M-191 -351H931.52V442.701H-191V-351Z" fill="white"/>
</mask>
<g mask="url(#mask17_1_19012)">
<path d="M510.36 49.6321V44.8921H498.96V49.6321C500.762 49.3921 502.68 49.2121 504.662 49.2121C506.64 49.2121 508.56 49.3921 510.36 49.6321ZM494.162 59.7121V60.5521C494.162 63.2521 499.322 64.9321 504.662 64.9321C510 64.9321 515.16 63.2521 515.16 60.5521V59.7121C515.16 57.0121 510 55.3321 504.662 55.3321C499.322 55.3321 494.162 57.0121 494.162 59.7121ZM493.862 24.6735V25.6334C493.862 28.2134 498.542 30.0734 504.662 30.0734C510.78 30.0734 515.46 28.2134 515.46 25.6334V24.6735C515.46 22.0934 510.78 20.2334 504.662 20.2334C498.542 20.2334 493.862 22.0934 493.862 24.6735ZM486.362 25.8734V24.4334C486.362 17.7734 493.922 14.1134 504.662 14.1134C515.4 14.1134 522.959 17.7734 522.959 24.4334V25.8734C522.959 32.5334 515.4 36.1921 504.662 36.1921C493.922 36.1921 486.362 32.5334 486.362 25.8734ZM486.662 61.0321V59.2321C486.662 56.0521 488.522 53.6521 491.52 51.9721V44.8921H479.102V38.7721H530.22V44.8921H517.8V51.9721C520.8 53.6521 522.66 56.0521 522.66 59.2321V61.0321C522.66 67.7521 514.38 71.0508 504.662 71.0508C494.942 71.0508 486.662 67.7521 486.662 61.0321Z" fill="#444141"/>
</g>
<mask id="mask18_1_19012" style="mask-type:luminance" maskUnits="userSpaceOnUse" x="-191" y="-351" width="1123" height="794">
<path d="M-191 -351H931.52V442.701H-191V-351Z" fill="white"/>
</mask>
<g mask="url(#mask18_1_19012)">
<path d="M587.879 53.2921H580.319V13.5734H587.879V53.2921ZM559.979 62.2921H588.779V68.7708H552.359V50.0521H559.979V62.2921ZM544.86 17.0534H573.779V23.5334H563.34V27.7334C563.34 30.6721 564.06 32.4134 567.239 34.8721C569.759 36.7921 572.819 38.8921 575.819 40.8121L571.739 46.2121C569.099 44.4721 566.519 42.6721 564.299 41.0521C561.78 39.1921 560.22 37.8121 559.979 37.2121H559.919C559.679 37.9321 558 39.5521 555.239 41.7121C552.66 43.7521 549.959 45.8521 546.959 47.9521L542.52 42.3721C546.3 39.7921 549.959 36.9721 552.48 34.7534C554.579 32.8934 555.78 30.6721 555.78 27.7334V23.5334H544.86V17.0534Z" fill="#444141"/>
</g>
<mask id="mask19_1_19012" style="mask-type:luminance" maskUnits="userSpaceOnUse" x="-191" y="-351" width="1123" height="794">
<path d="M-191 -351H931.52V442.701H-191V-351Z" fill="white"/>
</mask>
<g mask="url(#mask19_1_19012)">
<path d="M619.979 33.1927V33.6727C619.979 35.1127 623.099 36.2527 629.459 36.2527C635.819 36.2527 638.939 35.1127 638.939 33.6727V33.1927C638.939 31.7527 635.819 30.6127 629.459 30.6127C623.099 30.6127 619.979 31.7527 619.979 33.1927ZM618.899 61.0314V61.7514C618.899 64.2714 624.119 65.2914 629.459 65.2914C634.799 65.2914 640.017 64.2714 640.017 61.7514V61.0314C640.017 58.5114 634.799 57.4914 629.459 57.4914C624.119 57.4914 618.899 58.5114 618.899 61.0314ZM612.479 34.3327V32.5327C612.479 27.5527 619.079 24.8527 629.459 24.8527C639.839 24.8527 646.439 27.5527 646.439 32.5327V34.3327C646.439 39.3127 639.839 42.0127 629.459 42.0127C619.079 42.0127 612.479 39.3127 612.479 34.3327ZM611.459 62.2314V60.5514C611.459 53.9514 619.619 51.6114 629.459 51.6114C639.297 51.6114 647.457 53.9514 647.457 60.5514V62.2314C647.457 68.8314 639.297 71.1714 629.459 71.1714C619.619 71.1714 611.459 68.8314 611.459 62.2314ZM633.239 17.2327H649.797V23.1727H609.119V17.2327H625.619V12.0741H633.239V17.2327ZM655.017 49.7514H603.899V43.8114H655.017V49.7514Z" fill="#444141"/>
</g>
<mask id="mask20_1_19012" style="mask-type:luminance" maskUnits="userSpaceOnUse" x="-191" y="-351" width="1123" height="794">
<path d="M-191 -351H931.52V442.701H-191V-351Z" fill="white"/>
</mask>
<g mask="url(#mask20_1_19012)">
<path d="M694.677 46.392H705.717V13.5733H713.275V56.652H705.717V52.512H694.677V46.392ZM677.817 24.7934V25.6334C677.817 27.9133 680.638 29.712 684.717 29.712C688.798 29.712 691.617 27.9133 691.617 25.6334V24.7934C691.617 22.5133 688.798 20.7133 684.717 20.7133C680.638 20.7133 677.817 22.5133 677.817 24.7934ZM683.758 62.472H714.177V68.9507H676.138V53.892H683.758V62.472ZM670.678 26.0533V24.3734C670.678 18.5534 676.798 14.5333 684.717 14.5333C692.638 14.5333 698.758 18.5534 698.758 24.3734V26.0533C698.758 31.8733 692.638 35.892 684.717 35.892C676.798 35.892 670.678 31.8733 670.678 26.0533ZM667.078 38.232C685.437 38.232 694.497 37.932 702.357 37.212L702.897 43.512C699.117 43.992 694.258 44.292 687.657 44.412V51.732H680.157V44.532C676.258 44.592 671.938 44.592 667.078 44.592V38.232Z" fill="#444141"/>
</g>
<mask id="mask21_1_19012" style="mask-type:luminance" maskUnits="userSpaceOnUse" x="-191" y="-351" width="1123" height="794">
<path d="M-191 -351H931.52V442.701H-191V-351Z" fill="white"/>
</mask>
<g mask="url(#mask21_1_19012)">
<path d="M460.003 102.266C459.792 104.293 459.74 105.696 459.74 106.164C461.893 104.085 464.153 102.214 467.935 102.214C472.977 102.214 475.131 105.852 475.131 110.165V121.909C475.131 124.612 475.132 125.234 478.388 125.234V127.625C475.972 127.573 468.197 127.573 465.783 127.729V125.234C468.881 125.234 468.881 124.612 468.881 121.961V110.217C468.881 106.944 468.093 106.008 465.309 106.008C463.891 106.06 461.105 107.774 459.74 108.97V121.961C459.74 124.612 459.741 125.234 462.999 125.234V127.729C460.476 127.521 452.807 127.521 450.337 127.729V125.234C453.489 125.234 453.491 124.612 453.491 121.909V110.269C453.491 106.996 453.805 106.684 450.916 106.736V104.709C452.037 104.544 455.348 103.522 456.8 102.266H460.003Z" fill="#444141"/>
</g>
<mask id="mask22_1_19012" style="mask-type:luminance" maskUnits="userSpaceOnUse" x="-191" y="-351" width="1123" height="794">
<path d="M-191 -351H931.52V442.701H-191V-351Z" fill="white"/>
</mask>
<g mask="url(#mask22_1_19012)">
<path d="M398.606 102.266C398.397 104.293 398.343 105.696 398.343 106.164C400.497 104.085 402.757 102.214 406.538 102.214C411.581 102.214 413.734 105.852 413.734 110.165V121.909C413.734 124.612 413.735 125.234 416.991 125.234V127.625C414.575 127.573 406.801 127.573 404.386 127.729V125.234C407.485 125.234 407.485 124.612 407.485 121.961V110.217C407.485 106.944 406.697 106.008 403.913 106.008C402.494 106.06 399.709 107.774 398.343 108.97V121.961C398.343 124.612 398.345 125.234 401.602 125.234V127.729C399.079 127.521 391.41 127.521 388.941 127.729V125.234C392.093 125.234 392.094 124.612 392.094 121.909V110.269C392.094 106.996 392.409 106.684 389.519 106.736V104.709C390.641 104.544 393.951 103.522 395.403 102.266H398.606Z" fill="#444141"/>
</g>
<mask id="mask23_1_19012" style="mask-type:luminance" maskUnits="userSpaceOnUse" x="-191" y="-351" width="1123" height="794">
<path d="M-191 -351H931.52V442.701H-191V-351Z" fill="white"/>
</mask>
<g mask="url(#mask23_1_19012)">
<path d="M182.211 108.97V121.13C182.211 124.819 181.581 124.923 185.941 124.923C191.141 124.923 194.293 122.689 194.293 117.649C194.293 111.465 190.353 108.97 184.629 108.97H182.211ZM182.211 106.215H183.42C187.832 106.215 191.141 104.397 191.141 98.6286C191.141 93.3286 188.148 92.03 183.315 92.03H182.211V106.215ZM200.229 117.077C200.229 123.105 195.029 127.626 185.573 127.626C181.844 127.521 175.12 127.521 170.865 127.626V125.287C175.279 125.287 174.86 124.923 174.86 121.078V95.6153C174.86 92.2886 175.227 91.77 170.865 91.718V89.3793C174.596 89.4833 180.899 89.4833 184.103 89.3793C190.144 89.3793 196.815 91.614 196.815 98.6286C196.815 102.942 193.927 106.059 190.721 107.047C195.712 107.827 200.229 111.569 200.229 117.077Z" fill="#444141"/>
</g>
<mask id="mask24_1_19012" style="mask-type:luminance" maskUnits="userSpaceOnUse" x="-191" y="-351" width="1123" height="794">
<path d="M-191 -351H931.52V442.701H-191V-351Z" fill="white"/>
</mask>
<g mask="url(#mask24_1_19012)">
<path d="M223.981 124.507C222.299 126.274 219.515 128.457 215.05 128.457C212.057 128.457 208.642 126.43 208.642 121.701V107.982C208.642 105.749 208.379 105.593 205.438 105.385V103.41C207.75 103.358 211.793 103.15 215.101 102.89C214.995 104.449 214.891 106.787 214.891 107.878V118.843C214.891 123.935 215.783 124.663 218.043 124.663C219.986 124.663 222.142 123.417 224.033 121.546V107.982C224.033 105.851 223.402 105.593 220.303 105.385V103.41C222.615 103.358 227.235 103.15 230.493 102.89C230.387 104.449 230.282 106.787 230.282 107.878V123.157C230.282 124.923 231.138 124.923 232.963 124.715V126.742C231.334 127.106 228.026 127.833 226.134 128.509C225.03 128.925 223.981 128.041 223.981 127.626V124.507Z" fill="#444141"/>
</g>
<mask id="mask25_1_19012" style="mask-type:luminance" maskUnits="userSpaceOnUse" x="-191" y="-351" width="1123" height="794">
<path d="M-191 -351H931.52V442.701H-191V-351Z" fill="white"/>
</mask>
<g mask="url(#mask25_1_19012)">
<path d="M238.015 119.414H241.061C241.588 122.792 243.005 125.809 246.315 125.806C248.567 125.804 249.268 123.533 249.259 122.428C249.237 119.989 248.048 118.686 245.159 117.128C241.272 115.153 238.488 112.97 238.488 109.437C238.488 105.852 241.797 102.214 247.26 102.214C249.467 102.214 251.515 102.63 254.036 104.033L254.404 110.217H251.515C250.991 106.32 249.415 104.909 246.787 104.916C245.464 104.92 243.953 106.457 244.001 107.982C244.088 110.786 246.104 111.984 249.204 113.49C252.197 114.893 255.507 116.245 255.507 120.713C255.507 124.506 252.617 128.456 245.947 128.456C243.479 128.456 240.904 127.729 238.803 126.429L238.015 119.414Z" fill="#444141"/>
</g>
<mask id="mask26_1_19012" style="mask-type:luminance" maskUnits="userSpaceOnUse" x="-191" y="-351" width="1123" height="794">
<path d="M-191 -351H931.52V442.701H-191V-351Z" fill="white"/>
</mask>
<g mask="url(#mask26_1_19012)">
<path d="M274.325 115.881C268.389 117.336 266.602 118.948 266.602 121.597C266.602 124.404 267.652 124.922 269.806 124.922C271.697 124.922 273.012 123.416 274.325 122.065V115.881ZM285.04 125.234C283.464 126.69 281.521 128.457 278.998 128.457C276.53 128.457 274.482 126.586 274.43 125.442C273.432 126.742 271.33 128.457 267.496 128.457C263.818 128.457 261.086 125.858 261.192 122.741C261.349 117.336 266.972 115.465 274.325 113.334V110.165C274.325 107.462 274.166 105.852 271.172 105.852C269.018 105.852 267.285 107.256 267.18 109.333C267.18 111.049 266.076 112.192 264.29 112.192C262.557 112.192 261.926 111.101 261.926 109.853C261.926 107.878 263.006 106.176 267.208 103.941C269.52 102.798 271.33 102.266 273.378 102.266C277.317 102.266 280.574 104.501 280.574 108.346V121.857C280.574 125.234 280.785 125.286 284.514 122.845L285.04 125.234Z" fill="#444141"/>
</g>
<mask id="mask27_1_19012" style="mask-type:luminance" maskUnits="userSpaceOnUse" x="-191" y="-351" width="1123" height="794">
<path d="M-191 -351H931.52V442.701H-191V-351Z" fill="white"/>
</mask>
<g mask="url(#mask27_1_19012)">
<path d="M435.177 115.881C429.241 117.336 427.454 118.948 427.454 121.597C427.454 124.404 428.503 124.922 430.658 124.922C432.549 124.922 433.863 123.416 435.177 122.065V115.881ZM445.891 125.234C444.315 126.69 442.372 128.457 439.85 128.457C437.38 128.457 435.334 126.586 435.282 125.442C434.283 126.742 432.182 128.457 428.347 128.457C424.67 128.457 421.938 125.858 422.043 122.741C422.201 117.336 427.823 115.465 435.177 113.334V110.165C435.177 107.462 435.018 105.852 432.023 105.852C429.87 105.852 428.137 107.256 428.031 109.333C428.031 111.049 426.927 112.192 425.142 112.192C423.409 112.192 422.778 111.101 422.778 109.853C422.778 107.878 424.407 106.32 428.609 104.085C430.92 102.942 432.182 102.266 434.23 102.266C438.168 102.266 441.426 104.501 441.426 108.346V121.857C441.426 125.234 441.636 125.286 445.366 122.845L445.891 125.234Z" fill="#444141"/>
</g>
<mask id="mask28_1_19012" style="mask-type:luminance" maskUnits="userSpaceOnUse" x="-191" y="-351" width="1123" height="794">
<path d="M-191 -351H931.52V442.701H-191V-351Z" fill="white"/>
</mask>
<g mask="url(#mask28_1_19012)">
<path d="M299.178 102.266C298.969 104.293 298.915 105.696 298.915 106.164C301.069 104.085 303.329 102.214 307.11 102.214C312.153 102.214 314.306 105.852 314.306 110.165V121.909C314.306 124.612 314.307 125.234 317.563 125.234V127.625C315.147 127.573 307.373 127.573 304.958 127.729V125.234C308.057 125.234 308.057 124.612 308.057 121.961V110.217C308.057 106.944 307.269 106.008 304.485 106.008C303.066 106.06 300.281 107.774 298.915 108.97V121.961C298.915 124.612 298.917 125.234 302.174 125.234V127.729C299.651 127.521 291.982 127.521 289.513 127.729V125.234C292.665 125.234 292.666 124.612 292.666 121.909V110.269C292.666 106.996 292.981 106.684 290.091 106.736V104.709C291.213 104.544 294.523 103.522 295.975 102.266H299.178Z" fill="#444141"/>
</g>
<mask id="mask29_1_19012" style="mask-type:luminance" maskUnits="userSpaceOnUse" x="-191" y="-351" width="1123" height="794">
<path d="M-191 -351H931.52V442.701H-191V-351Z" fill="white"/>
</mask>
<g mask="url(#mask29_1_19012)">
<path d="M352.199 109.385V120.505C352.199 125.027 351.57 125.183 356.246 125.235V127.677C352.99 127.573 343.849 127.573 340.645 127.677V125.235C345.425 125.235 344.849 124.819 344.849 120.505V96.0828C344.849 92.0815 345.319 91.8735 340.645 91.7695V89.3268C349.102 89.4828 358.715 89.4828 367.225 89.3268L367.539 98.0575L364.387 98.0055C363.651 93.3282 363.127 92.0295 357.927 92.0295H352.199V106.216H357.874C360.343 106.216 360.921 105.852 361.078 101.747H364.439C364.23 104.552 364.23 111.1 364.439 114.323H361.237C361.078 110.217 360.449 109.385 357.927 109.385H352.199Z" fill="#444141"/>
</g>
<mask id="mask30_1_19012" style="mask-type:luminance" maskUnits="userSpaceOnUse" x="-191" y="-351" width="1123" height="794">
<path d="M-191 -351H931.52V442.701H-191V-351Z" fill="white"/>
</mask>
<g mask="url(#mask30_1_19012)">
<path d="M382.185 93.0378C382.185 94.8685 380.502 96.5872 378.316 96.5872C376.185 96.5872 374.448 94.8685 374.448 93.0378C374.448 91.1525 376.185 89.4325 378.316 89.4325C380.502 89.4325 382.185 91.1525 382.185 93.0378ZM381.624 122.429C381.624 125.079 381.362 125.235 384.778 125.235V127.625C382.833 127.625 380.889 127.521 378.632 127.521C376.636 127.521 374.64 127.573 372.224 127.625V125.235C375.637 125.235 375.376 125.131 375.376 122.429V110.269C375.376 106.995 375.69 106.683 372.8 106.735V104.709C375.269 104.345 377.004 103.721 378.684 102.266H381.888C381.677 104.293 381.624 106.787 381.624 108.398V122.429Z" fill="#444141"/>
</g>
<mask id="mask31_1_19012" style="mask-type:luminance" maskUnits="userSpaceOnUse" x="-191" y="-351" width="1123" height="794">
<path d="M-191 -351H931.52V442.701H-191V-351Z" fill="white"/>
</mask>
<g mask="url(#mask31_1_19012)">
<path d="M505.687 122.325C502.798 126.118 498.859 128.457 494.393 128.457C488.301 128.457 482.733 122.481 482.733 116.661C482.733 108.554 488.93 102.214 497.019 102.214C500.118 102.214 504.794 103.358 504.794 106.423C504.794 107.774 503.954 109.074 502.43 109.074C501.17 109.074 500.066 108.554 499.174 106.891C498.543 105.643 497.387 104.917 494.971 104.917C490.821 104.917 488.877 110.425 488.877 114.27C488.877 119.518 491.294 124.403 496.705 124.403C499.278 124.403 501.433 122.897 503.638 120.714L505.687 122.325Z" fill="#444141"/>
</g>
<mask id="mask32_1_19012" style="mask-type:luminance" maskUnits="userSpaceOnUse" x="-191" y="-351" width="1123" height="794">
<path d="M-191 -351H931.52V442.701H-191V-351Z" fill="white"/>
</mask>
<g mask="url(#mask32_1_19012)">
<path d="M524.922 110.165C525.041 110.165 525.238 110.165 525.238 109.385C525.238 107.358 524.082 104.917 521.402 104.917C518.409 104.917 516.937 107.098 516.412 110.165H524.922ZM515.992 112.918C515.992 112.918 515.94 114.322 516.044 116.141C516.36 120.974 518.513 124.508 522.453 124.508C525.185 124.508 527.286 123.104 529.492 120.506L531.804 121.961C529.65 125.702 526.025 128.457 521.456 128.457C514.994 128.457 509.848 122.948 509.848 116.141C509.848 107.514 515.1 102.214 521.665 102.214C526.236 102.214 531.173 105.072 531.226 111.1C531.226 112.452 531.332 112.918 529.913 112.918H515.992Z" fill="#444141"/>
</g>
<mask id="mask33_1_19012" style="mask-type:luminance" maskUnits="userSpaceOnUse" x="-191" y="-351" width="1123" height="794">
<path d="M-191 -351H931.52V442.701H-191V-351Z" fill="white"/>
</mask>
<g mask="url(#mask33_1_19012)">
<path d="M683.997 110.165C684.117 110.165 684.313 110.165 684.313 109.385C684.313 107.359 683.157 104.917 680.477 104.917C677.484 104.917 676.012 107.099 675.487 110.165H683.997ZM675.067 112.919C675.067 112.919 675.015 114.323 675.119 116.141C675.435 120.975 677.589 124.508 681.528 124.508C684.26 124.508 686.361 123.104 688.567 120.507L690.879 121.961C688.725 125.703 685.1 128.457 680.531 128.457C674.069 128.457 668.923 122.948 668.923 116.141C668.923 107.515 674.175 102.215 680.74 102.215C685.311 102.215 690.248 105.072 690.301 111.1C690.301 112.452 690.407 112.919 688.988 112.919H675.067Z" fill="#444141"/>
</g>
<mask id="mask34_1_19012" style="mask-type:luminance" maskUnits="userSpaceOnUse" x="-191" y="-351" width="1123" height="794">
<path d="M-191 -351H931.52V442.701H-191V-351Z" fill="white"/>
</mask>
<g mask="url(#mask34_1_19012)">
<path d="M605.802 110.165C605.921 110.165 606.118 110.165 606.118 109.385C606.118 107.358 604.962 104.917 602.282 104.917C599.289 104.917 597.817 107.098 597.291 110.165H605.802ZM596.871 112.918C596.871 112.918 596.819 114.322 596.923 116.141C597.239 120.974 599.393 124.508 603.333 124.508C606.065 124.508 608.166 123.104 610.371 120.506L612.683 121.961C610.53 125.702 606.905 128.457 602.335 128.457C595.874 128.457 590.727 122.948 590.727 116.141C590.727 107.514 595.979 102.214 602.545 102.214C607.115 102.214 612.053 105.072 612.106 111.1C612.106 112.452 612.21 112.918 610.793 112.918H596.871Z" fill="#444141"/>
</g>
<mask id="mask35_1_19012" style="mask-type:luminance" maskUnits="userSpaceOnUse" x="-191" y="-351" width="1123" height="794">
<path d="M-191 -351H931.52V442.701H-191V-351Z" fill="white"/>
</mask>
<g mask="url(#mask35_1_19012)">
<path d="M584.985 100.032H582.096C581.097 93.7437 577.841 91.249 571.853 91.249C563.501 91.249 559.169 97.7344 559.169 107.712C559.169 118.624 564.184 125.754 572.693 125.754C577.947 125.754 580.992 122.117 582.044 116.609H585.143L583.724 125.546C581.308 127.157 575.477 128.457 571.8 128.457C559.561 128.457 551.052 120.194 551.052 107.982C551.052 96.7064 561.137 88.5477 571.643 88.5477C576.108 88.5477 580.625 89.8984 584.46 91.457L584.985 100.032Z" fill="#444141"/>
</g>
<mask id="mask36_1_19012" style="mask-type:luminance" maskUnits="userSpaceOnUse" x="-191" y="-351" width="1123" height="794">
<path d="M-191 -351H931.52V442.701H-191V-351Z" fill="white"/>
</mask>
<g mask="url(#mask36_1_19012)">
<path d="M625.449 102.266C625.239 104.293 625.187 105.696 625.187 106.164C627.34 104.085 630.019 102.214 633.801 102.214C638.844 102.214 640.577 105.852 640.577 110.165V121.909C640.577 124.612 640.997 125.234 644.255 125.234V127.625C641.839 127.573 634.064 127.573 631.648 127.729V125.234C634.747 125.234 635.167 124.612 635.167 121.961V110.217C635.167 106.944 633.959 106.008 631.175 106.008C629.757 106.06 626.552 107.774 625.187 108.97V121.961C625.187 124.612 625.607 125.234 628.864 125.234V127.729C626.343 127.521 618.672 127.521 616.204 127.729V125.234C619.356 125.234 619.776 124.612 619.776 121.909V110.269C619.776 106.996 619.672 106.684 616.781 106.736V104.709C619.251 104.345 620.984 103.721 622.665 102.266H625.449Z" fill="#444141"/>
</g>
<mask id="mask37_1_19012" style="mask-type:luminance" maskUnits="userSpaceOnUse" x="-191" y="-351" width="1123" height="794">
<path d="M-191 -351H931.52V442.701H-191V-351Z" fill="white"/>
</mask>
<g mask="url(#mask37_1_19012)">
<path d="M657.291 106.891V120.558C657.291 124.247 658.184 124.975 659.287 124.975C660.075 124.975 661.914 124.247 663.647 122.585L665.118 124.715C662.964 126.95 660.234 128.457 657.343 128.457C653.667 128.457 651.042 126.378 651.042 123.105V106.891H647.942V105.125C651.512 104.189 651.4 102.006 652.136 97.5379H657.291V103.618H664.908V106.891H657.291Z" fill="#444141"/>
</g>
<mask id="mask38_1_19012" style="mask-type:luminance" maskUnits="userSpaceOnUse" x="-191" y="-351" width="1123" height="794">
<path d="M-191 -351H931.52V442.701H-191V-351Z" fill="white"/>
</mask>
<g mask="url(#mask38_1_19012)">
<path d="M710 102.214C711.629 102.214 713.888 103.254 713.888 105.539C713.888 107.202 712.258 108.658 710.526 108.658C708.057 108.658 707.794 107.307 706.901 107.307C705.902 107.307 704.169 109.022 704.169 111.463V121.909C704.169 124.975 704.064 125.234 709.317 125.234V127.729C705.798 127.521 697.972 127.469 694.293 127.729V125.234C697.493 125.105 697.918 125.131 697.918 121.909V110.269C697.918 106.995 697.45 106.695 695.345 106.735V104.709C696.466 104.543 699.777 103.523 701.228 102.266L704.09 102.214C704.09 102.214 704.169 106.163 704.116 106.735C705.376 104.709 707.478 102.214 710 102.214Z" fill="#444141"/>
</g>
</g>
<defs>
<clipPath id="clip0_1_19012">
<rect width="714" height="148" fill="white"/>
</clipPath>
</defs>
</svg>
