<svg width="217" height="216" viewBox="0 0 217 216" fill="none" xmlns="http://www.w3.org/2000/svg">
<g clip-path="url(#clip0_1_20373)">
<mask id="mask0_1_20373" style="mask-type:luminance" maskUnits="userSpaceOnUse" x="-245" y="-267" width="1123" height="794">
<path d="M-245 -267H877.52V526.707H-245V-267Z" fill="white"/>
</mask>
<g mask="url(#mask0_1_20373)">
<path d="M16.4792 71.3654C16.4792 71.3654 12.4645 59.9187 23.0459 53.6187C23.0459 53.6187 31.9219 49.336 37.9299 56.776C37.9299 56.776 36.2179 47.892 43.0845 44.1707C43.0845 44.1707 51.3952 39.0134 58.2605 46.7574C58.2605 46.7574 56.8352 27.2934 74.0005 29.856C74.0005 29.856 68.5632 18.1187 78.8539 12.6787C78.8539 12.6787 86.5899 9.2547 92.3272 15.5414C92.3272 15.5414 90.6099 1.80138 106.062 0.37471C106.062 0.37471 118.07 -0.477295 120.374 12.6787C120.374 12.6787 128.683 5.52803 137.835 12.1107C137.835 12.1107 145.841 17.84 144.135 26.7187C144.135 26.7187 158.438 26.136 159.311 43.5907C159.311 43.5907 172.757 40.452 177.618 52.7707C177.618 52.7707 198.522 45.8934 199.951 66.5054C199.951 66.5054 215.411 67.364 217.129 82.2414C217.129 82.2414 217.989 91.9787 210.246 95.984C210.246 95.984 216.267 100.277 214.554 111.437C214.554 111.437 213.69 120.029 202.525 122.312C202.525 122.312 209.678 140.057 189.655 142.073C189.655 142.073 200.799 157.235 188.207 162.967C188.207 162.967 196.223 171.253 192.505 180.136C192.505 180.136 189.075 187.008 181.051 187.008C181.051 187.008 187.65 199.883 177.618 206.76C177.618 206.76 169.615 213.047 158.73 206.76C158.73 206.76 156.158 214.487 144.702 215.057C144.702 215.057 136.407 215.057 131.543 206.76C131.543 206.76 128.683 210.757 121.525 210.757C121.525 210.757 111.791 208.479 108.93 201.047C108.93 201.047 105.199 209.344 97.1912 209.344C97.1912 209.344 90.3152 209.041 88.0219 206.18C88.0219 206.18 86.5899 215.641 73.7232 215.641C73.7232 215.641 67.1285 215.057 63.7099 208.193C63.7099 208.193 51.9592 215.341 42.5099 206.481C42.5099 206.481 36.5019 203.325 37.0805 190.743C37.0805 190.743 25.3245 186.732 24.4792 175.852C24.4792 175.852 24.1939 168.693 28.7765 164.115C28.7765 164.115 13.8845 154.953 27.0579 141.487C27.0579 141.487 11.0285 138.924 17.6165 124.028C17.6165 124.028 6.15786 122.884 4.44186 112.317C4.44186 112.317 3.87386 105.711 7.8792 100.277C7.8792 100.277 -3.28347 91.3974 1.28853 79.9427C1.28853 79.9427 5.01786 70.228 16.4792 71.3654Z" fill="#FDB924"/>
</g>
<mask id="mask1_1_20373" style="mask-type:luminance" maskUnits="userSpaceOnUse" x="-245" y="-267" width="1123" height="794">
<path d="M-245 -267H877.52V526.707H-245V-267Z" fill="white"/>
</mask>
<g mask="url(#mask1_1_20373)">
<path d="M95.1757 23.8536C95.1757 23.8536 89.7477 4.94962 104.926 3.82028C104.926 3.82028 116.648 0.380295 118.373 19.5656C118.373 19.5656 125.809 8.40561 134.964 14.6843C134.964 14.6843 144.134 20.7083 137.269 31.8643C137.269 31.8643 147.002 27.2869 152.148 32.7309C152.148 32.7309 158.73 37.5843 152.148 48.1789C152.148 48.1789 142.701 63.0696 140.133 67.6483C140.133 67.6483 152.73 52.1896 155.576 50.1843C155.576 50.1843 164.465 41.8723 171.321 48.7616C171.321 48.7616 175.337 52.7656 173.332 59.0549C173.332 59.0549 186.498 48.179 193.084 57.9083C193.084 57.9083 199.653 65.9216 190.79 73.3643C190.79 73.3643 206.536 65.9216 211.408 75.6643C211.408 75.6643 218.265 89.3976 203.673 95.1136C203.673 95.1136 211.106 96.5576 210.825 107.435C210.825 107.435 211.976 120.03 193.949 118.026C193.949 118.026 202.813 122.883 198.804 132.334C198.804 132.334 195.945 140.342 180.489 135.768L159.009 131.182L158.444 133.487L181.92 140.646C181.92 140.646 191.646 143.503 189.941 153.227C189.941 153.227 188.785 161.531 179.918 160.966C179.918 160.966 193.084 168.692 188.206 178.435C188.206 178.435 185.358 185.58 174.193 182.703C174.193 182.703 185.061 197.026 173.616 203.896C173.616 203.896 161.877 210.771 153.585 195.594C153.585 195.594 157.585 208.76 146.422 210.771C146.422 210.771 135.264 213.902 131.249 200.178C131.249 200.178 128.684 206.466 121.8 207.036C121.8 207.036 113.513 207.35 111.79 200.464C111.79 200.464 107.496 177.852 107.208 171.555C107.208 171.555 108.356 192.738 103.189 200.464C103.189 200.464 101.189 205.05 93.4677 204.755C93.4677 204.755 87.1691 203.896 86.3171 199.036C86.3171 199.036 85.4651 211.924 75.4411 212.19C75.4411 212.19 65.1331 213.344 63.9797 199.88C63.9797 199.88 55.3904 213.344 44.7997 205.036C44.7997 205.036 35.3504 196.735 48.5304 182.432C48.5304 182.432 33.0731 190.727 28.1931 179.568C28.1931 179.568 24.7597 166.683 36.7864 163.531C36.7864 163.531 25.6264 162.394 24.4851 153.52C24.4851 153.52 24.1984 140.058 51.1011 135.768L49.6584 132.334C49.6584 132.334 25.3251 142.638 21.0451 134.344C21.0451 134.344 15.3224 125.466 26.2051 119.734C26.2051 119.734 7.88907 121.751 7.01707 111.15C7.01707 111.15 6.17441 99.7056 20.2024 99.7056C20.2024 99.7056 -1.85626 96.5576 4.44241 81.3816C4.44241 81.3816 10.4517 67.9243 24.1984 77.6669C24.1984 77.6669 12.7517 65.9216 23.6211 57.9083C23.6211 57.9083 33.6477 51.0416 41.6477 63.0696C41.6477 63.0696 35.9371 52.7656 44.7997 46.7576C44.7997 46.7576 56.5584 39.0136 69.1317 65.0669L69.7077 67.0616L73.1437 64.7803L70.5597 63.0696C70.5597 63.0696 56.5584 43.5909 63.7104 35.0149C63.7104 35.0149 71.1411 27.287 78.0051 35.3016C78.0051 35.3016 69.9824 21.8483 79.7251 15.839C79.7251 15.839 89.4704 8.40561 95.1757 23.8536Z" fill="#FFD200"/>
</g>
<mask id="mask2_1_20373" style="mask-type:luminance" maskUnits="userSpaceOnUse" x="-245" y="-267" width="1123" height="794">
<path d="M-245 -267H877.52V526.707H-245V-267Z" fill="white"/>
</mask>
<g mask="url(#mask2_1_20373)">
<path d="M106.629 19.5657L102.054 26.9963H112.074L106.629 19.5657Z" fill="#FFC424"/>
</g>
<mask id="mask3_1_20373" style="mask-type:luminance" maskUnits="userSpaceOnUse" x="-245" y="-267" width="1123" height="794">
<path d="M-245 -267H877.52V526.707H-245V-267Z" fill="white"/>
</mask>
<g mask="url(#mask3_1_20373)">
<path d="M103.189 49.0332L105.769 41.0119C105.769 41.0119 106.054 39.2905 107.209 41.0119C107.209 41.0119 109.777 44.7372 110.917 48.7465C110.917 48.7465 105.198 48.4572 103.189 49.0332Z" fill="#FDB924"/>
</g>
<mask id="mask4_1_20373" style="mask-type:luminance" maskUnits="userSpaceOnUse" x="-245" y="-267" width="1123" height="794">
<path d="M-245 -267H877.52V526.707H-245V-267Z" fill="white"/>
</mask>
<g mask="url(#mask4_1_20373)">
<path d="M116.648 49.4211C116.648 49.4211 119.794 34.5225 124.374 28.8038C124.374 28.8038 127.25 25.0878 126.96 29.6691C126.96 29.6691 125.809 43.6971 123.809 50.5571C123.809 50.5571 118.648 49.7078 116.648 49.4211Z" fill="#FDB924"/>
</g>
<mask id="mask5_1_20373" style="mask-type:luminance" maskUnits="userSpaceOnUse" x="-245" y="-267" width="1123" height="794">
<path d="M-245 -267H877.52V526.707H-245V-267Z" fill="white"/>
</mask>
<g mask="url(#mask5_1_20373)">
<path d="M135.264 54.4681C135.264 54.4681 129.581 52.3535 128.164 52.0695C128.164 52.0695 134.964 44.1708 138.708 41.0175C138.708 41.0175 144.134 36.4388 142.136 42.4521C142.136 42.4521 137.83 50.7521 135.264 54.4681Z" fill="#FDB924"/>
</g>
<mask id="mask6_1_20373" style="mask-type:luminance" maskUnits="userSpaceOnUse" x="-245" y="-267" width="1123" height="794">
<path d="M-245 -267H877.52V526.707H-245V-267Z" fill="white"/>
</mask>
<g mask="url(#mask6_1_20373)">
<path d="M96.668 49.8821C96.668 49.8821 90.4587 36.1341 87.3027 32.4127C87.3027 32.4127 84.1587 28.6914 84.7253 33.8487C84.7253 33.8487 87.3027 47.3021 89.3107 51.5847C89.3107 51.5847 95.2493 50.1687 96.668 49.8821Z" fill="#FDB924"/>
</g>
<mask id="mask7_1_20373" style="mask-type:luminance" maskUnits="userSpaceOnUse" x="-245" y="-267" width="1123" height="794">
<path d="M-245 -267H877.52V526.707H-245V-267Z" fill="white"/>
</mask>
<g mask="url(#mask7_1_20373)">
<path d="M83.3372 54.097C83.3372 54.097 78.8692 47.7157 74.0012 43.137C74.0012 43.137 69.4159 38.557 71.7172 44.5744C71.7172 44.5744 76.5839 54.3037 78.0172 56.5957C78.0172 56.5957 81.8959 54.381 83.3372 54.097Z" fill="#FDB924"/>
</g>
<mask id="mask8_1_20373" style="mask-type:luminance" maskUnits="userSpaceOnUse" x="-245" y="-267" width="1123" height="794">
<path d="M-245 -267H877.52V526.707H-245V-267Z" fill="white"/>
</mask>
<g mask="url(#mask8_1_20373)">
<path d="M60.3717 70.4211C60.3717 70.4211 57.1144 62.7745 49.9571 58.4838C49.9571 58.4838 47.6597 56.7758 48.5304 60.1878C48.5304 60.1878 51.5091 69.7811 55.8051 76.0771C55.8051 76.0771 60.0664 73.2185 60.3717 70.4211Z" fill="#FDB924"/>
</g>
<mask id="mask9_1_20373" style="mask-type:luminance" maskUnits="userSpaceOnUse" x="-245" y="-267" width="1123" height="794">
<path d="M-245 -267H877.52V526.707H-245V-267Z" fill="white"/>
</mask>
<g mask="url(#mask9_1_20373)">
<path d="M53.4519 79.5853C53.4519 79.5853 38.5199 71.6453 33.6465 69.9307C33.6465 69.9307 30.4852 68.7853 32.2159 71.3653C32.2159 71.3653 40.1479 81.364 49.2945 87.38C49.2945 87.38 52.5825 80.4493 53.4519 79.5853Z" fill="#FDB924"/>
</g>
<mask id="mask10_1_20373" style="mask-type:luminance" maskUnits="userSpaceOnUse" x="-245" y="-267" width="1123" height="794">
<path d="M-245 -267H877.52V526.707H-245V-267Z" fill="white"/>
</mask>
<g mask="url(#mask10_1_20373)">
<path d="M47.4544 91.9421C47.4544 91.9421 45.5464 98.0207 45.2611 99.4501C45.2611 99.4501 38.5131 94.8354 37.0797 93.1194C37.0797 93.1194 40.2984 91.6607 47.4544 91.9421Z" fill="#FDB924"/>
</g>
<mask id="mask11_1_20373" style="mask-type:luminance" maskUnits="userSpaceOnUse" x="-245" y="-267" width="1123" height="794">
<path d="M-245 -267H877.52V526.707H-245V-267Z" fill="white"/>
</mask>
<g mask="url(#mask11_1_20373)">
<path d="M44.1425 105.848C44.1425 105.848 43.3492 111.57 43.6519 113.862C43.6519 113.862 25.9079 113.146 23.0452 112.304C23.0452 112.304 19.8959 111.435 24.7759 109.448C24.7759 109.448 38.4092 106.414 44.1425 105.848Z" fill="#FDB924"/>
</g>
<mask id="mask12_1_20373" style="mask-type:luminance" maskUnits="userSpaceOnUse" x="-245" y="-267" width="1123" height="794">
<path d="M-245 -267H877.52V526.707H-245V-267Z" fill="white"/>
</mask>
<g mask="url(#mask12_1_20373)">
<path d="M43.6517 119.049C43.6517 119.049 43.7424 123.002 44.6051 124.997C44.6051 124.997 30.7717 128.325 28.7757 126.91C28.7757 126.91 29.6237 123.915 43.6517 119.049Z" fill="#FDB924"/>
</g>
<mask id="mask13_1_20373" style="mask-type:luminance" maskUnits="userSpaceOnUse" x="-245" y="-267" width="1123" height="794">
<path d="M-245 -267H877.52V526.707H-245V-267Z" fill="white"/>
</mask>
<g mask="url(#mask13_1_20373)">
<path d="M52.2096 146.425C52.2096 146.425 54.4336 150.354 55.8789 151.766C55.8789 151.766 38.5136 157.534 35.9363 154.943C35.9363 154.943 36.8056 150.998 51.9856 146.425" fill="#FDB924"/>
</g>
<mask id="mask14_1_20373" style="mask-type:luminance" maskUnits="userSpaceOnUse" x="-245" y="-267" width="1123" height="794">
<path d="M-245 -267H877.52V526.707H-245V-267Z" fill="white"/>
</mask>
<g mask="url(#mask14_1_20373)">
<path d="M59.1615 155.943C59.1615 155.943 62.6108 160.711 64.8935 161.857C64.8935 161.857 50.5281 170.409 45.9428 173.271C45.9428 173.271 40.5068 176.128 42.5268 171.555C42.5268 171.555 49.9961 162.237 59.1615 155.943Z" fill="#FDB924"/>
</g>
<mask id="mask15_1_20373" style="mask-type:luminance" maskUnits="userSpaceOnUse" x="-245" y="-267" width="1123" height="794">
<path d="M-245 -267H877.52V526.707H-245V-267Z" fill="white"/>
</mask>
<g mask="url(#mask15_1_20373)">
<path d="M67.2351 163.886C67.2351 163.886 70.1857 167.352 73.3337 168.508C73.3337 168.508 67.1284 175.836 65.1337 176.128C65.1337 176.128 64.3737 172.462 67.2351 163.886Z" fill="#FDB924"/>
</g>
<mask id="mask16_1_20373" style="mask-type:luminance" maskUnits="userSpaceOnUse" x="-245" y="-267" width="1123" height="794">
<path d="M-245 -267H877.52V526.707H-245V-267Z" fill="white"/>
</mask>
<g mask="url(#mask16_1_20373)">
<path d="M54.2572 182.432C54.2572 182.432 57.9679 186.148 60.8345 187.575C60.8345 187.575 54.5345 190.438 52.5372 191.583C52.5372 191.583 53.6852 184.716 54.2572 182.432Z" fill="#FDB924"/>
</g>
<mask id="mask17_1_20373" style="mask-type:luminance" maskUnits="userSpaceOnUse" x="-245" y="-267" width="1123" height="794">
<path d="M-245 -267H877.52V526.707H-245V-267Z" fill="white"/>
</mask>
<g mask="url(#mask17_1_20373)">
<path d="M79.0847 171.901C79.0847 171.901 84.6713 174.945 86.6873 174.945C86.6873 174.945 80.0193 189.874 78.8687 194.164C78.8687 194.164 76.2847 199.037 76.2847 193.305C76.2847 193.305 77.37 178.497 79.0847 171.901Z" fill="#FDB924"/>
</g>
<mask id="mask18_1_20373" style="mask-type:luminance" maskUnits="userSpaceOnUse" x="-245" y="-267" width="1123" height="794">
<path d="M-245 -267H877.52V526.707H-245V-267Z" fill="white"/>
</mask>
<g mask="url(#mask18_1_20373)">
<path d="M91.8509 176.776L97.3176 177.899C97.3176 177.899 96.6336 192.737 94.3229 194.164C94.3229 194.164 90.6936 187.367 91.8509 176.776Z" fill="#FDB924"/>
</g>
<mask id="mask19_1_20373" style="mask-type:luminance" maskUnits="userSpaceOnUse" x="-245" y="-267" width="1123" height="794">
<path d="M-245 -267H877.52V526.707H-245V-267Z" fill="white"/>
</mask>
<g mask="url(#mask19_1_20373)">
<path d="M120.605 177.583C120.605 177.583 125.533 176.813 127.258 175.95C127.258 175.95 125.533 195.023 122.671 194.734C122.671 194.734 119.473 190.763 120.605 177.583Z" fill="#FDB924"/>
</g>
<mask id="mask20_1_20373" style="mask-type:luminance" maskUnits="userSpaceOnUse" x="-245" y="-267" width="1123" height="794">
<path d="M-245 -267H877.52V526.707H-245V-267Z" fill="white"/>
</mask>
<g mask="url(#mask20_1_20373)">
<path d="M132.943 173.94C132.943 173.94 137.989 172.328 138.837 171.185C138.837 171.185 145.852 193.875 142.701 196.161C142.701 196.161 137.809 193.973 132.943 173.94Z" fill="#FDB924"/>
</g>
<mask id="mask21_1_20373" style="mask-type:luminance" maskUnits="userSpaceOnUse" x="-245" y="-267" width="1123" height="794">
<path d="M-245 -267H877.52V526.707H-245V-267Z" fill="white"/>
</mask>
<g mask="url(#mask21_1_20373)">
<path d="M143.953 168.161C143.953 168.161 147.844 165.88 148.704 164.74C148.704 164.74 153.852 172.692 152.429 174.413C152.429 174.413 147.964 172.747 143.953 168.161Z" fill="#FDB924"/>
</g>
<mask id="mask22_1_20373" style="mask-type:luminance" maskUnits="userSpaceOnUse" x="-245" y="-267" width="1123" height="794">
<path d="M-245 -267H877.52V526.707H-245V-267Z" fill="white"/>
</mask>
<g mask="url(#mask22_1_20373)">
<path d="M156.158 185.581C156.158 185.581 161.594 183.01 162.454 181.573C162.454 181.573 163.307 187.007 162.74 190.438C162.74 190.438 157.295 188.445 156.158 185.581Z" fill="#FDB924"/>
</g>
<mask id="mask23_1_20373" style="mask-type:luminance" maskUnits="userSpaceOnUse" x="-245" y="-267" width="1123" height="794">
<path d="M-245 -267H877.52V526.707H-245V-267Z" fill="white"/>
</mask>
<g mask="url(#mask23_1_20373)">
<path d="M154.751 159.549C154.751 159.549 158.127 156.244 159.011 154.523C159.011 154.523 175.903 165.249 174.777 169.26C174.777 169.26 171.059 170.135 154.751 159.549Z" fill="#FDB924"/>
</g>
<mask id="mask24_1_20373" style="mask-type:luminance" maskUnits="userSpaceOnUse" x="-245" y="-267" width="1123" height="794">
<path d="M-245 -267H877.52V526.707H-245V-267Z" fill="white"/>
</mask>
<g mask="url(#mask24_1_20373)">
<path d="M162.994 149.018C162.994 149.018 165.25 145.922 165.819 144.206C165.819 144.206 178.189 149.8 177.618 151.218C177.618 151.218 168.71 151.013 162.994 149.018Z" fill="#FDB924"/>
</g>
<mask id="mask25_1_20373" style="mask-type:luminance" maskUnits="userSpaceOnUse" x="-245" y="-267" width="1123" height="794">
<path d="M-245 -267H877.52V526.707H-245V-267Z" fill="white"/>
</mask>
<g mask="url(#mask25_1_20373)">
<path d="M173.501 116.018C173.501 116.018 173.501 120.315 172.936 122.883C172.936 122.883 185.516 127.46 187.253 124.607C187.253 124.607 189.829 121.171 173.501 116.018Z" fill="#FDB924"/>
</g>
<mask id="mask26_1_20373" style="mask-type:luminance" maskUnits="userSpaceOnUse" x="-245" y="-267" width="1123" height="794">
<path d="M-245 -267H877.52V526.707H-245V-267Z" fill="white"/>
</mask>
<g mask="url(#mask26_1_20373)">
<path d="M172.501 102.856C172.501 102.856 173.357 106.571 173.075 108.567C173.075 108.567 189.967 110.297 193.964 104.569C193.964 104.569 191.963 100.847 172.501 102.856Z" fill="#FDB924"/>
</g>
<mask id="mask27_1_20373" style="mask-type:luminance" maskUnits="userSpaceOnUse" x="-245" y="-267" width="1123" height="794">
<path d="M-245 -267H877.52V526.707H-245V-267Z" fill="white"/>
</mask>
<g mask="url(#mask27_1_20373)">
<path d="M187.354 82.2416C187.354 82.2416 189.929 89.3976 189.929 91.6816C189.929 91.6816 196.222 84.823 197.382 84.2416C197.382 84.2416 189.655 83.103 187.354 82.2416Z" fill="#FDB924"/>
</g>
<mask id="mask28_1_20373" style="mask-type:luminance" maskUnits="userSpaceOnUse" x="-245" y="-267" width="1123" height="794">
<path d="M-245 -267H877.52V526.707H-245V-267Z" fill="white"/>
</mask>
<g mask="url(#mask28_1_20373)">
<path d="M171.033 95.4031L169.037 89.6844C169.037 89.6844 168.755 87.6737 171.033 87.9631C171.033 87.9631 178.189 88.2577 177.925 89.3977C177.925 89.3977 174.186 93.9791 171.033 95.4031Z" fill="#FDB924"/>
</g>
<mask id="mask29_1_20373" style="mask-type:luminance" maskUnits="userSpaceOnUse" x="-245" y="-267" width="1123" height="794">
<path d="M-245 -267H877.52V526.707H-245V-267Z" fill="white"/>
</mask>
<g mask="url(#mask29_1_20373)">
<path d="M161.585 77.0839C161.585 77.0839 164.448 82.2413 165.027 83.6799C165.027 83.6799 175.052 73.6679 177.925 69.0759C177.925 69.0759 180.776 64.2053 176.2 67.0613C176.2 67.0613 165.027 74.5173 161.585 77.0839Z" fill="#FDB924"/>
</g>
<mask id="mask30_1_20373" style="mask-type:luminance" maskUnits="userSpaceOnUse" x="-245" y="-267" width="1123" height="794">
<path d="M-245 -267H877.52V526.707H-245V-267Z" fill="white"/>
</mask>
<g mask="url(#mask30_1_20373)">
<path d="M153.626 67.0619C153.626 67.0619 157.36 70.5032 158.213 72.2152C158.213 72.2152 164.801 61.0499 164.24 57.6219C164.24 57.6219 161.086 56.7565 153.626 67.0619Z" fill="#FDB924"/>
</g>
<mask id="mask31_1_20373" style="mask-type:luminance" maskUnits="userSpaceOnUse" x="-245" y="-267" width="1123" height="794">
<path d="M-245 -267H877.52V526.707H-245V-267Z" fill="white"/>
</mask>
<g mask="url(#mask31_1_20373)">
<path d="M171.333 114.868C171.333 150.128 142.735 178.705 107.497 178.705C72.2367 178.705 43.6513 150.128 43.6513 114.868C43.6513 79.6319 72.2367 51.0465 107.497 51.0465C142.735 51.0465 171.333 79.6319 171.333 114.868Z" fill="#FFD200"/>
</g>
<mask id="mask32_1_20373" style="mask-type:luminance" maskUnits="userSpaceOnUse" x="-245" y="-267" width="1123" height="794">
<path d="M-245 -267H877.52V526.707H-245V-267Z" fill="white"/>
</mask>
<g mask="url(#mask32_1_20373)">
<path d="M173.347 113.861C173.347 149.675 144.296 178.705 108.503 178.705C72.6897 178.705 43.6524 149.675 43.6524 113.861C43.6524 78.0693 72.6897 49.0333 108.503 49.0333C144.296 49.0333 173.347 78.0693 173.347 113.861Z" fill="#FFD200" stroke="#8B0F03" stroke-width="0.666667"/>
</g>
<mask id="mask33_1_20373" style="mask-type:luminance" maskUnits="userSpaceOnUse" x="-245" y="-267" width="1123" height="794">
<path d="M-245 -267H877.52V526.707H-245V-267Z" fill="white"/>
</mask>
<g mask="url(#mask33_1_20373)">
<path d="M168.563 113.861C168.563 147.049 141.673 173.94 108.504 173.94C75.3105 173.94 48.4292 147.049 48.4292 113.861C48.4292 80.6919 75.3105 53.784 108.504 53.784C141.673 53.784 168.563 80.6919 168.563 113.861Z" fill="#8B0F03"/>
</g>
<mask id="mask34_1_20373" style="mask-type:luminance" maskUnits="userSpaceOnUse" x="-245" y="-267" width="1123" height="794">
<path d="M-245 -267H877.52V526.707H-245V-267Z" fill="white"/>
</mask>
<g mask="url(#mask34_1_20373)">
<path d="M103.374 138.771C103.074 138.883 102.82 138.984 102.614 139.08C102.406 139.175 102.21 139.258 102.023 139.334C101.871 139.41 101.742 139.474 101.627 139.531C101.515 139.586 101.438 139.632 101.402 139.672C100.988 139.82 100.603 139.935 100.247 140.008C99.8897 140.086 99.5617 140.123 99.2617 140.123L98.5857 140.066C98.2831 139.914 98.0404 139.755 97.8524 139.586C97.6644 139.419 97.5151 139.279 97.4031 139.164C97.2897 139.052 97.1964 138.891 97.1217 138.686C97.0444 138.476 97.0071 138.243 97.0071 137.982C97.0071 137.831 97.0257 137.522 97.0631 137.052C97.1004 136.58 97.1964 135.99 97.3457 135.276C97.3457 135.126 97.3551 134.976 97.3737 134.826C97.3924 134.678 97.4031 134.544 97.4031 134.432C97.4031 134.282 97.4111 134.14 97.4297 134.008C97.4484 133.88 97.4591 133.738 97.4591 133.586C97.4591 133.438 97.4377 133.23 97.4031 132.966C97.3631 132.703 97.3257 132.386 97.2897 132.011C97.2137 131.67 97.1777 131.38 97.1777 131.135V130.602V130.15C97.1777 129.963 97.2137 129.738 97.2897 129.474C97.3257 129.248 97.3631 129.079 97.4031 128.966C97.4377 128.854 97.4591 128.78 97.4591 128.74C97.4591 128.703 97.4377 128.628 97.4031 128.516C97.3631 128.403 97.3257 128.254 97.2897 128.064C97.2137 127.915 97.1777 127.783 97.1777 127.671V127.39V127.163C97.1777 127.048 97.2137 126.92 97.2897 126.768C97.3257 126.656 97.3631 126.552 97.4031 126.459C97.4377 126.367 97.4591 126.282 97.4591 126.207V113.755C97.4591 113.604 97.4297 113.416 97.3737 113.19C97.3177 112.967 97.2524 112.703 97.1777 112.403C97.0631 112.14 96.9884 111.922 96.9511 111.755C96.9137 111.584 96.8951 111.463 96.8951 111.387V103.783V102.796C96.8951 102.366 96.9324 101.848 97.0071 101.247C97.0071 100.946 97.0151 100.683 97.0364 100.458C97.0551 100.231 97.0631 100.046 97.0631 99.8923C97.1004 99.7069 97.1297 99.5749 97.1484 99.4989C97.1671 99.4256 97.1777 99.3696 97.1777 99.3296L96.9511 94.9923V93.4163C96.9511 93.0776 96.9591 92.7376 96.9804 92.4003C96.9991 92.0616 97.0631 91.7243 97.1777 91.3869C97.2137 91.1243 97.3084 90.8616 97.4591 90.5989C97.6084 90.3349 97.7964 90.0909 98.0217 89.8643H99.8804C100.292 89.8643 100.726 89.9123 101.178 90.0043C101.627 90.1016 102.116 90.2229 102.643 90.3723C102.755 90.5989 102.839 90.8723 102.895 91.1896C102.951 91.5096 103.018 91.8776 103.092 92.2883C103.128 92.7029 103.167 93.1416 103.206 93.6109C103.243 94.0829 103.262 94.5603 103.262 95.0483C103.262 95.2363 103.251 95.4149 103.232 95.5856C103.214 95.7523 103.206 95.9323 103.206 96.1189V96.5989V97.0203V97.9496V98.7669L103.374 105.586C103.374 106.299 103.355 106.976 103.318 107.614C103.28 108.252 103.262 108.872 103.262 109.471C103.184 110.074 103.128 110.739 103.092 111.472C103.054 112.204 103.036 112.986 103.036 113.812C103.036 114.487 103.044 115.359 103.066 116.431C103.083 117.502 103.128 118.714 103.206 120.064C103.243 121.528 103.28 122.787 103.318 123.838C103.355 124.891 103.374 125.755 103.374 126.431L103.262 131.05C103.262 131.276 103.27 131.548 103.291 131.87C103.307 132.188 103.355 132.574 103.431 133.023C103.467 133.474 103.507 133.867 103.543 134.206C103.58 134.544 103.599 134.826 103.599 135.052V135.954V136.656V137.359C103.563 137.55 103.524 137.708 103.487 137.839C103.448 137.971 103.431 138.094 103.431 138.206C103.392 138.32 103.374 138.422 103.374 138.516V138.771ZM74.7524 103.048C74.6404 103.048 74.5084 103.031 74.3591 102.994C74.2084 102.955 74.0777 102.882 73.9631 102.768C73.7751 102.692 73.6257 102.627 73.5137 102.57C73.3991 102.515 73.3071 102.487 73.2324 102.487C72.5551 102.711 71.9831 102.93 71.5124 103.134C71.0417 103.34 70.6404 103.556 70.3017 103.783C69.9631 104.006 69.6431 104.279 69.3431 104.599C69.0431 104.919 68.7617 105.303 68.4977 105.755C68.4604 105.828 68.4231 105.903 68.3857 105.979C68.3484 106.054 68.2911 106.148 68.2164 106.26C68.1791 106.375 68.1337 106.487 68.0751 106.599C68.0191 106.712 67.9724 106.844 67.9337 106.994C67.8231 107.33 67.7191 107.623 67.6257 107.867C67.5311 108.111 67.4844 108.327 67.4844 108.514C67.5217 108.93 67.5697 109.295 67.6257 109.612C67.6817 109.934 67.7457 110.206 67.8231 110.431C67.8604 110.768 67.9257 111.135 68.0191 111.528C68.1124 111.922 68.2737 112.384 68.4977 112.908L69.0617 113.19L69.2311 113.755C69.2684 113.942 69.4577 114.139 69.7951 114.346C70.1324 114.554 70.6004 114.768 71.2044 114.994C71.7671 115.295 72.2644 115.499 72.6951 115.614C73.1284 115.726 73.4577 115.782 73.6817 115.782C74.4337 115.782 75.1937 115.632 75.9644 115.332C76.7337 115.031 77.5137 114.562 78.3017 113.924C79.0151 113.286 79.5777 112.619 79.9924 111.922C80.4044 111.228 80.6111 110.487 80.6111 109.698C80.6111 108.796 80.4617 107.96 80.1617 107.19C79.8604 106.422 79.4657 105.698 78.9791 105.02C78.4151 104.422 77.7857 103.942 77.0924 103.586C76.3951 103.227 75.6164 103.048 74.7524 103.048ZM85.7937 105.64L85.6271 108.966C85.7017 109.228 85.7671 109.471 85.8231 109.698C85.8791 109.924 85.9084 110.111 85.9084 110.26C85.9084 111.839 85.5711 113.275 84.8937 114.572C84.2191 115.867 83.2404 117.023 81.9644 118.036C80.7257 119.014 79.4017 119.746 77.9924 120.234C76.5844 120.723 75.1084 120.966 73.5684 120.966C73.0057 120.966 72.3951 120.882 71.7377 120.714C71.0817 120.543 70.3377 120.271 69.5137 119.895C69.0617 119.746 68.6391 119.586 68.2444 119.415C67.8511 119.248 67.5031 119.07 67.2031 118.882C66.4137 118.544 65.7284 117.991 65.1457 117.219C64.5644 116.448 64.0471 115.482 63.5964 114.318C63.2591 113.567 62.9844 112.908 62.7804 112.344C62.5724 111.78 62.4137 111.331 62.3017 110.994C62.4511 109.754 62.5831 108.75 62.6951 107.98C62.8097 107.21 62.9017 106.692 62.9764 106.43C63.2031 105.303 63.4471 104.382 63.7097 103.668C63.9711 102.955 64.2524 102.447 64.5564 102.148C64.7417 101.962 64.9111 101.81 65.0604 101.696C65.2871 101.51 65.4937 101.339 65.6831 101.19C65.8684 101.04 65.9991 100.927 66.0764 100.854C66.2631 100.663 66.4617 100.479 66.6671 100.288C66.8737 100.102 67.0697 99.8923 67.2591 99.6683C67.4844 99.4816 67.7111 99.2843 67.9337 99.0776C68.1604 98.8696 68.3857 98.6563 68.6124 98.4296C69.0617 98.0909 69.5591 97.8376 70.1031 97.6683C70.6484 97.4989 71.2591 97.4163 71.9351 97.4163C72.4244 97.4163 72.9217 97.4349 73.4284 97.4723C73.9364 97.5083 74.4151 97.5283 74.8644 97.5283C75.3164 97.6043 75.7684 97.6683 76.2177 97.7243C76.6684 97.7803 77.1191 97.8656 77.5697 97.9789C77.9831 97.9789 78.5004 98.1096 79.1204 98.3736C79.7391 98.6349 80.4817 98.9923 81.3457 99.4429C82.1337 99.8923 82.7537 100.298 83.2031 100.654C83.6537 101.012 83.9177 101.302 83.9924 101.528C84.0297 101.755 84.1511 102.103 84.3591 102.57C84.5644 103.042 84.8751 103.65 85.2897 104.4C85.4391 104.739 85.5604 105.02 85.6537 105.247C85.7471 105.474 85.7937 105.604 85.7937 105.64ZM92.6137 132.178L92.7244 133.419C92.7244 133.831 92.6977 134.216 92.6417 134.574C92.5844 134.93 92.5191 135.276 92.4431 135.615C92.2937 135.954 92.1137 136.198 91.9084 136.35C91.7017 136.498 91.4671 136.571 91.2044 136.571H90.9511H90.6964C90.5844 136.571 90.4817 136.563 90.3884 136.544C90.2924 136.526 90.1911 136.498 90.0777 136.462C89.8151 136.422 89.6071 136.386 89.4577 136.35C89.3071 136.31 89.2124 136.292 89.1764 136.292L88.6684 136.571C88.1417 136.462 87.6551 136.367 87.2044 136.292C86.7537 136.216 86.3404 136.178 85.9657 136.178C85.6644 136.178 85.3084 136.198 84.8937 136.235C84.4791 136.271 84.0484 136.31 83.5991 136.35C83.2964 136.386 83.0431 136.411 82.8391 136.432C82.6311 136.448 82.4511 136.462 82.3017 136.462H81.9351H81.7391C81.5124 136.462 81.2897 136.448 81.0631 136.432C80.8377 136.411 80.6111 136.386 80.3871 136.35C79.7097 136.235 79.1764 136.159 78.7817 136.123C78.3857 136.086 78.1337 136.066 78.0191 136.066C77.9084 136.178 77.7857 136.271 77.6551 136.35C77.5217 136.422 77.3817 136.479 77.2324 136.516C77.0444 136.552 76.8657 136.58 76.6964 136.602C76.5284 136.62 76.3871 136.631 76.2724 136.631H72.6684H72.4711H72.3311C72.2911 136.631 72.2457 136.62 72.1897 136.602C72.1311 136.58 72.0844 136.552 72.0484 136.516C71.9351 136.479 71.8311 136.44 71.7377 136.404C71.6457 136.367 71.5791 136.35 71.5417 136.35C71.4284 136.35 71.3151 136.375 71.2044 136.432C71.0897 136.487 70.9591 136.571 70.8084 136.686C70.5844 136.798 70.3857 136.883 70.2177 136.938C70.0471 136.995 69.9071 137.023 69.7951 137.023H69.4004C69.2497 137.023 69.0617 137.006 68.8377 136.968C68.6124 136.93 68.3671 136.902 68.1044 136.883C67.8417 136.864 67.5591 136.815 67.2591 136.743C66.6204 136.631 66.1311 136.552 65.7937 136.516C65.4577 136.479 65.2604 136.468 65.2031 136.487C65.1457 136.508 65.0124 136.526 64.8084 136.544C64.6004 136.563 64.3671 136.571 64.1031 136.571H63.2871H62.5831C62.3577 136.571 62.1604 136.563 61.9897 136.544C61.8231 136.526 61.6617 136.516 61.5124 136.516C60.1591 136.44 59.1271 136.386 58.4124 136.35C57.7004 136.31 57.2857 136.292 57.1737 136.292C57.0617 136.178 56.9484 136.058 56.8364 135.924C56.7217 135.792 56.6284 135.67 56.5551 135.56C56.4431 135.446 56.3471 135.315 56.2724 135.164C56.1964 135.014 56.1617 134.864 56.1617 134.714C56.1964 134.487 56.2431 134.282 56.3017 134.094C56.3577 133.907 56.4031 133.738 56.4431 133.586C56.4777 133.438 56.5071 133.323 56.5257 133.247C56.5431 133.175 56.5724 133.118 56.6097 133.078C56.7217 132.667 56.8737 132.364 57.0617 132.178C57.2484 131.992 57.4564 131.896 57.6817 131.896C57.7564 131.935 57.8417 131.971 57.9337 132.011C58.0271 132.047 58.1311 132.066 58.2457 132.066C58.3191 132.104 58.4044 132.12 58.4977 132.12H58.8084H58.9764H59.2591C59.3724 132.12 59.4924 132.112 59.6244 132.094C59.7564 132.076 59.8964 132.047 60.0471 132.011C60.3111 131.971 60.5351 131.935 60.7231 131.896C60.9111 131.859 61.0631 131.842 61.1737 131.842L61.6817 131.896C61.7937 131.896 61.9164 131.87 62.0457 131.81C62.1791 131.755 62.3577 131.67 62.5831 131.558C62.8444 131.558 63.1071 131.576 63.3724 131.614C63.6337 131.654 63.8777 131.727 64.1031 131.842L64.6671 131.558L65.1191 131.896H71.4844C71.5977 131.859 71.8231 131.81 72.1604 131.755C72.4991 131.698 73.0057 131.67 73.6817 131.67C74.2444 131.67 74.7244 131.66 75.1191 131.643C75.5124 131.624 75.8031 131.614 75.9911 131.614C76.4057 131.614 76.8364 131.624 77.2884 131.643C77.7377 131.66 78.2271 131.67 78.7537 131.67C79.2031 131.67 79.6831 131.68 80.1884 131.698C80.6964 131.719 81.2124 131.727 81.7391 131.727H82.4991H83.2031C83.4297 131.727 83.6364 131.719 83.8231 131.698C84.0111 131.68 84.1991 131.67 84.3857 131.67C85.0644 131.67 85.6644 131.654 86.1911 131.614C86.7151 131.576 87.1671 131.558 87.5404 131.558C87.9164 131.52 88.2191 131.494 88.4444 131.474C88.6684 131.454 88.8191 131.447 88.8937 131.447C89.5697 131.447 90.2097 131.512 90.8111 131.643C91.4111 131.776 92.0124 131.951 92.6137 132.178Z" fill="#FFE14F"/>
</g>
<mask id="mask35_1_20373" style="mask-type:luminance" maskUnits="userSpaceOnUse" x="-245" y="-267" width="1123" height="794">
<path d="M-245 -267H877.52V526.707H-245V-267Z" fill="white"/>
</mask>
<g mask="url(#mask35_1_20373)">
<path d="M103.374 138.771C103.074 138.883 102.82 138.984 102.614 139.08C102.406 139.175 102.21 139.258 102.023 139.334C101.871 139.41 101.742 139.474 101.627 139.531C101.515 139.586 101.438 139.632 101.402 139.672C100.988 139.82 100.603 139.935 100.247 140.008C99.8897 140.086 99.5617 140.123 99.2617 140.123L98.5857 140.066C98.2831 139.914 98.0404 139.755 97.8524 139.586C97.6644 139.419 97.5151 139.279 97.4031 139.164C97.2897 139.052 97.1964 138.891 97.1217 138.686C97.0444 138.476 97.0071 138.243 97.0071 137.982C97.0071 137.831 97.0257 137.522 97.0631 137.052C97.1004 136.58 97.1964 135.99 97.3457 135.276C97.3457 135.126 97.3551 134.976 97.3737 134.826C97.3924 134.678 97.4031 134.544 97.4031 134.432C97.4031 134.282 97.4111 134.14 97.4297 134.008C97.4484 133.88 97.4591 133.738 97.4591 133.586C97.4591 133.438 97.4377 133.23 97.4031 132.966C97.3631 132.703 97.3257 132.386 97.2897 132.011C97.2137 131.67 97.1777 131.38 97.1777 131.135V130.602V130.15C97.1777 129.963 97.2137 129.738 97.2897 129.474C97.3257 129.248 97.3631 129.079 97.4031 128.966C97.4377 128.854 97.4591 128.78 97.4591 128.74C97.4591 128.703 97.4377 128.628 97.4031 128.516C97.3631 128.403 97.3257 128.254 97.2897 128.064C97.2137 127.915 97.1777 127.783 97.1777 127.671V127.39V127.163C97.1777 127.048 97.2137 126.92 97.2897 126.768C97.3257 126.656 97.3631 126.552 97.4031 126.459C97.4377 126.367 97.4591 126.282 97.4591 126.207V113.755C97.4591 113.604 97.4297 113.416 97.3737 113.19C97.3177 112.967 97.2524 112.703 97.1777 112.403C97.0631 112.14 96.9884 111.922 96.9511 111.755C96.9137 111.584 96.8951 111.463 96.8951 111.387V103.783V102.796C96.8951 102.366 96.9324 101.848 97.0071 101.247C97.0071 100.946 97.0151 100.683 97.0364 100.458C97.0551 100.231 97.0631 100.046 97.0631 99.8923C97.1004 99.7069 97.1297 99.5749 97.1484 99.4989C97.1671 99.4256 97.1777 99.3696 97.1777 99.3296L96.9511 94.9923V93.4163C96.9511 93.0776 96.9591 92.7376 96.9804 92.4003C96.9991 92.0616 97.0631 91.7243 97.1777 91.3869C97.2137 91.1243 97.3084 90.8616 97.4591 90.5989C97.6084 90.3349 97.7964 90.0909 98.0217 89.8643H99.8804C100.292 89.8643 100.726 89.9123 101.178 90.0043C101.627 90.1016 102.116 90.2229 102.643 90.3723C102.755 90.5989 102.839 90.8723 102.895 91.1896C102.951 91.5096 103.018 91.8776 103.092 92.2883C103.128 92.7029 103.167 93.1416 103.206 93.6109C103.243 94.0829 103.262 94.5603 103.262 95.0483C103.262 95.2363 103.251 95.4149 103.232 95.5856C103.214 95.7523 103.206 95.9323 103.206 96.1189V96.5989V97.0203V97.9496V98.7669L103.374 105.586C103.374 106.299 103.355 106.976 103.318 107.614C103.28 108.252 103.262 108.872 103.262 109.471C103.184 110.074 103.128 110.739 103.092 111.472C103.054 112.204 103.036 112.986 103.036 113.812C103.036 114.487 103.044 115.359 103.066 116.431C103.083 117.502 103.128 118.714 103.206 120.064C103.243 121.528 103.28 122.787 103.318 123.838C103.355 124.891 103.374 125.755 103.374 126.431L103.262 131.05C103.262 131.276 103.27 131.548 103.291 131.87C103.307 132.188 103.355 132.574 103.431 133.023C103.467 133.474 103.507 133.867 103.543 134.206C103.58 134.544 103.599 134.826 103.599 135.052V135.954V136.656V137.359C103.563 137.55 103.524 137.708 103.487 137.839C103.448 137.971 103.431 138.094 103.431 138.206C103.392 138.32 103.374 138.422 103.374 138.516V138.771ZM74.7524 103.048C74.6404 103.048 74.5084 103.031 74.3591 102.994C74.2084 102.955 74.0777 102.882 73.9631 102.768C73.7751 102.692 73.6257 102.627 73.5137 102.57C73.3991 102.515 73.3071 102.487 73.2324 102.487C72.5551 102.711 71.9831 102.93 71.5124 103.134C71.0417 103.34 70.6404 103.556 70.3017 103.783C69.9631 104.006 69.6431 104.279 69.3431 104.599C69.0431 104.919 68.7617 105.303 68.4977 105.755C68.4604 105.828 68.4231 105.903 68.3857 105.979C68.3484 106.054 68.2911 106.148 68.2164 106.26C68.1791 106.375 68.1337 106.487 68.0751 106.599C68.0191 106.712 67.9724 106.844 67.9337 106.994C67.8231 107.33 67.7191 107.623 67.6257 107.867C67.5311 108.111 67.4844 108.327 67.4844 108.514C67.5217 108.93 67.5697 109.295 67.6257 109.612C67.6817 109.934 67.7457 110.206 67.8231 110.431C67.8604 110.768 67.9257 111.135 68.0191 111.528C68.1124 111.922 68.2737 112.384 68.4977 112.908L69.0617 113.19L69.2311 113.755C69.2684 113.942 69.4577 114.139 69.7951 114.346C70.1324 114.554 70.6004 114.768 71.2044 114.994C71.7671 115.295 72.2644 115.499 72.6951 115.614C73.1284 115.726 73.4577 115.782 73.6817 115.782C74.4337 115.782 75.1937 115.632 75.9644 115.332C76.7337 115.031 77.5137 114.562 78.3017 113.924C79.0151 113.286 79.5777 112.619 79.9924 111.922C80.4044 111.228 80.6111 110.487 80.6111 109.698C80.6111 108.796 80.4617 107.96 80.1617 107.19C79.8604 106.422 79.4657 105.698 78.9791 105.02C78.4151 104.422 77.7857 103.942 77.0924 103.586C76.3951 103.227 75.6164 103.048 74.7524 103.048ZM85.7937 105.64L85.6271 108.966C85.7017 109.228 85.7671 109.471 85.8231 109.698C85.8791 109.924 85.9084 110.111 85.9084 110.26C85.9084 111.839 85.5711 113.275 84.8937 114.572C84.2191 115.867 83.2404 117.023 81.9644 118.036C80.7257 119.014 79.4017 119.746 77.9924 120.234C76.5844 120.723 75.1084 120.966 73.5684 120.966C73.0057 120.966 72.3951 120.882 71.7377 120.714C71.0817 120.543 70.3377 120.271 69.5137 119.895C69.0617 119.746 68.6391 119.586 68.2444 119.415C67.8511 119.248 67.5031 119.07 67.2031 118.882C66.4137 118.544 65.7284 117.991 65.1457 117.219C64.5644 116.448 64.0471 115.482 63.5964 114.318C63.2591 113.567 62.9844 112.908 62.7804 112.344C62.5724 111.78 62.4137 111.331 62.3017 110.994C62.4511 109.754 62.5831 108.75 62.6951 107.98C62.8097 107.21 62.9017 106.692 62.9764 106.43C63.2031 105.303 63.4471 104.382 63.7097 103.668C63.9711 102.955 64.2524 102.447 64.5564 102.148C64.7417 101.962 64.9111 101.81 65.0604 101.696C65.2871 101.51 65.4937 101.339 65.6831 101.19C65.8684 101.04 65.9991 100.927 66.0764 100.854C66.2631 100.663 66.4617 100.479 66.6671 100.288C66.8737 100.102 67.0697 99.8923 67.2591 99.6683C67.4844 99.4816 67.7111 99.2843 67.9337 99.0776C68.1604 98.8696 68.3857 98.6563 68.6124 98.4296C69.0617 98.0909 69.5591 97.8376 70.1031 97.6683C70.6484 97.4989 71.2591 97.4163 71.9351 97.4163C72.4244 97.4163 72.9217 97.4349 73.4284 97.4723C73.9364 97.5083 74.4151 97.5283 74.8644 97.5283C75.3164 97.6043 75.7684 97.6683 76.2177 97.7243C76.6684 97.7803 77.1191 97.8656 77.5697 97.9789C77.9831 97.9789 78.5004 98.1096 79.1204 98.3736C79.7391 98.6349 80.4817 98.9923 81.3457 99.4429C82.1337 99.8923 82.7537 100.298 83.2031 100.654C83.6537 101.012 83.9177 101.302 83.9924 101.528C84.0297 101.755 84.1511 102.103 84.3591 102.57C84.5644 103.042 84.8751 103.65 85.2897 104.4C85.4391 104.739 85.5604 105.02 85.6537 105.247C85.7471 105.474 85.7937 105.604 85.7937 105.64ZM92.6137 132.178L92.7244 133.419C92.7244 133.831 92.6977 134.216 92.6417 134.574C92.5844 134.93 92.5191 135.276 92.4431 135.615C92.2937 135.954 92.1137 136.198 91.9084 136.35C91.7017 136.498 91.4671 136.571 91.2044 136.571H90.9511H90.6964C90.5844 136.571 90.4817 136.563 90.3884 136.544C90.2924 136.526 90.1911 136.498 90.0777 136.462C89.8151 136.422 89.6071 136.386 89.4577 136.35C89.3071 136.31 89.2124 136.292 89.1764 136.292L88.6684 136.571C88.1417 136.462 87.6551 136.367 87.2044 136.292C86.7537 136.216 86.3404 136.178 85.9657 136.178C85.6644 136.178 85.3084 136.198 84.8937 136.235C84.4791 136.271 84.0484 136.31 83.5991 136.35C83.2964 136.386 83.0431 136.411 82.8391 136.432C82.6311 136.448 82.4511 136.462 82.3017 136.462H81.9351H81.7391C81.5124 136.462 81.2897 136.448 81.0631 136.432C80.8377 136.411 80.6111 136.386 80.3871 136.35C79.7097 136.235 79.1764 136.159 78.7817 136.123C78.3857 136.086 78.1337 136.066 78.0191 136.066C77.9084 136.178 77.7857 136.271 77.6551 136.35C77.5217 136.422 77.3817 136.479 77.2324 136.516C77.0444 136.552 76.8657 136.58 76.6964 136.602C76.5284 136.62 76.3871 136.631 76.2724 136.631H72.6684H72.4711H72.3311C72.2911 136.631 72.2457 136.62 72.1897 136.602C72.1311 136.58 72.0844 136.552 72.0484 136.516C71.9351 136.479 71.8311 136.44 71.7377 136.404C71.6457 136.367 71.5791 136.35 71.5417 136.35C71.4284 136.35 71.3151 136.375 71.2044 136.432C71.0897 136.487 70.9591 136.571 70.8084 136.686C70.5844 136.798 70.3857 136.883 70.2177 136.938C70.0471 136.995 69.9071 137.023 69.7951 137.023H69.4004C69.2497 137.023 69.0617 137.006 68.8377 136.968C68.6124 136.93 68.3671 136.902 68.1044 136.883C67.8417 136.864 67.5591 136.815 67.2591 136.743C66.6204 136.631 66.1311 136.552 65.7937 136.516C65.4577 136.479 65.2604 136.468 65.2031 136.487C65.1457 136.508 65.0124 136.526 64.8084 136.544C64.6004 136.563 64.3671 136.571 64.1031 136.571H63.2871H62.5831C62.3577 136.571 62.1604 136.563 61.9897 136.544C61.8231 136.526 61.6617 136.516 61.5124 136.516C60.1591 136.44 59.1271 136.386 58.4124 136.35C57.7004 136.31 57.2857 136.292 57.1737 136.292C57.0617 136.178 56.9484 136.058 56.8364 135.924C56.7217 135.792 56.6284 135.67 56.5551 135.56C56.4431 135.446 56.3471 135.315 56.2724 135.164C56.1964 135.014 56.1617 134.864 56.1617 134.714C56.1964 134.487 56.2431 134.282 56.3017 134.094C56.3577 133.907 56.4031 133.738 56.4431 133.586C56.4777 133.438 56.5071 133.323 56.5257 133.247C56.5431 133.175 56.5724 133.118 56.6097 133.078C56.7217 132.667 56.8737 132.364 57.0617 132.178C57.2484 131.992 57.4564 131.896 57.6817 131.896C57.7564 131.935 57.8417 131.971 57.9337 132.011C58.0271 132.047 58.1311 132.066 58.2457 132.066C58.3191 132.104 58.4044 132.12 58.4977 132.12H58.8084H58.9764H59.2591C59.3724 132.12 59.4924 132.112 59.6244 132.094C59.7564 132.076 59.8964 132.047 60.0471 132.011C60.3111 131.971 60.5351 131.935 60.7231 131.896C60.9111 131.859 61.0631 131.842 61.1737 131.842L61.6817 131.896C61.7937 131.896 61.9164 131.87 62.0457 131.81C62.1791 131.755 62.3577 131.67 62.5831 131.558C62.8444 131.558 63.1071 131.576 63.3724 131.614C63.6337 131.654 63.8777 131.727 64.1031 131.842L64.6671 131.558L65.1191 131.896H71.4844C71.5977 131.859 71.8231 131.81 72.1604 131.755C72.4991 131.698 73.0057 131.67 73.6817 131.67C74.2444 131.67 74.7244 131.66 75.1191 131.643C75.5124 131.624 75.8031 131.614 75.9911 131.614C76.4057 131.614 76.8364 131.624 77.2884 131.643C77.7377 131.66 78.2271 131.67 78.7537 131.67C79.2031 131.67 79.6831 131.68 80.1884 131.698C80.6964 131.719 81.2124 131.727 81.7391 131.727H82.4991H83.2031C83.4297 131.727 83.6364 131.719 83.8231 131.698C84.0111 131.68 84.1991 131.67 84.3857 131.67C85.0644 131.67 85.6644 131.654 86.1911 131.614C86.7151 131.576 87.1671 131.558 87.5404 131.558C87.9164 131.52 88.2191 131.494 88.4444 131.474C88.6684 131.454 88.8191 131.447 88.8937 131.447C89.5697 131.447 90.2097 131.512 90.8111 131.643C91.4111 131.776 92.0124 131.951 92.6137 132.178Z" stroke="#FFE14F" stroke-width="0.666667" stroke-miterlimit="10"/>
</g>
<mask id="mask36_1_20373" style="mask-type:luminance" maskUnits="userSpaceOnUse" x="-245" y="-267" width="1123" height="794">
<path d="M-245 -267H877.52V526.707H-245V-267Z" fill="white"/>
</mask>
<g mask="url(#mask36_1_20373)">
<path d="M155.13 138.659C154.905 138.771 154.686 138.883 154.481 138.995C154.274 139.107 154.077 139.2 153.889 139.279C153.74 139.352 153.589 139.427 153.438 139.503C153.289 139.578 153.176 139.632 153.102 139.672C152.686 139.82 152.302 139.935 151.946 140.008C151.589 140.086 151.241 140.123 150.904 140.123L150.284 140.066C150.172 140.026 150.077 139.982 150.002 139.927C149.926 139.867 149.852 139.82 149.777 139.787C149.702 139.744 149.628 139.7 149.55 139.643C149.476 139.586 149.42 139.52 149.382 139.446C149.12 139.298 148.932 139.099 148.82 138.854C148.706 138.61 148.65 138.32 148.65 137.982C148.65 137.831 148.668 137.52 148.706 137.052C148.742 136.58 148.82 135.99 148.932 135.276C148.932 135.126 148.94 134.976 148.961 134.826C148.978 134.678 148.988 134.544 148.988 134.432C149.025 134.282 149.053 134.14 149.073 134.008C149.09 133.88 149.101 133.738 149.101 133.586C149.101 133.511 149.09 133.427 149.073 133.334C149.053 133.24 149.025 133.118 148.988 132.966C148.988 132.854 148.969 132.714 148.932 132.544C148.894 132.375 148.876 132.198 148.876 132.011C148.8 131.67 148.764 131.38 148.764 131.135V130.602V130.15C148.764 129.963 148.8 129.738 148.876 129.474C148.876 129.36 148.894 129.267 148.932 129.192C148.969 129.116 148.988 129.043 148.988 128.966C149.025 128.928 149.053 128.892 149.073 128.854C149.09 128.818 149.101 128.78 149.101 128.74C148.988 128.479 148.913 128.243 148.876 128.036C148.838 127.831 148.82 127.614 148.82 127.39C148.82 127.276 148.838 127.174 148.876 127.079C148.913 126.987 148.95 126.882 148.988 126.768C149.025 126.694 149.053 126.61 149.073 126.515C149.09 126.422 149.101 126.32 149.101 126.207V113.812C149.101 113.734 149.08 113.652 149.045 113.556C149.005 113.463 148.988 113.36 148.988 113.248C148.95 113.135 148.913 113.014 148.876 112.882C148.838 112.75 148.8 112.607 148.764 112.458C148.65 112.195 148.584 111.982 148.565 111.811C148.546 111.64 148.537 111.499 148.537 111.387V103.726V102.656C148.537 102.243 148.574 101.772 148.65 101.247C148.686 100.72 148.724 100.298 148.764 99.9789C148.8 99.6589 148.82 99.4429 148.82 99.3296C148.82 99.2176 148.809 99.0883 148.79 98.9363C148.772 98.7869 148.764 98.6163 148.764 98.4296C148.764 98.2416 148.753 98.0443 148.734 97.8376C148.716 97.6309 148.706 97.3976 148.706 97.1336C148.63 96.6816 148.594 96.2696 148.594 95.8923V94.9923V93.6416C148.594 93.2669 148.602 92.8989 148.622 92.5416C148.641 92.1843 148.686 91.8563 148.764 91.5536C148.8 91.2549 148.905 90.9643 149.073 90.6816C149.241 90.4003 149.438 90.1469 149.665 89.9216H151.58C152.03 89.9216 152.482 89.9709 152.932 90.0616C153.384 90.1563 153.852 90.2776 154.341 90.4283C154.452 90.7296 154.556 91.0483 154.652 91.3869C154.744 91.7243 154.809 92.0816 154.848 92.4549C154.848 92.8709 154.866 93.2829 154.905 93.6976C154.941 94.1083 154.961 94.5229 154.961 94.9363C154.961 95.0883 154.949 95.2363 154.934 95.3869C154.912 95.5376 154.905 95.6869 154.905 95.8363V96.4003V97.0203C154.866 97.4723 154.848 97.8469 154.848 98.1469V98.7669V100.487C154.848 101.143 154.885 101.867 154.961 102.656C154.997 103.482 155.034 104.138 155.074 104.627C155.109 105.114 155.13 105.436 155.13 105.586C155.13 105.847 155.12 106.119 155.101 106.4C155.082 106.683 155.053 106.994 155.017 107.33C155.017 107.668 154.997 108.036 154.961 108.43C154.922 108.826 154.905 109.247 154.905 109.698C154.792 110.638 154.726 111.454 154.708 112.148C154.686 112.843 154.678 113.416 154.678 113.867C154.678 114.543 154.686 115.406 154.708 116.459C154.726 117.51 154.792 118.714 154.905 120.064C154.905 120.778 154.922 121.443 154.961 122.064C154.997 122.684 155.017 123.256 155.017 123.782C155.053 124.31 155.082 124.798 155.101 125.248C155.12 125.699 155.13 126.094 155.13 126.431C155.13 126.582 155.12 126.742 155.101 126.91C155.082 127.079 155.074 127.276 155.074 127.502C155.074 127.727 155.064 127.972 155.045 128.234C155.026 128.498 155.017 128.762 155.017 129.022C154.941 129.662 154.905 130.15 154.905 130.488V131.05C154.905 131.276 154.912 131.539 154.934 131.842C154.949 132.14 154.997 132.516 155.074 132.966C155.109 133.419 155.149 133.812 155.186 134.148C155.224 134.487 155.241 134.79 155.241 135.052L155.13 138.659ZM125.157 110.094C125.042 110.094 124.912 110.119 124.761 110.175C124.612 110.234 124.46 110.298 124.31 110.375C124.197 110.45 124.085 110.515 123.973 110.571C123.86 110.627 123.746 110.675 123.633 110.712C123.521 110.786 123.398 110.862 123.269 110.938C123.136 111.012 123.014 111.088 122.902 111.16C122.602 111.275 122.338 111.463 122.113 111.726C121.886 111.988 121.698 112.288 121.549 112.626C121.437 112.852 121.324 113.146 121.212 113.5C121.1 113.856 120.986 114.223 120.874 114.599C120.948 115.426 121.078 116.148 121.268 116.768C121.457 117.387 121.718 117.924 122.057 118.374C122.469 118.976 122.958 119.415 123.521 119.698C124.085 119.979 124.761 120.12 125.549 120.12C126.113 120.12 126.677 120.008 127.241 119.782C127.804 119.556 128.368 119.182 128.93 118.656C129.494 118.131 129.917 117.595 130.198 117.048C130.481 116.507 130.621 115.895 130.621 115.218C130.621 114.656 130.518 114.091 130.31 113.53C130.102 112.967 129.832 112.439 129.494 111.951C129.117 111.499 128.686 111.143 128.197 110.88C127.709 110.619 127.185 110.487 126.621 110.487H126.48C126.424 110.487 126.377 110.468 126.34 110.431C126.262 110.431 126.188 110.412 126.113 110.375C126.038 110.336 125.962 110.298 125.888 110.26C125.698 110.223 125.54 110.187 125.409 110.148C125.276 110.111 125.193 110.094 125.157 110.094ZM140.254 102.992C140.254 103.482 140.122 103.876 139.861 104.176C139.598 104.476 139.221 104.684 138.734 104.796C138.434 104.91 138.068 104.974 137.636 104.992C137.204 105.012 136.685 105.02 136.086 105.02C135.861 104.947 135.653 104.88 135.468 104.826C135.278 104.768 135.128 104.739 135.016 104.739C134.865 104.851 134.649 104.936 134.368 104.992C134.085 105.05 133.756 105.078 133.381 105.078C132.968 105.154 132.582 105.191 132.228 105.191H131.241H128.988C128.761 105.191 128.564 105.21 128.394 105.247C128.226 105.284 128.104 105.303 128.03 105.303C128.104 105.34 128.189 105.37 128.282 105.387C128.376 105.407 128.461 105.414 128.534 105.414H128.734H128.93C129.044 105.454 129.146 105.499 129.24 105.556C129.333 105.614 129.438 105.678 129.55 105.755L130.789 105.979C131.241 105.979 131.738 106.195 132.284 106.627C132.828 107.059 133.4 107.69 134.001 108.514C134.564 109.379 135.005 110.148 135.326 110.826C135.644 111.499 135.805 112.063 135.805 112.515C135.805 112.626 135.794 112.732 135.776 112.826C135.757 112.919 135.746 113.023 135.746 113.135V113.388V113.642C135.709 113.83 135.682 114.008 135.664 114.176C135.644 114.346 135.634 114.487 135.634 114.599V114.966C135.634 115.099 135.673 115.239 135.746 115.387C135.784 115.614 135.824 115.791 135.861 115.923C135.898 116.055 135.916 116.14 135.916 116.178L135.972 116.459C135.972 116.534 135.954 116.627 135.916 116.742C135.88 116.852 135.842 116.987 135.805 117.135C135.728 117.323 135.664 117.51 135.608 117.698C135.55 117.887 135.484 118.092 135.409 118.318C135.297 118.544 135.202 118.77 135.128 118.992C135.053 119.218 134.978 119.444 134.904 119.67C134.789 119.86 134.696 120.056 134.622 120.262C134.545 120.468 134.49 120.648 134.452 120.798C133.776 121.586 133.1 122.254 132.424 122.796C131.748 123.342 131.108 123.766 130.508 124.064C129.832 124.403 129.098 124.647 128.312 124.798C127.521 124.947 126.658 125.022 125.72 125.022C124.441 125.022 123.325 124.9 122.368 124.658C121.408 124.412 120.592 124.027 119.917 123.5C119.428 123.163 118.873 122.611 118.253 121.839C117.633 121.07 116.985 120.086 116.309 118.882C116.198 118.695 116.094 118.495 115.998 118.291C115.906 118.083 115.84 117.848 115.802 117.586C115.728 117.36 115.69 117.127 115.69 116.882V116.007C115.69 115.332 115.72 114.656 115.776 113.979C115.832 113.304 115.954 112.607 116.14 111.895C116.292 111.22 116.498 110.627 116.762 110.119C117.022 109.612 117.344 109.211 117.718 108.908C117.756 108.908 117.897 108.776 118.141 108.514C118.386 108.252 118.732 107.838 119.184 107.275C119.446 106.936 119.728 106.683 120.029 106.515C120.328 106.344 120.61 106.26 120.874 106.26C120.948 106.148 121.042 106.046 121.156 105.951C121.268 105.859 121.418 105.772 121.605 105.698C121.642 105.698 121.698 105.678 121.776 105.64C121.85 105.603 121.925 105.566 122.001 105.528C122.074 105.492 122.142 105.454 122.197 105.414C122.253 105.38 122.32 105.34 122.394 105.303H120.592H119.577C119.277 105.303 119.013 105.266 118.79 105.191C118.3 105.154 117.878 105.106 117.521 105.05C117.164 104.992 116.854 104.947 116.592 104.91C116.365 104.91 116.177 104.89 116.028 104.851C115.877 104.816 115.784 104.796 115.746 104.796C115.633 104.796 115.513 104.806 115.38 104.826C115.249 104.843 115.126 104.851 115.016 104.851C114.864 104.851 114.705 104.862 114.534 104.88C114.366 104.898 114.188 104.91 114 104.91C113.548 104.984 113.202 105.02 112.958 105.02H112.422C112.309 105.02 112.168 104.984 112.001 104.91C111.83 104.835 111.728 104.703 111.689 104.514C111.578 104.364 111.493 104.167 111.436 103.924C111.38 103.679 111.352 103.368 111.352 102.992C111.352 102.43 111.38 101.942 111.436 101.528C111.493 101.116 111.578 100.76 111.689 100.458C111.801 100.198 112.02 99.9896 112.338 99.8376C112.657 99.6883 113.098 99.6109 113.662 99.6109L122.113 100.288C122.186 100.102 122.272 99.9323 122.368 99.7816C122.461 99.6323 122.525 99.4816 122.564 99.3296C122.638 99.2176 122.694 99.1243 122.733 99.0483C122.769 98.9736 122.806 98.9189 122.846 98.8803V98.3736C122.846 98.2229 122.854 98.0443 122.873 97.8376C122.892 97.6309 122.902 97.3976 122.902 97.1336C122.865 96.9843 122.846 96.8709 122.846 96.7936V96.4003V95.8923C122.806 95.5549 122.79 95.2656 122.79 95.0203V94.3176C122.79 93.9789 122.798 93.6869 122.817 93.4416C122.836 93.2003 122.882 92.9843 122.958 92.7963C123.108 92.7589 123.229 92.6563 123.325 92.4856C123.418 92.3149 123.465 92.0816 123.465 91.7803C123.916 91.7069 124.385 91.6309 124.874 91.5536C125.361 91.4816 125.869 91.4416 126.394 91.4416C126.958 91.4416 127.428 91.5096 127.804 91.6403C128.178 91.7723 128.461 91.9496 128.649 92.1736C128.798 92.4003 128.921 92.7283 129.016 93.1603C129.109 93.5936 129.157 94.1269 129.157 94.7656C129.157 94.9176 129.146 95.0576 129.128 95.1896C129.109 95.3216 129.098 95.4243 129.098 95.4989V95.8096V96.0616C128.988 96.7776 128.921 97.3229 128.902 97.6976C128.882 98.0723 128.874 98.3096 128.874 98.4016V98.7669C128.874 98.9189 128.909 99.0483 128.988 99.1616C128.988 99.2723 129.005 99.3776 129.044 99.4709C129.08 99.5656 129.117 99.6323 129.157 99.6683C129.457 99.7816 129.784 99.8669 130.144 99.9229C130.498 99.9789 130.845 100.007 131.185 100.007C131.222 100.007 131.277 99.9963 131.353 99.9789C131.426 99.9603 131.502 99.9323 131.578 99.8923C131.653 99.8563 131.718 99.8283 131.774 99.8096C131.83 99.7909 131.897 99.7629 131.972 99.7256C132.009 99.7256 132.057 99.7149 132.113 99.6976C132.17 99.6776 132.234 99.6683 132.312 99.6683C132.348 99.6683 132.394 99.6589 132.453 99.6403C132.509 99.6216 132.573 99.6109 132.649 99.6109C132.686 99.6109 132.734 99.6216 132.79 99.6403C132.846 99.6589 132.892 99.6883 132.932 99.7256C133.006 99.7256 133.08 99.7443 133.157 99.7816C133.232 99.8203 133.325 99.8376 133.437 99.8376C133.588 99.9136 133.729 99.9603 133.858 99.9789C133.992 99.9963 134.114 100.007 134.226 100.007C134.341 100.007 134.5 99.9963 134.705 99.9789C134.912 99.9603 135.164 99.9136 135.468 99.8376C135.69 99.8003 135.906 99.7629 136.114 99.7256C136.321 99.6883 136.518 99.6683 136.706 99.6683C136.78 99.6683 136.922 99.6883 137.129 99.7256C137.333 99.7629 137.608 99.8003 137.945 99.8376C138.208 99.9136 138.453 99.9603 138.678 99.9789C138.902 99.9963 139.09 100.007 139.241 100.007C139.39 100.198 139.524 100.392 139.636 100.599C139.748 100.806 139.861 101.058 139.973 101.359C140.048 101.66 140.113 101.942 140.169 102.203C140.228 102.466 140.254 102.73 140.254 102.992ZM143.748 133.474C143.748 133.586 143.766 133.7 143.804 133.812C143.841 133.924 143.862 134.036 143.862 134.148C143.897 134.227 143.926 134.31 143.945 134.404C143.964 134.498 143.992 134.583 144.029 134.659C144.029 134.847 144.048 135.023 144.085 135.192C144.122 135.362 144.144 135.539 144.144 135.73C144.144 136.178 144.085 136.58 143.973 136.938C143.862 137.295 143.692 137.586 143.466 137.812C143.392 137.812 143.288 137.831 143.157 137.87C143.025 137.907 142.884 137.943 142.736 137.982C142.621 138.019 142.517 138.047 142.424 138.066C142.33 138.083 142.265 138.094 142.226 138.094H142.03C141.974 138.094 141.382 138.039 140.254 137.924H139.748H139.128C138.902 137.924 138.658 137.914 138.397 137.899C138.133 137.878 137.852 137.85 137.552 137.812C136.874 137.776 136.357 137.747 136.001 137.727C135.644 137.708 135.446 137.698 135.409 137.698C135.334 137.698 135.269 137.716 135.213 137.758C135.156 137.792 135.108 137.812 135.072 137.812C134.997 137.812 134.93 137.839 134.874 137.899C134.818 137.954 134.789 137.998 134.789 138.039C134.564 137.924 134.376 137.85 134.226 137.812C134.077 137.776 133.981 137.758 133.944 137.758C133.832 137.831 133.71 137.878 133.577 137.899C133.448 137.914 133.288 137.924 133.1 137.924C132.988 137.924 132.809 137.914 132.565 137.899C132.32 137.878 131.992 137.831 131.578 137.758C131.164 137.68 130.808 137.626 130.508 137.586C130.206 137.55 129.944 137.531 129.72 137.531C129.606 137.531 129.484 137.568 129.353 137.643C129.221 137.716 129.098 137.812 128.988 137.924C128.798 138.039 128.62 138.132 128.452 138.206C128.282 138.282 128.085 138.32 127.86 138.32C127.672 138.32 127.466 138.31 127.241 138.292C127.014 138.274 126.789 138.227 126.565 138.151C126.262 138.112 126.028 138.074 125.86 138.039C125.69 137.998 125.549 137.982 125.437 137.982C125.324 137.982 125.213 137.998 125.101 138.039C124.986 138.074 124.853 138.112 124.704 138.151C124.63 138.187 124.564 138.214 124.508 138.235C124.452 138.252 124.385 138.26 124.31 138.26H124.197C124.158 138.26 124.048 138.206 123.86 138.094C123.746 137.982 123.644 137.907 123.55 137.87C123.456 137.831 123.352 137.812 123.24 137.812C123.165 137.812 123.08 137.831 122.988 137.87C122.892 137.907 122.75 137.982 122.564 138.094C122.376 138.206 122.206 138.282 122.057 138.32C121.905 138.354 121.776 138.375 121.662 138.375C120.948 138.299 120.225 138.227 119.493 138.151C118.761 138.074 118.056 137.998 117.381 137.924L113.38 138.039C112.741 138.039 112.168 138.028 111.661 138.011C111.156 137.992 110.693 137.962 110.281 137.924C109.832 137.888 109.484 137.812 109.238 137.698C108.994 137.586 108.834 137.435 108.761 137.247L108.252 136.066C108.252 135.842 108.29 135.615 108.366 135.388C108.441 135.164 108.534 134.902 108.646 134.602C108.684 134.487 108.722 134.367 108.761 134.235C108.797 134.104 108.816 134 108.816 133.924C108.853 133.812 108.89 133.719 108.928 133.643C108.965 133.568 109.005 133.492 109.042 133.419L109.998 133.586H110.309H110.618C110.693 133.586 110.778 133.578 110.874 133.56C110.966 133.542 111.07 133.531 111.182 133.531C111.784 133.456 112.261 133.399 112.62 133.359C112.976 133.323 113.21 133.304 113.325 133.304H113.633H113.888C114 133.304 114.093 133.298 114.169 133.279C114.244 133.26 114.337 133.247 114.452 133.247C115.089 133.175 115.578 133.118 115.916 133.078C116.253 133.042 116.48 133.023 116.592 133.023C116.741 133.023 116.91 133.06 117.1 133.138C117.286 133.211 117.474 133.304 117.662 133.419L119.072 133.586C119.184 133.586 119.4 133.578 119.718 133.56C120.037 133.542 120.48 133.492 121.042 133.419C121.493 133.342 121.916 133.287 122.309 133.247C122.705 133.211 123.014 133.192 123.24 133.192C123.314 133.192 123.446 133.211 123.633 133.247C123.822 133.287 124.085 133.359 124.422 133.474C124.537 133.511 124.648 133.542 124.761 133.56C124.874 133.578 125.005 133.586 125.157 133.586L125.268 133.304C125.193 133.192 125.072 133.099 124.901 133.023C124.733 132.948 124.537 132.911 124.31 132.911C124.197 132.911 124.093 132.883 124 132.826C123.908 132.771 123.804 132.686 123.69 132.574C123.541 132.422 123.398 132.292 123.269 132.178C123.136 132.066 123.032 131.951 122.958 131.842C122.846 131.766 122.761 131.698 122.705 131.643C122.649 131.587 122.602 131.52 122.564 131.447C122.376 131.22 122.245 130.968 122.169 130.687C122.094 130.404 122.057 130.075 122.057 129.7C122.057 128.91 122.142 128.215 122.309 127.614C122.48 127.015 122.79 126.544 123.24 126.207C123.614 125.867 124.114 125.596 124.733 125.388C125.353 125.183 126.057 125.08 126.846 125.08C127.485 125.08 128.048 125.172 128.534 125.362C129.024 125.55 129.473 125.792 129.888 126.094C130.225 126.431 130.489 126.835 130.677 127.304C130.864 127.775 130.958 128.291 130.958 128.854C130.958 129.304 130.874 129.756 130.706 130.206C130.537 130.658 130.32 131.05 130.057 131.387C129.72 131.766 129.457 132.076 129.269 132.318C129.08 132.563 128.968 132.743 128.93 132.854C128.93 132.894 129.034 132.919 129.24 132.938C129.446 132.959 129.72 132.984 130.057 133.023C130.433 133.06 130.882 133.088 131.408 133.107C131.936 133.126 132.554 133.138 133.269 133.138C133.944 133.138 134.556 133.146 135.1 133.164C135.644 133.183 136.142 133.192 136.592 133.192H137.636H138.282C138.32 133.192 138.397 133.183 138.509 133.164C138.621 133.146 138.753 133.099 138.902 133.023C139.016 132.984 139.146 132.948 139.297 132.911C139.446 132.872 139.58 132.854 139.692 132.854C139.917 132.854 140.133 132.864 140.34 132.883C140.545 132.904 140.762 132.93 140.989 132.966C141.174 132.966 141.504 133.016 141.974 133.107C142.442 133.2 143.034 133.323 143.748 133.474Z" fill="#FFE14F"/>
</g>
<mask id="mask37_1_20373" style="mask-type:luminance" maskUnits="userSpaceOnUse" x="-245" y="-267" width="1123" height="794">
<path d="M-245 -267H877.52V526.707H-245V-267Z" fill="white"/>
</mask>
<g mask="url(#mask37_1_20373)">
<path d="M155.13 138.659C154.905 138.771 154.686 138.883 154.481 138.995C154.274 139.107 154.077 139.2 153.889 139.279C153.74 139.352 153.589 139.427 153.438 139.503C153.289 139.578 153.176 139.632 153.102 139.672C152.686 139.82 152.302 139.935 151.946 140.008C151.589 140.086 151.241 140.123 150.904 140.123L150.284 140.066C150.172 140.026 150.077 139.982 150.002 139.927C149.926 139.867 149.852 139.82 149.777 139.787C149.702 139.744 149.628 139.7 149.55 139.643C149.476 139.586 149.42 139.52 149.382 139.446C149.12 139.298 148.932 139.099 148.82 138.854C148.706 138.61 148.65 138.32 148.65 137.982C148.65 137.831 148.668 137.52 148.706 137.052C148.742 136.58 148.82 135.99 148.932 135.276C148.932 135.126 148.94 134.976 148.961 134.826C148.978 134.678 148.988 134.544 148.988 134.432C149.025 134.282 149.053 134.14 149.073 134.008C149.09 133.88 149.101 133.738 149.101 133.586C149.101 133.511 149.09 133.427 149.073 133.334C149.053 133.24 149.025 133.118 148.988 132.966C148.988 132.854 148.969 132.714 148.932 132.544C148.894 132.375 148.876 132.198 148.876 132.011C148.8 131.67 148.764 131.38 148.764 131.135V130.602V130.15C148.764 129.963 148.8 129.738 148.876 129.474C148.876 129.36 148.894 129.267 148.932 129.192C148.969 129.116 148.988 129.043 148.988 128.966C149.025 128.928 149.053 128.892 149.073 128.854C149.09 128.818 149.101 128.78 149.101 128.74C148.988 128.479 148.913 128.243 148.876 128.036C148.838 127.831 148.82 127.614 148.82 127.39C148.82 127.276 148.838 127.174 148.876 127.079C148.913 126.987 148.95 126.882 148.988 126.768C149.025 126.694 149.053 126.61 149.073 126.515C149.09 126.422 149.101 126.32 149.101 126.207V113.812C149.101 113.734 149.08 113.652 149.045 113.556C149.005 113.463 148.988 113.36 148.988 113.248C148.95 113.135 148.913 113.014 148.876 112.882C148.838 112.75 148.8 112.607 148.764 112.458C148.65 112.195 148.584 111.982 148.565 111.811C148.546 111.64 148.537 111.499 148.537 111.387V103.726V102.656C148.537 102.243 148.574 101.772 148.65 101.247C148.686 100.72 148.724 100.298 148.764 99.9789C148.8 99.6589 148.82 99.4429 148.82 99.3296C148.82 99.2176 148.809 99.0883 148.79 98.9363C148.772 98.7869 148.764 98.6163 148.764 98.4296C148.764 98.2416 148.753 98.0443 148.734 97.8376C148.716 97.6309 148.706 97.3976 148.706 97.1336C148.63 96.6816 148.594 96.2696 148.594 95.8923V94.9923V93.6416C148.594 93.2669 148.602 92.8989 148.622 92.5416C148.641 92.1843 148.686 91.8563 148.764 91.5536C148.8 91.2549 148.905 90.9643 149.073 90.6816C149.241 90.4003 149.438 90.1469 149.665 89.9216H151.58C152.03 89.9216 152.482 89.9709 152.932 90.0616C153.384 90.1563 153.852 90.2776 154.341 90.4283C154.452 90.7296 154.556 91.0483 154.652 91.3869C154.744 91.7243 154.809 92.0816 154.848 92.4549C154.848 92.8709 154.866 93.2829 154.905 93.6976C154.941 94.1083 154.961 94.5229 154.961 94.9363C154.961 95.0883 154.949 95.2363 154.934 95.3869C154.912 95.5376 154.905 95.6869 154.905 95.8363V96.4003V97.0203C154.866 97.4723 154.848 97.8469 154.848 98.1469V98.7669V100.487C154.848 101.143 154.885 101.867 154.961 102.656C154.997 103.482 155.034 104.138 155.074 104.627C155.109 105.114 155.13 105.436 155.13 105.586C155.13 105.847 155.12 106.119 155.101 106.4C155.082 106.683 155.053 106.994 155.017 107.33C155.017 107.668 154.997 108.036 154.961 108.43C154.922 108.826 154.905 109.247 154.905 109.698C154.792 110.638 154.726 111.454 154.708 112.148C154.686 112.843 154.678 113.416 154.678 113.867C154.678 114.543 154.686 115.406 154.708 116.459C154.726 117.51 154.792 118.714 154.905 120.064C154.905 120.778 154.922 121.443 154.961 122.064C154.997 122.684 155.017 123.256 155.017 123.782C155.053 124.31 155.082 124.798 155.101 125.248C155.12 125.699 155.13 126.094 155.13 126.431C155.13 126.582 155.12 126.742 155.101 126.91C155.082 127.079 155.074 127.276 155.074 127.502C155.074 127.727 155.064 127.972 155.045 128.234C155.026 128.498 155.017 128.762 155.017 129.022C154.941 129.662 154.905 130.15 154.905 130.488V131.05C154.905 131.276 154.912 131.539 154.934 131.842C154.949 132.14 154.997 132.516 155.074 132.966C155.109 133.419 155.149 133.812 155.186 134.148C155.224 134.487 155.241 134.79 155.241 135.052L155.13 138.659ZM125.157 110.094C125.042 110.094 124.912 110.119 124.761 110.175C124.612 110.234 124.46 110.298 124.31 110.375C124.197 110.45 124.085 110.515 123.973 110.571C123.86 110.627 123.746 110.675 123.633 110.712C123.521 110.786 123.398 110.862 123.269 110.938C123.136 111.012 123.014 111.088 122.902 111.16C122.602 111.275 122.338 111.463 122.113 111.726C121.886 111.988 121.698 112.288 121.549 112.626C121.437 112.852 121.324 113.146 121.212 113.5C121.1 113.856 120.986 114.223 120.874 114.599C120.948 115.426 121.078 116.148 121.268 116.768C121.457 117.387 121.718 117.924 122.057 118.374C122.469 118.976 122.958 119.415 123.521 119.698C124.085 119.979 124.761 120.12 125.549 120.12C126.113 120.12 126.677 120.008 127.241 119.782C127.804 119.556 128.368 119.182 128.93 118.656C129.494 118.131 129.917 117.595 130.198 117.048C130.481 116.507 130.621 115.895 130.621 115.218C130.621 114.656 130.518 114.091 130.31 113.53C130.102 112.967 129.832 112.439 129.494 111.951C129.117 111.499 128.686 111.143 128.197 110.88C127.709 110.619 127.185 110.487 126.621 110.487H126.48C126.424 110.487 126.377 110.468 126.34 110.431C126.262 110.431 126.188 110.412 126.113 110.375C126.038 110.336 125.962 110.298 125.888 110.26C125.698 110.223 125.54 110.187 125.409 110.148C125.276 110.111 125.193 110.094 125.157 110.094ZM140.254 102.992C140.254 103.482 140.122 103.876 139.861 104.176C139.598 104.476 139.221 104.684 138.734 104.796C138.434 104.91 138.068 104.974 137.636 104.992C137.204 105.012 136.685 105.02 136.086 105.02C135.861 104.947 135.653 104.88 135.468 104.826C135.278 104.768 135.128 104.739 135.016 104.739C134.865 104.851 134.649 104.936 134.368 104.992C134.085 105.05 133.756 105.078 133.381 105.078C132.968 105.154 132.582 105.191 132.228 105.191H131.241H128.988C128.761 105.191 128.564 105.21 128.394 105.247C128.226 105.284 128.104 105.303 128.03 105.303C128.104 105.34 128.189 105.37 128.282 105.387C128.376 105.407 128.461 105.414 128.534 105.414H128.734H128.93C129.044 105.454 129.146 105.499 129.24 105.556C129.333 105.614 129.438 105.678 129.55 105.755L130.789 105.979C131.241 105.979 131.738 106.195 132.284 106.627C132.828 107.059 133.4 107.69 134.001 108.514C134.564 109.379 135.005 110.148 135.326 110.826C135.644 111.499 135.805 112.063 135.805 112.515C135.805 112.626 135.794 112.732 135.776 112.826C135.757 112.919 135.746 113.023 135.746 113.135V113.388V113.642C135.709 113.83 135.682 114.008 135.664 114.176C135.644 114.346 135.634 114.487 135.634 114.599V114.966C135.634 115.099 135.673 115.239 135.746 115.387C135.784 115.614 135.824 115.791 135.861 115.923C135.898 116.055 135.916 116.14 135.916 116.178L135.972 116.459C135.972 116.534 135.954 116.627 135.916 116.742C135.88 116.852 135.842 116.987 135.805 117.135C135.728 117.323 135.664 117.51 135.608 117.698C135.55 117.887 135.484 118.092 135.409 118.318C135.297 118.544 135.202 118.77 135.128 118.992C135.053 119.218 134.978 119.444 134.904 119.67C134.789 119.86 134.696 120.056 134.622 120.262C134.545 120.468 134.49 120.648 134.452 120.798C133.776 121.586 133.1 122.254 132.424 122.796C131.748 123.342 131.108 123.766 130.508 124.064C129.832 124.403 129.098 124.647 128.312 124.798C127.521 124.947 126.658 125.022 125.72 125.022C124.441 125.022 123.325 124.9 122.368 124.658C121.408 124.412 120.592 124.027 119.917 123.5C119.428 123.163 118.873 122.611 118.253 121.839C117.633 121.07 116.985 120.086 116.309 118.882C116.198 118.695 116.094 118.495 115.998 118.291C115.906 118.083 115.84 117.848 115.802 117.586C115.728 117.36 115.69 117.127 115.69 116.882V116.007C115.69 115.332 115.72 114.656 115.776 113.979C115.832 113.304 115.954 112.607 116.14 111.895C116.292 111.22 116.498 110.627 116.762 110.119C117.022 109.612 117.344 109.211 117.718 108.908C117.756 108.908 117.897 108.776 118.141 108.514C118.386 108.252 118.732 107.838 119.184 107.275C119.446 106.936 119.728 106.683 120.029 106.515C120.328 106.344 120.61 106.26 120.874 106.26C120.948 106.148 121.042 106.046 121.156 105.951C121.268 105.859 121.418 105.772 121.605 105.698C121.642 105.698 121.698 105.678 121.776 105.64C121.85 105.603 121.925 105.566 122.001 105.528C122.074 105.492 122.142 105.454 122.197 105.414C122.253 105.38 122.32 105.34 122.394 105.303H120.592H119.577C119.277 105.303 119.013 105.266 118.79 105.191C118.3 105.154 117.878 105.106 117.521 105.05C117.164 104.992 116.854 104.947 116.592 104.91C116.365 104.91 116.177 104.89 116.028 104.851C115.877 104.816 115.784 104.796 115.746 104.796C115.633 104.796 115.513 104.806 115.38 104.826C115.249 104.843 115.126 104.851 115.016 104.851C114.864 104.851 114.705 104.862 114.534 104.88C114.366 104.898 114.188 104.91 114 104.91C113.548 104.984 113.202 105.02 112.958 105.02H112.422C112.309 105.02 112.168 104.984 112.001 104.91C111.83 104.835 111.728 104.703 111.689 104.514C111.578 104.364 111.493 104.167 111.436 103.924C111.38 103.679 111.352 103.368 111.352 102.992C111.352 102.43 111.38 101.942 111.436 101.528C111.493 101.116 111.578 100.76 111.689 100.458C111.801 100.198 112.02 99.9896 112.338 99.8376C112.657 99.6883 113.098 99.6109 113.662 99.6109L122.113 100.288C122.186 100.102 122.272 99.9323 122.368 99.7816C122.461 99.6323 122.525 99.4816 122.564 99.3296C122.638 99.2176 122.694 99.1243 122.733 99.0483C122.769 98.9736 122.806 98.9189 122.846 98.8803V98.3736C122.846 98.2229 122.854 98.0443 122.873 97.8376C122.892 97.6309 122.902 97.3976 122.902 97.1336C122.865 96.9843 122.846 96.8709 122.846 96.7936V96.4003V95.8923C122.806 95.5549 122.79 95.2656 122.79 95.0203V94.3176C122.79 93.9789 122.798 93.6869 122.817 93.4416C122.836 93.2003 122.882 92.9843 122.958 92.7963C123.108 92.7589 123.229 92.6563 123.325 92.4856C123.418 92.3149 123.465 92.0816 123.465 91.7803C123.916 91.7069 124.385 91.6309 124.874 91.5536C125.361 91.4816 125.869 91.4416 126.394 91.4416C126.958 91.4416 127.428 91.5096 127.804 91.6403C128.178 91.7723 128.461 91.9496 128.649 92.1736C128.798 92.4003 128.921 92.7283 129.016 93.1603C129.109 93.5936 129.157 94.1269 129.157 94.7656C129.157 94.9176 129.146 95.0576 129.128 95.1896C129.109 95.3216 129.098 95.4243 129.098 95.4989V95.8096V96.0616C128.988 96.7776 128.921 97.3229 128.902 97.6976C128.882 98.0723 128.874 98.3096 128.874 98.4016V98.7669C128.874 98.9189 128.909 99.0483 128.988 99.1616C128.988 99.2723 129.005 99.3776 129.044 99.4709C129.08 99.5656 129.117 99.6323 129.157 99.6683C129.457 99.7816 129.784 99.8669 130.144 99.9229C130.498 99.9789 130.845 100.007 131.185 100.007C131.222 100.007 131.277 99.9963 131.353 99.9789C131.426 99.9603 131.502 99.9323 131.578 99.8923C131.653 99.8563 131.718 99.8283 131.774 99.8096C131.83 99.7909 131.897 99.7629 131.972 99.7256C132.009 99.7256 132.057 99.7149 132.113 99.6976C132.17 99.6776 132.234 99.6683 132.312 99.6683C132.348 99.6683 132.394 99.6589 132.453 99.6403C132.509 99.6216 132.573 99.6109 132.649 99.6109C132.686 99.6109 132.734 99.6216 132.79 99.6403C132.846 99.6589 132.892 99.6883 132.932 99.7256C133.006 99.7256 133.08 99.7443 133.157 99.7816C133.232 99.8203 133.325 99.8376 133.437 99.8376C133.588 99.9136 133.729 99.9603 133.858 99.9789C133.992 99.9963 134.114 100.007 134.226 100.007C134.341 100.007 134.5 99.9963 134.705 99.9789C134.912 99.9603 135.164 99.9136 135.468 99.8376C135.69 99.8003 135.906 99.7629 136.114 99.7256C136.321 99.6883 136.518 99.6683 136.706 99.6683C136.78 99.6683 136.922 99.6883 137.129 99.7256C137.333 99.7629 137.608 99.8003 137.945 99.8376C138.208 99.9136 138.453 99.9603 138.678 99.9789C138.902 99.9963 139.09 100.007 139.241 100.007C139.39 100.198 139.524 100.392 139.636 100.599C139.748 100.806 139.861 101.058 139.973 101.359C140.048 101.66 140.113 101.942 140.169 102.203C140.228 102.466 140.254 102.73 140.254 102.992ZM143.748 133.474C143.748 133.586 143.766 133.7 143.804 133.812C143.841 133.924 143.862 134.036 143.862 134.148C143.897 134.227 143.926 134.31 143.945 134.404C143.964 134.498 143.992 134.583 144.029 134.659C144.029 134.847 144.048 135.023 144.085 135.192C144.122 135.362 144.144 135.539 144.144 135.73C144.144 136.178 144.085 136.58 143.973 136.938C143.862 137.295 143.692 137.586 143.466 137.812C143.392 137.812 143.288 137.831 143.157 137.87C143.025 137.907 142.884 137.943 142.736 137.982C142.621 138.019 142.517 138.047 142.424 138.066C142.33 138.083 142.265 138.094 142.226 138.094H142.03C141.974 138.094 141.382 138.039 140.254 137.924H139.748H139.128C138.902 137.924 138.658 137.914 138.397 137.899C138.133 137.878 137.852 137.85 137.552 137.812C136.874 137.776 136.357 137.747 136.001 137.727C135.644 137.708 135.446 137.698 135.409 137.698C135.334 137.698 135.269 137.716 135.213 137.758C135.156 137.792 135.108 137.812 135.072 137.812C134.997 137.812 134.93 137.839 134.874 137.899C134.818 137.954 134.789 137.998 134.789 138.039C134.564 137.924 134.376 137.85 134.226 137.812C134.077 137.776 133.981 137.758 133.944 137.758C133.832 137.831 133.71 137.878 133.577 137.899C133.448 137.914 133.288 137.924 133.1 137.924C132.988 137.924 132.809 137.914 132.565 137.899C132.32 137.878 131.992 137.831 131.578 137.758C131.164 137.68 130.808 137.626 130.508 137.586C130.206 137.55 129.944 137.531 129.72 137.531C129.606 137.531 129.484 137.568 129.353 137.643C129.221 137.716 129.098 137.812 128.988 137.924C128.798 138.039 128.62 138.132 128.452 138.206C128.282 138.282 128.085 138.32 127.86 138.32C127.672 138.32 127.466 138.31 127.241 138.292C127.014 138.274 126.789 138.227 126.565 138.151C126.262 138.112 126.028 138.074 125.86 138.039C125.69 137.998 125.549 137.982 125.437 137.982C125.324 137.982 125.213 137.998 125.101 138.039C124.986 138.074 124.853 138.112 124.704 138.151C124.63 138.187 124.564 138.214 124.508 138.235C124.452 138.252 124.385 138.26 124.31 138.26H124.197C124.158 138.26 124.048 138.206 123.86 138.094C123.746 137.982 123.644 137.907 123.55 137.87C123.456 137.831 123.352 137.812 123.24 137.812C123.165 137.812 123.08 137.831 122.988 137.87C122.892 137.907 122.75 137.982 122.564 138.094C122.376 138.206 122.206 138.282 122.057 138.32C121.905 138.354 121.776 138.375 121.662 138.375C120.948 138.299 120.225 138.227 119.493 138.151C118.761 138.074 118.056 137.998 117.381 137.924L113.38 138.039C112.741 138.039 112.168 138.028 111.661 138.011C111.156 137.992 110.693 137.962 110.281 137.924C109.832 137.888 109.484 137.812 109.238 137.698C108.994 137.586 108.834 137.435 108.761 137.247L108.252 136.066C108.252 135.842 108.29 135.615 108.366 135.388C108.441 135.164 108.534 134.902 108.646 134.602C108.684 134.487 108.722 134.367 108.761 134.235C108.797 134.104 108.816 134 108.816 133.924C108.853 133.812 108.89 133.719 108.928 133.643C108.965 133.568 109.005 133.492 109.042 133.419L109.998 133.586H110.309H110.618C110.693 133.586 110.778 133.578 110.874 133.56C110.966 133.542 111.07 133.531 111.182 133.531C111.784 133.456 112.261 133.399 112.62 133.359C112.976 133.323 113.21 133.304 113.325 133.304H113.633H113.888C114 133.304 114.093 133.298 114.169 133.279C114.244 133.26 114.337 133.247 114.452 133.247C115.089 133.175 115.578 133.118 115.916 133.078C116.253 133.042 116.48 133.023 116.592 133.023C116.741 133.023 116.91 133.06 117.1 133.138C117.286 133.211 117.474 133.304 117.662 133.419L119.072 133.586C119.184 133.586 119.4 133.578 119.718 133.56C120.037 133.542 120.48 133.492 121.042 133.419C121.493 133.342 121.916 133.287 122.309 133.247C122.705 133.211 123.014 133.192 123.24 133.192C123.314 133.192 123.446 133.211 123.633 133.247C123.822 133.287 124.085 133.359 124.422 133.474C124.537 133.511 124.648 133.542 124.761 133.56C124.874 133.578 125.005 133.586 125.157 133.586L125.268 133.304C125.193 133.192 125.072 133.099 124.901 133.023C124.733 132.948 124.537 132.911 124.31 132.911C124.197 132.911 124.093 132.883 124 132.826C123.908 132.771 123.804 132.686 123.69 132.574C123.541 132.422 123.398 132.292 123.269 132.178C123.136 132.066 123.032 131.951 122.958 131.842C122.846 131.766 122.761 131.698 122.705 131.643C122.649 131.587 122.602 131.52 122.564 131.447C122.376 131.22 122.245 130.968 122.169 130.687C122.094 130.404 122.057 130.075 122.057 129.7C122.057 128.91 122.142 128.215 122.309 127.614C122.48 127.015 122.79 126.544 123.24 126.207C123.614 125.867 124.114 125.596 124.733 125.388C125.353 125.183 126.057 125.08 126.846 125.08C127.485 125.08 128.048 125.172 128.534 125.362C129.024 125.55 129.473 125.792 129.888 126.094C130.225 126.431 130.489 126.835 130.677 127.304C130.864 127.775 130.958 128.291 130.958 128.854C130.958 129.304 130.874 129.756 130.706 130.206C130.537 130.658 130.32 131.05 130.057 131.387C129.72 131.766 129.457 132.076 129.269 132.318C129.08 132.563 128.968 132.743 128.93 132.854C128.93 132.894 129.034 132.919 129.24 132.938C129.446 132.959 129.72 132.984 130.057 133.023C130.433 133.06 130.882 133.088 131.408 133.107C131.936 133.126 132.554 133.138 133.269 133.138C133.944 133.138 134.556 133.146 135.1 133.164C135.644 133.183 136.142 133.192 136.592 133.192H137.636H138.282C138.32 133.192 138.397 133.183 138.509 133.164C138.621 133.146 138.753 133.099 138.902 133.023C139.016 132.984 139.146 132.948 139.297 132.911C139.446 132.872 139.58 132.854 139.692 132.854C139.917 132.854 140.133 132.864 140.34 132.883C140.545 132.904 140.762 132.93 140.989 132.966C141.174 132.966 141.504 133.016 141.974 133.107C142.442 133.2 143.034 133.323 143.748 133.474Z" stroke="#FFE14F" stroke-width="0.666667" stroke-miterlimit="10"/>
</g>
<mask id="mask38_1_20373" style="mask-type:luminance" maskUnits="userSpaceOnUse" x="-245" y="-267" width="1123" height="794">
<path d="M-245 -267H877.52V526.707H-245V-267Z" fill="white"/>
</mask>
<g mask="url(#mask38_1_20373)">
<path d="M24.308 94.4785C24.308 94.4785 18.0133 87.6185 16.8533 87.0398C16.8533 87.0398 24.5813 85.8998 26.8827 85.0412C26.8827 85.0412 24.308 92.1958 24.308 94.4785Z" fill="#FDB924"/>
</g>
</g>
<defs>
<clipPath id="clip0_1_20373">
<rect width="217" height="216" fill="white"/>
</clipPath>
</defs>
</svg>
