<svg width="205" height="33" viewBox="0 0 205 33" fill="none" xmlns="http://www.w3.org/2000/svg">
<g clip-path="url(#clip0_1_14572)">
<mask id="mask0_1_14572" style="mask-type:luminance" maskUnits="userSpaceOnUse" x="-102" y="-112" width="1123" height="794">
<path d="M-102 -112H1020.52V681.707H-102V-112Z" fill="white"/>
</mask>
<g mask="url(#mask0_1_14572)">
<path d="M40.9255 21.6185C39.5575 20.5319 37.4535 19.7865 34.4668 18.9999C33.5442 18.7185 33.0255 18.5159 32.7495 18.3159C32.4775 18.1145 32.4335 17.9399 32.4282 17.6239C32.4335 17.3132 32.5082 17.1252 32.7468 16.9865C32.9908 16.8465 33.4242 16.7745 34.1255 16.7745C35.9628 16.7745 38.0482 17.3359 40.8255 18.5412L40.9068 18.5785L42.5655 12.8172L42.4962 12.7932C39.6708 11.7852 37.5188 11.2572 34.3255 11.2572C31.4322 11.2572 29.2575 11.9039 27.8028 13.1092C26.3455 14.3145 25.6215 16.0759 25.6215 18.2692C25.6202 20.4772 26.1962 21.9439 27.5948 23.0572C28.9962 24.1679 31.2015 24.9332 34.4668 25.8012C35.1495 25.9812 35.5642 26.1439 35.7988 26.3305C36.0295 26.5185 36.0988 26.7239 36.1028 27.0559C36.0988 27.3572 35.9908 27.5585 35.7055 27.7119C35.4188 27.8639 34.9442 27.9452 34.2455 27.9452C32.4095 27.9465 29.5108 27.2225 26.9815 26.0972L26.9015 26.0625L25.1602 31.6972L25.2282 31.7239C27.9362 32.7759 30.9695 33.4639 34.0842 33.4639C36.7948 33.4625 39.0002 32.8972 40.5322 31.7065C42.0642 30.5185 42.9108 28.7052 42.9108 26.2505C42.9108 24.1412 42.2935 22.7052 40.9255 21.6185Z" fill="#595757"/>
</g>
<mask id="mask1_1_14572" style="mask-type:luminance" maskUnits="userSpaceOnUse" x="-102" y="-112" width="1123" height="794">
<path d="M-102 -112H1020.52V681.707H-102V-112Z" fill="white"/>
</mask>
<g mask="url(#mask1_1_14572)">
<path d="M59.7891 33.4639C52.6944 33.4639 47.4931 29.9345 47.4931 21.0292V4.94653H55.4757V21.0292C55.4757 24.4799 56.8451 26.6039 59.9104 26.6039C62.9731 26.6039 64.2611 24.4799 64.2611 21.0292V4.94653H72.2451V21.0292C72.2451 29.9345 66.8824 33.4639 59.7891 33.4639Z" fill="#EA5505"/>
</g>
<mask id="mask2_1_14572" style="mask-type:luminance" maskUnits="userSpaceOnUse" x="-102" y="-112" width="1123" height="794">
<path d="M-102 -112H1020.52V681.707H-102V-112Z" fill="white"/>
</mask>
<g mask="url(#mask2_1_14572)">
<path d="M28.9212 17.241L23.7412 18.2837C29.2079 9.10236 24.2532 2.01303 24.2532 2.01303L30.7372 0.406359C36.1399 8.62503 28.9212 17.241 28.9212 17.241Z" fill="#EA5505"/>
</g>
<mask id="mask3_1_14572" style="mask-type:luminance" maskUnits="userSpaceOnUse" x="-102" y="-112" width="1123" height="794">
<path d="M-102 -112H1020.52V681.707H-102V-112Z" fill="white"/>
</mask>
<g mask="url(#mask3_1_14572)">
<path d="M20.0824 4.64729L17.7304 8.96196C16.3051 11.7766 15.1371 14.3686 14.5771 16.042C14.0171 14.3686 12.8477 11.7766 11.4211 8.96196L9.07173 4.64729H-0.141602L10.5077 22.5633V33.0193H18.5637V22.442L29.2144 4.64729H20.0824Z" fill="#595757"/>
</g>
<mask id="mask4_1_14572" style="mask-type:luminance" maskUnits="userSpaceOnUse" x="-102" y="-112" width="1123" height="794">
<path d="M-102 -112H1020.52V681.707H-102V-112Z" fill="white"/>
</mask>
<g mask="url(#mask4_1_14572)">
<path d="M114.283 26.7657V22.727H110.816V28.1084C110.816 30.4657 111.905 31.363 113.933 31.363H127.013V28.3417H115.591C114.331 28.3417 114.283 27.8657 114.283 26.7657ZM98.7508 8.38169H95.1895V11.395H98.7508V14.1844H95.1895V17.195H98.7508V19.9977H102.315V6.20303H98.7508V8.38169ZM87.1455 19.7964H87.1388H87.1322H87.1455ZM84.3122 12.9124C84.3122 10.7257 85.2175 9.10569 87.1388 9.10169C89.0602 9.10569 89.9655 10.7257 89.9655 12.9124C89.9655 15.099 89.0602 16.691 87.1388 16.695C85.2175 16.691 84.3122 15.099 84.3122 12.9124ZM93.6188 12.9124C93.6188 8.85369 90.8842 6.00436 87.1388 6.00036C83.3935 6.00436 80.6602 8.85369 80.6602 12.9124C80.6602 16.9697 83.3935 19.7924 87.1388 19.7964C90.8842 19.7924 93.6188 16.9697 93.6188 12.9124ZM87.1322 6.00036C87.1348 6.00036 87.1362 6.00036 87.1388 6.00036C87.1415 6.00036 87.1442 6.00036 87.1455 6.00036H87.1322ZM93.9935 29.8964C91.7495 29.8964 90.0868 28.9364 90.0868 26.8964C90.0868 24.851 91.7788 23.8617 93.9935 23.8617C96.0135 23.8617 97.8708 24.851 97.8708 26.8964C97.8708 28.9364 96.2362 29.8964 93.9935 29.8964ZM93.9935 20.723C89.5388 20.723 86.4135 23.3417 86.4135 26.891C86.4135 30.4417 89.5388 33.0337 93.9935 33.0337C98.4455 33.0337 101.544 30.4417 101.544 26.891C101.544 23.3417 98.4455 20.723 93.9935 20.723ZM113.251 14.5017C114.984 18.2924 118.675 20.1924 118.675 20.1924L120.383 17.727C120.383 17.727 114.963 14.679 115.096 7.14169V6.85769H111.401V7.14169C111.533 14.679 106.116 17.727 106.116 17.727L107.821 20.1924C107.821 20.1924 111.513 18.2924 113.248 14.5017H113.251ZM126.644 6.19369H123.184V24.0124H126.644V15.0604H129.965V12.0564H126.644V6.19369ZM175.752 22.5097L162.752 22.511V25.519H174.084C175.343 25.519 175.405 25.9857 175.405 27.0857V31.4257H178.868L178.869 25.763C178.869 23.4057 177.78 22.5097 175.752 22.5097ZM162.752 14.6924C162.752 13.0804 164.071 12.3004 165.8 12.3004C167.376 12.3004 168.823 13.0804 168.823 14.6924C168.823 16.3044 167.548 17.0617 165.8 17.0617C164.049 17.0617 162.752 16.3044 162.752 14.6924ZM172.077 14.691C172.077 12.7697 171.032 11.1724 169.315 10.263H172.823V7.47503H167.644V5.39769H163.991V7.47503H158.784V10.263H162.277C160.556 11.1724 159.5 12.7697 159.5 14.691C159.5 17.707 162.099 19.907 165.8 19.907C169.501 19.907 172.077 17.707 172.077 14.691ZM178.867 6.18569H175.405V20.8484H178.868L178.867 14.815H182.261V11.7897H178.867V6.18569ZM199.741 12.3857V22.015H203.257V11.1577C203.257 9.55369 203.144 7.39369 200.079 7.39369H185.816V10.4617H197.673C199.689 10.4617 199.741 10.6857 199.741 12.3857ZM197.412 25.311V17.375H194.001V25.311H191.695V17.3764H188.312V25.311H184.069V28.391H204.577V25.311H197.412ZM136.955 19.1577V10.3897H143.495V7.38436H133.521V20.7617C133.521 23.0604 134.557 23.967 136.489 24.0124H143.799V20.9937L138.407 20.9884C137.009 20.9884 136.955 20.379 136.955 19.1577ZM151.288 13.971H148.919V6.18569H145.525V31.4337H148.919V16.9537H151.288V31.4337H154.709V6.18569H151.288V13.971Z" fill="#595757"/>
</g>
<mask id="mask5_1_14572" style="mask-type:luminance" maskUnits="userSpaceOnUse" x="-102" y="-112" width="1123" height="794">
<path d="M-102 -112H1020.52V681.707H-102V-112Z" fill="white"/>
</mask>
<g mask="url(#mask5_1_14572)">
<path d="M1000.92 427.677H-79.0791V-70.9147H1000.92V427.677Z" stroke="#595757" stroke-width="0.333333"/>
</g>
</g>
<defs>
<clipPath id="clip0_1_14572">
<rect width="205" height="33" fill="white"/>
</clipPath>
</defs>
</svg>
