<svg width="760" height="130" viewBox="0 0 760 130" fill="none" xmlns="http://www.w3.org/2000/svg">
<g clip-path="url(#clip0_1_12790)">
<mask id="mask0_1_12790" style="mask-type:luminance" maskUnits="userSpaceOnUse" x="-22" y="-506" width="794" height="1123">
<path d="M-22 -506H771.707V616.52H-22V-506Z" fill="white"/>
</mask>
<g mask="url(#mask0_1_12790)">
<path d="M230.552 22.0128C227.203 23.7008 225.528 26.2555 225.528 29.6835C225.528 33.0341 227.203 35.5808 230.552 37.3448C234.264 39.3528 240.024 40.3568 247.822 40.3568C255.738 40.3568 261.578 39.3528 265.363 37.3448C268.898 35.5808 270.654 33.0341 270.654 29.6835C270.654 26.2555 268.898 23.7008 265.363 22.0128C261.578 20.1781 255.738 19.2528 247.822 19.2528C239.963 19.2528 234.204 20.1781 230.552 22.0128ZM227.903 83.9381C228.4 84.3541 228.424 85.4448 227.995 87.2128C227.81 88.1248 227.659 88.8368 227.539 89.3381C227.419 90.1795 227.362 91.0128 227.362 91.8488V105.037H284V120.734H213.835V82.9328H221.788C225.136 82.9328 227.175 83.2795 227.903 83.9381ZM275.496 11.8341C281.284 16.2901 284.17 22.2355 284.17 29.6835C284.17 37.1301 281.284 43.0795 275.496 47.5195C269.163 52.5395 259.995 55.0528 248 55.0528C236.068 55.0528 226.936 52.5395 220.596 47.5195C214.87 42.9968 212.014 37.0435 212.014 29.6835C212.014 22.2355 214.87 16.2901 220.596 11.8341C226.936 6.99014 236.068 4.55414 248 4.55414C259.995 4.55414 269.163 6.99014 275.496 11.8341ZM291.948 75.6528H204.243V59.9488H291.948V75.6528Z" fill="#231F20"/>
</g>
<mask id="mask1_1_12790" style="mask-type:luminance" maskUnits="userSpaceOnUse" x="-22" y="-506" width="794" height="1123">
<path d="M-22 -506H771.707V616.52H-22V-506Z" fill="white"/>
</mask>
<g mask="url(#mask1_1_12790)">
<path d="M372.797 3.56116C373.997 3.71983 374.861 3.97849 375.348 4.30916C375.787 4.65049 375.997 5.11449 375.997 5.6905C375.997 6.1105 375.836 6.8625 375.524 7.95716C375.219 9.03583 375.009 9.92116 374.888 10.5892C374.715 11.6718 374.611 12.8012 374.611 13.9812V44.7492H386.223V61.2172H374.611V92.2292H361.103V3.42517H367.416C369.773 3.42517 371.575 3.47449 372.797 3.56116ZM323.272 83.0652C323.769 83.4825 323.769 84.5785 323.272 86.3252C323.1 87.1692 322.941 87.8292 322.817 88.3425C322.697 89.1745 322.644 90.0132 322.644 90.8452V105.037H377.179V120.733H309.111V82.0625H317.067C320.483 82.0625 322.549 82.3918 323.272 83.0652ZM335.057 7.44517C335.429 7.95717 335.369 9.08116 334.875 10.8452C334.636 11.8345 334.46 12.6452 334.336 13.2252C334.148 14.2372 334.057 15.2398 334.057 16.2452C334.057 23.7852 335.884 31.6065 339.536 39.7252C343.68 49.0212 349.253 55.8385 356.255 60.2012C354.548 61.9518 352.815 64.0065 351.048 66.3612C349.4 68.6158 347.885 71.0505 346.479 73.6345C342.405 70.1198 338.66 65.6852 335.249 60.3252C331.588 54.6358 329.213 49.2652 328.128 44.2532C327.021 49.9452 324.855 55.5558 321.64 61.0812C318.159 66.9532 313.784 72.2158 308.472 76.9172C307.211 74.8958 305.583 72.7158 303.647 70.3732C301.747 68.0292 299.889 66.0145 298.069 64.3438C305.613 59.2372 311.245 52.4105 314.976 43.8758C319.237 34.2465 321.355 21.7652 321.355 6.44117H329.676C332.655 6.44117 334.46 6.77983 335.057 7.44517Z" fill="#231F20"/>
</g>
<mask id="mask2_1_12790" style="mask-type:luminance" maskUnits="userSpaceOnUse" x="-22" y="-506" width="794" height="1123">
<path d="M-22 -506H771.707V616.52H-22V-506Z" fill="white"/>
</mask>
<g mask="url(#mask2_1_12790)">
<path d="M476.285 4.18226C476.725 4.59559 476.725 5.60226 476.285 7.20226C476.047 8.12626 475.864 8.86759 475.752 9.45959C475.628 10.3756 475.556 11.2956 475.556 12.2289V124.01H462.308V71.0036H455.651V119.237H442.577V5.56092H451.533C454.472 5.56092 456.193 5.81693 456.755 6.30493C457.107 6.6636 457.055 7.57293 456.557 9.08093C456.26 9.92093 456.043 10.6343 455.925 11.2209C455.749 12.1383 455.651 13.0969 455.651 14.1049V55.3129H462.308V3.42493H470.615C473.732 3.42493 475.628 3.68092 476.285 4.18226ZM410.149 68.2409C408.988 70.8436 408.412 73.9463 408.412 77.5369C408.412 81.2969 408.988 84.4943 410.149 87.0849C411.496 89.9356 413.32 91.3489 415.637 91.3489C417.889 91.3489 419.699 89.9356 421.031 87.0849C422.248 84.4943 422.845 81.2969 422.845 77.5369C422.845 73.9463 422.248 70.8436 421.031 68.2409C419.699 65.3076 417.889 63.8516 415.637 63.8516C413.32 63.8516 411.496 65.3076 410.149 68.2409ZM429.328 22.5129H405.051V7.44492H429.328V22.5129ZM430.433 58.0716C433.84 63.3463 435.548 69.8436 435.548 77.5369C435.548 85.2383 433.84 91.7689 430.433 97.1329C426.657 103.081 421.604 106.05 415.28 106.05C408.988 106.05 404.069 103.081 400.467 97.1329C397.259 91.7689 395.631 85.2383 395.631 77.5369C395.631 69.7516 397.259 63.2689 400.467 58.0716C404.069 52.2036 408.988 49.2663 415.28 49.2663C421.604 49.2663 426.657 52.2036 430.433 58.0716ZM438.388 44.2529H393.811V29.0463H438.388V44.2529Z" fill="#231F20"/>
</g>
<mask id="mask3_1_12790" style="mask-type:luminance" maskUnits="userSpaceOnUse" x="-22" y="-506" width="794" height="1123">
<path d="M-22 -506H771.707V616.52H-22V-506Z" fill="white"/>
</mask>
<g mask="url(#mask3_1_12790)">
<path d="M511.551 21.5214C507.948 23.3521 506.174 26.0787 506.174 29.6841C506.174 33.2721 507.948 36.0467 511.551 37.9774C515.334 39.9881 520.967 40.9934 528.458 40.9934C536.002 40.9934 541.718 39.9881 545.633 37.9774C549.411 35.9601 551.306 33.1934 551.306 29.6841C551.306 26.0787 549.411 23.3521 545.633 21.5214C541.79 19.6734 536.066 18.7574 528.458 18.7574C520.967 18.7574 515.334 19.6734 511.551 21.5214ZM508.542 83.9387C509.023 84.3547 509.054 85.4441 508.618 87.2134C508.438 88.1254 508.291 88.8361 508.186 89.3374C508.05 90.1801 508.002 91.0134 508.002 91.8494V105.037H564.633V120.733H494.47V82.9334H502.412C505.767 82.9334 507.82 83.2787 508.542 83.9387ZM555.782 11.5894C561.795 16.1054 564.806 22.1481 564.806 29.6841C564.806 36.9721 561.795 42.9107 555.782 47.5201C549.32 52.5401 540.262 55.0521 528.635 55.0521C517.064 55.0521 508.05 52.5401 501.604 47.5201C495.622 42.9107 492.632 36.9721 492.632 29.6841C492.632 22.1481 495.622 16.1054 501.604 11.5894C508.002 6.90807 516.999 4.55341 528.635 4.55341C540.331 4.55341 549.39 6.90807 555.782 11.5894ZM572.583 60.5761V75.9081H535.756V96.1214H522.33V75.9081H484.887V60.5761H572.583Z" fill="#231F20"/>
</g>
<mask id="mask4_1_12790" style="mask-type:luminance" maskUnits="userSpaceOnUse" x="-22" y="-506" width="794" height="1123">
<path d="M-22 -506H771.707V616.52H-22V-506Z" fill="white"/>
</mask>
<g mask="url(#mask4_1_12790)">
<path d="M653.428 3.5611C654.644 3.71977 655.498 3.97843 655.979 4.3091C656.4 4.65043 656.63 5.11443 656.63 5.69044C656.63 6.11044 656.467 6.86243 656.16 7.9571C655.858 9.03577 655.643 9.9211 655.523 10.5891C655.343 11.6718 655.258 12.8011 655.258 13.9811V35.4651H666.854V51.9078H655.258V78.5371H641.727V3.42511H648.046C650.412 3.42511 652.202 3.47443 653.428 3.5611ZM605.746 96.3798C602.452 97.8771 600.812 100.013 600.812 102.781C600.812 105.545 602.452 107.766 605.746 109.436C609.39 111.357 614.758 112.318 621.822 112.318C628.886 112.318 634.24 111.357 637.906 109.436C641.184 107.766 642.834 105.545 642.834 102.781C642.834 100.013 641.184 97.8771 637.906 96.3798C634.24 94.6171 628.886 93.7411 621.822 93.7411C614.758 93.7411 609.39 94.6171 605.746 96.3798ZM602.355 51.4078C600.906 52.7451 600.167 54.5104 600.167 56.6891C600.167 58.9451 600.906 60.7864 602.355 62.2091C603.944 63.7158 606.198 64.4611 609.111 64.4611C612.29 64.4611 614.719 63.7158 616.431 62.2091C618.014 60.8771 618.81 59.0264 618.81 56.6891C618.81 54.4184 618.014 52.6691 616.431 51.4078C614.67 49.9918 612.23 49.2651 609.111 49.2651C606.254 49.2651 604.006 49.9918 602.355 51.4078ZM623.186 17.6211H595.776V4.18244H623.186V17.6211ZM648.299 86.8384C653.975 90.8451 656.81 96.1211 656.81 102.656C656.81 109.101 653.975 114.418 648.299 118.608C642.05 123.218 633.204 125.52 621.822 125.52C610.371 125.52 601.51 123.218 595.235 118.608C589.626 114.418 586.827 109.101 586.827 102.656C586.827 96.1211 589.626 90.8451 595.235 86.8384C601.51 82.3918 610.371 80.1691 621.822 80.1691C633.204 80.1691 642.05 82.3918 648.299 86.8384ZM626.472 43.2411C630.31 46.7571 632.242 51.2051 632.242 56.5451C632.242 61.9998 630.31 66.5251 626.472 70.1198C622.21 74.1558 616.431 76.1478 609.111 76.1478C601.998 76.1478 596.356 74.1558 592.22 70.1198C588.516 66.4344 586.643 61.9198 586.643 56.5451C586.643 51.2824 588.516 46.8464 592.22 43.2411C596.356 39.4011 601.998 37.4744 609.111 37.4744C616.431 37.4744 622.21 39.4011 626.472 43.2411ZM636.8 34.5798H581.984V21.0064H636.8V34.5798Z" fill="#231F20"/>
</g>
<mask id="mask5_1_12790" style="mask-type:luminance" maskUnits="userSpaceOnUse" x="-22" y="-506" width="794" height="1123">
<path d="M-22 -506H771.707V616.52H-22V-506Z" fill="white"/>
</mask>
<g mask="url(#mask5_1_12790)">
<path d="M698.464 93.6048C694.984 95.5408 693.255 98.0834 693.255 101.283C693.255 104.45 694.984 107.049 698.464 109.061C702.365 111.243 708.148 112.318 715.819 112.318C723.553 112.318 729.373 111.243 733.265 109.061C736.679 107.143 738.373 104.537 738.373 101.283C738.373 98.0008 736.679 95.4514 733.265 93.6048C729.373 91.6008 723.553 90.6021 715.819 90.6021C708.148 90.6021 702.365 91.6008 698.464 93.6048ZM751.179 6.44077C751.179 14.4768 750.78 22.2368 749.984 29.6848C749.261 36.4621 748.275 42.7408 747.057 48.5248L734.001 45.8768C735.039 43.1181 735.828 39.5754 736.375 35.2074C736.863 31.3661 737.116 26.9954 737.116 22.1474H681.205V6.44077H751.179ZM743.684 84.3154C749.48 88.5848 752.352 94.1594 752.352 101.021C752.352 107.887 749.48 113.547 743.684 117.983C737.167 122.995 727.88 125.521 715.819 125.521C703.76 125.521 694.476 122.995 687.963 117.983C682.231 113.547 679.373 107.887 679.373 101.021C679.373 94.2434 682.231 88.6834 687.963 84.3154C694.476 79.4594 703.76 77.0381 715.819 77.0381C727.88 77.0381 737.167 79.4594 743.684 84.3154ZM718.095 35.3288C718.717 35.7434 718.744 36.7554 718.184 38.3421C717.936 39.1768 717.768 39.8048 717.643 40.2261C717.461 41.0794 717.365 41.9021 717.365 42.7408V53.0434H759.663V68.7474H672.051V53.0434H703.575V34.4581H710.792C714.815 34.4581 717.245 34.7394 718.095 35.3288Z" fill="#231F20"/>
</g>
<mask id="mask6_1_12790" style="mask-type:luminance" maskUnits="userSpaceOnUse" x="-22" y="-506" width="794" height="1123">
<path d="M-22 -506H771.707V616.52H-22V-506Z" fill="white"/>
</mask>
<g mask="url(#mask6_1_12790)">
<path fill-rule="evenodd" clip-rule="evenodd" d="M6.25586 88.4119C6.25586 88.4119 46.7879 24.4986 92.3412 26.8412C112.281 27.8719 141.871 43.0572 117.688 88.5212H179.927C179.927 88.5212 203.615 28.1426 139.681 4.33191C113.023 -5.60009 50.1372 -4.02409 0.219864 88.4119H6.25586Z" fill="#2056AE"/>
</g>
<mask id="mask7_1_12790" style="mask-type:luminance" maskUnits="userSpaceOnUse" x="-22" y="-506" width="794" height="1123">
<path d="M-22 -506H771.707V616.52H-22V-506Z" fill="white"/>
</mask>
<g mask="url(#mask7_1_12790)">
<path fill-rule="evenodd" clip-rule="evenodd" d="M109.603 54.6292L98.4568 36.0545L75.1648 87.4639H94.2981L109.603 54.6292Z" fill="#ED1C24"/>
</g>
<mask id="mask8_1_12790" style="mask-type:luminance" maskUnits="userSpaceOnUse" x="-22" y="-506" width="794" height="1123">
<path d="M-22 -506H771.707V616.52H-22V-506Z" fill="white"/>
</mask>
<g mask="url(#mask8_1_12790)">
<path fill-rule="evenodd" clip-rule="evenodd" d="M82.018 62.1527L70.87 43.5834L50.9873 87.4634H70.1193L82.018 62.1527Z" fill="#ED1C24"/>
</g>
<mask id="mask9_1_12790" style="mask-type:luminance" maskUnits="userSpaceOnUse" x="-22" y="-506" width="794" height="1123">
<path d="M-22 -506H771.707V616.52H-22V-506Z" fill="white"/>
</mask>
<g mask="url(#mask9_1_12790)">
<path fill-rule="evenodd" clip-rule="evenodd" d="M54.4297 69.3298L43.2857 50.7671L26.4911 87.7725H45.6244L54.4297 69.3298Z" fill="#ED1C24"/>
</g>
<mask id="mask10_1_12790" style="mask-type:luminance" maskUnits="userSpaceOnUse" x="-22" y="-506" width="794" height="1123">
<path d="M-22 -506H771.707V616.52H-22V-506Z" fill="white"/>
</mask>
<g mask="url(#mask10_1_12790)">
<path d="M26.7089 120.383V96.7713H38.8676V100.762H30.0543V105.973H38.2249V109.963H30.0543V116.39H39.1863V120.383H26.7089Z" fill="#231F20"/>
</g>
<mask id="mask11_1_12790" style="mask-type:luminance" maskUnits="userSpaceOnUse" x="-22" y="-506" width="794" height="1123">
<path d="M-22 -506H771.707V616.52H-22V-506Z" fill="white"/>
</mask>
<g mask="url(#mask11_1_12790)">
<path d="M50.9365 96.7713H54.2779V109.642C54.2779 111.686 54.3232 113.014 54.4045 113.614C54.5472 114.593 54.8805 115.367 55.4099 115.958C55.9445 116.547 56.6685 116.845 57.5912 116.845C58.5299 116.845 59.2365 116.567 59.7099 116.009C60.1859 115.458 60.4712 114.766 60.5699 113.957C60.6659 113.143 60.7112 111.798 60.7112 109.921V96.7713H64.0605V109.195C64.0605 112.042 63.9672 114.043 63.7899 115.222C63.6072 116.39 63.2765 117.375 62.7965 118.181C62.3125 118.989 61.6685 119.634 60.8592 120.113C60.0525 120.59 58.9992 120.831 57.6925 120.831C56.1205 120.831 54.9285 120.569 54.1179 120.051C53.3059 119.53 52.6605 118.85 52.1899 118.018C51.7192 117.185 51.4112 116.31 51.2592 115.394C51.0459 114.035 50.9365 112.042 50.9365 109.393V96.7713Z" fill="#231F20"/>
</g>
<mask id="mask12_1_12790" style="mask-type:luminance" maskUnits="userSpaceOnUse" x="-22" y="-506" width="794" height="1123">
<path d="M-22 -506H771.707V616.52H-22V-506Z" fill="white"/>
</mask>
<g mask="url(#mask12_1_12790)">
<path d="M76.4365 120.383V96.7713H79.6672L86.4112 112.538V96.7713H89.4952V120.383H86.1619L79.5259 104.846V120.383H76.4365Z" fill="#231F20"/>
</g>
<mask id="mask13_1_12790" style="mask-type:luminance" maskUnits="userSpaceOnUse" x="-22" y="-506" width="794" height="1123">
<path d="M-22 -506H771.707V616.52H-22V-506Z" fill="white"/>
</mask>
<g mask="url(#mask13_1_12790)">
<path d="M101.034 112.787L104.189 112.335C104.386 113.863 104.78 114.99 105.384 115.707C105.984 116.418 106.788 116.782 107.809 116.782C108.888 116.782 109.706 116.458 110.249 115.815C110.797 115.175 111.07 114.426 111.07 113.56C111.07 113.01 110.957 112.538 110.729 112.151C110.501 111.763 110.11 111.436 109.542 111.14C109.16 110.944 108.276 110.592 106.902 110.088C105.14 109.443 103.896 108.658 103.181 107.724C102.181 106.426 101.678 104.827 101.678 102.952C101.678 101.736 101.914 100.612 102.389 99.5591C102.868 98.4977 103.549 97.7031 104.442 97.1537C105.333 96.5991 106.408 96.3204 107.676 96.3204C109.729 96.3204 111.284 96.9751 112.325 98.2684C113.368 99.5697 113.914 101.295 113.965 103.456L110.617 103.66C110.484 102.44 110.173 101.572 109.712 101.036C109.244 100.51 108.542 100.247 107.617 100.247C106.649 100.247 105.902 100.532 105.357 101.107C105.002 101.466 104.83 101.96 104.83 102.575C104.83 103.134 104.994 103.615 105.325 104.011C105.741 104.519 106.754 105.047 108.369 105.607C109.978 106.162 111.173 106.742 111.946 107.323C112.721 107.918 113.326 108.718 113.761 109.732C114.198 110.758 114.416 112.016 114.416 113.51C114.416 114.864 114.157 116.142 113.63 117.33C113.108 118.511 112.364 119.386 111.406 119.971C110.453 120.546 109.258 120.831 107.829 120.831C105.746 120.831 104.15 120.147 103.034 118.774C101.918 117.407 101.253 115.416 101.034 112.787Z" fill="#231F20"/>
</g>
<mask id="mask14_1_12790" style="mask-type:luminance" maskUnits="userSpaceOnUse" x="-22" y="-506" width="794" height="1123">
<path d="M-22 -506H771.707V616.52H-22V-506Z" fill="white"/>
</mask>
<g mask="url(#mask14_1_12790)">
<path d="M134.027 111.053L131.707 102.295L129.507 111.053H134.027ZM140.104 120.383H136.501L135.087 115.041H128.505L127.16 120.383H123.573L129.909 96.7713H133.511L140.104 120.383Z" fill="#231F20"/>
</g>
<mask id="mask15_1_12790" style="mask-type:luminance" maskUnits="userSpaceOnUse" x="0" y="-5" width="760" height="135">
<path d="M0 -5H760V130H0V-5Z" fill="white"/>
</mask>
<g mask="url(#mask15_1_12790)">
<path d="M149.952 120.383V96.7713H153.183L159.928 112.538V96.7713H163.012V120.383H159.68L153.039 104.846V120.383H149.952Z" fill="#231F20"/>
</g>
</g>
<defs>
<clipPath id="clip0_1_12790">
<rect width="760" height="130" fill="white"/>
</clipPath>
</defs>
</svg>
