<svg width="636" height="129" viewBox="0 0 636 129" fill="none" xmlns="http://www.w3.org/2000/svg">
<g clip-path="url(#clip0_1_13402)">
<mask id="mask0_1_13402" style="mask-type:luminance" maskUnits="userSpaceOnUse" x="-106" y="-785" width="818" height="1146">
<path d="M-105.339 -784.339H711.038V360.857H-105.339V-784.339Z" fill="white"/>
</mask>
<g mask="url(#mask0_1_13402)">
<path d="M18.4265 8.47081C19.5518 8.47081 20.5438 8.61614 21.4052 8.90548C22.2678 9.19214 23.0572 9.60681 23.7545 10.1561L22.9132 11.4375C22.1505 10.8921 21.4265 10.5201 20.7412 10.3228C20.0572 10.1188 19.2812 10.0095 18.4265 10.0095C17.6532 10.0095 16.9625 10.1561 16.3612 10.4428C15.7625 10.7361 15.2572 11.1375 14.8558 11.6641C14.4478 12.1815 14.1452 12.8015 13.9345 13.5281C13.7158 14.2548 13.6198 15.0615 13.6198 15.9468V18.0988C13.6198 20.1788 14.0598 21.7335 14.9345 22.7441C15.8172 23.7628 17.0332 24.2601 18.5905 24.2601C19.6505 24.2601 20.5518 24.0961 21.2878 23.7628C22.0332 23.4295 22.6692 23.0148 23.2158 22.5335L24.1758 23.8201C23.5492 24.3775 22.7932 24.8481 21.9052 25.2468C21.0252 25.6321 19.9078 25.8308 18.5652 25.8308C16.3878 25.8308 14.7438 25.1535 13.6238 23.7961C12.5145 22.4428 11.9532 20.5441 11.9532 18.0988V16.0175C11.9532 13.6135 12.5225 11.7601 13.6505 10.4428C14.7838 9.13214 16.3745 8.47081 18.4265 8.47081Z" fill="#144977"/>
</g>
<mask id="mask1_1_13402" style="mask-type:luminance" maskUnits="userSpaceOnUse" x="-106" y="-785" width="818" height="1146">
<path d="M-105.339 -784.339H711.038V360.857H-105.339V-784.339Z" fill="white"/>
</mask>
<g mask="url(#mask1_1_13402)">
<path d="M28.7282 10.1997V16.8304H32.4229C33.8842 16.8304 34.9416 16.5491 35.5882 15.9864C36.2309 15.4131 36.5536 14.6184 36.5536 13.5877V13.3504C36.5536 12.3744 36.2389 11.6037 35.6082 11.0437C34.9829 10.4784 34.0016 10.1997 32.6816 10.1997H28.7282ZM33.5669 18.2784C33.4576 18.3011 33.3509 18.3037 33.2522 18.3037H32.9362H28.7282V25.5664H27.0949V8.72774H32.9109C33.7549 8.72774 34.5016 8.83841 35.1522 9.06108C35.8109 9.29574 36.3642 9.61174 36.8242 10.0224C37.2829 10.4397 37.6322 10.9264 37.8642 11.4864C38.1002 12.0437 38.2202 12.6504 38.2202 13.3037V13.6584C38.2202 14.6784 37.9416 15.5691 37.3949 16.3064C36.8509 17.0517 36.1136 17.5877 35.1789 17.9317L38.5669 25.5664H36.8109L33.5669 18.2784Z" fill="#144977"/>
</g>
<mask id="mask2_1_13402" style="mask-type:luminance" maskUnits="userSpaceOnUse" x="-106" y="-785" width="818" height="1146">
<path d="M-105.339 -784.339H711.038V360.857H-105.339V-784.339Z" fill="white"/>
</mask>
<g mask="url(#mask2_1_13402)">
<path d="M44.5014 18.9109H50.5948L48.9601 14.3589C48.8534 14.0776 48.7494 13.8042 48.6574 13.5362C48.5641 13.2749 48.4574 12.9789 48.3534 12.6629C48.2414 12.3482 48.1321 11.9842 48.0041 11.5909C47.8788 11.1869 47.7281 10.7229 47.5588 10.1789C47.4001 10.7229 47.2614 11.1869 47.1374 11.5909C47.0121 11.9842 46.9001 12.3482 46.7881 12.6629C46.6761 12.9789 46.5801 13.2749 46.4854 13.5362C46.3948 13.8042 46.2908 14.0776 46.1761 14.3589L44.5014 18.9109ZM54.7281 25.5669H52.9774L51.1108 20.3402H43.9854L42.0668 25.5669H40.3868L46.6494 8.72823H48.4908L54.7281 25.5669Z" fill="#144977"/>
</g>
<mask id="mask3_1_13402" style="mask-type:luminance" maskUnits="userSpaceOnUse" x="-106" y="-785" width="818" height="1146">
<path d="M-105.339 -784.339H711.038V360.857H-105.339V-784.339Z" fill="white"/>
</mask>
<g mask="url(#mask3_1_13402)">
<path d="M66.947 8.72847V10.1791H61.5484V25.5671H59.9164V10.1791H54.543V8.72847H66.947Z" fill="#144977"/>
</g>
<mask id="mask4_1_13402" style="mask-type:luminance" maskUnits="userSpaceOnUse" x="-106" y="-785" width="818" height="1146">
<path d="M-105.339 -784.339H711.038V360.857H-105.339V-784.339Z" fill="white"/>
</mask>
<g mask="url(#mask4_1_13402)">
<path d="M70.8766 18.9109H76.9646L75.3353 14.3589C75.2233 14.0776 75.1246 13.8042 75.0326 13.5362C74.9313 13.2749 74.8326 12.9789 74.7286 12.6629C74.6193 12.3482 74.4993 11.9842 74.374 11.5909C74.2486 11.1869 74.106 10.7229 73.934 10.1789C73.7753 10.7229 73.6366 11.1869 73.5126 11.5909C73.3873 11.9842 73.27 12.3482 73.158 12.6629C73.0513 12.9789 72.9553 13.2749 72.8553 13.5362C72.7646 13.8042 72.666 14.0776 72.5513 14.3589L70.8766 18.9109ZM81.1033 25.5669H79.3526L77.486 20.3402H70.3526L68.442 25.5669H66.762L73.0193 8.72823H74.866L81.1033 25.5669Z" fill="#144977"/>
</g>
<mask id="mask5_1_13402" style="mask-type:luminance" maskUnits="userSpaceOnUse" x="-106" y="-785" width="818" height="1146">
<path d="M-105.339 -784.339H711.038V360.857H-105.339V-784.339Z" fill="white"/>
</mask>
<g mask="url(#mask5_1_13402)">
<path d="M91.0352 8.72851V24.1298H99.4645V25.5725H89.3965V8.72851H91.0352Z" fill="#144977"/>
</g>
<mask id="mask6_1_13402" style="mask-type:luminance" maskUnits="userSpaceOnUse" x="-106" y="-785" width="818" height="1146">
<path d="M-105.339 -784.339H711.038V360.857H-105.339V-784.339Z" fill="white"/>
</mask>
<g mask="url(#mask6_1_13402)">
<path d="M104.557 18.9187H110.655L109.018 14.3587C108.914 14.0827 108.814 13.8147 108.713 13.5414C108.622 13.276 108.523 12.984 108.411 12.6707C108.302 12.3507 108.185 11.992 108.065 11.5907C107.939 11.1974 107.794 10.724 107.614 10.1787C107.458 10.724 107.319 11.1974 107.195 11.5907C107.07 11.992 106.961 12.3507 106.846 12.6707C106.734 12.984 106.635 13.276 106.543 13.5414C106.445 13.8147 106.349 14.0827 106.242 14.3587L104.557 18.9187ZM114.791 25.572H113.035L111.169 20.3427H104.043L102.133 25.572H100.447L106.707 8.72802H108.551L114.791 25.572Z" fill="#144977"/>
</g>
<mask id="mask7_1_13402" style="mask-type:luminance" maskUnits="userSpaceOnUse" x="-106" y="-785" width="818" height="1146">
<path d="M-105.339 -784.339H711.038V360.857H-105.339V-784.339Z" fill="white"/>
</mask>
<g mask="url(#mask7_1_13402)">
<path d="M118.856 24.1296H123.2C124.52 24.1296 125.499 23.8749 126.127 23.3643C126.757 22.8616 127.077 22.1029 127.077 21.1136V20.5936C127.077 20.0883 127.004 19.6349 126.861 19.2496C126.723 18.8509 126.479 18.5309 126.137 18.2576C125.796 17.9936 125.351 17.7989 124.783 17.6683C124.223 17.5389 123.525 17.4709 122.684 17.4709H118.856V24.1296ZM118.856 10.1563V16.0909H122.659C123.829 16.0909 124.731 15.8896 125.367 15.4843C126.007 15.0723 126.328 14.3456 126.328 13.2883V12.8669C126.328 11.8749 126.02 11.1656 125.403 10.7629C124.791 10.3589 123.823 10.1563 122.495 10.1563H118.856ZM117.239 8.72827H122.613C126.176 8.72827 127.96 10.1056 127.96 12.8403V13.3323C127.96 13.7056 127.913 14.0723 127.823 14.4189C127.731 14.7749 127.577 15.0963 127.369 15.3923C127.156 15.6869 126.875 15.9469 126.525 16.1763C126.171 16.4003 125.749 16.5696 125.249 16.7003C126.283 16.8509 127.119 17.2469 127.771 17.8643C128.408 18.4909 128.736 19.3816 128.736 20.5456V21.1349C128.736 22.5203 128.296 23.6056 127.413 24.3949C126.531 25.1869 125.176 25.5723 123.335 25.5723H117.239V8.72827Z" fill="#144977"/>
</g>
<mask id="mask8_1_13402" style="mask-type:luminance" maskUnits="userSpaceOnUse" x="-106" y="-785" width="818" height="1146">
<path d="M-105.339 -784.339H711.038V360.857H-105.339V-784.339Z" fill="white"/>
</mask>
<g mask="url(#mask8_1_13402)">
<path d="M39.9548 105.791C37.9414 106.955 35.7121 107.83 33.2574 108.414C30.8041 108.994 27.9708 109.291 24.7494 109.291C16.4761 109.291 10.2521 107.034 6.06677 102.531C1.8921 98.0177 -0.201233 91.7643 -0.201233 83.783C-0.201233 75.375 1.8761 68.867 6.0361 64.263C10.1948 59.6657 16.4281 57.359 24.7494 57.359C26.7068 57.359 28.3974 57.455 29.8241 57.6377C31.2548 57.8297 32.5481 58.0857 33.7201 58.4057C34.8841 58.6923 35.9628 59.0537 36.9414 59.4963C37.9241 59.947 38.9761 60.4217 40.0908 60.9337L37.6401 69.0644C35.5401 68.0364 33.4708 67.2284 31.4388 66.6457C29.4054 66.0644 27.2468 65.767 24.9574 65.767C20.1454 65.767 16.5334 67.4057 14.1321 70.6737C11.7254 73.9444 10.5201 78.3177 10.5201 83.783C10.5201 89.247 11.8614 93.463 14.5534 96.431C17.2361 99.3977 20.6374 100.884 24.7494 100.884C26.7068 100.884 28.8588 100.611 31.1948 100.075C33.5281 99.539 35.6788 98.7337 37.6401 97.663L39.9548 105.791Z" fill="#144977"/>
</g>
<mask id="mask9_1_13402" style="mask-type:luminance" maskUnits="userSpaceOnUse" x="-106" y="-785" width="818" height="1146">
<path d="M-105.339 -784.339H711.038V360.857H-105.339V-784.339Z" fill="white"/>
</mask>
<g mask="url(#mask9_1_13402)">
<path d="M59.0876 66.3979C57.7262 66.3979 56.8329 66.6686 56.3849 67.2072C55.9449 67.7499 55.7209 68.5486 55.7209 69.6272V80.7646H63.9889C66.9809 80.7646 69.1062 80.2392 70.3662 79.1952C71.6316 78.1406 72.2622 76.2579 72.2622 73.5486C72.2622 70.8899 71.6449 69.0312 70.4022 67.9792C69.1662 66.9259 67.0716 66.3979 64.1316 66.3979H59.0876ZM73.5902 59.3926C75.8796 60.0539 77.7022 61.0072 79.0596 62.2672C80.4649 63.5339 81.4449 65.1032 82.0036 66.9992C82.5636 68.8926 82.8476 71.0779 82.8476 73.5486C82.8476 77.7046 82.0822 80.9286 80.5609 83.2232C79.0489 85.5126 76.6756 87.0726 73.4542 87.9139C74.3396 88.7579 75.1369 89.7619 75.8356 90.9312C76.5382 92.0952 77.2809 93.4499 78.0769 94.9939L84.3849 108.237H73.8009L69.3169 98.2912C68.2902 96.1459 67.1582 94.1246 65.9209 92.2286C64.6782 90.3352 63.0142 89.1739 60.9102 88.7579H55.7209V108.237H45.3476V68.0832C45.3476 64.4859 46.1582 61.9712 47.7676 60.5512C49.3822 59.1246 51.9836 58.4059 55.5822 58.4059H65.0409C68.4542 58.4059 71.3036 58.7446 73.5902 59.3926Z" fill="#144977"/>
</g>
<mask id="mask10_1_13402" style="mask-type:luminance" maskUnits="userSpaceOnUse" x="-106" y="-785" width="818" height="1146">
<path d="M-105.339 -784.339H711.038V360.857H-105.339V-784.339Z" fill="white"/>
</mask>
<g mask="url(#mask10_1_13402)">
<path d="M116.829 90.4422L109.543 67.4528L102.327 90.4422H116.829ZM133.024 108.237H122.652L119.144 97.6635H100.149L96.5788 108.237H86.1348L103.796 58.4062H115.851L133.024 108.237Z" fill="#144977"/>
</g>
<mask id="mask11_1_13402" style="mask-type:luminance" maskUnits="userSpaceOnUse" x="-106" y="-785" width="818" height="1146">
<path d="M-105.339 -784.339H711.038V360.857H-105.339V-784.339Z" fill="white"/>
</mask>
<g mask="url(#mask11_1_13402)">
<path d="M167.502 66.4681H153.275V108.236H142.695V66.4681H128.466V58.4054H167.502V66.4681Z" fill="#144977"/>
</g>
<mask id="mask12_1_13402" style="mask-type:luminance" maskUnits="userSpaceOnUse" x="-106" y="-785" width="818" height="1146">
<path d="M-105.339 -784.339H711.038V360.857H-105.339V-784.339Z" fill="white"/>
</mask>
<g mask="url(#mask12_1_13402)">
<path d="M193.643 90.4422L186.353 67.4528L179.132 90.4422H193.643ZM209.831 108.237H199.463L195.957 97.6635H176.963L173.391 108.237H162.945L180.607 58.4062H192.661L209.831 108.237Z" fill="#144977"/>
</g>
<mask id="mask13_1_13402" style="mask-type:luminance" maskUnits="userSpaceOnUse" x="-106" y="-785" width="818" height="1146">
<path d="M-105.339 -784.339H711.039V360.857H-105.339V-784.339Z" fill="white"/>
</mask>
<g mask="url(#mask13_1_13402)">
<path d="M261.692 74.8432C261.549 75.6686 261.364 76.4219 261.132 77.1299H269.189V69.2726H261.618C261.71 69.7832 261.785 70.2939 261.83 70.7779C261.877 71.2752 261.902 71.7726 261.902 72.2939C261.902 73.1766 261.83 74.0286 261.692 74.8432ZM272.273 109.565C274.848 109.245 277.32 108.638 279.7 107.75L281.806 115.106C279.372 115.942 276.806 116.617 274.096 117.103C271.386 117.598 268.228 117.841 264.637 117.841H245.15C242.577 117.841 240.585 117.231 239.158 116.021C237.73 114.802 237.02 112.934 237.02 110.409V95.2032H247.181V108.166C247.181 108.871 247.322 109.362 247.604 109.638C247.886 109.922 248.397 110.062 249.15 110.062H264.353C267.056 110.062 269.702 109.901 272.273 109.565ZM249.777 66.6112C248.418 65.0699 246.552 64.3046 244.168 64.3046C241.788 64.3046 239.934 65.0699 238.598 66.6112C237.27 68.1552 236.606 70.0432 236.606 72.2939C236.606 74.6272 237.27 76.5512 238.598 78.0699C239.934 79.5886 241.788 80.3512 244.168 80.3512C246.552 80.3512 248.418 79.5886 249.777 78.0699C251.134 76.5512 251.812 74.6272 251.812 72.2939C251.812 70.0432 251.134 68.1552 249.777 66.6112ZM259.661 80.3512C258.11 82.7752 255.989 84.7046 253.277 86.1326C250.569 87.5512 247.538 88.2699 244.168 88.2699C241.504 88.2699 239.085 87.8406 236.913 87.0099C234.744 86.1659 232.882 85.0206 231.342 83.5699C229.804 82.1299 228.613 80.4312 227.77 78.4939C226.929 76.5512 226.509 74.4832 226.509 72.2939C226.509 69.9966 226.962 67.8846 227.877 65.9446C228.782 64.0099 230.033 62.3152 231.626 60.8646C233.218 59.4659 235.08 58.3592 237.23 57.5726C239.382 56.7752 241.689 56.3739 244.168 56.3739C247.673 56.3739 250.754 57.1112 253.418 58.5859C256.08 60.0592 258.158 61.9686 259.661 64.3046V61.5646H269.189V56.8019H279.35V98.2912H269.189V84.8379H259.661V80.3512Z" fill="#144977"/>
</g>
<mask id="mask14_1_13402" style="mask-type:luminance" maskUnits="userSpaceOnUse" x="-106" y="-785" width="818" height="1146">
<path d="M-105.339 -784.339H711.039V360.857H-105.339V-784.339Z" fill="white"/>
</mask>
<g mask="url(#mask14_1_13402)">
<path d="M319.022 85.5306C319.579 82.9599 320.093 80.1119 320.558 76.9813C321.025 73.8506 321.257 71.0279 321.257 68.5026C321.257 67.6639 321.055 67.0306 320.665 66.6119C320.27 66.1946 319.715 65.9786 319.022 65.9786H289.585V58.2026H324.273C326.941 58.2026 328.793 58.8359 329.845 60.0986C330.897 61.3533 331.418 63.0119 331.418 65.0693C331.371 68.6133 331.077 72.1586 330.509 75.6839C329.951 79.2213 329.227 82.8693 328.339 86.6559L319.022 85.5306ZM305.215 116.093V96.8853H283.765V89.0386H339.829V96.8853H315.517V116.093H305.215Z" fill="#144977"/>
</g>
<mask id="mask15_1_13402" style="mask-type:luminance" maskUnits="userSpaceOnUse" x="-106" y="-785" width="818" height="1146">
<path d="M-105.339 -784.339H711.039V360.857H-105.339V-784.339Z" fill="white"/>
</mask>
<g mask="url(#mask15_1_13402)">
<path d="M373.4 66.8926C373.4 67.4526 373.361 68.0126 373.296 68.5699C373.223 69.1379 373.119 69.6979 372.973 70.2592C374.613 70.2592 376.039 70.5099 377.255 71.0286C378.468 71.5406 379.54 72.1686 380.473 72.9166C381.269 73.6219 382.255 74.4832 383.419 75.5072C384.583 76.5406 385.827 77.6166 387.137 78.7312C388.444 79.9006 389.755 81.0726 391.061 82.2366C392.372 83.4112 393.583 84.5046 394.707 85.5312L388.749 92.4006C387.629 91.3712 386.444 90.2779 385.207 89.1032C383.965 87.9392 382.741 86.8219 381.531 85.7419C380.315 84.6246 379.155 83.5699 378.056 82.5926C376.96 81.6059 376.015 80.7646 375.225 80.0646C374.327 79.3646 373.439 78.8406 372.556 78.4939C371.663 78.1406 370.665 77.9392 369.54 77.8952C367.205 81.2539 364.061 84.2699 360.116 86.9312C356.168 89.5979 351.817 91.4192 347.045 92.4006L344.663 84.3406C350.973 82.3326 355.595 79.6006 358.536 76.1406C361.483 72.6872 362.957 69.1552 362.957 65.5646V62.8246C362.957 62.4059 362.876 61.8352 362.705 61.1112C362.548 60.3872 362.351 59.6526 362.113 58.9006L372.064 56.5206C372.577 57.5019 372.928 58.5486 373.119 59.6712C373.304 60.7939 373.4 61.8219 373.4 62.7619V66.8926ZM397.648 107.89H341.58V100.035H364.567V88.1979H374.731V100.035H397.648V107.89Z" fill="#144977"/>
</g>
<mask id="mask16_1_13402" style="mask-type:luminance" maskUnits="userSpaceOnUse" x="-106" y="-785" width="818" height="1146">
<path d="M-105.339 -784.339H711.038V360.857H-105.339V-784.339Z" fill="white"/>
</mask>
<g mask="url(#mask16_1_13402)">
<path d="M510.652 47.6141L509.966 51.1221C466.378 48.6087 422.165 27.4941 415.654 24.2594L419.013 7.03274C435.326 17.1767 468.794 35.8407 510.652 47.6141Z" fill="#E43C25"/>
</g>
<mask id="mask17_1_13402" style="mask-type:luminance" maskUnits="userSpaceOnUse" x="-106" y="-785" width="818" height="1146">
<path d="M-105.339 -784.339H711.039V360.857H-105.339V-784.339Z" fill="white"/>
</mask>
<g mask="url(#mask17_1_13402)">
<path d="M536.907 53.7885L535.274 62.1378C497.921 72.8645 457.683 69.5432 427.834 63.9272L432.21 41.4965C481.322 60.9938 515.486 59.5672 536.907 53.7885Z" fill="#E8C12A"/>
</g>
<mask id="mask18_1_13402" style="mask-type:luminance" maskUnits="userSpaceOnUse" x="-106" y="-785" width="818" height="1146">
<path d="M-105.339 -784.339H711.038V360.857H-105.339V-784.339Z" fill="white"/>
</mask>
<g mask="url(#mask18_1_13402)">
<path d="M567.467 57.6243C546.858 86.9056 509.86 116.447 444.488 116.474L450.85 83.851C511.612 87.8763 544.904 69.2083 559.902 57.0123C562.399 57.267 564.92 57.4683 567.467 57.6243Z" fill="#7AAC47"/>
</g>
<mask id="mask19_1_13402" style="mask-type:luminance" maskUnits="userSpaceOnUse" x="-106" y="-785" width="818" height="1146">
<path d="M-105.339 -784.339H711.039V360.857H-105.339V-784.339Z" fill="white"/>
</mask>
<g mask="url(#mask19_1_13402)">
<path d="M567.506 57.6323H567.457C587.736 28.8616 592.17 0.348297 592.17 0.348297L605.53 14.575C609.548 18.8643 609.725 25.4496 606.028 30.0123C594.124 44.711 584.072 51.955 577.766 55.439C574.642 57.1683 571.069 57.895 567.506 57.6323Z" fill="#134877"/>
</g>
<mask id="mask20_1_13402" style="mask-type:luminance" maskUnits="userSpaceOnUse" x="-106" y="-785" width="818" height="1146">
<path d="M-105.339 -784.339H711.039V360.857H-105.339V-784.339Z" fill="white"/>
</mask>
<g mask="url(#mask20_1_13402)">
<path d="M622.103 32.2572C624.483 34.8012 624.267 38.8826 621.538 41.0439C612.786 47.9759 603.387 52.3092 594.972 55.0119L594.952 55.0279C594.895 55.0412 594.835 55.0572 594.794 55.0692C594.754 55.1012 594.696 55.1039 594.619 55.1292C594.379 55.2106 594.15 55.2786 593.934 55.3506C593.736 55.4132 593.507 55.4679 593.251 55.5466C590.52 56.2652 584.608 57.4426 576.215 57.0386C591.874 51.7652 606.504 37.6319 616.403 26.1759L622.103 32.2572Z" fill="#134877"/>
</g>
<mask id="mask21_1_13402" style="mask-type:luminance" maskUnits="userSpaceOnUse" x="-106" y="-785" width="818" height="1146">
<path d="M-105.339 -784.339H711.038V360.857H-105.339V-784.339Z" fill="white"/>
</mask>
<g mask="url(#mask21_1_13402)">
<path d="M633.499 52.3925C619.92 55.6712 606.389 57.4312 593.084 57.9912C608.119 54.7832 621.78 48.1085 631.551 42.3245L635.324 46.3592C637.239 48.3979 636.22 51.7312 633.499 52.3925Z" fill="#134877"/>
</g>
<mask id="mask22_1_13402" style="mask-type:luminance" maskUnits="userSpaceOnUse" x="-106" y="-785" width="818" height="1146">
<path d="M-105.339 -784.339H711.038V360.857H-105.339V-784.339Z" fill="white"/>
</mask>
<g mask="url(#mask22_1_13402)">
<path d="M567.467 36.8745C567.467 42.7811 562.672 47.5745 556.764 47.5745C550.855 47.5745 546.068 42.7811 546.068 36.8745C546.068 30.9678 550.855 26.1771 556.764 26.1771C562.672 26.1771 567.467 30.9678 567.467 36.8745Z" fill="#134877"/>
</g>
</g>
<defs>
<clipPath id="clip0_1_13402">
<rect width="636" height="129" fill="white"/>
</clipPath>
</defs>
</svg>
