<svg width="335" height="171" viewBox="0 0 335 171" fill="none" xmlns="http://www.w3.org/2000/svg">
<g clip-path="url(#clip0_1_13914)">
<mask id="mask0_1_13914" style="mask-type:luminance" maskUnits="userSpaceOnUse" x="-122" y="-58" width="530" height="303">
<path d="M-122 -58H407.133V244.36H-122V-58Z" fill="white"/>
</mask>
<g mask="url(#mask0_1_13914)">
<path d="M179.492 147.056V170.552H181.293C182.061 170.552 182.45 170.049 182.45 168.739V147.056H179.492Z" fill="#0573AC"/>
</g>
<mask id="mask1_1_13914" style="mask-type:luminance" maskUnits="userSpaceOnUse" x="-122" y="-58" width="530" height="303">
<path d="M-122 -58H407.133V244.36H-122V-58Z" fill="white"/>
</mask>
<g mask="url(#mask1_1_13914)">
<path d="M164.167 163.059C169.181 159.957 172.361 155.201 172.361 150.773H164.608V148.332H174.301C175.556 148.332 175.6 149.245 175.6 149.956C175.6 157.263 170.335 163.097 165.903 165.44L164.167 163.059Z" fill="#0573AC"/>
</g>
<mask id="mask2_1_13914" style="mask-type:luminance" maskUnits="userSpaceOnUse" x="-122" y="-58" width="530" height="303">
<path d="M-122 -58H407.133V244.36H-122V-58Z" fill="white"/>
</mask>
<g mask="url(#mask2_1_13914)">
<path d="M204.785 156.635H184.979V158.978H194.538V160.802H188.095V163.09H201.011V163.867C201.011 164.322 200.862 164.445 200.566 164.445H188.095V167.985C188.095 168.911 188.347 169.541 188.866 169.879C189.381 170.223 190.131 170.389 191.105 170.389H202.643C203.45 170.389 203.799 170.098 203.799 169.525V168.11L191.579 168.114C191.21 168.114 191.033 167.929 191.033 167.557V166.598H201.483C202.227 166.598 203.193 166.353 203.645 165.543C203.958 164.994 203.947 164.026 203.947 163.401V162.006C203.947 161.206 203.535 160.802 202.71 160.802H197.501V158.978H205.19C206.041 158.978 206.41 158.669 206.41 158.065V156.635H204.785Z" fill="#0573AC"/>
</g>
<mask id="mask3_1_13914" style="mask-type:luminance" maskUnits="userSpaceOnUse" x="-122" y="-58" width="530" height="303">
<path d="M-122 -58H407.133V244.36H-122V-58Z" fill="white"/>
</mask>
<g mask="url(#mask3_1_13914)">
<path d="M197.536 147.301V147.055H194.495V147.301C194.495 150.847 190.037 152.401 187.06 152.997L187.956 155.303C190.348 154.941 194.107 154.051 196.015 151.03C197.927 154.051 201.684 154.941 204.073 155.303L204.971 152.997C201.996 152.401 197.536 150.847 197.536 147.301Z" fill="#0573AC"/>
</g>
<mask id="mask4_1_13914" style="mask-type:luminance" maskUnits="userSpaceOnUse" x="-122" y="-58" width="530" height="303">
<path d="M-122 -58H407.133V244.36H-122V-58Z" fill="white"/>
</mask>
<g mask="url(#mask4_1_13914)">
<path d="M136.604 155.225V147.056H133.648V170.552H135.455C136.217 170.552 136.604 170.049 136.604 168.739V157.739H138.651C139.561 157.739 139.959 157.411 139.959 156.757V155.225H136.604Z" fill="#0573AC"/>
</g>
<mask id="mask5_1_13914" style="mask-type:luminance" maskUnits="userSpaceOnUse" x="-122" y="-58" width="530" height="303">
<path d="M-122 -58H407.133V244.36H-122V-58Z" fill="white"/>
</mask>
<g mask="url(#mask5_1_13914)">
<path d="M127.158 160.819H129.752C130.671 157.776 130.896 153.964 130.896 149.956C130.896 149.244 130.852 148.332 129.599 148.332H118.458V150.774H127.906C127.906 153.119 128.003 157.287 127.158 160.819Z" fill="#0573AC"/>
</g>
<mask id="mask6_1_13914" style="mask-type:luminance" maskUnits="userSpaceOnUse" x="-122" y="-58" width="530" height="303">
<path d="M-122 -58H407.133V244.36H-122V-58Z" fill="white"/>
</mask>
<g mask="url(#mask6_1_13914)">
<path d="M124.533 163.525V157.09H121.633V163.525H117.662V165.91H130.794C131.662 165.91 132.038 165.602 132.038 164.982V163.525H124.533Z" fill="#0573AC"/>
</g>
<mask id="mask7_1_13914" style="mask-type:luminance" maskUnits="userSpaceOnUse" x="-122" y="-58" width="530" height="303">
<path d="M-122 -58H407.133V244.36H-122V-58Z" fill="white"/>
</mask>
<g mask="url(#mask7_1_13914)">
<path d="M47.3191 156.983H47.2831V159.407H56.4537V162.375H50.0097V164.791H62.7644V170.552H64.5511C65.3084 170.552 65.6897 170.062 65.6897 168.763L65.6791 163.587C65.6791 162.778 65.2644 162.375 64.4471 162.375H59.4137V159.407H66.9831C67.8564 159.407 68.2311 159.096 68.2311 158.475V156.983H47.3191Z" fill="#0573AC"/>
</g>
<mask id="mask8_1_13914" style="mask-type:luminance" maskUnits="userSpaceOnUse" x="-122" y="-58" width="530" height="303">
<path d="M-122 -58H407.133V244.36H-122V-58Z" fill="white"/>
</mask>
<g mask="url(#mask8_1_13914)">
<path d="M62.3236 155.773H65.0676C65.6049 154.775 65.9196 151.484 65.9196 149.845C65.9196 149.135 65.8729 148.217 64.6183 148.217H50.0369V150.659H62.8569C62.8569 152.088 62.6369 154.443 62.3236 155.773Z" fill="#0573AC"/>
</g>
<mask id="mask9_1_13914" style="mask-type:luminance" maskUnits="userSpaceOnUse" x="-122" y="-58" width="530" height="303">
<path d="M-122 -58H407.133V244.36H-122V-58Z" fill="white"/>
</mask>
<g mask="url(#mask9_1_13914)">
<path d="M77.834 150.012V147.056H74.9007V150.012H70.9207V152.397H80.6113C81.5287 152.397 81.922 152.069 81.922 151.413V150.006L77.834 150.012Z" fill="#0573AC"/>
</g>
<mask id="mask10_1_13914" style="mask-type:luminance" maskUnits="userSpaceOnUse" x="-122" y="-58" width="530" height="303">
<path d="M-122 -58H407.133V244.36H-122V-58Z" fill="white"/>
</mask>
<g mask="url(#mask10_1_13914)">
<path d="M88.4695 147.056V154.443H86.4055V147.056H83.5535V170.552H85.2521C86.0148 170.552 86.4055 170.049 86.4055 168.739V156.824H88.4695V170.552H90.1655C90.9321 170.552 91.3161 170.049 91.3161 168.739V147.056H88.4695Z" fill="#0573AC"/>
</g>
<mask id="mask11_1_13914" style="mask-type:luminance" maskUnits="userSpaceOnUse" x="-122" y="-58" width="530" height="303">
<path d="M-122 -58H407.133V244.36H-122V-58Z" fill="white"/>
</mask>
<g mask="url(#mask11_1_13914)">
<path d="M76.4375 162.604C75.1801 162.604 74.1655 161.252 74.1655 159.324C74.1655 157.397 75.1801 156.043 76.4375 156.043C77.6921 156.043 78.7068 157.397 78.7068 159.324C78.7068 161.252 77.6921 162.604 76.4375 162.604ZM76.4375 153.593C73.6975 153.593 71.4721 155.987 71.4721 159.36C71.4721 162.735 73.6975 165.132 76.4375 165.132C79.1775 165.132 81.3988 162.735 81.3988 159.36C81.3988 155.987 79.1775 153.593 76.4375 153.593Z" fill="#0573AC"/>
</g>
<mask id="mask12_1_13914" style="mask-type:luminance" maskUnits="userSpaceOnUse" x="-122" y="-58" width="530" height="303">
<path d="M-122 -58H407.133V244.36H-122V-58Z" fill="white"/>
</mask>
<g mask="url(#mask12_1_13914)">
<path d="M114.6 151.922C115.514 151.922 115.909 151.595 115.909 150.943V149.537H112.497V147.057H109.536V160.819H111.34C112.108 160.819 112.497 160.317 112.497 159.002V156.525H114.6C115.514 156.525 115.909 156.193 115.909 155.545V154.135H112.497V151.922H114.6Z" fill="#0573AC"/>
</g>
<mask id="mask13_1_13914" style="mask-type:luminance" maskUnits="userSpaceOnUse" x="-122" y="-58" width="530" height="303">
<path d="M-122 -58H407.133V244.36H-122V-58Z" fill="white"/>
</mask>
<g mask="url(#mask13_1_13914)">
<path d="M104.964 168.589C102.245 168.589 100.54 167.379 100.54 165.838C100.54 164.302 102.245 163.09 104.964 163.09C107.677 163.09 109.388 164.302 109.388 165.838C109.388 167.379 107.677 168.589 104.964 168.589ZM104.964 160.721C100.453 160.721 97.5783 163.01 97.5783 165.838C97.5783 168.667 100.453 170.958 104.964 170.958C109.47 170.958 112.346 168.667 112.346 165.838C112.346 163.01 109.47 160.721 104.964 160.721Z" fill="#0573AC"/>
</g>
<mask id="mask14_1_13914" style="mask-type:luminance" maskUnits="userSpaceOnUse" x="-122" y="-58" width="530" height="303">
<path d="M-122 -58H407.133V244.36H-122V-58Z" fill="white"/>
</mask>
<g mask="url(#mask14_1_13914)">
<path d="M97.2963 153.431C97.2963 151.492 98.5963 149.971 100.48 149.971C102.368 149.971 103.662 151.492 103.662 153.431C103.662 155.367 102.368 156.888 100.48 156.888C98.5963 156.888 97.2963 155.367 97.2963 153.431ZM106.611 153.427C106.611 150.207 104.07 147.598 100.48 147.598C96.8949 147.598 94.3536 150.207 94.3536 153.427C94.3536 156.647 96.8949 159.259 100.48 159.259C104.07 159.259 106.611 156.647 106.611 153.427Z" fill="#0573AC"/>
</g>
<mask id="mask15_1_13914" style="mask-type:luminance" maskUnits="userSpaceOnUse" x="-122" y="-58" width="530" height="303">
<path d="M-122 -58H407.133V244.36H-122V-58Z" fill="white"/>
</mask>
<g mask="url(#mask15_1_13914)">
<path d="M224.337 147.056V160.835H220.447V163.193H224.337V164.516H226.143C226.909 164.516 227.293 164.015 227.293 162.699V147.056H224.337Z" fill="#0573AC"/>
</g>
<mask id="mask16_1_13914" style="mask-type:luminance" maskUnits="userSpaceOnUse" x="-122" y="-58" width="530" height="303">
<path d="M-122 -58H407.133V244.36H-122V-58Z" fill="white"/>
</mask>
<g mask="url(#mask16_1_13914)">
<path d="M208.248 157.378V159.716H214.032V162.983H215.832C216.601 162.983 216.988 162.516 216.988 161.592V159.716H221.677C222.528 159.716 222.896 159.416 222.896 158.807V157.378H208.248Z" fill="#0573AC"/>
</g>
<mask id="mask17_1_13914" style="mask-type:luminance" maskUnits="userSpaceOnUse" x="-122" y="-58" width="530" height="303">
<path d="M-122 -58H407.133V244.36H-122V-58Z" fill="white"/>
</mask>
<g mask="url(#mask17_1_13914)">
<path d="M215.714 167.798C215.181 167.798 214.902 167.549 214.902 167.041V164.171H211.969V167.798C211.969 168.686 212.218 169.311 212.705 169.674C213.191 170.03 213.926 170.203 214.902 170.203H226.547C227.401 170.203 227.77 169.899 227.77 169.291V167.798H215.714Z" fill="#0573AC"/>
</g>
<mask id="mask18_1_13914" style="mask-type:luminance" maskUnits="userSpaceOnUse" x="-122" y="-58" width="530" height="303">
<path d="M-122 -58H407.133V244.36H-122V-58Z" fill="white"/>
</mask>
<g mask="url(#mask18_1_13914)">
<path d="M215.503 154.008C213.693 154.008 212.422 152.957 212.422 151.657C212.422 150.356 213.693 149.3 215.503 149.3C217.318 149.3 218.587 150.356 218.587 151.657C218.587 152.957 217.318 154.008 215.503 154.008ZM215.467 146.953C211.986 146.953 209.514 149.058 209.514 151.657C209.514 154.249 211.986 156.354 215.467 156.354C218.947 156.354 221.417 154.249 221.417 151.657C221.417 149.058 218.947 146.953 215.467 146.953Z" fill="#0573AC"/>
</g>
<mask id="mask19_1_13914" style="mask-type:luminance" maskUnits="userSpaceOnUse" x="-122" y="-58" width="530" height="303">
<path d="M-122 -58H407.133V244.36H-122V-58Z" fill="white"/>
</mask>
<g mask="url(#mask19_1_13914)">
<path d="M158.111 161.957H144.691V164.362H156.434V170.552H158.215C158.962 170.552 159.343 170.066 159.343 168.781V163.156C159.343 162.356 158.929 161.957 158.111 161.957Z" fill="#0573AC"/>
</g>
<mask id="mask20_1_13914" style="mask-type:luminance" maskUnits="userSpaceOnUse" x="-122" y="-58" width="530" height="303">
<path d="M-122 -58H407.133V244.36H-122V-58Z" fill="white"/>
</mask>
<g mask="url(#mask20_1_13914)">
<path d="M159.344 152.133V147.055H156.388V160.819H158.19C158.954 160.819 159.344 160.317 159.344 159.001V154.522H161.465C162.336 154.522 162.713 154.21 162.713 153.59V152.133H159.344Z" fill="#0573AC"/>
</g>
<mask id="mask21_1_13914" style="mask-type:luminance" maskUnits="userSpaceOnUse" x="-122" y="-58" width="530" height="303">
<path d="M-122 -58H407.133V244.36H-122V-58Z" fill="white"/>
</mask>
<g mask="url(#mask21_1_13914)">
<path d="M147.991 157.769C146.298 157.769 145.11 156.583 145.11 155.127C145.11 153.665 146.298 152.479 147.991 152.479C149.686 152.479 150.872 153.665 150.872 155.127C150.872 156.583 149.686 157.769 147.991 157.769ZM147.958 150.097C144.7 150.097 142.391 152.368 142.391 155.161C142.391 157.959 144.7 160.223 147.958 160.223C151.212 160.223 153.519 157.959 153.519 155.161C153.519 152.368 151.212 150.097 147.958 150.097Z" fill="#0573AC"/>
</g>
<mask id="mask22_1_13914" style="mask-type:luminance" maskUnits="userSpaceOnUse" x="-122" y="-58" width="530" height="303">
<path d="M-122 -58H407.133V244.36H-122V-58Z" fill="white"/>
</mask>
<g mask="url(#mask22_1_13914)">
<path d="M153.165 151.275C154.083 151.275 154.479 150.959 154.479 150.343V149.012H149.451V147.056H146.509V149.012H141.692V151.283L153.165 151.275Z" fill="#0573AC"/>
</g>
<mask id="mask23_1_13914" style="mask-type:luminance" maskUnits="userSpaceOnUse" x="-122" y="-58" width="530" height="303">
<path d="M-122 -58H407.133V244.36H-122V-58Z" fill="white"/>
</mask>
<g mask="url(#mask23_1_13914)">
<path d="M42.9284 152.65V147.056H39.9711V163.966H41.7751C42.5391 163.966 42.9284 163.464 42.9284 162.15V155.031H44.9844C45.9004 155.031 46.2964 154.707 46.2964 154.055V152.65H42.9284Z" fill="#0573AC"/>
</g>
<mask id="mask24_1_13914" style="mask-type:luminance" maskUnits="userSpaceOnUse" x="-122" y="-58" width="530" height="303">
<path d="M-122 -58H407.133V244.36H-122V-58Z" fill="white"/>
</mask>
<g mask="url(#mask24_1_13914)">
<path d="M31.5065 167.798C30.9719 167.798 30.6972 167.549 30.6972 167.041V163.283H27.7639V167.798C27.7639 168.686 28.0065 169.311 28.4959 169.674C28.9839 170.03 29.7172 170.203 30.6972 170.203H42.3385C43.1945 170.203 43.5612 169.899 43.5612 169.291V167.798H31.5065Z" fill="#0573AC"/>
</g>
<mask id="mask25_1_13914" style="mask-type:luminance" maskUnits="userSpaceOnUse" x="-122" y="-58" width="530" height="303">
<path d="M-122 -58H407.133V244.36H-122V-58Z" fill="white"/>
</mask>
<g mask="url(#mask25_1_13914)">
<path d="M31.1745 158.444C29.5079 158.444 28.3372 157.059 28.3372 155.344C28.3372 153.629 29.5079 152.239 31.1745 152.239C32.8425 152.239 34.0105 153.629 34.0105 155.344C34.0105 157.059 32.8425 158.444 31.1745 158.444ZM31.1745 150.259C27.9199 150.259 25.6132 152.637 25.6132 155.573C25.6132 158.508 27.9199 160.885 31.1745 160.885C34.4319 160.885 36.7359 158.508 36.7359 155.573C36.7359 152.637 34.4319 150.259 31.1745 150.259Z" fill="#0573AC"/>
</g>
<mask id="mask26_1_13914" style="mask-type:luminance" maskUnits="userSpaceOnUse" x="-122" y="-58" width="530" height="303">
<path d="M-122 -58H407.133V244.36H-122V-58Z" fill="white"/>
</mask>
<g mask="url(#mask26_1_13914)">
<path d="M36.3848 151.492C37.2981 151.492 37.6968 151.164 37.6968 150.513V149.123H32.6701V147.056H29.7288V149.123H24.9128V151.5L36.3848 151.492Z" fill="#0573AC"/>
</g>
<mask id="mask27_1_13914" style="mask-type:luminance" maskUnits="userSpaceOnUse" x="-122" y="-58" width="530" height="303">
<path d="M-122 -58H407.133V244.36H-122V-58Z" fill="white"/>
</mask>
<g mask="url(#mask27_1_13914)">
<path d="M251.603 76.9869H176.817C170.609 76.9869 161.13 78.3016 156.31 85.4683C151.083 93.2549 153.926 103.608 167.411 107.744C167.411 107.744 178.815 111.184 183.298 112.939C186.521 114.219 188.414 116.498 187.239 120.04C185.875 124.144 179.294 124.043 174.57 124.043H167.437C158.383 124.043 152.33 132.567 152.449 134.886C152.486 135.502 152.839 135.406 153.349 135.406H177.102C185.293 135.406 196.67 134.743 200.757 126.738C204.146 120.084 203.501 111.034 187.482 106.054C180.951 104.012 177.289 102.664 172.806 101.014C169.014 99.6296 167.255 96.8536 168.001 94.2709C169.515 88.9576 177.53 88.5469 180.634 88.5469H213.65V134.515C213.65 135.099 214.029 135.406 214.563 135.406H225.43C226.811 135.406 227.775 134.452 227.775 133.048V88.5469C228.254 88.5469 240.205 88.5549 240.298 88.5549C247.661 88.5549 252.678 80.3523 252.522 77.5189C252.495 76.8883 252.131 76.9869 251.603 76.9869Z" fill="#0AAFDE"/>
</g>
<mask id="mask28_1_13914" style="mask-type:luminance" maskUnits="userSpaceOnUse" x="-122" y="-58" width="530" height="303">
<path d="M-122 -58H407.133V244.36H-122V-58Z" fill="white"/>
</mask>
<g mask="url(#mask28_1_13914)">
<path d="M83.5971 76.9818H74.0557C72.7264 77.0298 71.8344 77.9498 71.8344 79.2964V128.095C71.8344 130.767 71.1304 131.812 65.8611 130.019C59.8397 127.956 40.3317 117.18 34.6571 103.391C42.2317 93.6764 51.5691 87.4364 63.4837 81.1218C68.0944 78.6698 66.7531 77.0071 64.9664 77.0071H52.3744C49.7504 77.0071 47.3091 76.9511 44.3797 78.7218C37.6917 82.7618 28.2491 93.5191 24.9091 100.12V79.3084C24.9091 77.9298 23.9651 76.9818 22.5771 76.9818H13.2451C11.8611 76.9818 10.9037 77.9298 10.9037 79.3084V133.08C10.9037 134.463 11.8611 135.406 13.2451 135.406H22.5771C23.9651 135.406 24.9091 134.463 24.9091 133.08V108.112C26.4357 112.152 29.4171 117.564 33.0931 122.707C40.9451 133.696 49.3597 135.406 56.8331 135.406H80.0957C85.0744 135.406 85.8397 132.615 85.8397 128.116V79.2964C85.8397 77.9538 84.9317 77.0298 83.5971 76.9818Z" fill="#0AAFDE"/>
</g>
<mask id="mask29_1_13914" style="mask-type:luminance" maskUnits="userSpaceOnUse" x="-122" y="-58" width="530" height="303">
<path d="M-122 -58H407.133V244.36H-122V-58Z" fill="white"/>
</mask>
<g mask="url(#mask29_1_13914)">
<path d="M326.557 97.9361C316.493 68.7108 282.613 79.4388 261.811 56.2841C251.375 44.6535 248.001 35.7308 246.908 31.4055V31.3855C246.549 29.9281 246.369 30.6348 246.401 31.6335C246.76 39.2908 249.727 49.8375 255.476 60.8268C257.067 63.8001 258.184 66.7041 259.109 69.5908C264.493 86.5468 263.231 104.169 256.627 118.476C265.492 108.199 270.327 95.0401 273.368 85.4295C287.685 100.024 307.919 111.741 334.584 113.504C330.996 111.209 328.512 103.584 326.557 97.9361Z" fill="#0573AC"/>
</g>
<mask id="mask30_1_13914" style="mask-type:luminance" maskUnits="userSpaceOnUse" x="-122" y="-58" width="530" height="303">
<path d="M-122 -58H407.133V244.36H-122V-58Z" fill="white"/>
</mask>
<g mask="url(#mask30_1_13914)">
<path d="M306.424 0.865818C305.161 4.20049 304.176 7.05782 299.637 12.0658C291.857 20.6152 283.26 24.9151 275.871 35.5245C269.447 44.7405 270.179 54.8965 270.191 57.7965C270.651 54.9512 270.415 46.1791 277.348 36.0111C280.535 31.3738 285.396 26.6498 289.536 22.9485C295.311 17.7845 297.781 15.4352 301.065 11.6125C302.039 10.4778 303.532 8.49515 304.139 7.34982C303.889 8.14715 302.991 9.72049 302.091 11.0778C298.732 16.1178 296.315 18.7765 290.908 24.3272C286.612 28.7431 282.192 33.2978 279.404 37.3272C276.283 41.8298 272.668 48.0045 271.333 58.8578C272.776 52.5511 275.475 44.9352 280.72 38.0498C283.401 34.5258 288.189 29.2565 291.628 25.5951C296.987 19.9018 301.233 14.5071 303.579 10.0232C305.007 7.30982 305.715 4.99515 305.715 4.99515C305.715 4.99515 305.268 7.19915 304.287 9.53782C302.424 13.9232 298.647 20.1005 292.789 27.3218C289.493 31.3738 286.172 35.3938 282.868 39.4245C278.808 44.3658 274.195 53.1898 272.476 59.9018C272.928 58.9018 276.312 49.3365 283.973 40.3685C287.388 36.3792 290.988 32.0605 293.849 28.3951C299.308 21.3805 303.008 15.3125 305.053 9.43515C306.28 5.96182 306.523 3.34315 306.523 3.34315C306.523 3.34315 306.392 6.36182 305.453 9.43515C304.193 13.5512 302.381 19.9898 295.148 30.3005C292.796 33.6538 289.631 37.5018 286.183 41.6711C280.131 49.0191 275.332 57.2631 273.607 60.7751C275.283 58.2978 280.013 50.9551 287.352 42.5045C289.967 39.5111 293.429 35.3791 296.087 31.5605C302.276 22.6645 304.845 15.2885 306.051 9.97115C306.641 7.38448 306.728 6.85515 306.957 5.59515C306.951 6.99515 306.745 8.43515 306.499 10.3591C305.268 19.8271 300.376 30.2565 296.564 35.2405C286.208 48.7618 281.36 53.3445 275.003 61.5285C280.839 55.2951 291.952 45.1871 299.111 34.3218C302.723 28.8578 305.735 20.6578 306.908 12.1485C307.193 10.0871 307.305 9.69515 307.441 7.43649C307.521 9.18982 307.533 11.5751 307.241 14.3565C306.577 20.6338 305.095 28.5498 301.357 35.5885C298.464 41.0605 291.313 49.7818 276.587 62.1218C284.08 56.4725 296 48.2538 302.337 36.8058C305.777 30.5911 307.273 23.0911 307.713 17.7458C307.944 15.1258 308.156 10.1725 308.156 10.1725C308.484 13.1391 308.521 17.1378 308.453 20.8312C308.336 27.3898 306.957 33.5271 304.455 38.2338C301.829 43.1658 295.111 52.8551 278.101 62.7151C297.172 52.8311 303.207 44.5911 306.088 38.8125C308.249 34.4831 309.564 28.7672 309.656 21.7271C309.781 12.1658 307.825 2.38049 307.441 1.08849C307.224 0.348484 306.827 -0.171516 306.424 0.865818Z" fill="#0AAFDE"/>
</g>
<path d="M91.7187 99.6467C90.88 104.62 91.756 110.127 94.0093 114.033C97.616 120.287 104.708 124.856 112.963 124.856C114.409 124.856 115.987 124.775 117.223 124.381C119.152 123.761 119.204 122.797 117.72 122.503C110.397 121.056 102.303 114.001 104.464 102.193C105.911 94.2227 113.188 88.1987 121.427 88.104V74.9134C106.641 74.9134 94.1467 85.3067 91.7187 99.6467Z" fill="url(#paint0_linear_1_13914)"/>
<mask id="mask31_1_13914" style="mask-type:luminance" maskUnits="userSpaceOnUse" x="-122" y="-58" width="530" height="303">
<path d="M-122 -58H407.133V244.36H-122V-58Z" fill="white"/>
</mask>
<g mask="url(#mask31_1_13914)">
<path d="M127.746 75.5598C125.666 75.1305 123.537 74.9132 121.426 74.9132C121.263 74.9132 121.106 74.9212 120.945 74.9225V88.1158C121.173 88.1078 121.397 88.0998 121.623 88.0998C122.778 88.0998 123.914 88.2265 125.051 88.4558C134.619 90.4745 140.306 98.9905 138.883 109.171C138.505 111.868 137.423 114.996 136.082 117.465C130.726 127.307 119.375 131.636 103.389 126.827C100.609 126.001 101.763 127.724 103.105 129.103C104.241 130.26 107.798 133.601 114.422 135.165C116.441 135.644 119.407 136.012 121.481 136.012C135.859 136.012 148.426 125.812 151.345 111.772C154.789 95.2412 144.198 78.9932 127.746 75.5598Z" fill="#0AAFDE"/>
</g>
</g>
<defs>
<linearGradient id="paint0_linear_1_13914" x1="106.416" y1="88.416" x2="106.416" y2="122.359" gradientUnits="userSpaceOnUse">
<stop stop-color="#0AAFDE"/>
<stop offset="1" stop-color="#0573AC"/>
</linearGradient>
<clipPath id="clip0_1_13914">
<rect width="335" height="171" fill="white"/>
</clipPath>
</defs>
</svg>
