<svg width="581" height="92" viewBox="0 0 581 92" fill="none" xmlns="http://www.w3.org/2000/svg">
<g clip-path="url(#clip0_1_14046)">
<path d="M79.4694 49.9771C79.2214 52.2076 78.7839 54.5943 78.1745 57.1216C76.1029 62.8534 72.6029 67.8898 68.0964 71.7974C61.9427 77.132 53.931 80.3599 45.1842 80.3599C40.8412 80.3599 36.7012 79.5708 32.8789 78.1242C53.6732 76.3586 59.2747 61.2805 60.7376 49.9771C61.2096 46.3182 61.2481 42.8703 61.2292 40.5611H47.3665H41.9531C42.1641 26.496 51.179 21.841 60.5599 21.841C68.7708 21.841 77.8027 27.5305 79.4844 40.5611C79.8457 43.3638 79.86 46.4966 79.4694 49.9771ZM10.8483 49.9771C10.487 47.1841 10.4681 44.048 10.8601 40.5611C11.112 38.3358 11.5404 35.9667 12.1589 33.4478C17.0111 19.8651 29.9773 10.1171 45.1843 10.1171C49.5574 10.1171 53.752 10.9237 57.6244 12.4068C36.696 14.1119 31.0639 29.233 29.5964 40.5611C29.1094 44.3358 29.0801 47.6789 29.1029 49.9771H43.0066H48.3829C48.1693 64.0435 39.155 68.7036 29.7774 68.7036C21.56 68.7036 12.528 63.0162 10.8483 49.9771ZM90.1882 40.5611C87.8536 17.6815 68.5613 -0.23645 45.1843 -0.23645C21.795 -0.23645 2.50265 17.6815 0.170624 40.5611C0.0124238 42.093 -0.0774231 43.6613 -0.0774231 45.231C-0.0774231 46.8378 0.0124308 48.4276 0.179098 49.9771C2.54042 72.8326 21.823 90.7063 45.1843 90.7063C68.532 90.7063 87.823 72.8326 90.183 49.9771C90.3471 48.4276 90.4258 46.8378 90.4258 45.231C90.4258 43.6613 90.3522 42.093 90.1882 40.5611Z" fill="#3269AE"/>
<path d="M126.292 23.591C125.046 23.591 124.24 23.4523 123.853 23.1697C123.476 22.8924 123.069 22.4842 122.637 21.9152L119.947 17.5962C119.237 16.3683 119.173 15.5005 119.737 15.0389C120.313 14.5721 120.957 14.5832 121.656 15.0832C122.896 15.7576 124.05 16.2323 125.126 16.4816C126.168 16.7485 127.74 16.8533 129.808 16.8533H141.051V13.9627C141.051 12.8963 140.908 11.9953 140.689 11.2362C140.426 10.4927 139.797 9.69384 138.765 8.80191C137.566 7.8898 137.076 7.00698 137.298 6.19384C137.512 5.38589 138.062 5.0428 138.925 5.16324L150.654 6.27392C151.097 6.36698 151.488 6.53107 151.825 6.79345C152.181 7.08185 152.367 7.5721 152.367 8.25634L152.281 16.8533H168.414C170.477 16.8533 171.499 17.9881 171.478 20.2349C171.438 22.4653 170.432 23.591 168.414 23.591H160.521C162.093 25.3455 163.348 27.2895 164.299 29.4308C165.251 31.5923 165.733 33.8533 165.733 36.2192C165.733 41.3351 163.758 45.7127 159.817 49.4067C155.885 53.1007 151.419 54.9406 146.421 54.9406C141.462 54.9406 137.06 53.1007 133.204 49.4067C129.296 45.7127 127.353 41.3351 127.353 36.2192C127.353 33.8533 127.814 31.5923 128.741 29.4308C129.668 27.2895 130.882 25.3455 132.42 23.591H126.292ZM150.74 62.1333C150.74 62.1333 151.062 62.2374 151.548 62.4614C152.044 62.6841 152.281 63.2791 152.281 64.2856V77.0903C152.336 79.1437 152.639 80.6072 153.184 81.5005C153.734 82.369 155.048 82.8143 157.171 82.8143H185.598C187.84 82.8143 188.945 83.8195 188.945 85.8429C188.945 87.8716 187.84 88.8768 185.598 88.8768H148.876C147.388 88.8768 145.678 88.3377 143.729 87.2023C141.77 86.0851 140.789 83.7804 140.789 80.2752V68.5903C140.789 67.0877 140.098 66.0109 138.677 65.3117C137.268 64.6333 136.228 64.0929 135.578 63.7205C134.646 63.2192 134.333 62.6059 134.597 61.8507C134.889 61.1033 135.286 60.757 135.825 60.8065L150.74 62.1333ZM141.462 44.6378C142.921 47.0174 144.576 48.188 146.421 48.188C148.325 48.188 149.995 47.0174 151.479 44.6378C152.93 42.2726 153.671 39.4562 153.671 36.2192C153.671 33.0402 152.93 30.2042 151.479 27.7166C149.995 25.2068 148.325 23.9686 146.421 23.9686C144.576 23.9686 142.921 25.2068 141.462 27.7166C139.97 30.2042 139.252 33.0402 139.252 36.2192C139.252 39.4562 139.97 42.2726 141.462 44.6378ZM196.864 29.283C198.529 29.1737 199.381 30.4927 199.415 33.2843C199.447 36.0454 198.584 37.4393 196.864 37.4393H187.631V60.0708C187.631 62.0096 187.101 63.7544 186.02 65.3117C184.938 66.869 183.561 67.6619 181.944 67.6619H178.925C178.206 67.6619 177.701 67.4888 177.374 67.1372C177.046 66.7986 176.888 66.2101 176.888 65.4067V15.0832C176.888 13.1548 176.153 11.7563 174.696 10.8644C173.218 10.0057 172.038 9.27783 171.106 8.72704C170.348 8.21076 170.085 7.59097 170.333 6.79345C170.576 6.02001 170.958 5.67365 171.508 5.72313L186.02 7.59097C186.893 7.71657 187.378 8.0135 187.482 8.49918C187.592 8.94579 187.631 9.27783 187.631 9.46532V30.0513L196.864 29.283Z" fill="#231F20"/>
<path d="M243.973 60.3586H263.13C263.71 60.3586 264.128 60.4888 264.38 60.7648C264.633 61.0617 264.742 61.5331 264.742 62.2336V81.4054C264.742 84.4393 264.137 86.9588 262.973 88.8768C261.757 90.8156 260.175 91.787 258.227 91.787H255.147C254.434 91.787 253.874 91.6242 253.517 91.2817C253.125 90.9289 252.942 90.3586 252.942 89.5317V66.7049H215.941C214.712 66.7049 213.889 66.5773 213.542 66.2935C213.204 66.0109 212.802 65.5943 212.371 65.0291L209.763 61.1919C209.382 60.3794 209.371 59.7101 209.723 59.1737C210.061 58.6581 210.572 58.5148 211.225 58.757C212.576 59.3872 213.745 59.8143 214.682 60.0265C215.639 60.2401 216.725 60.3586 217.899 60.3586H232.005V45.8612H208.549C207.072 45.8612 206.214 45.7375 205.937 45.5291C205.652 45.3065 205.306 44.9198 204.865 44.3456L202.346 40.0467C201.875 38.9797 201.875 38.1776 202.346 37.6216C202.842 37.0611 203.487 37.0317 204.314 37.5278C205.713 38.2759 206.813 38.7375 207.596 38.9308C208.381 39.1131 209.951 39.2186 212.282 39.2186H251.315C251.737 37.0904 252.114 34.0624 252.391 30.1216C252.703 26.2095 252.824 21.9146 252.769 17.2251H217.493C216.198 17.1704 215.366 17.0519 215.003 16.8534C214.637 16.6639 214.255 16.2824 213.809 15.7323L211.147 11.8944C210.661 10.8306 210.65 10.0467 211.102 9.50506C211.553 8.97446 212.193 8.96146 213.011 9.46148C214.439 10.2037 215.564 10.6268 216.446 10.7252C217.299 10.8202 218.911 10.8638 221.241 10.8638H262.799C263.934 10.9276 264.697 11.4348 265.074 12.3469C265.466 13.2935 265.594 14.2948 265.49 15.3508C265.059 20.6653 264.26 25.3013 263.13 29.2824C261.975 33.2837 260.616 36.5956 259.055 39.2186H270.458C272.878 39.2186 274.107 40.3039 274.107 42.5344C274.107 44.7466 272.878 45.8612 270.458 45.8612H243.973L243.973 60.3586Z" fill="#231F20"/>
<path d="M483.585 39.5005C484.264 39.7778 484.923 39.9178 485.568 39.9178H494.527V34.1112H483.714C483.327 34.1112 483.01 34.0526 482.801 33.8846C482.598 33.7244 482.333 33.4979 482.068 33.1899L481.914 32.9074C481.962 33.2192 481.979 33.5474 481.979 33.8846V34.8657C481.979 35.5591 481.953 36.2192 481.884 36.8885C481.789 37.5285 481.7 38.1776 481.586 38.7928C482.241 38.9803 482.905 39.2192 483.585 39.5005ZM482.393 26.4074C483.486 26.9276 484.536 27.186 485.568 27.186H494.527V15.0396C494.527 13.1007 493.809 11.6925 492.331 10.8299C490.872 9.9458 489.664 9.23812 488.76 8.66716C487.982 8.16195 487.729 7.5363 487.976 6.74984C488.21 5.99008 488.626 5.61377 489.156 5.68344L504.065 7.55648C504.934 7.69126 505.419 7.9738 505.538 8.44841C505.633 8.9165 505.686 9.23811 505.686 9.40739V46.7362C505.686 48.6841 505.141 50.4341 504.065 51.9758C502.979 53.5304 501.621 54.326 500 54.326H496.574C495.885 54.326 495.355 54.1567 495.032 53.8195C494.685 53.4731 494.527 52.8924 494.527 52.0747V46.8247H483.713C483.327 46.8247 483.01 46.7648 482.801 46.6112C482.598 46.4419 482.333 46.2192 482.068 45.9028L480.045 43.0897C478.572 46.0799 476.37 48.5148 473.436 50.3534C470.51 52.1971 467.104 53.106 463.247 53.106C457.659 53.106 453.032 51.3351 449.4 47.7713C445.755 44.2258 443.932 39.9178 443.932 34.8657C443.932 32.63 444.318 30.4823 445.091 28.4549C445.855 26.4315 446.906 24.6327 448.269 23.0955H442.319C441.074 23.0955 440.263 22.9367 439.855 22.6737C439.493 22.382 439.082 21.9549 438.646 21.3898L436.207 17.755C435.457 16.5109 435.379 15.6528 435.963 15.2323C436.553 14.7804 437.217 14.7804 437.913 15.2323C439.216 15.8364 440.357 16.1978 441.307 16.2433C442.26 16.3124 443.763 16.3377 445.825 16.3377H457.471C457.471 13.7941 457.372 11.9953 457.143 10.9686C456.926 9.92758 456.405 9.07927 455.596 8.38982C454.337 7.46859 453.846 6.53109 454.094 5.58838C454.318 4.65153 454.893 4.2609 455.766 4.36833L467.258 5.48487C467.69 5.55913 468.081 5.73227 468.427 6.00049C468.776 6.28825 468.953 6.76873 468.953 7.46859L468.721 16.3377H485.493C487.557 16.3377 488.586 17.4725 488.552 19.714C488.522 21.9549 487.516 23.0955 485.493 23.0955H477.764C478.13 23.5272 478.487 23.9823 478.815 24.4536C479.147 24.9152 479.439 25.3768 479.707 25.882C480.417 25.6939 481.309 25.8619 482.393 26.4074ZM467.565 74.5252V79.9627C467.565 81.3208 467.764 82.3078 468.151 82.8586C468.512 83.4237 469.391 83.6854 470.749 83.6854H490.872C492.062 83.7557 492.896 83.5018 493.401 82.9471C493.878 82.382 494.13 81.4158 494.13 80.0474V74.5252H467.565ZM458 43.1502C459.385 45.4211 461.081 46.5461 463.089 46.5461C465.102 46.5461 466.758 45.4211 468.051 43.1502C469.375 40.8742 470.025 38.1086 470.025 34.8657C470.025 31.6229 469.345 28.8566 468.017 26.5897C466.684 24.3195 465.012 23.1698 463.004 23.1698C460.992 23.1698 459.32 24.3195 457.967 26.6353C456.604 28.9354 455.935 31.6886 455.935 34.8657C455.935 38.1086 456.612 40.8742 458 43.1502ZM494.13 67.9849V66.6698C494.13 64.7518 493.798 63.3742 493.098 62.6099C492.439 61.8325 491.72 61.1867 490.953 60.6945C490.089 60.0565 489.727 59.283 489.846 58.3508C489.99 57.4107 490.411 57.007 491.105 57.1372C492.95 57.3794 495.414 57.7414 498.503 58.2023C501.566 58.6724 503.214 58.9458 503.411 59.0005C504.289 59.1346 504.769 59.4185 504.879 59.8833C505.008 60.3586 505.048 60.6945 505.048 60.869V83.3286C505.048 86.1294 504.348 87.8716 502.966 88.5252C501.582 89.1698 500.104 89.4966 498.538 89.4966H463.004C461.432 89.4367 459.965 89.1138 458.605 88.5252C457.242 87.9159 456.573 86.1893 456.573 83.3286V67.3247C456.573 65.3872 456.207 64.0617 455.522 63.3638C454.829 62.6502 454.079 62.02 453.311 61.5278C452.458 60.8937 452.137 60.1268 452.34 59.1893C452.553 58.2466 452.935 57.8455 453.47 57.9784C454.992 58.2166 457.387 58.5877 460.65 59.0552C463.902 59.5109 465.637 59.7883 465.845 59.8338C466.792 59.9679 467.297 60.3247 467.417 60.9302C467.51 61.5148 467.565 61.8416 467.565 61.8416V67.9849H494.13Z" fill="#231F20"/>
<path d="M535.811 46.5799C537.367 48.9211 539.168 50.0799 541.245 50.0799C543.367 50.0799 545.221 48.9211 546.823 46.5799C548.424 44.2368 549.232 41.3553 549.232 37.9354C549.232 34.4835 548.424 31.6125 546.853 29.283C545.296 26.9471 543.471 25.7765 541.404 25.7765C539.292 25.7765 537.432 26.9471 535.865 29.283C534.289 31.6125 533.51 34.4835 533.51 37.9354C533.51 41.3553 534.289 44.2368 535.811 46.5799ZM547.026 65.7088H549.719C554.647 65.7088 558.589 65.5395 561.513 65.2023C564.453 64.8612 567.005 63.9054 569.184 62.3377V15.1033C569.184 13.1554 568.44 11.7765 566.986 10.8989C565.523 10.0259 564.329 9.2928 563.397 8.74202C562.638 8.24202 562.385 7.60204 562.628 6.8234C562.867 6.04474 563.254 5.69253 563.814 5.74332L578.389 7.62157C579.253 7.74984 579.749 8.03825 579.853 8.51415C579.956 8.9751 580.026 9.2928 580.026 9.48616V84.2257C580.026 86.1646 579.48 87.9054 578.389 89.4666C577.293 91.0343 575.96 91.8013 574.329 91.8013H571.221C570.496 91.8013 570.001 91.6437 569.664 91.2908C569.336 90.9484 569.184 90.3885 569.184 89.5617V68.4211C567.448 69.9237 565.251 70.9289 562.59 71.4849C559.911 72.0044 556.292 72.2518 551.661 72.2518H521.031C519.891 72.2518 519.117 72.214 518.701 72.119C518.305 72.0252 517.883 71.7023 517.451 71.1294L514.512 66.3638C514.085 65.6841 514.085 65.05 514.512 64.494C514.953 63.9341 515.543 63.8091 516.312 64.1112C517.551 64.8065 518.746 65.2466 519.857 65.4263C520.977 65.6242 522.559 65.7088 524.621 65.7088H535.617V55.8065C531.82 54.6841 528.617 52.4914 526.043 49.2518C523.456 45.9953 522.177 42.1925 522.177 37.8299C522.177 35.466 522.589 33.2296 523.437 31.1365C524.279 29.0591 525.469 27.2407 526.986 25.6724H522.177C520.922 25.6724 520.109 25.5448 519.733 25.3019C519.355 25.0396 518.958 24.6164 518.513 24.007L515.661 19.9562C515.122 18.7127 515.122 17.8794 515.661 17.438C516.203 17.0057 516.753 17.0311 517.374 17.5382C518.439 18.0981 519.456 18.4953 520.392 18.7524C521.309 18.9992 522.523 19.1248 524.056 19.1248H535.784C535.784 17.1912 535.682 15.3911 535.548 13.686C535.38 12.0141 534.745 10.8989 533.664 10.3377C532.4 9.52457 531.855 8.69645 532.048 7.8553C532.202 7.00699 532.786 6.66064 533.833 6.77782L545.474 7.89892C546.064 7.96852 546.521 8.19124 546.823 8.60335C547.115 8.99917 547.25 9.55128 547.189 10.2446L547.026 19.1248H561.93C564.329 19.1248 565.523 20.2296 565.523 22.4113C565.523 24.5871 564.329 25.6724 561.93 25.6724H555.984C557.458 27.2407 558.617 29.0591 559.49 31.1365C560.353 33.2296 560.775 35.466 560.775 37.8299C560.775 42.1925 559.49 45.9953 556.823 49.2088C554.199 52.4028 550.934 54.6177 547.026 55.8065V65.7088Z" fill="#231F20"/>
<path d="M357.96 8.49924C357.857 8.01421 357.37 7.71669 356.497 7.59103L341.986 5.72189C341.436 5.67243 341.053 6.02073 340.811 6.79416C340.568 7.59104 340.825 8.21147 341.585 8.7271C342.517 9.27658 343.702 10.0058 345.174 10.8632C346.631 11.7564 347.365 13.1555 347.365 15.0832V34.4179L338.862 35.1288V9.46603C338.862 9.27658 338.824 8.94585 338.714 8.49924C338.611 8.01421 338.124 7.71669 337.251 7.59103L322.74 5.72189C322.189 5.67243 321.809 6.02073 321.565 6.79416C321.316 7.59104 321.579 8.21147 322.339 8.7271C323.271 9.27658 324.45 10.0058 325.927 10.8632C327.385 11.7564 328.118 13.1555 328.118 15.0832V87.007C328.118 87.8117 328.277 88.4016 328.605 88.7375C328.931 89.0904 329.437 89.2636 330.156 89.2636H333.177C334.792 89.2636 336.169 88.4706 337.251 86.9133C338.332 85.356 338.862 83.6112 338.862 81.6724V42.5155H347.365V89.5461C347.365 90.3495 347.523 90.9393 347.852 91.2766C348.178 91.6281 348.69 91.8013 349.409 91.8013H352.422C354.039 91.8013 355.417 91.0083 356.497 89.4511C357.583 87.8951 358.115 86.1503 358.115 84.2115V9.46603C358.115 9.27658 358.074 8.94585 357.96 8.49924Z" fill="#231F20"/>
<path d="M307.85 46.58C306.249 48.9211 304.396 50.08 302.268 50.08C300.195 50.08 298.396 48.9211 296.84 46.58C295.311 44.2369 294.538 41.3554 294.538 37.9354C294.538 34.4836 295.311 31.6125 296.895 29.2831C298.456 26.9472 300.32 25.7766 302.432 25.7766C304.495 25.7766 306.323 26.9472 307.88 29.2831C309.453 31.6125 310.26 34.4836 310.26 37.9354C310.26 41.3554 309.453 44.2369 307.85 46.58ZM321.743 19.1249H308.053L308.211 10.2447C308.277 9.55133 308.143 8.99923 307.85 8.6034C307.548 8.1913 307.092 7.96863 306.497 7.89898L294.857 6.77788C293.815 6.66068 293.23 7.00705 293.076 7.85536C292.883 8.6965 293.43 9.52463 294.693 10.3378C295.772 10.899 296.409 12.0142 296.572 13.6861C296.711 15.3912 296.81 17.1913 296.81 19.1249H285.083C283.546 19.1249 282.339 18.9993 281.415 18.7525C280.479 18.4953 279.466 18.0982 278.401 17.5383C277.781 17.0311 277.225 17.0058 276.685 17.438C276.15 17.8795 276.15 18.7128 276.685 19.9563L279.537 24.007C279.988 24.6164 280.378 25.0396 280.761 25.302C281.131 25.5448 281.952 25.6724 283.205 25.6724H288.009C286.492 27.2408 285.307 29.0591 284.464 31.1366C283.617 33.2297 283.205 35.466 283.205 37.83C283.205 42.1926 284.485 45.9953 287.073 49.2518C289.645 52.4914 292.849 54.6841 296.641 55.8065C296.641 55.8065 299.621 56.606 302.422 56.606C305.228 56.606 308.053 55.8065 308.053 55.8065C311.961 54.6177 315.229 52.4029 317.852 49.2089C320.518 45.9953 321.802 42.1926 321.802 37.83C321.802 35.466 321.381 33.2297 320.518 31.1366C319.641 29.0591 318.486 27.2408 317.013 25.6724H321.743C324.142 25.6724 325.337 24.5871 325.337 22.4113C325.337 20.2297 324.142 19.1249 321.743 19.1249Z" fill="#231F20"/>
<path d="M424.164 82.8378H396.633C394.521 82.8378 393.191 82.4016 392.656 81.5292C392.111 80.6424 391.814 79.1789 391.74 77.1268V63.2792C391.74 62.2922 391.501 61.6776 391.021 61.4588C390.529 61.2414 390.256 61.1229 390.211 61.1229L375.378 59.8247C374.837 59.7545 374.422 60.1112 374.154 60.856C373.891 61.593 374.198 62.2323 375.125 62.7245C375.779 63.1008 376.816 63.6255 378.228 64.3117C379.646 64.9836 380.341 66.1008 380.341 67.5825V80.3039C380.341 83.8 381.311 86.1112 383.271 87.2349C385.234 88.3456 386.95 88.9016 388.406 88.9016H424.164C426.4 88.9016 427.51 87.9055 427.51 85.8729C427.51 83.8495 426.4 82.8378 424.164 82.8378Z" fill="#231F20"/>
<path d="M436.553 46.744H375.139C372.805 46.744 371.233 46.645 370.404 46.4966C369.586 46.3534 368.471 45.908 367.073 45.1326C366.266 44.658 365.6 44.6671 365.116 45.244C364.634 45.8013 364.634 46.6151 365.116 47.6724L367.724 51.6841C368.148 52.2635 368.517 52.6398 368.789 52.8638C369.047 53.0799 369.928 53.1893 371.387 53.1893H398.937V70.3338C398.937 71.1528 399.096 71.7218 399.439 72.0643C399.751 72.4158 400.262 72.5747 400.975 72.5747H404.802C406.435 72.5747 407.802 71.8065 408.969 70.2414C410.092 68.6789 410.674 66.9289 410.674 64.9992V53.1893H436.553C439.018 53.1893 440.217 52.1138 440.217 49.9523C440.217 47.8039 439.018 46.744 436.553 46.744Z" fill="#231F20"/>
<path d="M412.819 32.619C410.267 34.9588 407.307 36.1203 403.911 36.1203C400.608 36.1203 397.738 34.9588 395.25 32.619C392.815 30.2739 391.581 27.3937 391.581 23.9725C391.581 20.5526 392.815 17.6711 395.25 15.3312C397.738 12.9855 400.608 11.826 403.911 11.826C407.307 11.826 410.267 12.9855 412.819 15.3312C415.372 17.6711 416.661 20.5526 416.661 23.9725C416.661 27.3937 415.372 30.2739 412.819 32.619ZM422.725 12.6991C419.548 9.50572 415.586 7.29348 410.852 6.09882C410.852 6.09882 407.426 5.30194 404.025 5.30194C400.629 5.30194 397.014 6.09882 397.014 6.09882C392.418 7.22447 388.531 9.41652 385.411 12.6535C382.305 15.8872 380.762 19.6548 380.737 23.9725C380.762 28.2909 382.305 32.0643 385.411 35.2909C388.531 38.5298 392.418 40.7206 397.014 41.8456C397.014 41.8456 400.629 42.6444 404.025 42.6444C407.426 42.6444 410.852 41.8456 410.852 41.8456C415.586 40.6548 419.548 38.4406 422.725 35.2473C425.934 32.0643 427.48 28.2909 427.51 23.9725C427.48 19.6548 425.934 15.8872 422.725 12.6991Z" fill="#231F20"/>
</g>
<defs>
<clipPath id="clip0_1_14046">
<rect width="581" height="92" fill="white"/>
</clipPath>
</defs>
</svg>
