<svg width="455" height="141" viewBox="0 0 455 141" fill="none" xmlns="http://www.w3.org/2000/svg">
<g clip-path="url(#clip0_1_20051)">
<mask id="mask0_1_20051" style="mask-type:luminance" maskUnits="userSpaceOnUse" x="-53" y="-7" width="578" height="153">
<path d="M-53 -6.99998H524.179V145.515H-53V-6.99998Z" fill="white"/>
</mask>
<g mask="url(#mask0_1_20051)">
<path d="M107.88 66.2464C96.3963 58.4397 81.6856 61.6237 73.9656 73.3651C67.5163 83.1717 57.7816 84.3891 54.0083 84.3891C41.7243 84.3891 33.3136 75.7464 30.8229 66.8037H30.8176C30.7923 66.7144 30.7763 66.6424 30.7496 66.5557C30.7269 66.4544 30.6949 66.3557 30.6709 66.2504C29.6909 62.5197 29.4509 60.7357 29.4509 56.7704C29.4509 35.3824 51.3909 11.5717 82.9976 11.5717C115.359 11.5717 133.875 36.2077 138.647 49.9011C138.566 49.6611 138.492 49.4211 138.407 49.1731C129.222 22.3944 103.826 3.13708 73.9296 3.13708C36.3016 3.13708 5.78427 33.6451 5.78427 71.2824C5.78427 104.924 30.0496 133.722 63.7029 133.722C90.5496 133.722 108.588 118.668 116.864 97.9291C121.407 86.5851 118.19 73.2517 107.88 66.2464Z" fill="#003863"/>
</g>
<mask id="mask1_1_20051" style="mask-type:luminance" maskUnits="userSpaceOnUse" x="-53" y="-7" width="578" height="153">
<path d="M-53 -7.00002H524.179V145.515H-53V-7.00002Z" fill="white"/>
</mask>
<g mask="url(#mask1_1_20051)">
<path d="M139.073 51.2308C135.094 37.8735 116.437 11.5721 82.9969 11.5721C51.3903 11.5721 29.4503 35.3815 29.4503 56.7695C29.4503 60.7361 29.6916 62.5201 30.6703 66.2508C30.2609 64.6188 30.0436 62.9815 30.0436 61.3881C30.0436 39.1161 52.3463 23.6815 75.2703 23.6815C106.305 23.6815 131.461 48.8401 131.461 79.8681C131.461 104.195 117.461 125.247 97.1196 135.364L97.1276 135.379C123.346 125.884 142.07 100.773 142.07 71.2828C142.07 64.3041 141.133 58.1495 139.073 51.2308Z" fill="#E4032E"/>
</g>
<mask id="mask2_1_20051" style="mask-type:luminance" maskUnits="userSpaceOnUse" x="-53" y="-7" width="578" height="153">
<path d="M-53 -7.00002H524.179V145.515H-53V-7.00002Z" fill="white"/>
</mask>
<g mask="url(#mask2_1_20051)">
<path d="M222.971 44.1709H229.565V98.6323H222.971V73.5376H216.622V98.3269H210.393V44.2323H216.622V67.3709H222.971V44.1709ZM199.466 73.3563C199.466 71.3616 198.771 69.6509 197.389 68.2269C196.002 66.8043 194.294 66.0896 192.261 66.0896C190.266 66.0896 188.565 66.8043 187.159 68.2269C185.755 69.6509 185.055 71.3616 185.055 73.3563C185.055 75.3523 185.755 77.0483 187.159 78.4536C188.565 79.8576 190.266 80.5603 192.261 80.5603C194.294 80.5603 196.002 79.8576 197.389 78.4536C198.771 77.0483 199.466 75.3523 199.466 73.3563ZM205.938 73.3563C205.938 75.1069 205.57 76.7736 204.838 78.3629C204.105 79.9496 203.105 81.3349 201.846 82.5136C200.583 83.6549 199.127 84.5709 197.479 85.2603C195.831 85.9536 194.067 86.2989 192.201 86.2989C190.326 86.2989 188.565 85.9536 186.917 85.2603C185.269 84.5709 183.835 83.6549 182.614 82.5136C181.351 81.3349 180.354 79.9496 179.622 78.3629C178.887 76.7736 178.523 75.1069 178.523 73.3563C178.523 71.6056 178.887 69.9363 179.622 68.3496C180.354 66.7603 181.351 65.3989 182.614 64.2576C183.835 63.0789 185.269 62.1429 186.917 61.4496C188.565 60.7589 190.326 60.4123 192.201 60.4123C194.067 60.4123 195.831 60.7589 197.479 61.4496C199.127 62.1429 200.583 63.0789 201.846 64.2576C203.105 65.3989 204.105 66.7603 204.838 68.3496C205.57 69.9363 205.938 71.6056 205.938 73.3563ZM206.914 51.4363V57.2363H176.935V51.4363H188.414V45.0256H195.679V51.4363H206.914Z" fill="#575756"/>
</g>
<mask id="mask3_1_20051" style="mask-type:luminance" maskUnits="userSpaceOnUse" x="-53" y="-7" width="578" height="153">
<path d="M-53 -7.00002H524.179V145.515H-53V-7.00002Z" fill="white"/>
</mask>
<g mask="url(#mask3_1_20051)">
<path d="M280.68 72.6228H273.964V44.1708H280.68V49.3001H288.494V55.1601H280.68V60.9614H288.494V66.8828H280.68V72.6228ZM271.644 86.9708C271.644 84.9361 270.909 83.1854 269.445 81.7201C267.98 80.2548 266.226 79.5228 264.193 79.5228C262.161 79.5228 260.398 80.2548 258.914 81.7201C257.428 83.1854 256.685 84.9361 256.685 86.9708C256.685 89.0468 257.428 90.8081 258.914 92.2521C260.398 93.6974 262.161 94.4201 264.193 94.4201C266.226 94.4201 267.98 93.6974 269.445 92.2521C270.909 90.8081 271.644 89.0468 271.644 86.9708ZM278.237 87.0321C278.237 88.8641 277.862 90.5828 277.109 92.1908C276.354 93.8001 275.349 95.2134 274.086 96.4334C272.82 97.6548 271.328 98.6228 269.598 99.3348C267.868 100.045 266.044 100.403 264.133 100.403C262.221 100.403 260.409 100.045 258.698 99.3348C256.989 98.6228 255.505 97.6548 254.242 96.4334C252.94 95.2134 251.922 93.8001 251.19 92.1908C250.456 90.5828 250.092 88.8641 250.092 87.0321C250.092 85.2001 250.456 83.4814 251.19 81.8721C251.922 80.2628 252.94 78.8508 254.242 77.6294C255.505 76.4081 256.989 75.4401 258.698 74.7294C260.409 74.0174 262.221 73.6601 264.133 73.6601C266.044 73.6601 267.868 74.0174 269.598 74.7294C271.328 75.4401 272.82 76.4081 274.086 77.6294C275.349 78.8508 276.354 80.2628 277.109 81.8721C277.862 83.4814 278.237 85.2001 278.237 87.0321ZM257.966 58.0308C257.966 55.9148 257.213 54.1041 255.708 52.5961C254.201 51.0921 252.39 50.3374 250.273 50.3374C248.117 50.3374 246.294 51.0921 244.81 52.5961C243.322 54.1041 242.581 55.9148 242.581 58.0308C242.581 60.1881 243.322 62.0081 244.81 63.4948C246.294 64.9814 248.117 65.7228 250.273 65.7228C252.39 65.7228 254.201 64.9814 255.708 63.4948C257.213 62.0081 257.966 60.1881 257.966 58.0308ZM264.5 58.0308C264.5 59.8628 264.114 61.5934 263.338 63.2201C262.565 64.8494 261.526 66.2721 260.224 67.4934C258.961 68.7148 257.477 69.6828 255.768 70.3934C254.057 71.1054 252.226 71.4628 250.273 71.4628C248.276 71.4628 246.417 71.1054 244.69 70.3934C242.956 69.6828 241.461 68.7148 240.198 67.4934C238.898 66.2721 237.86 64.8494 237.086 63.2201C236.31 61.5934 235.925 59.8628 235.925 58.0308C235.925 56.1988 236.31 54.4588 237.086 52.8108C237.86 51.1614 238.898 49.7481 240.198 48.5668C241.461 47.3454 242.956 46.3694 244.69 45.6361C246.417 44.9028 248.276 44.5374 250.273 44.5374C252.226 44.5374 254.057 44.9028 255.768 45.6361C257.477 46.3694 258.961 47.3454 260.224 48.5668C261.526 49.7481 262.565 51.1614 263.338 52.8108C264.114 54.4588 264.5 56.1988 264.5 58.0308Z" fill="#575756"/>
</g>
<mask id="mask4_1_20051" style="mask-type:luminance" maskUnits="userSpaceOnUse" x="-53" y="-7" width="578" height="153">
<path d="M-53 -7.00002H524.179V145.515H-53V-7.00002Z" fill="white"/>
</mask>
<g mask="url(#mask4_1_20051)">
<path d="M316.721 44.1709L339.191 68.4096L334.305 72.6229L316.721 53.7563L299.197 72.6229L294.252 68.4096L316.721 44.1709ZM341.752 78.1176V84.1003H320.079V98.6323H313.303V84.1003H291.688V78.1176H341.752Z" fill="#575756"/>
</g>
<mask id="mask5_1_20051" style="mask-type:luminance" maskUnits="userSpaceOnUse" x="-53" y="-7" width="578" height="153">
<path d="M-53 -7.00002H524.179V145.515H-53V-7.00002Z" fill="white"/>
</mask>
<g mask="url(#mask5_1_20051)">
<path d="M392.542 79.0329H385.826V44.1716H392.542V56.6863H400.359V63.3409H392.542V79.0329ZM357.312 79.3383V91.5503H393.948V97.5329H350.536V79.3383H357.312ZM363.847 43.8649L380.638 70.6689L375.263 74.0876L363.847 55.4049L352.612 74.5756L347.118 71.0969L363.847 43.8649Z" fill="#575756"/>
</g>
<mask id="mask6_1_20051" style="mask-type:luminance" maskUnits="userSpaceOnUse" x="-53" y="-7" width="578" height="153">
<path d="M-53 -7.00002H524.179V145.515H-53V-7.00002Z" fill="white"/>
</mask>
<g mask="url(#mask6_1_20051)">
<path d="M444.123 57.8093H415.487V65.32H444.123V57.8093ZM415.487 51.948H444.123V45.048H450.839V71.2413H408.831V45.048H415.487V51.948ZM404.803 78.568H454.867V84.552H433.193V98.596H426.415V84.552H404.803V78.568Z" fill="#575756"/>
</g>
</g>
<defs>
<clipPath id="clip0_1_20051">
<rect width="455" height="141" fill="white"/>
</clipPath>
</defs>
</svg>
